<svg height="32" viewBox="0 0 99 32" width="99" xmlns="http://www.w3.org/2000/svg" xmlns:xlink="http://www.w3.org/1999/xlink"><defs><circle id="a" cx="16" cy="16" r="16"/><mask id="b" fill="#fff"><use fill="#fff" fill-rule="evenodd" xlink:href="#a"/></mask></defs><g fill="none" fill-rule="evenodd"><use fill="#000" fill-opacity=".08" fill-rule="nonzero" xlink:href="#a"/><g mask="url(#b)"><path d="m12.132 7.938s-.623-2.649-2.105-2.863c-1.62-.235-5.187 1.848-4.619 4.995.45 2.502 2.413 2.621 2.986 2.176.98-.762 2.776-3.073 2.776-3.073l.962-1.236z" fill="#3c1a00"/><path d="m14.987 6.924c6.924 0 8.193 4.539 8.335 6.713.141 2.174-.077 4.924 1.03 6.913.737 1.322 3.358 4.81 7.507 7.826-5.069 2.934-12.539 4.624-19.469 3.624.14-2.416.14-4.44 0-6.073a3.733 3.733 0 0 0 -2.72-3.317c-1.1-.303-1.605-2.663-1.514-7.082 0 0-1.052-8.604 6.83-8.604z" fill="#fcc840"/><path d="m4.04 19.928c-1.423-2.12-1.475-3.25-.633-4.073.545-.533 1.779-.43 3.328-.408 2.538.035 5.738.414 6.704 1.126 1.745 1.286 1.818 3.375.316 4.66-1.022.873-2.462 1.453-3.83 1.453-1.853-.587-4.545-.765-5.884-2.758z" fill="#ffe398"/><path d="m6.974 16.254c.404 1.003-.244 2.58-1.626 3.067-.39.137-1.108.29-1.62.12-1.133-1.814-1.09-2.864-.317-3.621.193-.188.626-.348 1.183-.384.856-.057 2.02-.078 2.38.818zm4.385 2.899c.72-.276 1.293-.051 1.615.68.058.131.011.273-.09.319-.1.045-.22.001-.284-.13a1.058 1.058 0 0 0 -.2-.287 4.483 4.483 0 0 1 -3.323 2.716c-.28-.07-.569-.139-.862-.212a4.481 4.481 0 0 0 3.631-2.742 1.264 1.264 0 0 0 -.381.044c-.12.031-.223-.034-.246-.133a.216.216 0 0 1 .14-.255z" fill="#3c1a00"/><path d="m9.236 15.076c.362-.007.65-.365.642-.802-.008-.436-.308-.785-.67-.779-.363.007-.65.365-.642.802.007.436.307.785.67.779zm5.346 0c.403-.007.723-.367.715-.803s-.34-.784-.743-.778c-.402.007-.723.367-.715.803s.34.784.743.778z" fill="#000"/><path d="m17.19 8.627c1.312-1.635 2.305-2.764 2.978-3.387.465-.43 1.074-1.01 2.162-1.084 1.575-.108 5.652 2.894 5.361 6.565-.099 1.25-1.571 3.884-4.15 3.208-1.982-.52-2.145-5.002-3.158-5.433-.845-.358-1.777.941-2.307 1.1-.112.033-.47.135-.796-.13a.598.598 0 0 1 -.09-.84z" fill="#3c1a00"/><path d="m12.68 28.646.133.005c5.136.32 10.426-1.65 12.935-5.91a3.17 3.17 0 0 0 .148-.304.527.527 0 0 0 -.054-.52l-1.324-1.84a.263.263 0 0 0 -.436.012l-.035.054c-2.602 3.942-6.873 5.811-11.56 5.354a.42.42 0 0 0 -.46.443l.137 2.212c.017.274.241.489.515.494z" fill="#ff4f41" fill-rule="nonzero"/></g><path d="m66.854 13.972h.119c.832 0 1.507.675 1.507 1.508.231-.597.657-1.019 1.275-1.265.216-.086.452-.142.71-.168a1.526 1.526 0 0 1 1.68 1.518c0 .718-.528 1.328-1.239 1.43-1.617.234-2.426.98-2.426 2.235v2.322a1.626 1.626 0 1 1 -3.252 0v-5.954c0-.898.728-1.626 1.626-1.626zm20.425 1.626v5.954a1.626 1.626 0 1 1 -3.252 0v-5.954a1.626 1.626 0 1 1 3.252 0zm-3.468-5.16c0-.252.048-.488.144-.71a1.861 1.861 0 0 1 .98-.977 1.77 1.77 0 0 1 .709-.144c.252 0 .488.048.71.144a1.864 1.864 0 0 1 .979.978c.096.22.144.457.144.708 0 .252-.048.488-.144.71a1.861 1.861 0 0 1 -.98.977 1.77 1.77 0 0 1 -.709.144 1.77 1.77 0 0 1 -.71-.144 1.864 1.864 0 0 1 -.979-.978 1.765 1.765 0 0 1 -.144-.709zm7.9 8.137c0 .309.056.591.17.846.113.256.263.479.448.669s.406.338.663.445a2.1 2.1 0 0 0 .815.16 2.1 2.1 0 0 0 .815-.16 1.97 1.97 0 0 0 .663-.445c.185-.19.334-.413.448-.669.113-.255.17-.531.17-.828 0-.285-.057-.555-.17-.81a2.266 2.266 0 0 0 -.448-.669 1.97 1.97 0 0 0 -.663-.445 2.1 2.1 0 0 0 -.815-.16 2.1 2.1 0 0 0 -.815.16 1.97 1.97 0 0 0 -.663.445c-.185.19-.335.41-.448.66-.114.249-.17.516-.17.801zm1.946-4.908c.706 0 1.36.123 1.965.367a4.776 4.776 0 0 1 1.572 1.021 4.58 4.58 0 0 1 1.035 1.559 5.24 5.24 0 0 1 .369 1.997c0 .728-.126 1.394-.377 1.997a4.741 4.741 0 0 1 -1.035 1.558 4.543 4.543 0 0 1 -1.58 1.012 5.47 5.47 0 0 1 -1.997.358c-.706 0-1.358-.119-1.957-.358a4.445 4.445 0 0 1 -1.548-1.02 4.76 4.76 0 0 1 -1.019-1.586c-.246-.615-.369-1.298-.369-2.05 0-.681.123-1.317.37-1.908a4.684 4.684 0 0 1 1.026-1.54c.438-.437.96-.78 1.564-1.03a5.118 5.118 0 0 1 1.981-.377zm-36.13-.06c.705 0 1.36.123 1.964.368.277.112.537.244.78.397.295-.288.7-.465 1.146-.465h.004c.908 0 1.645.736 1.645 1.644v5.982c0 .908-.737 1.645-1.645 1.645h-.004a1.64 1.64 0 0 1 -1.14-.46 4.683 4.683 0 0 1 -.802.4 5.47 5.47 0 0 1 -1.997.359c-.706 0-1.358-.12-1.957-.359a4.445 4.445 0 0 1 -1.548-1.02 4.76 4.76 0 0 1 -1.019-1.586c-.246-.615-.369-1.298-.369-2.05 0-.681.123-1.317.37-1.908a4.684 4.684 0 0 1 1.026-1.54c.438-.436.96-.78 1.564-1.03a5.118 5.118 0 0 1 1.981-.377zm-14.407-5.297c.827 0 1.497.67 1.497 1.498v4.162l.228-.086a5.214 5.214 0 0 1 1.718-.277c.706 0 1.361.123 1.966.368a4.776 4.776 0 0 1 1.572 1.02 4.58 4.58 0 0 1 1.034 1.559 5.24 5.24 0 0 1 .37 1.997c0 .728-.126 1.394-.378 1.997a4.741 4.741 0 0 1 -1.034 1.558 4.543 4.543 0 0 1 -1.58 1.012 5.47 5.47 0 0 1 -1.998.359c-.705 0-1.358-.12-1.957-.359a4.77 4.77 0 0 1 -.465-.215 1.497 1.497 0 0 1 -2.47-1.137v-11.958c0-.827.67-1.498 1.497-1.498zm31.626-.086c.909 0 1.645.737 1.645 1.645l-.002 7.295.027-.029.03-.03 2.649-2.646a1.645 1.645 0 0 1 2.324 0l.003.002c.642.642.643 1.683.001 2.325l-.001.002-1.556 1.552 2.067 2.065c.604.603.64 1.56.108 2.207l-.108.118-.003.003a1.645 1.645 0 0 1 -2.324 0l-3.179-3.174-.037-.042.001 2.016c0 .908-.736 1.645-1.645 1.645h-.004a1.645 1.645 0 0 1 -1.645-1.645v-11.664c0-.908.737-1.645 1.645-1.645zm-17.07 8.225a2.1 2.1 0 0 0 -.815.16 1.97 1.97 0 0 0 -.663.445c-.185.19-.335.41-.448.66-.113.249-.17.516-.17.801 0 .31.057.591.17.847.113.255.263.478.448.668s.406.338.663.445a2.1 2.1 0 0 0 .815.16 2.1 2.1 0 0 0 .815-.16 1.97 1.97 0 0 0 .663-.445c.185-.19.334-.413.448-.668.113-.256.17-.532.17-.829 0-.285-.057-.555-.17-.81a2.266 2.266 0 0 0 -.448-.669 1.97 1.97 0 0 0 -.663-.445 2.1 2.1 0 0 0 -.815-.16zm-10.963 0a2.1 2.1 0 0 0 -.815.16 1.97 1.97 0 0 0 -.663.445c-.185.19-.334.41-.448.66-.113.249-.17.516-.17.801 0 .31.057.591.17.847.114.255.263.478.448.668s.406.338.663.445a2.1 2.1 0 0 0 .815.16 2.1 2.1 0 0 0 .815-.16 1.97 1.97 0 0 0 .663-.445c.185-.19.335-.413.448-.668.114-.256.17-.532.17-.829 0-.285-.056-.555-.17-.81a2.266 2.266 0 0 0 -.448-.669 1.97 1.97 0 0 0 -.663-.445 2.1 2.1 0 0 0 -.815-.16z" fill="#fff" fill-rule="nonzero"/></g></svg>