<svg xmlns="http://www.w3.org/2000/svg" xmlns:xlink="http://www.w3.org/1999/xlink" width="74" height="24" viewBox="0 0 74 24">
  <defs>
    <circle id="barkio_logotype_dark-a" cx="12" cy="12" r="12"/>
  </defs>
  <g fill="none" fill-rule="evenodd">
    <mask id="barkio_logotype_dark-b" fill="#fff">
      <use xlink:href="#barkio_logotype_dark-a"/>
    </mask>
    <use fill="#FFF" fill-opacity=".12" fill-rule="nonzero" xlink:href="#barkio_logotype_dark-a"/>
    <g mask="url(#barkio_logotype_dark-b)">
      <g transform="translate(2 3)">
        <path fill="#3C1A00" d="M7.10926818,2.99824513 C7.10926818,2.99824513 6.67661575,1.0036597 5.56813475,0.823149493 C4.35581548,0.625729775 1.65518653,2.14119583 2.03912358,4.50943986 C2.34427947,6.39136497 3.81447628,6.50685739 4.24986869,6.18048573 C4.99520142,5.62162145 6.37142942,3.91198372 6.37142942,3.91198372 L7.10926818,2.99824513 Z" transform="rotate(-1 4.556 3.564)"/>
        <path fill="#FCC840" d="M9.24031654,2.19307373 C14.4330881,2.19307373 15.3853054,5.59725731 15.4913206,7.22790158 C15.5973358,8.85854585 15.433638,10.9207403 16.2645258,12.4124306 C16.8167547,13.4038453 18.7826087,16.0204604 21.894528,18.2819629 C18.091285,20.482841 12.4900012,21.7497978 7.29155154,21 C7.3973757,19.1879753 7.3973757,17.6697438 7.29155154,16.4453054 C7.17870148,15.1395738 6.27271176,14.2379554 5.25360335,13.9576026 C4.42787333,13.7304474 4.04918355,11.9600292 4.11753399,8.6463478 C4.11753399,8.6463478 3.32848097,2.19307373 9.24031654,2.19307373 Z"/>
        <g transform="translate(.001 8.332)">
          <path fill="#FFE398" d="M1.01840456,3.55093598 C-0.021830581,1.94243095 -0.045388054,1.09451869 0.596154771,0.488730431 C1.01210674,0.0959603644 1.93594415,0.189005551 3.09745627,0.22569682 C5.00035175,0.285807817 7.39484012,0.611297457 8.11010043,1.15791912 C9.40174987,2.14503324 9.42895308,3.71303034 8.28579465,4.65626773 C7.5081296,5.29793098 6.42027081,5.71415704 5.39478077,5.69625705 C4.01314221,5.23217139 1.99652997,5.06340136 1.01840456,3.55093598 Z" transform="rotate(-1 4.639 2.943)"/>
          <path fill="#3C1A00" d="M3.22959313.85827011C3.53234026 1.61114701 3.04651219 2.79400851 2.01032602 3.15868875 1.71793725 3.26159343 1.17870518 3.3762512.794344094 3.24844527-.0548399925 1.8880717-.0232014733 1.10095856.557540132.533086234.702057247.39177163 1.02640866.272387888 1.44479071.244807683 2.08638892.202512825 2.95963381.186930525 3.22959313.85827011zM6.51818791 3.03269057C7.05857501 2.82568869 7.48794551 2.99438374 7.72953843 3.54254333 7.77309444 3.64136927 7.73794807 3.74742756 7.66256487 3.78180182 7.58718168 3.81617608 7.49722944 3.78291863 7.4491625 3.68489627 7.40718878 3.59929976 7.35679433 3.52755897 7.29870486 3.46973099 6.8745003 4.51312311 5.94089375 5.29474616 4.80672059 5.50627518 4.59700532 5.45362482 4.37999894 5.40215363 4.15986544 5.34766823 5.39488001 5.20808352 6.4268362 4.39852742 6.88375528 3.29117436 6.79494037 3.28655415 6.69923877 3.29753427 6.59748338 3.32389698 6.50728612 3.34726521 6.43043471 3.29852129 6.41351929 3.22384266 6.39660387 3.14916404 6.42980139 3.06654811 6.51818791 3.03269057z"/>
        </g>
        <path fill="#000" d="M4.92668008 8.30664802C5.19842295 8.30199568 5.41400514 8.03294712 5.40819639 7.70571121 5.40238764 7.3784753 5.17738759 7.11696962 4.90564473 7.12162191 4.63390186 7.12627425 4.41831967 7.39532282 4.42412842 7.72255873 4.42993717 8.04979464 4.65493722 8.31130031 4.92668008 8.30664802zM8.93666933 8.30664768C9.23860567 8.30146831 9.47865579 8.03199266 9.47283629 7.70475694 9.46701678 7.37752121 9.21753137 7.11644293 8.91559503 7.12162225 8.61365868 7.12680162 8.37360856 7.39627728 8.37942807 7.723513 8.38524758 8.05074872 8.63473299 8.311827 8.93666933 8.30664768z"/>
        <path fill="#3C1A00" d="M10.8997124,3.4025737 C11.9050328,2.19386238 12.6640371,1.36031918 13.1767253,0.901944093 C13.5309868,0.585212328 13.9954275,0.158838727 14.8126831,0.117071498 C15.9948049,0.056657171 19.0127071,2.36138631 18.7467945,5.11045808 C18.6562696,6.04614466 17.5174765,8.00262797 15.5930992,7.46215608 C14.1132115,7.04662678 14.0493704,3.68257189 13.2953453,3.34668966 C12.66682,3.06694533 11.9506591,4.0289104 11.5509176,4.14098328 C11.4667142,4.16459414 11.1971594,4.23605178 10.9559194,4.03301248 C10.9559194,4.03301248 10.9559194,4.03301248 10.9559194,4.03301248 C10.7669464,3.87410986 10.7418316,3.5924012 10.8997149,3.40257577 Z" transform="rotate(-1 14.76 3.835)"/>
        <path fill="#FF4F41" fill-rule="nonzero" d="M7.50949678,18.484639 C7.54739112,18.4854079 7.58087557,18.4866966 7.60995012,18.4885052 C11.4621136,18.7281206 15.4289519,17.2502523 17.3106434,14.0558877 C17.3395097,14.0068843 17.376667,13.9309497 17.4221154,13.828084 C17.4786528,13.6999702 17.4631995,13.5514922 17.3814428,13.437802 L16.388932,12.0576238 C16.3253558,11.9688037 16.2017699,11.9486113 16.1130901,12.0123825 C16.0926289,12.0270966 16.0751685,12.0455857 16.0616487,12.0668549 C16.0511412,12.0833851 16.0424039,12.0969264 16.035437,12.1074788 C14.0835108,15.0639288 10.8808216,16.4657475 7.36508468,16.1224837 C7.36508468,16.1224837 7.36508468,16.1224837 7.36508468,16.1224837 C7.19227675,16.1056114 7.03851052,16.2320222 7.02163818,16.4048301 C7.02001808,16.4214234 7.01972048,16.4381192 7.02070899,16.4547621 L7.12319018,18.1141032 C7.13596419,18.3193031 7.30394198,18.4804679 7.50949678,18.484639 Z"/>
      </g>
    </g>
    <path fill="#FFF" fill-rule="nonzero" d="M50.1404136,10.4792523 L50.2294304,10.4792523 C50.8537702,10.4792523 51.3598976,10.9853798 51.3598976,11.6097196 L51.3598976,11.6097196 L51.3598976,11.6097196 C51.5335758,11.1622904 51.8524832,10.8460287 52.3166199,10.6609346 C52.4779835,10.596584 52.6554535,10.5546058 52.8490298,10.535 C53.4778706,10.4713442 54.0392749,10.9294867 54.1029648,11.558324 C54.1068457,11.5966418 54.1087899,11.635131 54.1087899,11.6736449 C54.1087899,12.212446 53.7130959,12.6694824 53.179846,12.7466268 C51.9665471,12.9220958 51.3598976,13.4806968 51.3598976,14.4224299 L51.3598976,16.1636935 C51.3598976,16.837196 50.813916,17.3831776 50.1404136,17.3831776 C49.4669111,17.3831776 48.9209295,16.837196 48.9209295,16.1636935 L48.9209295,11.6987364 C48.9209295,11.025234 49.4669111,10.4792523 50.1404136,10.4792523 Z M65.4591996,11.6987364 L65.4591996,16.1636935 C65.4591996,16.837196 64.913218,17.3831776 64.2397155,17.3831776 C63.5662131,17.3831776 63.0202315,16.837196 63.0202315,16.1636935 L63.0202315,11.6987364 C63.0202315,11.025234 63.5662131,10.4792523 64.2397155,10.4792523 C64.913218,10.4792523 65.4591996,11.025234 65.4591996,11.6987364 Z M62.8585319,7.82803738 C62.8585319,7.63962523 62.8944648,7.46243074 62.9663316,7.2964486 C63.0381985,7.13046646 63.1370139,6.98467353 63.2627808,6.85906542 C63.3885477,6.73345732 63.534525,6.63476671 63.7007171,6.56299065 C63.8669091,6.49121459 64.0443277,6.4553271 64.2329781,6.4553271 C64.4216285,6.4553271 64.599047,6.49121459 64.7652391,6.56299065 C64.9314311,6.63476671 65.0774084,6.73345732 65.2031753,6.85906542 C65.3289423,6.98467353 65.4277577,7.13046646 65.4996245,7.2964486 C65.5714913,7.46243074 65.6074242,7.63962523 65.6074242,7.82803738 C65.6074242,8.01644954 65.5714913,8.19364403 65.4996245,8.35962617 C65.4277577,8.52560831 65.3289423,8.67140124 65.2031753,8.79700935 C65.0774084,8.92261745 64.9314311,9.02130805 64.7652391,9.09308411 C64.599047,9.16486017 64.4216285,9.20074766 64.2329781,9.20074766 C64.0443277,9.20074766 63.8669091,9.16486017 63.7007171,9.09308411 C63.534525,9.02130805 63.3885477,8.92261745 63.2627808,8.79700935 C63.1370139,8.67140124 63.0381985,8.52560831 62.9663316,8.35962617 C62.8944648,8.19364403 62.8585319,8.01644954 62.8585319,7.82803738 Z M68.7830236,13.9313581 C68.7830236,14.1629759 68.8255723,14.3745467 68.910671,14.5660768 C68.9957697,14.7576068 69.10774,14.9246364 69.2465853,15.0671704 C69.3854306,15.2097044 69.5511467,15.3210575 69.7437385,15.4012328 C69.9363303,15.4814082 70.1401163,15.5214953 70.3551025,15.5214953 C70.5700887,15.5214953 70.7738747,15.4814082 70.9664665,15.4012328 C71.1590583,15.3210575 71.3247744,15.2097044 71.4636197,15.0671704 C71.6024649,14.9246364 71.7144353,14.7576068 71.799534,14.5660768 C71.8846327,14.3745467 71.9271814,14.16743 71.9271814,13.9447206 C71.9271814,13.7309196 71.8846327,13.5282571 71.799534,13.336727 C71.7144353,13.1451969 71.6024649,12.9781673 71.4636197,12.8356333 C71.3247744,12.6930993 71.1590583,12.5817463 70.9664665,12.5015709 C70.7738747,12.4213955 70.5700887,12.3813084 70.3551025,12.3813084 C70.1401163,12.3813084 69.9363303,12.4213955 69.7437385,12.5015709 C69.5511467,12.5817463 69.3854306,12.6930993 69.2465853,12.8356333 C69.10774,12.9781673 68.9957697,13.1429698 68.910671,13.3300457 C68.8255723,13.5171216 68.7830236,13.7175571 68.7830236,13.9313581 Z M70.2428111,10.2504673 C70.7721873,10.2504673 71.263457,10.3422621 71.7166351,10.5258544 C72.1698132,10.7094468 72.562829,10.9646811 72.8956943,11.291565 C73.2285596,11.618449 73.4872282,12.0080171 73.6717077,12.4602812 C73.8561873,12.9125453 73.9484257,13.4118194 73.9484257,13.9581186 C73.9484257,14.5044178 73.8541821,15.003692 73.6656921,15.455956 C73.4772021,15.9082201 73.2185336,16.2977883 72.8896787,16.6246722 C72.5608238,16.9515562 72.1658028,17.2045516 71.7046039,17.3836661 C71.243405,17.5627805 70.7441145,17.6523364 70.2067175,17.6523364 C69.6773413,17.6523364 69.1880768,17.5627805 68.7389091,17.3836661 C68.2897415,17.2045516 67.9027412,16.9493173 67.5778968,16.6179555 C67.2530523,16.2865937 66.9983941,15.8903088 66.8139145,15.429089 C66.629435,14.9678692 66.5371966,14.4551617 66.5371966,13.890951 C66.5371966,13.3804747 66.629435,12.9035896 66.8139145,12.4602812 C66.9983941,12.0169729 67.2550575,11.6318825 67.5839124,11.3049986 C67.9127673,10.9781146 68.3037779,10.7206414 68.756956,10.5325712 C69.210134,10.344501 69.7054141,10.2504673 70.2428111,10.2504673 Z M43.1446624,10.2056075 C43.6740386,10.2056075 44.1653083,10.2974023 44.6184864,10.4809946 C44.82638,10.5652169 45.0216125,10.664516 45.2041852,10.7788927 C45.4251371,10.5628769 45.7283789,10.4299065 46.0626776,10.4299065 L46.0657975,10.4299065 C46.7471208,10.4299065 47.2994424,10.9822282 47.2994424,11.6635514 L47.2994424,16.1495327 C47.2994424,16.830856 46.7471208,17.3831776 46.0657975,17.3831776 L46.0626776,17.3831776 C45.7308261,17.3831776 45.4295786,17.2521469 45.2078497,17.0390003 C45.0229194,17.1553326 44.8219086,17.2551313 44.6064552,17.3388062 C44.1452563,17.5179207 43.6459658,17.6074766 43.1085688,17.6074766 C42.5791926,17.6074766 42.0899281,17.5179207 41.6407604,17.3388062 C41.1915928,17.1596918 40.8045925,16.9044574 40.4797481,16.5730956 C40.1549036,16.2417338 39.9002454,15.845449 39.7157658,15.3842292 C39.5312863,14.9230094 39.4390479,14.4103019 39.4390479,13.8460912 C39.4390479,13.3356149 39.5312863,12.8587298 39.7157658,12.4154214 C39.9002454,11.9721131 40.1569088,11.5870227 40.4857637,11.2601387 C40.8146186,10.9332548 41.2056292,10.6757816 41.6588072,10.4877114 C42.1119853,10.2996412 42.6072654,10.2056075 43.1446624,10.2056075 Z M32.339909,6.23281586 C32.960077,6.23281586 33.4628225,6.73556136 33.4628225,7.35572937 L33.4619954,10.4768159 L33.6668524,10.4015126 C34.0561962,10.2709087 34.4747792,10.2056075 34.92261,10.2056075 C35.4519862,10.2056075 35.9432559,10.2974023 36.396434,10.4809946 C36.8496121,10.664587 37.2426279,10.9198213 37.5754932,11.2467052 C37.9083585,11.5735892 38.167027,11.9631573 38.3515066,12.4154214 C38.5359862,12.8676855 38.6282246,13.3669596 38.6282246,13.9132588 C38.6282246,14.459558 38.533981,14.9588321 38.345491,15.4110962 C38.157001,15.8633603 37.8983324,16.2529285 37.5694776,16.5798124 C37.2406227,16.9066963 36.8456017,17.1596918 36.3844028,17.3388062 C35.9232039,17.5179207 35.4239134,17.6074766 34.8865164,17.6074766 C34.3571402,17.6074766 33.8678756,17.5179207 33.418708,17.3388062 C33.2976405,17.2905282 33.1810895,17.23672 33.0690547,17.1773815 C32.8744946,17.3458784 32.6191007,17.4477691 32.339909,17.4477691 C31.7197409,17.4477691 31.2169954,16.9450236 31.2169954,16.3248556 L31.2169954,7.35572937 C31.2169954,6.73556136 31.7197409,6.23281586 32.339909,6.23281586 Z M56.0597277,6.1682243 C56.741051,6.1682243 57.2933726,6.72054592 57.2933726,7.40186916 L57.2929629,12.8732243 L57.3331686,12.8297262 C57.3335356,12.8293587 57.3339028,12.8289915 57.3342703,12.8286245 L59.3209741,10.8444297 C59.802616,10.3633961 60.5828668,10.3633961 61.0645087,10.8444297 L61.0661631,10.8460821 C61.5479314,11.3272419 61.5484247,12.1078494 61.0672648,12.5896177 L61.0661631,12.5907194 L59.8988359,13.7557559 L61.4495218,15.3034592 C61.8991722,15.7525417 61.9295785,16.4624764 61.5404335,16.9468338 L61.4500728,17.0475458 L61.4478673,17.0497488 C60.9662254,17.5307824 60.1859746,17.5307824 59.7043328,17.0497488 L57.3206191,14.6690456 L57.2929629,14.6382243 L57.2933726,16.1495327 C57.2933726,16.830856 56.741051,17.3831776 56.0597277,17.3831776 L56.0566078,17.3831776 C55.3752845,17.3831776 54.8229629,16.830856 54.8229629,16.1495327 L54.8229629,7.40186916 C54.8229629,6.72054592 55.3752845,6.1682243 56.0566078,6.1682243 L56.0597277,6.1682243 Z M43.2569538,12.3364486 C43.0419676,12.3364486 42.8381816,12.3765357 42.6455898,12.4567111 C42.4529979,12.5368865 42.2872819,12.6482395 42.1484366,12.7907735 C42.0095913,12.9333075 41.897621,13.09811 41.8125223,13.2851859 C41.7274236,13.4722618 41.6848749,13.6726973 41.6848749,13.8864983 C41.6848749,14.1181161 41.7274236,14.3296869 41.8125223,14.5212169 C41.897621,14.712747 42.0095913,14.8797766 42.1484366,15.0223106 C42.2872819,15.1648446 42.4529979,15.2761977 42.6455898,15.356373 C42.8381816,15.4365484 43.0419676,15.4766355 43.2569538,15.4766355 C43.47194,15.4766355 43.675726,15.4365484 43.8683178,15.356373 C44.0609096,15.2761977 44.2266257,15.1648446 44.365471,15.0223106 C44.5043162,14.8797766 44.6162865,14.712747 44.7013853,14.5212169 C44.786484,14.3296869 44.8290327,14.1225702 44.8290327,13.8998608 C44.8290327,13.6860598 44.786484,13.4833973 44.7013853,13.2918672 C44.6162865,13.1003371 44.5043162,12.9333075 44.365471,12.7907735 C44.2266257,12.6482395 44.0609096,12.5368865 43.8683178,12.4567111 C43.675726,12.3765357 43.47194,12.3364486 43.2569538,12.3364486 Z M35.0349014,12.3364486 C34.8199151,12.3364486 34.6161292,12.3765357 34.4235373,12.4567111 C34.2309455,12.5368865 34.0652295,12.6482395 33.9263842,12.7907735 C33.7875389,12.9333075 33.6755686,13.09811 33.5904699,13.2851859 C33.5053712,13.4722618 33.4628225,13.6726973 33.4628225,13.8864983 C33.4628225,14.1181161 33.5053712,14.3296869 33.5904699,14.5212169 C33.6755686,14.712747 33.7875389,14.8797766 33.9263842,15.0223106 C34.0652295,15.1648446 34.2309455,15.2761977 34.4235373,15.356373 C34.6161292,15.4365484 34.8199151,15.4766355 35.0349014,15.4766355 C35.2498876,15.4766355 35.4536736,15.4365484 35.6462654,15.356373 C35.8388572,15.2761977 36.0045733,15.1648446 36.1434185,15.0223106 C36.2822638,14.8797766 36.3942341,14.712747 36.4793328,14.5212169 C36.5644316,14.3296869 36.6069803,14.1225702 36.6069803,13.8998608 C36.6069803,13.6860598 36.5644316,13.4833973 36.4793328,13.2918672 C36.3942341,13.1003371 36.2822638,12.9333075 36.1434185,12.7907735 C36.0045733,12.6482395 35.8388572,12.5368865 35.6462654,12.4567111 C35.4536736,12.3765357 35.2498876,12.3364486 35.0349014,12.3364486 Z"/>
  </g>
</svg>
