<svg height="541" viewBox="0 0 291 541" width="291" xmlns="http://www.w3.org/2000/svg" xmlns:xlink="http://www.w3.org/1999/xlink"><defs><filter id="a" height="492%" width="112.3%" x="-6.1%" y="-182%"><feOffset dy="1" in="SourceAlpha" result="shadowOffsetOuter1"/><feGaussianBlur in="shadowOffsetOuter1" result="shadowBlurOuter1" stdDeviation="4.5"/><feColorMatrix in="shadowBlurOuter1" values="0 0 0 0 0 0 0 0 0 0 0 0 0 0 0 0 0 0 0.12 0"/></filter><filter id="b" height="327.5%" width="105.7%" x="-2.8%" y="-96.2%"><feOffset dy="1" in="SourceAlpha" result="shadowOffsetOuter1"/><feGaussianBlur in="shadowOffsetOuter1" result="shadowBlurOuter1" stdDeviation="2"/><feColorMatrix in="shadowBlurOuter1" values="0 0 0 0 0 0 0 0 0 0 0 0 0 0 0 0 0 0 0.08 0"/></filter><filter id="c" height="450%" width="104.6%" x="-2.3%" y="-140%"><feOffset dy="1" in="SourceAlpha" result="shadowOffsetOuter1"/><feGaussianBlur in="shadowOffsetOuter1" result="shadowBlurOuter1" stdDeviation="1.5"/><feColorMatrix in="shadowBlurOuter1" values="0 0 0 0 0 0 0 0 0 0 0 0 0 0 0 0 0 0 0.24 0"/></filter><filter id="d" height="121.6%" width="142.7%" x="-21.3%" y="-10.7%"><feOffset dy="9" in="SourceAlpha" result="shadowOffsetOuter1"/><feGaussianBlur in="shadowOffsetOuter1" result="shadowBlurOuter1" stdDeviation="9.5"/><feColorMatrix in="shadowBlurOuter1" result="shadowMatrixOuter1" values="0 0 0 0 0 0 0 0 0 0 0 0 0 0 0 0 0 0 0.5 0"/><feMerge><feMergeNode in="shadowMatrixOuter1"/><feMergeNode in="SourceGraphic"/></feMerge></filter><linearGradient id="e" x1="50%" x2="50%" y1="0%" y2="100%"><stop offset="0" stop-color="#c9c6c8"/><stop offset=".01683" stop-color="#716d6d"/><stop offset=".07825" stop-color="#c9c6c8"/><stop offset=".92056" stop-color="#c9c6c8"/><stop offset=".98043" stop-color="#716d6d"/><stop offset="1" stop-color="#c9c6c8"/></linearGradient><path id="f" d="m44.296 1.17c-29.566 0-43.125 14.002-43.125 43.077v416.349c0 29.075 13.559 43.077 43.125 43.077h160.988c28.602 0 43.125-14.99 43.125-43.077v-416.35c0-29.074-13.559-43.076-43.125-43.076h-160.988z"/><filter id="g" height="100.6%" width="101.2%" x="-.6%" y="-.3%"><feMorphology in="SourceAlpha" radius="1" result="shadowSpreadInner1"/><feGaussianBlur in="shadowSpreadInner1" result="shadowBlurInner1" stdDeviation="1"/><feOffset in="shadowBlurInner1" result="shadowOffsetInner1"/><feComposite in="shadowOffsetInner1" in2="SourceAlpha" k2="-1" k3="1" operator="arithmetic" result="shadowInnerInner1"/><feColorMatrix in="shadowInnerInner1" values="0 0 0 0 0 0 0 0 0 0 0 0 0 0 0 0 0 0 0.6 0"/></filter><linearGradient id="h" x1="50%" x2="50%" y1="0%" y2="6.403%"><stop offset="0" stop-opacity=".901"/><stop offset="1" stop-opacity="0"/></linearGradient><linearGradient id="i" x1="50%" x2="50%" y1="100%" y2="92.931%"><stop offset="0" stop-opacity=".9"/><stop offset="1" stop-opacity="0"/></linearGradient><path id="j" d="m247.4 32.023c-4.745-17.4-18.155-26.47-42.236-26.47h-160.748c-24.081 0-37.49 9.07-42.237 26.47 3.338-19.448 16.902-28.223 42.237-28.223h160.748c25.335 0 38.899 8.776 42.237 28.224zm.247 438.716c-2.954 20.221-17.217 30.305-42.483 30.305h-160.748c-25.778 0-39.37-9.079-42.403-29.24 4.594 17.809 18.035 27.097 42.403 27.097h160.748c23.906 0 37.843-10.14 42.483-28.162z"/><filter id="k" height="100%" width="100%" x="0%" y="0%"><feGaussianBlur in="SourceGraphic"/></filter><linearGradient id="l"><stop offset="0" stop-opacity=".5"/><stop offset="1" stop-opacity="0"/></linearGradient><linearGradient id="m" x1="50%" x2="50%" xlink:href="#l" y1="0%" y2="6.403%"/><linearGradient id="n" x1="50%" x2="50%" xlink:href="#l" y1="100%" y2="92.931%"/><path id="o" d="m44.296 5.458h160.988c30.947 0 44.296 14.941 44.296 43.256v407.025c0 27.362-14.325 43.256-44.296 43.256h-160.988c-30.947 0-44.296-14.941-44.296-43.255v-407.026c0-28.315 13.35-43.256 44.296-43.256z"/><filter id="p" height="100%" width="100%" x="0%" y="0%"><feGaussianBlur in="SourceGraphic"/></filter><linearGradient id="q" x1="50%" x2="50%" y1="0%" y2="100%"><stop offset="0" stop-color="#5f5f5f"/><stop offset=".01012" stop-color="#222"/><stop offset="1" stop-color="#252525"/></linearGradient><linearGradient id="r" x1="50%" x2="50%" y1="0%" y2="100%"><stop offset="0" stop-color="#6d6d6d"/><stop offset=".01612"/><stop offset=".9847"/><stop offset="1" stop-color="#5c5c5c"/></linearGradient><radialGradient id="s" cx="47.648%" cy="98.993%" gradientTransform="matrix(0 .48153 -.73004 0 1.2 .76)" r="60.134%"><stop offset="0" stop-color="#fff" stop-opacity=".151"/><stop offset="1" stop-color="#fff" stop-opacity="0"/></radialGradient><path id="t" d="m44.296 6.043h160.988c26.546 0 38.051 11.514 38.051 38.009v416.348c0 25.518-12.479 38.01-38.051 38.01h-160.988c-26.546 0-38.052-11.515-38.052-38.01v-416.349c0-26.494 11.506-38.008 38.052-38.008z"/><path id="u" d="m3.919 0h21.433c1.948 0 3.247.26 3.897.78h-29.227c.65-.52 1.948-.78 3.897-.78z"/><filter id="v" height="228.3%" width="103.4%" x="-1.7%" y="-64.2%"><feGaussianBlur in="SourceAlpha" result="shadowBlurInner1" stdDeviation=".5"/><feOffset in="shadowBlurInner1" result="shadowOffsetInner1"/><feComposite in="shadowOffsetInner1" in2="SourceAlpha" k2="-1" k3="1" operator="arithmetic" result="shadowInnerInner1"/><feColorMatrix in="shadowInnerInner1" values="0 0 0 0 0.592156863 0 0 0 0 0.592156863 0 0 0 0 0.592156863 0 0 0 1 0"/></filter><path id="w" d="m.013.22c12.069 5.166 17.527 16.313 17.527 34.578v416.468c0 17.177-5.643 28.453-17.116 33.992 0-.616 12.829-9.142 12.829-32.042v-420.406c-.001-24.156-13.24-32.589-13.24-32.589z"/><filter id="x" height="101.2%" width="134.2%" x="-17.1%" y="-.6%"><feGaussianBlur in="SourceAlpha" result="shadowBlurInner1" stdDeviation="1.5"/><feOffset dx="3" in="shadowBlurInner1" result="shadowOffsetInner1"/><feComposite in="shadowOffsetInner1" in2="SourceAlpha" k2="-1" k3="1" operator="arithmetic" result="shadowInnerInner1"/><feColorMatrix in="shadowInnerInner1" values="0 0 0 0 0 0 0 0 0 0 0 0 0 0 0 0 0 0 0.6 0"/></filter><path id="y" d="m219.552.22c12.068 5.166 17.525 16.313 17.525 34.578v416.468c0 17.177-5.643 28.453-17.115 33.992 0-.616 12.828-9.142 12.828-32.042v-420.406c0-24.157-13.238-32.59-13.238-32.59z"/><filter id="z" height="101.2%" width="134.2%" x="-17.1%" y="-.6%"><feGaussianBlur in="SourceAlpha" result="shadowBlurInner1" stdDeviation="1.5"/><feOffset dx="3" in="shadowBlurInner1" result="shadowOffsetInner1"/><feComposite in="shadowOffsetInner1" in2="SourceAlpha" k2="-1" k3="1" operator="arithmetic" result="shadowInnerInner1"/><feColorMatrix in="shadowInnerInner1" values="0 0 0 0 0 0 0 0 0 0 0 0 0 0 0 0 0 0 0.6 0"/></filter><linearGradient id="A" x1="27.182%" x2="54.669%" y1="44.984%" y2="44.984%"><stop offset="0" stop-color="#a5a5a5"/><stop offset=".00735" stop-color="#e2e2e2"/><stop offset=".99474" stop-color="#bebebe"/><stop offset="1" stop-color="#9d9d9d"/></linearGradient><path id="B" d="m1.362.004c-.752 0-1.36.61-1.36 1.364v16.756c0 .754.609 1.364 1.36 1.364h.777c0-1.025.013-18.482 0-19.484h-.777z"/><filter id="C" height="115.4%" width="240%" x="-70%" y="-7.7%"><feGaussianBlur in="SourceAlpha" result="shadowBlurInner1" stdDeviation=".5"/><feOffset dy="2" in="shadowBlurInner1" result="shadowOffsetInner1"/><feComposite in="shadowOffsetInner1" in2="SourceAlpha" k2="-1" k3="1" operator="arithmetic" result="shadowInnerInner1"/><feColorMatrix in="shadowInnerInner1" result="shadowMatrixInner1" values="0 0 0 0 0 0 0 0 0 0 0 0 0 0 0 0 0 0 0.757614357 0"/><feGaussianBlur in="SourceAlpha" result="shadowBlurInner2" stdDeviation=".5"/><feOffset dy="-2" in="shadowBlurInner2" result="shadowOffsetInner2"/><feComposite in="shadowOffsetInner2" in2="SourceAlpha" k2="-1" k3="1" operator="arithmetic" result="shadowInnerInner2"/><feColorMatrix in="shadowInnerInner2" result="shadowMatrixInner2" values="0 0 0 0 0 0 0 0 0 0 0 0 0 0 0 0 0 0 0.757614357 0"/><feMerge><feMergeNode in="shadowMatrixInner1"/><feMergeNode in="shadowMatrixInner2"/></feMerge></filter><path id="D" d="m1.362 35.677c-.442.11-.973.388-1.256.784-.058.082-.104.34-.104.415v34.219c0 .08.065.482.104.58.23.562.628.698 1.256 1.023h.777c0-1.025.013-36.019 0-37.02h-.777z"/><filter id="E" height="108.1%" width="240%" x="-70%" y="-4.1%"><feGaussianBlur in="SourceAlpha" result="shadowBlurInner1" stdDeviation=".5"/><feOffset dy="2" in="shadowBlurInner1" result="shadowOffsetInner1"/><feComposite in="shadowOffsetInner1" in2="SourceAlpha" k2="-1" k3="1" operator="arithmetic" result="shadowInnerInner1"/><feColorMatrix in="shadowInnerInner1" result="shadowMatrixInner1" values="0 0 0 0 0 0 0 0 0 0 0 0 0 0 0 0 0 0 0.757614357 0"/><feGaussianBlur in="SourceAlpha" result="shadowBlurInner2" stdDeviation=".5"/><feOffset dy="-2" in="shadowBlurInner2" result="shadowOffsetInner2"/><feComposite in="shadowOffsetInner2" in2="SourceAlpha" k2="-1" k3="1" operator="arithmetic" result="shadowInnerInner2"/><feColorMatrix in="shadowInnerInner2" result="shadowMatrixInner2" values="0 0 0 0 0 0 0 0 0 0 0 0 0 0 0 0 0 0 0.757614357 0"/><feMerge><feMergeNode in="shadowMatrixInner1"/><feMergeNode in="shadowMatrixInner2"/></feMerge></filter><path id="F" d="m1.362 81.873c-.442.11-.973.388-1.256.784-.058.082-.104.34-.104.415v34.219c0 .08.065.482.104.58.23.562.628.698 1.256 1.023h.777c0-1.025.013-36.019 0-37.02h-.777z"/><filter id="G" height="108.1%" width="240%" x="-70%" y="-4.1%"><feGaussianBlur in="SourceAlpha" result="shadowBlurInner1" stdDeviation=".5"/><feOffset dy="2" in="shadowBlurInner1" result="shadowOffsetInner1"/><feComposite in="shadowOffsetInner1" in2="SourceAlpha" k2="-1" k3="1" operator="arithmetic" result="shadowInnerInner1"/><feColorMatrix in="shadowInnerInner1" result="shadowMatrixInner1" values="0 0 0 0 0 0 0 0 0 0 0 0 0 0 0 0 0 0 0.757614357 0"/><feGaussianBlur in="SourceAlpha" result="shadowBlurInner2" stdDeviation=".5"/><feOffset dy="-2" in="shadowBlurInner2" result="shadowOffsetInner2"/><feComposite in="shadowOffsetInner2" in2="SourceAlpha" k2="-1" k3="1" operator="arithmetic" result="shadowInnerInner2"/><feColorMatrix in="shadowInnerInner2" result="shadowMatrixInner2" values="0 0 0 0 0 0 0 0 0 0 0 0 0 0 0 0 0 0 0.757614357 0"/><feMerge><feMergeNode in="shadowMatrixInner1"/><feMergeNode in="shadowMatrixInner2"/></feMerge></filter><linearGradient id="H" x1="34.549%" x2="36.094%" y1="44.984%" y2="44.984%"><stop offset="0" stop-color="#8e8e8e"/><stop offset="1" stop-color="#bcbcbc"/></linearGradient><linearGradient id="I" x1="50%" x2="50%" y1="0%" y2="100%"><stop offset="0" stop-opacity=".997"/><stop offset=".09512" stop-opacity="0"/><stop offset=".89546" stop-opacity="0"/><stop offset="1" stop-opacity=".881"/></linearGradient><path id="J" d="m251.917 47.767c-.442.109-.972.387-1.255.783-.059.082-.105.34-.105.415v56.042c0 .08.065.482.105.58.229.562.627.698 1.255 1.023h.778c0-1.025.013-57.842 0-58.843z"/><filter id="K" height="105.1%" width="240%" x="-70%" y="-2.5%"><feGaussianBlur in="SourceAlpha" result="shadowBlurInner1" stdDeviation=".5"/><feOffset dy="2" in="shadowBlurInner1" result="shadowOffsetInner1"/><feComposite in="shadowOffsetInner1" in2="SourceAlpha" k2="-1" k3="1" operator="arithmetic" result="shadowInnerInner1"/><feColorMatrix in="shadowInnerInner1" result="shadowMatrixInner1" values="0 0 0 0 0 0 0 0 0 0 0 0 0 0 0 0 0 0 0.757614357 0"/><feGaussianBlur in="SourceAlpha" result="shadowBlurInner2" stdDeviation=".5"/><feOffset dy="-2" in="shadowBlurInner2" result="shadowOffsetInner2"/><feComposite in="shadowOffsetInner2" in2="SourceAlpha" k2="-1" k3="1" operator="arithmetic" result="shadowInnerInner2"/><feColorMatrix in="shadowInnerInner2" result="shadowMatrixInner2" values="0 0 0 0 0 0 0 0 0 0 0 0 0 0 0 0 0 0 0.757614357 0"/><feMerge><feMergeNode in="shadowMatrixInner1"/><feMergeNode in="shadowMatrixInner2"/></feMerge></filter><rect id="L" height="4.093" rx="2.047" width="30.441"/><filter id="M" height="148.9%" width="106.6%" x="-3.3%" y="-24.4%"><feMorphology in="SourceAlpha" radius="1" result="shadowSpreadInner1"/><feGaussianBlur in="shadowSpreadInner1" result="shadowBlurInner1" stdDeviation=".5"/><feOffset in="shadowBlurInner1" result="shadowOffsetInner1"/><feComposite in="shadowOffsetInner1" in2="SourceAlpha" k2="-1" k3="1" operator="arithmetic" result="shadowInnerInner1"/><feColorMatrix in="shadowInnerInner1" result="shadowMatrixInner1" values="0 0 0 0 0 0 0 0 0 0 0 0 0 0 0 0 0 0 0.7950351 0"/><feOffset dy="-1" in="SourceAlpha" result="shadowOffsetInner2"/><feComposite in="shadowOffsetInner2" in2="SourceAlpha" k2="-1" k3="1" operator="arithmetic" result="shadowInnerInner2"/><feColorMatrix in="shadowInnerInner2" result="shadowMatrixInner2" values="0 0 0 0 0 0 0 0 0 0 0 0 0 0 0 0 0 0 0.800130208 0"/><feOffset dy="-1" in="SourceAlpha" result="shadowOffsetInner3"/><feComposite in="shadowOffsetInner3" in2="SourceAlpha" k2="-1" k3="1" operator="arithmetic" result="shadowInnerInner3"/><feColorMatrix in="shadowInnerInner3" result="shadowMatrixInner3" values="0 0 0 0 1 0 0 0 0 1 0 0 0 0 1 0 0 0 0.197067482 0"/><feMerge><feMergeNode in="shadowMatrixInner1"/><feMergeNode in="shadowMatrixInner2"/><feMergeNode in="shadowMatrixInner3"/></feMerge></filter><radialGradient id="N" cx="121.058%" cy="134.126%" gradientTransform="matrix(.70432199 .70910325 -.70831614 .70510466 1.30799 -.46268)" r="100.717%"><stop offset="0" stop-color="#434343"/><stop offset="1" stop-color="#121212"/></radialGradient><radialGradient id="O" cy="0%" gradientTransform="matrix(0 1 -.99889 0 .5 -.5)" r="100%"><stop offset="0" stop-color="#2a4893"/><stop offset="1" stop-color="#213054"/></radialGradient><ellipse id="P" cx="3.708" cy="3.703" rx="1.951" ry="1.949"/><filter id="Q" height="253.9%" width="253.7%" x="-76.9%" y="-77%"><feMorphology in="SourceAlpha" operator="dilate" radius=".5" result="shadowSpreadOuter1"/><feOffset in="shadowSpreadOuter1" result="shadowOffsetOuter1"/><feGaussianBlur in="shadowOffsetOuter1" result="shadowBlurOuter1" stdDeviation=".5"/><feColorMatrix in="shadowBlurOuter1" result="shadowMatrixOuter1" values="0 0 0 0 0 0 0 0 0 0 0 0 0 0 0 0 0 0 0.4 0"/><feMorphology in="SourceAlpha" operator="dilate" radius=".5" result="shadowSpreadOuter2"/><feOffset in="shadowSpreadOuter2" result="shadowOffsetOuter2"/><feColorMatrix in="shadowOffsetOuter2" result="shadowMatrixOuter2" values="0 0 0 0 0 0 0 0 0 0 0 0 0 0 0 0 0 0 1 0"/><feMerge><feMergeNode in="shadowMatrixOuter1"/><feMergeNode in="shadowMatrixOuter2"/></feMerge></filter><filter id="R" height="316.7%" width="172.6%" x="-36.3%" y="-108.3%"><feGaussianBlur in="SourceGraphic" stdDeviation=".39"/></filter><filter id="S" height="180%" width="199.9%" x="-49.9%" y="-40%"><feGaussianBlur in="SourceGraphic" stdDeviation=".39"/></filter><filter id="T" height="177.5%" width="150.6%" x="-25.3%" y="-38.8%"><feGaussianBlur in="SourceGraphic" stdDeviation=".293"/></filter><mask id="U" fill="#fff"><path d="m.351.421h292v541.579h-292v-541.579zm207.175 30.656v.195c0 5.417-4.138 12.28-13.66 12.28h-94.836c-9.521 0-13.66-6.863-13.66-12.28v-.195c0-2.506 0-5.068-4.487-5.068h-18.929c-15.818 0-25.367 9.538-25.367 25.34v424.145c0 15.802 9.549 25.34 25.367 25.34h168.794c15.818 0 25.367-9.538 25.367-25.34v-424.146c0-15.8-9.549-25.34-25.367-25.34h-18.734c-4.488 0-4.488 2.563-4.488 5.069z" fill="#fff" fill-rule="evenodd"/></mask><mask id="V" fill="#fff"><use fill="#fff" fill-rule="evenodd" xlink:href="#L"/></mask><mask id="W" fill="#fff"><use fill="#fff" fill-rule="evenodd" xlink:href="#P"/></mask></defs><g fill="none" fill-rule="evenodd" transform="translate(-1 -1)"><g fill="#000"><path d="m109.764 7.144c60.622 0 109.765-1.775 109.765-3.963 0-2.189-67.311-3.181-109.765-3.181-42.453 0-109.764.992-109.764 3.18 0 2.19 49.143 3.964 109.764 3.964z" filter="url(#a)" transform="translate(36.587 512.53)"/><path d="m109.735 6.157c58.6 0 106.105-1.419 106.105-3.17 0-1.75-65.067-2.545-106.105-2.545s-106.106.794-106.106 2.545 47.505 3.17 106.106 3.17z" filter="url(#b)" transform="translate(36.587 512.53)"/><path d="m109.91 4.388c54.56 0 98.789-.71 98.789-1.585s-60.58-1.272-98.788-1.272-98.788.397-98.788 1.272c0 .876 44.229 1.585 98.788 1.585z" filter="url(#c)" transform="translate(36.587 512.53)"/></g><g filter="url(#d)" mask="url(#U)"><path d="m65.977 11.097h160.748c30.9 0 44.23 15.277 44.23 44.23v416.19c0 27.977-14.304 44.23-44.23 44.23h-160.748c-30.9 0-44.23-15.279-44.23-44.23v-416.191c0-28.953 13.33-44.23 44.23-44.23z" fill="#000"/><g transform="translate(21.561 11)"><use fill="#c9c6c8" xlink:href="#f"/><use fill="url(#e)" xlink:href="#f"/><use fill="#000" filter="url(#g)" xlink:href="#f"/></g><g filter="url(#k)" transform="translate(21.561 11)"><use fill="url(#h)" xlink:href="#j"/><use fill="url(#i)" xlink:href="#j"/></g><g filter="url(#p)" transform="translate(21.561 11)"><use fill="url(#m)" xlink:href="#o"/><use fill="url(#n)" xlink:href="#o"/></g><path d="m44.296 3.996c-27.787 0-40.296 12.519-40.296 40.25v416.35c0 27.732 12.509 40.251 40.296 40.251h160.988c26.813 0 40.296-13.496 40.296-40.251v-416.35c0-27.731-12.51-40.25-40.296-40.25h-160.988z" fill="url(#q)" stroke="#000" stroke-width=".585" transform="translate(21.561 11)"/><g transform="translate(21.561 11)"><use fill="url(#r)" xlink:href="#t"/><use fill="url(#s)" xlink:href="#t"/></g><path d="m65.857 20.94c-24.382 0-34.149 9.761-34.149 34.112v416.348c0 24.35 9.767 34.111 34.15 34.111h160.987c23.407 0 34.149-10.736 34.149-34.111v-416.349c0-24.35-9.767-34.11-34.15-34.11h-160.986z" fill="#000" fill-rule="nonzero"/><g transform="translate(131.813 515.063)"><use fill="#343434" xlink:href="#u"/><use fill="#000" filter="url(#v)" xlink:href="#u"/></g><g transform="matrix(-1 0 0 1 45.357 20.356)"><use fill="#fff" fill-opacity=".6" xlink:href="#w"/><use fill="#000" filter="url(#x)" xlink:href="#w"/></g><g transform="translate(27.805 20.356)"><use fill="#fff" fill-opacity=".6" xlink:href="#y"/><use fill="#000" filter="url(#z)" xlink:href="#y"/></g><path d="m21.561 59.34h4.293v3.509h-4.293zm245.287 0h4.293v3.509h-4.293zm-47.613-44.052v-4.288h3.512v4.288zm-149.28 500.555v-4.288h3.512v4.288zm-48.394-51.849h4.293v3.509h-4.293zm245.287 0h4.293v3.509h-4.293z" fill="#000" opacity=".603"/><g transform="translate(20 79.222)"><use fill="url(#A)" xlink:href="#B"/><use fill="#000" filter="url(#C)" xlink:href="#B"/></g><g transform="translate(20 79.222)"><use fill="url(#A)" xlink:href="#D"/><use fill="#000" filter="url(#E)" xlink:href="#D"/></g><g transform="translate(20 79.222)"><use fill="url(#A)" xlink:href="#F"/><use fill="#000" filter="url(#G)" xlink:href="#F"/></g><g transform="matrix(-1 0 0 1 523.257 79.222)"><use fill="url(#H)" xlink:href="#J"/><use fill="url(#I)" xlink:href="#J"/><use fill="#000" filter="url(#K)" xlink:href="#J"/></g><g opacity=".801" transform="translate(131.228 29.128)"><use fill="#1d1c1c" xlink:href="#L"/><path d="m0 0h30.441v.278h-30.441zm0 .835h30.441v.279h-30.441zm0 .836h30.441v.278h-30.441zm0 .835h30.441v.279h-30.441zm0 .835h30.441v.279h-30.441v-.28z" fill="#000" fill-opacity=".15" mask="url(#V)"/><path d="m0 .585h30.441v.278h-30.441zm0 .835h30.441v.28h-30.441zm0 .836h30.441v.278h-30.441zm0 .835h30.441v.278h-30.441zm0 .835h30.441v.279h-30.441z" fill="#fff" fill-opacity=".03" mask="url(#V)"/><path d="m.348-.278h.325v4.732h-.325zm.975 0h.326v4.732h-.326zm.976 0h.325v4.732h-.324v-4.732zm.976 0h.325v4.732h-.325zm.975 0h.326v4.732h-.326zm.976 0h.325v4.732h-.325zm.976 0h.325v4.732h-.325zm.975 0h.326v4.732h-.326zm.976 0h.325v4.732h-.325zm.976 0h.325v4.732h-.325zm.975 0h.326v4.732h-.326zm.976 0h.325v4.732h-.325zm.976 0h.325v4.732h-.325zm.975 0h.326v4.732h-.326zm.976 0h.325v4.732h-.325zm.976 0h.325v4.732h-.325zm.975 0h.326v4.732h-.326zm.976 0h.325v4.732h-.325zm.976 0h.325v4.732h-.325zm.975 0h.326v4.732h-.326zm.976 0h.325v4.732h-.325zm.976 0h.325v4.732h-.325zm.975 0h.326v4.732h-.326zm.976 0h.325v4.732h-.325zm.976 0h.325v4.732h-.325zm.975 0h.326v4.732h-.326zm.976 0h.325v4.732h-.325zm.976 0h.325v4.732h-.325zm.975 0h.326v4.732h-.326zm.976 0h.325v4.732h-.325zm.976 0h.325v4.732h-.325z" fill="#000" fill-opacity=".15" mask="url(#V)"/><path d="m-.238-.278h.326v4.732h-.326zm.976 0h.325v4.732h-.325zm.976 0h.325v4.732h-.325zm.975 0h.326v4.732h-.326zm.976 0h.325v4.732h-.325zm.976 0h.325v4.732h-.326v-4.732zm.975 0h.326v4.732h-.326zm.976 0h.325v4.732h-.325zm.976 0h.325v4.732h-.325zm.975 0h.326v4.732h-.326zm.976 0h.325v4.732h-.324v-4.732zm.976 0h.325v4.732h-.325zm.975 0h.326v4.732h-.326zm.976 0h.325v4.732h-.325zm.976 0h.325v4.732h-.325zm.975 0h.326v4.732h-.326zm.976 0h.325v4.732h-.325zm.976 0h.325v4.732h-.325zm.975 0h.326v4.732h-.326zm.976 0h.325v4.732h-.325zm.976 0h.325v4.732h-.325zm.975 0h.325v4.732h-.325zm.976 0h.325v4.732h-.325zm.976 0h.325v4.732h-.325zm.975 0h.325v4.732h-.325zm.976 0h.325v4.732h-.325zm.976 0h.325v4.732h-.325zm.975 0h.325v4.732h-.325zm.976 0h.325v4.732h-.325zm.976 0h.325v4.732h-.325zm.975 0h.325v4.732h-.325z" fill="#fff" fill-opacity=".03" mask="url(#V)"/><rect fill="#000" filter="url(#M)" height="4.093" opacity=".244" rx="2.047" width="30.441"/></g><g transform="translate(169.475 27.373)"><ellipse cx="3.708" cy="3.703" fill="url(#N)" rx="3.708" ry="3.703"/><g opacity=".388"><use fill="#000" filter="url(#Q)" xlink:href="#P"/><use fill="url(#O)" xlink:href="#P"/></g><path d="m2.475 3.578c.713 0 1.364.348 1.364-.036s-.024-.469-1.432-.679-1.788.527-1.788.911 1.143-.196 1.856-.196z" fill="#3e89cc" filter="url(#R)" mask="url(#W)" transform="matrix(.2419219 -.97029573 .97029573 .2419219 -1.575501 4.71545)"/><ellipse cx="5.269" cy="3.216" fill="#1c5894" filter="url(#S)" mask="url(#W)" rx="1.171" ry="1.462"/><ellipse cx="4.118" cy="5.211" fill="#0a152b" filter="url(#T)" mask="url(#W)" rx="1.736" ry="1.132" transform="matrix(.9612617 -.27563736 .27563736 .9612617 -1.276546 1.336901)"/></g></g></g></svg>