<svg width="487" height="140" fill="none" xmlns="http://www.w3.org/2000/svg">
  <g clip-path="url(#giftcard-banner-en__clip0)">
    <path fill="#FF4F41" d="M0 0h487v140H0z"/>
    <path fill-rule="evenodd" clip-rule="evenodd" d="M473 34zm-.457.11a.993.993 0 00-.277.211l-.001.002a.982.982 0 00-.086.107l-9.993 13.989a1 1 0 001.549 1.26l.079-.098L472 38.121v8.559l-9.814 13.739a1 1 0 001.549 1.26l.079-.098L472 50.121V68l.007.116A1 1 0 00474 68V50.12l8.186 11.461.08.098a1 1 0 001.548-1.26L474 46.679V38.12l8.186 11.461.08.098a1 1 0 001.548-1.26l-9.987-13.981M495-9zm-.457.11a.993.993 0 00-.277.211l-.001.002a.981.981 0 00-.086.107l-9.993 13.989a1 1 0 001.549 1.26l.079-.098L494-4.879V3.68l-9.814 13.739a1 1 0 001.549 1.26l.079-.098L494 7.121V25l.007.116A1 1 0 00496 25V7.12l8.186 11.461.08.098a1 1 0 001.548-1.26L496 3.679v-8.558l8.186 11.46.08.098a1 1 0 001.548-1.26l-9.987-13.981M449-9zm-.457.11a.993.993 0 00-.277.211l-.001.002a.981.981 0 00-.086.107l-9.993 13.989a1 1 0 001.549 1.26l.079-.098L448-4.879V3.68l-9.814 13.739a1 1 0 001.549 1.26l.079-.098L448 7.121V25l.007.116A1 1 0 00450 25V7.12l8.186 11.461.08.098a1 1 0 001.548-1.26L450 3.679v-8.558l8.186 11.46.08.098a1 1 0 001.548-1.26l-9.987-13.981M403-9zm-.457.11a.993.993 0 00-.277.211l-.001.002a.981.981 0 00-.086.107l-9.993 13.989a1 1 0 001.549 1.26l.079-.098L402-4.879V3.68l-9.814 13.739a1 1 0 001.549 1.26l.079-.098L402 7.121V25l.007.116A1 1 0 00404 25V7.12l8.186 11.461.08.098a1 1 0 001.548-1.26L404 3.679v-8.558l8.186 11.46.08.098a1 1 0 001.548-1.26l-9.987-13.981M425 34zm-.457.11a.993.993 0 00-.277.211l-.001.002a.982.982 0 00-.086.107l-9.993 13.989a1 1 0 001.549 1.26l.079-.098L424 38.121v8.559l-9.814 13.739a1 1 0 001.549 1.26l.079-.098L424 50.121V68l.007.116A1 1 0 00426 68V50.12l8.186 11.461.08.098a1 1 0 001.548-1.26L426 46.679V38.12l8.186 11.461.08.098a1 1 0 001.548-1.26l-9.987-13.981M379 34zm-.457.11a.993.993 0 00-.277.211l-.001.002a.982.982 0 00-.086.107l-9.993 13.989a1 1 0 001.549 1.26l.079-.098L378 38.121v8.559l-9.814 13.739a1 1 0 001.549 1.26l.079-.098L378 50.121V68l.007.116A1 1 0 00380 68V50.12l8.186 11.461.08.098a1 1 0 001.548-1.26L380 46.679V38.12l8.186 11.461.08.098a1 1 0 001.548-1.26l-9.987-13.981M357-9zm-.457.11a.993.993 0 00-.277.211l-.001.002a.981.981 0 00-.086.107l-9.993 13.989a1 1 0 001.549 1.26l.079-.098L356-4.879V3.68l-9.814 13.739a1 1 0 001.549 1.26l.079-.098L356 7.121V25l.007.116A1 1 0 00358 25V7.12l8.186 11.461.08.098a1 1 0 001.548-1.26L358 3.679v-8.558l8.186 11.46.08.098a1 1 0 001.548-1.26l-9.987-13.981M473 119a.993.993 0 01.061.002L473 119zm-.457.111a.981.981 0 00-.277.21l-.001.002a.895.895 0 00-.086.107l-9.993 13.989a1 1 0 001.549 1.26l.079-.098 8.186-11.46v8.559l-9.814 13.739a1 1 0 001.549 1.26l.079-.098 8.186-11.46V153l.007.117A1 1 0 00474 153v-17.879l8.186 11.46.08.098a1 1 0 001.548-1.26L474 131.68v-8.559l8.186 11.46.08.098a1 1 0 001.548-1.26l-9.987-13.981M427 119a.993.993 0 01.061.002L427 119zm-.457.111a.981.981 0 00-.277.21l-.001.002a.895.895 0 00-.086.107l-9.993 13.989a1 1 0 001.549 1.26l.079-.098 8.186-11.46v8.559l-9.814 13.739a1 1 0 001.549 1.26l.079-.098 8.186-11.46V153l.007.117A1 1 0 00428 153v-17.879l8.186 11.46.08.098a1 1 0 001.548-1.26L428 131.68v-8.559l8.186 11.46.08.098a1 1 0 001.548-1.26l-9.987-13.981M381 119a.993.993 0 01.061.002L381 119zm-.457.111a.981.981 0 00-.277.21l-.001.002a.895.895 0 00-.086.107l-9.993 13.989a1 1 0 001.549 1.26l.079-.098 8.186-11.46v8.559l-9.814 13.739a1 1 0 001.549 1.26l.079-.098 8.186-11.46V153l.007.117A1 1 0 00382 153v-17.879l8.186 11.46.08.098a1 1 0 001.548-1.26L382 131.68v-8.559l8.186 11.46.08.098a1 1 0 001.548-1.26l-9.987-13.981M335 119a.993.993 0 01.061.002L335 119zm-.457.111a.981.981 0 00-.277.21l-.001.002a.895.895 0 00-.086.107l-9.993 13.989a1 1 0 001.549 1.26l.079-.098 8.186-11.46v8.559l-9.814 13.739a1 1 0 001.549 1.26l.079-.098 8.186-11.46V153l.007.117A1 1 0 00336 153v-17.879l8.186 11.46.08.098a1 1 0 001.548-1.26L336 131.68v-8.559l8.186 11.46.08.098a1 1 0 001.548-1.26l-9.987-13.981M495 76zm-.457.11a.993.993 0 00-.277.211l-.001.002a.982.982 0 00-.086.107l-9.993 13.989a1 1 0 001.549 1.26l.079-.098L494 80.121v8.559l-9.814 13.739a1 1 0 001.549 1.26l.079-.098L494 92.121V110l.007.117A1 1 0 00496 110V92.12l8.186 11.461.08.098a1 1 0 001.548-1.26L496 88.679v-8.558l8.186 11.46.08.098a1 1 0 001.548-1.26l-9.987-13.981M449 76zm-.457.11a.993.993 0 00-.277.211l-.001.002a.982.982 0 00-.086.107l-9.993 13.989a1 1 0 001.549 1.26l.079-.098L448 80.121v8.559l-9.814 13.739a1 1 0 001.549 1.26l.079-.098L448 92.121V110l.007.117A1 1 0 00450 110V92.12l8.186 11.461.08.098a1 1 0 001.548-1.26L450 88.679v-8.558l8.186 11.46.08.098a1 1 0 001.548-1.26l-9.987-13.981M403 76zm-.457.11a.993.993 0 00-.277.211l-.001.002a.982.982 0 00-.086.107l-9.993 13.989a1 1 0 001.549 1.26l.079-.098L402 80.121v8.559l-9.814 13.739a1 1 0 001.549 1.26l.079-.098L402 92.121V110l.007.117A1 1 0 00404 110V92.12l8.186 11.461.08.098a1 1 0 001.548-1.26L404 88.679v-8.558l8.186 11.46.08.098a1 1 0 001.548-1.26l-9.987-13.981M357 76zm-.457.11a.993.993 0 00-.277.211l-.001.002a.982.982 0 00-.086.107l-9.993 13.989a1 1 0 001.549 1.26l.079-.098L356 80.121v8.559l-9.814 13.739a1 1 0 001.549 1.26l.079-.098L356 92.121V110l.007.117A1 1 0 00358 110V92.12l8.186 11.461.08.098a1 1 0 001.548-1.26L358 88.679v-8.558l8.186 11.46.08.098a1 1 0 001.548-1.26l-9.987-13.981M317-9zm-.457.11a.993.993 0 00-.277.211l-.001.002a.981.981 0 00-.086.107l-9.993 13.989a1 1 0 001.549 1.26l.079-.098L316-4.879V3.68l-9.814 13.739a1 1 0 001.549 1.26l.079-.098L316 7.121V25l.007.116A1 1 0 00318 25V7.12l8.186 11.461.08.098a1 1 0 001.548-1.26L318 3.679v-8.558l8.186 11.46.08.098a1 1 0 001.548-1.26l-9.987-13.981M271-9zm-.457.11a.993.993 0 00-.277.211l-.001.002a.981.981 0 00-.086.107l-9.993 13.989a1 1 0 001.549 1.26l.079-.098L270-4.879V3.68l-9.814 13.739a1 1 0 001.549 1.26l.079-.098L270 7.121V25l.007.116A1 1 0 00272 25V7.12l8.186 11.461.08.098a1 1 0 001.548-1.26L272 3.679v-8.558l8.186 11.46.08.098a1 1 0 001.548-1.26l-9.987-13.981M225-9zm-.457.11a.993.993 0 00-.277.211l-.001.002a.981.981 0 00-.086.107l-9.993 13.989a1 1 0 001.549 1.26l.079-.098L224-4.879V3.68l-9.814 13.739a1 1 0 001.549 1.26l.079-.098L224 7.121V25l.007.116A1 1 0 00226 25V7.12l8.186 11.461.08.098a1 1 0 001.548-1.26L226 3.679v-8.558l8.186 11.46.08.098a1 1 0 001.548-1.26l-9.987-13.981M179-9zm-.457.11a.993.993 0 00-.277.211l-.001.002a.981.981 0 00-.086.107l-9.993 13.989a1 1 0 001.549 1.26l.079-.098L178-4.879V3.68l-9.814 13.739a1 1 0 001.549 1.26l.079-.098L178 7.121V25l.007.116A1 1 0 00180 25V7.12l8.186 11.461.08.098a1 1 0 001.548-1.26L180 3.679v-8.558l8.186 11.46.08.098a1 1 0 001.548-1.26l-9.987-13.981M295 119a.993.993 0 01.061.002L295 119zm-.457.111a.981.981 0 00-.277.21l-.001.002a.895.895 0 00-.086.107l-9.993 13.989a1 1 0 001.549 1.26l.079-.098 8.186-11.46v8.559l-9.814 13.739a1 1 0 001.549 1.26l.079-.098 8.186-11.46V153l.007.117A1 1 0 00296 153v-17.879l8.186 11.46.08.098a1 1 0 001.548-1.26L296 131.68v-8.559l8.186 11.46.08.098a1 1 0 001.548-1.26l-9.987-13.981M249 119a.993.993 0 01.061.002L249 119zm-.457.111a.981.981 0 00-.277.21l-.001.002a.895.895 0 00-.086.107l-9.993 13.989a1 1 0 001.549 1.26l.079-.098 8.186-11.46v8.559l-9.814 13.739a1 1 0 001.549 1.26l.079-.098 8.186-11.46V153l.007.117A1 1 0 00250 153v-17.879l8.186 11.46.08.098a1 1 0 001.548-1.26L250 131.68v-8.559l8.186 11.46.08.098a1 1 0 001.548-1.26l-9.987-13.981M203 119a.993.993 0 01.061.002L203 119zm-.457.111a.981.981 0 00-.277.21l-.001.002a.895.895 0 00-.086.107l-9.993 13.989a1 1 0 001.549 1.26l.079-.098 8.186-11.46v8.559l-9.814 13.739a1 1 0 001.549 1.26l.079-.098 8.186-11.46V153l.007.117A1 1 0 00204 153v-17.879l8.186 11.46.08.098a1 1 0 001.548-1.26L204 131.68v-8.559l8.186 11.46.08.098a1 1 0 001.548-1.26l-9.987-13.981M157 119a.993.993 0 01.061.002L157 119zm-.457.111a.981.981 0 00-.277.21l-.001.002a.895.895 0 00-.086.107l-9.993 13.989a1 1 0 001.549 1.26l.079-.098 8.186-11.46v8.559l-9.814 13.739a1 1 0 001.549 1.26l.079-.098 8.186-11.46V153l.007.117A1 1 0 00158 153v-17.879l8.186 11.46.08.098a1 1 0 001.548-1.26L158 131.68v-8.559l8.186 11.46.08.098a1 1 0 001.548-1.26l-9.987-13.981M108 34zm-.457.11a.993.993 0 00-.277.211l-.001.002a.982.982 0 00-.086.107l-9.993 13.989a1 1 0 001.549 1.26l.079-.098L107 38.121v8.559l-9.814 13.739a1 1 0 001.549 1.26l.079-.098L107 50.121V68l.007.116A1 1 0 00109 68V50.12l8.186 11.461.08.098a1 1 0 001.548-1.26L109 46.679V38.12l8.186 11.461.08.098a1 1 0 001.548-1.26l-9.987-13.981M62 34zm-.457.11a.993.993 0 00-.277.211l-.001.002a.895.895 0 00-.086.107l-9.993 13.989a1 1 0 001.549 1.26l.079-.098L61 38.121v8.559l-9.814 13.739a1 1 0 001.549 1.26l.079-.098L61 50.121V68l.007.116A1 1 0 0063 68V50.12l8.186 11.461.08.098a1 1 0 001.548-1.26L63 46.679V38.12l8.186 11.461.08.098a1 1 0 001.548-1.26l-9.987-13.981M16 34zm-.457.11a.993.993 0 00-.277.211l-.001.002a.895.895 0 00-.086.107L5.186 48.419a1 1 0 001.549 1.26l.079-.098L15 38.121v8.559L5.186 60.419a1 1 0 001.549 1.26l.079-.098L15 50.121V68l.007.116A1 1 0 0017 68V50.12l8.186 11.461.08.098a1 1 0 001.548-1.26L17 46.679V38.12l8.186 11.461.08.098a1 1 0 001.548-1.26l-9.987-13.981M130-9zm-.457.11a.993.993 0 00-.277.211l-.001.002a.981.981 0 00-.086.107l-9.993 13.989a1 1 0 001.549 1.26l.079-.098L129-4.879V3.68l-9.814 13.739a1 1 0 001.549 1.26l.079-.098L129 7.121V25l.007.116A1 1 0 00131 25V7.12l8.186 11.461.08.098a1 1 0 001.548-1.26L131 3.679v-8.558l8.186 11.46.08.098a1 1 0 001.548-1.26l-9.987-13.981M84-9zm-.457.11a.992.992 0 00-.277.211l-.001.002a.895.895 0 00-.086.107L73.186 5.419a1 1 0 001.549 1.26l.079-.098L83-4.879V3.68l-9.814 13.739a1 1 0 001.549 1.26l.079-.098L83 7.121V25l.007.116A1 1 0 0085 25V7.12l8.186 11.461.08.098a1 1 0 001.548-1.26L85 3.679v-8.558l8.186 11.46.08.098a1 1 0 001.548-1.26L84.827-8.562M38-9zm-.457.11a.992.992 0 00-.277.211l-.001.002a.895.895 0 00-.086.107L27.186 5.419a1 1 0 001.549 1.26l.079-.098L37-4.879V3.68l-9.814 13.739a1 1 0 001.549 1.26l.079-.098L37 7.121V25l.007.116A1 1 0 0039 25V7.12l8.186 11.461.08.098a1 1 0 001.548-1.26L39 3.679v-8.558l8.186 11.46.08.098a1 1 0 001.548-1.26L38.827-8.562M-8-9zm-.457.11a.993.993 0 00-.277.211l-.001.002a.895.895 0 00-.086.107l-9.993 13.989a1 1 0 001.549 1.26l.079-.098L-9-4.879V3.68l-9.814 13.739a1 1 0 001.549 1.26l.079-.098L-9 7.121V25l.007.116A1 1 0 00-7 25V7.12l8.186 11.461.08.098a1 1 0 001.548-1.26L-7 3.679v-8.558L1.186 6.58l.08.098a1 1 0 001.548-1.26l-9.987-13.98M108 119a.993.993 0 01.061.002L108 119zm-.457.111a.981.981 0 00-.277.21l-.001.002a.895.895 0 00-.086.107l-9.993 13.989a1 1 0 001.549 1.26l.079-.098 8.186-11.46v8.559l-9.814 13.739a1 1 0 001.549 1.26l.079-.098 8.186-11.46V153l.007.117A1 1 0 00109 153v-17.879l8.186 11.46.08.098a1 1 0 001.548-1.26L109 131.68v-8.559l8.186 11.46.08.098a1 1 0 001.548-1.26l-9.987-13.981M62 119a.996.996 0 01.061.002l-.06-.002zm-.457.111a.98.98 0 00-.277.21l-.001.002a.915.915 0 00-.086.107l-9.993 13.989a1 1 0 001.549 1.26l.079-.098L61 123.121v8.559l-9.814 13.739a1 1 0 001.549 1.26l.079-.098L61 135.121V153l.007.117A1 1 0 0063 153v-17.879l8.186 11.46.08.098a1 1 0 001.548-1.26L63 131.68v-8.559l8.186 11.46.08.098a1 1 0 001.548-1.26l-9.987-13.981M16 119a.996.996 0 01.061.002l-.06-.002zm-.457.111a.98.98 0 00-.277.21l-.001.002a.915.915 0 00-.086.107l-9.993 13.989a1 1 0 001.549 1.26l.079-.098L15 123.121v8.559l-9.814 13.739a1 1 0 001.549 1.26l.079-.098L15 135.121V153l.007.117A1 1 0 0017 153v-17.879l8.186 11.46.08.098a1 1 0 001.548-1.26L17 131.68v-8.559l8.186 11.46.08.098a1 1 0 001.548-1.26l-9.987-13.981M130 76zm-.457.11a.993.993 0 00-.277.211l-.001.002a.982.982 0 00-.086.107l-9.993 13.989a1 1 0 001.549 1.26l.079-.098L129 80.121v8.559l-9.814 13.739a1 1 0 001.549 1.26l.079-.098L129 92.121V110l.007.117A1 1 0 00131 110V92.12l8.186 11.461.08.098a1 1 0 001.548-1.26L131 88.679v-8.558l8.186 11.46.08.098a1 1 0 001.548-1.26l-9.987-13.981M84 76zm-.457.11a.993.993 0 00-.277.211l-.001.002a.895.895 0 00-.086.107l-9.993 13.989a1 1 0 001.549 1.26l.079-.098L83 80.121v8.559l-9.814 13.739a1 1 0 001.549 1.26l.079-.098L83 92.121V110l.007.117A1 1 0 0085 110V92.12l8.186 11.461.08.098a1 1 0 001.548-1.26L85 88.679v-8.558l8.186 11.46.08.098a1 1 0 001.548-1.26l-9.987-13.981M38 76zm-.457.11a.993.993 0 00-.277.211l-.001.002a.895.895 0 00-.086.107l-9.993 13.989a1 1 0 001.549 1.26l.079-.098L37 80.121v8.559l-9.814 13.739a1 1 0 001.549 1.26l.079-.098L37 92.121V110l.007.117A1 1 0 0039 110V92.12l8.186 11.461.08.098a1 1 0 001.548-1.26L39 88.679v-8.558l8.186 11.46.08.098a1 1 0 001.548-1.26l-9.987-13.981M-8 76zm-.457.11a.994.994 0 00-.277.211l-.001.002a.895.895 0 00-.086.107l-9.993 13.989a1 1 0 001.549 1.26l.079-.098L-9 80.121v8.559l-9.814 13.739a1 1 0 001.549 1.26l.079-.098L-9 92.121V110l.007.117A1 1 0 00-7 110V92.12l8.186 11.461.08.098a1.001 1.001 0 001.548-1.26L-7 88.679v-8.558l8.186 11.46.08.098a1 1 0 001.548-1.26l-9.987-13.981" fill="#000" fill-opacity=".08"/>
    <path clip-rule="evenodd" d="M71.022 55.572s19.495-4.061 22.744-12.455c3.249-8.393-3.016-17.344-10.83-13.808-7.815 3.536-11.914 26.263-11.914 26.263zm-.206 0S51.32 51.511 48.072 43.117c-3.249-8.393 3.015-17.344 10.83-13.808 7.815 3.536 11.913 26.263 11.913 26.263z" stroke="#FAB500" stroke-width="7.581"/>
    <circle cx="71.025" cy="52.864" r="5.415" fill="#FFD465"/>
    <path d="M36.416 58.403a2.166 2.166 0 012.158-2.294L99 56l-3 55-54.465-.187a2.166 2.166 0 01-2.155-2.039l-2.964-50.371z" fill="#58A509"/>
    <path d="M111.446 58.361a2.166 2.166 0 00-2.146-2.267L98 56l-2 55 10.964-.164a2.165 2.165 0 002.131-2.065l2.351-50.41z" fill="#409100"/>
    <path fill="#FAB500" d="M64.609 56.113h10.289v54.692H64.609z"/>
    <path d="M36.943 70H111l-.283 4H37.241l-.298-4z" fill="#000" fill-opacity=".14"/>
  </g>
  <path d="M161.835 49.719c.541 0 .967.155 1.276.464.329.29.493.696.493 1.218v5.655c0 .773-.068 1.373-.203 1.798a1.918 1.918 0 01-.638 1.015c-.309.251-.773.464-1.392.638-.754.232-1.624.416-2.61.551a19.91 19.91 0 01-2.755.203c-2.165 0-4.041-.416-5.626-1.247a8.81 8.81 0 01-3.654-3.625c-.851-1.585-1.276-3.46-1.276-5.626 0-2.127.416-3.973 1.247-5.539a8.808 8.808 0 013.625-3.654c1.566-.85 3.393-1.276 5.481-1.276 2.687 0 4.911.696 6.67 2.088.29.232.493.464.609.696.116.232.174.522.174.87 0 .503-.145.938-.435 1.305-.271.348-.599.522-.986.522-.251 0-.483-.039-.696-.116a5.353 5.353 0 01-.725-.377c-.812-.503-1.556-.86-2.233-1.073a7.42 7.42 0 00-2.233-.319c-3.944 0-5.916 2.291-5.916 6.873 0 2.359.512 4.118 1.537 5.278 1.025 1.16 2.571 1.74 4.64 1.74 1.121 0 2.233-.145 3.335-.435v-4.495h-2.668c-.561 0-.996-.135-1.305-.406-.309-.27-.464-.657-.464-1.16 0-.503.155-.89.464-1.16.309-.27.744-.406 1.305-.406h4.959zm7.461 11.455c-.638 0-1.17-.174-1.595-.522-.406-.348-.609-.86-.609-1.537V48.53c0-.677.213-1.189.638-1.537.425-.348.947-.522 1.566-.522.619 0 1.131.174 1.537.522.425.348.638.86.638 1.537v10.585c0 .677-.213 1.189-.638 1.537-.406.348-.918.522-1.537.522zm0-17.023c-.773 0-1.382-.193-1.827-.58-.445-.406-.667-.947-.667-1.624 0-.677.222-1.208.667-1.595.445-.387 1.054-.58 1.827-.58.754 0 1.353.203 1.798.609.464.387.696.909.696 1.566 0 .677-.222 1.218-.667 1.624-.445.387-1.054.58-1.827.58zm13.271-.406c-.793.058-1.363.3-1.711.725-.348.425-.522 1.025-.522 1.798v.493h2.03c1.314 0 1.972.551 1.972 1.653 0 1.083-.658 1.624-1.972 1.624h-2.03v9.048c0 .677-.213 1.189-.638 1.537-.406.348-.919.522-1.537.522-.638 0-1.17-.174-1.595-.522-.406-.348-.609-.86-.609-1.537v-9.048h-1.16c-1.296 0-1.943-.541-1.943-1.624 0-1.102.647-1.653 1.943-1.653h1.16c0-1.856.512-3.316 1.537-4.379 1.024-1.063 2.436-1.663 4.234-1.798l.754-.058.522-.029c1.334 0 2.001.512 2.001 1.537 0 1.005-.561 1.556-1.682 1.653l-.754.058zm10.199 14.239c.58.039 1.005.184 1.276.435.271.251.406.619.406 1.102 0 .56-.222.986-.667 1.276-.445.29-1.083.406-1.914.348l-.812-.058c-3.383-.27-5.075-2.04-5.075-5.307v-5.742h-1.16c-.638 0-1.121-.135-1.45-.406-.329-.29-.493-.696-.493-1.218 0-.541.164-.947.493-1.218.329-.29.812-.435 1.45-.435h1.16v-2.262c0-.638.193-1.14.58-1.508.406-.367.947-.551 1.624-.551.677 0 1.208.184 1.595.551.387.367.58.87.58 1.508v2.262h2.03c1.315 0 1.972.551 1.972 1.653 0 .522-.164.928-.493 1.218-.329.27-.822.406-1.479.406h-2.03v6.061c0 .58.135 1.025.406 1.334.271.29.667.454 1.189.493l.812.058zm24.882-7.569c1.18.348 2.088.957 2.726 1.827.658.85.986 1.904.986 3.161 0 1.72-.638 3.084-1.914 4.089-1.256 1.005-2.996 1.508-5.22 1.508h-7.598c-.676 0-1.198-.184-1.566-.551-.367-.367-.551-.89-.551-1.566V42.672c0-.677.184-1.199.551-1.566.368-.367.89-.551 1.566-.551h7.308c2.127 0 3.809.474 5.046 1.421 1.257.947 1.885 2.243 1.885 3.886 0 1.063-.29 2.001-.87 2.813-.56.793-1.343 1.373-2.349 1.74zm-8.729-1.537h4.263c1.16 0 2.011-.193 2.552-.58.561-.406.841-1.015.841-1.827 0-.85-.28-1.47-.841-1.856-.541-.406-1.392-.609-2.552-.609h-4.263v4.872zm4.785 8.671c1.199 0 2.069-.203 2.61-.609.542-.406.812-1.063.812-1.972s-.27-1.576-.812-2.001c-.541-.425-1.411-.638-2.61-.638h-4.785v5.22h4.785zm16.863-11.136c2.088 0 3.634.512 4.64 1.537 1.005 1.005 1.508 2.552 1.508 4.64v6.554c0 .638-.184 1.14-.551 1.508-.368.348-.88.522-1.537.522-.619 0-1.122-.184-1.508-.551-.368-.387-.551-.88-.551-1.479v-.203a3.418 3.418 0 01-1.45 1.682c-.677.406-1.47.609-2.378.609-.967 0-1.847-.193-2.639-.58a4.722 4.722 0 01-1.856-1.624 4.217 4.217 0 01-.667-2.32c0-1.044.261-1.866.783-2.465.541-.6 1.401-1.034 2.581-1.305 1.179-.27 2.793-.406 4.843-.406h.754v-.522c0-.812-.184-1.402-.551-1.769-.348-.367-.938-.551-1.769-.551-.832 0-2.03.29-3.596.87-.445.213-.822.319-1.131.319-.426 0-.764-.145-1.015-.435-.252-.31-.377-.706-.377-1.189 0-.387.087-.706.261-.957.174-.251.454-.483.841-.696.676-.367 1.498-.657 2.465-.87a13.724 13.724 0 012.9-.319zm-.87 11.803c.85 0 1.537-.28 2.059-.841.522-.58.783-1.324.783-2.233v-.493h-.493c-1.566 0-2.668.126-3.306.377-.619.251-.928.706-.928 1.363 0 .541.174.986.522 1.334.367.329.821.493 1.363.493zm18.789-11.745c.58-.039 1.034.097 1.363.406.348.29.522.735.522 1.334 0 .638-.155 1.112-.464 1.421-.31.31-.861.503-1.653.58l-.87.087c-1.064.116-1.837.464-2.32 1.044-.464.58-.696 1.324-.696 2.233v5.539c0 .677-.213 1.189-.638 1.537-.406.348-.919.522-1.537.522-.638 0-1.17-.174-1.595-.522-.406-.348-.609-.86-.609-1.537V48.472c0-.638.212-1.131.638-1.479.425-.348.937-.522 1.537-.522.58 0 1.063.174 1.45.522.386.329.58.793.58 1.392v.783c.348-.831.87-1.47 1.566-1.914a4.987 4.987 0 012.32-.754l.406-.029zm16.569 11.136c.445.425.667.909.667 1.45 0 .541-.203 1.025-.609 1.45-.386.425-.841.638-1.363.638-.502 0-.966-.203-1.392-.609l-6.351-5.887v4.437c0 .677-.212 1.189-.638 1.537-.406.348-.918.522-1.537.522-.638 0-1.169-.174-1.595-.522-.406-.348-.609-.86-.609-1.537V42.469c0-.677.203-1.189.609-1.537.426-.348.957-.522 1.595-.522.619 0 1.131.174 1.537.522.426.348.638.86.638 1.537v10.382l5.8-5.713c.426-.425.899-.638 1.421-.638.542 0 1.015.203 1.421.609.406.387.609.85.609 1.392 0 .503-.222.976-.667 1.421l-3.857 3.683 4.321 4.002zm4.948 3.567c-.638 0-1.169-.174-1.595-.522-.406-.348-.609-.86-.609-1.537V48.53c0-.677.213-1.189.638-1.537.426-.348.948-.522 1.566-.522.619 0 1.131.174 1.537.522.426.348.638.86.638 1.537v10.585c0 .677-.212 1.189-.638 1.537-.406.348-.918.522-1.537.522zm0-17.023c-.773 0-1.382-.193-1.827-.58-.444-.406-.667-.947-.667-1.624 0-.677.223-1.208.667-1.595.445-.387 1.054-.58 1.827-.58.754 0 1.354.203 1.798.609.464.387.696.909.696 1.566 0 .677-.222 1.218-.667 1.624-.444.387-1.053.58-1.827.58zm12.372 17.081c-1.508 0-2.833-.3-3.973-.899a6.52 6.52 0 01-2.639-2.581c-.619-1.121-.928-2.436-.928-3.944s.309-2.813.928-3.915a6.286 6.286 0 012.639-2.581c1.14-.6 2.465-.899 3.973-.899s2.832.3 3.973.899c1.14.6 2.02 1.46 2.639 2.581.618 1.102.928 2.407.928 3.915s-.31 2.823-.928 3.944a6.532 6.532 0 01-2.639 2.581c-1.141.6-2.465.899-3.973.899zm0-3.335c2.126 0 3.19-1.363 3.19-4.089 0-1.373-.281-2.397-.841-3.074-.542-.677-1.325-1.015-2.349-1.015-2.127 0-3.19 1.363-3.19 4.089 0 2.726 1.063 4.089 3.19 4.089zm20.914 3.277c-.696 0-1.247-.203-1.653-.609-.406-.406-.609-.957-.609-1.653v-16.24c0-.677.184-1.199.551-1.566.367-.367.889-.551 1.566-.551h7.279c2.223 0 3.954.56 5.191 1.682 1.237 1.121 1.856 2.687 1.856 4.698 0 2.01-.619 3.577-1.856 4.698-1.237 1.121-2.968 1.682-5.191 1.682h-4.872v5.597c0 .696-.203 1.247-.609 1.653-.406.406-.957.609-1.653.609zm6.554-11.281c2.262 0 3.393-.976 3.393-2.929 0-1.972-1.131-2.958-3.393-2.958h-4.292v5.887h4.292zm18.421-3.422c.58-.039 1.034.097 1.363.406.348.29.522.735.522 1.334 0 .638-.155 1.112-.464 1.421-.309.31-.86.503-1.653.58l-.87.087c-1.063.116-1.837.464-2.32 1.044-.464.58-.696 1.324-.696 2.233v5.539c0 .677-.213 1.189-.638 1.537-.406.348-.918.522-1.537.522-.638 0-1.17-.174-1.595-.522-.406-.348-.609-.86-.609-1.537V48.472c0-.638.213-1.131.638-1.479.425-.348.938-.522 1.537-.522.58 0 1.063.174 1.45.522.387.329.58.793.58 1.392v.783c.348-.831.87-1.47 1.566-1.914a4.99 4.99 0 012.32-.754l.406-.029zm14.285 10.295c.387 0 .696.155.928.464.252.31.377.706.377 1.189 0 .329-.096.638-.29.928-.193.27-.464.503-.812.696-.657.348-1.421.638-2.291.87-.87.213-1.672.319-2.407.319-1.546 0-2.9-.3-4.06-.899a6.344 6.344 0 01-2.639-2.552c-.618-1.121-.928-2.436-.928-3.944 0-1.45.3-2.736.899-3.857.6-1.121 1.431-1.991 2.494-2.61 1.064-.638 2.272-.957 3.625-.957 1.296 0 2.427.29 3.393.87.986.56 1.75 1.373 2.291 2.436.542 1.044.812 2.272.812 3.683 0 .425-.106.754-.319.986-.193.213-.473.319-.841.319h-8.12c.136 1.14.484 1.972 1.044 2.494.561.503 1.363.754 2.407.754.561 0 1.064-.068 1.508-.203.445-.135.938-.319 1.479-.551.271-.116.532-.213.783-.29a1.89 1.89 0 01.667-.145zm-4.988-7.337c-.831 0-1.498.27-2.001.812-.502.522-.802 1.286-.899 2.291h5.597c-.058-1.025-.319-1.798-.783-2.32-.444-.522-1.082-.783-1.914-.783zm26.57-3.016c1.547 0 2.736.474 3.567 1.421.832.928 1.247 2.455 1.247 4.582v6.699c0 .677-.203 1.189-.609 1.537-.406.348-.928.522-1.566.522-.618 0-1.14-.174-1.566-.522-.425-.348-.638-.86-.638-1.537v-6.757c0-.928-.164-1.576-.493-1.943-.309-.387-.792-.58-1.45-.58-.812 0-1.459.28-1.943.841-.483.56-.725 1.344-.725 2.349v6.09c0 .677-.203 1.189-.609 1.537-.406.348-.928.522-1.566.522-.618 0-1.14-.174-1.566-.522-.425-.348-.638-.86-.638-1.537v-6.757c0-.928-.164-1.576-.493-1.943-.309-.387-.792-.58-1.45-.58-.812 0-1.459.28-1.943.841-.483.56-.725 1.344-.725 2.349v6.09c0 .677-.212 1.189-.638 1.537-.406.348-.918.522-1.537.522-.618 0-1.14-.174-1.566-.522-.425-.348-.638-.86-.638-1.537V48.472c0-.638.213-1.131.638-1.479.445-.348.977-.522 1.595-.522.58 0 1.064.174 1.45.522.387.329.58.793.58 1.392v.29a4.689 4.689 0 011.798-1.682c.754-.387 1.605-.58 2.552-.58 1.025 0 1.885.213 2.581.638.716.406 1.267 1.073 1.653 2.001a4.852 4.852 0 011.885-1.914c.832-.483 1.769-.725 2.813-.725zm10.318 14.761c-.638 0-1.17-.174-1.595-.522-.406-.348-.609-.86-.609-1.537V48.53c0-.677.212-1.189.638-1.537.425-.348.947-.522 1.566-.522.618 0 1.131.174 1.537.522.425.348.638.86.638 1.537v10.585c0 .677-.213 1.189-.638 1.537-.406.348-.919.522-1.537.522zm0-17.023c-.774 0-1.383-.193-1.827-.58-.445-.406-.667-.947-.667-1.624 0-.677.222-1.208.667-1.595.444-.387 1.053-.58 1.827-.58.754 0 1.353.203 1.798.609.464.387.696.909.696 1.566 0 .677-.223 1.218-.667 1.624-.445.387-1.054.58-1.827.58zm17.04 2.32c.677 0 1.208.184 1.595.551.406.367.609.87.609 1.508v10.643c0 .6-.213 1.083-.638 1.45-.406.367-.938.551-1.595.551-.619 0-1.112-.174-1.479-.522-.367-.348-.551-.812-.551-1.392v-.29a4.478 4.478 0 01-1.769 1.682c-.715.387-1.527.58-2.436.58-1.798 0-3.142-.493-4.031-1.479-.87-1.005-1.305-2.513-1.305-4.524V48.53c0-.638.193-1.14.58-1.508.406-.367.947-.551 1.624-.551.677 0 1.208.184 1.595.551.387.367.58.87.58 1.508v6.786c0 .85.174 1.479.522 1.885.367.406.918.609 1.653.609.851 0 1.537-.29 2.059-.87.541-.58.812-1.344.812-2.291V48.53c0-.638.193-1.14.58-1.508.387-.367.918-.551 1.595-.551zm23.109-.058c1.547 0 2.736.474 3.567 1.421.831.928 1.247 2.455 1.247 4.582v6.699c0 .677-.203 1.189-.609 1.537-.406.348-.928.522-1.566.522-.619 0-1.141-.174-1.566-.522-.425-.348-.638-.86-.638-1.537v-6.757c0-.928-.164-1.576-.493-1.943-.309-.387-.793-.58-1.45-.58-.812 0-1.46.28-1.943.841-.483.56-.725 1.344-.725 2.349v6.09c0 .677-.203 1.189-.609 1.537-.406.348-.928.522-1.566.522-.619 0-1.141-.174-1.566-.522-.425-.348-.638-.86-.638-1.537v-6.757c0-.928-.164-1.576-.493-1.943-.309-.387-.793-.58-1.45-.58-.812 0-1.46.28-1.943.841-.483.56-.725 1.344-.725 2.349v6.09c0 .677-.213 1.189-.638 1.537-.406.348-.918.522-1.537.522-.619 0-1.141-.174-1.566-.522-.425-.348-.638-.86-.638-1.537V48.472c0-.638.213-1.131.638-1.479.445-.348.976-.522 1.595-.522.58 0 1.063.174 1.45.522.387.329.58.793.58 1.392v.29a4.682 4.682 0 011.798-1.682c.754-.387 1.605-.58 2.552-.58 1.025 0 1.885.213 2.581.638.715.406 1.266 1.073 1.653 2.001a4.852 4.852 0 011.885-1.914c.831-.483 1.769-.725 2.813-.725zM164.822 85.747c.174-.406.416-.715.725-.928a1.71 1.71 0 01.986-.319c.541 0 1.025.184 1.45.551.425.367.638.822.638 1.363 0 .232-.058.493-.174.783l-4.756 10.672a2.001 2.001 0 01-.841.986 2.547 2.547 0 01-2.465 0 2.05 2.05 0 01-.812-.986l-3.103-7.221-2.987 7.221a2.05 2.05 0 01-.812.986 2.442 2.442 0 01-1.247.319c-.445 0-.86-.106-1.247-.319a2.001 2.001 0 01-.841-.986l-4.727-10.672a1.984 1.984 0 01-.174-.783c0-.541.222-.996.667-1.363a2.458 2.458 0 011.566-.551c.387 0 .735.106 1.044.319.329.213.58.522.754.928l3.103 7.801 3.161-7.743c.174-.406.425-.715.754-.928a2 2 0 011.131-.348c.406 0 .783.106 1.131.319.348.213.609.532.783.957l3.219 7.743 3.074-7.801zm8.099 13.427c-.638 0-1.17-.174-1.595-.522-.406-.348-.609-.86-.609-1.537V86.53c0-.677.213-1.189.638-1.537.425-.348.947-.522 1.566-.522.619 0 1.131.174 1.537.522.425.348.638.86.638 1.537v10.585c0 .677-.213 1.189-.638 1.537-.406.348-.918.522-1.537.522zm0-17.023c-.773 0-1.382-.193-1.827-.58-.445-.406-.667-.947-.667-1.624 0-.677.222-1.208.667-1.595.445-.387 1.054-.58 1.827-.58.754 0 1.353.203 1.798.609.464.387.696.909.696 1.566 0 .677-.222 1.218-.667 1.624-.445.387-1.054.58-1.827.58zm13.445 13.833c.58.039 1.005.184 1.276.435.27.251.406.619.406 1.102 0 .56-.223.986-.667 1.276-.445.29-1.083.406-1.914.348l-.812-.058c-3.384-.27-5.075-2.04-5.075-5.307v-5.742h-1.16c-.638 0-1.122-.135-1.45-.406-.329-.29-.493-.696-.493-1.218 0-.541.164-.947.493-1.218.328-.29.812-.435 1.45-.435h1.16v-2.262c0-.638.193-1.14.58-1.508.406-.367.947-.551 1.624-.551.676 0 1.208.184 1.595.551.386.367.58.87.58 1.508v2.262h2.03c1.314 0 1.972.551 1.972 1.653 0 .522-.165.928-.493 1.218-.329.27-.822.406-1.479.406h-2.03v6.061c0 .58.135 1.025.406 1.334.27.29.667.454 1.189.493l.812.058zm12.316-11.571c3.306 0 4.959 2.001 4.959 6.003v6.699c0 .638-.203 1.14-.609 1.508-.386.367-.918.551-1.595.551-.676 0-1.208-.184-1.595-.551-.386-.367-.58-.87-.58-1.508v-6.757c0-.85-.183-1.479-.551-1.885-.348-.425-.899-.638-1.653-.638-.908 0-1.643.29-2.204.87-.541.58-.812 1.353-.812 2.32v6.09c0 .638-.193 1.14-.58 1.508-.386.367-.918.551-1.595.551-.676 0-1.218-.184-1.624-.551-.386-.367-.58-.87-.58-1.508V80.411c0-.6.203-1.083.609-1.45.426-.367.977-.551 1.653-.551.638 0 1.151.174 1.537.522.387.348.58.812.58 1.392v6.322a4.731 4.731 0 011.943-1.653c.793-.387 1.692-.58 2.697-.58zm28.914 10.962c1.431 0 2.146.6 2.146 1.798 0 1.218-.715 1.827-2.146 1.827h-10.788c-.599 0-1.083-.174-1.45-.522-.348-.367-.522-.822-.522-1.363 0-.696.28-1.334.841-1.914l6.38-6.757c1.431-1.508 2.146-2.9 2.146-4.176 0-.793-.222-1.392-.667-1.798-.445-.425-1.092-.638-1.943-.638a5.35 5.35 0 00-2.03.377c-.619.251-1.334.619-2.146 1.102-.329.193-.58.329-.754.406a1.489 1.489 0 01-.609.116c-.406 0-.754-.184-1.044-.551a2.164 2.164 0 01-.435-1.334c0-.367.058-.667.174-.899a1.89 1.89 0 01.638-.667 10.58 10.58 0 012.987-1.508 10.602 10.602 0 013.422-.58c1.373 0 2.571.232 3.596.696 1.044.464 1.846 1.131 2.407 2.001.561.85.841 1.837.841 2.958a7.22 7.22 0 01-.754 3.277c-.483 1.005-1.305 2.127-2.465 3.364l-4.553 4.785h6.728zm17.823 0c1.411 0 2.117.6 2.117 1.798 0 1.218-.706 1.827-2.117 1.827h-9.918c-1.431 0-2.146-.609-2.146-1.827 0-1.199.715-1.798 2.146-1.798h2.697V83.514l-2.552 1.537c-.29.174-.58.261-.87.261-.483 0-.899-.203-1.247-.609a2.11 2.11 0 01-.493-1.363c0-.677.3-1.189.899-1.537l4.582-2.755c.677-.406 1.353-.609 2.03-.609.638 0 1.16.203 1.566.609.406.387.609.918.609 1.595v14.732h2.697zm12.836 3.074c-.445.735-.996 1.102-1.653 1.102-.406 0-.764-.155-1.073-.464-.29-.29-.435-.657-.435-1.102 0-.367.116-.754.348-1.16l10.266-17.719c.406-.735.947-1.102 1.624-1.102.425 0 .783.155 1.073.464.309.29.464.657.464 1.102 0 .367-.116.754-.348 1.16l-10.266 17.719zm-3.77-7.714c-1.663 0-2.968-.532-3.915-1.595-.928-1.083-1.392-2.649-1.392-4.698 0-1.991.473-3.519 1.421-4.582.947-1.083 2.242-1.624 3.886-1.624 1.662 0 2.958.541 3.886 1.624.947 1.063 1.421 2.6 1.421 4.611 0 2.05-.474 3.606-1.421 4.669-.928 1.063-2.224 1.595-3.886 1.595zm0-2.726c.599 0 1.034-.27 1.305-.812.27-.541.406-1.45.406-2.726 0-1.218-.145-2.098-.435-2.639-.271-.56-.696-.841-1.276-.841-.58 0-1.006.27-1.276.812-.271.541-.406 1.43-.406 2.668 0 1.257.135 2.165.406 2.726.27.541.696.812 1.276.812zm14.964 11.194c-1.663 0-2.968-.532-3.915-1.595-.928-1.083-1.392-2.649-1.392-4.698 0-2.01.464-3.548 1.392-4.611.947-1.063 2.252-1.595 3.915-1.595 1.643 0 2.938.541 3.886 1.624.947 1.063 1.421 2.6 1.421 4.611 0 2.03-.474 3.586-1.421 4.669-.928 1.063-2.224 1.595-3.886 1.595zm0-2.726c.599 0 1.034-.27 1.305-.812.27-.541.406-1.45.406-2.726 0-1.237-.145-2.127-.435-2.668-.271-.56-.696-.841-1.276-.841-.58 0-1.015.28-1.305.841-.271.541-.406 1.43-.406 2.668 0 1.276.135 2.185.406 2.726.27.541.705.812 1.305.812zm25.879 2.784c-2.03 0-3.799-.425-5.307-1.276-1.488-.87-2.639-2.088-3.451-3.654-.812-1.585-1.218-3.441-1.218-5.568s.406-3.973 1.218-5.539c.812-1.585 1.963-2.803 3.451-3.654 1.508-.85 3.277-1.276 5.307-1.276 2.03 0 3.79.425 5.278 1.276 1.508.85 2.668 2.069 3.48 3.654.812 1.566 1.218 3.412 1.218 5.539s-.406 3.983-1.218 5.568a8.81 8.81 0 01-3.48 3.654c-1.488.85-3.248 1.276-5.278 1.276zm0-3.509c1.702 0 3.036-.6 4.002-1.798.986-1.199 1.479-2.929 1.479-5.191s-.483-3.983-1.45-5.162c-.966-1.199-2.31-1.798-4.031-1.798-1.72 0-3.064.6-4.031 1.798-.947 1.18-1.421 2.9-1.421 5.162s.484 3.992 1.45 5.191c.967 1.199 2.301 1.798 4.002 1.798zm15.693 3.422c-.677 0-1.228-.203-1.653-.609-.406-.425-.609-.976-.609-1.653v-16.24c0-.677.183-1.199.551-1.566.367-.367.889-.551 1.566-.551h9.976c.734 0 1.276.145 1.624.435.348.29.522.744.522 1.363 0 .6-.174 1.044-.522 1.334-.348.29-.89.435-1.624.435h-7.627v4.698h7.047c.734 0 1.276.145 1.624.435.348.29.522.744.522 1.363 0 .6-.174 1.044-.522 1.334-.348.29-.89.435-1.624.435h-7.047v6.525c0 .696-.203 1.247-.609 1.653-.387.406-.919.609-1.595.609zm16.595 0c-.676 0-1.227-.203-1.653-.609-.406-.425-.609-.976-.609-1.653v-16.24c0-.677.184-1.199.551-1.566.368-.367.89-.551 1.566-.551h9.976c.735 0 1.276.145 1.624.435.348.29.522.744.522 1.363 0 .6-.174 1.044-.522 1.334-.348.29-.889.435-1.624.435h-7.627v4.698h7.047c.735 0 1.276.145 1.624.435.348.29.522.744.522 1.363 0 .6-.174 1.044-.522 1.334-.348.29-.889.435-1.624.435h-7.047v6.525c0 .696-.203 1.247-.609 1.653-.386.406-.918.609-1.595.609z" fill="#fff"/>
  <path d="M448 63l7 7-7 7" stroke="#fff" stroke-width="3" stroke-linecap="round"/>
  <defs>
    <clipPath id="giftcard-banner-en__clip0">
      <path fill="#fff" d="M0 0h487v140H0z"/>
    </clipPath>
  </defs>
</svg>
