<svg width="487" height="140" fill="none" xmlns="http://www.w3.org/2000/svg">
  <g clip-path="url(#giftcard-banner-de__clip0)">
    <path fill="#FF4F41" d="M0 0h487v140H0z"/>
    <path fill-rule="evenodd" clip-rule="evenodd" d="M473 34zm-.457.11a.993.993 0 00-.277.211l-.001.002a.982.982 0 00-.086.107l-9.993 13.989a1 1 0 001.549 1.26l.079-.098L472 38.121v8.559l-9.814 13.739a1 1 0 001.549 1.26l.079-.098L472 50.121V68l.007.116A1 1 0 00474 68V50.12l8.186 11.461.08.098a1 1 0 001.548-1.26L474 46.679V38.12l8.186 11.461.08.098a1 1 0 001.548-1.26l-9.987-13.981M495-9zm-.457.11a.993.993 0 00-.277.211l-.001.002a.981.981 0 00-.086.107l-9.993 13.989a1 1 0 001.549 1.26l.079-.098L494-4.879V3.68l-9.814 13.739a1 1 0 001.549 1.26l.079-.098L494 7.121V25l.007.116A1 1 0 00496 25V7.12l8.186 11.461.08.098a1 1 0 001.548-1.26L496 3.679v-8.558l8.186 11.46.08.098a1 1 0 001.548-1.26l-9.987-13.981M449-9zm-.457.11a.993.993 0 00-.277.211l-.001.002a.981.981 0 00-.086.107l-9.993 13.989a1 1 0 001.549 1.26l.079-.098L448-4.879V3.68l-9.814 13.739a1 1 0 001.549 1.26l.079-.098L448 7.121V25l.007.116A1 1 0 00450 25V7.12l8.186 11.461.08.098a1 1 0 001.548-1.26L450 3.679v-8.558l8.186 11.46.08.098a1 1 0 001.548-1.26l-9.987-13.981M403-9zm-.457.11a.993.993 0 00-.277.211l-.001.002a.981.981 0 00-.086.107l-9.993 13.989a1 1 0 001.549 1.26l.079-.098L402-4.879V3.68l-9.814 13.739a1 1 0 001.549 1.26l.079-.098L402 7.121V25l.007.116A1 1 0 00404 25V7.12l8.186 11.461.08.098a1 1 0 001.548-1.26L404 3.679v-8.558l8.186 11.46.08.098a1 1 0 001.548-1.26l-9.987-13.981M425 34zm-.457.11a.993.993 0 00-.277.211l-.001.002a.982.982 0 00-.086.107l-9.993 13.989a1 1 0 001.549 1.26l.079-.098L424 38.121v8.559l-9.814 13.739a1 1 0 001.549 1.26l.079-.098L424 50.121V68l.007.116A1 1 0 00426 68V50.12l8.186 11.461.08.098a1 1 0 001.548-1.26L426 46.679V38.12l8.186 11.461.08.098a1 1 0 001.548-1.26l-9.987-13.981M379 34zm-.457.11a.993.993 0 00-.277.211l-.001.002a.982.982 0 00-.086.107l-9.993 13.989a1 1 0 001.549 1.26l.079-.098L378 38.121v8.559l-9.814 13.739a1 1 0 001.549 1.26l.079-.098L378 50.121V68l.007.116A1 1 0 00380 68V50.12l8.186 11.461.08.098a1 1 0 001.548-1.26L380 46.679V38.12l8.186 11.461.08.098a1 1 0 001.548-1.26l-9.987-13.981M357-9zm-.457.11a.993.993 0 00-.277.211l-.001.002a.981.981 0 00-.086.107l-9.993 13.989a1 1 0 001.549 1.26l.079-.098L356-4.879V3.68l-9.814 13.739a1 1 0 001.549 1.26l.079-.098L356 7.121V25l.007.116A1 1 0 00358 25V7.12l8.186 11.461.08.098a1 1 0 001.548-1.26L358 3.679v-8.558l8.186 11.46.08.098a1 1 0 001.548-1.26l-9.987-13.981M473 119a.993.993 0 01.061.002L473 119zm-.457.111a.981.981 0 00-.277.21l-.001.002a.895.895 0 00-.086.107l-9.993 13.989a1 1 0 001.549 1.26l.079-.098 8.186-11.46v8.559l-9.814 13.739a1 1 0 001.549 1.26l.079-.098 8.186-11.46V153l.007.117A1 1 0 00474 153v-17.879l8.186 11.46.08.098a1 1 0 001.548-1.26L474 131.68v-8.559l8.186 11.46.08.098a1 1 0 001.548-1.26l-9.987-13.981M427 119a.993.993 0 01.061.002L427 119zm-.457.111a.981.981 0 00-.277.21l-.001.002a.895.895 0 00-.086.107l-9.993 13.989a1 1 0 001.549 1.26l.079-.098 8.186-11.46v8.559l-9.814 13.739a1 1 0 001.549 1.26l.079-.098 8.186-11.46V153l.007.117A1 1 0 00428 153v-17.879l8.186 11.46.08.098a1 1 0 001.548-1.26L428 131.68v-8.559l8.186 11.46.08.098a1 1 0 001.548-1.26l-9.987-13.981M381 119a.993.993 0 01.061.002L381 119zm-.457.111a.981.981 0 00-.277.21l-.001.002a.895.895 0 00-.086.107l-9.993 13.989a1 1 0 001.549 1.26l.079-.098 8.186-11.46v8.559l-9.814 13.739a1 1 0 001.549 1.26l.079-.098 8.186-11.46V153l.007.117A1 1 0 00382 153v-17.879l8.186 11.46.08.098a1 1 0 001.548-1.26L382 131.68v-8.559l8.186 11.46.08.098a1 1 0 001.548-1.26l-9.987-13.981M335 119a.993.993 0 01.061.002L335 119zm-.457.111a.981.981 0 00-.277.21l-.001.002a.895.895 0 00-.086.107l-9.993 13.989a1 1 0 001.549 1.26l.079-.098 8.186-11.46v8.559l-9.814 13.739a1 1 0 001.549 1.26l.079-.098 8.186-11.46V153l.007.117A1 1 0 00336 153v-17.879l8.186 11.46.08.098a1 1 0 001.548-1.26L336 131.68v-8.559l8.186 11.46.08.098a1 1 0 001.548-1.26l-9.987-13.981M495 76zm-.457.11a.993.993 0 00-.277.211l-.001.002a.982.982 0 00-.086.107l-9.993 13.989a1 1 0 001.549 1.26l.079-.098L494 80.121v8.559l-9.814 13.739a1 1 0 001.549 1.26l.079-.098L494 92.121V110l.007.117A1 1 0 00496 110V92.12l8.186 11.461.08.098a1 1 0 001.548-1.26L496 88.679v-8.558l8.186 11.46.08.098a1 1 0 001.548-1.26l-9.987-13.981M449 76zm-.457.11a.993.993 0 00-.277.211l-.001.002a.982.982 0 00-.086.107l-9.993 13.989a1 1 0 001.549 1.26l.079-.098L448 80.121v8.559l-9.814 13.739a1 1 0 001.549 1.26l.079-.098L448 92.121V110l.007.117A1 1 0 00450 110V92.12l8.186 11.461.08.098a1 1 0 001.548-1.26L450 88.679v-8.558l8.186 11.46.08.098a1 1 0 001.548-1.26l-9.987-13.981M403 76zm-.457.11a.993.993 0 00-.277.211l-.001.002a.982.982 0 00-.086.107l-9.993 13.989a1 1 0 001.549 1.26l.079-.098L402 80.121v8.559l-9.814 13.739a1 1 0 001.549 1.26l.079-.098L402 92.121V110l.007.117A1 1 0 00404 110V92.12l8.186 11.461.08.098a1 1 0 001.548-1.26L404 88.679v-8.558l8.186 11.46.08.098a1 1 0 001.548-1.26l-9.987-13.981M317-9zm-.457.11a.993.993 0 00-.277.211l-.001.002a.981.981 0 00-.086.107l-9.993 13.989a1 1 0 001.549 1.26l.079-.098L316-4.879V3.68l-9.814 13.739a1 1 0 001.549 1.26l.079-.098L316 7.121V25l.007.116A1 1 0 00318 25V7.12l8.186 11.461.08.098a1 1 0 001.548-1.26L318 3.679v-8.558l8.186 11.46.08.098a1 1 0 001.548-1.26l-9.987-13.981M271-9zm-.457.11a.993.993 0 00-.277.211l-.001.002a.981.981 0 00-.086.107l-9.993 13.989a1 1 0 001.549 1.26l.079-.098L270-4.879V3.68l-9.814 13.739a1 1 0 001.549 1.26l.079-.098L270 7.121V25l.007.116A1 1 0 00272 25V7.12l8.186 11.461.08.098a1 1 0 001.548-1.26L272 3.679v-8.558l8.186 11.46.08.098a1 1 0 001.548-1.26l-9.987-13.981M225-9zm-.457.11a.993.993 0 00-.277.211l-.001.002a.981.981 0 00-.086.107l-9.993 13.989a1 1 0 001.549 1.26l.079-.098L224-4.879V3.68l-9.814 13.739a1 1 0 001.549 1.26l.079-.098L224 7.121V25l.007.116A1 1 0 00226 25V7.12l8.186 11.461.08.098a1 1 0 001.548-1.26L226 3.679v-8.558l8.186 11.46.08.098a1 1 0 001.548-1.26l-9.987-13.981M179-9zm-.457.11a.993.993 0 00-.277.211l-.001.002a.981.981 0 00-.086.107l-9.993 13.989a1 1 0 001.549 1.26l.079-.098L178-4.879V3.68l-9.814 13.739a1 1 0 001.549 1.26l.079-.098L178 7.121V25l.007.116A1 1 0 00180 25V7.12l8.186 11.461.08.098a1 1 0 001.548-1.26L180 3.679v-8.558l8.186 11.46.08.098a1 1 0 001.548-1.26l-9.987-13.981M295 119a.993.993 0 01.061.002L295 119zm-.457.111a.981.981 0 00-.277.21l-.001.002a.895.895 0 00-.086.107l-9.993 13.989a1 1 0 001.549 1.26l.079-.098 8.186-11.46v8.559l-9.814 13.739a1 1 0 001.549 1.26l.079-.098 8.186-11.46V153l.007.117A1 1 0 00296 153v-17.879l8.186 11.46.08.098a1 1 0 001.548-1.26L296 131.68v-8.559l8.186 11.46.08.098a1 1 0 001.548-1.26l-9.987-13.981M249 119a.993.993 0 01.061.002L249 119zm-.457.111a.981.981 0 00-.277.21l-.001.002a.895.895 0 00-.086.107l-9.993 13.989a1 1 0 001.549 1.26l.079-.098 8.186-11.46v8.559l-9.814 13.739a1 1 0 001.549 1.26l.079-.098 8.186-11.46V153l.007.117A1 1 0 00250 153v-17.879l8.186 11.46.08.098a1 1 0 001.548-1.26L250 131.68v-8.559l8.186 11.46.08.098a1 1 0 001.548-1.26l-9.987-13.981M203 119a.993.993 0 01.061.002L203 119zm-.457.111a.981.981 0 00-.277.21l-.001.002a.895.895 0 00-.086.107l-9.993 13.989a1 1 0 001.549 1.26l.079-.098 8.186-11.46v8.559l-9.814 13.739a1 1 0 001.549 1.26l.079-.098 8.186-11.46V153l.007.117A1 1 0 00204 153v-17.879l8.186 11.46.08.098a1 1 0 001.548-1.26L204 131.68v-8.559l8.186 11.46.08.098a1 1 0 001.548-1.26l-9.987-13.981M157 119a.993.993 0 01.061.002L157 119zm-.457.111a.981.981 0 00-.277.21l-.001.002a.895.895 0 00-.086.107l-9.993 13.989a1 1 0 001.549 1.26l.079-.098 8.186-11.46v8.559l-9.814 13.739a1 1 0 001.549 1.26l.079-.098 8.186-11.46V153l.007.117A1 1 0 00158 153v-17.879l8.186 11.46.08.098a1 1 0 001.548-1.26L158 131.68v-8.559l8.186 11.46.08.098a1 1 0 001.548-1.26l-9.987-13.981M108 34zm-.457.11a.993.993 0 00-.277.211l-.001.002a.982.982 0 00-.086.107l-9.993 13.989a1 1 0 001.549 1.26l.079-.098L107 38.121v8.559l-9.814 13.739a1 1 0 001.549 1.26l.079-.098L107 50.121V68l.007.116A1 1 0 00109 68V50.12l8.186 11.461.08.098a1 1 0 001.548-1.26L109 46.679V38.12l8.186 11.461.08.098a1 1 0 001.548-1.26l-9.987-13.981M62 34zm-.457.11a.993.993 0 00-.277.211l-.001.002a.895.895 0 00-.086.107l-9.993 13.989a1 1 0 001.549 1.26l.079-.098L61 38.121v8.559l-9.814 13.739a1 1 0 001.549 1.26l.079-.098L61 50.121V68l.007.116A1 1 0 0063 68V50.12l8.186 11.461.08.098a1 1 0 001.548-1.26L63 46.679V38.12l8.186 11.461.08.098a1 1 0 001.548-1.26l-9.987-13.981M16 34zm-.457.11a.993.993 0 00-.277.211l-.001.002a.895.895 0 00-.086.107L5.186 48.419a1 1 0 001.549 1.26l.079-.098L15 38.121v8.559L5.186 60.419a1 1 0 001.549 1.26l.079-.098L15 50.121V68l.007.116A1 1 0 0017 68V50.12l8.186 11.461.08.098a1 1 0 001.548-1.26L17 46.679V38.12l8.186 11.461.08.098a1 1 0 001.548-1.26l-9.987-13.981M130-9zm-.457.11a.993.993 0 00-.277.211l-.001.002a.981.981 0 00-.086.107l-9.993 13.989a1 1 0 001.549 1.26l.079-.098L129-4.879V3.68l-9.814 13.739a1 1 0 001.549 1.26l.079-.098L129 7.121V25l.007.116A1 1 0 00131 25V7.12l8.186 11.461.08.098a1 1 0 001.548-1.26L131 3.679v-8.558l8.186 11.46.08.098a1 1 0 001.548-1.26l-9.987-13.981M84-9zm-.457.11a.992.992 0 00-.277.211l-.001.002a.895.895 0 00-.086.107L73.186 5.419a1 1 0 001.549 1.26l.079-.098L83-4.879V3.68l-9.814 13.739a1 1 0 001.549 1.26l.079-.098L83 7.121V25l.007.116A1 1 0 0085 25V7.12l8.186 11.461.08.098a1 1 0 001.548-1.26L85 3.679v-8.558l8.186 11.46.08.098a1 1 0 001.548-1.26L84.827-8.562M38-9zm-.457.11a.992.992 0 00-.277.211l-.001.002a.895.895 0 00-.086.107L27.186 5.419a1 1 0 001.549 1.26l.079-.098L37-4.879V3.68l-9.814 13.739a1 1 0 001.549 1.26l.079-.098L37 7.121V25l.007.116A1 1 0 0039 25V7.12l8.186 11.461.08.098a1 1 0 001.548-1.26L39 3.679v-8.558l8.186 11.46.08.098a1 1 0 001.548-1.26L38.827-8.562M-8-9zm-.457.11a.993.993 0 00-.277.211l-.001.002a.895.895 0 00-.086.107l-9.993 13.989a1 1 0 001.549 1.26l.079-.098L-9-4.879V3.68l-9.814 13.739a1 1 0 001.549 1.26l.079-.098L-9 7.121V25l.007.116A1 1 0 00-7 25V7.12l8.186 11.461.08.098a1 1 0 001.548-1.26L-7 3.679v-8.558L1.186 6.58l.08.098a1 1 0 001.548-1.26l-9.987-13.98M108 119a.993.993 0 01.061.002L108 119zm-.457.111a.981.981 0 00-.277.21l-.001.002a.895.895 0 00-.086.107l-9.993 13.989a1 1 0 001.549 1.26l.079-.098 8.186-11.46v8.559l-9.814 13.739a1 1 0 001.549 1.26l.079-.098 8.186-11.46V153l.007.117A1 1 0 00109 153v-17.879l8.186 11.46.08.098a1 1 0 001.548-1.26L109 131.68v-8.559l8.186 11.46.08.098a1 1 0 001.548-1.26l-9.987-13.981M62 119a.996.996 0 01.061.002l-.06-.002zm-.457.111a.98.98 0 00-.277.21l-.001.002a.915.915 0 00-.086.107l-9.993 13.989a1 1 0 001.549 1.26l.079-.098L61 123.121v8.559l-9.814 13.739a1 1 0 001.549 1.26l.079-.098L61 135.121V153l.007.117A1 1 0 0063 153v-17.879l8.186 11.46.08.098a1 1 0 001.548-1.26L63 131.68v-8.559l8.186 11.46.08.098a1 1 0 001.548-1.26l-9.987-13.981M16 119a.996.996 0 01.061.002l-.06-.002zm-.457.111a.98.98 0 00-.277.21l-.001.002a.915.915 0 00-.086.107l-9.993 13.989a1 1 0 001.549 1.26l.079-.098L15 123.121v8.559l-9.814 13.739a1 1 0 001.549 1.26l.079-.098L15 135.121V153l.007.117A1 1 0 0017 153v-17.879l8.186 11.46.08.098a1 1 0 001.548-1.26L17 131.68v-8.559l8.186 11.46.08.098a1 1 0 001.548-1.26l-9.987-13.981M130 76zm-.457.11a.993.993 0 00-.277.211l-.001.002a.982.982 0 00-.086.107l-9.993 13.989a1 1 0 001.549 1.26l.079-.098L129 80.121v8.559l-9.814 13.739a1 1 0 001.549 1.26l.079-.098L129 92.121V110l.007.117A1 1 0 00131 110V92.12l8.186 11.461.08.098a1 1 0 001.548-1.26L131 88.679v-8.558l8.186 11.46.08.098a1 1 0 001.548-1.26l-9.987-13.981M84 76zm-.457.11a.993.993 0 00-.277.211l-.001.002a.895.895 0 00-.086.107l-9.993 13.989a1 1 0 001.549 1.26l.079-.098L83 80.121v8.559l-9.814 13.739a1 1 0 001.549 1.26l.079-.098L83 92.121V110l.007.117A1 1 0 0085 110V92.12l8.186 11.461.08.098a1 1 0 001.548-1.26L85 88.679v-8.558l8.186 11.46.08.098a1 1 0 001.548-1.26l-9.987-13.981M38 76zm-.457.11a.993.993 0 00-.277.211l-.001.002a.895.895 0 00-.086.107l-9.993 13.989a1 1 0 001.549 1.26l.079-.098L37 80.121v8.559l-9.814 13.739a1 1 0 001.549 1.26l.079-.098L37 92.121V110l.007.117A1 1 0 0039 110V92.12l8.186 11.461.08.098a1 1 0 001.548-1.26L39 88.679v-8.558l8.186 11.46.08.098a1 1 0 001.548-1.26l-9.987-13.981M-8 76zm-.457.11a.994.994 0 00-.277.211l-.001.002a.895.895 0 00-.086.107l-9.993 13.989a1 1 0 001.549 1.26l.079-.098L-9 80.121v8.559l-9.814 13.739a1 1 0 001.549 1.26l.079-.098L-9 92.121V110l.007.117A1 1 0 00-7 110V92.12l8.186 11.461.08.098a1.001 1.001 0 001.548-1.26L-7 88.679v-8.558l8.186 11.46.08.098a1 1 0 001.548-1.26l-9.987-13.981" fill="#000" fill-opacity=".08"/>
    <path clip-rule="evenodd" d="M60.022 55.572s19.495-4.061 22.744-12.455c3.249-8.393-3.016-17.344-10.83-13.808-7.815 3.536-11.914 26.263-11.914 26.263zm-.206 0S40.32 51.511 37.072 43.117c-3.249-8.393 3.015-17.344 10.83-13.808 7.815 3.536 11.913 26.263 11.913 26.263z" stroke="#FAB500" stroke-width="7.581"/>
    <circle cx="60.025" cy="52.864" r="5.415" fill="#FFD465"/>
    <path d="M25.416 58.403a2.166 2.166 0 012.158-2.294L88 56l-3 55-54.465-.187a2.166 2.166 0 01-2.155-2.039l-2.964-50.371z" fill="#58A509"/>
    <path d="M100.446 58.361a2.166 2.166 0 00-2.146-2.267L87 56l-2 55 10.964-.164a2.166 2.166 0 002.13-2.065l2.352-50.41z" fill="#409100"/>
    <path fill="#FAB500" d="M53.609 56.114h10.289v54.692H53.609z"/>
    <path d="M25.943 70H100l-.283 4H26.241l-.298-4z" fill="#000" fill-opacity=".14"/>
  </g>
  <path d="M142.66 42.937c.162-.378.396-.657.702-.837a1.848 1.848 0 011.026-.297c.54 0 1.026.18 1.458.54.432.36.648.801.648 1.323 0 .27-.063.54-.189.81l-7.29 15.39a2.216 2.216 0 01-.891.972 2.663 2.663 0 01-1.296.324c-.468 0-.9-.108-1.296-.324a2.216 2.216 0 01-.891-.972l-7.29-15.39a1.73 1.73 0 01-.189-.783c0-.54.225-.99.675-1.35.45-.36.954-.54 1.512-.54.378 0 .72.099 1.026.297.324.18.567.459.729.837l5.778 12.636 5.778-12.636zm14.079 14.121c.36 0 .648.144.864.432.234.288.351.657.351 1.107 0 .306-.09.594-.27.864a2.25 2.25 0 01-.756.648c-.612.324-1.323.594-2.133.81-.81.198-1.557.297-2.241.297-1.44 0-2.7-.279-3.78-.837a5.902 5.902 0 01-2.457-2.376c-.576-1.044-.864-2.268-.864-3.672 0-1.35.279-2.547.837-3.591a6.043 6.043 0 012.322-2.43c.99-.594 2.115-.891 3.375-.891 1.206 0 2.259.27 3.159.81.918.522 1.629 1.278 2.133 2.268.504.972.756 2.115.756 3.429 0 .396-.099.702-.297.918-.18.198-.441.297-.783.297h-7.56c.126 1.062.45 1.836.972 2.322.522.468 1.269.702 2.241.702.522 0 .99-.063 1.404-.189.414-.126.873-.297 1.377-.513.252-.108.495-.198.729-.27.234-.09.441-.135.621-.135zm-4.644-6.831c-.774 0-1.395.252-1.863.756-.468.486-.747 1.197-.837 2.133h5.211c-.054-.954-.297-1.674-.729-2.16-.414-.486-1.008-.729-1.782-.729zm15.814-2.754c.54-.036.963.09 1.269.378.324.27.486.684.486 1.242 0 .594-.144 1.035-.432 1.323-.288.288-.801.468-1.539.54l-.81.081c-.99.108-1.71.432-2.16.972-.432.54-.648 1.233-.648 2.079v5.157c0 .63-.198 1.107-.594 1.431-.378.324-.855.486-1.431.486-.594 0-1.089-.162-1.485-.486-.378-.324-.567-.801-.567-1.431v-9.909c0-.594.198-1.053.594-1.377.396-.324.873-.486 1.431-.486.54 0 .99.162 1.35.486.36.306.54.738.54 1.296v.729c.324-.774.81-1.368 1.458-1.782a4.646 4.646 0 012.16-.702l.378-.027zm7.316 13.743c-1.098 0-2.052-.09-2.862-.27-.81-.18-1.521-.468-2.133-.864a1.652 1.652 0 01-.621-.648 1.92 1.92 0 01-.216-.918c0-.414.117-.756.351-1.026.234-.288.522-.432.864-.432.234 0 .468.045.702.135.234.072.477.162.729.27.504.234.999.423 1.485.567.486.126 1.089.189 1.809.189.63 0 1.116-.099 1.458-.297.36-.198.54-.468.54-.81 0-.252-.081-.45-.243-.594-.144-.162-.423-.306-.837-.432s-1.071-.279-1.971-.459c-1.602-.306-2.754-.765-3.456-1.377s-1.053-1.467-1.053-2.565c0-.81.243-1.539.729-2.187.504-.648 1.188-1.152 2.052-1.512.864-.378 1.836-.567 2.916-.567.774 0 1.53.099 2.268.297a7.228 7.228 0 011.971.837c.558.342.837.846.837 1.512 0 .432-.117.792-.351 1.08-.234.288-.522.432-.864.432-.414 0-.909-.162-1.485-.486a6.754 6.754 0 00-1.242-.513c-.36-.126-.792-.189-1.296-.189-.558 0-.999.108-1.323.324-.324.198-.486.477-.486.837 0 .378.189.666.567.864.378.198 1.107.396 2.187.594 1.206.234 2.151.522 2.835.864.684.324 1.179.738 1.485 1.242.306.504.459 1.143.459 1.917 0 1.278-.531 2.295-1.593 3.051-1.044.756-2.448 1.134-4.212 1.134zm13.764 0c-1.368 0-2.565-.279-3.591-.837a5.81 5.81 0 01-2.376-2.376c-.54-1.026-.81-2.232-.81-3.618 0-1.386.288-2.601.864-3.645a6.158 6.158 0 012.484-2.457c1.062-.576 2.286-.864 3.672-.864.72 0 1.44.099 2.16.297a7.228 7.228 0 011.971.837c.558.342.837.846.837 1.512 0 .468-.108.855-.324 1.161a1.026 1.026 0 01-.864.432 2.12 2.12 0 01-.675-.108c-.198-.09-.468-.216-.81-.378a7.956 7.956 0 00-1.026-.459 2.836 2.836 0 00-.999-.162c-1.008 0-1.782.324-2.322.972-.522.63-.783 1.557-.783 2.781 0 1.224.261 2.16.783 2.808.54.648 1.314.972 2.322.972.378 0 .711-.045.999-.135a9.81 9.81 0 001.053-.486c.342-.162.612-.279.81-.351.198-.09.414-.135.648-.135.342 0 .621.153.837.459.234.306.351.693.351 1.161 0 .666-.279 1.161-.837 1.485a7.175 7.175 0 01-1.998.837 9.341 9.341 0 01-2.376.297zm15.11-13.797c3.078 0 4.617 1.863 4.617 5.589v6.237c0 .594-.189 1.062-.567 1.404-.36.342-.855.513-1.485.513-.63 0-1.125-.171-1.485-.513-.36-.342-.54-.81-.54-1.404v-6.291c0-.792-.171-1.377-.513-1.755-.324-.396-.837-.594-1.539-.594-.846 0-1.53.27-2.052.81-.504.54-.756 1.26-.756 2.16v5.67c0 .594-.18 1.062-.54 1.404-.36.342-.855.513-1.485.513-.63 0-1.134-.171-1.512-.513-.36-.342-.54-.81-.54-1.404V43.693c0-.558.189-1.008.567-1.35.396-.342.909-.513 1.539-.513.594 0 1.071.162 1.431.486.36.324.54.756.54 1.296v5.886a4.4 4.4 0 011.809-1.539c.738-.36 1.575-.54 2.511-.54zm17.798 9.639c.36 0 .648.144.864.432.234.288.351.657.351 1.107 0 .306-.09.594-.27.864a2.25 2.25 0 01-.756.648c-.612.324-1.323.594-2.133.81-.81.198-1.557.297-2.241.297-1.44 0-2.7-.279-3.78-.837a5.902 5.902 0 01-2.457-2.376c-.576-1.044-.864-2.268-.864-3.672 0-1.35.279-2.547.837-3.591a6.043 6.043 0 012.322-2.43c.99-.594 2.115-.891 3.375-.891 1.206 0 2.259.27 3.159.81.918.522 1.629 1.278 2.133 2.268.504.972.756 2.115.756 3.429 0 .396-.099.702-.297.918-.18.198-.441.297-.783.297h-7.56c.126 1.062.45 1.836.972 2.322.522.468 1.269.702 2.241.702.522 0 .99-.063 1.404-.189.414-.126.873-.297 1.377-.513.252-.108.495-.198.729-.27.234-.09.441-.135.621-.135zm-4.644-6.831c-.774 0-1.395.252-1.863.756-.468.486-.747 1.197-.837 2.133h5.211c-.054-.954-.297-1.674-.729-2.16-.414-.486-1.008-.729-1.782-.729zm16.219-2.808c1.584 0 2.763.468 3.537 1.404.774.918 1.161 2.313 1.161 4.185v6.237c0 .594-.189 1.062-.567 1.404-.36.342-.855.513-1.485.513-.63 0-1.125-.171-1.485-.513-.36-.342-.54-.81-.54-1.404v-6.048c0-.9-.171-1.557-.513-1.971-.324-.414-.837-.621-1.539-.621-.846 0-1.53.27-2.052.81-.504.54-.756 1.26-.756 2.16v5.67c0 .594-.18 1.062-.54 1.404-.36.342-.855.513-1.485.513-.63 0-1.134-.171-1.512-.513-.36-.342-.54-.81-.54-1.404v-9.909c0-.558.189-1.008.567-1.35.396-.342.9-.513 1.512-.513.558 0 1.008.171 1.35.513.36.324.54.747.54 1.269v.378a4.671 4.671 0 011.809-1.647c.756-.378 1.602-.567 2.538-.567zm19.742 10.422c.414.396.621.846.621 1.35 0 .504-.189.954-.567 1.35-.36.396-.783.594-1.269.594-.468 0-.9-.189-1.296-.567l-5.913-5.481v4.131c0 .63-.198 1.107-.594 1.431-.378.324-.855.486-1.431.486-.594 0-1.089-.162-1.485-.486-.378-.324-.567-.801-.567-1.431V43.747c0-.63.189-1.107.567-1.431.396-.324.891-.486 1.485-.486.576 0 1.053.162 1.431.486.396.324.594.801.594 1.431v9.666l5.4-5.319c.396-.396.837-.594 1.323-.594.504 0 .945.189 1.323.567.378.36.567.792.567 1.296 0 .468-.207.909-.621 1.323l-3.591 3.429 4.023 3.726zm12.561-.783c.36 0 .648.144.864.432.234.288.351.657.351 1.107 0 .306-.09.594-.27.864a2.25 2.25 0 01-.756.648c-.612.324-1.323.594-2.133.81-.81.198-1.557.297-2.241.297-1.44 0-2.7-.279-3.78-.837a5.902 5.902 0 01-2.457-2.376c-.576-1.044-.864-2.268-.864-3.672 0-1.35.279-2.547.837-3.591a6.043 6.043 0 012.322-2.43c.99-.594 2.115-.891 3.375-.891 1.206 0 2.259.27 3.159.81.918.522 1.629 1.278 2.133 2.268.504.972.756 2.115.756 3.429 0 .396-.099.702-.297.918-.18.198-.441.297-.783.297h-7.56c.126 1.062.45 1.836.972 2.322.522.468 1.269.702 2.241.702.522 0 .99-.063 1.404-.189.414-.126.873-.297 1.377-.513.252-.108.495-.198.729-.27.234-.09.441-.135.621-.135zm-4.644-6.831c-.774 0-1.395.252-1.863.756-.468.486-.747 1.197-.837 2.133h5.211c-.054-.954-.297-1.674-.729-2.16-.414-.486-1.008-.729-1.782-.729zm27.499.918c1.098.324 1.944.891 2.538 1.701.612.792.918 1.773.918 2.943 0 1.602-.594 2.871-1.782 3.807-1.17.936-2.79 1.404-4.86 1.404h-7.074c-.63 0-1.116-.171-1.458-.513-.342-.342-.513-.828-.513-1.458V43.936c0-.63.171-1.116.513-1.458.342-.342.828-.513 1.458-.513h6.804c1.98 0 3.546.441 4.698 1.323 1.17.882 1.755 2.088 1.755 3.618 0 .99-.27 1.863-.81 2.619-.522.738-1.251 1.278-2.187 1.62zm-8.127-1.431h3.969c1.08 0 1.872-.18 2.376-.54.522-.378.783-.945.783-1.701 0-.792-.261-1.368-.783-1.728-.504-.378-1.296-.567-2.376-.567h-3.969v4.536zm4.455 8.073c1.116 0 1.926-.189 2.43-.567.504-.378.756-.99.756-1.836 0-.846-.252-1.467-.756-1.863-.504-.396-1.314-.594-2.43-.594h-4.455v4.86h4.455zm15.199-10.368c1.944 0 3.384.477 4.32 1.431.936.936 1.404 2.376 1.404 4.32v6.102c0 .594-.171 1.062-.513 1.404-.342.324-.819.486-1.431.486-.576 0-1.044-.171-1.404-.513-.342-.36-.513-.819-.513-1.377v-.189a3.18 3.18 0 01-1.35 1.566c-.63.378-1.368.567-2.214.567-.9 0-1.719-.18-2.457-.54a4.4 4.4 0 01-1.728-1.512 3.929 3.929 0 01-.621-2.16c0-.972.243-1.737.729-2.295.504-.558 1.305-.963 2.403-1.215 1.098-.252 2.601-.378 4.509-.378h.702v-.486c0-.756-.171-1.305-.513-1.647-.324-.342-.873-.513-1.647-.513s-1.89.27-3.348.81c-.414.198-.765.297-1.053.297-.396 0-.711-.135-.945-.405-.234-.288-.351-.657-.351-1.107 0-.36.081-.657.243-.891.162-.234.423-.45.783-.648.63-.342 1.395-.612 2.295-.81a12.784 12.784 0 012.7-.297zm-.81 10.989c.792 0 1.431-.261 1.917-.783.486-.54.729-1.233.729-2.079v-.459h-.459c-1.458 0-2.484.117-3.078.351-.576.234-.864.657-.864 1.269 0 .504.162.918.486 1.242.342.306.765.459 1.269.459zm16.993-10.935c.54-.036.963.09 1.269.378.324.27.486.684.486 1.242 0 .594-.144 1.035-.432 1.323-.288.288-.801.468-1.539.54l-.81.081c-.99.108-1.71.432-2.16.972-.432.54-.648 1.233-.648 2.079v5.157c0 .63-.198 1.107-.594 1.431-.378.324-.855.486-1.431.486-.594 0-1.089-.162-1.485-.486-.378-.324-.567-.801-.567-1.431v-9.909c0-.594.198-1.053.594-1.377.396-.324.873-.486 1.431-.486.54 0 .99.162 1.35.486.36.306.54.738.54 1.296v.729c.324-.774.81-1.368 1.458-1.782a4.646 4.646 0 012.16-.702l.378-.027zm14.927 10.368c.414.396.621.846.621 1.35 0 .504-.189.954-.567 1.35-.36.396-.783.594-1.269.594-.468 0-.9-.189-1.296-.567l-5.913-5.481v4.131c0 .63-.198 1.107-.594 1.431-.378.324-.855.486-1.431.486-.594 0-1.089-.162-1.485-.486-.378-.324-.567-.801-.567-1.431V43.747c0-.63.189-1.107.567-1.431.396-.324.891-.486 1.485-.486.576 0 1.053.162 1.431.486.396.324.594.801.594 1.431v9.666l5.4-5.319c.396-.396.837-.594 1.323-.594.504 0 .945.189 1.323.567.378.36.567.792.567 1.296 0 .468-.207.909-.621 1.323l-3.591 3.429 4.023 3.726zm4.107 3.321c-.594 0-1.089-.162-1.485-.486-.378-.324-.567-.801-.567-1.431V49.39c0-.63.198-1.107.594-1.431.396-.324.882-.486 1.458-.486s1.053.162 1.431.486c.396.324.594.801.594 1.431v9.855c0 .63-.198 1.107-.594 1.431-.378.324-.855.486-1.431.486zm0-15.849c-.72 0-1.287-.18-1.701-.54-.414-.378-.621-.882-.621-1.512s.207-1.125.621-1.485c.414-.36.981-.54 1.701-.54.702 0 1.26.189 1.674.567.432.36.648.846.648 1.458 0 .63-.207 1.134-.621 1.512-.414.36-.981.54-1.701.54zm11.018 15.903c-1.404 0-2.637-.279-3.699-.837a6.075 6.075 0 01-2.457-2.403c-.576-1.044-.864-2.268-.864-3.672 0-1.404.288-2.619.864-3.645a5.857 5.857 0 012.457-2.403c1.062-.558 2.295-.837 3.699-.837s2.637.279 3.699.837a5.857 5.857 0 012.457 2.403c.576 1.026.864 2.241.864 3.645s-.288 2.628-.864 3.672a6.075 6.075 0 01-2.457 2.403c-1.062.558-2.295.837-3.699.837zm0-3.105c1.98 0 2.97-1.269 2.97-3.807 0-1.278-.261-2.232-.783-2.862-.504-.63-1.233-.945-2.187-.945-1.98 0-2.97 1.269-2.97 3.807 0 2.538.99 3.807 2.97 3.807zM130.996 99.162c-.648 0-1.161-.189-1.539-.567-.378-.378-.567-.891-.567-1.539v-15.12c0-.63.171-1.116.513-1.458.342-.342.828-.513 1.458-.513h6.777c2.07 0 3.681.522 4.833 1.566 1.152 1.044 1.728 2.502 1.728 4.374 0 1.872-.576 3.33-1.728 4.374-1.152 1.044-2.763 1.566-4.833 1.566h-4.536v5.211c0 .648-.189 1.161-.567 1.539-.378.378-.891.567-1.539.567zm6.102-10.503c2.106 0 3.159-.909 3.159-2.727 0-1.836-1.053-2.754-3.159-2.754h-3.996v5.481h3.996zm16.65-3.186c.54-.036.963.09 1.269.378.324.27.486.684.486 1.242 0 .594-.144 1.035-.432 1.323-.288.288-.801.468-1.539.54l-.81.081c-.99.108-1.71.432-2.16.972-.432.54-.648 1.233-.648 2.079v5.157c0 .63-.198 1.107-.594 1.431-.378.324-.855.486-1.431.486-.594 0-1.089-.162-1.485-.486-.378-.324-.567-.801-.567-1.431v-9.909c0-.594.198-1.053.594-1.377.396-.324.873-.486 1.431-.486.54 0 .99.162 1.35.486.36.306.54.738.54 1.296v.729c.324-.774.81-1.368 1.458-1.782a4.646 4.646 0 012.16-.702l.378-.027zm12.801 9.585c.36 0 .648.144.864.432.234.288.351.657.351 1.107 0 .306-.09.594-.27.864a2.25 2.25 0 01-.756.648c-.612.324-1.323.594-2.133.81-.81.198-1.557.297-2.241.297-1.44 0-2.7-.279-3.78-.837a5.902 5.902 0 01-2.457-2.376c-.576-1.044-.864-2.268-.864-3.672 0-1.35.279-2.547.837-3.591a6.043 6.043 0 012.322-2.43c.99-.594 2.115-.891 3.375-.891 1.206 0 2.259.27 3.159.81.918.522 1.629 1.278 2.133 2.268.504.972.756 2.115.756 3.429 0 .396-.099.702-.297.918-.18.198-.441.297-.783.297h-7.56c.126 1.062.45 1.836.972 2.322.522.468 1.269.702 2.241.702.522 0 .99-.063 1.404-.189.414-.126.873-.297 1.377-.513.252-.108.495-.198.729-.27.234-.09.441-.135.621-.135zm-4.644-6.831c-.774 0-1.395.252-1.863.756-.468.486-.747 1.197-.837 2.133h5.211c-.054-.954-.297-1.674-.729-2.16-.414-.486-1.008-.729-1.782-.729zm24.237-2.808c1.44 0 2.547.441 3.321 1.323.774.864 1.161 2.286 1.161 4.266v6.237c0 .63-.189 1.107-.567 1.431-.378.324-.864.486-1.458.486-.576 0-1.062-.162-1.458-.486-.396-.324-.594-.801-.594-1.431v-6.291c0-.864-.153-1.467-.459-1.809-.288-.36-.738-.54-1.35-.54-.756 0-1.359.261-1.809.783-.45.522-.675 1.251-.675 2.187v5.67c0 .63-.189 1.107-.567 1.431-.378.324-.864.486-1.458.486-.576 0-1.062-.162-1.458-.486-.396-.324-.594-.801-.594-1.431v-6.291c0-.864-.153-1.467-.459-1.809-.288-.36-.738-.54-1.35-.54-.756 0-1.359.261-1.809.783-.45.522-.675 1.251-.675 2.187v5.67c0 .63-.198 1.107-.594 1.431-.378.324-.855.486-1.431.486-.576 0-1.062-.162-1.458-.486-.396-.324-.594-.801-.594-1.431v-9.909c0-.594.198-1.053.594-1.377.414-.324.909-.486 1.485-.486.54 0 .99.162 1.35.486.36.306.54.738.54 1.296v.27a4.361 4.361 0 011.674-1.566c.702-.36 1.494-.54 2.376-.54.954 0 1.755.198 2.403.594.666.378 1.179.999 1.539 1.863a4.515 4.515 0 011.755-1.782c.774-.45 1.647-.675 2.619-.675zm9.106 13.743c-.594 0-1.089-.162-1.485-.486-.378-.324-.567-.801-.567-1.431V87.39c0-.63.198-1.107.594-1.431.396-.324.882-.486 1.458-.486s1.053.162 1.431.486c.396.324.594.801.594 1.431v9.855c0 .63-.198 1.107-.594 1.431-.378.324-.855.486-1.431.486zm0-15.849c-.72 0-1.287-.18-1.701-.54-.414-.378-.621-.882-.621-1.512s.207-1.125.621-1.485c.414-.36.981-.54 1.701-.54.702 0 1.26.189 1.674.567.432.36.648.846.648 1.458 0 .63-.207 1.134-.621 1.512-.414.36-.981.54-1.701.54zm15.365 2.16c.63 0 1.125.171 1.485.513.378.342.567.81.567 1.404v9.909c0 .558-.198 1.008-.594 1.35-.378.342-.873.513-1.485.513-.576 0-1.035-.162-1.377-.486-.342-.324-.513-.756-.513-1.296v-.27a4.17 4.17 0 01-1.647 1.566c-.666.36-1.422.54-2.268.54-1.674 0-2.925-.459-3.753-1.377-.81-.936-1.215-2.34-1.215-4.212V87.39c0-.594.18-1.062.54-1.404.378-.342.882-.513 1.512-.513s1.125.171 1.485.513c.36.342.54.81.54 1.404v6.318c0 .792.162 1.377.486 1.755.342.378.855.567 1.539.567.792 0 1.431-.27 1.917-.81.504-.54.756-1.251.756-2.133V87.39c0-.594.18-1.062.54-1.404.36-.342.855-.513 1.485-.513zm21.016-.054c1.44 0 2.547.441 3.321 1.323.774.864 1.161 2.286 1.161 4.266v6.237c0 .63-.189 1.107-.567 1.431-.378.324-.864.486-1.458.486-.576 0-1.062-.162-1.458-.486-.396-.324-.594-.801-.594-1.431v-6.291c0-.864-.153-1.467-.459-1.809-.288-.36-.738-.54-1.35-.54-.756 0-1.359.261-1.809.783-.45.522-.675 1.251-.675 2.187v5.67c0 .63-.189 1.107-.567 1.431-.378.324-.864.486-1.458.486-.576 0-1.062-.162-1.458-.486-.396-.324-.594-.801-.594-1.431v-6.291c0-.864-.153-1.467-.459-1.809-.288-.36-.738-.54-1.35-.54-.756 0-1.359.261-1.809.783-.45.522-.675 1.251-.675 2.187v5.67c0 .63-.198 1.107-.594 1.431-.378.324-.855.486-1.431.486-.576 0-1.062-.162-1.458-.486-.396-.324-.594-.801-.594-1.431v-9.909c0-.594.198-1.053.594-1.377.414-.324.909-.486 1.485-.486.54 0 .99.162 1.35.486.36.306.54.738.54 1.296v.27a4.361 4.361 0 011.674-1.566c.702-.36 1.494-.54 2.376-.54.954 0 1.755.198 2.403.594.666.378 1.179.999 1.539 1.863a4.515 4.515 0 011.755-1.782c.774-.45 1.647-.675 2.619-.675zm30.429 0c1.44 0 2.547.441 3.321 1.323.774.864 1.161 2.286 1.161 4.266v6.237c0 .63-.189 1.107-.567 1.431-.378.324-.864.486-1.458.486-.576 0-1.062-.162-1.458-.486-.396-.324-.594-.801-.594-1.431v-6.291c0-.864-.153-1.467-.459-1.809-.288-.36-.738-.54-1.35-.54-.756 0-1.359.261-1.809.783-.45.522-.675 1.251-.675 2.187v5.67c0 .63-.189 1.107-.567 1.431-.378.324-.864.486-1.458.486-.576 0-1.062-.162-1.458-.486-.396-.324-.594-.801-.594-1.431v-6.291c0-.864-.153-1.467-.459-1.809-.288-.36-.738-.54-1.35-.54-.756 0-1.359.261-1.809.783-.45.522-.675 1.251-.675 2.187v5.67c0 .63-.198 1.107-.594 1.431-.378.324-.855.486-1.431.486-.576 0-1.062-.162-1.458-.486-.396-.324-.594-.801-.594-1.431v-9.909c0-.594.198-1.053.594-1.377.414-.324.909-.486 1.485-.486.54 0 .99.162 1.35.486.36.306.54.738.54 1.296v.27a4.361 4.361 0 011.674-1.566c.702-.36 1.494-.54 2.376-.54.954 0 1.755.198 2.403.594.666.378 1.179.999 1.539 1.863a4.515 4.515 0 011.755-1.782c.774-.45 1.647-.675 2.619-.675zm9.106 13.743c-.594 0-1.089-.162-1.485-.486-.378-.324-.567-.801-.567-1.431V87.39c0-.63.198-1.107.594-1.431.396-.324.882-.486 1.458-.486s1.053.162 1.431.486c.396.324.594.801.594 1.431v9.855c0 .63-.198 1.107-.594 1.431-.378.324-.855.486-1.431.486zm0-15.849c-.72 0-1.287-.18-1.701-.54-.414-.378-.621-.882-.621-1.512s.207-1.125.621-1.485c.414-.36.981-.54 1.701-.54.702 0 1.26.189 1.674.567.432.36.648.846.648 1.458 0 .63-.207 1.134-.621 1.512-.414.36-.981.54-1.701.54zm12.017 12.879c.54.036.936.171 1.188.405.252.234.378.576.378 1.026 0 .522-.207.918-.621 1.188-.414.27-1.008.378-1.782.324l-.756-.054c-3.15-.252-4.725-1.899-4.725-4.941v-5.346h-1.08c-.594 0-1.044-.126-1.35-.378-.306-.27-.459-.648-.459-1.134 0-.504.153-.882.459-1.134.306-.27.756-.405 1.35-.405h1.08v-2.106c0-.594.18-1.062.54-1.404.378-.342.882-.513 1.512-.513s1.125.171 1.485.513c.36.342.54.81.54 1.404v2.106h1.89c1.224 0 1.836.513 1.836 1.539 0 .486-.153.864-.459 1.134-.306.252-.765.378-1.377.378h-1.89v5.643c0 .54.126.954.378 1.242.252.27.621.423 1.107.459l.756.054zm21.33-.567c1.332 0 1.998.558 1.998 1.674 0 1.134-.666 1.701-1.998 1.701h-10.044c-.558 0-1.008-.162-1.35-.486-.324-.342-.486-.765-.486-1.269 0-.648.261-1.242.783-1.782l5.94-6.291c1.332-1.404 1.998-2.7 1.998-3.888 0-.738-.207-1.296-.621-1.674-.414-.396-1.017-.594-1.809-.594-.684 0-1.314.117-1.89.351-.576.234-1.242.576-1.998 1.026-.306.18-.54.306-.702.378a1.385 1.385 0 01-.567.108c-.378 0-.702-.171-.972-.513a2.015 2.015 0 01-.405-1.242c0-.342.054-.621.162-.837.126-.234.324-.441.594-.621a9.848 9.848 0 012.781-1.404 9.871 9.871 0 013.186-.54c1.278 0 2.394.216 3.348.648.972.432 1.719 1.053 2.241 1.863.522.792.783 1.71.783 2.754a6.726 6.726 0 01-.702 3.051c-.45.936-1.215 1.98-2.295 3.132l-4.239 4.455h6.264zm16.093 0c1.314 0 1.971.558 1.971 1.674 0 1.134-.657 1.701-1.971 1.701h-9.234c-1.332 0-1.998-.567-1.998-1.701 0-1.116.666-1.674 1.998-1.674h2.511V84.582l-2.376 1.431c-.27.162-.54.243-.81.243-.45 0-.837-.189-1.161-.567a1.966 1.966 0 01-.459-1.269c0-.63.279-1.107.837-1.431l4.266-2.565c.63-.378 1.26-.567 1.89-.567.594 0 1.08.189 1.458.567.378.36.567.855.567 1.485v13.716h2.511zm18.492 2.862c-.414.684-.927 1.026-1.539 1.026-.378 0-.711-.144-.999-.432-.27-.27-.405-.612-.405-1.026 0-.342.108-.702.324-1.08l9.558-16.497c.378-.684.882-1.026 1.512-1.026.396 0 .729.144.999.432.288.27.432.612.432 1.026 0 .342-.108.702-.324 1.08l-9.558 16.497zm-3.51-7.182c-1.548 0-2.763-.495-3.645-1.485-.864-1.008-1.296-2.466-1.296-4.374 0-1.854.441-3.276 1.323-4.266.882-1.008 2.088-1.512 3.618-1.512 1.548 0 2.754.504 3.618 1.512.882.99 1.323 2.421 1.323 4.293 0 1.908-.441 3.357-1.323 4.347-.864.99-2.07 1.485-3.618 1.485zm0-2.538c.558 0 .963-.252 1.215-.756.252-.504.378-1.35.378-2.538 0-1.134-.135-1.953-.405-2.457-.252-.522-.648-.783-1.188-.783-.54 0-.936.252-1.188.756-.252.504-.378 1.332-.378 2.484 0 1.17.126 2.016.378 2.538.252.504.648.756 1.188.756zm13.932 10.422c-1.548 0-2.763-.495-3.645-1.485-.864-1.008-1.296-2.466-1.296-4.374 0-1.872.432-3.303 1.296-4.293.882-.99 2.097-1.485 3.645-1.485 1.53 0 2.736.504 3.618 1.512.882.99 1.323 2.421 1.323 4.293 0 1.89-.441 3.339-1.323 4.347-.864.99-2.07 1.485-3.618 1.485zm0-2.538c.558 0 .963-.252 1.215-.756.252-.504.378-1.35.378-2.538 0-1.152-.135-1.98-.405-2.484-.252-.522-.648-.783-1.188-.783-.54 0-.945.261-1.215.783-.252.504-.378 1.332-.378 2.484 0 1.188.126 2.034.378 2.538s.657.756 1.215.756zm21.934-11.178c.54-.036.963.09 1.269.378.324.27.486.684.486 1.242 0 .594-.144 1.035-.432 1.323-.288.288-.801.468-1.539.54l-.81.081c-.99.108-1.71.432-2.16.972-.432.54-.648 1.233-.648 2.079v5.157c0 .63-.198 1.107-.594 1.431-.378.324-.855.486-1.431.486-.594 0-1.089-.162-1.485-.486-.378-.324-.567-.801-.567-1.431v-9.909c0-.594.198-1.053.594-1.377.396-.324.873-.486 1.431-.486.54 0 .99.162 1.35.486.36.306.54.738.54 1.296v.729c.324-.774.81-1.368 1.458-1.782a4.646 4.646 0 012.16-.702l.378-.027zm8.393-.054c1.944 0 3.384.477 4.32 1.431.936.936 1.404 2.376 1.404 4.32v6.102c0 .594-.171 1.062-.513 1.404-.342.324-.819.486-1.431.486-.576 0-1.044-.171-1.404-.513-.342-.36-.513-.819-.513-1.377v-.189a3.18 3.18 0 01-1.35 1.566c-.63.378-1.368.567-2.214.567-.9 0-1.719-.18-2.457-.54a4.4 4.4 0 01-1.728-1.512 3.929 3.929 0 01-.621-2.16c0-.972.243-1.737.729-2.295.504-.558 1.305-.963 2.403-1.215 1.098-.252 2.601-.378 4.509-.378h.702v-.486c0-.756-.171-1.305-.513-1.647-.324-.342-.873-.513-1.647-.513s-1.89.27-3.348.81c-.414.198-.765.297-1.053.297-.396 0-.711-.135-.945-.405-.234-.288-.351-.657-.351-1.107 0-.36.081-.657.243-.891.162-.234.423-.45.783-.648.63-.342 1.395-.612 2.295-.81a12.784 12.784 0 012.7-.297zm-.81 10.989c.792 0 1.431-.261 1.917-.783.486-.54.729-1.233.729-2.079v-.459h-.459c-1.458 0-2.484.117-3.078.351-.576.234-.864.657-.864 1.269 0 .504.162.918.486 1.242.342.306.765.459 1.269.459zm17.29-10.989c1.152 0 2.169.279 3.051.837.882.558 1.566 1.359 2.052 2.403.504 1.026.756 2.223.756 3.591 0 1.368-.252 2.583-.756 3.645-.486 1.044-1.179 1.863-2.079 2.457-.882.576-1.89.864-3.024.864-.918 0-1.746-.189-2.484-.567-.738-.396-1.305-.936-1.701-1.62v.216c0 .576-.18 1.044-.54 1.404-.36.342-.846.513-1.458.513s-1.107-.171-1.485-.513c-.36-.36-.54-.828-.54-1.404V81.693c0-.558.189-1.008.567-1.35.396-.342.909-.513 1.539-.513.594 0 1.071.162 1.431.486.36.324.54.756.54 1.296v5.913a3.96 3.96 0 011.674-1.539c.738-.378 1.557-.567 2.457-.567zm-1.188 10.692c.954 0 1.692-.333 2.214-.999.522-.684.783-1.638.783-2.862 0-1.206-.261-2.124-.783-2.754-.522-.648-1.26-.972-2.214-.972s-1.692.333-2.214.999c-.522.648-.783 1.575-.783 2.781 0 1.224.261 2.169.783 2.835.522.648 1.26.972 2.214.972zm15.005-10.692c1.944 0 3.384.477 4.32 1.431.936.936 1.404 2.376 1.404 4.32v6.102c0 .594-.171 1.062-.513 1.404-.342.324-.819.486-1.431.486-.576 0-1.044-.171-1.404-.513-.342-.36-.513-.819-.513-1.377v-.189a3.18 3.18 0 01-1.35 1.566c-.63.378-1.368.567-2.214.567-.9 0-1.719-.18-2.457-.54a4.4 4.4 0 01-1.728-1.512 3.929 3.929 0 01-.621-2.16c0-.972.243-1.737.729-2.295.504-.558 1.305-.963 2.403-1.215 1.098-.252 2.601-.378 4.509-.378h.702v-.486c0-.756-.171-1.305-.513-1.647-.324-.342-.873-.513-1.647-.513s-1.89.27-3.348.81c-.414.198-.765.297-1.053.297-.396 0-.711-.135-.945-.405-.234-.288-.351-.657-.351-1.107 0-.36.081-.657.243-.891.162-.234.423-.45.783-.648.63-.342 1.395-.612 2.295-.81a12.784 12.784 0 012.7-.297zm-.81 10.989c.792 0 1.431-.261 1.917-.783.486-.54.729-1.233.729-2.079v-.459h-.459c-1.458 0-2.484.117-3.078.351-.576.234-.864.657-.864 1.269 0 .504.162.918.486 1.242.342.306.765.459 1.269.459zm16.454-.216c.54.036.936.171 1.188.405.252.234.378.576.378 1.026 0 .522-.207.918-.621 1.188-.414.27-1.008.378-1.782.324l-.756-.054c-3.15-.252-4.725-1.899-4.725-4.941v-5.346h-1.08c-.594 0-1.044-.126-1.35-.378-.306-.27-.459-.648-.459-1.134 0-.504.153-.882.459-1.134.306-.27.756-.405 1.35-.405h1.08v-2.106c0-.594.18-1.062.54-1.404.378-.342.882-.513 1.512-.513s1.125.171 1.485.513c.36.342.54.81.54 1.404v2.106h1.89c1.224 0 1.836.513 1.836 1.539 0 .486-.153.864-.459 1.134-.306.252-.765.378-1.377.378h-1.89v5.643c0 .54.126.954.378 1.242.252.27.621.423 1.107.459l.756.054zm9.572 0c.54.036.936.171 1.188.405.252.234.378.576.378 1.026 0 .522-.207.918-.621 1.188-.414.27-1.008.378-1.782.324l-.756-.054c-3.15-.252-4.725-1.899-4.725-4.941v-5.346h-1.08c-.594 0-1.044-.126-1.35-.378-.306-.27-.459-.648-.459-1.134 0-.504.153-.882.459-1.134.306-.27.756-.405 1.35-.405h1.08v-2.106c0-.594.18-1.062.54-1.404.378-.342.882-.513 1.512-.513s1.125.171 1.485.513c.36.342.54.81.54 1.404v2.106h1.89c1.224 0 1.836.513 1.836 1.539 0 .486-.153.864-.459 1.134-.306.252-.765.378-1.377.378h-1.89v5.643c0 .54.126.954.378 1.242.252.27.621.423 1.107.459l.756.054z" fill="#fff"/>
  <path d="M459 63l7 7-7 7" stroke="#fff" stroke-width="3" stroke-linecap="round"/>
  <defs>
    <clipPath id="giftcard-banner-de__clip0">
      <path fill="#fff" d="M0 0h487v140H0z"/>
    </clipPath>
  </defs>
</svg>
