<svg height="40" viewBox="0 0 134 40" width="134" xmlns="http://www.w3.org/2000/svg" xmlns:xlink="http://www.w3.org/1999/xlink"><linearGradient id="a" x1="61.265%" x2="26.021%" y1="95.567%" y2="27.836%"><stop offset="0" stop-color="#00a0ff"/><stop offset=".007" stop-color="#00a1ff"/><stop offset=".26" stop-color="#00beff"/><stop offset=".512" stop-color="#00d2ff"/><stop offset=".76" stop-color="#00dfff"/><stop offset="1" stop-color="#00e3ff"/></linearGradient><linearGradient id="b" x1="107.59%" x2="-130.464%" y1="50.868%" y2="50.868%"><stop offset="0" stop-color="#ffe000"/><stop offset=".409" stop-color="#ffbd00"/><stop offset=".775" stop-color="orange"/><stop offset="1" stop-color="#ff9c00"/></linearGradient><linearGradient id="c" x1="86.725%" x2="-50.48%" y1="69.377%" y2="-37.27%"><stop offset="0" stop-color="#ff3a44"/><stop offset="1" stop-color="#c31162"/></linearGradient><linearGradient id="d" x1="-19.33%" x2="41.841%" y1="112.567%" y2="65.097%"><stop offset="0" stop-color="#32a071"/><stop offset=".069" stop-color="#2da771"/><stop offset=".476" stop-color="#15cf74"/><stop offset=".801" stop-color="#06e775"/><stop offset="1" stop-color="#00f076"/></linearGradient><linearGradient id="e" x1="6809.6%" x2="-17387.4%" y1="4300.35%" y2="4300.35%"><stop offset="0" stop-color="#ccb300"/><stop offset=".409" stop-color="#cc9700"/><stop offset=".775" stop-color="#cc8400"/><stop offset="1" stop-color="#cc7d00"/></linearGradient><linearGradient id="f" x1="86.247%" x2="-50.141%" y1="69.488%" y2="-2.04%"><stop offset="0" stop-color="#cc2e36"/><stop offset="1" stop-color="#9c0e4e"/></linearGradient><linearGradient id="g" x1="308.135%" x2="-66.666%" y1="1531.751%" y2="449.568%"><stop offset="0" stop-color="#008de0"/><stop offset=".007" stop-color="#008de0"/><stop offset=".26" stop-color="#00a7e0"/><stop offset=".512" stop-color="#00b8e0"/><stop offset=".76" stop-color="#00c4e0"/><stop offset="1" stop-color="#00c7e0"/></linearGradient><linearGradient id="h" x1="14404.35%" x2="-8353.95%" y1="10180.7%" y2="-12577.6%"><stop offset="0" stop-color="#e0333c"/><stop offset="1" stop-color="#ab0f56"/></linearGradient><linearGradient id="i" x1="112.786%" x2="-288.225%" y1="100.021%" y2="100.021%"><stop offset="0" stop-color="#e0c500"/><stop offset=".409" stop-color="#e0a600"/><stop offset=".775" stop-color="#e09100"/><stop offset="1" stop-color="#e08900"/></linearGradient><linearGradient id="j" x1="112.785%" x2="-288.199%" y1="-.024%" y2="-.024%"><stop offset="0" stop-color="#ffe840"/><stop offset=".409" stop-color="#ffce40"/><stop offset=".775" stop-color="#ffbc40"/><stop offset="1" stop-color="#ffb540"/></linearGradient><linearGradient id="k" x1="967.085%" x2="-364.459%" y1="23.382%" y2="-1009.832%"><stop offset="0" stop-color="#40b8ff"/><stop offset=".007" stop-color="#40b9ff"/><stop offset=".26" stop-color="#40ceff"/><stop offset=".512" stop-color="#40ddff"/><stop offset=".76" stop-color="#40e7ff"/><stop offset="1" stop-color="#40eaff"/></linearGradient><linearGradient id="l" x1="-18.807%" x2="42.096%" y1="85.609%" y2="53.667%"><stop offset="0" stop-color="#65b895"/><stop offset=".069" stop-color="#62bd95"/><stop offset=".476" stop-color="#50db97"/><stop offset=".801" stop-color="#44ed98"/><stop offset="1" stop-color="#40f498"/></linearGradient><mask id="m" fill="#fff"><path d="m.602.01-.074.07c-.287.306-.456.778-.456 1.389v-.144 21.843-.144c0 .662.197 1.16.528 1.46l12.222-12.237-12.22-12.237m-.53 23.164" fill="#fff" fill-rule="evenodd"/></mask><mask id="n" fill="#fff"><path d="m4.17.021.093.053 4.827 2.746c.46.262.767.58.92.915-.153-.336-.46-.654-.92-.916l-4.827-2.745-.093-.054m.002.145-4.075 4.081 4.074 4.08 4.919-2.798c.624-.356.975-.814 1.034-1.281v-.002c-.059-.467-.41-.926-1.034-1.28l-4.918-2.801" fill="#fff" fill-rule="evenodd"/></mask><mask id="o" fill="#fff"><path d="m.98.038a1.27 1.27 0 0 1 0 0m0 .145c-.341 0-.64.111-.872.32v.001l12.22 12.236 4.075-4.08-14.318-8.146c-.396-.224-.771-.331-1.105-.331m-.874.18a1.36 1.36 0 0 0 -.065.062l.065-.063" fill="#fff" fill-rule="evenodd"/></mask><mask id="p" fill="#fff"><path d="m12.23.098-12.222 12.237c.233.209.53.32.871.32.335 0 .71-.107 1.107-.332l14.318-8.146zm4.166 4.172-14.41 8.197c-.397.226-.772.332-1.107.332h-.004.006c.334 0 .709-.106 1.105-.331z" fill="#fff" fill-rule="evenodd"/></mask><mask id="q" fill="#fff"><path d="m.027.12.095.054z" fill="#fff" fill-rule="evenodd"/></mask><mask id="r" fill="#fff"><path d="m.98.038c-.34 0-.64.112-.872.322l-.003.001-.065.063-.005.007.073.073c.233-.21.53-.321.872-.321.334 0 .709.106 1.105.331l14.318 8.146.092-.092-.093-.053-14.317-8.145c-.361-.205-.704-.312-1.015-.33a1.859 1.859 0 0 0 -.09-.002" fill="#fff" fill-rule="evenodd"/></mask><mask id="s" fill="#fff"><path d="m.529.035c-.289.305-.457.776-.457 1.388v.144c0-.611.17-1.084.457-1.387l.073-.07-.072-.075" fill="#fff" fill-rule="evenodd"/></mask><mask id="t" fill="#fff"><path d="m.035.036.075.074z" fill="#fff" fill-rule="evenodd"/></mask><mask id="u" fill="#fff"><path d="m.12.074-.09.092 4.918 2.798c.624.355.975.814 1.034 1.28 0-.17-.039-.342-.114-.509-.153-.336-.46-.653-.92-.915z" fill="#fff" fill-rule="evenodd"/></mask><mask id="v" fill="#fff"><path d="m5.98 0c-.058.468-.409.926-1.033 1.28l-4.919 2.8.092.092 4.827-2.746c.688-.393 1.033-.91 1.033-1.426" fill="#fff" fill-rule="evenodd"/></mask><mask id="w" fill="#fff"><path d="m.072.01v.151c0 .055.001.108.004.16v.009c.03.527.194.938.453 1.212l.071-.072c-.33-.299-.529-.798-.529-1.46" fill="#fff" fill-rule="evenodd"/></mask><mask id="x" fill="#fff"><path d="m16.403.03-14.318 8.144c-.397.225-.773.332-1.107.332a1.27 1.27 0 0 1 -.87-.32l-.073.072c.023.024.046.047.07.069l.003.002c.23.208.525.32.863.321h.007c.334 0 .71-.107 1.107-.332l14.41-8.197z" fill="#fff" fill-rule="evenodd"/></mask><g fill="none"><path d="m128.482 39.753h-123.302c-2.713 0-4.932-2.222-4.932-4.938v-29.63c-.001-2.715 2.219-4.938 4.931-4.938h123.303c2.713 0 4.932 2.222 4.932 4.938v29.63c0 2.716-2.22 4.938-4.932 4.938" fill="#000"/><path d="m128.482.247h-123.302c-2.714 0-4.933 2.222-4.933 4.938v29.63c0 2.716 2.22 4.938 4.932 4.938h123.303c2.713 0 4.932-2.222 4.932-4.938v-29.63c0-2.716-2.22-4.938-4.932-4.938m0 .79a4.15 4.15 0 0 1 4.143 4.148v29.63a4.15 4.15 0 0 1 -4.143 4.148h-123.302a4.15 4.15 0 0 1 -4.143-4.148v-29.63a4.15 4.15 0 0 1 4.143-4.148h123.303" fill="#a6a6a6"/><g fill="#fff"><path d="m47.021 10.364c0 .827-.244 1.486-.734 1.978-.557.584-1.283.877-2.175.877-.854 0-1.58-.297-2.178-.89s-.897-1.328-.897-2.206c0-.877.299-1.612.897-2.206.598-.593 1.324-.89 2.178-.89.424 0 .83.084 1.215.25.385.165.694.385.926.661l-.52.521c-.392-.468-.932-.702-1.62-.702-.624 0-1.163.219-1.617.657-.455.44-.682 1.009-.682 1.71 0 .7.227 1.27.682 1.709.454.438.993.657 1.616.657.661 0 1.212-.22 1.653-.661.287-.288.452-.687.496-1.2h-2.149v-.712h2.868c.028.154.041.303.041.447"/><path d="m47.021 10.364h-.098c-.001.808-.237 1.436-.706 1.908h-.001v.002c-.54.564-1.233.845-2.104.846-.831-.001-1.527-.285-2.108-.86-.58-.578-.867-1.282-.868-2.137.001-.855.288-1.559.868-2.135s1.277-.86 2.108-.861c.411 0 .803.08 1.176.24.374.161.67.373.89.635l.075-.064-.07-.07-.52.522.07.07.075-.064c-.41-.492-.985-.74-1.696-.738-.646-.001-1.214.23-1.684.685-.475.457-.714 1.059-.713 1.78 0 .722.238 1.324.713 1.78.47.456 1.038.687 1.684.686.683.001 1.265-.23 1.723-.69.306-.308.48-.733.525-1.262l.009-.107h-2.158v-.515h2.77v-.098l-.098.017c.027.15.04.292.04.43h.198c0-.15-.015-.305-.044-.465l-.014-.081h-3.05v.91h2.248v-.1l-.098-.008c-.043.497-.201.871-.468 1.139-.423.423-.944.631-1.583.633-.6-.001-1.109-.208-1.548-.63-.434-.421-.65-.959-.652-1.639.001-.68.218-1.217.652-1.638.44-.422.948-.629 1.548-.63.667.002 1.17.223 1.545.668l.07.083.595-.598.064-.064-.058-.069a2.534 2.534 0 0 0 -.962-.69 3.147 3.147 0 0 0 -1.254-.256c-.877 0-1.634.308-2.247.919-.617.61-.927 1.375-.926 2.275-.001.9.31 1.667.926 2.277.613.61 1.37.918 2.247.918.913 0 1.671-.303 2.246-.908l-.071-.068.07.07c.51-.512.764-1.202.763-2.048zm4.547-2.476h-2.695v1.88h2.43v.712h-2.43v1.878h2.695v.728h-3.455v-5.926h3.455z"/><path d="m51.568 7.888v-.098h-2.794v2.076h2.43v.514h-2.43v2.077h2.696v.53h-3.258v-5.727h3.258v.63h.098v-.1.1h.099v-.827h-3.653v6.123h3.653v-.926h-2.697v-1.682h2.431v-.91h-2.43v-1.68h2.695v-.1h-.099m3.208 5.198h-.76v-5.198h-1.655v-.728h4.067v.728h-1.653v5.198"/><path d="m54.775 13.086v-.098h-.662v-5.198h-1.653v-.53h3.87v.53h-1.653v5.296h.098v-.098.098h.099v-5.099h1.653v-.925h-4.264v.926h1.653v5.197h.958v-.099zm4.596 0v-5.926h.76v5.926z"/><path d="m59.371 13.086h.099v-5.826h.563v5.729h-.662v.098h.099-.099v.1h.859v-6.126h-.958v6.123h.099v-.099m4.134.001h-.761v-5.198h-1.654v-.728h4.067v.728h-1.653v5.198"/><path d="m63.505 13.086v-.098h-.663v-5.198h-1.652v-.53h3.87v.53h-1.653v5.296h.099v-.098.098h.098v-5.099h1.653v-.925h-4.264v.926h1.653v5.197h.958v-.099h-.098m5.573-1.262c.438.445.974.666 1.608.666a2.17 2.17 0 0 0 1.607-.666c.439-.444.659-1.011.659-1.7 0-.69-.22-1.258-.659-1.702a2.17 2.17 0 0 0 -1.607-.665c-.634 0-1.17.221-1.608.665s-.657 1.012-.657 1.701c0 .69.22 1.257.657 1.701zm3.778.497c-.582.599-1.306.898-2.17.898-.866 0-1.589-.3-2.17-.898-.582-.599-.872-1.331-.872-2.198 0-.866.29-1.598.872-2.197.581-.599 1.304-.898 2.17-.898.86 0 1.582.3 2.166.902s.876 1.333.876 2.193c0 .867-.291 1.6-.872 2.198"/><path d="m69.079 11.824-.07.07a2.271 2.271 0 0 0 1.678.695 2.27 2.27 0 0 0 1.678-.695c.457-.462.687-1.06.686-1.77 0-.71-.23-1.309-.686-1.771a2.27 2.27 0 0 0 -1.678-.695 2.271 2.271 0 0 0 -1.678.695c-.457.462-.687 1.06-.686 1.77-.001.71.23 1.309.686 1.77l.07-.069.07-.069c-.418-.426-.628-.963-.628-1.632 0-.668.21-1.205.628-1.631a2.073 2.073 0 0 1 1.538-.637c.61.001 1.116.21 1.537.637.42.426.629.963.63 1.631-.001.67-.21 1.206-.63 1.632a2.071 2.071 0 0 1 -1.537.637 2.073 2.073 0 0 1 -1.538-.637l-.07.07zm3.778.497-.07-.069c-.566.58-1.258.867-2.1.868-.843-.001-1.535-.288-2.1-.868l-.002-.003.003.003c-.565-.582-.843-1.284-.844-2.129 0-.844.28-1.546.844-2.128.564-.58 1.256-.867 2.099-.868.837 0 1.527.289 2.096.872.566.585.846 1.286.847 2.124 0 .845-.28 1.547-.844 2.129l.07.069.072.068c.598-.615.9-1.377.9-2.266 0-.883-.303-1.644-.904-2.261-.601-.62-1.354-.934-2.237-.933-.888-.001-1.643.311-2.24.929-.6.615-.901 1.377-.9 2.265-.001.889.3 1.651.9 2.267l.002.002-.002-.003c.597.618 1.352.93 2.24.929.887 0 1.642-.311 2.24-.929zm1.939.765v-5.926h.926l2.876 4.61h.033l-.033-1.142v-3.468h.761v5.926h-.794l-3.009-4.833h-.033l.033 1.142v3.691z"/><path d="m74.796 13.086h.099v-5.826h.772l2.876 4.61h.189l-.035-1.242v-3.369h.564v5.729h-.64l-3.01-4.834h-.189l.035 1.243v3.59h-.66v.1h.098-.099v.098h.859v-3.791l-.033-1.144-.099.003v.099h.033v-.099l-.084.053 3.039 4.88h.947v-6.125h-.958v3.568l.032 1.143.099-.003v-.098h-.033v.098l.084-.052-2.906-4.656h-1.078v6.123h.098v-.099m30.935 16.792h1.84v-12.347h-1.84zm16.58-7.9-2.11 5.353h-.064l-2.19-5.353h-1.983l3.284 7.482-1.872 4.162h1.92l5.06-11.644h-2.046zm-10.44 6.497c-.603 0-1.443-.302-1.443-1.048 0-.953 1.047-1.319 1.95-1.319.81 0 1.19.175 1.683.413a2.232 2.232 0 0 1 -2.19 1.954zm.223-6.767c-1.333 0-2.713.588-3.284 1.89l1.633.683c.35-.682 1-.905 1.682-.905.952 0 1.92.572 1.936 1.589v.127c-.334-.191-1.047-.477-1.92-.477-1.76 0-3.554.969-3.554 2.78 0 1.652 1.444 2.716 3.062 2.716 1.238 0 1.92-.556 2.348-1.207h.064v.953h1.776v-4.734c0-2.191-1.633-3.415-3.743-3.415zm-11.376 1.773h-2.618v-4.232h2.618c1.376 0 2.157 1.14 2.157 2.116 0 .957-.78 2.116-2.157 2.116zm-.047-5.95h-4.41v12.347h1.84v-4.678h2.57c2.04 0 4.045-1.48 4.045-3.835 0-2.356-2.005-3.834-4.045-3.834zm-24.051 10.946c-1.272 0-2.337-1.066-2.337-2.53 0-1.48 1.065-2.561 2.337-2.561 1.255 0 2.24 1.082 2.24 2.561 0 1.464-.985 2.53-2.24 2.53zm2.113-5.807h-.063c-.413-.493-1.208-.939-2.21-.939-2.097 0-4.02 1.846-4.02 4.216 0 2.355 1.923 4.185 4.02 4.185 1.002 0 1.797-.445 2.21-.954h.063v.604c0 1.608-.858 2.467-2.24 2.467-1.129 0-1.828-.812-2.114-1.496l-1.605.668c.46 1.114 1.684 2.482 3.719 2.482 2.16 0 3.988-1.273 3.988-4.375v-7.542h-1.748zm3.02 7.208h1.843v-12.348h-1.843zm4.56-4.074c-.047-1.623 1.256-2.45 2.194-2.45.731 0 1.35.366 1.557.891l-3.75 1.56zm5.722-1.4c-.35-.939-1.415-2.673-3.592-2.673-2.161 0-3.957 1.702-3.957 4.2 0 2.356 1.78 4.201 4.164 4.201 1.923 0 3.035-1.177 3.496-1.861l-1.43-.955c-.477.7-1.129 1.161-2.066 1.161-.938 0-1.605-.43-2.035-1.272l5.61-2.324zm-44.693-1.383v1.78h4.26c-.128 1.002-.462 1.734-.97 2.243-.62.621-1.59 1.305-3.29 1.305-2.622 0-4.672-2.116-4.672-4.741 0-2.626 2.05-4.742 4.672-4.742 1.415 0 2.448.557 3.21 1.273l1.256-1.257c-1.065-1.019-2.48-1.798-4.466-1.798-3.591 0-6.61 2.928-6.61 6.524s3.019 6.523 6.61 6.523c1.94 0 3.401-.636 4.545-1.83 1.176-1.177 1.542-2.832 1.542-4.168a5.79 5.79 0 0 0 -.096-1.114h-5.99zm10.929 5.457c-1.272 0-2.368-1.05-2.368-2.545 0-1.512 1.096-2.546 2.368-2.546 1.271 0 2.368 1.034 2.368 2.546 0 1.495-1.097 2.545-2.368 2.545zm0-6.746c-2.32 0-4.212 1.766-4.212 4.2 0 2.42 1.891 4.201 4.212 4.201 2.32 0 4.211-1.782 4.211-4.2 0-2.435-1.891-4.201-4.211-4.201zm9.187 6.746c-1.271 0-2.368-1.05-2.368-2.545 0-1.512 1.097-2.546 2.368-2.546 1.27 0 2.368 1.034 2.368 2.546 0 1.495-1.097 2.545-2.368 2.545zm0-6.746c-2.32 0-4.211 1.766-4.211 4.2 0 2.42 1.89 4.201 4.21 4.201s4.212-1.782 4.212-4.2c0-2.435-1.891-4.201-4.211-4.201"/></g><g fill="url(#a)" mask="url(#m)" transform="matrix(1 0 0 -1 10.012 32.247)"><path d="m.602.01-.074.07c-.287.306-.456.778-.456 1.389v-.144 21.843-.144c0 .662.197 1.16.528 1.46l12.222-12.237-12.22-12.237m-.53 23.164"/></g><g fill="url(#b)" mask="url(#n)" transform="matrix(1 0 0 -1 22.737 24.247)"><path d="m4.17.021.093.053 4.827 2.746c.46.262.767.58.92.915-.153-.336-.46-.654-.92-.916l-4.827-2.745-.093-.054m.002.145-4.075 4.081 4.074 4.08 4.919-2.798c.624-.356.975-.814 1.034-1.281v-.002c-.059-.467-.41-.926-1.034-1.28l-4.918-2.801"/></g><g fill="url(#c)" mask="url(#o)" transform="matrix(1 0 0 -1 10.505 32.74)"><path d="m.98.038a1.27 1.27 0 0 1 0 0m0 .145c-.341 0-.64.111-.872.32v.001l12.22 12.236 4.075-4.08-14.318-8.146c-.396-.224-.771-.331-1.105-.331m-.874.18a1.36 1.36 0 0 0 -.065.062l.065-.063"/></g><g fill="url(#d)" mask="url(#p)" transform="matrix(1 0 0 -1 10.604 20.099)"><path d="m12.23.098-12.222 12.237c.233.209.53.32.871.32.335 0 .71-.107 1.107-.332l14.318-8.146zm4.166 4.172-14.41 8.197c-.397.226-.772.332-1.107.332h-.004.006c.334 0 .709-.106 1.105-.331z"/></g><path d="m11.576 32.7c.31-.018.653-.124 1.014-.33l14.317-8.144-14.317 8.144c-.36.205-.704.311-1.014.33" fill="#000"/><g fill="url(#e)" mask="url(#q)" transform="matrix(1 0 0 -1 26.88 24.346)"><path d="m.027.12.095.054z"/></g><g fill="url(#f)" mask="url(#r)" transform="matrix(1 0 0 -1 10.505 32.74)"><path d="m.98.038c-.34 0-.64.112-.872.322l-.003.001-.065.063-.005.007.073.073c.233-.21.53-.321.872-.321.334 0 .709.106 1.105.331l14.318 8.146.092-.092-.093-.053-14.317-8.145c-.361-.205-.704-.312-1.015-.33a1.859 1.859 0 0 0 -.09-.002"/></g><path d="m10.54 32.31c-.287-.303-.456-.776-.456-1.387 0 .611.17 1.083.456 1.387" fill="#000"/><g fill="url(#g)" mask="url(#s)" transform="matrix(1 0 0 -1 10.012 32.346)"><path d="m.529.035c-.289.305-.457.776-.457 1.388v.144c0-.611.17-1.084.457-1.387l.073-.07-.072-.075"/></g><g fill="url(#h)" mask="url(#t)" transform="matrix(1 0 0 -1 10.505 32.346)"><path d="m.035.036.075.074z"/></g><path d="m32.747 20.512a1.227 1.227 0 0 1 0 0" fill="#000"/><g fill="url(#i)" mask="url(#u)" transform="matrix(1 0 0 -1 26.88 24.247)"><path d="m.12.074-.09.092 4.918 2.798c.624.355.975.814 1.034 1.28 0-.17-.039-.342-.114-.509-.153-.336-.46-.653-.92-.915z"/></g><path d="m32.86 20c0-.516-.344-1.033-1.033-1.425l-4.827-2.745 4.827 2.746c.69.392 1.035.91 1.034 1.426" fill="#404040"/><g fill="url(#j)" mask="url(#v)" transform="matrix(1 0 0 -1 26.88 20)"><path d="m5.98 0c-.058.468-.409.926-1.033 1.28l-4.919 2.8.092.092 4.827-2.746c.688-.393 1.033-.91 1.033-1.426"/></g><path d="m10.088 8.904c.058-1.015.609-1.601 1.388-1.605a1.268 1.268 0 0 0 -.863.321l-.002.003a1.32 1.32 0 0 0 -.07.069c-.26.274-.423.685-.453 1.212" fill="#404040"/><g fill="url(#k)" mask="url(#w)" transform="matrix(1 0 0 -1 10.012 9.235)"><path d="m.072.01v.151c0 .055.001.108.004.16v.009c.03.527.194.938.453 1.212l.071-.072c-.33-.299-.529-.798-.529-1.46"/></g><path d="m11.477 7.299h.003z" fill="#404040"/><g fill="url(#l)" mask="url(#x)" transform="matrix(1 0 0 -1 10.505 15.95)"><path d="m16.403.03-14.318 8.144c-.397.225-.773.332-1.107.332a1.27 1.27 0 0 1 -.87-.32l-.073.072c.023.024.046.047.07.069l.003.002c.23.208.525.32.863.321h.007c.334 0 .71-.107 1.107-.332l14.41-8.197z"/></g></g></svg>