<svg height="24" viewBox="0 0 24 24" width="24" xmlns="http://www.w3.org/2000/svg"><path d="m11.972 14.548-.01-6.393-.096-.315c-.18-.588-.457-1.033-.929-1.497-.758-.745-1.763-1.18-3.034-1.316-1.319-.14-2.97.283-4.101 1.054-.634.43-.879.758-.947 1.263-.02.143-.029 2.562-.023 5.993.008 5.044.016 5.765.062 5.859.102.207.263.162.916-.256.72-.462 1.219-.691 1.886-.867a6.116 6.116 0 0 1 1.68-.217c1.457 0 2.69.517 3.625 1.522.384.413.57.721.805 1.329.064.166.128.282.145.265s.026-2.869.02-6.424zm1.15 6.336c.283-.764.51-1.146.953-1.601a4.825 4.825 0 0 1 2.63-1.362c.36-.063.515-.07 1.1-.055.749.02 1.25.105 1.868.314.328.112 1.07.468 1.291.622.336.234.848.519.931.519.15 0 .214-.11.246-.42.037-.357.038-11.124 0-11.48-.054-.534-.304-.892-.911-1.31-1.025-.703-2.304-1.093-3.6-1.095a4.924 4.924 0 0 0 -1.397.16c-1.652.396-2.855 1.493-3.156 2.876l-.077.353.007 4.698.008 6.298c.002.893.016 1.599.033 1.599s.05-.052.074-.116z" fill="#fab500"/></svg>