<svg width="72" height="72" viewBox="0 0 72 72" fill="none" xmlns="http://www.w3.org/2000/svg">
<circle cx="36" cy="36" r="36" fill="#58A509" fill-opacity="0.12"/>
<path fill-rule="evenodd" clip-rule="evenodd" d="M43.4829 45.2553C45.2632 45.2553 46.7687 44.8364 47.9992 43.9985C49.2298 43.1607 50.1462 42.0807 50.7483 40.7585C51.3505 39.4364 51.6516 38.0291 51.6516 36.5367C51.6516 35.0444 51.3505 33.6371 50.7483 32.3149C50.1462 30.9927 49.2298 29.9127 47.9992 29.0749C46.7687 28.2371 45.2502 27.8182 43.4436 27.8182C41.8989 27.8182 40.5571 28.2371 39.4182 29.0749C38.2792 29.9127 37.1338 31.0778 35.9818 32.5702C34.8036 31.0516 33.6451 29.88 32.5062 29.0553C31.3672 28.2305 30.0123 27.8182 28.4414 27.8182C26.6611 27.8182 25.1556 28.2371 23.9251 29.0749C22.6945 29.9127 21.7782 30.9927 21.176 32.3149C20.5738 33.6371 20.2727 35.0444 20.2727 36.5367C20.2727 38.0291 20.5738 39.4364 21.176 40.7585C21.7782 42.0807 22.6945 43.1607 23.9251 43.9985C25.1556 44.8364 26.6611 45.2553 28.4414 45.2553C30.0123 45.2553 31.3738 44.8494 32.5258 44.0378C33.6778 43.2262 34.8167 42.0873 35.9425 40.6211C37.0945 42.0873 38.2465 43.2262 39.3985 44.0378C40.5505 44.8494 41.912 45.2553 43.4829 45.2553ZM28.5591 40.3854C27.6689 40.3854 26.9031 40.0385 26.2617 39.3447C25.6202 38.6509 25.2995 37.7149 25.2995 36.5367C25.2995 35.3585 25.6202 34.4225 26.2617 33.7287C26.9031 33.0349 27.6689 32.688 28.5591 32.688C29.4493 32.688 30.2937 33.12 31.0922 33.984C31.8907 34.848 32.5257 35.7251 32.9969 36.6153C32.578 37.4531 31.9627 38.2909 31.1511 39.1287C30.3395 39.9665 29.4755 40.3854 28.5591 40.3854ZM40.7731 39.1287C41.5847 39.9665 42.4487 40.3854 43.3651 40.3854C44.2291 40.3854 44.9818 40.0385 45.6232 39.3447C46.2647 38.6509 46.5854 37.7149 46.5854 36.5367C46.5854 35.3585 46.2647 34.4225 45.6232 33.7287C44.9818 33.0349 44.2291 32.688 43.3651 32.688C42.4487 32.688 41.5781 33.1265 40.7534 34.0036C39.9287 34.8807 39.3069 35.7513 38.888 36.6153C39.333 37.4531 39.9614 38.2909 40.7731 39.1287Z" fill="#6EB918"/>
</svg>
