<svg width="72" height="72" viewBox="0 0 72 72" fill="none" xmlns="http://www.w3.org/2000/svg">
<circle cx="36" cy="36" r="36" fill="#4285F4" fill-opacity="0.12"/>
<path fill-rule="evenodd" clip-rule="evenodd" d="M46.2317 21.0242C47.0949 20.8673 47.8938 21.4791 47.9903 22.3274L48 22.5V42C48 45.3137 45.3137 48 42 48C38.6863 48 36 45.3137 36 42C36 38.6863 38.6863 36 42 36C43.0929 36 44.1175 36.2922 45 36.8027V24.2955L31.5 26.751V45C31.5 48.3137 28.8137 51 25.5 51C22.1863 51 19.5 48.3137 19.5 45C19.5 41.6863 22.1863 39 25.5 39C26.5929 39 27.6175 39.2922 28.5 39.8027V25.5C28.5 24.8355 28.9356 24.2581 29.5576 24.0666L29.7317 24.0242L46.2317 21.0242Z" fill="#4285F4"/>
</svg>
