<svg width="72" height="72" viewBox="0 0 72 72" fill="none" xmlns="http://www.w3.org/2000/svg">
<circle cx="36" cy="36" r="36" fill="#FAB500" fill-opacity="0.16"/>
<path d="M40.5957 30.8857L37.503 23.6039C36.9466 22.2785 35.0484 22.2785 34.4921 23.6039L31.3994 30.9021L23.4957 31.573C22.0557 31.6876 21.4666 33.4876 22.563 34.4366L28.5684 39.6403L26.7684 47.3639C26.4412 48.7712 27.963 49.8839 29.2066 49.1312L35.9975 45.0403L42.7884 49.1476C44.0321 49.9003 45.5539 48.7876 45.2266 47.3803L43.4266 39.6403L49.4321 34.4366C50.5284 33.4876 49.9557 31.6876 48.5157 31.573L40.5957 30.8857Z" fill="#FAB500"/>
<mask id="mask0" mask-type="alpha" maskUnits="userSpaceOnUse" x="21" y="22" width="30" height="28">
<path d="M40.5957 30.8857L37.503 23.6039C36.9466 22.2785 35.0484 22.2785 34.4921 23.6039L31.3994 30.9021L23.4957 31.573C22.0557 31.6876 21.4666 33.4876 22.563 34.4366L28.5684 39.6403L26.7684 47.3639C26.4412 48.7712 27.963 49.8839 29.2066 49.1312L35.9975 45.0403L42.7884 49.1476C44.0321 49.9003 45.5539 48.7876 45.2266 47.3803L43.4266 39.6403L49.4321 34.4366C50.5284 33.4876 49.9557 31.6876 48.5157 31.573L40.5957 30.8857Z" fill="white"/>
</mask>
<g mask="url(#mask0)">
</g>
</svg>
