<svg xmlns="http://www.w3.org/2000/svg" xmlns:xlink="http://www.w3.org/1999/xlink" width="264" height="192" viewBox="0 0 264 192">
    <defs>
        <filter id="zzz7savf9a" width="126.7%" height="105.8%" x="-6.7%" y="-1.5%" filterUnits="objectBoundingBox">
            <feOffset dx="1" dy="1" in="SourceAlpha" result="shadowOffsetOuter1"/>
            <feColorMatrix in="shadowOffsetOuter1" values="0 0 0 0 0 0 0 0 0 0 0 0 0 0 0 0 0 0 0.105751812 0"/>
        </filter>
        <filter id="zipbqvvxfc" width="111.2%" height="145%" x="-2.8%" y="-11.3%" filterUnits="objectBoundingBox">
            <feOffset dx="1" dy="1" in="SourceAlpha" result="shadowOffsetOuter1"/>
            <feColorMatrix in="shadowOffsetOuter1" values="0 0 0 0 0 0 0 0 0 0 0 0 0 0 0 0 0 0 0.11 0"/>
        </filter>
        <rect id="5f2vlykutb" width="7.498" height="34.23" x="0" y="0" rx=".573"/>
        <path id="23tdsejw2d" d="M1.174 15.133H18.983999999999998V19.573999999999998H1.174z"/>
    </defs>
    <g fill="none" fill-rule="evenodd">
        <g>
            <path fill="#FFF" fill-opacity=".12" fill-rule="nonzero" d="M154.28 19.989c31.101 0 36.851 25.023 36.851 25.023 2.05 4.992 7.71 10.794 12.544 13.223 0 0 26.037 9.416 26.037 30.203 0 20.788 14.83 29.063 14.83 60.589s-87.178 36.316-119.037 36.316c-31.859 0-86.538-3.198-99.789-32.627-13.25-29.43-3.375-53.818 13.25-62.267 16.627-8.45 16.395-14.033 16.395-26.808 0-12.776-2.732-8.252-4.63-20.559C48.834 30.775 65.127 6.778 96.315 6.778c31.19 0 37.368 13.21 57.964 13.21z"/>
            <g>
                <path fill="#000" fill-opacity=".08" fill-rule="nonzero" d="M0 149.986H247.114V194.837H0z" transform="translate(10.225 6.343)"/>
                <g>
                    <g>
                        <path fill="#FFF" fill-opacity=".08" fill-rule="nonzero" d="M0.223 145.647L122.885 145.647 122.885 150.078 0.223 150.078z" transform="translate(10.225 6.343) translate(50.898)"/>
                        <path fill="#4285F4" fill-rule="nonzero" d="M35.193.435c31.188 0 37.367 13.21 57.964 13.21 10.495 0 18.103 2.85 23.578 6.626l-.001 125.375H6L5.998 9.057C13.4 3.987 23.194.435 35.193.435z" transform="translate(10.225 6.343) translate(50.898)"/>
                        <path fill="#000" d="M24.167 61.94H97.99v71.337H24.167V61.94zm5.768 8.055v54.077h61.422V69.995H29.935z" opacity=".105" transform="translate(10.225 6.343) translate(50.898)"/>
                        <path fill="#FFF" fill-opacity=".165" d="M31.953 71.145v51.202H30.8V71.145h1.153zm57.967 0v1.15H31.985v-1.15H89.92z" transform="translate(10.225 6.343) translate(50.898)"/>
                        <path fill="#000" d="M23.777 9.108h49.325c6.97 2.913 12.967 4.411 17.99 4.493 3.534.058 6.28.198 8.238.42v38.81H23.777V9.108zM30 15.312v31.353h64.018V15.312H30z" opacity=".105" transform="translate(10.225 6.343) translate(50.898)"/>
                    </g>
                    <g>
                        <path fill="#FFF" fill-opacity=".165" d="M20.186 1.438H21.339V29.627H20.186z" transform="translate(10.225 6.343) translate(50.898) translate(10.614 15.365)"/>
                        <g transform="translate(10.225 6.343) translate(50.898) translate(10.614 15.365)">
                            <use fill="#000" filter="url(#zzz7savf9a)" xlink:href="#5f2vlykutb"/>
                            <use fill="#D8D8D8" xlink:href="#5f2vlykutb"/>
                        </g>
                        <g transform="translate(10.225 6.343) translate(50.898) translate(10.614 15.365)">
                            <use fill="#000" filter="url(#zipbqvvxfc)" xlink:href="#23tdsejw2d"/>
                            <use fill="#EDEDED" xlink:href="#23tdsejw2d"/>
                        </g>
                        <path fill="#000" fill-opacity=".159" d="M3.749 24.232c.796 0 1.442.644 1.442 1.439 0 .556-.317 1.039-.781 1.278l.204 3.036h-1.73l.204-3.036c-.464-.24-.781-.722-.781-1.278 0-.795.645-1.439 1.442-1.439z" transform="translate(10.225 6.343) translate(50.898) translate(10.614 15.365)"/>
                    </g>
                </g>
                <g fill-rule="nonzero">
                    <g fill="#4285F4" fill-opacity=".12">
                        <path d="M4.007 11.546L9.332 11.546M4.453 12.878L9.778 12.878M4.898 14.21L10.223 14.21M5.343 15.542L10.668 15.542M6.234 16.875L11.559 16.875M6.679 18.207L12.004 18.207M7.124 19.539L12.449 19.539M7.569 20.871L12.894 20.871M8.46 22.204L13.785 22.204M8.905 23.536L14.23 23.536M8.889 24.902L13.485 24.902M.155.794L5.48.794M.6 2.126L5.925 2.126M1.046 3.458L6.371 3.458M1.491 4.79L6.816 4.79M2.226 6.151L7.551 6.151M2.672 7.484L7.997 7.484M3.117 8.816L8.442 8.816M3.562 10.148L8.887 10.148" transform="translate(10.225 6.343) translate(45.33 149.192) translate(119.412 .799)"/>
                    </g>
                    <path fill="#FB594C" d="M119.556 1.043l9.494 24.568-1.82.266c-21.844 3.125-44.214 3.93-57.28 3.93l-1.758-.003c-18.687-.07-44.46-1.324-65.292-8.074L13.7 1.043h105.855z" transform="translate(10.225 6.343) translate(45.33 149.192)"/>
                    <path fill="#000" fill-opacity=".1" d="M119.556 1.043L120.147 2.574 12.902 2.574 13.701 1.043zM121.519 6.127L123.063 10.123 8.96 10.123 11.047 6.127zM124.608 14.12L126.152 18.116 4.786 18.116 6.873 14.12zM127.697 22.113L129.241 26.11.612 26.11 2.699 22.113z" transform="translate(10.225 6.343) translate(45.33 149.192)"/>
                </g>
                <g>
                    <path fill="#000" fill-opacity=".043" d="M25.634 76.793h5.08l.917-4.314-1.31-.262 2.49-20.2 1.114-.261.196-2.811-2.49-.458s-5.109.735-5.109 1.193c0 .458-.888 27.113-.888 27.113z" transform="translate(10.225 6.343) translate(180.148 74.697)"/>
                    <path fill="#000" fill-opacity=".08" fill-rule="nonzero" d="M15.356 5.209c1.884 2.32 3.126 4.784 3.596 6.865v-.98s.142-9.325.83-9.325c.657 0 .815 8.55.827 9.277v1.57c.436-2.183 1.79-4.847 3.883-7.336C28.279.78 35.16.318 35.16.318s.74 6.839-3.047 11.34c-3.787 4.502-8.564 6.724-10.668 4.962-.404-.337-.68-.797-.835-1.35v11.548c.428-2.25 1.975-5.07 4.377-7.637 4.018-4.298 10.913-4.398 10.913-4.398s.007.126.01.355v.19c-.007 1.709-.31 7.05-3.647 10.62-4.019 4.298-8.905 6.267-10.914 4.398-.363-.337-.608-.777-.74-1.296v12.14c.429-2.252 1.976-5.07 4.378-7.638 3.882-4.152 10.45-4.387 10.89-4.398h.023s.007.126.01.355v.19c-.007 1.709-.31 7.05-3.647 10.62-4.019 4.298-8.905 6.267-10.914 4.398-.363-.337-.608-.777-.74-1.296l.001 5.813h-1.658v-5.106c-.124.22-.278.418-.462.59-2.01 1.868-6.895-.101-10.914-4.399-3.337-3.57-3.64-8.911-3.647-10.62v-.19c.002-.229.01-.355.01-.355h.023c.44.011 7.008.246 10.89 4.398 2.03 2.172 3.451 4.523 4.1 6.558V29.054c-.132.517-.376.955-.738 1.292-2.01 1.869-6.896-.1-10.914-4.398-3.27-3.497-3.627-8.694-3.647-10.51v-.381c.004-.178.009-.274.009-.274s6.896.1 10.914 4.398c2.4 2.566 3.947 5.382 4.376 7.632V15.248c-.17.509-.447.932-.835 1.245-2.135 1.724-6.832-.532-10.492-5.04C4.337 7.404 4.728 1.524 4.842.37l.011-.11.01-.09S11.698.7 15.357 5.209z" transform="translate(10.225 6.343) translate(180.148 74.697)"/>
                    <path fill="#825F5F" fill-rule="nonzero" d="M4.267 49.234L29.528 49.234 26.414 75.87 7.381 75.87z" transform="translate(10.225 6.343) translate(180.148 74.697)"/>
                    <path fill="#000" fill-opacity=".08" fill-rule="nonzero" d="M29.528 49.234L26.559 74.619 18.043 74.62 20.474 49.234z" transform="translate(10.225 6.343) translate(180.148 74.697)"/>
                    <path fill="#6E5050" d="M4.959 73.449L28.144 73.449 27.798 77.254 5.305 77.254z" transform="translate(10.225 6.343) translate(180.148 74.697)"/>
                    <g fill-rule="nonzero">
                        <path fill="#825F5F" d="M16.068 11.095s.142-9.326.83-9.326c.687 0 .829 9.326.829 9.326v38.14h-1.659v-38.14z" transform="translate(10.225 6.343) translate(180.148 74.697)"/>
                        <path fill="#58A509" d="M33.017 29.154s.007.126.009.355v.19c-.007 1.709-.31 7.05-3.647 10.62-4.019 4.298-8.905 6.267-10.914 4.398-2.01-1.868-.38-6.867 3.638-11.165 3.882-4.152 10.45-4.387 10.89-4.398zm-21.048 4.398c4.018 4.298 5.647 9.297 3.637 11.165-2.009 1.87-6.895-.1-10.914-4.398-3.337-3.57-3.64-8.911-3.647-10.62v-.19c.003-.229.01-.355.01-.355h.023c.44.011 7.008.246 10.89 4.398zM.779 14.782s6.895.101 10.913 4.399c4.019 4.298 5.647 9.296 3.638 11.165-2.01 1.869-6.895-.1-10.914-4.398C1.146 22.45.79 17.254.77 15.438v-.3c.001-.23.008-.355.008-.355zm32.238 0s.007.127.009.356v.19c-.007 1.709-.31 7.05-3.647 10.62-4.019 4.298-8.905 6.267-10.914 4.398-2.01-1.869-.38-6.867 3.638-11.165 4.018-4.298 10.914-4.398 10.914-4.398zM32.277.319s.74 6.839-3.048 11.34c-3.787 4.502-8.564 6.724-10.668 4.962-2.105-1.76-.74-6.838 3.047-11.34C25.395.78 32.276.318 32.276.318zM12.472 5.21c3.66 4.508 4.896 9.56 2.76 11.284-2.134 1.724-6.832-.532-10.492-5.04C1.453 7.404 1.844 1.524 1.958.37l.011-.11.011-.09S8.813.7 12.473 5.209z" transform="translate(10.225 6.343) translate(180.148 74.697)"/>
                    </g>
                    <path fill="#6E5050" d="M3.229 48.542L30.566 48.542 30.566 51.656 3.229 51.656z" transform="translate(10.225 6.343) translate(180.148 74.697)"/>
                </g>
                <g>
                    <path fill="#000" fill-opacity=".08" d="M32.626 77.858l.446.001c12.749.052 23.01 2.32 23.01 5.11 0 .87-.998 1.69-2.759 2.407l.649.091c3.927.583 6.506 1.566 6.506 2.68 0 1.79-6.66 3.24-14.875 3.24-6.356 0-20.637-2.379-26.776-4.285l-.72-.12c-5.443-.935-8.937-2.385-8.937-4.013 0-2.823 10.502-5.11 23.456-5.11z" transform="translate(10.225 6.343) translate(84.61 84.497)"/>
                    <path fill="#F9C93B" d="M26.148 3.62c7.926 0 14.352 7.502 14.352 16.756 0 4.688-1.193 9.258-3.401 12.627-.275 1.403-.58 2.69-.894 3.53l-.078.2c-.343.83.748 9.664 6.256 22.504 2.255 3.003 3.59 6.731 3.59 10.771 0 9.933-8.073 17.985-18.032 17.985S9.908 79.941 9.908 70.008c0-3.925 1.262-7.557 3.402-10.515l.236-.743c2.991-9.598 4.648-21.275 4.341-22.017-.358-.87-.728-2.34-1.065-3.934-3.006-3.348-5.026-7.829-5.026-12.423 0-9.254 6.425-16.756 14.352-16.756z" transform="translate(10.225 6.343) translate(84.61 84.497)"/>
                    <path fill="#FB594C" fill-rule="nonzero" d="M15.52 34.964c0-1.107.893-1.858 1.971-1.696 0 0 4.618.843 9.84.843 5.223 0 9.333-.821 9.333-.821 1.09-.182 1.974.572 1.974 1.674v1.457c0 1.107-.885 2.164-1.98 2.343 0 0-3.88.812-9.327.812s-9.85-.836-9.85-.836c-1.083-.174-1.96-1.217-1.96-2.319v-1.457z" transform="translate(10.225 6.343) translate(84.61 84.497)"/>
                    <path fill="#59361C" d="M28.47 84.902s7.394 3.422 11.687 3.422c4.293 0 7.447-.606 7.447-2.668 0-2.062-3.851-1.779-7.447-2.062-3.596-.283-8.605-3.558-10.551-2.466-1.946 1.092-1.135 3.774-1.135 3.774z" transform="translate(10.225 6.343) translate(84.61 84.497)"/>
                    <path fill="#59361C" d="M33.493 7.396S35.16 2.05 37.13 1.892c1.97-.158 12.993 4.82 12.992 8.476 0 3.656-1.793 12.51-5.733 13.287-2.674.528-5.807-7.825-7.262-11.224-.69-1.61-2.356-1.148-2.885-1.765-1.65-1.919-.749-3.27-.749-3.27z" transform="translate(10.225 6.343) translate(84.61 84.497) rotate(5 41.685 12.783)"/>
                    <path fill="#59361C" d="M2.383 7.397S4.05 2.05 6.02 1.892c1.97-.158 12.992 4.82 12.99 8.475 0 3.656-1.795 12.51-5.735 13.288-2.673.528-5.805-7.824-7.26-11.223-.688-1.61-2.355-1.148-2.885-1.765-1.648-1.918-.747-3.27-.747-3.27z" transform="translate(10.225 6.343) translate(84.61 84.497) scale(-1 1) rotate(8 0 -138.43)"/>
                </g>
            </g>
        </g>
    </g>
</svg>
