<svg xmlns="http://www.w3.org/2000/svg" width="264" height="192" viewBox="0 0 264 192">
    <g fill="none" fill-rule="evenodd">
        <path fill="#FFF" fill-opacity=".12" fill-rule="nonzero" d="M60.423 188.456c-30.225-9.441-45.337-26.96-45.337-52.554 0-38.391 24.36-57.503 49.823-57.503s63.471 6.037 63.471-28.185c0-34.221 46.895-58.998 80.007-46.793 33.111 12.205 44.643 68.929 15.799 80.5-28.844 11.572 22.213 56.127-15.8 86.72-25.341 20.395-74.662 26.334-147.963 17.815z"/>
        <g>
            <g>
                <g>
                    <path fill="#BB7750" d="M16.312.056h24.955c-3.788 12.599-3.003 19.672 2.356 21.218 5.358 1.547 4.573 15.86-2.356 42.938H.287l6.626-41.84c1.777-.594-.002 1.504 6.657-1.78 4.44-2.19 5.354-9.035 2.742-20.536z" transform="translate(51.235 .514) matrix(-1 0 0 1 69.414 13.585) translate(0 42.47)"/>
                    <path fill="#784931" d="M34.554.056h1.445c-1.576 7.575-4.656 12.487-9.238 14.736-2.61 1.281-5.879 1.858-9.803 1.73.702-1.98.945-4.566.728-7.76L34.554.057z" transform="translate(51.235 .514) matrix(-1 0 0 1 69.414 13.585) translate(0 42.47)"/>
                </g>
                <path fill="#BB7750" d="M1.362.263h45.416c2.814 1.03 4.89 5.43 6.227 13.2 1.331 7.733-1.058 14.278-7.167 19.635-1.709 1.498-2.856 3.533-3.251 5.77-1.127 6.367-2.85 10.518-5.168 12.455-4.104 3.428-17.195 6.274-23.784 3.137-6.59-3.137-12.273-9.024-12.273-15.095 0-6.071-1.131-30.035 0-39.102z" transform="translate(51.235 .514) matrix(-1 0 0 1 69.414 13.585)"/>
                <path stroke="#784931" stroke-linecap="round" stroke-width="1.316" d="M16.648 25.696c-1.418 2.903-3.5 5.977-2.781 7.92.479 1.294 1.84 1.775 4.08 1.442" transform="translate(51.235 .514) matrix(-1 0 0 1 69.414 13.585)"/>
                <path fill="#000" d="M26.536 28.258c1.024 0 1.854-.954 1.854-2.13s-.83-2.13-1.854-2.13c-1.023 0-1.853.954-1.853 2.13s.83 2.13 1.853 2.13z" transform="translate(51.235 .514) matrix(-1 0 0 1 69.414 13.585)"/>
                <path stroke="#59361C" stroke-linecap="round" stroke-width="1.316" d="M23.553 20.567c1.006-.636 2.188-.954 3.545-.954 1.358 0 2.54.318 3.545.954" transform="translate(51.235 .514) matrix(-1 0 0 1 69.414 13.585)"/>
                <path stroke="#784931" stroke-linecap="round" stroke-width="1.316" d="M11.817 41.172c1.197 2.44 3.041 3.66 5.534 3.66 2.492 0 4.592-1.045 6.3-3.134" transform="translate(51.235 .514) matrix(-1 0 0 1 69.414 13.585)"/>
                <path fill="#000" d="M7.328 28.258c1.024 0 1.854-.954 1.854-2.13s-.83-2.13-1.854-2.13c-1.023 0-1.853.954-1.853 2.13s.83 2.13 1.853 2.13z" transform="translate(51.235 .514) matrix(-1 0 0 1 69.414 13.585)"/>
                <path stroke="#59361C" stroke-linecap="round" stroke-width="1.316" d="M4.058 20.567c.655-.636 1.66-.954 3.018-.954 1.357 0 2.364.318 3.018.954" transform="translate(51.235 .514) matrix(-1 0 0 1 69.414 13.585)"/>
            </g>
            <g>
                <path fill="#27A9F6" d="M18.547 51.163c6.543.156 15.121-1.14 17.753-4.084 5.822-6.511 6.438-8.969 3.251-13.081-1.82-2.026-3.992-4.128-6.508-6.56-4.418-4.276-9.913-9.593-15.438-16.547-5.11-5.474-9-9.116-17.528-10.748C.7.836 2.78 2.086 3.116 2.88 4.739 6.717 15.28 51.085 18.547 51.163z" transform="translate(51.235 .514) translate(58.544 77.28)"/>
                <path fill="#2E82DC" d="M18.623 33.25c.707 4.963 2.41 17.904 1.129 18.545-4.533 2.27-20.243-27.422-17.398-27.349 1.651.043 13.056-13.729 16.269 8.805z" opacity=".3" transform="translate(51.235 .514) translate(58.544 77.28)"/>
            </g>
            <path fill="#59361C" d="M70.852 25.303c0 7.464-.89 11.196-2.672 11.196.068-6.612.016-9.898-.156-9.859-12.179 2.782-21.69 1.727-28.535-3.163-1.6-.056-3.86 1.879-6.783 5.805-3.609 4.848-4.015 7.735-4.351 10.246-.072.54-2.072 5.344-2.072 7.13 0 6.087 3.737 15.148 3.317 15.28-6.951 0-24.197-40.096-6.113-49.792C28.355-.59 49.899-3.364 58.744 4.637c8.845 8 20.591 7.509 12.108 20.666z" transform="translate(51.235 .514)"/>
            <path fill="#BB7750" d="M31.833 39.085l-2.392-1.931c-1.922-1.553-4.74-1.253-6.292.67-1.553 1.922-1.253 4.739.67 6.292l2.391 1.932c1.923 1.552 4.74 1.252 6.293-.67 1.553-1.923 1.253-4.74-.67-6.293z" transform="translate(51.235 .514)"/>
            <path fill="#27A9F6" d="M4.759 98.57C7.18 86 14.448 78.758 26.56 76.843c.274-.043.534.133.596.403C29.8 88.827 37.503 93.965 50.262 92.66c12.932-1.323 14.897-6.62 5.893-15.89 10.012.895 16.168 10.85 18.47 29.864 3.452 28.522.787 24.505 0 43.224-.47 11.172-7.41 24.994-20.818 41.465-6.127.107-15.93-.152-29.41-.777l-9.4-76.97c-9.28 2.732-12.692-2.27-10.238-15.007z" transform="translate(51.235 .514)"/>
            <path fill="#2E82DC" d="M31.325 103.837c4.155 6.667 3.05 17.096 3.05 28.838-4.109 5.057-12.203 6.315-24.281 3.774-.89-.187-1.608-.843-1.874-1.713-3.675-12.01-2.904-20.293 2.312-24.845 8.125-7.091 16.639-12.721 20.793-6.054z" opacity=".3" transform="translate(51.235 .514)"/>
            <path fill="#BB7750" d="M26.017 190.64c-2.687-30.304-4.953-20.216-2.687-31.268 2.265-11.052 5.545-41.712 2.687-54.826 0 0-27.386 9.872-23.556 9.872-1.334 10.836 0 39.891 0 46.259 0 6.534 3.497 18.762 6.12 27.158 0 0 5.132 2.456 17.436 2.806z" transform="translate(51.235 .514)"/>
            <path fill="#27A9F6" d="M9.407 88.133l22.28 7.823v35.975c-5.001 3.646-21.14 5.565-30.987-1.661-1.258-4.603.505-16.611 2.73-28.022 1.485-7.607 3.477-12.312 5.977-14.115z" transform="translate(51.235 .514)"/>
        </g>
        <g>
            <path fill="#000" d="M99.56 5.132c29.381-1.596 25.878 35.293 25.878 103.246 0 44.568-62.717 44.568-62.717 0 0-44.57-1.326-63.404-1.326-78.557C78.16 13.833 90.881 5.604 99.561 5.132z" transform="translate(75.633 24.986)"/>
            <g>
                <path fill="#EEAF8B" d="M37.168 25.289c.737-.534 1.955-6.757 3.655-18.669C56.37.333 63.263-1.447 61.505 1.28c-2.639 4.09-3.42 18.017-1.71 19.973 1.71 1.957 6.317 4.036 13.083 4.828L56.151 65.928H30.81c-2.408-4.695-4.444-8.968-6.105-12.818L17.662 68.01.214 65.565C7.36 46.717 14.81 29.688 26.344 27.864c5.534-.876 9.72-1.774 10.824-2.575z" transform="translate(75.633 24.986) translate(41.95 51.887)"/>
                <path fill="#CC8961" d="M39.238 16.904c.3-1.752.623-3.778.97-6.077H51.88c-2.247 3.133-5.614 5.105-10.102 5.917-.861.156-1.708.21-2.541.16z" transform="translate(75.633 24.986) translate(41.95 51.887)"/>
            </g>
            <path fill="#EEAF8B" d="M76.433 11.162c.879-.429 1.778-.811 2.697-1.147 10.923-3.992 23.014 1.627 27.006 12.55.655 1.792 1.063 3.665 1.213 5.568.47 5.926.703 10.051.703 12.377 0 6.184-5.673 21.178-16.733 24.464-11.06 3.287-26.06-1.094-26.06-19.51 0-18.414-.996-28.367 11.174-34.302z" transform="translate(75.633 24.986)"/>
            <g>
                <path fill="#8A1123" d="M6.816 6.058c5.054 0 6.56-4.596 6.56-5.738 0-.564-3.17.857-6.56.877C3.426 1.218.126-.244.126.32c0 1.142 1.636 5.738 6.69 5.738z" transform="translate(75.633 24.986) translate(72.974 51.65)"/>
                <path fill="#FA4863" d="M3.716 5.362c.897-.696 2.239-1.352 4.135-1.723 1.55-.303 2.794-.054 3.725.461-1.024 1.082-2.554 1.958-4.76 1.958-1.226 0-2.25-.27-3.1-.696z" transform="translate(75.633 24.986) translate(72.974 51.65)"/>
                <path fill="#FFF" d="M1.162.314c1.24.271 3.428.897 5.654.883 2.401-.014 4.69-.731 5.823-.948C12.214 1.37 8.864 2.1 6.252 2.1c-2.118 0-4.204-.836-5.09-1.786z" transform="translate(75.633 24.986) translate(72.974 51.65)"/>
            </g>
            <path fill="#000" d="M70.774 6.97c7.42-6.236 22.505-10.412 32.935-1.887 9.354 1.262 15.347 7.015 17.98 17.26 5.984 23.281-22.08 42.568-18.459 33.442 3.62-9.126 1.075-7.765-.96-19.65-1.356-7.925-1.036-14.011.96-18.26-14.095 9.288-28.04 13.332-41.833 12.13 0-7.413 1.956-16.8 9.377-23.035z" transform="translate(75.633 24.986)"/>
            <path fill="#FA4863" d="M56.437 167.012c-15.418-4.012 4.874-40.337 4.874-47.85-22.173-9.764 8.417-36.262 11.064-40.024l2.076-.452c-6.026 8.103-19.924 23.108-2.076 23.108 19.429 0 23.442-35.298 46.996-21.844 10.804 6.172-6.149 44.598-7.252 64.875-.149 2.74.71 6.703 1.558 11.43.275 1.535-11.801 5.094-26.03 7.602-6.847 1.207-14.122 1.968-20.89 2.525l-10.32.63z" transform="translate(75.633 24.986)"/>
            <path fill="#8A1123" fill-opacity=".283" d="M62.525 119.898c2.507 5.277 3.788 8.27 3.846 8.98.715 8.8.178 12.922 1.163 15.253 1.104 2.613 7.7 9.202 19.786 19.767l-5.18.888-22.811-7.428 2.066-32.33 1.13-5.13z" transform="translate(75.633 24.986)"/>
            <g>
                <path fill="#59361C" d="M27.757 11.55S25.93 3.78 21.584 3.15C16.83 2.462 6.376 8.571 8.039 17.803c1.321 7.336 7.077 7.688 8.757 6.382 2.875-2.236 8.139-9.013 8.139-9.013l2.822-3.623z" transform="translate(75.633 24.986) translate(0 91)"/>
                <path fill="#F9C93B" d="M36.13 8.575c20.303 0 24.027 13.31 24.441 19.686l.038.696c.237 5.15-.236 13.792 2.985 19.576.137.245.202.507.2.782.152.025.25.066.29.123l1.065 1.559c2.924 4.228 8.7 12.008 18.371 19.14l3.8 2.761-.021.015c-16.303 2.783-35.797 3.766-58.482 2.947.221-3.635.21-6.934-.033-9.9-.148-.146-.225-.326-.225-.543 0-5.705-3.749-9.668-8.017-10.843-4.942-1.36-4.572-17.373-4.462-20.307l.02-.46S13.014 8.575 36.13 8.575z" transform="translate(75.633 24.986) translate(0 91)"/>
                <g>
                    <path fill="#FFE398" d="M4.026 14.13C-.151 7.915-.096 4.893 2.37 2.48 3.97.917 7.383.925 11.927.99c7.443.104 16.826 1.214 19.66 3.302 5.117 3.77 5.33 9.899.925 13.664-2.996 2.562-7.22 4.263-11.231 4.263-5.433-1.72-13.328-2.242-17.255-8.088z" transform="translate(75.633 24.986) translate(0 91) translate(.004 32.578)"/>
                    <path fill="#59361C" d="M12.628 3.356c1.183 2.944-.716 7.569-4.768 8.994-1.143.403-3.251.851-4.754.351C-.156 7.377-.091 4.305 2.18 2.084c.565-.552 1.38-.859 2.399-1.022l1.07-.087c2.506-.189 5.923-.244 6.979 2.38z" transform="translate(75.633 24.986) translate(0 91) translate(.004 32.578)"/>
                    <path fill="#3C1A00" d="M25.486 11.858c2.113-.81 3.792-.15 4.736 1.993.17.387.033.801-.261.936-.295.134-.647.004-.835-.38-.164-.334-.36-.614-.588-.84-1.659 4.08-5.31 7.135-9.744 7.963-.82-.206-1.668-.408-2.529-.62 4.829-.546 8.864-3.712 10.65-8.042-.347-.018-.721.025-1.119.128-.353.092-.653-.099-.72-.39-.065-.293.065-.616.41-.748z" transform="translate(75.633 24.986) translate(0 91) translate(.004 32.578)"/>
                </g>
                <path fill="#000" d="M19.263 32.479c1.063-.018 1.906-1.07 1.883-2.35-.023-1.28-.902-2.302-1.965-2.283-1.062.018-1.905 1.07-1.883 2.35.023 1.279.903 2.301 1.965 2.283zM34.942 32.479c1.18-.02 2.12-1.074 2.097-2.353-.023-1.28-.998-2.3-2.179-2.28-1.18.02-2.12 1.073-2.096 2.353.022 1.28.998 2.3 2.178 2.28z" transform="translate(75.633 24.986) translate(0 91)"/>
                <path fill="#59361C" d="M42.59 13.568c3.848-4.794 6.759-8.105 8.732-9.932 1.363-1.262 3.15-2.96 6.342-3.18C62.28.14 74.237 8.944 73.384 19.71c-.29 3.664-4.608 11.39-12.168 9.41-5.814-1.524-6.293-14.672-9.264-15.933-2.476-1.05-5.21 2.759-6.765 3.224-.328.098-1.377.396-2.334-.381-.75-.609-.867-1.708-.262-2.461z" transform="translate(75.633 24.986) translate(0 91)"/>
                <path fill="#FB594C" fill-rule="nonzero" d="M29.362 72.275c.148.003.28.008.393.015 15.062.937 30.572-4.842 37.93-17.331.112-.192.258-.489.435-.89.222-.502.161-1.082-.158-1.527l-3.882-5.398c-.249-.346-.732-.425-1.078-.176-.08.058-.148.13-.2.213l-.103.16C55.067 58.9 42.544 64.38 28.797 63.038c-.675-.066-1.277.428-1.343 1.104-.006.065-.007.13-.003.195l.4 6.488c.05.802.707 1.433 1.511 1.449z" transform="translate(75.633 24.986) translate(0 91)"/>
            </g>
            <path fill="#EEAF8B" d="M118.166 78.387c6.905 2.837 6.517 13.72 5.061 19.229-2.71 10.256-14.637 30.095-22.281 39.818l-.468.593c-1.917 2.488-12.49 17.327-13.066 17.828l-.392.324c-1.972 1.584-8.506 6.02-16.202 9.542l-.968.454c-8.603.707-14.098.986-16.483.839l3.96-4.65c4.117-6.78 17.982-19.547 19.979-21.092 2.734-2.115 9.795-26.979 14.492-40.762l.432-1.258.572-1.625c4.64-12.977 10.942-25.165 25.364-19.24z" transform="translate(75.633 24.986)"/>
            <g stroke="#000" stroke-linecap="round" stroke-width="1.053">
                <path d="M.414.91C1.169.55 2.1.37 3.207.37 4.314.37 5.245.55 6 .91M19.487.91c.756-.36 1.687-.54 2.794-.54 1.106 0 2.037.18 2.793.54" transform="translate(75.633 24.986) translate(67.53 32.014)"/>
            </g>
            <g transform="translate(75.633 24.986) translate(65.71 35.635)">
                <path stroke="#CC8961" stroke-linecap="round" stroke-width="1.316" d="M13.466 3.804c-1.898 2.694-2.848 4.746-2.85 6.155-.001 2.113 2.357 1.69 3.753 1.688"/>
                <ellipse cx="4.916" cy="2.055" fill="#000" rx="2.002" ry="1.997"/>
                <ellipse cx="24.016" cy="2.055" fill="#000" rx="2.002" ry="1.997"/>
                <path fill="#EF9D84" d="M26.58 5.839h2.117c.87 0 1.576.706 1.576 1.576 0 .87-.706 1.577-1.576 1.577H26.58c-.871 0-1.577-.706-1.577-1.577 0-.87.706-1.576 1.577-1.576zM1.816 5.839h2.116c.871 0 1.577.706 1.577 1.576 0 .87-.706 1.577-1.577 1.577H1.816C.946 8.992.24 8.286.24 7.415c0-.87.706-1.576 1.576-1.576z"/>
            </g>
        </g>
    </g>
</svg>
