<svg xmlns="http://www.w3.org/2000/svg" width="264" height="192" viewBox="0 0 264 192">
    <g fill="none" fill-rule="evenodd">
        <path fill="#FFF" fill-opacity=".12" fill-rule="nonzero" d="M42.34 190.357c-44.704-2.364-40.358-54.003-23.126-71.376 18.535-18.687 25.38-9.954 27.694-35.477 2.203-24.29 44.383-52.097 83.507-53.459 51.388-1.789 67 49.758 76.259 63.224 12.42 18.064 58.312 12.664 50.42 65.693-4.88 32.788-50.11 32.97-50.11 32.97S82.85 192.5 42.34 190.357z"/>
        <path fill="#E5B011" d="M153.194 185.293h-52.182v-13.217h51.084z"/>
        <g transform="translate(71 3)">
            <path fill="#F9C93B" d="M19.21 45.345c3.193 13.137 5.403 23.043 6.629 29.718 1.225 6.675 19.017 6.675 53.374 0 2.967-13.313 4.988-22.555 6.062-27.726 1.075-5.172-20.947-5.836-66.065-1.992z"/>
            <circle cx="52.5" cy="36.5" r="34.5" fill="#F9C93B"/>
            <path fill="#59361C" d="M36.33 30c1.287 0 2.331 1.192 2.331 2.66 0 1.468-1.044 2.66-2.33 2.66-1.287 0-2.331-1.192-2.331-2.66 0-1.468 1.044-2.66 2.33-2.66zM68.33 30c1.287 0 2.331 1.192 2.331 2.66 0 1.468-1.044 2.66-2.33 2.66-1.287 0-2.331-1.192-2.331-2.66 0-1.468 1.044-2.66 2.33-2.66z"/>
            <ellipse cx="53" cy="53.5" fill="#FDE399" rx="24" ry="16.5"/>
            <path fill="#59361C" d="M43.386 49.434a4.514 4.514 0 0 1 .332-4.27 4.504 4.504 0 0 1 3.747-2.066c3.155-.033 8.092-.068 11.39-.098a4.37 4.37 0 0 1 3.854 2.239 4.38 4.38 0 0 1-.11 4.46c-1.995 3.197-5.107 6.303-9.647 6.185-4.626-.121-8.174-3.299-9.566-6.45zM26.103 3.744C24.365 2.322 22.27.302 18.455.01 13.46-.374-1.172 10.673.075 23.744.5 28.194 5.825 37.496 14.82 34.93c6.916-1.974 7.21-17.968 10.733-19.563 2.937-1.33 3.286 3.245 5.155 3.779.393.112 1.653.453 2.78-.512.833-.713 1.036-1.634.925-2.184-.074-.11-4.001-9.182-8.309-12.706zM75.337 3.744C77.075 2.322 79.17.302 82.985.01c4.996-.384 19.627 10.663 18.38 23.734-.425 4.45-5.75 13.752-14.744 11.186-6.916-1.974-7.21-17.968-10.733-19.563-2.937-1.33-3.286 3.245-5.155 3.779-.393.112-1.653.453-2.78-.512-.833-.713-1.036-1.634-.925-2.184.074-.11 4.001-9.182 8.309-12.706z"/>
            <path stroke="#59361C" stroke-linecap="round" stroke-linejoin="round" stroke-width="2" d="M49 62c3.895 1.333 7.702.833 11.421-1.5"/>
        </g>
        <path fill="#59361C" d="M164.48 160.974c12.25-4.938 20.263-11.86 24.039-20.765a2.49 2.49 0 0 1 4.583 1.914l-.274.812c-3.87 11.011-10.9 19.56-21.09 25.645l-7.257-7.606z"/>
        <path fill="#F9C93B" d="M153.324 185.5H176a5 5 0 0 0 5-5v-.212c0-3.32-1.398-6.486-3.851-8.723l-8.398-7.657c5.142-5.607 7.465-14.815 6.972-27.623-.494-12.808-9.819-30.57-27.975-53.285L100 85c-15.667 22.065-23 39.16-22 51.285 1 12.126 4 19.864 9 23.215l-7.359 8.525a17.044 17.044 0 0 0-4.141 11.137v1.338a5 5 0 0 0 5 5h20.541a6 6 0 0 0 5.745-4.27l2.077-6.894c4.529 7.11 10.733 10.664 18.612 10.664 7.88 0 14.364-3.555 19.455-10.664l.41 5.603a6 6 0 0 0 5.984 5.561z"/>
        <path fill="#E5B011" fill-rule="nonzero" d="M112.872 152.682c-14.757-1.135-24.133-3.223-28.468-6.552-.225-.177-.225-.177-.58-.622-.445-.786-.445-.786-.248-2.294.756-1.133.756-1.133 1.382-1.414.432-.145.432-.145.671-.178.302-.038.527-.027.837.008.313.036.749.108 1.34.22 1.099.21 2.785.568 5.07 1.077 4.537 1.01 11.457 2.62 20.766 4.83 2.999.713 2.304 5.162-.77 4.925z"/>
        <path fill="#FF4F41" fill-rule="nonzero" d="M126.494 164.185l-2.127-1.926C109.69 149.026 100 140.298 100 129.586c0-8.728 6.897-15.586 15.675-15.586 4.959 0 9.719 2.295 12.825 5.923 3.106-3.628 7.866-5.923 12.825-5.923 8.778 0 15.675 6.858 15.675 15.586 0 10.712-9.69 19.44-24.367 32.702l-2.12 1.904a3 3 0 0 1-4.019-.007z"/>
        <path fill="#F9C93B" fill-rule="nonzero" d="M160.871 127.145c1.946-3.967 4.739-5.606 8.706-3.66a8 8 0 0 1 3.66 10.705c-4.821 9.828-15.493 13.462-35.71 13.2a8 8 0 1 1 .208-16c7.944.104 14.077-.495 18.286-1.702 3.093-.887 4.513-1.857 4.85-2.543zM94.034 127.503c2.356 2.361 10.121 4.053 22.858 3.888a8 8 0 1 1 .207 15.999c-16.75.217-28.068-2.249-34.391-8.585a8 8 0 1 1 11.326-11.302z"/>
        <path fill="#E5B011" fill-rule="nonzero" d="M150.289 151.954a2.5 2.5 0 1 1-.817-4.933c9.333-1.545 16-3.533 19.929-5.881a2.5 2.5 0 0 1 2.565 4.292c-4.578 2.736-11.78 4.883-21.677 6.522z"/>
        <path fill="#FF4F41" fill-rule="nonzero" d="M98.375 77.456A198.44 198.44 0 0 0 123.228 79c8.526 0 17.334-.53 26.425-1.588a3 3 0 0 1 3.347 2.98v4.955a3 3 0 0 1-2.647 2.98C140.923 89.441 131.997 90 123.577 90c-8.382 0-17.031-.553-25.946-1.659A3 3 0 0 1 95 85.364v-4.932a3 3 0 0 1 3.375-2.976z"/>
    </g>
</svg>
