<svg xmlns="http://www.w3.org/2000/svg" width="264" height="192" viewBox="0 0 264 192">
    <g fill="none" fill-rule="evenodd">
        <g>
            <path fill="#FFF" fill-opacity=".12" fill-rule="nonzero" d="M26.045 139.328c-7.72-70.084 61.594-20.486 69.638-81.993C103.726-4.17 184.645-7.303 214.77 35.847c30.126 43.15 22.233 72.372-4.076 82.995-26.31 10.623 15.985 39.266-6.801 58.018-21.465 17.663-170.129 32.552-177.849-37.532z"/>
            <g>
                <path fill="#F9C93B" d="M76.134 65.58c3.464 3.643 19.279 12.267 24.931 14.751-16.386 15.763-36.35 29.908-59.894 42.433-2.368-5.273-5.487-25.58-6.08-40.532-.232-5.864 13.45-11.415 41.043-16.652z" transform="scale(-1 1) rotate(38 -160.52 -159.917)"/>
                <g>
                    <path fill="#F9C93B" d="M19.233 43.928S15.012 15.295 42.53 14.626c26.854-.653 29.063 22.514 29.412 30.027.35 7.513-1.85 14.217 4.077 20.453l-41.764 17.76c-.51-2.984-1.486-6.072-4.102-10.362-8.385-13.754-10.92-28.576-10.92-28.576z" transform="scale(-1 1) rotate(38 -160.52 -159.917) translate(.115 .474)"/>
                    <path fill="#59361C" d="M27.678 19.268s-3.808-9.238-6.99-10.01C15.259 7.944 2.934 15.332 4.673 26.23c1.382 8.662 8.052 9.19 10.027 7.689 3.384-2.573 5.536-12.914 6.863-12.766 1.327.15 2.767 2.321 2.767 2.321l3.349-4.206z" transform="scale(-1 1) rotate(38 -160.52 -159.917) translate(.115 .474)"/>
                    <path fill="#E6B200" d="M71.35 18.622c-5.098 1.26-11.016-2.771-11.306-.593-1.015 7.619-6.256 13.757-15.722 18.415-12.173 5.99-15.844 2.015-11.014-11.927 8.964-5.979 15.873-10.19 20.726-12.636 7.28-3.668 22.415 5.48 17.316 6.74z" transform="scale(-1 1) rotate(38 -160.52 -159.917) translate(.115 .474) rotate(49 51.814 25.082)"/>
                    <path fill="#000" d="M22.404 37.254c1.248 0 2.262 1.154 2.262 2.575 0 1.421-1.014 2.575-2.262 2.575-1.249 0-2.262-1.154-2.262-2.575 0-1.42 1.013-2.575 2.262-2.575zM40.197 37.254c1.248 0 2.262 1.154 2.262 2.575 0 1.421-1.014 2.575-2.262 2.575-1.249 0-2.262-1.154-2.262-2.575 0-1.42 1.013-2.575 2.262-2.575z" transform="scale(-1 1) rotate(38 -160.52 -159.917) translate(.115 .474)"/>
                    <path fill="#FDE399" d="M17.34 43.057s15.044-.239 19.802 4.787c4.758 5.026 5.127 13.058.501 18.132-4.555 4.998-8.72 8.774-16.372 7.108-8.262-1.798 3.153-9.476-1.12-9.227-2.485.145-8.801-1.53-10.674-2.522-6.216-3.298-8.092-8.865-8.58-12.91-.154-1.264.234-2.534 1.07-3.498.835-.964 2.04-1.532 3.317-1.564 4.87-.125 12.056-.306 12.056-.306z" transform="scale(-1 1) rotate(38 -160.52 -159.917) translate(.115 .474)"/>
                    <g>
                        <path fill="#381400" d="M1.804 7.961c.054-.49.405-.898.884-1.026 2.455-.672 9.73-2.886 12.428-6.167 3.129-3.807 1.5 10.5-7.572 12.91S-.2 12.618.846 11.075c.616-.908.86-2.258.958-3.114z" transform="scale(-1 1) rotate(38 -160.52 -159.917) translate(.115 .474) translate(20.307 56.357)"/>
                        <path fill="#FF4F41" fill-rule="nonzero" d="M13.659 9.265c-1.447 1.988-3.463 3.709-6.115 4.413-.923.246-1.74.43-2.458.562-.438-2.126 1.264-4.442 3.96-5.287 1.678-.526 3.368-.365 4.613.312z" transform="scale(-1 1) rotate(38 -160.52 -159.917) translate(.115 .474) translate(20.307 56.357)"/>
                    </g>
                    <path fill="#59361C" d="M3.282 50.305c-.954-1.354-1.073-3.123-.307-4.59.765-1.468 2.287-2.389 3.946-2.389h6.092c1.623 0 3.103.926 3.808 2.383.705 1.457.51 3.187-.5 4.452l-1.296 1.622c-1.34 1.678-3.396 2.627-5.547 2.563-2.152-.064-4.146-1.135-5.383-2.889l-.813-1.152zM50.769 21.64c.072-.106 6.796-8.887 10.978-12.299 1.686-1.376 3.722-3.332 7.423-3.615 4.85-.37 19.053 10.324 17.842 22.977C86.6 33.01 81.431 42.016 72.7 39.532c-6.713-1.91-6.998-17.394-10.419-18.938-2.85-1.288-6.102 3.14-7.915 3.658-.382.108-1.606.438-2.7-.496-.808-.69-1.005-1.582-.897-2.114v-.002z" transform="scale(-1 1) rotate(38 -160.52 -159.917) translate(.115 .474)"/>
                </g>
                <path fill="#FB594C" fill-rule="nonzero" d="M33.873 89.813l.15.008c17.22 1.074 34.951-5.547 43.362-19.859.109-.184.243-.453.403-.807.317-.698.236-1.513-.21-2.136L73.4 61.2c-.335-.468-.986-.575-1.453-.24-.104.075-.193.168-.263.274C62.96 74.478 48.644 80.759 32.93 79.22c-.773-.076-1.46.49-1.536 1.262-.007.074-.008.149-.004.223l.437 7.096c.068 1.095.95 1.963 2.047 2.011z" transform="scale(-1 1) rotate(38 -160.52 -159.917) scale(-1 1) rotate(49 0 -45.274)"/>
            </g>
            <g fill-rule="nonzero">
                <path fill="#409100" d="M38.413 150.387c.74.665.799 1.803.134 2.542l-4.818 5.35c-.665.74-1.804.8-2.542.134-.74-.665-.799-1.803-.134-2.542l4.818-5.35c.665-.74 1.804-.8 2.542-.134zm119.282-58.338l6.023 6.688c.997 1.109.908 2.816-.2 3.814-1.108.997-2.816.908-3.813-.2l-6.023-6.688c-.997-1.109-.908-2.816.2-3.814 1.108-.997 2.816-.908 3.813.2zM13.44 83.977c1.41.485 2.16 2.02 1.675 3.43-.485 1.411-2.02 2.161-3.431 1.676-3.21-1.103-4.84-.379-6.014 2.615-.545 1.388-2.111 2.072-3.5 1.527-1.388-.545-2.071-2.111-1.527-3.5 2.244-5.718 6.884-7.781 12.797-5.748zM206.262 68.5c.915.388 1.342 1.445.953 2.36l-3.516 8.285c-.389.915-1.446 1.342-2.36.953-.916-.388-1.343-1.445-.954-2.36l3.516-8.285c.389-.915 1.446-1.342 2.36-.953zM11.527 17.255c.285-1.004 1.33-1.587 2.335-1.302l1.165.33.194.062c1.593.56 2.515 2.25 2.097 3.908l-.271 1.08 1.07.304.195.062c1.593.56 2.515 2.249 2.097 3.907l-.34 1.35-.05.165c-.32.913-1.289 1.447-2.245 1.206l-.165-.05c-.912-.32-1.446-1.289-1.206-2.245l.226-.888-1.073-.305-.194-.061c-1.593-.56-2.516-2.25-2.098-3.908l.274-1.08-.709-.2-.163-.055c-.903-.347-1.408-1.332-1.139-2.28zm75.066-3.975l7.227 8.026c.998 1.108.908 2.816-.2 3.813-1.108.998-2.815.909-3.813-.2l-7.227-8.025c-.998-1.108-.908-2.816.2-3.813 1.108-.998 2.815-.909 3.813.2z" transform="translate(35 8)"/>
                <path fill="#0083C2" d="M191.119 135.231l.182.316c.73 1.22 1.118 1.283 2.116.703 1.288-.75 2.941-.314 3.691.975.75 1.288.314 2.941-.974 3.691-3.817 2.222-7.458.993-9.724-3.04-.73-1.3-.268-2.947 1.032-3.677s2.946-.268 3.677 1.032zM37.84 41.001c1.491.026 2.679 1.256 2.653 2.747l-.189 10.798c-.026 1.491-1.255 2.679-2.746 2.653-1.491-.026-2.679-1.256-2.653-2.747l.189-10.798c.026-1.491 1.255-2.679 2.746-2.653zm89.775-28.91c.774-.7 1.97-.64 2.67.134l.813.898.132.155c1.054 1.319.941 3.24-.292 4.425l-.803.772.747.826.132.155c1.054 1.318.941 3.24-.292 4.425l-1.004.964-.13.114c-.754.605-1.86.544-2.542-.167l-.114-.13c-.605-.754-.544-1.86.167-2.542l.662-.635-.748-.827-.132-.155c-1.055-1.318-.942-3.24.292-4.425l.804-.77-.495-.547-.11-.133c-.581-.772-.488-1.875.243-2.536z" transform="translate(35 8)"/>
                <path fill="#9E4BD9" d="M198.721 106.973c.208 1.476-.821 2.842-2.298 3.05l-10.695 1.502c-1.476.208-2.842-.821-3.05-2.298-.207-1.476.822-2.842 2.299-3.05l10.695-1.502c1.476-.208 2.842.821 3.05 2.298zM10.617 56.237c1.47.25 2.458 1.645 2.207 3.115l-.057.36c-.2 1.409.061 1.702 1.202 1.878 1.474.228 2.484 1.607 2.256 3.081-.228 1.474-1.608 2.484-3.081 2.256-4.364-.675-6.42-3.923-5.643-8.483.25-1.47 1.646-2.458 3.116-2.207zm100.919.343l8.889 1.408c.982.155 1.652 1.077 1.496 2.06-.155.981-1.077 1.651-2.06 1.496l-8.888-1.408c-.982-.156-1.652-1.078-1.497-2.06.156-.982 1.078-1.652 2.06-1.496zm50.287-27.649c1.01 1.01 1.053 2.623.126 3.684l-.126.135-.845.846 1.293 1.292c1.78 1.78 1.833 4.632.161 6.476l-.161.17-1.293 1.294 1.04 1.038c1.01 1.011 1.052 2.623.126 3.684l-.127.135c-1.01 1.01-2.622 1.052-3.683.126l-.135-.126-1.534-1.534c-1.78-1.78-1.834-4.632-.162-6.477l.162-.17 1.292-1.292-1.292-1.294c-1.78-1.78-1.834-4.632-.162-6.477l.162-.17 1.34-1.34c1.054-1.054 2.764-1.054 3.818 0z" transform="translate(35 8)"/>
                <path fill="#FF4F41" d="M147.898 143.462l1.398 5.216c.257.96-.313 1.947-1.273 2.204-.96.258-1.947-.312-2.204-1.272l-1.398-5.216c-.257-.96.313-1.948 1.273-2.205.96-.257 1.947.313 2.204 1.273zM22.097 96.066c.973.157 1.652 1.03 1.585 1.996l-.02.17-.118.728 1.095.209c1.68.322 2.821 1.872 2.655 3.552l-.026.202-.178 1.1.901.172c.968.186 1.621 1.08 1.525 2.042l-.024.17c-.186.968-1.08 1.621-2.042 1.525l-.17-.024-1.368-.263c-1.68-.322-2.821-1.872-2.655-3.552l.026-.202.177-1.099-1.094-.21c-1.68-.322-2.82-1.872-2.655-3.552l.027-.202.192-1.196c.166-1.03 1.136-1.732 2.167-1.566zM148.75 66.474c1.142.958 1.29 2.661.332 3.804l-4.628 5.515c-.958 1.143-2.661 1.292-3.804.333-1.142-.958-1.29-2.661-.332-3.804l4.628-5.515c.958-1.143 2.661-1.292 3.804-.333zM62.92 30.739c1.221.856 1.518 2.54.663 3.76l-4.13 5.899c-.855 1.221-2.539 1.518-3.76.663-1.222-.856-1.519-2.54-.664-3.76l4.13-5.899c.855-1.221 2.54-1.518 3.76-.663zm52.253-1.565l.625 3.546c.173.979-.481 1.912-1.46 2.085-.98.172-1.913-.481-2.085-1.46l-.625-3.546c-.173-.979.48-1.912 1.46-2.085.979-.172 1.912.481 2.085 1.46zm86.128-4.571L205.497 28c1.16.938 1.338 2.638.4 3.797-.939 1.16-2.639 1.338-3.798.4l-4.196-3.399c-1.16-.938-1.338-2.638-.4-3.797.939-1.16 2.639-1.338 3.798-.4z" transform="translate(35 8)"/>
                <path fill="#D8972B" d="M169.721 62.833c.557-1.383 2.13-2.053 3.513-1.496 4.627 1.862 6.711 5.445 5.604 10-.353 1.449-1.813 2.338-3.262 1.985-1.45-.352-2.338-1.813-1.985-3.262.443-1.824-.131-2.812-2.373-3.714-1.383-.557-2.053-2.13-1.497-3.513zM86.618 47.275c1.335.663 1.88 2.284 1.216 3.62-2.734 5.5-7.536 7.152-13.25 4.61-1.362-.605-1.975-2.2-1.37-3.563.607-1.363 2.203-1.976 3.565-1.37 3.1 1.379 4.788.799 6.219-2.081.664-1.335 2.284-1.88 3.62-1.216zM48.42 14.482c-1.455.324-2.898-.592-3.223-2.048C43.86 6.438 46.553 2.133 52.592.512c1.44-.386 2.92.468 3.307 1.908s-.468 2.921-1.908 3.308c-3.277.88-4.223 2.392-3.523 5.53.324 1.456-.592 2.899-2.048 3.224zM158.917 172.22c-1.484.145-2.805-.94-2.95-2.425-.596-6.114 2.602-10.059 8.793-10.932 1.476-.208 2.842.82 3.05 2.297.208 1.477-.82 2.842-2.297 3.05-3.36.474-4.483 1.86-4.17 5.06.144 1.485-.942 2.805-2.426 2.95zM4.124 131.213c-1.473-.231-2.48-1.613-2.248-3.086 1.06-6.756 5.048-10.498 11.375-10.423 1.492.017 2.686 1.24 2.669 2.731-.018 1.491-1.24 2.686-2.732 2.668-3.518-.04-5.316 1.646-5.978 5.862-.231 1.473-1.613 2.48-3.086 2.248z" transform="translate(35 8)"/>
            </g>
            <g>
                <path fill="#27A9F6" d="M29.8 60.67c9.942 0 18.43-4.383 18.43-7.582 0-2.078-6.298-17.07-18.893-44.974-.227-.503-.82-.727-1.322-.5-.246.11-.436.316-.528.569-10.172 27.86-15.258 42.828-15.258 44.905 0 3.199 7.63 7.582 17.572 7.582z" transform="rotate(-11 379.255 -279.718) rotate(-30 30.23 33.275)"/>
                <path fill="#000" fill-opacity=".1" d="M22.16 15.228l.001-.007 4.862 3.516 1.842 1.337c-2.053 4.878-5.085 9.095-9.071 12.624l-.855-4.695c-.295-1.627-.598-3.316-.911-5.068 1.77-2.297 3.144-4.862 4.132-7.707zM32.334 23.193l.161-.474 2.358 1.726c1.532 1.123 2.984 2.193 4.355 3.208-3.178 7.917-8.76 14.447-16.666 19.506l-.65-3.306c-.317-1.632-.652-3.39-1.006-5.273 5.542-4.17 9.337-9.277 11.448-15.387zM43.013 30.88l.108-.314 2.628 1.98c1.493 1.13 2.834 2.16 4.023 3.086-4.5 11.236-12.635 19.285-24.269 23.944-.395-.743-1.067-3.351-2.017-7.822C33.12 47.63 39.58 40.744 43.013 30.88z" transform="rotate(-11 379.255 -279.718)"/>
            </g>
        </g>
    </g>
</svg>
