<svg height="148" viewBox="0 0 204 148" width="204" xmlns="http://www.w3.org/2000/svg"><g fill="none" fill-rule="evenodd"><path d="m16.869 101.774c-5.87-53.131 29.953-39.5 49.86-72.029 19.906-32.529 77.67-30.339 104.499-6 26.829 24.34 22.478 52.071 2.475 60.125-20.004 8.053 16.017 23.11 3.7 43.438-11.808 19.49-154.664 27.598-160.534-25.534z" fill="#000" fill-opacity=".04" fill-rule="nonzero"/><g transform="translate(4.636 57.042)"><path d="m8.068 2.954a2.954 2.954 0 0 1 2.968-2.954h84.824a2.96 2.96 0 0 1 2.968 2.954v53.856h-90.76z" fill="#5f5f5f"/><path d="m0 56.519h106.896v2.884c0 .648-.524 1.173-1.182 1.173h-104.532c-.652 0-1.182-.53-1.182-1.173z" fill="#c2c2c2"/><path d="m46.57 56.519h14.066v.815c0 .45-.362.815-.817.815h-12.432a.814.814 0 0 1 -.817-.815z" fill="#a6a6a6"/><g fill-rule="nonzero"><path d="m11.093 4.058h84.71v49.708h-84.71z" fill="#fff"/><path d="m56.79 23.453.252.014c.528.015 2.03.207 3 1.612-.079.047-1.79 1.047-1.772 3.103.022 2.464 2.169 3.279 2.194 3.287-.013.057-.336 1.177-1.14 2.311-.673 1-1.378 1.978-2.496 1.995-1.087.025-1.453-.636-2.699-.636-1.258 0-1.647.62-2.69.661-1.065.04-1.88-1.066-2.576-2.058-1.392-2.022-2.477-5.7-1.023-8.202.704-1.227 1.989-2.018 3.361-2.039 1.067-.021 2.057.717 2.713.717.642 0 1.866-.883 3.128-.751zm.265-3.925c.107.963-.277 1.911-.837 2.608-.585.687-1.521 1.212-2.433 1.144-.12-.926.343-1.911.86-2.512.584-.682 1.599-1.204 2.41-1.24z" fill="#000" fill-opacity=".87"/></g><ellipse cx="53.715" cy="1.902" fill="#5c5c5c" rx="1" ry="1"/><path d="m64.33 0h34.499v56.519h-34.5z" fill="#000" fill-opacity=".04"/></g><g transform="translate(74.182 37)"><path d="m88.63 79.485c0 .911-.74 1.65-1.64 1.65h-50.504c-.906 0-1.64-.729-1.64-1.643v-1.644c0-.05.02-.094.045-.094h53.74v1.73z" fill="#5f5f5f"/><path d="m55.015 67.61h13.445v10.144h-13.445z" fill="#575757"/><rect fill="#fff" height="66.291" rx="3.288" stroke="#5f5f5f" stroke-width="2.466" width="119.67" x="1.233" y="1.233"/><path d="m49.27 26.268 9.625-1.304.004 9.232-9.62.054-.008-7.982zm9.62 8.992.007 9.24-9.619-1.316v-7.986zm1.167-10.466 12.76-1.853v11.139l-12.76.1v-9.385zm12.763 10.553-.003 11.087-12.76-1.792-.018-9.316 12.781.02z" fill="#00adef" fill-rule="nonzero"/></g></g></svg>