<svg xmlns="http://www.w3.org/2000/svg" width="264" height="192" viewBox="0 0 264 192">
    <g fill="none" fill-rule="evenodd">
        <path fill="#FFF" fill-opacity=".12" fill-rule="nonzero" d="M35.452 160.178c-44.648-2.355-40.308-53.811-23.097-71.123 18.512-18.62 25.349-9.918 27.66-35.35C42.216 29.5 84.345 1.792 123.42.434c51.325-1.782 66.917 49.58 76.165 63 12.406 18 58.242 12.619 50.358 65.46-4.875 32.67-50.048 32.853-50.048 32.853s-123.982.563-164.443-1.57z" transform="translate(7 15)"/>
        <path fill="#E6B200" d="M71.334 149.563c-.85-.064-1.652-.502-2.156-1.2-.503-.698-.676-1.583-.472-2.421.268-1.087.567-2.333.866-3.57.944-3.858 4.406-6.579 8.387-6.6l1.26-.007 16.602-17.687-1.747-28.35 28.908 11.074s-6.672 17.466-8.498 22.22c-.283.775-.787 1.461-1.416 1.995-4.485 3.742-23.196 19.353-28.814 24.042-1.023.859-2.345 1.283-3.682 1.184l-9.238-.68z" transform="translate(7 15)"/>
        <path fill="#F9C93B" d="M98.842 156.988c-.787-.034-1.526-.438-1.967-1.088-.456-.65-.582-1.472-.33-2.226.346-1.09.755-2.34 1.148-3.55 1.023-3.123 3.903-5.26 7.192-5.333l1.747-.038 15.075-18.628c1.15-1.425 1.165-3.458.016-4.892-2.675-3.384-7.066-10.283-7.38-19.491-.457-13.328 7.286-33.04 22.031-20.407 12.086 10.355 11.016 36.861 10.245 46.075-.19 2.04-1.196 3.917-2.786 5.215-6.436 5.267-23.7 19.374-29.018 23.713-1.007.829-2.298 1.256-3.604 1.198-3.021-.135-8.734-.386-12.369-.548z" transform="translate(7 15)"/>
        <path fill="#E6B200" d="M189.186 49.211c-4.312-2.325-9.426-2.612-13.958-.782-4.548 1.83-8.026 5.586-9.505 10.243-4.107 12.971-8.215 29.003-5.76 35.14 3.022 7.584 6.28 11.86 9.033 14.267 3.226 2.788 3.95 7.503 1.684 11.123-3.556 5.74-8.041 12.937-9.883 15.883-.535.88-1.337 1.58-2.281 2.01-.929.422-2.172.984-3.258 1.478-1.59.722-2.738 2.162-3.084 3.87-.33 1.588-.74 3.595-1.055 5.215-.157.7.032 1.426.504 1.973.456.544 1.149.846 1.873.818l11.236-.43c1.369-.054 2.659-.688 3.54-1.745 4.407-5.3 18.223-21.937 25.132-30.247 2.423-2.906 2.785-6.995.928-10.28-1.023-1.795-2.077-3.665-2.817-4.986-.645-1.134-.708-2.503-.173-3.69 1.999-4.456 7.145-15.956 11.362-25.357 3.494-7.813.378-16.998-7.176-21.075-2.061-1.114-4.217-2.277-6.342-3.428z" transform="translate(7 15)"/>
        <path fill="#F9C93B" d="M200.964 143.884c-.114.828-.636 1.546-1.386 1.916-.736.36-1.712.84-2.627 1.292-1.788.873-2.954 2.63-3.067 4.6-.064 1.135-.13 2.4-.198 3.49-.033.696.217 1.38.7 1.882.484.503 1.164.781 1.86.769 3.681-.067 10.144-.184 12.878-.235.79-.014 1.538-.407 2.004-1.057 1.245-1.755 3.723-5.246 4.587-6.443.192-.272.332-.582.39-.906.84-3.697 6.085-27.151 8.21-36.656.56-2.516-.082-5.152-1.743-7.131-.95-1.14-2.082-2.49-3.233-3.872-4.019-4.813-5.088-11.435-2.76-17.261 4.76-11.88 9.437-33.171-9.598-47.29-26.043-19.33-41.11 9.206-41.576 22.231-.682 18.782 3.432 28.868 14.305 42.489 9.604 12.04 21.248 15.225 21.248 15.225 2.368 6.912.601 22.347.006 26.957z" transform="translate(7 15)"/>
        <path fill="#59361C" d="M195.5 31.5c9.667-9 14.667-18.333 15-28 .137-1.368 1.357-2.366 2.725-2.23 1.233.124 2.188 1.136 2.24 2.374l.035.856c.333 11.667-3.167 22.167-10.5 31.5l-9.5-4.5z" transform="translate(7 15)"/>
        <path fill="#F9C93B" d="M97.205 108.189c-6.53-9.91-12.494-29.9 10.26-44.591 12.464-8.047 21.23-4.839 41.483-16.953 11.204-6.705 22.645-21.423 46.486-15.698 24.502 5.885 25.415 35.286.944 45.052-17.578 7.014-17.672 8.386-26.91 14.795-9.457 6.563-15.186 16.393-34.148 24.773-13.99 6.18-31.6 2.532-38.115-7.378z" transform="translate(7 15)"/>
        <g transform="translate(7 15) rotate(5.848 -636.882 283.322)">
            <path fill="#59361C" d="M27.504 26.497s.685-9.238-5.958-10.309c-5.963-.96-17.903 7.272-16.23 19.097 1.33 9.4 5.724 8.409 7.887 6.82 3.704-2.72 6.226-13.868 7.657-13.683 1.43.185 2.946 2.564 2.946 2.564l3.698-4.489z"/>
            <path fill="#F9C93B" d="M4.964 73.514c-2.041-1.17-3.392-3.673-3.596-5.663-.204-1.99 1.038-4.015 2.966-5.341 5.719-3.937 12.33-8.475 12.33-8.475S8.984 32.35 26.91 17.005C36.641 8.67 49.623 7.05 57.212 7.78c4.918.475 5.932-.796 9.379-3.489 1.628-1.279 30.576 39.937 18.926 43.735-11.017 3.589-16.613 15.81-36.61 19.87-10.093 2.05-12.87 11.508-26.396 11.831-6.015.143-12.452-3.277-17.547-6.214z"/>
            <path fill="#FDE399" d="M16.251 54.317c10.488-3.104 20.84.322 23.45 7.935 1.31 3.823.43 8.004-2.062 11.721-3.82 2.842-7.97 5.583-15.14 5.756-6.018.145-13.248-2.724-17.535-6.215-2.193-1.786-3.504-3.325-3.596-5.663-.092-2.338 1.027-4.01 2.96-5.336 4.872-3.357 10.398-7.15 11.923-8.198z"/>
            <path stroke="#381400" stroke-linecap="round" stroke-linejoin="round" stroke-width="2.305" d="M22.546 76.796s4.573.381 6.65-2.264"/>
            <path fill="#59361C" d="M2.224 70.773c-1.18-1.736-1.284-3.982-.278-5.827.981-1.844 2.947-2.979 5.034-2.942l5.267.092c2.088.036 4.012 1.274 4.88 3.187.892 1.911.592 4.16-.741 5.783-.461.563-.946 1.128-1.406 1.684-1.479 1.789-3.703 2.78-6.027 2.67-2.324-.112-4.462-1.306-5.781-3.23-.3-.468-.625-.943-.948-1.417z"/>
            <ellipse cx="32.68" cy="45.935" fill="#381400" rx="2.445" ry="2.786" transform="rotate(-18.849 32.68 45.935)"/>
            <path fill="#FB594C" fill-rule="nonzero" d="M62.879 8.791c-.502-.31-.804-.852-.809-1.437-.005-.584.293-1.13.786-1.451 1.477-.96 3.298-2.146 4.432-2.882.672-.433 1.525-.442 2.21-.025 2.533 1.629 8.96 6.318 14.97 15.328 5.57 8.311 7.056 22.34 7.386 26.352.045.672-.309 1.31-.896 1.633-1.325.726-3.719 2.04-5.36 2.937-.377.203-.82.2-1.201-.003-.366-.207-.59-.588-.612-1.009-.26-4.462-1.343-15.594-5.877-23.287C72.5 15.777 66.23 10.913 62.88 8.791z"/>
            <path fill="#59361C" d="M39.639 28.556v-.002c.064-.194 1.757-7.977 5.295-12.587 1.433-1.867 3.089-4.431 6.913-5.646 5.01-1.592 22.604 6.155 24.469 19.783.635 4.639-2.57 15.406-12.37 14.952-7.537-.35-11.677-16.589-15.659-17.369-3.318-.649-2.436 1.735-4.216 2.729-.376.209-1.58.859-2.963.146-1.02-.526-1.45-1.417-1.469-2.006z"/>
        </g>
    </g>
</svg>
