<svg height="148" viewBox="0 0 204 148" width="204" xmlns="http://www.w3.org/2000/svg"><g fill="none" fill-rule="evenodd"><path d="m16.8274664 101.77414c-5.8555031-53.131563 29.8793795-39.4997664 49.7372063-72.0288839 19.8578267-32.52911752 77.4807313-30.33886882 104.2436573-5.9995728 26.762926 24.3392959 22.422977 52.0706898 2.468703 60.1239707-19.954274 8.053281 15.977477 23.110898 3.691837 43.438061-11.780036 19.490617-154.2859005 27.597988-160.1414036-25.533575z" fill="#fff" fill-opacity=".12" fill-rule="nonzero"/><g transform="translate(4.625 57.042)"><path d="m8.04788211 4.06273486c0-2.2437865 1.80854433-4.06273486 4.06614789-4.06273486h82.4063779c2.2456715 0 4.0661479 1.82578213 4.0661479 4.06273486v52.74584474h-90.53867369z" fill="#3b3b3b"/><g transform="translate(0 56.519)"><path d="m0 0h106.634438v2.43069182c0 .89860256-.723441 1.62706386-1.611161 1.62706386h-103.41211587c-.88981972 0-1.61116113-.72544539-1.61116113-1.62706386z" fill="#4c4c4c"/><path d="m46.4561356 0h14.0308471v.81517413c0 .45020825-.3609317.81517414-.8150041.81517414h-12.400839c-.4501143 0-.815004-.36182713-.815004-.81517414z" fill="#3c3c3c"/></g><g fill-rule="nonzero" transform="translate(10.724 3.804)"><path d="m.342.254h84.503v49.708h-84.503z" fill="#121212"/><path d="m16.322023 5.38418374.2877987.01773986c.7240233.02099533 2.7843668.28431177 4.1136491 2.21150816-.1073279.0638608-2.4544656 1.43555573-2.4289532 4.25505364.029911 3.3793734 2.9735103 4.4965 3.0086997 4.5078725-.0175947.0787325-.460982 1.614016-1.5650517 3.1694201-.9219641 1.3716949-1.8879151 2.7127717-3.422176 2.7355166-1.4902741.0349922-1.9917241-.8713062-3.7010526-.8713062-1.7251638 0-2.259164.8485613-3.6887363.9062984-1.46124278.0533631-2.57762874-1.4626747-3.53302288-2.8221223-1.90990853-2.7740081-3.39666367-7.8172615-1.40318015-11.24912321.96595098-1.68312567 2.727184-2.76700961 4.60982069-2.79587819 1.46300224-.02974339 2.82043604.98240651 3.71952704.98240651.8814963 0 2.560034-1.21073073 4.2904763-1.02964601zm.3062731-5.38418374c.1460363 1.32008141-.3800462 2.6209171-1.1489362 3.57707945-.8023199.94129066-2.0858559 1.66125553-3.3359618 1.56852616-.1636311-1.2702175.4697794-2.62091711 1.1788472-3.44498383.8014402-.93516702 2.1931838-1.65163268 3.3060508-1.70062178z" fill="#fff" fill-opacity=".6" transform="translate(30.778 12.427)"/></g><ellipse cx="53.584" cy="1.902" fill="#363636" rx="1" ry="1"/><path d="m64.172 0h34.415v56.519h-34.415z" fill="#000" fill-opacity=".04"/></g><g transform="translate(74 37)"><path d="m88.4127354 79.4449851c0 .9337652-.7584493 1.6907315-1.6943279 1.6907315h-50.2638917c-.9357514 0-1.6943255-.7624413-1.6943227-1.6821831l.0000049-1.6051427c0-.0513241.0201042-.0941373.0447719-.0941373h53.6077655z" fill="#5f5f5f"/><path d="m54.88 67.61h13.413v10.144h-13.413z" fill="#575757"/><rect fill="#121212" height="65.375" rx="4.509" stroke="#5f5f5f" stroke-width="3.381" width="118.455" x="1.691" y="1.691"/><path d="m0 3.32608678 9.60046161-1.30345484.00419668 9.23188886-9.59588829.0544773zm9.59588829 8.99212732.00745181 9.2399346-9.59588829-1.3152284-.00053804-7.9866848zm1.16380071-10.46609708 12.7294153-1.85211702v11.1371074l-12.7294153.1007454zm12.7323745 10.55299058-.0029861 11.0869559-12.7294153-1.7910771-.0178359-9.3166367z" fill="#00adef" fill-rule="nonzero" transform="translate(49.15 22.941)"/></g></g></svg>