<svg height="148" viewBox="0 0 204 148" width="204" xmlns="http://www.w3.org/2000/svg"><g fill="none" fill-rule="evenodd"><path d="m1.545 112.337c-9.128-35.201 50.989-32.779 40.405-65.404-10.586-32.625 66.428-69.537 110.44-29.134 14.52 13.33 22.27 48.604 1.384 64.663-20.886 16.06 58.086 27.628-1.384 52.75-59.47 25.121-141.716 12.327-150.845-22.875z" fill="#000" fill-opacity=".04" fill-rule="nonzero" transform="translate(12.364)"/><g transform="translate(30.137 67.182)"><ellipse cx="32.966" cy="37.552" fill="#f2c2a7" rx="25.997" ry="25.937"/><path d="m27.22 21.025 7.746 30.45a7.608 7.608 0 0 1 -8.194 9.44 46.012 46.012 0 0 1 -7.25-1.392c1.255 1.217 3.966 2.214 4.482 2.43 4.447 1.866 17.455 3.556 23.78-4.6 3.245-4.186-.168-23.055-10.242-56.61z" fill="#bf8458" fill-opacity=".2"/></g><g transform="translate(42.5 3.083)"><path d="m1.018 24.47c-1.393-5.184 1.689-10.517 6.885-11.91l45.172-12.115c5.195-1.393 10.537 1.684 11.929 6.866l26.84 99.92c1.392 5.185-1.69 10.517-6.886 11.91l-45.172 12.115c-5.195 1.394-10.537-1.684-11.929-6.865l-26.84-99.92z" fill="#5f5f5f"/><g fill-rule="nonzero"><path d="m4.708 26.122a3.477 3.477 0 0 1 2.466-4.246l51.253-13.7a3.47 3.47 0 0 1 4.247 2.452l25.444 95.688a3.477 3.477 0 0 1 -2.466 4.246l-51.253 13.7a3.47 3.47 0 0 1 -4.247-2.452z" fill="#fff"/><ellipse cx="46.364" cy="63.208" fill="#58a509" rx="21.636" ry="21.583"/><path d="m38.41 65.709a1.547 1.547 0 0 0 -2.101.599 1.54 1.54 0 0 0 .6 2.096l6.955 3.854c.74.41 1.673.15 2.092-.582l9.273-16.188a1.54 1.54 0 0 0 -.575-2.103 1.548 1.548 0 0 0 -2.109.573l-8.515 14.865z" fill="#fff"/></g></g><g transform="translate(74.954 64.75)"><path d="m56.338 56.171c3.487-.974 5.024-4.403 3.436-7.655l-9.91-20.283a8.349 8.349 0 0 0 -.688-1.123l-15.657-20.776c-5.435-7.463-15.409-.234-9.973 7.229 16.306 22.389 13.631 17.824 29.787 40.007l-15.123 2.687c-4.82-.717-7.53 3.663-7.808 7.156l25.937-7.242z" fill="#000" fill-opacity=".1"/><path d="m71.315 11.106 3.905 4.63c-5.052-5.99 1.159-12.58 6.72-9.82.886.44 1.756 1.116 2.56 2.07l14.352 17.019c6.533 7.745 6.705 20.433.387 28.341 0 0-.537 1.662-5.819 6.072s-8.897 5.273-8.897 5.273c-5.208 2.357-14.108 3.692-19.802 3.19l-23.895-2.108c-7.996-.71-7.49-14.446.504-13.739l17.953 1.066-35.334-41.898c-5.857-6.944 3.424-14.692 9.281-7.748l15.618 18.52c-5.856-6.946 3.425-14.694 9.281-7.75l3.905 4.63c-5.857-6.944 3.424-14.693 9.281-7.748z" fill="#f2c2a7"/><path d="m59.294 53.08c2.76-1.382-7.266-12.861-15.735-23.168-8.47-10.307-23.613-22.752-19.135-27.972-1.353.788-2.228 2.476-2.32 4.41-.065 1.376.464 3.162 1.388 4.266 13.63 16.285 33.838 40.157 35.802 42.464zm-24.082 4.842c-.287 2.646.667 4.882 1.883 6.057.99.956 2.439 1.716 3.807 1.835 10.707.932 15.1 1.258 24.943 2.126 4.74.419 11.824-1.113 13.514-1.495.327-.074-11.702-.078-23.812-1.3-11.584-1.17-17.747.435-20.335-7.223z" fill="#bf8458" fill-opacity=".2"/></g><path d="m30.072 89.25 10.911-18.651c1.75-3.025 5.64-4.055 8.671-2.31 3.038 1.75 4.082 5.62 2.331 8.646l-10.762 18.595" fill="#f2c2a7" transform="translate(12.364)"/></g></svg>