<svg xmlns="http://www.w3.org/2000/svg" width="204" height="148" viewBox="0 0 204 148">
  <g fill="none" fill-rule="evenodd" transform="translate(12.333)">
    <path fill="#FFF" fill-opacity=".12" fill-rule="nonzero" d="M1.54166667,112.337355 C-7.56440046,77.1360353 52.4052503,79.5583439 41.8458133,46.932925 C31.2863764,14.307506 108.111135,-22.6038133 152.015925,17.7994956 C166.5,31.1284406 174.230768,66.403208 153.395833,82.4622202 C132.560899,98.5212324 211.339407,110.090211 152.015925,135.211772 C92.6924442,160.333333 10.6477338,147.538674 1.54166667,112.337355 Z"/>
    <g transform="translate(17.73 67.182)">
      <ellipse cx="32.885" cy="37.552" fill="#D0A288" rx="25.933" ry="25.937"/>
      <path fill="#BF8458" fill-opacity=".2" d="M41.6154826,19.8353337 L24.5069539,45.4288014 C22.0385444,49.121418 17.0440453,50.1138311 13.3514301,47.6454194 C12.5135211,47.0853003 11.7883626,46.3726721 11.2137251,45.5446524 C9.97893197,43.7653866 8.86329486,41.8798731 7.86681375,39.8881121 C7.80104055,41.6337191 8.86946374,44.3105954 9.05300897,44.8377798 C10.6353696,49.3826856 18.0616491,60.156216 28.3440106,59.3876196 C33.6215151,58.9931313 45.3659602,43.8359333 63.577346,13.9160254 L41.6154826,19.8353337 Z" transform="rotate(-48 35.72 36.671)"/>
    </g>
    <g transform="translate(30.063 3.083)">
      <path fill="#5F5F5F" d="M1.01540839,24.470817 C-0.373913665,19.2857965 2.70015678,13.9532547 7.88372156,12.5596643 L52.9449925,0.445036823 C58.1275791,-0.948290654 63.4561671,2.12922839 64.8444858,7.31050434 L91.6180248,107.230712 C93.0073469,112.415733 89.9332764,117.748274 84.7497117,119.141865 L39.6884408,131.256492 C34.5058541,132.64982 29.1772661,129.572301 27.7889474,124.391025 L1.01540839,24.470817 Z"/>
      <path fill="#000" d="M4.69612956,26.1219002 C4.20561131,24.2726703 5.31013983,22.3710674 7.15619247,21.8764191 L58.2838927,8.17679314 C60.1330662,7.6813086 62.0317878,8.78637648 62.5202793,10.6279659 L87.902167,106.316447 C88.3926852,108.165677 87.2881567,110.06728 85.4421041,110.561928 L34.3144038,124.261554 C32.4652304,124.757039 30.5665088,123.651971 30.0780172,121.810382 L4.69612956,26.1219002 Z"/>
      <circle cx="46.25" cy="63.208" r="21.583" fill="#409100" fill-rule="nonzero"/>
      <path fill="#FFF" fill-rule="nonzero" d="M38.3164077,65.7088884 C37.5721161,65.2953931 36.6335444,65.5635564 36.220049,66.307848 C35.8065537,67.0521396 36.0747171,67.9907113 36.8190087,68.4042067 L43.7565087,72.2583733 C44.4944675,72.6683505 45.4249119,72.4085613 45.8437497,71.6755951 L55.0937497,55.4880951 C55.5161817,54.748839 55.2593451,53.8071047 54.520089,53.3846727 C53.780833,52.9622406 52.8390987,53.2190773 52.4166667,53.9583333 L43.9223876,68.8233217 L38.3164077,65.7088884 Z"/>
    </g>
    <g transform="translate(62.438 64.75)">
      <path fill="#000" fill-opacity=".1" d="M39.4159781,65.8747542 C43.0106163,67.2089199 46.4643448,65.2348841 47.1326041,61.4514252 L50.981774,39.6587218 C51.0496708,39.2743129 51.0995322,38.6448681 51.0930959,38.2499496 L50.6704246,12.3158588 C50.6704246,3.09112536 38.3725852,3.09112536 38.3725852,12.3158588 C38.3725852,39.9900591 38.8966195,34.7291088 38.8966195,62.1480915 L25.1118858,55.4539929 C21.6425637,52.0475124 16.8813926,54.0018387 14.6040297,56.6656909 L39.4159781,65.8747542 Z" transform="rotate(-36 32.849 35.844)"/>
      <path fill="#D0A288" d="M71.140324,11.1057071 L75.0352873,15.735573 C69.9957894,9.7452215 76.1916191,3.1567781 81.7393257,5.91592721 C82.6232461,6.35554457 83.490713,7.0324627 84.2936601,7.98691006 L98.6100947,25.004573 C105.126284,32.750239 105.298157,45.4383354 98.9955352,53.3460747 C98.9955352,53.3460747 98.460032,55.0082405 93.1909895,59.4180904 C87.9219469,63.8279403 84.3161196,64.6906686 84.3161196,64.6906686 C79.1210398,67.0477525 70.2419189,68.3832443 64.5624582,67.8809175 L40.7254405,65.7726233 C32.749151,65.0635059 33.2541395,51.3272582 41.2284816,52.0340607 L59.1376337,53.10007 L23.890389,11.2023664 C18.047944,4.2575675 27.3063169,-3.49109548 33.1487618,3.45370341 L48.728615,21.9731671 C42.8861701,15.0283682 52.1445429,7.27970526 57.9869879,14.2245042 L61.8819511,18.8543701 C56.0395062,11.9095712 65.297879,4.16090821 71.140324,11.1057071 Z"/>
      <path fill="#BF8458" fill-opacity=".2" d="M59.1489048,53.0803924 C61.901159,51.6981531 51.9006102,40.218806 43.4522073,29.9116901 C35.0038043,19.6045742 19.8967992,7.16096406 24.3644084,1.94084968 C23.0147109,2.72895411 22.1420887,4.4168809 22.050358,6.3510999 C21.9851216,7.72666738 22.5123753,9.51337233 23.4340058,10.6171294 C37.0306841,26.9006934 57.1898388,50.7731042 59.1489048,53.0803924 Z"/>
      <path fill="#BF8458" fill-opacity=".2" d="M45.0210696,44.641599 C42.9472527,46.3105254 42.0390685,48.564854 42.0666787,50.2534684 C42.0891523,51.6279311 42.5732144,53.1867553 43.4544217,54.2364676 C50.3476865,62.4478667 53.2161633,65.7767701 59.5446347,73.3335003 C62.5927884,76.9732537 68.6723352,80.886409 70.1345894,81.8091383 C70.4173984,81.9875999 61.9350469,73.4994576 54.2572368,64.0926599 C46.9135908,55.0952778 41.4315893,51.8825132 45.0210696,44.641599 Z" transform="rotate(-45 56.104 63.227)"/>
    </g>
    <path fill="#D0A288" d="M36.1221138,94.3128255 L36.2230448,72.7188282 C36.2230448,69.2259067 39.0670737,66.3943344 42.5594564,66.3943344 C46.0589599,66.3943344 48.895868,69.2253327 48.895868,72.7188282 L48.895868,94.1893176" transform="rotate(30 42.509 80.354)"/>
  </g>
</svg>
