<svg xmlns="http://www.w3.org/2000/svg" xmlns:xlink="http://www.w3.org/1999/xlink" width="264" height="192" viewBox="0 0 264 192">
    <defs>
        <rect id="uyg99b0ida" width="51" height="38" x="5" y="6" rx="2"/>
    </defs>
    <g fill="none" fill-rule="evenodd">
        <g>
            <path fill="#FFF" fill-opacity=".12" fill-rule="nonzero" d="M83 184.5c-41.206-4.96-42.866-40.116-28-60.5s-1.812-30.067.5-55.5c2.2-24.205 39.688-45.195 78.764-46.553 51.325-1.782 57.917 49.58 67.166 63 12.405 18 58.241 12.619 50.357 65.459-4.875 32.671-50.047 32.853-50.047 32.853S123.09 189.326 83 184.5z"/>
            <g transform="translate(14.759 5)">
                <path fill="#59361C" d="M195.241 167.754c9.667-9 14.667-18.334 15-28 .137-1.368 1.357-2.367 2.725-2.23 1.233.124 2.188 1.135 2.24 2.374l.035.856c.334 11.666-3.166 22.166-10.5 31.5l-9.5-4.5z" transform="rotate(43 205.252 154.883)"/>
                <path fill="#E6B200" d="M145.741 174.205c12.427 0 26.5-27.767 26.5-40.193 0-12.427-10.043-22.151-25.47-22.151-15.425 0-25.391 15.72-23.985 28.038.9 7.891 7.112 17.42 13.53 20.874-6.924.492-11.22.825-12.889 1-1.854.241-3.021 1.918-3.61 3.202-.588 1.284-1.883 5.338-1.414 6.731.334.994.947 2.905 1.929 2.905.981 0 14.257-.22 20.885-.331l4.524-.075z"/>
                <path fill="#E6B200" d="M62.688 79.195l1.726 4.457s.996 3.554 7.29 12.43c.39.55 3.049 3.69 7.974 9.42 2.201 2.402 3.283 4.006 3.246 4.812-.544 11.8-6.61 15.351-11.506 12.565-8.099-4.607-14.504-23.43-16.509-31.469-.428-1.715-3.46-12.764-2.34-15.482.293-.713.869-1.274 1.59-1.55.72-.274 1.523-.24 2.218.097 1.153.557 2.476 1.198 3.538 1.713 1.272.615 2.263 1.69 2.773 3.007z" transform="rotate(-22 67.624 98.987)"/>
                <path fill="#E6B200" d="M90.67 96.118c6.014-15.467 20.355-21.208 31.731-10.23 5.831 5.628 9.477 32.206-6.225 34.181-15.702 1.975-18.612 10.522-26.004 12.322-7.393 1.8-13.897-11.185-9.537-15.414 4.36-4.23 8.905-17.952 10.035-20.86z" transform="rotate(38 103.31 106.383)"/>
                <path fill="#F9C93B" d="M90.417 75.824c-1.819-7.596 35.996-21.346 37.882-16.506.627 1.607-.069-1.22 1.45 2.434 2.638 6.352 21.452 26.748 36.924 36.76 22.915 14.827 32.759 47.244 28.225 65.19-1.701 6.733-5.765 13.867-12.547 13.832-21.718.023-38.387.023-50.007 0-1.037.035-1.522-1.122-2.059-2.022-.537-.9-.07-3.656.827-6.43.897-2.775 4.01-4.856 5.652-5.38 1.094-.35 7.4-.414 18.921-.19-4.158-3.315-7.003-5.998-8.534-8.05-2.583-3.463-10.287-8.54-12.403-9.639-14.232-7.39-37.368-33.717-41.645-43.277-5.277-11.795-2.758-18.114-3.686-23.656-.077-.459 1.596-.573 1-3.066z"/>
                <path fill="#E6B200" d="M137.72 147.567l22.675-25.9c1.286.243 2.21-2.05.332-2.403-1.206-.227-1.92-.311-3.804-.25-12.59.404-22.025 10.264-22.025 22.926v3.989c.778.484 1.718 1.03 2.822 1.638z"/>
                <circle cx="158.741" cy="143.012" r="21.5" fill="#F9C93B"/>
                <g transform="translate(.241 40)">
                    <mask id="di1juj7lbb" fill="#fff">
                        <use xlink:href="#uyg99b0ida"/>
                    </mask>
                    <use fill="#D5E4FD" transform="rotate(15 30.5 25)" xlink:href="#uyg99b0ida"/>
                    <path stroke="#68A0B9" stroke-linecap="round" stroke-width="3" d="M11 0l18.03 26.57c.557.822 1.632 1.11 2.525.678L60 13.5h0" mask="url(#di1juj7lbb)"/>
                </g>
                <path fill="#E6B200" d="M45.732 81.77c3.467 1.373 10.988 10.773 9.253 15.414-1.393 3.731-6.015 2.493-9.275-.325-3.752-3.243-4.473-6.986-4.469-9.5.004-2.516 1.024-6.963 4.49-5.59z" transform="rotate(-11 48.241 90.512)"/>
                <path fill="#E6B200" d="M122.313 112.613c.64 0 1.166.486 1.229 1.108l.006.153-.071 2.58c-.129 4.042-.398 10.93-.809 20.667l-2.145-1.902.51-21.357c.017-.695.585-1.25 1.28-1.25z"/>
                <g>
                    <path fill="#59361C" d="M33.295 12.042S31.269 2.7 26.077 1.855C20.4.93 7.752 8.028 9.55 19.12c1.429 8.814 8.314 9.355 10.353 7.826 3.491-2.617 9.936-10.624 9.936-10.624l3.456-4.28z" transform="translate(55.898) rotate(-1 21.336 14.692)"/>
                    <path fill="#FCC840" d="M42.88 8.22c24.315.425 27.887 15.934 28.25 23.579.286 6.038-4.552 22.255 1.095 27.464 2.651 2.447-4.99 6.428-15.547 11.745-10.467 5.274-24.801 8.349-24.746 5.202.119-6.833-3.595-11.731-8.683-13.227-6.485-1.906-4.885-24.963-4.885-24.963S15.196 7.737 42.879 8.22z" transform="translate(55.898) rotate(-1 45.472 42.846)"/>
                    <g>
                        <path fill="#FFE398" d="M4.866 16.97C-.104 9.282-.198 5.103 2.868 2.208 4.856.332 9.251.903 14.802 1.079c9.094.287 20.537 1.842 23.955 4.454 6.173 4.718 6.303 12.211.84 16.719-3.717 3.066-8.916 5.055-13.816 4.97-6.603-2.218-16.24-3.025-20.915-10.253z" transform="translate(55.898) translate(.343 37.37) rotate(-1 22.175 14.042)"/>
                        <path fill="#59361C" d="M15.13 4.04c1.418 3.526-2.19 10.784-8.36 10.784-2.777 0-5.911-3.205-6.202-6.865-.144-1.814.077-3.638 2.048-5.442.704-.644 1.94-1.213 4.155-1.376 3.002-.226 7.095-.245 8.36 2.9z" transform="translate(55.898) translate(.343 37.37)"/>
                        <path fill="#3C1A00" d="M31.15 14.493c2.582-.99 4.634-.183 5.789 2.436.208.473.04.98-.32 1.144-.36.164-.79.005-1.02-.463-.2-.41-.442-.752-.72-1.029-2.027 4.987-6.488 8.722-11.908 9.733-1.002-.252-2.04-.498-3.091-.758 5.902-.667 10.833-4.536 13.017-9.828-.425-.022-.882.03-1.368.157-.431.111-.799-.122-.88-.479-.08-.356.078-.751.5-.913z" transform="translate(55.898) translate(.343 37.37)"/>
                    </g>
                    <path fill="#000" d="M22.073 36.903c1.273-.022 2.282-1.282 2.255-2.815-.027-1.532-1.08-2.757-2.353-2.735-1.273.022-2.283 1.282-2.255 2.814.027 1.533 1.08 2.757 2.353 2.736zM40.853 36.903c1.414-.025 2.538-1.287 2.511-2.82-.027-1.532-1.195-2.754-2.61-2.73-1.414.024-2.538 1.286-2.51 2.819.027 1.532 1.195 2.755 2.61 2.73z" transform="translate(55.898)"/>
                    <path fill="#59361C" d="M50.047 15.935c4.708-5.66 8.263-9.564 10.664-11.71C62.37 2.74 64.545.743 68.372.547 73.91.265 88.042 11.06 86.797 23.934c-.424 4.382-5.757 13.545-14.77 11.014-6.93-1.946-7.23-17.701-10.76-19.274-2.944-1.31-6.298 3.195-8.17 3.72-.395.11-1.657.445-2.787-.506-.885-.744-1.003-2.064-.263-2.953z" transform="translate(55.898) rotate(-1 68.129 17.963)"/>
                </g>
                <path fill="#FCC840" d="M102.081 166.753c.85-.275 1.486-.483 1.486-.483s-.992-18.472-5.323-32.615c-4.33-14.143-4.88-19.47-8.362-26.387-3.483-6.918-7.824-32.79 8.031-34.563 15.856-1.773 15.76 8.353 20.548 24.242 5.29 17.552.176 69.806-.916 72.35-.728 1.695-1.798 3.804-3.21 6.327-.594 1.172-1.797 1.91-3.11 1.91H99.059c-.76 0-1.481-.34-1.965-.927-.483-.588-.679-1.36-.533-2.107l.379-1.94c.533-2.726 2.5-4.948 5.141-5.807z"/>
                <path fill="#FB594C" fill-rule="nonzero" d="M127.858 57.82c.659 1.633 2.523 3.684 3.124 4.693.67 1.125.64 1.88-.432 2.711l-1.035.786c-3.11 2.325-8.513 6.03-16.11 9.238-6.73 2.843-15.046 4.28-24.95 4.314-.862.003-1.58-.659-1.648-1.518l-.47-5.954c-.07-.908.607-1.701 1.514-1.772l.112-.005c6.943-.077 14.117-1.624 21.523-4.639 8.479-3.452 13.297-7.294 16.131-9.025.491-.31 1.721-.373 2.241 1.17z"/>
            </g>
        </g>
    </g>
</svg>
