<svg height="192" viewBox="0 0 265 192" width="265" xmlns="http://www.w3.org/2000/svg"><g fill="none" fill-rule="evenodd"><path d="m26.08 139.328c-7.72-70.084 61.594-20.486 69.638-81.993 8.044-61.505 88.962-64.638 119.088-21.488s22.234 72.372-4.076 82.995 15.985 39.266-6.8 58.018c-21.466 17.663-170.129 32.552-177.85-37.532z" fill="#000" fill-opacity=".04" fill-rule="nonzero"/><path d="m112.9 163.476c-.487 5.004-7.64 21.536-10.565 26.973 22.618 2.334 47.058 1.188 73.322-3.437-1.38-5.613-11.425-23.536-20.163-35.682-3.428-4.764-17.626-.715-42.595 12.146z" fill="#f9c93b"/><path d="m144.609 111.826s-14.302-25.162-36.398-8.747c-21.563 16.019-9.042 35.635-4.691 41.77 4.35 6.135 10.21 10.065 9.38 18.627l43.844-11.718c-1.436-2.664-2.567-5.699-3.147-10.69-1.86-16-8.988-29.242-8.988-29.242z" fill="#f9c93b"/><path d="m122.772 97.593s-2.687-9.624-.655-12.19c3.47-4.38 17.73-6.146 23.07 3.513 4.244 7.677-.686 12.2-3.168 12.232-4.25.056-12.313-6.768-13.267-5.834s-.751 3.532-.751 3.532l-5.23-1.253z" fill="#381400"/><path d="m99.858 136.206c1.526-5.025-2.191-11.146 0-11.322 7.661-.615 14.065-5.527 19.213-14.737 6.619-11.842 2.84-15.717-11.335-11.622-6.44 8.639-11.008 15.317-13.704 20.036-4.043 7.078 4.3 22.67 5.826 17.645z" fill="#e6b200"/><path d="m138.001 108.52c-.983.769-1.072 2.302-.197 3.422s2.384 1.405 3.368.636c.984-.768 1.072-2.302.198-3.422-.875-1.12-2.385-1.405-3.369-.636zm-14.021 10.954c-.983.77-1.072 2.303-.197 3.422.875 1.12 2.384 1.405 3.368.637.984-.769 1.072-2.302.198-3.422-.875-1.12-2.385-1.405-3.369-.637z" fill="#000"/><path d="m145.565 109.975s-12.003 9.074-12.658 15.964 4 13.446 10.769 14.597c6.667 1.133 12.273 1.544 17.277-4.479 5.404-6.504-8.318-5.526-4.797-7.961 2.046-1.416 5.993-6.623 6.857-8.56 2.869-6.424.919-11.966-1.187-15.454a4.506 4.506 0 0 0 -2.996-2.098 4.542 4.542 0 0 0 -3.577.81z" fill="#fde399"/><path d="m154.895 129.666a1.198 1.198 0 0 0 -1.328-.264c-2.35.982-9.445 3.716-13.59 2.791-4.81-1.073 5.282 9.198 13.914 5.512 8.633-3.686 5.45-5.603 3.676-6.175-1.045-.337-2.069-1.249-2.672-1.864z" fill="#381400"/><path d="m146.356 137.992c2.364.676 5.012.79 7.535-.287a32.335 32.335 0 0 0 2.283-1.071c-.964-1.945-3.73-2.722-6.375-1.728-1.646.618-2.879 1.786-3.443 3.086z" fill="#ff4f41" fill-rule="nonzero"/><path d="m161.104 107.031a4.417 4.417 0 0 0 -2.584-3.806 4.45 4.45 0 0 0 -4.58.548l-4.8 3.75a4.23 4.23 0 0 0 -1.534 4.222 4.199 4.199 0 0 0 3.135 3.2l2.02.48a6.839 6.839 0 0 0 5.95-1.395 6.836 6.836 0 0 0 2.463-5.59zm-55.067 6.649c-.122-.04-10.827-2.82-16.223-2.934-2.177-.046-4.984-.334-8.076 1.722-4.05 2.693-8.657 19.865.087 29.09 2.976 3.141 12.594 7.055 17.944-.278 4.115-5.639-5.193-18.015-3.449-21.338 1.454-2.77 6.743-1.281 8.49-1.99.368-.15 1.535-.643 1.822-2.053.212-1.041-.182-1.865-.594-2.219z" fill="#381400"/><path d="m112.12 168.318.147.036c16.698 4.34 35.367 1.224 46.354-11.22.142-.16.325-.398.55-.715.444-.625.52-1.44.2-2.137l-2.989-6.51a1.041 1.041 0 0 0 -1.69-.294c-11.093 11.337-26.344 14.77-41.477 10.262a1.405 1.405 0 0 0 -1.795 1.164l-.925 7.049a2.145 2.145 0 0 0 1.625 2.365z" fill="#ff4f41" fill-rule="nonzero"/><g fill-rule="nonzero"><path d="m73.449 158.387a1.8 1.8 0 0 1 .133 2.542l-4.818 5.35a1.8 1.8 0 1 1 -2.675-2.408l4.818-5.35a1.8 1.8 0 0 1 2.542-.134zm119.282-58.338 6.022 6.688a2.7 2.7 0 0 1 -4.013 3.614l-6.022-6.688a2.7 2.7 0 0 1 4.013-3.614zm-144.257-8.072a2.7 2.7 0 0 1 -1.756 5.106c-3.209-1.103-4.839-.379-6.013 2.615a2.7 2.7 0 1 1 -5.027-1.973c2.244-5.718 6.884-7.781 12.796-5.748zm192.823-15.477a1.8 1.8 0 0 1 .954 2.36l-3.517 8.285a1.8 1.8 0 0 1 -3.314-1.407l3.517-8.285a1.8 1.8 0 0 1 2.36-.953zm-194.734-51.245a1.89 1.89 0 0 1 2.334-1.302l1.165.33.195.062a3.29 3.29 0 0 1 2.097 3.908l-.272 1.08 1.071.304.194.062a3.29 3.29 0 0 1 2.098 3.907l-.34 1.35-.05.165a1.89 1.89 0 0 1 -2.245 1.206l-.165-.05a1.89 1.89 0 0 1 -1.206-2.245l.225-.888-1.073-.305-.194-.061a3.29 3.29 0 0 1 -2.097-3.908l.273-1.08-.708-.2-.164-.055a1.89 1.89 0 0 1 -1.138-2.28zm75.066-3.975 7.226 8.026a2.7 2.7 0 0 1 -4.013 3.614l-7.226-8.026a2.7 2.7 0 0 1 4.013-3.614z" fill="#519808"/><path d="m226.154 143.231.183.316c.73 1.22 1.118 1.283 2.115.703a2.7 2.7 0 1 1 2.717 4.666c-3.816 2.222-7.458.993-9.723-3.04a2.7 2.7 0 0 1 4.708-2.645zm-153.277-94.23a2.7 2.7 0 0 1 2.652 2.747l-.188 10.798a2.7 2.7 0 0 1 -5.4-.094l.19-10.798a2.7 2.7 0 0 1 2.745-2.654zm89.775-28.91a1.89 1.89 0 0 1 2.67.134l.812.898.132.155a3.29 3.29 0 0 1 -.292 4.425l-.803.772.747.826.133.155a3.29 3.29 0 0 1 -.292 4.425l-1.005.964-.129.114a1.89 1.89 0 0 1 -2.543-.167l-.113-.13a1.89 1.89 0 0 1 .167-2.542l.662-.635-.749-.827-.132-.155a3.29 3.29 0 0 1 .292-4.425l.804-.77-.494-.547-.11-.133a1.89 1.89 0 0 1 .243-2.536z" fill="#4285f4"/><path d="m233.757 114.973a2.7 2.7 0 0 1 -2.298 3.05l-10.695 1.502a2.7 2.7 0 0 1 -.752-5.347l10.695-1.503a2.7 2.7 0 0 1 3.05 2.298zm-188.105-50.736a2.7 2.7 0 0 1 2.208 3.115l-.057.36c-.2 1.409.06 1.702 1.202 1.878a2.7 2.7 0 0 1 -.826 5.337c-4.364-.675-6.42-3.923-5.642-8.483a2.7 2.7 0 0 1 3.115-2.207zm100.92.343 8.889 1.408a1.8 1.8 0 1 1 -.564 3.556l-8.889-1.408a1.8 1.8 0 0 1 .563-3.556zm50.287-27.649a2.7 2.7 0 0 1 .126 3.684l-.126.135-.846.846 1.293 1.292a4.7 4.7 0 0 1 .162 6.476l-.162.17-1.293 1.294 1.04 1.038a2.7 2.7 0 0 1 .126 3.684l-.126.135a2.7 2.7 0 0 1 -3.684.126l-.135-.126-1.534-1.534a4.7 4.7 0 0 1 -.162-6.477l.162-.17 1.292-1.292-1.292-1.294a4.7 4.7 0 0 1 -.162-6.477l.162-.17 1.34-1.34a2.7 2.7 0 0 1 3.819 0z" fill="#9b1ff4"/><path d="m182.934 151.462 1.397 5.216a1.8 1.8 0 1 1 -3.477.932l-1.398-5.216a1.8 1.8 0 0 1 3.478-.932zm-125.802-47.396a1.89 1.89 0 0 1 1.585 1.996l-.02.17-.117.728 1.095.209a3.29 3.29 0 0 1 2.655 3.552l-.027.202-.177 1.1.9.172a1.89 1.89 0 0 1 1.526 2.042l-.025.17a1.89 1.89 0 0 1 -2.042 1.525l-.17-.024-1.368-.263a3.29 3.29 0 0 1 -2.654-3.552l.026-.202.177-1.099-1.094-.21a3.29 3.29 0 0 1 -2.655-3.552l.026-.202.193-1.196a1.89 1.89 0 0 1 2.166-1.566zm126.653-29.592a2.7 2.7 0 0 1 .333 3.804l-4.628 5.515a2.7 2.7 0 0 1 -4.137-3.47l4.628-5.516a2.7 2.7 0 0 1 3.804-.333zm-85.83-35.735a2.7 2.7 0 0 1 .663 3.76l-4.13 5.899a2.7 2.7 0 1 1 -4.423-3.098l4.13-5.898a2.7 2.7 0 0 1 3.76-.663zm52.253-1.565.625 3.546a1.8 1.8 0 0 1 -3.545.625l-.625-3.546a1.8 1.8 0 1 1 3.545-.625zm86.128-4.571 4.197 3.397a2.7 2.7 0 1 1 -3.398 4.196l-4.197-3.398a2.7 2.7 0 1 1 3.398-4.196z" fill="#ff4f41"/><path d="m204.757 70.833a2.7 2.7 0 0 1 3.513-1.496c4.627 1.862 6.71 5.445 5.603 10a2.7 2.7 0 0 1 -5.247-1.277c.444-1.824-.13-2.812-2.373-3.714a2.7 2.7 0 0 1 -1.496-3.513zm-83.104-15.558a2.7 2.7 0 0 1 1.216 3.62c-2.734 5.5-7.536 7.152-13.249 4.61a2.7 2.7 0 0 1 2.195-4.933c3.1 1.379 4.787.799 6.219-2.081a2.7 2.7 0 0 1 3.619-1.216zm-38.197-32.793a2.7 2.7 0 0 1 -3.223-2.048c-1.338-5.996 1.355-10.301 7.394-11.922a2.7 2.7 0 1 1 1.4 5.216c-3.278.88-4.224 2.392-3.524 5.53a2.7 2.7 0 0 1 -2.047 3.224zm110.497 157.738a2.7 2.7 0 0 1 -2.95-2.425c-.597-6.114 2.601-10.059 8.792-10.932a2.7 2.7 0 1 1 .754 5.347c-3.36.474-4.484 1.86-4.171 5.06a2.7 2.7 0 0 1 -2.425 2.95zm-154.793-41.007a2.7 2.7 0 0 1 -2.249-3.086c1.061-6.756 5.048-10.498 11.376-10.423a2.7 2.7 0 0 1 -.063 5.4c-3.519-.042-5.316 1.645-5.978 5.86a2.7 2.7 0 0 1 -3.086 2.25z" fill="#fab500"/></g><path d="m114.049 115.078c7.502-6.522 11.032-15.398 8.933-17.813-1.363-1.568-15.95-8.75-43.763-21.547a1 1 0 0 0 -1.352 1.265c10.602 27.7 16.583 42.333 17.946 43.9 2.098 2.415 10.733.717 18.236-5.805z" fill="#27a9f6"/><path d="m85.034 77.946v-.008l5.444 2.524 2.063.961c-1.085 5.18-3.256 9.899-6.496 14.123l-1.735-4.445c-.6-1.54-1.22-3.142-1.861-4.802 1.3-2.592 2.159-5.372 2.585-8.353zm11.508 5.877.067-.496 2.644 1.244c1.718.81 3.347 1.584 4.887 2.319-1.61 8.377-5.842 15.852-12.637 22.327l-1.27-3.12a929.99 929.99 0 0 1 -1.993-4.985c4.644-5.152 7.395-10.888 8.302-17.289zm11.949 5.508.046-.328 2.958 1.441a384.37 384.37 0 0 1 4.538 2.262c-2.273 11.889-8.723 21.341-19.255 28.135-.53-.654-1.687-3.086-3.473-7.294 8.672-5.886 13.7-13.878 15.186-24.216z" fill="#000" fill-opacity=".1"/></g></svg>