<svg height="192" viewBox="0 0 264 192" width="264" xmlns="http://www.w3.org/2000/svg" xmlns:xlink="http://www.w3.org/1999/xlink"><defs><path id="a" d="m119.494 161.185-2.126-1.926c-14.678-13.233-24.368-21.961-24.368-32.673 0-8.728 6.897-15.586 15.675-15.586 4.959 0 9.719 2.295 12.825 5.923 3.106-3.628 7.866-5.923 12.825-5.923 8.778 0 15.675 6.858 15.675 15.586 0 10.712-9.69 19.44-24.368 32.702l-2.12 1.904a3 3 0 0 1 -4.018-.007z"/><filter id="b" height="113.4%" width="112.3%" x="-3.5%" y="-3.8%"><feOffset dx="3" dy="4" in="SourceAlpha" result="shadowOffsetOuter1"/><feColorMatrix in="shadowOffsetOuter1" values="0 0 0 0 0.898039216 0 0 0 0 0.690196078 0 0 0 0 0.0666666667 0 0 0 1 0"/></filter></defs><g fill="none" fill-rule="evenodd"><path d="m42.34 190.357c-44.704-2.364-40.358-54.003-23.126-71.376 18.535-18.687 25.38-9.954 27.694-35.477 2.203-24.29 44.383-52.097 83.507-53.459 51.388-1.789 67 49.758 76.259 63.224 12.42 18.064 58.312 12.664 50.42 65.693-4.88 32.788-50.11 32.97-50.11 32.97s-124.134.568-164.644-1.575z" fill="#f6f6f6"/><path d="m153.194 185.293h-52.182v-13.217h51.084z" fill="#e5b011"/><g transform="translate(71 3)"><path d="m19.21 45.345c3.193 13.137 5.403 23.043 6.629 29.718 1.225 6.675 19.017 6.675 53.374 0 2.967-13.313 4.988-22.555 6.062-27.726 1.075-5.172-20.947-5.836-66.065-1.992z" fill="#f9c93b"/><circle cx="52.5" cy="36.5" fill="#f9c93b" r="34.5"/><path d="m36.33 30c1.287 0 2.331 1.192 2.331 2.66s-1.044 2.66-2.33 2.66c-1.287 0-2.331-1.192-2.331-2.66s1.044-2.66 2.33-2.66zm32 0c1.287 0 2.331 1.192 2.331 2.66s-1.044 2.66-2.33 2.66c-1.287 0-2.331-1.192-2.331-2.66s1.044-2.66 2.33-2.66z" fill="#381400"/><ellipse cx="53" cy="53.5" fill="#fde399" rx="24" ry="16.5"/><path d="m43.386 49.434a4.514 4.514 0 0 1 .332-4.27 4.504 4.504 0 0 1 3.747-2.066c3.155-.033 8.092-.068 11.39-.098a4.37 4.37 0 0 1 3.854 2.239 4.38 4.38 0 0 1 -.11 4.46c-1.995 3.197-5.107 6.303-9.647 6.185-4.626-.121-8.174-3.299-9.566-6.45zm-17.283-45.69c-1.738-1.422-3.833-3.442-7.648-3.734-4.995-.384-19.627 10.663-18.38 23.734.425 4.45 5.75 13.752 14.745 11.186 6.916-1.974 7.21-17.968 10.733-19.563 2.937-1.33 3.286 3.245 5.155 3.779.393.112 1.653.453 2.78-.512.833-.713 1.036-1.634.925-2.184-.074-.11-4.001-9.182-8.309-12.706zm49.234 0c1.738-1.422 3.833-3.442 7.648-3.734 4.996-.384 19.627 10.663 18.38 23.734-.425 4.45-5.75 13.752-14.744 11.186-6.916-1.974-7.21-17.968-10.733-19.563-2.937-1.33-3.286 3.245-5.155 3.779-.393.112-1.653.453-2.78-.512-.833-.713-1.036-1.634-.925-2.184.074-.11 4.001-9.182 8.309-12.706z" fill="#381400"/><path d="m49 62c3.895 1.333 7.702.833 11.421-1.5" stroke="#381400" stroke-linecap="round" stroke-linejoin="round" stroke-width="2"/></g><path d="m189.798 138.067.978-.067h.003l.921.342.727.672.458.906.115 1.041v.002l-.006.077-.006.079-.006.079-.007.078-.006.079-.007.078-.014.157-.007.078-.007.078-.008.078-.007.078-.008.077-.007.078-.008.077-.016.154-.009.077-.008.077-.009.077-.017.153-.018.153-.019.152-.01.075-.019.152-.01.075-.01.075-.02.15-.01.076-.01.075-.01.074-.012.075-.01.074-.011.075-.012.074-.01.074-.012.074-.023.148-.012.073-.012.074-.024.146-.012.073-.038.219-.012.073-.013.072-.013.072-.013.073-.014.072-.013.072-.013.072-.028.143-.014.072-.014.071-.014.072-.014.07-.014.072-.015.07-.014.071-.015.071-.015.072-.03.14-.03.14-.031.14-.032.139-.031.139-.033.138-.033.138-.033.137-.034.137-.034.136-.035.136-.035.136-.036.135-.036.134-.036.134-.038.134-.037.133-.038.133-.038.132-.04.131-.039.132-.04.13-.04.13-.04.13-.041.13-.042.128-.042.129-.042.128-.043.127-.044.127-.044.126-.044.126-.044.126-.046.125-.045.125-.046.124-.046.123-.047.124-.047.122-.048.123-.048.121-.048.122-.049.12-.05.12-.049.12-.05.12-.05.12-.051.118-.052.118-.052.117-.052.117-.052.117-.053.116-.053.116-.054.115-.054.115-.054.114-.055.114-.056.113-.055.113-.056.113-.057.112-.056.111-.057.111-.058.11-.058.11-.058.11-.058.11-.06.108-.059.109-.06.108-.06.107-.06.107-.06.106-.061.106-.062.106-.061.105-.063.104-.062.104-.063.104-.063.103-.063.103-.064.102-.064.102-.064.101-.065.101-.065.1-.066.1-.065.1-.066.1-.067.098-.066.098-.067.098-.067.097-.068.097-.068.096-.068.096-.068.095-.069.095-.069.094-.069.094-.07.094-.07.093-.07.093-.07.092-.07.092-.071.091-.071.09-.072.091-.071.09-.073.09-.072.089-.072.088-.073.088-.073.088-.073.087-.073.087-.074.086-.074.086-.074.085-.075.085-.074.085-.075.084-.075.084-.075.083-.076.082-.076.083-.076.082-.076.08-.076.082-.077.08-.076.08-.078.08-.077.08-.077.078-.077.078-.078.078-.078.078-.078.077-.078.076-.079.076-.079.076-.078.075-.08.075-.078.074-.08.074-.08.074-.079.073-.08.073-.08.072-.08.071-.08.072-.08.07-.08.071-.081.07-.08.07-.082.07-.08.068-.082.069-.081.067-.081.068-.082.067-.082.067-.081.066-.082.066-.082.066-.082.065-.082.065-.083.064-.082.064-.082.063-.083.063-.083.063-.082.062-.083.062-.083.06-.083.062-.083.06-.083.06-.083.06-.083.06-.084.06-.083.058-.084.058-.083.058-.084.057-.083.057-.084.057-.084.056-.083.056-.084.056-.084.055-.084.054-.084.055-.084.054-.083.053-.084.053-.084.053-.085.053-.084.052-.084.051-.084.052-.084.05-.084.051-.084.05-.084.05-.084.05-.084.049-.084.049-.084.048-.084.048-.084.048-.084.047-.084.047-.084.047-.084.046-.084.046-.084.045-.084.045-.084.045-.084.045-.084.044-.083.044-.168.086-.167.086-.084.042-.083.041-.083.042-.084.04-.083.042-.083.04-.083.04-.084.04-.083.04-.083.039-.082.038-.083.039-.166.076-.165.075-.082.036-.165.073-.082.036-.082.036-.082.035-.082.035-.163.07-.081.033-.082.034-.081.034-.081.033-.081.033-.081.032-.081.033-.08.032-.081.031-.08.032-.081.031-.16.061-.08.03-.08.03-.08.03-.079.03-.08.029-.079.029-.079.028-.078.029-.08.028-.078.028-.078.027-.079.027-.078.028-.078.026-.077.027-.078.026-.077.026-.078.025-.077.026-.077.025-.076.025-.077.024-.076.025-.076.024-.076.024-.076.023-.076.024-.075.023-.075.023-.076.022-.074.023-.075.022-.149.044-.147.042-.074.021-.073.02-.074.021-.073.02-.072.02-.073.02-.072.02-.072.02-.072.018-.071.02-.143.037-.07.018-.074.018-.138.035-.14.035-.138.034-.138.032-.136.032-.136.032-.134.03-.134.03-.132.029-.131.028-.13.027-.13.027-.127.026-.127.025-.125.024-.124.024-.123.023-.122.022-.12.022-.12.021-.118.02-.117.02-.115.02-.114.018-.113.018-.111.017-.11.017-.11.016-.106.015-.106.015-.105.014-.103.014-.1.014-.101.012-.098.013-.097.011-.096.012-.094.01-.092.011-.09.01-.09.01-.088.008-.086.009-.084.008-.083.008-.08.007-.08.007-.078.007-.076.006-.074.006-.072.005-.071.005-.07.005-.066.005-.069.004-.121.007-.118.006-.11.006-.103.004-.095.003-.087.003-.079.002h-.07l-.063.001h-.135l-1.104-.168-1.02-.373-.915-.555-.786-.713-.635-.847-.465-.958-.272-1.045-.057-1.107v-.004l.169-1.095.376-1.014.558-.907.718-.78.854-.63.965-.462 1.053-.27 1.116-.056h.001l.002.001.006.002-.024-.001.016.003.012.003.019.004.026.004.034.005.04.006.048.006.055.006.061.007.072.007.033.003.038.004.04.003.041.003.043.004.044.003.046.003.048.004.049.003.05.003.052.003.054.004.055.002.056.003.058.003.059.002.06.003.062.002.064.002.064.002.066.002.068.001.068.002.07.001.071.001h.072l.074.001h.307l.08-.001.08-.001.082-.002.083-.001.084-.002.085-.003.087-.003.087-.003.088-.003.09-.004.09-.004.092-.005.092-.005.094-.005.094-.006.095-.006.096-.007.098-.007.098-.008.098-.008.1-.008.101-.01.102-.009.104-.01.05-.005.051-.005.052-.006.104-.011.053-.006.052-.006.106-.012.053-.006.054-.007.053-.007.054-.006.108-.015.055-.007.054-.007.054-.008.11-.015.11-.016.056-.008.056-.009.056-.009.056-.008.056-.01.056-.008.056-.01.057-.009.113-.019.058-.01.057-.01.057-.01.057-.01.058-.011.058-.01.116-.023.058-.01.058-.012.058-.012.059-.011.059-.012.058-.013.06-.012.058-.012.06-.013.118-.026.119-.026.06-.014.06-.013.12-.028.06-.015.06-.014.06-.015.06-.015.061-.015.06-.015.061-.016.061-.015.06-.016.062-.016.06-.016.062-.017.061-.016.123-.034.061-.018.124-.035.062-.018.061-.018.062-.018.062-.019.062-.019.062-.019.062-.019.063-.019.062-.02.124-.04.063-.02.062-.02.063-.021.063-.021.062-.021.063-.022.126-.043.063-.022.062-.023.063-.022.126-.046.064-.023.063-.024.063-.023.063-.025.063-.024.064-.024.126-.05.064-.025.063-.026.063-.025.064-.026.063-.026.127-.054.064-.027.063-.027.064-.027.064-.028.063-.028.064-.028.127-.057.064-.03.063-.029.064-.03.064-.03.127-.06.064-.03.064-.031.063-.031.128-.064.063-.032.064-.032.064-.033.127-.066.064-.033.063-.034.064-.034.064-.034.063-.035.064-.035.064-.035.063-.035.127-.072.064-.037.063-.036.064-.037.063-.037.063-.038.064-.038.063-.038.064-.039.063-.038.063-.04.063-.039.064-.04.063-.04.063-.04.063-.041.063-.041.063-.041.063-.042.063-.042.063-.042.063-.043.063-.043.125-.087.063-.044.063-.044.062-.045.063-.045.062-.045.063-.046.062-.046.062-.047.063-.046.062-.047.124-.096.062-.048.062-.049.062-.048.062-.05.062-.05.062-.05.062-.05.061-.05.062-.052.061-.051.062-.052.061-.052.061-.053.062-.053.06-.053.062-.054.06-.054.062-.055.06-.055.061-.055.06-.056.062-.056.06-.057.06-.057.06-.057.061-.058.06-.058.06-.059.06-.059.06-.06.06-.059.06-.06.06-.06.059-.062.06-.062.059-.062.059-.062.059-.063.059-.063.059-.064.059-.064.058-.065.059-.065.058-.065.059-.066.058-.067.058-.066.058-.068.058-.067.058-.069.058-.068.057-.07.058-.07.057-.07.057-.07.057-.07.057-.072.057-.072.057-.073.056-.073.057-.073.056-.074.056-.075.056-.075.056-.075.055-.076.056-.077.055-.076.056-.078.055-.078.055-.078.055-.08.054-.079.055-.08.054-.08.054-.081.054-.082.054-.082.054-.082.053-.084.054-.083.053-.085.053-.084.053-.086.053-.085.052-.087.052-.087.053-.087.052-.088.051-.089.052-.089.051-.09.051-.09.051-.09.051-.092.05-.092.051-.093.05-.093.05-.093.05-.095.05-.094.05-.096.049-.096.048-.096.05-.097.048-.098.048-.099.048-.099.048-.099.047-.1.048-.1.047-.102.047-.102.047-.103.046-.103.046-.104.046-.104.046-.105.045-.106.046-.106.045-.107.045-.107.044-.108.044-.109.044-.11.044-.11.043-.11.043-.111.043-.112.043-.113.043-.114.02-.056.042-.114.021-.057.02-.057.022-.058.02-.058.041-.116.02-.058.021-.059.02-.058.02-.059.02-.059.02-.059.04-.119.02-.06.02-.059.04-.12.02-.06.019-.06.038-.122.02-.06.019-.062.019-.061.019-.062.019-.061.019-.062.019-.062.018-.062.019-.062.018-.062.019-.063.018-.063.019-.063.018-.063.018-.063.018-.064.036-.127.018-.064.017-.064.035-.129.018-.064.035-.13.017-.065.017-.066.034-.13.017-.066.017-.067.016-.066.034-.132.016-.067.016-.067.017-.067.016-.067.016-.068.016-.067.032-.136.016-.068.015-.068.016-.071v-.002l.414-.964.7-.74z" fill="#381400"/><path d="m153.324 185.5h22.676a5 5 0 0 0 5-5v-.212c0-3.32-1.398-6.486-3.851-8.723l-8.398-7.657c5.142-5.607 7.465-14.815 6.972-27.623-.494-12.808-9.819-30.57-27.975-53.285l-47.748 2c-15.667 22.065-23 39.16-22 51.285 1 12.126 4 19.864 9 23.215l-7.359 8.525a17.044 17.044 0 0 0 -4.141 11.137v1.338a5 5 0 0 0 5 5h20.541a6 6 0 0 0 5.745-4.27l2.077-6.894c4.529 7.11 10.733 10.664 18.612 10.664 7.88 0 14.364-3.555 19.455-10.664l.41 5.603a6 6 0 0 0 5.984 5.561z" fill="#f9c93b"/><g fill-rule="nonzero"><path d="m112.872 152.682c-14.757-1.135-24.133-3.223-28.468-6.552-.225-.177-.225-.177-.58-.622-.445-.786-.445-.786-.248-2.294.756-1.133.756-1.133 1.382-1.414.432-.145.432-.145.671-.178.302-.038.527-.027.837.008.313.036.749.108 1.34.22 1.099.21 2.785.568 5.07 1.077 4.537 1.01 11.457 2.62 20.766 4.83 2.999.713 2.304 5.162-.77 4.925z" fill="#e5b011"/><g transform="translate(7 3)"><use fill="#000" filter="url(#b)" xlink:href="#a"/><use fill="#f95e1d" xlink:href="#a"/></g><path d="m160.871 127.145c1.946-3.967 4.739-5.606 8.706-3.66a8 8 0 0 1 3.66 10.705c-4.821 9.828-15.493 13.462-35.71 13.2a8 8 0 1 1 .208-16c7.944.104 14.077-.495 18.286-1.702 3.093-.887 4.513-1.857 4.85-2.543zm-66.837.358c2.356 2.361 10.121 4.053 22.858 3.888a8 8 0 1 1 .207 15.999c-16.75.217-28.068-2.249-34.391-8.585a8 8 0 1 1 11.326-11.302z" fill="#f9c93b"/><path d="m150.289 151.954a2.5 2.5 0 1 1 -.817-4.933c9.333-1.545 16-3.533 19.929-5.881a2.5 2.5 0 0 1 2.565 4.292c-4.578 2.736-11.78 4.883-21.677 6.522z" fill="#e5b011"/></g><path d="m98.375 77.456a198.44 198.44 0 0 0 24.853 1.544c8.526 0 17.334-.53 26.425-1.588a3 3 0 0 1 3.347 2.98v4.955a3 3 0 0 1 -2.647 2.98c-9.43 1.114-18.356 1.673-26.776 1.673-8.382 0-17.031-.553-25.946-1.659a3 3 0 0 1 -2.631-2.977v-4.932a3 3 0 0 1 3.375-2.976z" fill="#f95e1d"/></g></svg>