<svg height="24" viewBox="0 0 24 24" width="24" xmlns="http://www.w3.org/2000/svg"><path d="m2 6v12a4 4 0 0 0 4 4h12a4 4 0 0 0 4-4v-12a4 4 0 0 0 -4-4h-12a4 4 0 0 0 -4 4zm16.616.737-1.071 1.026a.315.315 0 0 0 -.12.3v7.558a.307.307 0 0 0 .12.299l1.049 1.026v.228h-5.268v-.219l1.085-1.053c.107-.107.107-.139.107-.3v-6.11l-3.018 7.66h-.406l-3.514-7.66v5.133a.706.706 0 0 0 .197.59l1.41 1.71v.227h-4.007v-.228l1.41-1.71a.683.683 0 0 0 .183-.589v-5.938a.51.51 0 0 0 -.17-.437l-1.254-1.513v-.228h3.898l3.008 6.607 2.648-6.603h3.714v.224z"/></svg>