<svg fill="none" height="140" viewBox="0 0 487 140" width="487" xmlns="http://www.w3.org/2000/svg" xmlns:xlink="http://www.w3.org/1999/xlink"><clipPath id="a"><path d="m0 0h487v140h-487z"/></clipPath><g clip-path="url(#a)"><path d="m0 0h487v140h-487z" fill="#ff4f41"/><path d="m41.8635 109.844c-7.9714-.781-19.512-7.431-20.3307-25.8455-.8188-18.4144 8.0904-33.6877 18.8605-42.1367 13.985-10.971 25.7677-15.2166 52.6517 2.0705 21.438 13.785 25.933 48.9895 11.908 57.9767-14.0257 8.988-55.118 8.717-63.0895 7.935z" fill="#fff" fill-opacity=".12"/><path d="m74.1521 58.9282-6.7609-16.0466c-1.2163-2.9209-5.3658-2.9209-6.5821 0l-6.7609 16.0827-17.2778 1.4785c-3.148.2524-4.4358 4.219-2.039 6.3104l13.1283 11.4671-3.9349 17.0203c-.7155 3.1012 2.6113 5.5534 5.33 3.8945l14.8454-9.015 14.8453 9.051c2.7187 1.6589 6.0455-.7933 5.3301-3.8944l-3.9349-17.0564 13.1283-11.4671c2.3967-2.0914 1.1447-6.058-2.0033-6.3104z" fill="#fab500"/><path clip-rule="evenodd" d="m65.3851 72.0787c.171.1135.3174.2602.4306.4314l17.3795 26.2887c-1.0528.9295-2.6275 1.2472-4.0597.4601l-.1529-.0886-14.8454-9.051-14.8453 9.015c-1.2453.7598-2.6182.657-3.6718.0245l17.6433-26.6496c.4672-.7055 1.4171-.8983 2.1217-.4305z" fill="#faa402" fill-rule="evenodd" opacity=".729469"/><path clip-rule="evenodd" d="m64.1063 40.6899.0333 27.1742c.001.8466-.6835 1.5337-1.5289 1.5347-.1218 0-.2432-.0142-.3616-.0429l-28.3761-6.8693c.4825-1.0406 1.447-1.8589 2.7536-2.0262l.1803-.0187 17.2779-1.4785 6.7609-16.0827c.5794-1.3914 1.8244-2.12 3.1009-2.1858z" fill="#ffc326" fill-rule="evenodd"/><g fill="#f9a801"><path d="m87.0541 43.8659c.2845-.3131.7686-.336 1.0812-.0511.2886.2629.3303.6962.1113 1.0075l-.0602.0752-6.1811 6.8027c-.2844.3131-.7685.336-1.0812.0511-.2886-.2629-.3303-.6962-.1112-1.0075l.0602-.0752z"/><path d="m88.6656 80.9952c.1616-.3582.564-.5317.9291-.4153l.0835.0321 8.371 3.7844c.3852.1742.5565.6281.3826 1.0139-.1615.3583-.5639.5318-.929.4153l-.0835-.0321-8.371-3.7844c-.3853-.1742-.5566-.6281-.3827-1.0139z"/><path d="m37.9497 80.9369c.3919-.1586.838.031.9964.4235.147.3644-.0058.7756-.3421.9594l-.0809.0383-8.5157 3.4453c-.392.1586-.838-.031-.9964-.4235-.147-.3644.0057-.7756.3421-.9595l.0808-.0382z"/><path d="m40.0247 43.8038c.29-.2614.7247-.2599 1.0123-.0107l.0687.0674 6.1456 6.8348c.2829.3146.2575.7992-.0566 1.0825-.29.2614-.7247.2599-1.0123.0107l-.0686-.0675-6.1457-6.8348c-.2829-.3146-.2575-.7992.0566-1.0824z"/></g><path d="m28.7171 44.7329c.8174.908.7441 2.3067-.1637 3.1243-.9081.8178-2.3073.7445-3.1249-.1638l-4.9344-5.4812c-.8174-.908-.7441-2.3067.1637-3.1243.9081-.8178 2.3073-.7445 3.1249.1638z" fill="#58a509"/><path d="m110.527 107.234c-.929.929-2.436.929-3.366 0-.929-.93-.929-2.437 0-3.367l5.611-5.6092c.93-.9293 2.436-.9293 3.366 0 .929.9295.929 2.4372 0 3.3662z" fill="#58a509"/><path d="m18.8453 99.9697c-.0564-1.0881.7816-2.0159 1.8697-2.0723 1.088-.0563 2.0173.7799 2.0737 1.8679l.4088 7.8877c.0564 1.088-.7817 2.016-1.8697 2.073-1.088.056-2.0174-.78-2.0737-1.868z" fill="#9b1ff4"/><g stroke-linecap="round"><path d="m53.4086 29.922s1.0965-4.5086-3.7578-6.4627" stroke="#fcc840" stroke-linejoin="round" stroke-width="5.08486"/><path d="m102.947 35.3901s-1.575 4.5369 3.733 8.1715" stroke="#9b1ff4" stroke-linejoin="round" stroke-width="5.08486"/><path d="m60.1422 118.781s6.2481-.143 6.0337-5.693" stroke="#27a9f6" stroke-linejoin="round" stroke-width="5.04282"/></g><path d="m140.448 61c-.16 0-.296-.056-.408-.168s-.168-.248-.168-.408v-15.624c0-.176.048-.32.144-.432.112-.112.256-.168.432-.168h1.872c.304 0 .536.136.696.408l6.864 10.656v-10.464c0-.176.048-.32.144-.432.112-.112.256-.168.432-.168h2.064c.176 0 .32.056.432.168s.168.256.168.432v15.6c0 .176-.056.32-.168.432s-.248.168-.408.168h-1.896c-.32 0-.56-.136-.72-.408l-6.84-10.416v10.248c0 .16-.056.296-.168.408-.096.112-.232.168-.408.168zm21.649.24c-1.888 0-3.344-.48-4.368-1.44s-1.576-2.288-1.656-3.984l-.024-1.056.024-1.056c.08-1.68.64-3 1.68-3.96 1.04-.976 2.488-1.464 4.344-1.464 1.84 0 3.28.488 4.32 1.464 1.04.96 1.6 2.28 1.68 3.96.016.192.024.544.024 1.056s-.008.864-.024 1.056c-.08 1.696-.632 3.024-1.656 3.984s-2.472 1.44-4.344 1.44zm0-2.424c.848 0 1.496-.264 1.944-.792.464-.528.712-1.304.744-2.328.016-.16.024-.472.024-.936s-.008-.776-.024-.936c-.032-1.024-.28-1.8-.744-2.328-.464-.544-1.112-.816-1.944-.816-.848 0-1.504.272-1.968.816-.464.528-.712 1.304-.744 2.328l-.024.936.024.936c.032 1.024.28 1.8.744 2.328s1.12.792 1.968.792zm12.653 2.184c-.24 0-.424-.048-.552-.144-.128-.112-.232-.264-.312-.456l-4.512-11.136c-.016-.048-.024-.12-.024-.216 0-.144.048-.264.144-.36.112-.112.232-.168.36-.168h1.992c.32 0 .536.152.648.456l3.168 8.376 3.168-8.376c.032-.112.096-.216.192-.312.112-.096.256-.144.432-.144h1.992c.144 0 .264.056.36.168.096.096.144.216.144.36 0 .096-.008.168-.024.216l-4.488 11.136c-.176.4-.464.6-.864.6zm14.487.24c-1.888 0-3.344-.48-4.368-1.44s-1.576-2.288-1.656-3.984l-.024-1.056.024-1.056c.08-1.68.64-3 1.68-3.96 1.04-.976 2.488-1.464 4.344-1.464 1.84 0 3.28.488 4.32 1.464 1.04.96 1.6 2.28 1.68 3.96.016.192.024.544.024 1.056s-.008.864-.024 1.056c-.08 1.696-.632 3.024-1.656 3.984s-2.472 1.44-4.344 1.44zm0-2.424c.848 0 1.496-.264 1.944-.792.464-.528.712-1.304.744-2.328.016-.16.024-.472.024-.936s-.008-.776-.024-.936c-.032-1.024-.28-1.8-.744-2.328-.464-.544-1.112-.816-1.944-.816-.848 0-1.504.272-1.968.816-.464.528-.712 1.304-.744 2.328l-.024.936.024.936c.032 1.024.28 1.8.744 2.328s1.12.792 1.968.792zm9.259 2.184c-.16 0-.296-.056-.408-.168s-.168-.248-.168-.408v-11.304c0-.176.056-.32.168-.432s.248-.168.408-.168h1.968c.176 0 .32.056.432.168s.168.256.168.432v.984c.8-1.056 1.952-1.584 3.456-1.584h1.008c.176 0 .312.056.408.168.112.096.168.232.168.408v1.752c0 .16-.056.296-.168.408-.096.112-.232.168-.408.168h-1.896c-.752 0-1.344.216-1.776.648s-.648 1.024-.648 1.776v6.576c0 .16-.056.296-.168.408s-.248.168-.408.168zm14.859.24c-1.888 0-3.344-.48-4.368-1.44s-1.576-2.288-1.656-3.984l-.024-1.056.024-1.056c.08-1.68.64-3 1.68-3.96 1.04-.976 2.488-1.464 4.344-1.464 1.84 0 3.28.488 4.32 1.464 1.04.96 1.6 2.28 1.68 3.96.016.192.024.544.024 1.056s-.008.864-.024 1.056c-.08 1.696-.632 3.024-1.656 3.984s-2.472 1.44-4.344 1.44zm0-2.424c.848 0 1.496-.264 1.944-.792.464-.528.712-1.304.744-2.328.016-.16.024-.472.024-.936s-.008-.776-.024-.936c-.032-1.024-.28-1.8-.744-2.328-.464-.544-1.112-.816-1.944-.816-.848 0-1.504.272-1.968.816-.464.528-.712 1.304-.744 2.328l-.024.936.024.936c.032 1.024.28 1.8.744 2.328s1.12.792 1.968.792zm14.082 2.424c-1.76 0-3.168-.488-4.224-1.464-1.04-.976-1.592-2.328-1.656-4.056l-.024-.96.024-.96c.064-1.728.616-3.08 1.656-4.056 1.056-.976 2.464-1.464 4.224-1.464 1.264 0 2.328.224 3.192.672.88.448 1.528 1 1.944 1.656.432.64.664 1.256.696 1.848.016.16-.04.296-.168.408-.112.112-.248.168-.408.168h-2.136c-.176 0-.304-.032-.384-.096-.08-.08-.16-.216-.24-.408-.24-.608-.56-1.048-.96-1.32-.384-.272-.88-.408-1.488-.408-.816 0-1.456.256-1.92.768-.448.512-.688 1.296-.72 2.352l-.024.888.024.792c.096 2.08.976 3.12 2.64 3.12.624 0 1.128-.128 1.512-.384.384-.272.696-.72.936-1.344.064-.176.136-.304.216-.384.096-.08.232-.12.408-.12h2.136c.16 0 .296.056.408.168.128.112.184.248.168.408-.032.56-.256 1.168-.672 1.824-.416.64-1.056 1.192-1.92 1.656s-1.944.696-3.24.696zm-.696-14.52c-.16 0-.296-.024-.408-.072s-.248-.152-.408-.312l-2.328-2.424c-.144-.128-.216-.264-.216-.408 0-.208.12-.312.36-.312h.888c.288 0 .536.056.744.168l2.04 1.272 2.04-1.272c.208-.112.456-.168.744-.168h.912c.24 0 .36.104.36.312 0 .144-.072.28-.216.408l-2.352 2.424c-.144.16-.28.264-.408.312-.112.048-.248.072-.408.072zm9.607 14.28c-.16 0-.296-.056-.408-.168s-.169-.248-.169-.408v-11.328c0-.176.057-.312.169-.408.112-.112.248-.168.408-.168h1.992c.176 0 .312.056.408.168.112.096.168.232.168.408v.984c.976-1.2 2.312-1.8 4.008-1.8 1.472 0 2.64.48 3.504 1.44s1.296 2.28 1.296 3.96v6.744c0 .16-.056.296-.168.408-.096.112-.232.168-.408.168h-2.16c-.16 0-.296-.056-.408-.168s-.168-.248-.168-.408v-6.6c0-.928-.232-1.648-.696-2.16-.448-.528-1.096-.792-1.944-.792-.816 0-1.472.264-1.968.792s-.744 1.248-.744 2.16v6.6c0 .16-.056.296-.168.408-.096.112-.232.168-.408.168zm15 0c-.16 0-.296-.056-.408-.168s-.169-.248-.169-.408v-11.328c0-.176.057-.312.169-.408.112-.112.248-.168.408-.168h2.04c.16 0 .296.056.408.168s.168.248.168.408v11.328c0 .16-.056.296-.168.408s-.248.168-.408.168zm-.024-14.28c-.256 0-.384-.128-.384-.384 0-.128.04-.232.12-.312l1.968-2.376c.144-.176.272-.296.384-.36.128-.064.296-.096.504-.096h2.424c.144 0 .256.048.336.144.08.08.12.192.12.336 0 .112-.04.208-.12.288l-3 2.448c-.144.112-.28.192-.408.24-.112.048-.256.072-.432.072zm11.836 14.28c-.16 0-.296-.056-.408-.168s-.168-.248-.168-.408v-11.328c0-.176.056-.312.168-.408.112-.112.248-.168.408-.168h1.992c.176 0 .312.056.408.168.112.096.168.232.168.408v.984c.976-1.2 2.312-1.8 4.008-1.8 1.472 0 2.64.48 3.504 1.44s1.296 2.28 1.296 3.96v6.744c0 .16-.056.296-.168.408-.096.112-.232.168-.408.168h-2.16c-.16 0-.296-.056-.408-.168s-.168-.248-.168-.408v-6.6c0-.928-.232-1.648-.696-2.16-.448-.528-1.096-.792-1.944-.792-.816 0-1.472.264-1.968.792s-.744 1.248-.744 2.16v6.6c0 .16-.056.296-.168.408-.096.112-.232.168-.408.168zm18.048.24c-.816 0-1.568-.16-2.256-.48-.672-.336-1.208-.784-1.608-1.344-.384-.56-.576-1.176-.576-1.848 0-1.088.44-1.968 1.32-2.64s2.088-1.128 3.624-1.368l3.288-.48v-.504c0-.688-.176-1.208-.528-1.56s-.912-.528-1.68-.528c-.528 0-.952.096-1.272.288s-.584.392-.792.6c-.192.192-.32.32-.384.384-.064.192-.184.288-.36.288h-1.872c-.144 0-.272-.048-.384-.144-.096-.096-.144-.224-.144-.384.016-.4.208-.848.576-1.344.384-.512.968-.952 1.752-1.32.784-.384 1.752-.576 2.904-.576 1.888 0 3.264.424 4.128 1.272s1.296 1.96 1.296 3.336v7.536c0 .16-.056.296-.168.408-.096.112-.232.168-.408.168h-1.992c-.16 0-.296-.056-.408-.168s-.168-.248-.168-.408v-.936c-.352.512-.848.936-1.488 1.272-.64.32-1.44.48-2.4.48zm.816-2.304c.88 0 1.6-.288 2.16-.864s.84-1.408.84-2.496v-.48l-2.4.384c-1.84.288-2.76.904-2.76 1.848 0 .512.208.912.624 1.2.432.272.944.408 1.536.408zm16.23 2.304c-1.664 0-2.936-.568-3.816-1.704v.888c0 .16-.056.296-.168.408s-.256.168-.432.168h-1.92c-.16 0-.296-.056-.408-.168s-.168-.248-.168-.408v-15.888c0-.176.056-.312.168-.408.112-.112.248-.168.408-.168h2.088c.176 0 .312.056.408.168.112.096.168.232.168.408v5.328c.896-1.056 2.12-1.584 3.672-1.584 1.616 0 2.856.528 3.72 1.584.88 1.04 1.344 2.408 1.392 4.104.016.192.024.456.024.792 0 .32-.008.584-.024.792-.064 1.728-.528 3.112-1.392 4.152-.864 1.024-2.104 1.536-3.72 1.536zm-.912-2.592c1.712 0 2.624-1.056 2.736-3.168.016-.16.024-.4.024-.72s-.008-.56-.024-.72c-.112-2.112-1.024-3.168-2.736-3.168-.88 0-1.552.28-2.016.84s-.712 1.24-.744 2.04c-.016.192-.024.504-.024.936 0 .416.008.72.024.912.032.848.272 1.568.72 2.16s1.128.888 2.04.888zm9.295 2.352c-.16 0-.296-.056-.408-.168s-.168-.248-.168-.408v-11.328c0-.176.056-.312.168-.408.112-.112.248-.168.408-.168h2.04c.16 0 .296.056.408.168s.168.248.168.408v11.328c0 .16-.056.296-.168.408s-.248.168-.408.168zm-.024-14.28c-.256 0-.384-.128-.384-.384 0-.128.04-.232.12-.312l1.968-2.376c.144-.176.272-.296.384-.36.128-.064.296-.096.504-.096h2.424c.144 0 .256.048.336.144.08.08.12.192.12.336 0 .112-.04.208-.12.288l-3 2.448c-.144.112-.28.192-.408.24-.112.048-.256.072-.432.072zm10.431 14.52c-1.616 0-2.856-.512-3.72-1.536-.864-1.04-1.336-2.424-1.416-4.152l-.024-.792.024-.792c.064-1.696.528-3.064 1.392-4.104.88-1.056 2.128-1.584 3.744-1.584 1.536 0 2.76.528 3.672 1.584v-5.328c0-.176.056-.312.168-.408.112-.112.248-.168.408-.168h2.088c.176 0 .312.056.408.168.112.096.168.232.168.408v15.888c0 .16-.056.296-.168.408-.096.112-.232.168-.408.168h-1.944c-.16 0-.296-.056-.408-.168s-.168-.248-.168-.408v-.888c-.88 1.136-2.152 1.704-3.816 1.704zm.912-2.592c.912 0 1.584-.288 2.016-.864.448-.592.696-1.32.744-2.184.016-.192.024-.496.024-.912 0-.432-.008-.744-.024-.936-.032-.8-.28-1.48-.744-2.04s-1.136-.84-2.016-.84c-1.712 0-2.624 1.056-2.736 3.168l-.024.72.024.72c.112 2.112 1.024 3.168 2.736 3.168zm9.798 2.352c-.16 0-.296-.056-.408-.168s-.168-.248-.168-.408v-15.888c0-.176.056-.312.168-.408.112-.112.248-.168.408-.168h1.992c.16 0 .296.056.408.168s.168.248.168.408v8.208l3.984-3.816c.048-.032.12-.088.216-.168.112-.096.216-.16.312-.192s.216-.048.36-.048h2.28c.16 0 .288.048.384.144s.144.224.144.384c0 .144-.08.288-.24.432l-4.896 4.632 5.496 5.952c.144.144.216.28.216.408 0 .16-.048.288-.144.384s-.216.144-.36.144h-2.328c-.224 0-.392-.024-.504-.072-.096-.064-.224-.176-.384-.336l-4.536-4.824v4.656c0 .16-.056.296-.168.408s-.248.168-.408.168zm16.032.24c-.816 0-1.568-.16-2.256-.48-.672-.336-1.208-.784-1.608-1.344-.384-.56-.576-1.176-.576-1.848 0-1.088.44-1.968 1.32-2.64s2.088-1.128 3.624-1.368l3.288-.48v-.504c0-.688-.176-1.208-.528-1.56s-.912-.528-1.68-.528c-.528 0-.952.096-1.272.288s-.584.392-.792.6c-.192.192-.32.32-.384.384-.064.192-.184.288-.36.288h-1.872c-.144 0-.272-.048-.384-.144-.096-.096-.144-.224-.144-.384.016-.4.208-.848.576-1.344.384-.512.968-.952 1.752-1.32.784-.384 1.752-.576 2.904-.576 1.888 0 3.264.424 4.128 1.272s1.296 1.96 1.296 3.336v7.536c0 .16-.056.296-.168.408-.096.112-.232.168-.408.168h-1.992c-.16 0-.296-.056-.408-.168s-.168-.248-.168-.408v-.936c-.352.512-.848.936-1.488 1.272-.64.32-1.44.48-2.4.48zm.816-2.304c.88 0 1.6-.288 2.16-.864s.84-1.408.84-2.496v-.48l-2.4.384c-1.84.288-2.76.904-2.76 1.848 0 .512.208.912.624 1.2.432.272.944.408 1.536.408zm9.799-6.336c-.16 0-.296-.056-.408-.168s-.168-.248-.168-.408v-2.304c0-.176.056-.32.168-.432s.248-.168.408-.168h2.4c.176 0 .32.056.432.168s.168.256.168.432v2.304c0 .16-.056.296-.168.408s-.256.168-.432.168zm0 8.4c-.16 0-.296-.056-.408-.168s-.168-.248-.168-.408v-2.304c0-.176.056-.32.168-.432s.248-.168.408-.168h2.4c.176 0 .32.056.432.168s.168.256.168.432v2.304c0 .16-.056.296-.168.408s-.256.168-.432.168zm12.43 0c-.16 0-.296-.056-.408-.168s-.168-.248-.168-.408v-15.624c0-.176.048-.32.144-.432.112-.112.256-.168.432-.168h6.96c1.872 0 3.272.416 4.2 1.248.928.816 1.392 1.936 1.392 3.36 0 .832-.208 1.544-.624 2.136-.4.576-.872.992-1.416 1.248.672.304 1.24.8 1.704 1.488s.696 1.472.696 2.352c0 1.488-.504 2.688-1.512 3.6s-2.416 1.368-4.224 1.368zm6.528-9.912c.816 0 1.44-.2 1.872-.6.448-.4.672-.936.672-1.608s-.216-1.192-.648-1.56-1.064-.552-1.896-.552h-3.72v4.32zm.24 7.344c.832 0 1.48-.224 1.944-.672.464-.464.696-1.048.696-1.752s-.24-1.28-.72-1.728c-.464-.464-1.104-.696-1.92-.696h-3.96v4.848zm12.468 2.808c-.816 0-1.568-.16-2.256-.48-.672-.336-1.208-.784-1.608-1.344-.384-.56-.576-1.176-.576-1.848 0-1.088.44-1.968 1.32-2.64s2.088-1.128 3.624-1.368l3.288-.48v-.504c0-.688-.176-1.208-.528-1.56s-.912-.528-1.68-.528c-.528 0-.952.096-1.272.288s-.584.392-.792.6c-.192.192-.32.32-.384.384-.064.192-.184.288-.36.288h-1.872c-.144 0-.272-.048-.384-.144-.096-.096-.144-.224-.144-.384.016-.4.208-.848.576-1.344.384-.512.968-.952 1.752-1.32.784-.384 1.752-.576 2.904-.576 1.888 0 3.264.424 4.128 1.272s1.296 1.96 1.296 3.336v7.536c0 .16-.056.296-.168.408-.096.112-.232.168-.408.168h-1.992c-.16 0-.296-.056-.408-.168s-.168-.248-.168-.408v-.936c-.352.512-.848.936-1.488 1.272-.64.32-1.44.48-2.4.48zm.816-2.304c.88 0 1.6-.288 2.16-.864s.84-1.408.84-2.496v-.48l-2.4.384c-1.84.288-2.76.904-2.76 1.848 0 .512.208.912.624 1.2.432.272.944.408 1.536.408zm9.871 2.064c-.16 0-.296-.056-.408-.168s-.168-.248-.168-.408v-11.304c0-.176.056-.32.168-.432s.248-.168.408-.168h1.968c.176 0 .32.056.432.168s.168.256.168.432v.984c.8-1.056 1.952-1.584 3.456-1.584h1.008c.176 0 .312.056.408.168.112.096.168.232.168.408v1.752c0 .16-.056.296-.168.408-.096.112-.232.168-.408.168h-1.896c-.752 0-1.344.216-1.776.648s-.648 1.024-.648 1.776v6.576c0 .16-.056.296-.168.408s-.248.168-.408.168zm10.078 0c-.16 0-.296-.056-.408-.168s-.168-.248-.168-.408v-15.888c0-.176.056-.312.168-.408.112-.112.248-.168.408-.168h1.992c.16 0 .296.056.408.168s.168.248.168.408v8.208l3.984-3.816c.048-.032.12-.088.216-.168.112-.096.216-.16.312-.192s.216-.048.36-.048h2.28c.16 0 .288.048.384.144s.144.224.144.384c0 .144-.08.288-.24.432l-4.896 4.632 5.496 5.952c.144.144.216.28.216.408 0 .16-.048.288-.144.384s-.216.144-.36.144h-2.328c-.224 0-.392-.024-.504-.072-.096-.064-.224-.176-.384-.336l-4.536-4.824v4.656c0 .16-.056.296-.168.408s-.248.168-.408.168zm13.123-14.52c-.16 0-.296-.056-.408-.168s-.168-.248-.168-.408v-1.752c0-.176.056-.32.168-.432s.248-.168.408-.168h2.208c.176 0 .32.056.432.168s.168.256.168.432v1.752c0 .16-.064.296-.192.408-.112.112-.248.168-.408.168zm.096 14.52c-.16 0-.296-.056-.408-.168s-.168-.248-.168-.408v-11.328c0-.176.056-.312.168-.408.112-.112.248-.168.408-.168h2.04c.16 0 .296.056.408.168s.168.248.168.408v11.328c0 .16-.056.296-.168.408s-.248.168-.408.168zm11.319.24c-1.888 0-3.344-.48-4.368-1.44s-1.576-2.288-1.656-3.984l-.024-1.056.024-1.056c.08-1.68.64-3 1.68-3.96 1.04-.976 2.488-1.464 4.344-1.464 1.84 0 3.28.488 4.32 1.464 1.04.96 1.6 2.28 1.68 3.96.016.192.024.544.024 1.056s-.008.864-.024 1.056c-.08 1.696-.632 3.024-1.656 3.984s-2.472 1.44-4.344 1.44zm0-2.424c.848 0 1.496-.264 1.944-.792.464-.528.712-1.304.744-2.328.016-.16.024-.472.024-.936s-.008-.776-.024-.936c-.032-1.024-.28-1.8-.744-2.328-.464-.544-1.112-.816-1.944-.816-.848 0-1.504.272-1.968.816-.464.528-.712 1.304-.744 2.328l-.024.936.024.936c.032 1.024.28 1.8.744 2.328s1.12.792 1.968.792zm-290.922 38.184c-.16 0-.296-.056-.408-.168s-.168-.248-.168-.408v-15.624c0-.176.048-.32.144-.432.112-.112.256-.168.432-.168h6.432c1.936 0 3.456.456 4.56 1.368s1.656 2.24 1.656 3.984c0 1.728-.552 3.04-1.656 3.936-1.104.88-2.624 1.32-4.56 1.32h-3.528v5.616c0 .176-.056.32-.168.432-.112.096-.256.144-.432.144zm6.312-8.88c.928 0 1.632-.216 2.112-.648.496-.448.744-1.096.744-1.944 0-.832-.24-1.48-.72-1.944-.464-.464-1.176-.696-2.136-.696h-3.456v5.232zm9.244 8.88c-.16 0-.296-.056-.408-.168s-.168-.248-.168-.408v-11.304c0-.176.056-.32.168-.432s.248-.168.408-.168h1.968c.176 0 .32.056.432.168s.168.256.168.432v.984c.8-1.056 1.952-1.584 3.456-1.584h1.008c.176 0 .312.056.408.168.112.096.168.232.168.408v1.752c0 .16-.056.296-.168.408-.096.112-.232.168-.408.168h-1.896c-.752 0-1.344.216-1.776.648s-.648 1.024-.648 1.776v6.576c0 .16-.056.296-.168.408s-.248.168-.408.168zm14.714.24c-1.792 0-3.216-.512-4.272-1.536-1.04-1.024-1.592-2.48-1.656-4.368l-.024-.6c0-2 .52-3.576 1.56-4.728 1.056-1.152 2.512-1.728 4.368-1.728 1.904 0 3.368.576 4.392 1.728 1.04 1.152 1.56 2.688 1.56 4.608v.504c0 .16-.056.296-.168.408s-.256.168-.432.168h-7.968v.192c.032.896.272 1.64.72 2.232.464.576 1.096.864 1.896.864.912 0 1.656-.368 2.232-1.104.144-.176.256-.28.336-.312.08-.048.216-.072.408-.072h2.112c.144 0 .264.04.36.12.112.08.168.192.168.336 0 .384-.232.84-.696 1.368-.448.512-1.096.96-1.944 1.344s-1.832.576-2.952.576zm2.616-7.584v-.048c0-.944-.24-1.696-.72-2.256-.464-.576-1.104-.864-1.92-.864s-1.456.288-1.92.864c-.464.56-.696 1.312-.696 2.256v.048zm6.435 7.344c-.16 0-.296-.056-.408-.168s-.168-.248-.168-.408v-11.328c0-.176.056-.312.168-.408.112-.112.248-.168.408-.168h1.896c.176 0 .312.056.408.168.112.096.168.232.168.408v.816c.864-1.088 2.024-1.632 3.48-1.632 1.776 0 3.016.712 3.72 2.136.384-.64.928-1.152 1.632-1.536.704-.4 1.464-.6 2.28-.6 1.312 0 2.384.448 3.216 1.344s1.248 2.2 1.248 3.912v6.888c0 .16-.056.296-.168.408-.096.112-.232.168-.408.168h-1.992c-.16 0-.296-.056-.408-.168s-.168-.248-.168-.408v-6.696c0-1.008-.216-1.736-.648-2.184-.416-.448-.968-.672-1.656-.672-.624 0-1.16.232-1.608.696-.432.448-.648 1.168-.648 2.16v6.696c0 .16-.056.296-.168.408-.096.112-.232.168-.408.168h-2.016c-.16 0-.296-.056-.408-.168s-.168-.248-.168-.408v-6.696c0-.992-.216-1.712-.648-2.16-.432-.464-.984-.696-1.656-.696-.624 0-1.16.232-1.608.696-.432.448-.648 1.168-.648 2.16v6.696c0 .16-.056.296-.168.408-.096.112-.232.168-.408.168zm21.584-14.52c-.16 0-.296-.056-.408-.168s-.168-.248-.168-.408v-1.752c0-.176.056-.32.168-.432s.248-.168.408-.168h2.208c.176 0 .32.056.432.168s.168.256.168.432v1.752c0 .16-.064.296-.192.408-.112.112-.248.168-.408.168zm.096 14.52c-.16 0-.296-.056-.408-.168s-.168-.248-.168-.408v-11.328c0-.176.056-.312.168-.408.112-.112.248-.168.408-.168h2.04c.16 0 .296.056.408.168s.168.248.168.408v11.328c0 .16-.056.296-.168.408s-.248.168-.408.168zm10.408.24c-1.472 0-2.632-.48-3.48-1.44s-1.272-2.28-1.272-3.96v-6.744c0-.176.056-.312.168-.408.112-.112.248-.168.408-.168h2.16c.16 0 .296.056.408.168s.168.248.168.408v6.6c0 1.968.856 2.952 2.568 2.952.832 0 1.488-.264 1.968-.792.496-.528.744-1.248.744-2.16v-6.6c0-.176.056-.312.168-.408.112-.112.248-.168.408-.168h2.136c.176 0 .312.056.408.168.112.096.168.232.168.408v11.328c0 .16-.056.296-.168.408-.096.112-.232.168-.408.168h-1.992c-.16 0-.296-.056-.408-.168s-.168-.248-.168-.408v-.984c-.88 1.2-2.208 1.8-3.984 1.8zm10.873-.24c-.16 0-.296-.056-.408-.168s-.168-.248-.168-.408v-11.328c0-.176.056-.312.168-.408.112-.112.248-.168.408-.168h1.896c.176 0 .312.056.408.168.112.096.168.232.168.408v.816c.864-1.088 2.024-1.632 3.48-1.632 1.776 0 3.016.712 3.72 2.136.384-.64.928-1.152 1.632-1.536.704-.4 1.464-.6 2.28-.6 1.312 0 2.384.448 3.216 1.344s1.248 2.2 1.248 3.912v6.888c0 .16-.056.296-.168.408-.096.112-.232.168-.408.168h-1.992c-.16 0-.296-.056-.408-.168s-.168-.248-.168-.408v-6.696c0-1.008-.216-1.736-.648-2.184-.416-.448-.968-.672-1.656-.672-.624 0-1.16.232-1.608.696-.432.448-.648 1.168-.648 2.16v6.696c0 .16-.056.296-.168.408-.096.112-.232.168-.408.168h-2.016c-.16 0-.296-.056-.408-.168s-.168-.248-.168-.408v-6.696c0-.992-.216-1.712-.648-2.16-.432-.464-.984-.696-1.656-.696-.624 0-1.16.232-1.608.696-.432.448-.648 1.168-.648 2.16v6.696c0 .16-.056.296-.168.408-.096.112-.232.168-.408.168zm31.317.24c-1.216 0-2.232-.184-3.048-.552s-1.424-.792-1.824-1.272c-.384-.496-.576-.92-.576-1.272 0-.16.048-.288.144-.384.112-.096.24-.144.384-.144h1.968c.128 0 .24.064.336.192.08.064.256.216.528.456.288.24.608.432.96.576.368.128.768.192 1.2.192.64 0 1.16-.12 1.56-.36.4-.256.6-.616.6-1.08 0-.32-.096-.576-.288-.768-.176-.208-.504-.392-.984-.552-.464-.176-1.168-.368-2.112-.576-1.36-.288-2.368-.728-3.024-1.32-.64-.592-.96-1.376-.96-2.352 0-.64.192-1.24.576-1.8.384-.576.952-1.04 1.704-1.392.768-.368 1.68-.552 2.736-.552 1.088 0 2.024.176 2.808.528.784.336 1.376.744 1.776 1.224.416.48.624.904.624 1.272 0 .144-.056.272-.168.384-.096.096-.216.144-.36.144h-1.8c-.176 0-.312-.064-.408-.192-.112-.08-.296-.224-.552-.432-.24-.224-.512-.4-.816-.528s-.672-.192-1.104-.192c-.592 0-1.048.128-1.368.384s-.48.592-.48 1.008c0 .288.072.528.216.72.16.192.472.376.936.552.464.16 1.16.328 2.088.504 2.88.56 4.32 1.816 4.32 3.768 0 1.136-.496 2.056-1.488 2.76-.976.704-2.344 1.056-4.104 1.056zm13.445 0c-1.792 0-3.216-.512-4.272-1.536-1.04-1.024-1.592-2.48-1.656-4.368l-.024-.6c0-2 .52-3.576 1.56-4.728 1.056-1.152 2.512-1.728 4.368-1.728 1.904 0 3.368.576 4.392 1.728 1.04 1.152 1.56 2.688 1.56 4.608v.504c0 .16-.056.296-.168.408s-.256.168-.432.168h-7.968v.192c.032.896.272 1.64.72 2.232.464.576 1.096.864 1.896.864.912 0 1.656-.368 2.232-1.104.144-.176.256-.28.336-.312.08-.048.216-.072.408-.072h2.112c.144 0 .264.04.36.12.112.08.168.192.168.336 0 .384-.232.84-.696 1.368-.448.512-1.096.96-1.944 1.344s-1.832.576-2.952.576zm2.616-7.584v-.048c0-.944-.24-1.696-.72-2.256-.464-.576-1.104-.864-1.92-.864s-1.456.288-1.92.864c-.464.56-.696 1.312-.696 2.256v.048zm16.072 7.584c-1.216 0-2.232-.184-3.048-.552s-1.424-.792-1.824-1.272c-.384-.496-.576-.92-.576-1.272 0-.16.048-.288.144-.384.112-.096.24-.144.384-.144h1.968c.128 0 .24.064.336.192.08.064.256.216.528.456.288.24.608.432.96.576.368.128.768.192 1.2.192.64 0 1.16-.12 1.56-.36.4-.256.6-.616.6-1.08 0-.32-.096-.576-.288-.768-.176-.208-.504-.392-.984-.552-.464-.176-1.168-.368-2.112-.576-1.36-.288-2.368-.728-3.024-1.32-.64-.592-.96-1.376-.96-2.352 0-.64.192-1.24.576-1.8.384-.576.952-1.04 1.704-1.392.768-.368 1.68-.552 2.736-.552 1.088 0 2.024.176 2.808.528.784.336 1.376.744 1.776 1.224.416.48.624.904.624 1.272 0 .144-.056.272-.168.384-.096.096-.216.144-.36.144h-1.8c-.176 0-.312-.064-.408-.192-.112-.08-.296-.224-.552-.432-.24-.224-.512-.4-.816-.528s-.672-.192-1.104-.192c-.592 0-1.048.128-1.368.384s-.48.592-.48 1.008c0 .288.072.528.216.72.16.192.472.376.936.552.464.16 1.16.328 2.088.504 2.88.56 4.32 1.816 4.32 3.768 0 1.136-.496 2.056-1.488 2.76-.976.704-2.344 1.056-4.104 1.056zm8.645-.24c-.16 0-.296-.056-.408-.168s-.168-.248-.168-.408v-15.888c0-.176.056-.312.168-.408.112-.112.248-.168.408-.168h2.016c.176 0 .312.056.408.168.112.096.168.232.168.408v15.888c0 .16-.056.296-.168.408-.096.112-.232.168-.408.168zm11.175.24c-1.792 0-3.216-.512-4.272-1.536-1.04-1.024-1.592-2.48-1.656-4.368l-.024-.6c0-2 .52-3.576 1.56-4.728 1.056-1.152 2.512-1.728 4.368-1.728 1.904 0 3.368.576 4.392 1.728 1.04 1.152 1.56 2.688 1.56 4.608v.504c0 .16-.056.296-.168.408s-.256.168-.432.168h-7.968v.192c.032.896.272 1.64.72 2.232.464.576 1.096.864 1.896.864.912 0 1.656-.368 2.232-1.104.144-.176.256-.28.336-.312.08-.048.216-.072.408-.072h2.112c.144 0 .264.04.36.12.112.08.168.192.168.336 0 .384-.232.84-.696 1.368-.448.512-1.096.96-1.944 1.344s-1.832.576-2.952.576zm2.616-7.584v-.048c0-.944-.24-1.696-.72-2.256-.464-.576-1.104-.864-1.92-.864s-1.456.288-1.92.864c-.464.56-.696 1.312-.696 2.256v.048zm9.829 7.344c-.24 0-.424-.048-.552-.144-.128-.112-.232-.264-.312-.456l-4.512-11.136c-.016-.048-.024-.12-.024-.216 0-.144.048-.264.144-.36.112-.112.232-.168.36-.168h1.992c.32 0 .536.152.648.456l3.168 8.376 3.168-8.376c.032-.112.096-.216.192-.312.112-.096.256-.144.432-.144h1.992c.144 0 .264.056.36.168.096.096.144.216.144.36 0 .096-.008.168-.024.216l-4.488 11.136c-.176.4-.464.6-.864.6zm14.488.24c-1.888 0-3.344-.48-4.368-1.44s-1.576-2.288-1.656-3.984l-.024-1.056.024-1.056c.08-1.68.64-3 1.68-3.96 1.04-.976 2.488-1.464 4.344-1.464 1.84 0 3.28.488 4.32 1.464 1.04.96 1.6 2.28 1.68 3.96.016.192.024.544.024 1.056s-.008.864-.024 1.056c-.08 1.696-.632 3.024-1.656 3.984s-2.472 1.44-4.344 1.44zm0-2.424c.848 0 1.496-.264 1.944-.792.464-.528.712-1.304.744-2.328.016-.16.024-.472.024-.936s-.008-.776-.024-.936c-.032-1.024-.28-1.8-.744-2.328-.464-.544-1.112-.816-1.944-.816-.848 0-1.504.272-1.968.816-.464.528-.712 1.304-.744 2.328l-.024.936.024.936c.032 1.024.28 1.8.744 2.328s1.12.792 1.968.792zm13.314 2.424c-1.472 0-2.632-.48-3.48-1.44s-1.272-2.28-1.272-3.96v-6.744c0-.176.056-.312.168-.408.112-.112.248-.168.408-.168h2.16c.16 0 .296.056.408.168s.168.248.168.408v6.6c0 1.968.856 2.952 2.568 2.952.832 0 1.488-.264 1.968-.792.496-.528.744-1.248.744-2.16v-6.6c0-.176.056-.312.168-.408.112-.112.248-.168.408-.168h2.136c.176 0 .312.056.408.168.112.096.168.232.168.408v11.328c0 .16-.056.296-.168.408-.096.112-.232.168-.408.168h-1.992c-.16 0-.296-.056-.408-.168s-.168-.248-.168-.408v-.984c-.88 1.2-2.208 1.8-3.984 1.8zm15.831-.24c-.16 0-.296-.056-.408-.168s-.168-.248-.168-.408v-1.248c0-.448.2-.824.6-1.128l3.744-3.72c1.136-.896 2.008-1.624 2.616-2.184.624-.576 1.088-1.104 1.392-1.584s.456-.952.456-1.416c0-.752-.2-1.344-.6-1.776s-1.008-.648-1.824-.648c-.8 0-1.432.24-1.896.72-.448.464-.728 1.072-.84 1.824-.048.192-.144.336-.288.432-.128.08-.272.12-.432.12h-2.16c-.144 0-.264-.048-.36-.144s-.144-.216-.144-.36c.032-.944.288-1.824.768-2.64.496-.832 1.2-1.496 2.112-1.992.912-.512 1.984-.768 3.216-.768 1.28 0 2.368.224 3.264.672.896.432 1.568 1.032 2.016 1.8s.672 1.64.672 2.616c0 1.072-.304 2.048-.912 2.928-.592.864-1.52 1.792-2.784 2.784l-3.336 3.384h6.792c.176 0 .32.056.432.168s.168.256.168.432v1.728c0 .176-.056.32-.168.432-.112.096-.256.144-.432.144zm19.875 0c-.16 0-.296-.056-.408-.168s-.168-.248-.168-.408v-12.384l-3.624 2.784c-.096.08-.216.12-.36.12-.192 0-.344-.08-.456-.24l-1.032-1.344c-.08-.112-.12-.224-.12-.336 0-.192.088-.352.264-.48l5.376-4.176c.176-.112.376-.168.6-.168h2.16c.16 0 .296.056.408.168s.168.248.168.408v15.648c0 .16-.056.296-.168.408s-.248.168-.408.168zm14.553-8.352c-1.056 0-1.904-.28-2.544-.84-.624-.56-.968-1.32-1.032-2.28-.016-.272-.024-.632-.024-1.08 0-.48.008-.864.024-1.152.064-.992.4-1.776 1.008-2.352s1.464-.864 2.568-.864 1.96.288 2.568.864c.624.576.968 1.36 1.032 2.352.032.576.048.96.048 1.152 0 .176-.016.536-.048 1.08-.064.96-.416 1.72-1.056 2.28-.624.56-1.472.84-2.544.84zm-1.944 8.352c-.16 0-.288-.04-.384-.12-.096-.096-.144-.216-.144-.36 0-.096.032-.184.096-.264l11.832-15.6c.128-.16.248-.272.36-.336.112-.08.272-.12.48-.12h1.272c.16 0 .28.048.36.144.096.08.144.192.144.336 0 .096-.032.184-.096.264l-11.832 15.6c-.128.16-.248.28-.36.36-.112.064-.264.096-.456.096zm1.944-10.152c.464 0 .8-.136 1.008-.408.224-.272.36-.616.408-1.032.032-.544.048-.88.048-1.008 0-.176-.016-.504-.048-.984-.032-.416-.16-.76-.384-1.032-.224-.288-.568-.432-1.032-.432-.448 0-.784.144-1.008.432-.224.272-.352.616-.384 1.032-.016.24-.024.568-.024.984 0 .4.008.736.024 1.008.032.4.152.744.36 1.032.224.272.568.408 1.032.408zm9.6 10.296c-1.056 0-1.904-.288-2.544-.864-.624-.592-.968-1.376-1.032-2.352-.016-.272-.024-.632-.024-1.08 0-.464.008-.84.024-1.128.064-.992.4-1.776 1.008-2.352s1.464-.864 2.568-.864c1.12 0 1.984.288 2.592.864s.944 1.36 1.008 2.352c.032.576.048.952.048 1.128s-.016.536-.048 1.08c-.064.976-.416 1.76-1.056 2.352-.624.576-1.472.864-2.544.864zm0-1.872c.48 0 .824-.136 1.032-.408.224-.288.352-.632.384-1.032.032-.544.048-.888.048-1.032 0-.16-.016-.48-.048-.96-.032-.416-.16-.76-.384-1.032-.224-.288-.568-.432-1.032-.432-.448 0-.784.144-1.008.432-.224.272-.352.616-.384 1.032-.016.24-.024.56-.024.96 0 .416.008.76.024 1.032.032.4.152.744.36 1.032.224.272.568.408 1.032.408z" fill="#fff"/><path d="m458 63 7 7-7 7" stroke="#fff" stroke-linecap="round" stroke-width="3"/></g></svg>