<svg fill="none" height="140" viewBox="0 0 487 140" width="487" xmlns="http://www.w3.org/2000/svg"><path d="m0 0h487v140h-487z" fill="#ff4f41"/><path d="m40.9719 107.552c-7.664-.751-18.7594-7.144-19.5466-24.8485-.7872-17.7041 7.7784-32.3883 18.133-40.5114 13.4457-10.5479 24.7739-14.6296 50.6209 1.9906 20.6108 13.2534 24.9328 47.0999 11.4488 55.7409-13.4848 8.6414-52.9922 8.3804-60.6561 7.6284z" fill="#fff" fill-opacity=".12"/><path d="m72.0154 58.5993-6.5002-15.4277c-1.1693-2.8082-5.1588-2.8082-6.3281 0l-6.5002 15.4624-16.6114 1.4214c-3.0265.2427-4.2646 4.0563-1.9604 6.0671l12.622 11.0248-3.7832 16.3638c-.6878 2.9815 2.5107 5.339 5.1245 3.7442l14.2727-8.6672 14.2728 8.7019c2.6138 1.5948 5.8123-.7627 5.1245-3.7443l-3.7832-16.3984 12.622-11.0248c2.3042-2.0108 1.1005-5.8244-1.926-6.0671z" fill="#fab500"/><path clip-rule="evenodd" d="m63.5866 71.2432c.1644.1091.3051.2501.414.4147l16.7092 25.2748c-1.0122.8935-2.5262 1.1995-3.9032.4423l-.147-.0852-14.2727-8.7019-14.2728 8.6672c-1.1973.7305-2.5172.6318-3.5301.0237l16.9628-25.6217c.4491-.6784 1.3624-.8637 2.0398-.4139z" fill="#faa402" fill-rule="evenodd" opacity=".729469"/><path clip-rule="evenodd" d="m62.3571 41.0654.0321 26.126c.001.814-.6571 1.4746-1.4699 1.4756-.1171 0-.2338-.0137-.3477-.0413l-27.2816-6.6043c.4639-1.0005 1.3912-1.7872 2.6474-1.9481l.1734-.018 16.6114-1.4214 6.5001-15.4624c.5571-1.3378 1.7541-2.0383 2.9813-2.1015z" fill="#ffc326" fill-rule="evenodd"/><g fill="#f9a801"><path d="m84.4184 44.1184c.2735-.301.7389-.323 1.0395-.0491.2775.2528.3175.6693.1069.9687l-.0579.0722-5.9426 6.5404c-.2735.301-.7389.323-1.0395.0491-.2775-.2528-.3175-.6693-.1069-.9687l.0579-.0722z"/><path d="m85.9677 79.8162c.1553-.3444.5422-.5113.8932-.3993l.0803.0309 8.0481 3.6384c.3704.1675.5351.6039.3679.9748-.1553.3444-.5422.5112-.8932.3992l-.0803-.0308-8.0481-3.6384c-.3704-.1675-.5351-.6039-.3679-.9748z"/><path d="m37.2082 79.7594c.3769-.1524.8057.0299.958.4072.1413.3504-.0055.7457-.3289.9225l-.0777.0367-8.1873 3.3125c-.3769.1524-.8057-.0299-.958-.4072-.1413-.3504.0055-.7457.3289-.9225l.0777-.0368z"/><path d="m39.2034 44.0589c.2788-.2514.6967-.2499.9733-.0103l.066.0648 5.9086 6.5712c.2719.3025.2475.7684-.0545 1.0407-.2788.2514-.6966.2499-.9732.0103l-.066-.0648-5.9086-6.5712c-.272-.3025-.2476-.7684.0544-1.0407z"/></g><path d="m28.3328 44.9526c.7859.873.7154 2.2177-.1574 3.0038-.8731.7862-2.2183.7157-3.0044-.1575l-4.744-5.2699c-.7859-.8729-.7154-2.2177.1574-3.0037.8731-.7863 2.2183-.7158 3.0044.1574z" fill="#58a509"/><path d="m106.988 105.042c-.894.894-2.343.894-3.236 0-.894-.893-.894-2.342 0-3.236l5.394-5.3934c.894-.8934 2.342-.8934 3.236 0 .894.8937.894 2.3428 0 3.2365z" fill="#58a509"/><path d="m18.8413 98.0582c-.0542-1.0461.7516-1.9381 1.7977-1.9923 1.046-.0541 1.9395.7498 1.9937 1.7958l.393 7.5843c.0542 1.046-.7515 1.938-1.7976 1.992-1.046.054-1.9395-.75-1.9938-1.796z" fill="#9b1ff4"/><g stroke-linecap="round"><path d="m52.0712 30.7128s1.0542-4.3347-3.6128-6.2135" stroke="#fcc840" stroke-linejoin="round" stroke-width="4.88873"/><path d="m99.6995 35.9697s-1.5149 4.3619 3.5885 7.8564" stroke="#9b1ff4" stroke-linejoin="round" stroke-width="4.88873"/><path d="m58.5457 116.145s6.0071-.138 5.801-5.474" stroke="#27a9f6" stroke-linejoin="round" stroke-width="4.84831"/></g><path d="m140.856 62c-.187 0-.345-.0653-.476-.196s-.196-.2893-.196-.476v-18.228c0-.2053.056-.3733.168-.504.131-.1307.299-.196.504-.196h2.184c.355 0 .625.1587.812.476l8.008 12.432v-12.208c0-.2053.056-.3733.168-.504.131-.1307.299-.196.504-.196h2.408c.205 0 .373.0653.504.196s.196.2987.196.504v18.2c0 .2053-.065.3733-.196.504s-.289.196-.476.196h-2.212c-.373 0-.653-.1587-.84-.476l-7.98-12.152v11.956c0 .1867-.065.3453-.196.476-.112.1307-.271.196-.476.196zm25.089.28c-2.091 0-3.752-.5973-4.984-1.792-1.213-1.1947-1.857-2.8933-1.932-5.096l-.028-.7c0-2.3333.607-4.172 1.82-5.516 1.232-1.344 2.931-2.016 5.096-2.016 2.221 0 3.929.672 5.124 2.016 1.213 1.344 1.82 3.136 1.82 5.376v.588c0 .1867-.065.3453-.196.476s-.299.196-.504.196h-9.296v.224c.037 1.0453.317 1.9133.84 2.604.541.672 1.279 1.008 2.212 1.008 1.064 0 1.932-.4293 2.604-1.288.168-.2053.299-.3267.392-.364.093-.056.252-.084.476-.084h2.464c.168 0 .308.0467.42.14.131.0933.196.224.196.392 0 .448-.271.98-.812 1.596-.523.5973-1.279 1.12-2.268 1.568s-2.137.672-3.444.672zm3.052-8.848v-.056c0-1.1013-.28-1.9787-.84-2.632-.541-.672-1.288-1.008-2.24-1.008s-1.699.336-2.24 1.008c-.541.6533-.812 1.5307-.812 2.632v.056zm10.401 8.568c-.466 0-.774-.2333-.924-.7l-4.004-12.992c-.018-.056-.028-.14-.028-.252 0-.168.056-.308.168-.42.112-.1307.252-.196.42-.196h2.128c.187 0 .346.056.476.168.15.112.243.2333.28.364l2.716 9.212 2.884-9.128c.056-.168.15-.308.28-.42.15-.1307.336-.196.56-.196h1.428c.224 0 .402.0653.532.196.15.112.243.252.28.42l2.912 9.128 2.716-9.212c.038-.1307.122-.252.252-.364.131-.112.299-.168.504-.168h2.1c.168 0 .308.0653.42.196.131.112.196.252.196.42l-.056.252-4.004 12.992c-.074.224-.186.4013-.336.532-.13.112-.317.168-.56.168h-1.848c-.485 0-.793-.2333-.924-.7l-2.884-8.792-2.912 8.792c-.149.4667-.466.7-.952.7zm30.102 0c-.186 0-.345-.0653-.476-.196-.13-.1307-.196-.2893-.196-.476v-6.3l-6.636-11.732c-.056-.168-.084-.2707-.084-.308 0-.168.056-.308.168-.42.131-.112.271-.168.42-.168h2.52c.355 0 .644.1773.868.532l4.704 8.12 4.732-8.12c.075-.1307.178-.252.308-.364.15-.112.327-.168.532-.168h2.52c.168 0 .308.056.42.168s.168.252.168.42c0 .112-.028.2147-.084.308l-6.608 11.732v6.3c0 .2053-.065.3733-.196.504-.13.112-.298.168-.504.168zm16.355.28c-2.091 0-3.752-.5973-4.984-1.792-1.213-1.1947-1.857-2.8933-1.932-5.096l-.028-.7c0-2.3333.607-4.172 1.82-5.516 1.232-1.344 2.931-2.016 5.096-2.016 2.221 0 3.929.672 5.124 2.016 1.213 1.344 1.82 3.136 1.82 5.376v.588c0 .1867-.065.3453-.196.476s-.299.196-.504.196h-9.296v.224c.037 1.0453.317 1.9133.84 2.604.541.672 1.279 1.008 2.212 1.008 1.064 0 1.932-.4293 2.604-1.288.168-.2053.299-.3267.392-.364.093-.056.252-.084.476-.084h2.464c.168 0 .308.0467.42.14.131.0933.196.224.196.392 0 .448-.271.98-.812 1.596-.523.5973-1.279 1.12-2.268 1.568s-2.137.672-3.444.672zm3.052-8.848v-.056c0-1.1013-.28-1.9787-.84-2.632-.541-.672-1.288-1.008-2.24-1.008s-1.699.336-2.24 1.008c-.541.6533-.812 1.5307-.812 2.632v.056zm11.064 8.848c-.952 0-1.83-.1867-2.632-.56-.784-.392-1.41-.9147-1.876-1.568-.448-.6533-.672-1.372-.672-2.156 0-1.2693.513-2.296 1.54-3.08 1.026-.784 2.436-1.316 4.228-1.596l3.836-.56v-.588c0-.8027-.206-1.4093-.616-1.82-.411-.4107-1.064-.616-1.96-.616-.616 0-1.111.112-1.484.336-.374.224-.682.4573-.924.7-.224.224-.374.3733-.448.448-.075.224-.215.336-.42.336h-2.184c-.168 0-.318-.056-.448-.168-.112-.112-.168-.2613-.168-.448.018-.4667.242-.9893.672-1.568.448-.5973 1.129-1.1107 2.044-1.54.914-.448 2.044-.672 3.388-.672 2.202 0 3.808.4947 4.816 1.484s1.512 2.2867 1.512 3.892v8.792c0 .1867-.066.3453-.196.476-.112.1307-.271.196-.476.196h-2.324c-.187 0-.346-.0653-.476-.196-.131-.1307-.196-.2893-.196-.476v-1.092c-.411.5973-.99 1.092-1.736 1.484-.747.3733-1.68.56-2.8.56zm.952-2.688c1.026 0 1.866-.336 2.52-1.008.653-.672.98-1.6427.98-2.912v-.56l-2.8.448c-2.147.336-3.22 1.0547-3.22 2.156 0 .5973.242 1.064.728 1.4.504.3173 1.101.476 1.792.476zm11.515 2.408c-.187 0-.345-.0653-.476-.196s-.196-.2893-.196-.476v-13.188c0-.2053.065-.3733.196-.504s.289-.196.476-.196h2.296c.205 0 .373.0653.504.196s.196.2987.196.504v1.148c.933-1.232 2.277-1.848 4.032-1.848h1.176c.205 0 .364.0653.476.196.131.112.196.2707.196.476v2.044c0 .1867-.065.3453-.196.476-.112.1307-.271.196-.476.196h-2.212c-.877 0-1.568.252-2.072.756s-.756 1.1947-.756 2.072v7.672c0 .1867-.065.3453-.196.476s-.289.196-.476.196zm17.836 0c-.187 0-.345-.0653-.476-.196s-.196-.2893-.196-.476v-18.228c0-.2053.056-.3733.168-.504.131-.1307.299-.196.504-.196h6.832c5.507 0 8.316 2.5387 8.428 7.616.037 1.0827.056 1.8107.056 2.184 0 .3547-.019 1.0733-.056 2.156-.075 2.6133-.784 4.5453-2.128 5.796-1.325 1.232-3.379 1.848-6.16 1.848zm6.832-3.248c1.549 0 2.669-.3453 3.36-1.036s1.055-1.8387 1.092-3.444c.037-1.12.056-1.82.056-2.1 0-.2987-.019-.9893-.056-2.072-.037-1.5307-.42-2.6507-1.148-3.36-.728-.728-1.876-1.092-3.444-1.092h-3.416v13.104zm18.147 3.528c-2.09 0-3.752-.5973-4.984-1.792-1.213-1.1947-1.857-2.8933-1.932-5.096l-.028-.7c0-2.3333.607-4.172 1.82-5.516 1.232-1.344 2.931-2.016 5.096-2.016 2.222 0 3.93.672 5.124 2.016 1.214 1.344 1.82 3.136 1.82 5.376v.588c0 .1867-.065.3453-.196.476-.13.1307-.298.196-.504.196h-9.296v.224c.038 1.0453.318 1.9133.84 2.604.542.672 1.279 1.008 2.212 1.008 1.064 0 1.932-.4293 2.604-1.288.168-.2053.299-.3267.392-.364.094-.056.252-.084.476-.084h2.464c.168 0 .308.0467.42.14.131.0933.196.224.196.392 0 .448-.27.98-.812 1.596-.522.5973-1.278 1.12-2.268 1.568-.989.448-2.137.672-3.444.672zm3.052-8.848v-.056c0-1.1013-.28-1.9787-.84-2.632-.541-.672-1.288-1.008-2.24-1.008s-1.698.336-2.24 1.008c-.541.6533-.812 1.5307-.812 2.632v.056zm11.064 8.848c-.952 0-1.829-.1867-2.632-.56-.784-.392-1.409-.9147-1.876-1.568-.448-.6533-.672-1.372-.672-2.156 0-1.2693.513-2.296 1.54-3.08s2.436-1.316 4.228-1.596l3.836-.56v-.588c0-.8027-.205-1.4093-.616-1.82s-1.064-.616-1.96-.616c-.616 0-1.111.112-1.484.336s-.681.4573-.924.7c-.224.224-.373.3733-.448.448-.075.224-.215.336-.42.336h-2.184c-.168 0-.317-.056-.448-.168-.112-.112-.168-.2613-.168-.448.019-.4667.243-.9893.672-1.568.448-.5973 1.129-1.1107 2.044-1.54.915-.448 2.044-.672 3.388-.672 2.203 0 3.808.4947 4.816 1.484s1.512 2.2867 1.512 3.892v8.792c0 .1867-.065.3453-.196.476-.112.1307-.271.196-.476.196h-2.324c-.187 0-.345-.0653-.476-.196s-.196-.2893-.196-.476v-1.092c-.411.5973-.989 1.092-1.736 1.484-.747.3733-1.68.56-2.8.56zm.952-2.688c1.027 0 1.867-.336 2.52-1.008s.98-1.6427.98-2.912v-.56l-2.8.448c-2.147.336-3.22 1.0547-3.22 2.156 0 .5973.243 1.064.728 1.4.504.3173 1.101.476 1.792.476zm11.543 2.408c-.186 0-.345-.0653-.476-.196-.13-.1307-.196-.2893-.196-.476v-18.536c0-.2053.066-.364.196-.476.131-.1307.29-.196.476-.196h2.352c.206 0 .364.0653.476.196.131.112.196.2707.196.476v18.536c0 .1867-.065.3453-.196.476-.112.1307-.27.196-.476.196zm7.326-9.8c-.187 0-.345-.0653-.476-.196s-.196-.2893-.196-.476v-2.688c0-.2053.065-.3733.196-.504s.289-.196.476-.196h2.8c.205 0 .373.0653.504.196s.196.2987.196.504v2.688c0 .1867-.065.3453-.196.476s-.299.196-.504.196zm0 9.8c-.187 0-.345-.0653-.476-.196s-.196-.2893-.196-.476v-2.688c0-.2053.065-.3733.196-.504s.289-.196.476-.196h2.8c.205 0 .373.0653.504.196s.196.2987.196.504v2.688c0 .1867-.065.3453-.196.476s-.299.196-.504.196zm13.578 0c-.187 0-.345-.0653-.476-.196s-.196-.2893-.196-.476v-1.456c0-.5227.233-.9613.7-1.316l4.368-4.34c1.325-1.0453 2.343-1.8947 3.052-2.548.728-.672 1.269-1.288 1.624-1.848s.532-1.1107.532-1.652c0-.8773-.233-1.568-.7-2.072s-1.176-.756-2.128-.756c-.933 0-1.671.28-2.212.84-.523.5413-.849 1.2507-.98 2.128-.056.224-.168.392-.336.504-.149.0933-.317.14-.504.14h-2.52c-.168 0-.308-.056-.42-.168s-.168-.252-.168-.42c.037-1.1013.336-2.128.896-3.08.579-.9707 1.4-1.7453 2.464-2.324 1.064-.5973 2.315-.896 3.752-.896 1.493 0 2.763.2613 3.808.784 1.045.504 1.829 1.204 2.352 2.1s.784 1.9133.784 3.052c0 1.2507-.355 2.3893-1.064 3.416-.691 1.008-1.773 2.0907-3.248 3.248l-3.892 3.948h7.924c.205 0 .373.0653.504.196s.196.2987.196.504v2.016c0 .2053-.065.3733-.196.504-.131.112-.299.168-.504.168zm23.187 0c-.186 0-.345-.0653-.476-.196-.13-.1307-.196-.2893-.196-.476v-14.448l-4.228 3.248c-.112.0933-.252.14-.42.14-.224 0-.401-.0933-.532-.28l-1.204-1.568c-.093-.1307-.14-.2613-.14-.392 0-.224.103-.4107.308-.56l6.272-4.872c.206-.1307.439-.196.7-.196h2.52c.187 0 .346.0653.476.196.131.1307.196.2893.196.476v18.256c0 .1867-.065.3453-.196.476-.13.1307-.289.196-.476.196zm10.609-9.744c-1.232 0-2.222-.3267-2.968-.98-.728-.6533-1.13-1.54-1.204-2.66-.019-.3173-.028-.7373-.028-1.26 0-.56.009-1.008.028-1.344.074-1.1573.466-2.072 1.176-2.744.709-.672 1.708-1.008 2.996-1.008s2.286.336 2.996 1.008c.728.672 1.129 1.5867 1.204 2.744.037.672.056 1.12.056 1.344 0 .2053-.019.6253-.056 1.26-.075 1.12-.486 2.0067-1.232 2.66-.728.6533-1.718.98-2.968.98zm-2.268 9.744c-.187 0-.336-.0467-.448-.14-.112-.112-.168-.252-.168-.42 0-.112.037-.2147.112-.308l13.804-18.2c.149-.1867.289-.3173.42-.392.13-.0933.317-.14.56-.14h1.484c.186 0 .326.056.42.168.112.0933.168.224.168.392 0 .112-.038.2147-.112.308l-13.804 18.2c-.15.1867-.29.3267-.42.42-.131.0747-.308.112-.532.112zm2.268-11.844c.541 0 .933-.1587 1.176-.476.261-.3173.42-.7187.476-1.204.037-.6347.056-1.0267.056-1.176 0-.2053-.019-.588-.056-1.148-.038-.4853-.187-.8867-.448-1.204-.262-.336-.663-.504-1.204-.504-.523 0-.915.168-1.176.504-.262.3173-.411.7187-.448 1.204-.019.28-.028.6627-.028 1.148 0 .4667.009.8587.028 1.176.037.4667.177.868.42 1.204.261.3173.662.476 1.204.476zm11.2 12.012c-1.232 0-2.222-.336-2.968-1.008-.728-.6907-1.13-1.6053-1.204-2.744-.019-.3173-.028-.7373-.028-1.26 0-.5413.009-.98.028-1.316.074-1.1573.466-2.072 1.176-2.744.709-.672 1.708-1.008 2.996-1.008 1.306 0 2.314.336 3.024 1.008.709.672 1.101 1.5867 1.176 2.744.037.672.056 1.1107.056 1.316s-.019.6253-.056 1.26c-.075 1.1387-.486 2.0533-1.232 2.744-.728.672-1.718 1.008-2.968 1.008zm0-2.184c.56 0 .961-.1587 1.204-.476.261-.336.41-.7373.448-1.204.037-.6347.056-1.036.056-1.204 0-.1867-.019-.56-.056-1.12-.038-.4853-.187-.8867-.448-1.204-.262-.336-.663-.504-1.204-.504-.523 0-.915.168-1.176.504-.262.3173-.411.7187-.448 1.204-.019.28-.028.6533-.028 1.12 0 .4853.009.8867.028 1.204.037.4667.177.868.42 1.204.261.3173.662.476 1.204.476zm-240.02 38.296c-2.557 0-4.545-.644-5.964-1.932s-2.165-3.2013-2.24-5.74c-.019-.5413-.028-1.3347-.028-2.38 0-1.064.009-1.8667.028-2.408.075-2.4827.84-4.3867 2.296-5.712s3.425-1.988 5.908-1.988c2.464 0 4.424.6627 5.88 1.988 1.475 1.3253 2.249 3.2293 2.324 5.712.037 1.0827.056 1.8853.056 2.408 0 .504-.019 1.2973-.056 2.38-.075 2.5387-.831 4.452-2.268 5.74-1.419 1.288-3.397 1.932-5.936 1.932zm0-3.248c1.251 0 2.24-.3733 2.968-1.12s1.12-1.8947 1.176-3.444c.037-1.12.056-1.876.056-2.268 0-.4293-.019-1.1853-.056-2.268-.056-1.5307-.457-2.6693-1.204-3.416-.747-.7653-1.727-1.148-2.94-1.148-1.232 0-2.221.3827-2.968 1.148-.747.7467-1.139 1.8853-1.176 3.416-.019.5413-.028 1.2973-.028 2.268 0 .952.009 1.708.028 2.268.037 1.5307.42 2.6787 1.148 3.444.747.7467 1.745 1.12 2.996 1.12zm12.581 2.968c-.187 0-.346-.0653-.476-.196-.131-.1307-.196-.2893-.196-.476v-18.228c0-.2053.056-.3733.168-.504.13-.1307.298-.196.504-.196h12.18c.205 0 .373.0653.504.196.13.1307.196.2987.196.504v2.016c0 .1867-.066.3453-.196.476-.131.1307-.299.196-.504.196h-8.96v5.264h8.4c.205 0 .373.0653.504.196.13.1307.196.2893.196.476v2.016c0 .1867-.066.3453-.196.476-.131.1307-.299.196-.504.196h-8.4v6.916c0 .1867-.066.3453-.196.476-.131.1307-.299.196-.504.196zm16.844 0c-.187 0-.346-.0653-.476-.196-.131-.1307-.196-.2893-.196-.476v-18.228c0-.2053.056-.3733.168-.504.13-.1307.298-.196.504-.196h12.18c.205 0 .373.0653.504.196.13.1307.196.2987.196.504v2.016c0 .1867-.066.3453-.196.476-.131.1307-.299.196-.504.196h-8.96v5.264h8.4c.205 0 .373.0653.504.196.13.1307.196.2893.196.476v2.016c0 .1867-.066.3453-.196.476-.131.1307-.299.196-.504.196h-8.4v6.916c0 .1867-.066.3453-.196.476-.131.1307-.299.196-.504.196zm22.804 0c-.186 0-.345-.0653-.476-.196-.13-.1307-.196-.2893-.196-.476v-18.228c0-.2053.056-.3733.168-.504.131-.1307.299-.196.504-.196h8.12c2.184 0 3.818.4853 4.9 1.456 1.083.952 1.624 2.2587 1.624 3.92 0 .9707-.242 1.8013-.728 2.492-.466.672-1.017 1.1573-1.652 1.456.784.3547 1.447.9333 1.988 1.736.542.8027.812 1.7173.812 2.744 0 1.736-.588 3.136-1.764 4.2s-2.818 1.596-4.928 1.596zm7.616-11.564c.952 0 1.68-.2333 2.184-.7.523-.4667.784-1.092.784-1.876s-.252-1.3907-.756-1.82-1.241-.644-2.212-.644h-4.34v5.04zm.28 8.568c.971 0 1.727-.2613 2.268-.784.542-.5413.812-1.2227.812-2.044s-.28-1.4933-.84-2.016c-.541-.5413-1.288-.812-2.24-.812h-4.62v5.656zm14.547 3.276c-.952 0-1.829-.1867-2.632-.56-.784-.392-1.409-.9147-1.876-1.568-.448-.6533-.672-1.372-.672-2.156 0-1.2693.513-2.296 1.54-3.08s2.436-1.316 4.228-1.596l3.836-.56v-.588c0-.8027-.205-1.4093-.616-1.82s-1.064-.616-1.96-.616c-.616 0-1.111.112-1.484.336s-.681.4573-.924.7c-.224.224-.373.3733-.448.448-.075.224-.215.336-.42.336h-2.184c-.168 0-.317-.056-.448-.168-.112-.112-.168-.2613-.168-.448.019-.4667.243-.9893.672-1.568.448-.5973 1.129-1.1107 2.044-1.54.915-.448 2.044-.672 3.388-.672 2.203 0 3.808.4947 4.816 1.484s1.512 2.2867 1.512 3.892v8.792c0 .1867-.065.3453-.196.476-.112.1307-.271.196-.476.196h-2.324c-.187 0-.345-.0653-.476-.196s-.196-.2893-.196-.476v-1.092c-.411.5973-.989 1.092-1.736 1.484-.747.3733-1.68.56-2.8.56zm.952-2.688c1.027 0 1.867-.336 2.52-1.008s.98-1.6427.98-2.912v-.56l-2.8.448c-2.147.336-3.22 1.0547-3.22 2.156 0 .5973.243 1.064.728 1.4.504.3173 1.101.476 1.792.476zm11.515 2.408c-.186 0-.345-.0653-.476-.196-.13-.1307-.196-.2893-.196-.476v-13.188c0-.2053.066-.3733.196-.504.131-.1307.29-.196.476-.196h2.296c.206 0 .374.0653.504.196.131.1307.196.2987.196.504v1.148c.934-1.232 2.278-1.848 4.032-1.848h1.176c.206 0 .364.0653.476.196.131.112.196.2707.196.476v2.044c0 .1867-.065.3453-.196.476-.112.1307-.27.196-.476.196h-2.212c-.877 0-1.568.252-2.072.756s-.756 1.1947-.756 2.072v7.672c0 .1867-.065.3453-.196.476-.13.1307-.289.196-.476.196zm11.759 0c-.187 0-.346-.0653-.476-.196-.131-.1307-.196-.2893-.196-.476v-18.536c0-.2053.065-.364.196-.476.13-.1307.289-.196.476-.196h2.324c.186 0 .345.0653.476.196.13.1307.196.2893.196.476v9.576l4.648-4.452c.056-.0373.14-.1027.252-.196.13-.112.252-.1867.364-.224s.252-.056.42-.056h2.66c.186 0 .336.056.448.168s.168.2613.168.448c0 .168-.094.336-.28.504l-5.712 5.404 6.412 6.944c.168.168.252.3267.252.476 0 .1867-.056.336-.168.448s-.252.168-.42.168h-2.716c-.262 0-.458-.028-.588-.084-.112-.0747-.262-.2053-.448-.392l-5.292-5.628v5.432c0 .1867-.066.3453-.196.476-.131.1307-.29.196-.476.196zm15.309-16.94c-.187 0-.345-.0653-.476-.196s-.196-.2893-.196-.476v-2.044c0-.2053.065-.3733.196-.504s.289-.196.476-.196h2.576c.205 0 .373.0653.504.196s.196.2987.196.504v2.044c0 .1867-.075.3453-.224.476-.131.1307-.289.196-.476.196zm.112 16.94c-.187 0-.345-.0653-.476-.196s-.196-.2893-.196-.476v-13.216c0-.2053.065-.364.196-.476.131-.1307.289-.196.476-.196h2.38c.187 0 .345.0653.476.196s.196.2893.196.476v13.216c0 .1867-.065.3453-.196.476s-.289.196-.476.196zm13.206.28c-2.203 0-3.901-.56-5.096-1.68s-1.839-2.6693-1.932-4.648l-.028-1.232.028-1.232c.093-1.96.747-3.5 1.96-4.62 1.213-1.1387 2.903-1.708 5.068-1.708 2.147 0 3.827.5693 5.04 1.708 1.213 1.12 1.867 2.66 1.96 4.62.019.224.028.6347.028 1.232s-.009 1.008-.028 1.232c-.093 1.9787-.737 3.528-1.932 4.648s-2.884 1.68-5.068 1.68zm0-2.828c.989 0 1.745-.308 2.268-.924.541-.616.831-1.5213.868-2.716.019-.1867.028-.5507.028-1.092s-.009-.9053-.028-1.092c-.037-1.1947-.327-2.1-.868-2.716-.541-.6347-1.297-.952-2.268-.952-.989 0-1.755.3173-2.296.952-.541.616-.831 1.5213-.868 2.716l-.028 1.092.028 1.092c.037 1.1947.327 2.1.868 2.716s1.307.924 2.296.924zm17.509 2.548c-.187 0-.345-.0653-.476-.196s-.196-.2893-.196-.476v-18.228c0-.2053.056-.3733.168-.504.131-.1307.299-.196.504-.196h7.504c2.259 0 4.032.532 5.32 1.596s1.932 2.6133 1.932 4.648c0 2.016-.644 3.5467-1.932 4.592-1.288 1.0267-3.061 1.54-5.32 1.54h-4.116v6.552c0 .2053-.065.3733-.196.504-.131.112-.299.168-.504.168zm7.364-10.36c1.083 0 1.904-.252 2.464-.756.579-.5227.868-1.2787.868-2.268 0-.9707-.28-1.7267-.84-2.268-.541-.5413-1.372-.812-2.492-.812h-4.032v6.104zm10.784 10.36c-.186 0-.345-.0653-.476-.196-.13-.1307-.196-.2893-.196-.476v-13.188c0-.2053.066-.3733.196-.504.131-.1307.29-.196.476-.196h2.296c.206 0 .374.0653.504.196.131.1307.196.2987.196.504v1.148c.934-1.232 2.278-1.848 4.032-1.848h1.176c.206 0 .364.0653.476.196.131.112.196.2707.196.476v2.044c0 .1867-.065.3453-.196.476-.112.1307-.27.196-.476.196h-2.212c-.877 0-1.568.252-2.072.756s-.756 1.1947-.756 2.072v7.672c0 .1867-.065.3453-.196.476-.13.1307-.289.196-.476.196zm17.167.28c-2.09 0-3.752-.5973-4.984-1.792-1.213-1.1947-1.857-2.8933-1.932-5.096l-.028-.7c0-2.3333.607-4.172 1.82-5.516 1.232-1.344 2.931-2.016 5.096-2.016 2.222 0 3.93.672 5.124 2.016 1.214 1.344 1.82 3.136 1.82 5.376v.588c0 .1867-.065.3453-.196.476-.13.1307-.298.196-.504.196h-9.296v.224c.038 1.0453.318 1.9133.84 2.604.542.672 1.279 1.008 2.212 1.008 1.064 0 1.932-.4293 2.604-1.288.168-.2053.299-.3267.392-.364.094-.056.252-.084.476-.084h2.464c.168 0 .308.0467.42.14.131.0933.196.224.196.392 0 .448-.27.98-.812 1.596-.522.5973-1.278 1.12-2.268 1.568-.989.448-2.137.672-3.444.672zm3.052-8.848v-.056c0-1.1013-.28-1.9787-.84-2.632-.541-.672-1.288-1.008-2.24-1.008s-1.698.336-2.24 1.008c-.541.6533-.812 1.5307-.812 2.632v.056zm7.508 8.568c-.187 0-.346-.0653-.476-.196-.131-.1307-.196-.2893-.196-.476v-13.216c0-.2053.065-.364.196-.476.13-.1307.289-.196.476-.196h2.212c.205 0 .364.0653.476.196.13.112.196.2707.196.476v.952c1.008-1.2693 2.361-1.904 4.06-1.904 2.072 0 3.518.8307 4.34 2.492.448-.7467 1.082-1.344 1.904-1.792.821-.4667 1.708-.7 2.66-.7 1.53 0 2.781.5227 3.752 1.568.97 1.0453 1.456 2.5667 1.456 4.564v8.036c0 .1867-.066.3453-.196.476-.112.1307-.271.196-.476.196h-2.324c-.187 0-.346-.0653-.476-.196-.131-.1307-.196-.2893-.196-.476v-7.812c0-1.176-.252-2.0253-.756-2.548-.486-.5227-1.13-.784-1.932-.784-.728 0-1.354.2707-1.876.812-.504.5227-.756 1.3627-.756 2.52v7.812c0 .1867-.066.3453-.196.476-.112.1307-.271.196-.476.196h-2.352c-.187 0-.346-.0653-.476-.196-.131-.1307-.196-.2893-.196-.476v-7.812c0-1.1573-.252-1.9973-.756-2.52-.504-.5413-1.148-.812-1.932-.812-.728 0-1.354.2707-1.876.812-.504.5227-.756 1.3627-.756 2.52v7.812c0 .1867-.066.3453-.196.476-.112.1307-.271.196-.476.196zm25.181-16.94c-.187 0-.346-.0653-.476-.196-.131-.1307-.196-.2893-.196-.476v-2.044c0-.2053.065-.3733.196-.504.13-.1307.289-.196.476-.196h2.576c.205 0 .373.0653.504.196.13.1307.196.2987.196.504v2.044c0 .1867-.075.3453-.224.476-.131.1307-.29.196-.476.196zm.112 16.94c-.187 0-.346-.0653-.476-.196-.131-.1307-.196-.2893-.196-.476v-13.216c0-.2053.065-.364.196-.476.13-.1307.289-.196.476-.196h2.38c.186 0 .345.0653.476.196.13.1307.196.2893.196.476v13.216c0 .1867-.066.3453-.196.476-.131.1307-.29.196-.476.196zm12.142.28c-1.717 0-3.071-.56-4.06-1.68s-1.484-2.66-1.484-4.62v-7.868c0-.2053.065-.364.196-.476.131-.1307.289-.196.476-.196h2.52c.187 0 .345.0653.476.196s.196.2893.196.476v7.7c0 2.296.999 3.444 2.996 3.444.971 0 1.736-.308 2.296-.924.579-.616.868-1.456.868-2.52v-7.7c0-.2053.065-.364.196-.476.131-.1307.289-.196.476-.196h2.492c.205 0 .364.0653.476.196.131.112.196.2707.196.476v13.216c0 .1867-.065.3453-.196.476-.112.1307-.271.196-.476.196h-2.324c-.187 0-.345-.0653-.476-.196s-.196-.2893-.196-.476v-1.148c-1.027 1.4-2.576 2.1-4.648 2.1zm12.686-.28c-.187 0-.345-.0653-.476-.196s-.196-.2893-.196-.476v-13.216c0-.2053.065-.364.196-.476.131-.1307.289-.196.476-.196h2.212c.205 0 .364.0653.476.196.131.112.196.2707.196.476v.952c1.008-1.2693 2.361-1.904 4.06-1.904 2.072 0 3.519.8307 4.34 2.492.448-.7467 1.083-1.344 1.904-1.792.821-.4667 1.708-.7 2.66-.7 1.531 0 2.781.5227 3.752 1.568s1.456 2.5667 1.456 4.564v8.036c0 .1867-.065.3453-.196.476-.112.1307-.271.196-.476.196h-2.324c-.187 0-.345-.0653-.476-.196s-.196-.2893-.196-.476v-7.812c0-1.176-.252-2.0253-.756-2.548-.485-.5227-1.129-.784-1.932-.784-.728 0-1.353.2707-1.876.812-.504.5227-.756 1.3627-.756 2.52v7.812c0 .1867-.065.3453-.196.476-.112.1307-.271.196-.476.196h-2.352c-.187 0-.345-.0653-.476-.196s-.196-.2893-.196-.476v-7.812c0-1.1573-.252-1.9973-.756-2.52-.504-.5413-1.148-.812-1.932-.812-.728 0-1.353.2707-1.876.812-.504.5227-.756 1.3627-.756 2.52v7.812c0 .1867-.065.3453-.196.476-.112.1307-.271.196-.476.196z" fill="#fff"/><path d="m448 63 7 7-7 7" stroke="#fff" stroke-linecap="round" stroke-width="3"/></svg>