<svg fill="none" height="140" viewBox="0 0 487 140" width="487" xmlns="http://www.w3.org/2000/svg"><path d="m0 0h487v140h-487z" fill="#ff4f41"/><path d="m34.1626 101.592c-7.3849-.724-18.0763-6.8849-18.8349-23.9444-.7585-17.0595 7.4952-31.209 17.4728-39.0363 12.9561-10.1639 23.8718-14.097 48.7777 1.9181 19.8608 12.7707 24.0248 45.3849 11.0316 53.7113-12.9935 8.3263-51.0623 8.0753-58.4472 7.3513z" fill="#fff" fill-opacity=".12"/><path d="m64.0753 54.4208-6.2635-14.866c-1.1267-2.7059-4.9709-2.7059-6.0977 0l-6.2634 14.8994-16.0066 1.3697c-2.9164.2339-4.1094 3.9086-1.889 5.8462l12.1623 10.6233-3.6453 15.768c-.6628 2.873 2.4192 5.1446 4.9378 3.6079l13.7531-8.3517 13.753 8.3851c2.5187 1.5367 5.6007-.7349 4.9379-3.6079l-3.6454-15.8014 12.1624-10.6233c2.2203-1.9376 1.0604-5.6123-1.8559-5.8462z" fill="#fab500"/><path clip-rule="evenodd" d="m55.9533 66.6043c.1584.1052.294.2411.3989.3997l16.1008 24.3544c-.9754.8611-2.4342 1.1559-3.7611.4263l-.1416-.0821-13.7531-8.3851-13.753 8.3517c-1.1537.7039-2.4256.6087-3.4016.0227l16.3451-24.6887c.4328-.6537 1.3128-.8323 1.9656-.3989z" fill="#faa402" fill-rule="evenodd" opacity=".729469"/><path clip-rule="evenodd" d="m54.7685 37.5249.0309 25.1747c.0009.7843-.6332 1.4209-1.4164 1.4218-.1129 0-.2253-.0132-.335-.0397l-26.2882-6.3639c.4469-.964 1.3404-1.7221 2.551-1.8771l.167-.0174 16.0066-1.3697 6.2634-14.8994c.5368-1.289 1.6902-1.964 2.8727-2.0249z" fill="#ffc326" fill-rule="evenodd"/><g fill="#f9a801"><path d="m76.027 40.4671c.2636-.2901.712-.3113 1.0017-.0474.2674.2436.306.645.1031.9334l-.0558.0696-5.7263 6.3023c-.2635.29-.712.3112-1.0016.0473-.2674-.2436-.306-.645-.1031-.9334l.0558-.0696z"/><path d="m77.52 74.8648c.1496-.3319.5224-.4926.8607-.3847l.0773.0297 7.7551 3.506c.3569.1613.5156.5819.3545.9393-.1496.3319-.5224.4926-.8607.3847l-.0773-.0297-7.7551-3.506c-.3569-.1613-.5156-.5819-.3545-.9393z"/><path d="m30.5359 74.8107c.3631-.1469.7764.0287.9231.3923.1362.3376-.0053.7186-.3169.8889l-.0749.0354-7.8892 3.1919c-.3631.1469-.7764-.0288-.9231-.3924-.1362-.3376.0054-.7185.317-.8889l.0749-.0354z"/><path d="m32.4582 40.4099c.2687-.2422.6714-.2408.9378-.0099l.0636.0625 5.6935 6.3319c.2621.2914.2386.7404-.0525 1.0028-.2686.2422-.6713.2408-.9377.0099l-.0637-.0625-5.6934-6.3319c-.2621-.2914-.2386-.7404.0524-1.0028z"/></g><path d="m21.9833 41.2708c.7573.8412.6894 2.137-.1517 2.8945-.8413.7576-2.1375.6897-2.895-.1518l-4.5713-5.0779c-.7572-.8412-.6893-2.137.1517-2.8944.8413-.7577 2.1375-.6898 2.895.1517z" fill="#58a509"/><path d="m97.7743 99.1736c-.8611.8604-2.2569.8604-3.118 0-.8613-.8612-.8613-2.2576 0-3.1187l5.1979-5.1969c.8608-.8609 2.2568-.8609 3.1178 0 .862.8612.862 2.2575 0 3.1187z" fill="#58a509"/><path d="m12.8378 92.4438c-.0523-1.008.7241-1.8675 1.7321-1.9197s1.8689.7225 1.9212 1.7304l.3787 7.3076c.0522 1.0079-.7242 1.8679-1.7322 1.9199-1.0079.052-1.8689-.723-1.9211-1.7305z" fill="#9b1ff4"/><g stroke-linecap="round"><path d="m44.858 27.5497s1.0159-4.1769-3.4812-5.9872" stroke="#fcc840" stroke-linejoin="round" stroke-width="4.71072"/><path d="m90.7514 32.6162s-1.4597 4.2031 3.4581 7.5703" stroke="#9b1ff4" stroke-linejoin="round" stroke-width="4.71072"/><path d="m51.096 109.871s5.7884-.133 5.5898-5.274" stroke="#27a9f6" stroke-linejoin="round" stroke-width="4.67178"/></g><path d="m123.448 59c-.16 0-.296-.056-.408-.168s-.168-.248-.168-.408v-15.624c0-.176.048-.32.144-.432.112-.112.256-.168.432-.168h1.872c.304 0 .536.136.696.408l6.864 10.656v-10.464c0-.176.048-.32.144-.432.112-.112.256-.168.432-.168h2.064c.176 0 .32.056.432.168s.168.256.168.432v15.6c0 .176-.056.32-.168.432s-.248.168-.408.168h-1.896c-.32 0-.56-.136-.72-.408l-6.84-10.416v10.248c0 .16-.056.296-.168.408-.096.112-.232.168-.408.168zm21.505.24c-1.792 0-3.216-.512-4.272-1.536-1.04-1.024-1.592-2.48-1.656-4.368l-.024-.6c0-2 .52-3.576 1.56-4.728 1.056-1.152 2.512-1.728 4.368-1.728 1.904 0 3.368.576 4.392 1.728 1.04 1.152 1.56 2.688 1.56 4.608v.504c0 .16-.056.296-.168.408s-.256.168-.432.168h-7.968v.192c.032.896.272 1.64.72 2.232.464.576 1.096.864 1.896.864.912 0 1.656-.368 2.232-1.104.144-.176.256-.28.336-.312.08-.048.216-.072.408-.072h2.112c.144 0 .264.04.36.12.112.08.168.192.168.336 0 .384-.232.84-.696 1.368-.448.512-1.096.96-1.944 1.344s-1.832.576-2.952.576zm2.616-7.584v-.048c0-.944-.24-1.696-.72-2.256-.464-.576-1.104-.864-1.92-.864s-1.456.288-1.92.864c-.464.56-.696 1.312-.696 2.256v.048zm10.491 7.584c-1.472 0-2.632-.48-3.48-1.44s-1.272-2.28-1.272-3.96v-6.744c0-.176.056-.312.168-.408.112-.112.248-.168.408-.168h2.16c.16 0 .296.056.408.168s.168.248.168.408v6.6c0 1.968.856 2.952 2.568 2.952.832 0 1.488-.264 1.968-.792.496-.528.744-1.248.744-2.16v-6.6c0-.176.056-.312.168-.408.112-.112.248-.168.408-.168h2.136c.176 0 .312.056.408.168.112.096.168.232.168.408v11.328c0 .16-.056.296-.168.408-.096.112-.232.168-.408.168h-1.992c-.16 0-.296-.056-.408-.168s-.168-.248-.168-.408v-.984c-.88 1.2-2.208 1.8-3.984 1.8zm11.017-14.76c-.16 0-.296-.056-.408-.168s-.168-.248-.168-.408v-1.752c0-.16.056-.296.168-.408.112-.128.248-.192.408-.192h2.328c.16 0 .296.056.408.168s.168.256.168.432v1.752c0 .16-.056.296-.168.408s-.248.168-.408.168zm-2.784 19.08c-.176 0-.312-.056-.408-.168-.112-.096-.168-.232-.168-.408v-1.416c0-.16.056-.296.168-.408.096-.112.232-.168.408-.168h.624c.672 0 1.12-.176 1.344-.528.24-.336.36-.84.36-1.512v-11.856c0-.176.056-.312.168-.408.112-.112.248-.168.408-.168h2.112c.176 0 .312.056.408.168.112.096.168.232.168.408v11.928c0 1.44-.392 2.552-1.176 3.336-.784.8-1.944 1.2-3.48 1.2zm12.415-4.32c-.816 0-1.568-.16-2.256-.48-.672-.336-1.208-.784-1.608-1.344-.384-.56-.576-1.176-.576-1.848 0-1.088.44-1.968 1.32-2.64s2.088-1.128 3.624-1.368l3.288-.48v-.504c0-.688-.176-1.208-.528-1.56s-.912-.528-1.68-.528c-.528 0-.952.096-1.272.288s-.584.392-.792.6c-.192.192-.32.32-.384.384-.064.192-.184.288-.36.288h-1.872c-.144 0-.272-.048-.384-.144-.096-.096-.144-.224-.144-.384.016-.4.208-.848.576-1.344.384-.512.968-.952 1.752-1.32.784-.384 1.752-.576 2.904-.576 1.888 0 3.264.424 4.128 1.272s1.296 1.96 1.296 3.336v7.536c0 .16-.056.296-.168.408-.096.112-.232.168-.408.168h-1.992c-.16 0-.296-.056-.408-.168s-.168-.248-.168-.408v-.936c-.352.512-.848.936-1.488 1.272-.64.32-1.44.48-2.4.48zm.816-2.304c.88 0 1.6-.288 2.16-.864s.84-1.408.84-2.496v-.48l-2.4.384c-1.84.288-2.76.904-2.76 1.848 0 .512.208.912.624 1.2.432.272.944.408 1.536.408zm9.894 2.064c-.16 0-.296-.056-.408-.168s-.168-.248-.168-.408v-15.888c0-.176.056-.312.168-.408.112-.112.248-.168.408-.168h2.184c.176 0 .312.056.408.168.112.096.168.232.168.408v5.472c.96-1.152 2.248-1.728 3.864-1.728 1.472 0 2.648.488 3.528 1.464.88.96 1.32 2.272 1.32 3.936v6.744c0 .16-.056.296-.168.408-.096.112-.232.168-.408.168h-2.184c-.176 0-.32-.056-.432-.168s-.168-.248-.168-.408v-6.6c0-.928-.232-1.648-.696-2.16-.448-.528-1.096-.792-1.944-.792-.816 0-1.472.264-1.968.792s-.744 1.248-.744 2.16v6.6c0 .16-.056.296-.168.408-.096.112-.232.168-.408.168zm15.094 0c-.16 0-.296-.056-.408-.168s-.168-.248-.168-.408v-11.304c0-.176.056-.32.168-.432s.248-.168.408-.168h1.968c.176 0 .32.056.432.168s.168.256.168.432v.984c.8-1.056 1.952-1.584 3.456-1.584h1.008c.176 0 .312.056.408.168.112.096.168.232.168.408v1.752c0 .16-.056.296-.168.408-.096.112-.232.168-.408.168h-1.896c-.752 0-1.344.216-1.776.648s-.648 1.024-.648 1.776v6.576c0 .16-.056.296-.168.408s-.248.168-.408.168zm14.23.24c-1.216 0-2.232-.184-3.048-.552s-1.424-.792-1.824-1.272c-.384-.496-.576-.92-.576-1.272 0-.16.048-.288.144-.384.112-.096.24-.144.384-.144h1.968c.128 0 .24.064.336.192.08.064.256.216.528.456.288.24.608.432.96.576.368.128.768.192 1.2.192.64 0 1.16-.12 1.56-.36.4-.256.6-.616.6-1.08 0-.32-.096-.576-.288-.768-.176-.208-.504-.392-.984-.552-.464-.176-1.168-.368-2.112-.576-1.36-.288-2.368-.728-3.024-1.32-.64-.592-.96-1.376-.96-2.352 0-.64.192-1.24.576-1.8.384-.576.952-1.04 1.704-1.392.768-.368 1.68-.552 2.736-.552 1.088 0 2.024.176 2.808.528.784.336 1.376.744 1.776 1.224.416.48.624.904.624 1.272 0 .144-.056.272-.168.384-.096.096-.216.144-.36.144h-1.8c-.176 0-.312-.064-.408-.192-.112-.08-.296-.224-.552-.432-.24-.224-.512-.4-.816-.528s-.672-.192-1.104-.192c-.592 0-1.048.128-1.368.384s-.48.592-.48 1.008c0 .288.072.528.216.72.16.192.472.376.936.552.464.16 1.16.328 2.088.504 2.88.56 4.32 1.816 4.32 3.768 0 1.136-.496 2.056-1.488 2.76-.976.704-2.344 1.056-4.104 1.056zm11.669 0c-.816 0-1.568-.16-2.256-.48-.672-.336-1.208-.784-1.608-1.344-.384-.56-.576-1.176-.576-1.848 0-1.088.44-1.968 1.32-2.64s2.088-1.128 3.624-1.368l3.288-.48v-.504c0-.688-.176-1.208-.528-1.56s-.912-.528-1.68-.528c-.528 0-.952.096-1.272.288s-.584.392-.792.6c-.192.192-.32.32-.384.384-.064.192-.184.288-.36.288h-1.872c-.144 0-.272-.048-.384-.144-.096-.096-.144-.224-.144-.384.016-.4.208-.848.576-1.344.384-.512.968-.952 1.752-1.32.784-.384 1.752-.576 2.904-.576 1.888 0 3.264.424 4.128 1.272s1.296 1.96 1.296 3.336v7.536c0 .16-.056.296-.168.408-.096.112-.232.168-.408.168h-1.992c-.16 0-.296-.056-.408-.168s-.168-.248-.168-.408v-.936c-.352.512-.848.936-1.488 1.272-.64.32-1.44.48-2.4.48zm.816-2.304c.88 0 1.6-.288 2.16-.864s.84-1.408.84-2.496v-.48l-2.4.384c-1.84.288-2.76.904-2.76 1.848 0 .512.208.912.624 1.2.432.272.944.408 1.536.408zm9.871 2.064c-.16 0-.296-.056-.408-.168s-.169-.248-.169-.408v-11.328c0-.176.057-.312.169-.408.112-.112.248-.168.408-.168h1.992c.176 0 .312.056.408.168.112.096.168.232.168.408v.984c.976-1.2 2.312-1.8 4.008-1.8 1.472 0 2.64.48 3.504 1.44s1.296 2.28 1.296 3.96v6.744c0 .16-.056.296-.168.408-.096.112-.232.168-.408.168h-2.16c-.16 0-.296-.056-.408-.168s-.168-.248-.168-.408v-6.6c0-.928-.232-1.648-.696-2.16-.448-.528-1.096-.792-1.944-.792-.816 0-1.472.264-1.968.792s-.744 1.248-.744 2.16v6.6c0 .16-.056.296-.168.408-.096.112-.232.168-.408.168zm20.064 5.28c-1.424 0-2.576-.24-3.456-.72-.88-.464-1.504-1-1.872-1.608s-.552-1.128-.552-1.56c0-.16.056-.296.168-.408.112-.096.248-.144.408-.144h2.136c.144 0 .264.032.36.096.112.08.2.216.264.408.176.416.44.768.792 1.056.352.304.896.456 1.632.456.96 0 1.664-.216 2.112-.648.448-.416.672-1.152.672-2.208v-1.632c-.864 1.024-2.088 1.536-3.672 1.536-1.664 0-2.92-.504-3.768-1.512-.832-1.008-1.28-2.384-1.344-4.128l-.024-.648.024-.648c.064-1.712.52-3.088 1.368-4.128s2.096-1.56 3.744-1.56c.848 0 1.592.16 2.232.48s1.168.752 1.584 1.296v-.936c0-.176.056-.32.168-.432.128-.112.272-.168.432-.168h1.968c.16 0 .296.056.408.168s.168.256.168.432l.024 11.568c0 1.776-.496 3.152-1.488 4.128s-2.488 1.464-4.488 1.464zm-.096-7.92c.896 0 1.568-.288 2.016-.864s.696-1.28.744-2.112c.016-.128.024-.384.024-.768s-.008-.64-.024-.768c-.048-.832-.296-1.536-.744-2.112s-1.12-.864-2.016-.864c-1.728 0-2.64 1.056-2.736 3.168l-.024.576c0 2.496.92 3.744 2.76 3.744zm14.645 2.88c-1.792 0-3.216-.512-4.272-1.536-1.04-1.024-1.592-2.48-1.656-4.368l-.024-.6c0-2 .52-3.576 1.56-4.728 1.056-1.152 2.512-1.728 4.368-1.728 1.904 0 3.368.576 4.392 1.728 1.04 1.152 1.56 2.688 1.56 4.608v.504c0 .16-.056.296-.168.408s-.256.168-.432.168h-7.968v.192c.032.896.272 1.64.72 2.232.464.576 1.096.864 1.896.864.912 0 1.656-.368 2.232-1.104.144-.176.256-.28.336-.312.08-.048.216-.072.408-.072h2.112c.144 0 .264.04.36.12.112.08.168.192.168.336 0 .384-.232.84-.696 1.368-.448.512-1.096.96-1.944 1.344s-1.832.576-2.952.576zm2.616-7.584v-.048c0-.944-.24-1.696-.72-2.256-.464-.576-1.104-.864-1.92-.864s-1.456.288-1.92.864c-.464.56-.696 1.312-.696 2.256v.048zm12.795 7.584c-1.664 0-2.936-.568-3.816-1.704v.888c0 .16-.056.296-.168.408s-.256.168-.432.168h-1.92c-.16 0-.296-.056-.408-.168s-.168-.248-.168-.408v-15.888c0-.176.056-.312.168-.408.112-.112.248-.168.408-.168h2.088c.176 0 .312.056.408.168.112.096.168.232.168.408v5.328c.896-1.056 2.12-1.584 3.672-1.584 1.616 0 2.856.528 3.72 1.584.88 1.04 1.344 2.408 1.392 4.104.016.192.024.456.024.792 0 .32-.008.584-.024.792-.064 1.728-.528 3.112-1.392 4.152-.864 1.024-2.104 1.536-3.72 1.536zm-.912-2.592c1.712 0 2.624-1.056 2.736-3.168.016-.16.024-.4.024-.72s-.008-.56-.024-.72c-.112-2.112-1.024-3.168-2.736-3.168-.88 0-1.552.28-2.016.84s-.712 1.24-.744 2.04c-.016.192-.024.504-.024.936 0 .416.008.72.024.912.032.848.272 1.568.72 2.16s1.128.888 2.04.888zm14.262 2.592c-1.888 0-3.344-.48-4.368-1.44s-1.576-2.288-1.656-3.984l-.024-1.056.024-1.056c.08-1.68.64-3 1.68-3.96 1.04-.976 2.488-1.464 4.344-1.464 1.84 0 3.28.488 4.32 1.464 1.04.96 1.6 2.28 1.68 3.96.016.192.024.544.024 1.056s-.008.864-.024 1.056c-.08 1.696-.632 3.024-1.656 3.984s-2.472 1.44-4.344 1.44zm0-2.424c.848 0 1.496-.264 1.944-.792.464-.528.712-1.304.744-2.328.016-.16.024-.472.024-.936s-.008-.776-.024-.936c-.032-1.024-.28-1.8-.744-2.328-.464-.544-1.112-.816-1.944-.816-.848 0-1.504.272-1.968.816-.464.528-.712 1.304-.744 2.328l-.024.936.024.936c.032 1.024.28 1.8.744 2.328s1.12.792 1.968.792zm14.253 2.184c-1.456 0-2.552-.376-3.288-1.128-.736-.768-1.104-1.888-1.104-3.36v-5.424h-1.896c-.16 0-.296-.056-.408-.168s-.168-.248-.168-.408v-1.416c0-.16.056-.296.168-.408s.248-.168.408-.168h1.896v-3.984c0-.176.056-.312.168-.408.112-.112.248-.168.408-.168h1.992c.176 0 .312.056.408.168.112.096.168.232.168.408v3.984h3c.16 0 .296.056.408.168s.168.248.168.408v1.416c0 .16-.056.296-.168.408s-.248.168-.408.168h-3v5.16c0 .688.12 1.208.36 1.56s.632.528 1.176.528h1.68c.176 0 .312.056.408.168.112.096.168.232.168.408v1.512c0 .16-.056.296-.168.408-.096.112-.232.168-.408.168zm5.176-8.4c-.16 0-.296-.056-.408-.168s-.168-.248-.168-.408v-2.304c0-.176.056-.32.168-.432s.248-.168.408-.168h2.4c.176 0 .32.056.432.168s.168.256.168.432v2.304c0 .16-.056.296-.168.408s-.256.168-.432.168zm0 8.4c-.16 0-.296-.056-.408-.168s-.168-.248-.168-.408v-2.304c0-.176.056-.32.168-.432s.248-.168.408-.168h2.4c.176 0 .32.056.432.168s.168.256.168.432v2.304c0 .16-.056.296-.168.408s-.256.168-.432.168zm11.638 0c-.16 0-.296-.056-.408-.168s-.168-.248-.168-.408v-1.248c0-.448.2-.824.6-1.128l3.744-3.72c1.136-.896 2.008-1.624 2.616-2.184.624-.576 1.088-1.104 1.392-1.584s.456-.952.456-1.416c0-.752-.2-1.344-.6-1.776s-1.008-.648-1.824-.648c-.8 0-1.432.24-1.896.72-.448.464-.728 1.072-.84 1.824-.048.192-.144.336-.288.432-.128.08-.272.12-.432.12h-2.16c-.144 0-.264-.048-.36-.144s-.144-.216-.144-.36c.032-.944.288-1.824.768-2.64.496-.832 1.2-1.496 2.112-1.992.912-.512 1.984-.768 3.216-.768 1.28 0 2.368.224 3.264.672.896.432 1.568 1.032 2.016 1.8s.672 1.64.672 2.616c0 1.072-.304 2.048-.912 2.928-.592.864-1.52 1.792-2.784 2.784l-3.336 3.384h6.792c.176 0 .32.056.432.168s.168.256.168.432v1.728c0 .176-.056.32-.168.432-.112.096-.256.144-.432.144zm19.875 0c-.16 0-.296-.056-.408-.168s-.168-.248-.168-.408v-12.384l-3.624 2.784c-.096.08-.216.12-.36.12-.192 0-.344-.08-.456-.24l-1.032-1.344c-.08-.112-.12-.224-.12-.336 0-.192.088-.352.264-.48l5.376-4.176c.176-.112.376-.168.6-.168h2.16c.16 0 .296.056.408.168s.168.248.168.408v15.648c0 .16-.056.296-.168.408s-.248.168-.408.168zm14.553-8.352c-1.056 0-1.904-.28-2.544-.84-.624-.56-.968-1.32-1.032-2.28-.016-.272-.024-.632-.024-1.08 0-.48.008-.864.024-1.152.064-.992.4-1.776 1.008-2.352s1.464-.864 2.568-.864 1.96.288 2.568.864c.624.576.968 1.36 1.032 2.352.032.576.048.96.048 1.152 0 .176-.016.536-.048 1.08-.064.96-.416 1.72-1.056 2.28-.624.56-1.472.84-2.544.84zm-1.944 8.352c-.16 0-.288-.04-.384-.12-.096-.096-.144-.216-.144-.36 0-.096.032-.184.096-.264l11.832-15.6c.128-.16.248-.272.36-.336.112-.08.272-.12.48-.12h1.272c.16 0 .28.048.36.144.096.08.144.192.144.336 0 .096-.032.184-.096.264l-11.832 15.6c-.128.16-.248.28-.36.36-.112.064-.264.096-.456.096zm1.944-10.152c.464 0 .8-.136 1.008-.408.224-.272.36-.616.408-1.032.032-.544.048-.88.048-1.008 0-.176-.016-.504-.048-.984-.032-.416-.16-.76-.384-1.032-.224-.288-.568-.432-1.032-.432-.448 0-.784.144-1.008.432-.224.272-.352.616-.384 1.032-.016.24-.024.568-.024.984 0 .4.008.736.024 1.008.032.4.152.744.36 1.032.224.272.568.408 1.032.408zm9.6 10.296c-1.056 0-1.904-.288-2.544-.864-.624-.592-.968-1.376-1.032-2.352-.016-.272-.024-.632-.024-1.08 0-.464.008-.84.024-1.128.064-.992.4-1.776 1.008-2.352s1.464-.864 2.568-.864c1.12 0 1.984.288 2.592.864s.944 1.36 1.008 2.352c.032.576.048.952.048 1.128s-.016.536-.048 1.08c-.064.976-.416 1.76-1.056 2.352-.624.576-1.472.864-2.544.864zm0-1.872c.48 0 .824-.136 1.032-.408.224-.288.352-.632.384-1.032.032-.544.048-.888.048-1.032 0-.16-.016-.48-.048-.96-.032-.416-.16-.76-.384-1.032-.224-.288-.568-.432-1.032-.432-.448 0-.784.144-1.008.432-.224.272-.352.616-.384 1.032-.016.24-.024.56-.024.96 0 .416.008.76.024 1.032.032.4.152.744.36 1.032.224.272.568.408 1.032.408zm-256.119 37.728c-.16 0-.296-.056-.408-.168s-.168-.248-.168-.408v-15.624c0-.176.048-.32.144-.432.112-.112.256-.168.432-.168h6.216c1.968 0 3.504.456 4.608 1.368 1.12.912 1.68 2.208 1.68 3.888 0 1.168-.28 2.152-.84 2.952-.56.784-1.344 1.352-2.352 1.704l3.48 6.12c.048.096.072.184.072.264 0 .144-.056.264-.168.36-.096.096-.208.144-.336.144h-2.208c-.256 0-.456-.056-.6-.168-.144-.128-.272-.288-.384-.48l-3.072-5.688h-3.288v5.76c0 .16-.056.296-.168.408s-.256.168-.432.168zm6.144-9.072c.96 0 1.68-.208 2.16-.624.48-.432.72-1.056.72-1.872s-.24-1.44-.72-1.872c-.48-.448-1.2-.672-2.16-.672h-3.336v5.04zm8.42 9.072c-.144 0-.264-.048-.36-.144s-.144-.216-.144-.36l.048-.216 5.76-15.48c.16-.4.448-.6.864-.6h2.64c.416 0 .704.2.864.6l5.76 15.48.048.216c0 .144-.056.264-.168.36-.096.096-.208.144-.336.144h-2.136c-.336 0-.568-.152-.696-.456l-1.104-2.904h-7.104l-1.104 2.904c-.128.304-.36.456-.696.456zm4.776-6.144h5.424l-2.712-7.392zm13.496 6.144c-.16 0-.296-.056-.408-.168s-.168-.248-.168-.408v-15.624c0-.176.048-.32.144-.432.112-.112.256-.168.432-.168h6.96c1.872 0 3.272.416 4.2 1.248.928.816 1.392 1.936 1.392 3.36 0 .832-.208 1.544-.624 2.136-.4.576-.872.992-1.416 1.248.672.304 1.24.8 1.704 1.488s.696 1.472.696 2.352c0 1.488-.504 2.688-1.512 3.6s-2.416 1.368-4.224 1.368zm6.528-9.912c.816 0 1.44-.2 1.872-.6.448-.4.672-.936.672-1.608s-.216-1.192-.648-1.56-1.064-.552-1.896-.552h-3.72v4.32zm.24 7.344c.832 0 1.48-.224 1.944-.672.464-.464.696-1.048.696-1.752s-.24-1.28-.72-1.728c-.464-.464-1.104-.696-1.92-.696h-3.96v4.848zm7.89 2.568c-.144 0-.264-.048-.36-.144s-.144-.216-.144-.36l.048-.216 5.76-15.48c.16-.4.448-.6.864-.6h2.64c.416 0 .704.2.864.6l5.76 15.48.048.216c0 .144-.056.264-.168.36-.096.096-.208.144-.336.144h-2.136c-.336 0-.568-.152-.696-.456l-1.104-2.904h-7.104l-1.104 2.904c-.128.304-.36.456-.696.456zm4.776-6.144h5.424l-2.712-7.392zm15.434 6.144c-.16 0-.296-.056-.408-.168s-.168-.248-.168-.408v-13.224h-4.44c-.16 0-.296-.056-.408-.168s-.168-.256-.168-.432v-1.8c0-.176.048-.32.144-.432.112-.112.256-.168.432-.168h12.264c.176 0 .32.056.432.168s.168.256.168.432v1.8c0 .176-.056.32-.168.432s-.256.168-.432.168h-4.416v13.224c0 .16-.056.296-.168.408-.096.112-.232.168-.408.168zm14.555 0c-.16 0-.296-.056-.408-.168s-.168-.248-.168-.408v-13.224h-4.44c-.16 0-.296-.056-.408-.168s-.168-.256-.168-.432v-1.8c0-.176.048-.32.144-.432.112-.112.256-.168.432-.168h12.264c.176 0 .32.056.432.168s.168.256.168.432v1.8c0 .176-.056.32-.168.432s-.256.168-.432.168h-4.416v13.224c0 .16-.056.296-.168.408-.096.112-.232.168-.408.168zm18.493.24c-.816 0-1.568-.16-2.256-.48-.672-.336-1.208-.784-1.608-1.344-.384-.56-.576-1.176-.576-1.848 0-1.088.44-1.968 1.32-2.64s2.088-1.128 3.624-1.368l3.288-.48v-.504c0-.688-.176-1.208-.528-1.56s-.912-.528-1.68-.528c-.528 0-.952.096-1.272.288s-.584.392-.792.6c-.192.192-.32.32-.384.384-.064.192-.184.288-.36.288h-1.872c-.144 0-.272-.048-.384-.144-.096-.096-.144-.224-.144-.384.016-.4.208-.848.576-1.344.384-.512.968-.952 1.752-1.32.784-.384 1.752-.576 2.904-.576 1.888 0 3.264.424 4.128 1.272s1.296 1.96 1.296 3.336v7.536c0 .16-.056.296-.168.408-.096.112-.232.168-.408.168h-1.992c-.16 0-.296-.056-.408-.168s-.168-.248-.168-.408v-.936c-.352.512-.848.936-1.488 1.272-.64.32-1.44.48-2.4.48zm.816-2.304c.88 0 1.6-.288 2.16-.864s.84-1.408.84-2.496v-.48l-2.4.384c-1.84.288-2.76.904-2.76 1.848 0 .512.208.912.624 1.2.432.272.944.408 1.536.408zm13.927 2.304c-1.472 0-2.632-.48-3.48-1.44s-1.272-2.28-1.272-3.96v-6.744c0-.176.056-.312.168-.408.112-.112.248-.168.408-.168h2.16c.16 0 .296.056.408.168s.168.248.168.408v6.6c0 1.968.856 2.952 2.568 2.952.832 0 1.488-.264 1.968-.792.496-.528.744-1.248.744-2.16v-6.6c0-.176.056-.312.168-.408.112-.112.248-.168.408-.168h2.136c.176 0 .312.056.408.168.112.096.168.232.168.408v11.328c0 .16-.056.296-.168.408-.096.112-.232.168-.408.168h-1.992c-.16 0-.296-.056-.408-.168s-.168-.248-.168-.408v-.984c-.88 1.2-2.208 1.8-3.984 1.8zm12.217-.24c-.16 0-.296-.056-.408-.168s-.168-.248-.168-.408v-9.336h-1.944c-.16 0-.296-.056-.408-.168s-.168-.248-.168-.408v-1.416c0-.16.056-.296.168-.408s.248-.168.408-.168h1.944v-.96c0-1.456.392-2.536 1.176-3.24.784-.72 1.968-1.08 3.552-1.08h1.656c.16 0 .296.056.408.168s.168.248.168.408v1.416c0 .16-.056.296-.168.408s-.248.168-.408.168h-1.536c-.624 0-1.064.152-1.32.456s-.384.776-.384 1.416v.84h3c.16 0 .296.056.408.168s.168.248.168.408v1.416c0 .16-.056.296-.168.408s-.248.168-.408.168h-3v9.336c0 .16-.056.296-.168.408-.096.112-.232.168-.408.168zm13.851 0c-.16 0-.296-.056-.408-.168s-.168-.248-.168-.408v-15.624c0-.176.048-.32.144-.432.112-.112.256-.168.432-.168h6.96c1.872 0 3.272.416 4.2 1.248.928.816 1.391 1.936 1.391 3.36 0 .832-.207 1.544-.623 2.136-.4.576-.872.992-1.416 1.248.672.304 1.24.8 1.704 1.488s.696 1.472.696 2.352c0 1.488-.504 2.688-1.512 3.6s-2.416 1.368-4.224 1.368zm6.528-9.912c.816 0 1.44-.2 1.872-.6.448-.4.672-.936.672-1.608s-.216-1.192-.648-1.56-1.064-.552-1.896-.552h-3.72v4.32zm.24 7.344c.832 0 1.48-.224 1.944-.672.464-.464.696-1.048.696-1.752s-.24-1.28-.72-1.728c-.464-.464-1.104-.696-1.92-.696h-3.96v4.848zm12.468 2.808c-.816 0-1.568-.16-2.256-.48-.672-.336-1.208-.784-1.608-1.344-.384-.56-.576-1.176-.576-1.848 0-1.088.44-1.968 1.32-2.64s2.088-1.128 3.624-1.368l3.288-.48v-.504c0-.688-.176-1.208-.528-1.56s-.912-.528-1.68-.528c-.528 0-.952.096-1.272.288s-.584.392-.792.6c-.192.192-.32.32-.384.384-.064.192-.184.288-.36.288h-1.872c-.144 0-.272-.048-.384-.144-.096-.096-.144-.224-.144-.384.016-.4.208-.848.576-1.344.384-.512.968-.952 1.752-1.32.784-.384 1.752-.576 2.904-.576 1.888 0 3.264.424 4.128 1.272s1.296 1.96 1.296 3.336v7.536c0 .16-.056.296-.168.408-.096.112-.232.168-.408.168h-1.992c-.16 0-.296-.056-.408-.168s-.168-.248-.168-.408v-.936c-.352.512-.848.936-1.488 1.272-.64.32-1.44.48-2.4.48zm.816-2.304c.88 0 1.6-.288 2.16-.864s.84-1.408.84-2.496v-.48l-2.4.384c-1.84.288-2.76.904-2.76 1.848 0 .512.208.912.624 1.2.432.272.944.408 1.536.408zm9.87 2.064c-.16 0-.296-.056-.408-.168s-.168-.248-.168-.408v-11.304c0-.176.056-.32.168-.432s.248-.168.408-.168h1.968c.176 0 .32.056.432.168s.168.256.168.432v.984c.8-1.056 1.952-1.584 3.456-1.584h1.008c.176 0 .312.056.408.168.112.096.168.232.168.408v1.752c0 .16-.056.296-.168.408-.096.112-.232.168-.408.168h-1.896c-.752 0-1.344.216-1.776.648s-.648 1.024-.648 1.776v6.576c0 .16-.056.296-.168.408s-.248.168-.408.168zm10.079 0c-.16 0-.296-.056-.408-.168s-.168-.248-.168-.408v-15.888c0-.176.056-.312.168-.408.112-.112.248-.168.408-.168h1.992c.16 0 .296.056.408.168s.168.248.168.408v8.208l3.984-3.816c.048-.032.12-.088.216-.168.112-.096.216-.16.312-.192s.216-.048.36-.048h2.28c.16 0 .288.048.384.144s.144.224.144.384c0 .144-.08.288-.24.432l-4.896 4.632 5.496 5.952c.144.144.216.28.216.408 0 .16-.048.288-.144.384s-.216.144-.36.144h-2.328c-.224 0-.392-.024-.504-.072-.096-.064-.224-.176-.384-.336l-4.536-4.824v4.656c0 .16-.056.296-.168.408s-.248.168-.408.168zm13.122-14.52c-.16 0-.296-.056-.408-.168s-.168-.248-.168-.408v-1.752c0-.176.056-.32.168-.432s.248-.168.408-.168h2.208c.176 0 .32.056.432.168s.168.256.168.432v1.752c0 .16-.064.296-.192.408-.112.112-.248.168-.408.168zm.096 14.52c-.16 0-.296-.056-.408-.168s-.168-.248-.168-.408v-11.328c0-.176.056-.312.168-.408.112-.112.248-.168.408-.168h2.04c.16 0 .296.056.408.168s.168.248.168.408v11.328c0 .16-.056.296-.168.408s-.248.168-.408.168zm11.32.24c-1.888 0-3.344-.48-4.368-1.44s-1.576-2.288-1.656-3.984l-.024-1.056.024-1.056c.08-1.68.64-3 1.68-3.96 1.04-.976 2.488-1.464 4.344-1.464 1.84 0 3.28.488 4.32 1.464 1.04.96 1.6 2.28 1.68 3.96.016.192.024.544.024 1.056s-.008.864-.024 1.056c-.08 1.696-.632 3.024-1.656 3.984s-2.472 1.44-4.344 1.44zm0-2.424c.848 0 1.496-.264 1.944-.792.464-.528.712-1.304.744-2.328.016-.16.024-.472.024-.936s-.008-.776-.024-.936c-.032-1.024-.28-1.8-.744-2.328-.464-.544-1.112-.816-1.944-.816-.848 0-1.504.272-1.968.816-.464.528-.712 1.304-.744 2.328l-.024.936.024.936c.032 1.024.28 1.8.744 2.328s1.12.792 1.968.792zm15.007 2.184c-.16 0-.296-.056-.408-.168s-.168-.248-.168-.408v-15.624c0-.176.048-.32.144-.432.112-.112.256-.168.432-.168h6.432c1.936 0 3.456.456 4.56 1.368s1.656 2.24 1.656 3.984c0 1.728-.552 3.04-1.656 3.936-1.104.88-2.624 1.32-4.56 1.32h-3.528v5.616c0 .176-.056.32-.168.432-.112.096-.256.144-.432.144zm6.312-8.88c.928 0 1.632-.216 2.112-.648.496-.448.744-1.096.744-1.944 0-.832-.24-1.48-.72-1.944-.464-.464-1.176-.696-2.136-.696h-3.456v5.232zm9.244 8.88c-.16 0-.296-.056-.408-.168s-.168-.248-.168-.408v-11.304c0-.176.056-.32.168-.432s.248-.168.408-.168h1.968c.176 0 .32.056.432.168s.168.256.168.432v.984c.8-1.056 1.952-1.584 3.456-1.584h1.008c.176 0 .312.056.408.168.112.096.168.232.168.408v1.752c0 .16-.056.296-.168.408-.096.112-.232.168-.408.168h-1.896c-.752 0-1.344.216-1.776.648s-.648 1.024-.648 1.776v6.576c0 .16-.056.296-.168.408s-.248.168-.408.168zm14.715.24c-1.792 0-3.216-.512-4.272-1.536-1.04-1.024-1.592-2.48-1.656-4.368l-.024-.6c0-2 .52-3.576 1.56-4.728 1.056-1.152 2.512-1.728 4.368-1.728 1.904 0 3.368.576 4.392 1.728 1.04 1.152 1.56 2.688 1.56 4.608v.504c0 .16-.056.296-.168.408s-.256.168-.432.168h-7.968v.192c.032.896.272 1.64.72 2.232.464.576 1.096.864 1.896.864.912 0 1.656-.368 2.232-1.104.144-.176.256-.28.336-.312.08-.048.216-.072.408-.072h2.112c.144 0 .264.04.36.12.112.08.168.192.168.336 0 .384-.232.84-.696 1.368-.448.512-1.096.96-1.944 1.344s-1.832.576-2.952.576zm2.616-7.584v-.048c0-.944-.24-1.696-.72-2.256-.464-.576-1.104-.864-1.92-.864s-1.456.288-1.92.864c-.464.56-.696 1.312-.696 2.256v.048zm6.435 7.344c-.16 0-.296-.056-.408-.168s-.168-.248-.168-.408v-11.328c0-.176.056-.312.168-.408.112-.112.248-.168.408-.168h1.896c.176 0 .312.056.408.168.112.096.168.232.168.408v.816c.864-1.088 2.024-1.632 3.48-1.632 1.776 0 3.016.712 3.72 2.136.384-.64.928-1.152 1.632-1.536.704-.4 1.464-.6 2.28-.6 1.312 0 2.384.448 3.216 1.344s1.248 2.2 1.248 3.912v6.888c0 .16-.056.296-.168.408-.096.112-.232.168-.408.168h-1.992c-.16 0-.296-.056-.408-.168s-.168-.248-.168-.408v-6.696c0-1.008-.216-1.736-.648-2.184-.416-.448-.968-.672-1.656-.672-.624 0-1.16.232-1.608.696-.432.448-.648 1.168-.648 2.16v6.696c0 .16-.056.296-.168.408-.096.112-.232.168-.408.168h-2.016c-.16 0-.296-.056-.408-.168s-.168-.248-.168-.408v-6.696c0-.992-.216-1.712-.648-2.16-.432-.464-.984-.696-1.656-.696-.624 0-1.16.232-1.608.696-.432.448-.648 1.168-.648 2.16v6.696c0 .16-.056.296-.168.408-.096.112-.232.168-.408.168zm21.583-14.52c-.16 0-.296-.056-.408-.168s-.168-.248-.168-.408v-1.752c0-.176.056-.32.168-.432s.248-.168.408-.168h2.208c.176 0 .32.056.432.168s.168.256.168.432v1.752c0 .16-.064.296-.192.408-.112.112-.248.168-.408.168zm.096 14.52c-.16 0-.296-.056-.408-.168s-.168-.248-.168-.408v-11.328c0-.176.056-.312.168-.408.112-.112.248-.168.408-.168h2.04c.16 0 .296.056.408.168s.168.248.168.408v11.328c0 .16-.056.296-.168.408s-.248.168-.408.168zm10.408.24c-1.472 0-2.632-.48-3.48-1.44s-1.272-2.28-1.272-3.96v-6.744c0-.176.056-.312.168-.408.112-.112.248-.168.408-.168h2.16c.16 0 .296.056.408.168s.168.248.168.408v6.6c0 1.968.856 2.952 2.568 2.952.832 0 1.488-.264 1.968-.792.496-.528.744-1.248.744-2.16v-6.6c0-.176.056-.312.168-.408.112-.112.248-.168.408-.168h2.136c.176 0 .312.056.408.168.112.096.168.232.168.408v11.328c0 .16-.056.296-.168.408-.096.112-.232.168-.408.168h-1.992c-.16 0-.296-.056-.408-.168s-.168-.248-.168-.408v-.984c-.88 1.2-2.208 1.8-3.984 1.8zm10.874-.24c-.16 0-.296-.056-.408-.168s-.168-.248-.168-.408v-11.328c0-.176.056-.312.168-.408.112-.112.248-.168.408-.168h1.896c.176 0 .312.056.408.168.112.096.168.232.168.408v.816c.864-1.088 2.024-1.632 3.48-1.632 1.776 0 3.016.712 3.72 2.136.384-.64.928-1.152 1.632-1.536.704-.4 1.464-.6 2.28-.6 1.312 0 2.384.448 3.216 1.344s1.248 2.2 1.248 3.912v6.888c0 .16-.056.296-.168.408-.096.112-.232.168-.408.168h-1.992c-.16 0-.296-.056-.408-.168s-.168-.248-.168-.408v-6.696c0-1.008-.216-1.736-.648-2.184-.416-.448-.968-.672-1.656-.672-.624 0-1.16.232-1.608.696-.432.448-.648 1.168-.648 2.16v6.696c0 .16-.056.296-.168.408-.096.112-.232.168-.408.168h-2.016c-.16 0-.296-.056-.408-.168s-.168-.248-.168-.408v-6.696c0-.992-.216-1.712-.648-2.16-.432-.464-.984-.696-1.656-.696-.624 0-1.16.232-1.608.696-.432.448-.648 1.168-.648 2.16v6.696c0 .16-.056.296-.168.408-.096.112-.232.168-.408.168z" fill="#fff"/><path d="m460 63 7 7-7 7" stroke="#fff" stroke-linecap="round" stroke-width="3"/></svg>