<svg height="104" viewBox="0 0 104 104" width="104" xmlns="http://www.w3.org/2000/svg"><g fill="none"><path d="m0 0h104v104h-104z" fill="#fff"/><path d="m0 0h3.586v3.586h-3.586zm3.586 0h3.586v3.586h-3.586zm3.586 0h3.586v3.586h-3.586zm3.587 0h3.586v3.586h-3.586zm3.586 0h3.586v3.586h-3.586zm3.586 0h3.586v3.586h-3.586zm3.586 0h3.586v3.586h-3.586zm10.759 0h3.586v3.586h-3.586zm3.586 0h3.586v3.586h-3.586zm3.586 0h3.586v3.586h-3.586zm7.173 0h3.586v3.586h-3.586zm3.586 0h3.586v3.586h-3.586zm14.345 0h3.586v3.586h-3.586zm14.345 0h3.586v3.586h-3.586zm3.586 0h3.586v3.586h-3.586zm3.586 0h3.586v3.586h-3.586zm3.586 0h3.586v3.586h-3.586zm3.586 0h3.586v3.586h-3.586zm3.587 0h3.586v3.586h-3.586zm3.586 0h3.586v3.586h-3.586zm-100.414 3.586h3.586v3.586h-3.586zm21.517 0h3.586v3.586h-3.586zm17.931 0h3.586v3.586h-3.586zm3.586 0h3.586v3.586h-3.586zm7.173 0h3.586v3.586h-3.586zm7.172 0h3.586v3.586h-3.586zm7.173 0h3.586v3.586h-3.586zm14.345 0h3.586v3.586h-3.586zm21.517 0h3.586v3.586h-3.586zm-100.414 3.586h3.586v3.586h-3.586zm7.172 0h3.586v3.586h-3.586zm3.587 0h3.586v3.586h-3.586zm3.586 0h3.586v3.586h-3.586zm7.172 0h3.586v3.586h-3.586zm10.759 0h3.586v3.586h-3.586zm3.586 0h3.586v3.586h-3.586zm3.586 0h3.586v3.586h-3.586zm14.345 0h3.586v3.586h-3.586zm14.345 0h3.586v3.586h-3.586zm10.759 0h3.586v3.586h-3.586zm7.172 0h3.586v3.586h-3.586zm3.586 0h3.586v3.586h-3.586zm3.586 0h3.586v3.586h-3.586zm7.173 0h3.586v3.586h-3.586zm-100.414 3.587h3.586v3.586h-3.586zm7.172 0h3.586v3.586h-3.586zm3.587 0h3.586v3.586h-3.586zm3.586 0h3.586v3.586h-3.586zm7.172 0h3.586v3.586h-3.586zm7.173 0h3.586v3.586h-3.586zm7.172 0h3.586v3.586h-3.586zm3.586 0h3.586v3.586h-3.586zm10.759 0h3.586v3.586h-3.586zm7.172 0h3.586v3.586h-3.586zm3.587 0h3.586v3.586h-3.586zm10.758 0h3.586v3.586h-3.586zm7.173 0h3.586v3.586h-3.586zm7.172 0h3.586v3.586h-3.586zm3.586 0h3.586v3.586h-3.586zm3.586 0h3.586v3.586h-3.586zm7.173 0h3.586v3.586h-3.586zm-100.414 3.586h3.586v3.586h-3.586zm7.172 0h3.586v3.586h-3.586zm3.587 0h3.586v3.586h-3.586zm3.586 0h3.586v3.586h-3.586zm7.172 0h3.586v3.586h-3.586zm7.173 0h3.586v3.586h-3.586zm7.172 0h3.586v3.586h-3.586zm7.172 0h3.586v3.586h-3.586zm3.587 0h3.586v3.586h-3.586zm10.758 0h3.586v3.586h-3.586zm3.587 0h3.586v3.586h-3.586zm3.586 0h3.586v3.586h-3.586zm3.586 0h3.586v3.586h-3.586zm3.586 0h3.586v3.586h-3.586zm7.173 0h3.586v3.586h-3.586zm7.172 0h3.586v3.586h-3.586zm3.586 0h3.586v3.586h-3.586zm3.586 0h3.586v3.586h-3.586zm7.173 0h3.586v3.586h-3.586zm-100.414 3.586h3.586v3.586h-3.586zm21.517 0h3.586v3.586h-3.586zm10.759 0h3.586v3.586h-3.586zm3.586 0h3.586v3.586h-3.586zm10.759 0h3.586v3.586h-3.586zm3.586 0h3.586v3.586h-3.586zm7.172 0h3.586v3.586h-3.586zm14.345 0h3.586v3.586h-3.586zm7.173 0h3.586v3.586h-3.586zm21.517 0h3.586v3.586h-3.586zm-100.414 3.586h3.586v3.586h-3.586zm3.586 0h3.586v3.586h-3.586zm3.586 0h3.586v3.586h-3.586zm3.587 0h3.586v3.586h-3.586zm3.586 0h3.586v3.586h-3.586zm3.586 0h3.586v3.586h-3.586zm3.586 0h3.586v3.586h-3.586zm7.173 0h3.586v3.586h-3.586zm7.172 0h3.586v3.586h-3.586zm7.172 0h3.586v3.586h-3.586zm7.173 0h3.586v3.586h-3.586zm7.172 0h3.586v3.586h-3.586zm7.173 0h3.586v3.586h-3.586zm7.172 0h3.586v3.586h-3.586zm7.173 0h3.586v3.586h-3.586zm3.586 0h3.586v3.586h-3.586zm3.586 0h3.586v3.586h-3.586zm3.586 0h3.586v3.586h-3.586zm3.586 0h3.586v3.586h-3.586zm3.587 0h3.586v3.586h-3.586zm3.586 0h3.586v3.586h-3.586zm-68.138 3.586h3.586v3.586h-3.586zm10.758 0h3.586v3.586h-3.586zm3.587 0h3.586v3.586h-3.586zm7.172 0h3.586v3.586h-3.586zm3.586 0h3.586v3.586h-3.586zm7.173 0h3.586v3.586h-3.586zm3.586 0h3.586v3.586h-3.586zm3.586 0h3.586v3.586h-3.586zm-71.724 3.587h3.586v3.586h-3.586zm3.586 0h3.586v3.586h-3.586zm14.345 0h3.586v3.586h-3.586zm3.586 0h3.586v3.586h-3.586zm3.586 0h3.586v3.586h-3.586zm7.173 0h3.586v3.586h-3.586zm3.586 0h3.586v3.586h-3.586zm7.172 0h3.586v3.586h-3.586zm7.173 0h3.586v3.586h-3.586zm10.759 0h3.586v3.586h-3.586zm7.172 0h3.586v3.586h-3.586zm17.931 0h3.586v3.586h-3.586zm3.586 0h3.586v3.586h-3.586zm-89.655 3.586h3.586v3.586h-3.586zm3.586 0h3.586v3.586h-3.586zm3.586 0h3.586v3.586h-3.586zm3.587 0h3.586v3.586h-3.586zm14.344 0h3.586v3.586h-3.586zm3.587 0h3.586v3.586h-3.586zm7.172 0h3.586v3.586h-3.586zm14.345 0h3.586v3.586h-3.586zm3.586 0h3.586v3.586h-3.586zm10.759 0h3.586v3.586h-3.586zm3.586 0h3.586v3.586h-3.586zm14.345 0h3.586v3.586h-3.586zm3.586 0h3.586v3.586h-3.586zm7.172 0h3.586v3.586h-3.586zm3.587 0h3.586v3.586h-3.586zm-96.828 3.586h3.586v3.586h-3.586zm3.586 0h3.586v3.586h-3.586zm7.173 0h3.586v3.586h-3.586zm3.586 0h3.586v3.586h-3.586zm3.586 0h3.586v3.586h-3.586zm3.586 0h3.586v3.586h-3.586zm3.586 0h3.586v3.586h-3.586zm7.173 0h3.586v3.586h-3.586zm7.172 0h3.586v3.586h-3.586zm3.586 0h3.586v3.586h-3.586zm10.759 0h3.586v3.586h-3.586zm17.931 0h3.586v3.586h-3.586zm3.586 0h3.586v3.586h-3.586zm3.587 0h3.586v3.586h-3.586zm3.586 0h3.586v3.586h-3.586zm-75.311 3.586h3.586v3.586h-3.586zm3.587 0h3.586v3.586h-3.586zm7.172 0h3.586v3.586h-3.586zm7.172 0h3.586v3.586h-3.586zm10.759 0h3.586v3.586h-3.586zm3.586 0h3.586v3.586h-3.586zm10.759 0h3.586v3.586h-3.586zm7.172 0h3.586v3.586h-3.586zm14.345 0h3.586v3.586h-3.586zm3.586 0h3.586v3.586h-3.586zm14.345 0h3.586v3.586h-3.586zm-89.655 3.586h3.586v3.586h-3.586zm7.172 0h3.586v3.586h-3.586zm7.173 0h3.586v3.586h-3.586zm3.586 0h3.586v3.586h-3.586zm3.586 0h3.586v3.586h-3.586zm10.759 0h3.586v3.586h-3.586zm3.586 0h3.586v3.586h-3.586zm10.759 0h3.586v3.586h-3.586zm3.586 0h3.586v3.586h-3.586zm7.172 0h3.586v3.586h-3.586zm7.173 0h3.586v3.586h-3.586zm7.172 0h3.586v3.586h-3.586zm7.173 0h3.586v3.586h-3.586zm3.586 0h3.586v3.586h-3.586zm17.931 0h3.586v3.586h-3.586zm-96.828 3.587h3.586v3.586h-3.586zm7.173 0h3.586v3.586h-3.586zm3.586 0h3.586v3.586h-3.586zm3.586 0h3.586v3.586h-3.586zm7.172 0h3.586v3.586h-3.586zm10.759 0h3.586v3.586h-3.586zm7.172 0h3.586v3.586h-3.586zm3.587 0h3.586v3.586h-3.586zm3.586 0h3.586v3.586h-3.586zm3.586 0h3.586v3.586h-3.586zm3.586 0h3.586v3.586h-3.586zm3.587 0h3.586v3.586h-3.586zm3.586 0h3.586v3.586h-3.586zm3.586 0h3.586v3.586h-3.586zm3.586 0h3.586v3.586h-3.586zm7.173 0h3.586v3.586h-3.586zm3.586 0h3.586v3.586h-3.586zm3.586 0h3.586v3.586h-3.586zm10.759 0h3.586v3.586h-3.586zm3.586 0h3.586v3.586h-3.586zm-100.414 3.586h3.586v3.586h-3.586zm3.586 0h3.586v3.586h-3.586zm7.173 0h3.586v3.586h-3.586zm7.172 0h3.586v3.586h-3.586zm3.586 0h3.586v3.586h-3.586zm7.173 0h3.586v3.586h-3.586zm17.931 0h3.586v3.586h-3.586zm3.586 0h3.586v3.586h-3.586zm3.586 0h3.586v3.586h-3.586zm17.931 0h3.586v3.586h-3.586zm7.173 0h3.586v3.586h-3.586zm10.758 0h3.586v3.586h-3.586zm3.586 0h3.586v3.586h-3.586zm-89.655 3.586h3.586v3.586h-3.586zm3.586 0h3.586v3.586h-3.586zm3.587 0h3.586v3.586h-3.586zm3.586 0h3.586v3.586h-3.586zm10.758 0h3.586v3.586h-3.586zm3.587 0h3.586v3.586h-3.586zm3.586 0h3.586v3.586h-3.586zm10.758 0h3.586v3.586h-3.586zm3.587 0h3.586v3.586h-3.586zm3.586 0h3.586v3.586h-3.586zm3.586 0h3.586v3.586h-3.586zm14.345 0h3.586v3.586h-3.586zm7.172 0h3.586v3.586h-3.586zm10.759 0h3.586v3.586h-3.586zm7.172 0h3.586v3.586h-3.586zm7.173 0h3.586v3.586h-3.586zm-96.828 3.586h3.586v3.586h-3.586zm3.586 0h3.586v3.586h-3.586zm3.587 0h3.586v3.586h-3.586zm3.586 0h3.586v3.586h-3.586zm3.586 0h3.586v3.586h-3.586zm3.586 0h3.586v3.586h-3.586zm7.173 0h3.586v3.586h-3.586zm7.172 0h3.586v3.586h-3.586zm7.172 0h3.586v3.586h-3.586zm7.173 0h3.586v3.586h-3.586zm10.759 0h3.586v3.586h-3.586zm7.172 0h3.586v3.586h-3.586zm7.172 0h3.586v3.586h-3.586zm7.173 0h3.586v3.586h-3.586zm7.172 0h3.586v3.586h-3.586zm3.586 0h3.586v3.586h-3.586zm-93.241 3.587h3.586v3.586h-3.586zm3.586 0h3.586v3.586h-3.586zm10.759 0h3.586v3.586h-3.586zm3.586 0h3.586v3.586h-3.586zm10.759 0h3.586v3.586h-3.586zm25.103 0h3.586v3.586h-3.586zm3.586 0h3.586v3.586h-3.586zm10.759 0h3.586v3.586h-3.586zm10.759 0h3.586v3.586h-3.586zm3.586 0h3.586v3.586h-3.586zm3.586 0h3.586v3.586h-3.586zm7.172 0h3.586v3.586h-3.586zm3.587 0h3.586v3.586h-3.586zm3.586 0h3.586v3.586h-3.586zm-100.414 3.586h3.586v3.586h-3.586zm3.586 0h3.586v3.586h-3.586zm3.586 0h3.586v3.586h-3.586zm3.587 0h3.586v3.586h-3.586zm7.172 0h3.586v3.586h-3.586zm3.586 0h3.586v3.586h-3.586zm7.173 0h3.586v3.586h-3.586zm3.586 0h3.586v3.586h-3.586zm3.586 0h3.586v3.586h-3.586zm7.172 0h3.586v3.586h-3.586zm3.587 0h3.586v3.586h-3.586zm3.586 0h3.586v3.586h-3.586zm3.586 0h3.586v3.586h-3.586zm7.173 0h3.586v3.586h-3.586zm3.586 0h3.586v3.586h-3.586zm3.586 0h3.586v3.586h-3.586zm17.931 0h3.586v3.586h-3.586zm3.586 0h3.586v3.586h-3.586zm10.759 0h3.586v3.586h-3.586zm-100.414 3.586h3.586v3.586h-3.586zm7.172 0h3.586v3.586h-3.586zm7.173 0h3.586v3.586h-3.586zm14.345 0h3.586v3.586h-3.586zm10.758 0h3.586v3.586h-3.586zm10.759 0h3.586v3.586h-3.586zm3.586 0h3.586v3.586h-3.586zm3.586 0h3.586v3.586h-3.586zm14.345 0h3.586v3.586h-3.586zm7.173 0h3.586v3.586h-3.586zm7.172 0h3.586v3.586h-3.586zm-86.069 3.586h3.586v3.586h-3.586zm7.172 0h3.586v3.586h-3.586zm14.345 0h3.586v3.586h-3.586zm7.173 0h3.586v3.586h-3.586zm10.758 0h3.586v3.586h-3.586zm14.345 0h3.586v3.586h-3.586zm3.586 0h3.586v3.586h-3.586zm3.587 0h3.586v3.586h-3.586zm7.172 0h3.586v3.586h-3.586zm3.586 0h3.586v3.586h-3.586zm3.586 0h3.586v3.586h-3.586zm3.587 0h3.586v3.586h-3.586zm3.586 0h3.586v3.586h-3.586zm3.586 0h3.586v3.586h-3.586zm7.172 0h3.586v3.586h-3.586zm3.587 0h3.586v3.586h-3.586zm3.586 0h3.586v3.586h-3.586zm-71.724 3.586h3.586v3.586h-3.586zm3.586 0h3.586v3.586h-3.586zm10.758 0h3.586v3.586h-3.586zm3.587 0h3.586v3.586h-3.586zm7.172 0h3.586v3.586h-3.586zm17.931 0h3.586v3.586h-3.586zm14.345 0h3.586v3.586h-3.586zm3.586 0h3.586v3.586h-3.586zm-89.655 3.587h3.586v3.586h-3.586zm3.586 0h3.586v3.586h-3.586zm3.586 0h3.586v3.586h-3.586zm3.587 0h3.586v3.586h-3.586zm3.586 0h3.586v3.586h-3.586zm3.586 0h3.586v3.586h-3.586zm3.586 0h3.586v3.586h-3.586zm7.173 0h3.586v3.586h-3.586zm17.931 0h3.586v3.586h-3.586zm3.586 0h3.586v3.586h-3.586zm3.586 0h3.586v3.586h-3.586zm3.586 0h3.586v3.586h-3.586zm3.587 0h3.586v3.586h-3.586zm3.586 0h3.586v3.586h-3.586zm3.586 0h3.586v3.586h-3.586zm3.586 0h3.586v3.586h-3.586zm7.173 0h3.586v3.586h-3.586zm7.172 0h3.586v3.586h-3.586zm3.586 0h3.586v3.586h-3.586zm3.586 0h3.586v3.586h-3.586zm-93.241 3.586h3.586v3.586h-3.586zm21.517 0h3.586v3.586h-3.586zm7.173 0h3.586v3.586h-3.586zm14.344 0h3.586v3.586h-3.586zm3.587 0h3.586v3.586h-3.586zm7.172 0h3.586v3.586h-3.586zm3.586 0h3.586v3.586h-3.586zm7.173 0h3.586v3.586h-3.586zm3.586 0h3.586v3.586h-3.586zm3.586 0h3.586v3.586h-3.586zm14.345 0h3.586v3.586h-3.586zm10.759 0h3.586v3.586h-3.586zm-96.828 3.586h3.586v3.586h-3.586zm7.172 0h3.586v3.586h-3.586zm3.587 0h3.586v3.586h-3.586zm3.586 0h3.586v3.586h-3.586zm7.172 0h3.586v3.586h-3.586zm14.345 0h3.586v3.586h-3.586zm3.586 0h3.586v3.586h-3.586zm3.586 0h3.586v3.586h-3.586zm3.587 0h3.586v3.586h-3.586zm10.758 0h3.586v3.586h-3.586zm7.173 0h3.586v3.586h-3.586zm3.586 0h3.586v3.586h-3.586zm3.586 0h3.586v3.586h-3.586zm3.586 0h3.586v3.586h-3.586zm3.587 0h3.586v3.586h-3.586zm3.586 0h3.586v3.586h-3.586zm3.586 0h3.586v3.586h-3.586zm3.586 0h3.586v3.586h-3.586zm10.759 0h3.586v3.586h-3.586zm-100.414 3.586h3.586v3.586h-3.586zm7.172 0h3.586v3.586h-3.586zm3.587 0h3.586v3.586h-3.586zm3.586 0h3.586v3.586h-3.586zm7.172 0h3.586v3.586h-3.586zm10.759 0h3.586v3.586h-3.586zm21.517 0h3.586v3.586h-3.586zm3.586 0h3.586v3.586h-3.586zm3.587 0h3.586v3.586h-3.586zm3.586 0h3.586v3.586h-3.586zm3.586 0h3.586v3.586h-3.586zm3.586 0h3.586v3.586h-3.586zm3.586 0h3.586v3.586h-3.586zm14.345 0h3.586v3.586h-3.586zm3.586 0h3.586v3.586h-3.586zm7.173 0h3.586v3.586h-3.586zm-100.414 3.586h3.586v3.586h-3.586zm7.172 0h3.586v3.586h-3.586zm3.587 0h3.586v3.586h-3.586zm3.586 0h3.586v3.586h-3.586zm7.172 0h3.586v3.586h-3.586zm14.345 0h3.586v3.586h-3.586zm3.586 0h3.586v3.586h-3.586zm3.586 0h3.586v3.586h-3.586zm10.759 0h3.586v3.586h-3.586zm14.345 0h3.586v3.586h-3.586zm3.586 0h3.586v3.586h-3.586zm3.586 0h3.586v3.586h-3.586zm3.587 0h3.586v3.586h-3.586zm3.586 0h3.586v3.586h-3.586zm3.586 0h3.586v3.586h-3.586zm3.586 0h3.586v3.586h-3.586zm3.586 0h3.586v3.586h-3.586zm3.587 0h3.586v3.586h-3.586zm-96.828 3.587h3.586v3.586h-3.586zm21.517 0h3.586v3.586h-3.586zm7.173 0h3.586v3.586h-3.586zm10.758 0h3.586v3.586h-3.586zm39.449 0h3.586v3.586h-3.586zm10.758 0h3.586v3.586h-3.586zm3.586 0h3.586v3.586h-3.586zm7.173 0h3.586v3.586h-3.586zm-100.414 3.586h3.586v3.586h-3.586zm3.586 0h3.586v3.586h-3.586zm3.586 0h3.586v3.586h-3.586zm3.587 0h3.586v3.586h-3.586zm3.586 0h3.586v3.586h-3.586zm3.586 0h3.586v3.586h-3.586zm3.586 0h3.586v3.586h-3.586zm7.173 0h3.586v3.586h-3.586zm7.172 0h3.586v3.586h-3.586zm3.586 0h3.586v3.586h-3.586zm14.345 0h3.586v3.586h-3.586zm7.173 0h3.586v3.586h-3.586zm7.172 0h3.586v3.586h-3.586zm10.759 0h3.586v3.586h-3.586zm7.172 0h3.586v3.586h-3.586zm7.172 0h3.586v3.586h-3.586z" fill="#000"/></g></svg>