<svg height="24" viewBox="0 0 24 24" width="24" xmlns="http://www.w3.org/2000/svg"><path d="m16.566 16.59a2.42 2.42 0 0 1 -2.156 2.395l-.112.006h-4.076l-6.797.009a2.416 2.416 0 0 1 -2.425-2.41v-9.18c0-1.142.807-2.114 1.916-2.35l.204-.021 11.012-.039c1.339 0 2.434 1.076 2.434 2.41v1.454c1.51-.976 2.61-1.672 3.15-1.976 1.74-.98 3.29-.072 3.284 1.433l-.001 1.212-.004 1.971-.001 1.126a2282.73 2282.73 0 0 0 -.003 3.075c0 .67-.273 1.312-.875 1.664-.686.402-1.522.27-2.429-.283-.645-.393-1.761-1.172-3.12-2.155v1.658zm-2 0v-5.602l1.127.828-1.127.735v-5.141a.424.424 0 0 0 -.43-.411l-10.876.039a.403.403 0 0 0 -.26.373v9.178c0 .226.187.411.423.411l6.798-.009h4.004c.197-.04.341-.21.341-.402zm1.592-4.432c2 1.47 3.76 2.726 4.57 3.22.1.06.187.107.263.142l.003-2.893.001-1.126.004-1.97v-1.051c-.06.024-.157.068-.3.15-.653.367-2.348 1.453-4.587 2.912l-.42.273.466.342z" fill="#ff4f41"/></svg>