<svg height="104" viewBox="0 0 120 104" width="120" xmlns="http://www.w3.org/2000/svg"><g fill="none" fill-rule="evenodd"><path d="m116.497 81.74c5.3-23.698-33.176-26.218-25.604-49.597 7.572-23.38-44.074-47.948-75.558-18.996-10.385 9.553-19.372 32.948-4.432 44.456s-12.574 46.38 27.506 46.38c40.081 0 72.787 1.454 78.088-22.243z" fill="#000" fill-opacity=".04" fill-rule="nonzero"/><rect fill="#5f5f5f" height="51" rx="2" width="27" x="22" y="32.999"/><rect fill="#fff" fill-rule="nonzero" height="46" rx="1" width="23" x="24" y="34.999"/><path d="m40 33h5v51h-5z" fill="#000" fill-opacity=".08"/><g transform="translate(44 12)"><rect fill="#5f5f5f" height="73" rx="3.24" width="54"/><rect fill="#585858" height="2" rx="1" width="6" x="24" y="1"/><rect fill="#585858" height="2" rx="1" width="6" x="24" y="70"/><g fill-rule="nonzero"><path d="m3 4h48v65h-48z" fill="#fff"/><g><g fill="#000" transform="translate(13.069 41.398)"><path d="m2.003 1.952c-.922 0-1.87.738-1.87 2.031.001 1.182.835 2.017 1.871 2.017.855 0 1.237-.574 1.237-.574v.25c0 .118.111.25.25.25h.618v-3.886h-.869v.493s-.385-.581-1.237-.581zm.155.794c.758 0 1.157.668 1.157 1.237 0 .634-.473 1.236-1.156 1.236-.57 0-1.142-.462-1.142-1.244 0-.707.492-1.229 1.14-1.229zm3.157 3.18a.243.243 0 0 1 -.25-.25v-3.636h.868v.481c.197-.296.582-.57 1.172-.57.964 0 1.478.769 1.478 1.488v2.487h-.604a.266.266 0 0 1 -.265-.265v-2.031c0-.399-.244-.883-.808-.883-.61 0-.973.576-.973 1.118v2.061zm5.8-3.974c-.922 0-1.87.738-1.87 2.031 0 1.182.834 2.017 1.87 2.017.855 0 1.236-.574 1.236-.574v.25c0 .118.112.25.25.25h.619v-5.829h-.869v2.436s-.384-.581-1.236-.581zm.155.794c.758 0 1.156.668 1.156 1.237 0 .634-.472 1.236-1.155 1.236-.57 0-1.142-.462-1.142-1.244 0-.707.492-1.229 1.14-1.229zm3.157 3.18a.243.243 0 0 1 -.25-.25v-3.636h.868v.648a1.07 1.07 0 0 1 1.045-.692c.16 0 .31.03.31.03v.897s-.187-.073-.413-.073c-.61 0-.942.576-.942 1.118v1.958zm7.243 0a.243.243 0 0 1 -.251-.25v-3.636h.868v3.886h-.618zm3.164-3.974c-.922 0-1.87.738-1.87 2.031 0 1.182.834 2.017 1.87 2.017.855 0 1.236-.574 1.236-.574v.25c0 .118.112.25.25.25h.619v-5.829h-.869v2.436s-.384-.581-1.236-.581zm.155.794c.758 0 1.156.668 1.156 1.237 0 .634-.472 1.236-1.155 1.236-.57 0-1.142-.462-1.142-1.244 0-.707.492-1.229 1.14-1.229z"/><circle cx="21.846" cy=".628" r="1"/><path d="m18.69 1.95c-.966 0-2.026.721-2.026 2.026 0 1.19.903 2.024 2.024 2.024 1.38 0 2.055-1.11 2.055-2.016a2.018 2.018 0 0 0 -2.053-2.034zm.003.812c.667 0 1.165.538 1.165 1.217 0 .69-.528 1.224-1.163 1.224-.59 0-1.162-.48-1.162-1.213 0-.745.545-1.228 1.16-1.228z"/></g><path d="m33.147 28.526 2.223-3.85a.451.451 0 0 0 -.164-.615.446.446 0 0 0 -.612.164l-2.251 3.899c-1.718-.785-3.651-1.222-5.73-1.222-2.08 0-4.013.437-5.73 1.222l-2.252-3.9a.449.449 0 0 0 -.615-.163.449.449 0 0 0 -.164.616l2.222 3.849c-3.831 2.076-6.427 5.955-6.855 10.495h26.787c-.429-4.54-3.024-8.419-6.859-10.495zm-12.685 6.733a1.123 1.123 0 1 1 .001-2.246 1.123 1.123 0 0 1 0 2.246zm12.298 0a1.123 1.123 0 1 1 0-2.246 1.123 1.123 0 0 1 0 2.246z" fill="#32de84"/></g></g></g></g></svg>