<svg height="48" viewBox="0 0 160 48" width="160" xmlns="http://www.w3.org/2000/svg"><g fill="none" fill-rule="evenodd"><rect fill="#000" height="48" rx="8" width="160"/><g fill="#fff" fill-rule="nonzero"><path d="m32.723 24.36a5.939 5.939 0 0 1 2.828-4.982 6.079 6.079 0 0 0 -4.79-2.589c-2.015-.211-3.968 1.206-4.995 1.206-1.047 0-2.628-1.185-4.33-1.15a6.378 6.378 0 0 0 -5.368 3.274c-2.32 4.018-.59 9.923 1.633 13.17 1.113 1.591 2.413 3.368 4.114 3.305 1.664-.07 2.286-1.062 4.295-1.062 1.99 0 2.574 1.062 4.309 1.022 1.786-.03 2.911-1.598 3.985-3.203a13.154 13.154 0 0 0 1.822-3.711 5.738 5.738 0 0 1 -3.503-5.28zm-3.278-9.707a5.847 5.847 0 0 0 1.337-4.189 5.949 5.949 0 0 0 -3.849 1.992 5.564 5.564 0 0 0 -1.372 4.034 4.919 4.919 0 0 0 3.884-1.837z"/><path d="m58.763 32.568h-5.68l-1.364 4.027h-2.406l5.38-14.901h2.5l5.38 14.901h-2.447zm-5.092-1.859h4.502l-2.22-6.537h-.061l-2.222 6.538zm20.521.455c0 3.376-1.807 5.545-4.534 5.545a3.683 3.683 0 0 1 -3.419-1.9h-.051v5.38h-2.23v-14.458h2.158v1.807h.041a3.854 3.854 0 0 1 3.46-1.92c2.757 0 4.575 2.179 4.575 5.546zm-2.293 0c0-2.2-1.136-3.646-2.87-3.646-1.705 0-2.85 1.477-2.85 3.646 0 2.189 1.145 3.655 2.85 3.655 1.734 0 2.87-1.436 2.87-3.655zm14.251 0c0 3.376-1.808 5.545-4.535 5.545a3.683 3.683 0 0 1 -3.418-1.9h-.052v5.38h-2.23v-14.458h2.159v1.807h.041a3.854 3.854 0 0 1 3.46-1.92c2.757 0 4.574 2.179 4.574 5.546zm-2.293 0c0-2.2-1.136-3.646-2.87-3.646-1.705 0-2.85 1.477-2.85 3.646 0 2.189 1.145 3.655 2.85 3.655 1.734 0 2.87-1.436 2.87-3.655zm10.196 1.279c.165 1.478 1.6 2.448 3.562 2.448 1.88 0 3.232-.97 3.232-2.302 0-1.157-.816-1.85-2.747-2.324l-1.93-.465c-2.736-.661-4.007-1.941-4.007-4.018 0-2.57 2.241-4.337 5.423-4.337 3.148 0 5.307 1.766 5.38 4.337h-2.252c-.134-1.487-1.364-2.384-3.16-2.384-1.797 0-3.026.908-3.026 2.23 0 1.053.785 1.673 2.706 2.148l1.642.403c3.057.723 4.328 1.951 4.328 4.13 0 2.789-2.221 4.535-5.753 4.535-3.305 0-5.536-1.705-5.68-4.4h2.283zm13.962-9.283v2.57h2.066v1.767h-2.066v5.99c0 .93.414 1.363 1.322 1.363.246-.004.49-.021.734-.051v1.755c-.408.077-.823.111-1.239.103-2.2 0-3.057-.826-3.057-2.933v-6.227h-1.58v-1.767h1.58v-2.57zm3.263 8.004c0-3.419 2.013-5.567 5.153-5.567 3.15 0 5.154 2.148 5.154 5.567 0 3.427-1.994 5.566-5.154 5.566s-5.153-2.139-5.153-5.566zm8.034 0c0-2.345-1.074-3.73-2.881-3.73s-2.88 1.395-2.88 3.73c0 2.354 1.073 3.727 2.88 3.727s2.881-1.373 2.881-3.727zm4.111-5.434h2.127v1.85h.052a2.591 2.591 0 0 1 2.613-1.963c.257 0 .513.027.764.083v2.086a3.118 3.118 0 0 0 -1.002-.134 2.247 2.247 0 0 0 -2.324 2.5v6.443h-2.23v-10.864zm15.838 7.674c-.3 1.973-2.22 3.326-4.678 3.326-3.16 0-5.122-2.118-5.122-5.515 0-3.408 1.972-5.618 5.028-5.618 3.006 0 4.896 2.065 4.896 5.36v.763h-7.673v.135a2.83 2.83 0 0 0 2.923 3.077 2.458 2.458 0 0 0 2.509-1.528zm-7.539-3.242h5.432a2.613 2.613 0 0 0 -2.665-2.758 2.75 2.75 0 0 0 -2.767 2.758z"/><path d="m53.391 10.477a3.168 3.168 0 0 1 3.37 3.558c0 2.288-1.237 3.602-3.37 3.602h-2.586v-7.16zm-1.474 6.148h1.35a2.251 2.251 0 0 0 2.362-2.575 2.257 2.257 0 0 0 -2.362-2.56h-1.35zm6.1-1.692a2.56 2.56 0 1 1 5.096 0 2.56 2.56 0 1 1 -5.096 0zm4 0c0-1.171-.527-1.856-1.45-1.856-.927 0-1.449.685-1.449 1.856 0 1.18.522 1.86 1.449 1.86.923 0 1.45-.684 1.45-1.86zm7.871 2.704h-1.106l-1.117-3.98h-.084l-1.113 3.98h-1.095l-1.49-5.403h1.082l.968 4.123h.08l1.11-4.123h1.024l1.11 4.123h.085l.963-4.123h1.067zm2.736-5.403h1.027v.858h.08a1.618 1.618 0 0 1 1.612-.963 1.757 1.757 0 0 1 1.87 2.01v3.498h-1.066v-3.23c0-.868-.377-1.3-1.166-1.3a1.24 1.24 0 0 0 -1.29 1.37v3.16h-1.067zm6.289-2.11h1.066v7.513h-1.066zm2.548 4.809a2.56 2.56 0 1 1 5.097 0 2.56 2.56 0 1 1 -5.097 0zm4 0c0-1.171-.526-1.856-1.45-1.856-.927 0-1.448.685-1.448 1.856 0 1.18.521 1.86 1.448 1.86.924 0 1.45-.684 1.45-1.86zm2.22 1.177c0-.973.724-1.534 2.01-1.614l1.464-.084v-.467c0-.57-.378-.893-1.107-.893-.595 0-1.008.219-1.126.6h-1.032c.109-.927.982-1.522 2.207-1.522 1.355 0 2.12.674 2.12 1.815v3.692h-1.027v-.76h-.085a1.818 1.818 0 0 1 -1.623.85 1.632 1.632 0 0 1 -1.8-1.618zm3.474-.463v-.451l-1.32.084c-.744.05-1.082.303-1.082.78 0 .486.422.769 1.002.769a1.274 1.274 0 0 0 1.4-1.182zm2.463-.714c0-1.707.878-2.789 2.243-2.789a1.78 1.78 0 0 1 1.657.948h.08v-2.968h1.066v7.513h-1.022v-.853h-.084c-.347.605-1 .968-1.697.942-1.375 0-2.243-1.081-2.243-2.793zm1.101 0c0 1.146.54 1.836 1.444 1.836.899 0 1.454-.7 1.454-1.831 0-1.126-.56-1.836-1.454-1.836-.898 0-1.444.694-1.444 1.831zm8.357 0a2.56 2.56 0 1 1 5.096 0 2.56 2.56 0 1 1 -5.096 0zm4 0c0-1.171-.527-1.856-1.45-1.856-.927 0-1.448.685-1.448 1.856 0 1.18.521 1.86 1.448 1.86.923 0 1.45-.684 1.45-1.86zm2.527-2.699h1.027v.858h.08a1.618 1.618 0 0 1 1.612-.963 1.757 1.757 0 0 1 1.87 2.01v3.498h-1.066v-3.23c0-.868-.377-1.3-1.166-1.3a1.24 1.24 0 0 0 -1.29 1.37v3.16h-1.067zm10.615-1.346v1.37h1.17v.899h-1.17v2.778c0 .566.233.814.764.814.136 0 .272-.009.407-.025v.889a3.499 3.499 0 0 1 -.58.054c-1.186 0-1.658-.417-1.658-1.459v-3.051h-.858v-.899h.858v-1.37zm2.628-.764h1.057v2.978h.084c.29-.637.95-1.024 1.648-.968a1.78 1.78 0 0 1 1.86 2.015v3.488h-1.067v-3.225c0-.863-.402-1.3-1.155-1.3a1.262 1.262 0 0 0 -1.361 1.37v3.155h-1.066zm10.868 6.054a2.194 2.194 0 0 1 -2.342 1.564 2.454 2.454 0 0 1 -2.496-2.79 2.492 2.492 0 0 1 2.491-2.823c1.504 0 2.411 1.028 2.411 2.724v.373h-3.816v.06a1.428 1.428 0 0 0 1.44 1.547 1.295 1.295 0 0 0 1.285-.655zm-3.752-1.741h2.73a1.304 1.304 0 0 0 -1.33-1.4 1.382 1.382 0 0 0 -1.4 1.4z"/></g></g></svg>