<svg xmlns="http://www.w3.org/2000/svg" width="160" height="48" viewBox="0 0 160 48"><g fill="none" fill-rule="evenodd"><rect width="160" height="48" fill="#000" rx="8"/><g fill="#FFF" fill-rule="nonzero"><path d="M18.173 14.01c.026-2.035 1.093-3.915 2.828-4.982-1.1-1.57-2.875-2.529-4.79-2.589-2.015-.211-3.968 1.206-4.995 1.206-1.047 0-2.628-1.185-4.33-1.15-2.24.073-4.278 1.315-5.368 3.274-2.32 4.018-.59 9.923 1.633 13.17 1.113 1.591 2.413 3.368 4.114 3.305 1.664-.07 2.286-1.062 4.295-1.062 1.99 0 2.574 1.062 4.309 1.022 1.786-.03 2.911-1.598 3.985-3.203.799-1.133 1.414-2.386 1.822-3.711-2.122-.897-3.5-2.976-3.503-5.28zM14.895 4.303c.974-1.169 1.453-2.672 1.337-4.189-1.488.157-2.862.868-3.849 1.992-.975 1.109-1.468 2.56-1.372 4.034 1.507.015 2.939-.662 3.884-1.837z" transform="translate(14.55 10.35)"/></g><g fill="#FFF" fill-rule="nonzero"><path d="M9.963 11.418h-5.68l-1.364 4.027H.513L5.893.544h2.5l5.38 14.901h-2.447l-1.363-4.027zM4.87 9.559h4.502l-2.22-6.537h-.061L4.87 9.56zM25.392 10.014c0 3.376-1.807 5.545-4.534 5.545-1.41.074-2.738-.665-3.419-1.9h-.051v5.38h-2.23V4.581h2.158v1.807h.041c.712-1.229 2.04-1.967 3.46-1.92 2.757 0 4.575 2.179 4.575 5.546zm-2.293 0c0-2.2-1.136-3.646-2.87-3.646-1.705 0-2.85 1.477-2.85 3.646 0 2.189 1.145 3.655 2.85 3.655 1.734 0 2.87-1.436 2.87-3.655zM37.35 10.014c0 3.376-1.808 5.545-4.535 5.545-1.41.074-2.737-.665-3.418-1.9h-.052v5.38h-2.23V4.581h2.159v1.807h.041c.711-1.229 2.04-1.967 3.46-1.92 2.757 0 4.574 2.179 4.574 5.546zm-2.293 0c0-2.2-1.136-3.646-2.87-3.646-1.705 0-2.85 1.477-2.85 3.646 0 2.189 1.145 3.655 2.85 3.655 1.734 0 2.87-1.436 2.87-3.655zM45.253 11.293c.165 1.478 1.6 2.448 3.562 2.448 1.88 0 3.232-.97 3.232-2.302 0-1.157-.816-1.85-2.747-2.324L47.37 8.65c-2.736-.661-4.007-1.941-4.007-4.018 0-2.57 2.241-4.337 5.423-4.337 3.148 0 5.307 1.766 5.38 4.337h-2.252c-.134-1.487-1.364-2.384-3.16-2.384-1.797 0-3.026.908-3.026 2.23 0 1.053.785 1.673 2.706 2.148l1.642.403c3.057.723 4.328 1.951 4.328 4.13 0 2.789-2.221 4.535-5.753 4.535-3.305 0-5.536-1.705-5.68-4.4h2.283zM59.215 2.01v2.57h2.066v1.767h-2.066v5.99c0 .93.414 1.363 1.322 1.363.246-.004.49-.021.734-.051v1.755c-.408.077-.823.111-1.239.103-2.2 0-3.057-.826-3.057-2.933V6.347h-1.58V4.58h1.58V2.01h2.24zM62.478 10.014c0-3.419 2.013-5.567 5.153-5.567 3.15 0 5.154 2.148 5.154 5.567 0 3.427-1.994 5.566-5.154 5.566s-5.153-2.139-5.153-5.566zm8.034 0c0-2.345-1.074-3.73-2.881-3.73-1.807 0-2.88 1.395-2.88 3.73 0 2.354 1.073 3.727 2.88 3.727s2.881-1.373 2.881-3.727zM74.623 4.58h2.127v1.85h.052c.296-1.19 1.387-2.01 2.613-1.963.257 0 .513.027.764.083v2.086c-.324-.099-.663-.144-1.002-.134-.655-.027-1.29.234-1.737.715-.446.48-.66 1.132-.587 1.784v6.444h-2.23V4.581zM90.461 12.254c-.3 1.973-2.22 3.326-4.678 3.326-3.16 0-5.122-2.118-5.122-5.515 0-3.408 1.972-5.618 5.028-5.618 3.006 0 4.896 2.065 4.896 5.36v.763h-7.673v.135c-.072.809.208 1.61.767 2.198.559.59 1.344.91 2.156.88 1.082.1 2.102-.52 2.509-1.529h2.117zm-7.539-3.242h5.432c.04-.727-.224-1.438-.73-1.961-.506-.524-1.207-.812-1.935-.797-.733-.004-1.438.285-1.958.803-.52.517-.81 1.221-.809 1.955z" transform="translate(48.8 21.15)"/></g><g fill="#FFF" fill-rule="nonzero"><path d="M3.61.877c1.4 0 2.361.968 2.361 2.387 0 1.399-.991 2.362-2.396 2.362H1.918v2.411H.806V.877H3.61zM1.918 4.648h1.399c.957 0 1.519-.496 1.519-1.384 0-.909-.542-1.405-1.519-1.405h-1.4v2.79zM7.428 2.634h1.027v.828h.08c.153-.53.753-.918 1.458-.918.158 0 .362.015.476.045V3.64c-.09-.03-.407-.064-.595-.064-.809 0-1.38.51-1.38 1.27v3.19H7.428V2.634zM16.078 6.578c-.243.968-1.107 1.564-2.342 1.564-1.548 0-2.496-1.062-2.496-2.79 0-1.726.968-2.823 2.491-2.823 1.504 0 2.411 1.028 2.411 2.725v.372h-3.816v.06c.036.947.586 1.547 1.44 1.547.645 0 1.087-.233 1.285-.655h1.027zm-3.752-1.741h2.73c-.025-.849-.54-1.4-1.33-1.4-.789 0-1.34.556-1.4 1.4zM17.593 5.675L17.593 4.628 20.848 4.628 20.848 5.675zM22.294 5.333c0-1.742.973-2.804 2.55-2.804 1.574 0 2.547 1.062 2.547 2.804 0 1.752-.968 2.809-2.547 2.809-1.582 0-2.55-1.057-2.55-2.809zm4 0c0-1.171-.526-1.856-1.45-1.856-.927 0-1.448.685-1.448 1.856 0 1.18.521 1.86 1.448 1.86.924 0 1.45-.684 1.45-1.86zM28.822 2.634h1.026v.828h.08c.153-.53.753-.918 1.459-.918.158 0 .362.015.476.045V3.64c-.09-.03-.407-.064-.596-.064-.808 0-1.379.51-1.379 1.27v3.19h-1.066V2.634zM32.635 5.333c0-1.707.878-2.789 2.243-2.789.74 0 1.365.352 1.658.948h.08V.524h1.066v7.513H36.66v-.853h-.085c-.322.59-.953.942-1.697.942-1.375 0-2.243-1.081-2.243-2.793zm1.102 0c0 1.146.54 1.836 1.443 1.836.9 0 1.455-.7 1.455-1.831 0-1.126-.561-1.836-1.455-1.836-.897 0-1.443.694-1.443 1.831zM44 6.578c-.242.968-1.106 1.564-2.341 1.564-1.548 0-2.496-1.062-2.496-2.79 0-1.726.968-2.823 2.491-2.823 1.504 0 2.41 1.028 2.41 2.725v.372H40.25v.06c.035.947.586 1.547 1.44 1.547.645 0 1.087-.233 1.285-.655H44zm-3.75-1.741h2.729c-.025-.849-.54-1.4-1.33-1.4s-1.34.556-1.4 1.4zM45.497 2.634h1.026v.828h.08c.154-.53.754-.918 1.46-.918.157 0 .361.015.475.045V3.64c-.09-.03-.407-.064-.595-.064-.809 0-1.38.51-1.38 1.27v3.19h-1.066V2.634zM52.38 5.333c0-1.742.972-2.804 2.55-2.804 1.573 0 2.546 1.062 2.546 2.804 0 1.752-.968 2.809-2.547 2.809-1.582 0-2.55-1.057-2.55-2.809zm3.999 0c0-1.171-.526-1.856-1.45-1.856-.927 0-1.448.685-1.448 1.856 0 1.18.521 1.86 1.448 1.86.924 0 1.45-.684 1.45-1.86zM58.908 2.634h1.026v.858h.08c.263-.6.8-.963 1.613-.963 1.205 0 1.87.725 1.87 2.01v3.498H62.43v-3.23c0-.868-.378-1.3-1.167-1.3-.788 0-1.29.526-1.29 1.37v3.16h-1.066V2.634zM69.522 1.288v1.37h1.17v.899h-1.17v2.778c0 .566.233.814.764.814.164 0 .257-.01.406-.025v.889c-.173.029-.371.054-.58.054-1.186 0-1.658-.417-1.658-1.459V3.557h-.858v-.899h.858v-1.37h1.068zM72.149.524h1.057v2.978h.084c.263-.606.833-.968 1.648-.968 1.15 0 1.86.73 1.86 2.015v3.488h-1.067V4.812c0-.863-.402-1.3-1.155-1.3-.874 0-1.36.55-1.36 1.37v3.155h-1.067V.524zM83.017 6.578c-.243.968-1.106 1.564-2.342 1.564-1.548 0-2.496-1.062-2.496-2.79 0-1.726.968-2.823 2.492-2.823 1.503 0 2.41 1.028 2.41 2.725v.372h-3.815v.06c.035.947.586 1.547 1.439 1.547.645 0 1.087-.233 1.285-.655h1.027zm-3.751-1.741h2.729c-.025-.849-.54-1.4-1.33-1.4-.789 0-1.34.556-1.4 1.4z" transform="translate(50 9.6)"/></g></g></svg>