<svg height="62" viewBox="0 0 62 62" width="62" xmlns="http://www.w3.org/2000/svg"><g fill="none"><circle cx="31" cy="31" fill="#58a509" r="31"/><path d="m15 0c-8.29009999 0-15 6.70875562-15 15 0 2.630997.68618779 5.2006534 1.98921208 7.4670414l-1.93267825 6.0017396c-.13481145.418396-.02403258.8770752.28678893 1.1878967.30784606.3078461.76538087.4227448 1.18789672.286789l6.00173963-1.9326783c2.26638801 1.3030243 4.83604439 1.9892116 7.46704089 1.9892116 8.2901005 0 15-6.7087551 15-15 0-8.29009999-6.7087551-15-15-15zm2 15.25c0 .9663282-.7833984 1.75-1.75 1.75s-1.75-.7836718-1.75-1.75c0-.9666016.7833984-1.75 1.75-1.75s1.75.7833984 1.75 1.75zm6 0c0 .9663282-.7833984 1.75-1.75 1.75s-1.75-.7836718-1.75-1.75c0-.9666016.7833984-1.75 1.75-1.75s1.75.7833984 1.75 1.75zm-12 0c0 .9663282-.7833984 1.75-1.75 1.75-.96632816 0-1.75-.7836718-1.75-1.75 0-.9666016.78367184-1.75 1.75-1.75.9666016 0 1.75.7833984 1.75 1.75z" fill="#fff5f5" transform="translate(17 16)"/></g></svg>