<svg xmlns="http://www.w3.org/2000/svg" width="110" height="32" viewBox="0 0 110 32">
    <g fill="#FFF">
        <path d="M58.497 7c.926 0 1.678.751 1.678 1.678v4.255c.987-.571 2.134-.898 3.356-.898 3.708 0 6.714 3.006 6.714 6.713 0 3.708-3.006 6.714-6.714 6.714-3.707 0-6.713-3.006-6.713-6.714 0-.187.008-.373.023-.557-.015-.091-.023-.186-.023-.282V8.68c0-.928.752-1.679 1.679-1.679zm42.797 5.035c3.707 0 6.713 3.006 6.713 6.713 0 3.708-3.006 6.714-6.713 6.714-3.708 0-6.714-3.006-6.714-6.714 0-3.707 3.006-6.713 6.714-6.713zm-15.944 0c3.663 0 6.641 2.934 6.712 6.581v5.167c0 .927-.75 1.679-1.677 1.679s-1.679-.752-1.679-1.679v-5.035c0-1.819-1.446-3.3-3.252-3.355l-.104-.001c-1.82 0-3.3 1.446-3.355 3.252l-.002 5.14c0 .926-.751 1.678-1.678 1.678-.927 0-1.679-.752-1.679-1.679v-5.035c0-3.707 3.006-6.713 6.714-6.713zm-10.91 0c.927 0 1.679.751 1.679 1.678v10.07c0 .927-.752 1.679-1.678 1.679-.927 0-1.679-.752-1.679-1.679v-10.07c0-.927.752-1.678 1.679-1.678zM36.679 7c.927 0 1.679.751 1.679 1.678v4.255c.987-.571 2.133-.898 3.356-.898 3.708 0 6.714 3.006 6.714 6.713 0 3.708-3.006 6.714-6.714 6.714-3.707 0-6.713-3.006-6.713-6.714 0-.187.008-.373.023-.557-.015-.091-.023-.186-.023-.282V8.68C35 7.75 35.751 7 36.678 7zm15.944 5.035c.927 0 1.679.751 1.679 1.678v10.07c0 .927-.752 1.679-1.679 1.679s-1.678-.752-1.678-1.679v-10.07c0-.927.751-1.678 1.678-1.678zm10.91 3.357c-1.854 0-3.357 1.502-3.357 3.356 0 1.854 1.503 3.357 3.356 3.357 1.854 0 3.357-1.503 3.357-3.357 0-1.854-1.503-3.356-3.357-3.356zm37.762 0c-1.854 0-3.357 1.502-3.357 3.356 0 1.854 1.503 3.357 3.357 3.357 1.854 0 3.356-1.503 3.356-3.357 0-1.854-1.502-3.356-3.356-3.356zm-59.58 0c-1.855 0-3.357 1.502-3.357 3.356 0 1.854 1.502 3.357 3.356 3.357 1.854 0 3.357-1.503 3.357-3.357 0-1.854-1.503-3.356-3.357-3.356zM74.44 7c.926 0 1.678.751 1.678 1.678 0 .927-.752 1.679-1.678 1.679-.927 0-1.679-.752-1.679-1.679S73.514 7 74.441 7zM52.622 7c.927 0 1.679.751 1.679 1.678 0 .927-.752 1.679-1.679 1.679s-1.678-.752-1.678-1.679S51.695 7 52.622 7zM3.466 0c1.915 0 3.466 1.577 3.466 3.521v2.977c1.945-1.094 4.184-1.716 6.568-1.716 7.456 0 13.5 6.093 13.5 13.609S20.956 32 13.5 32 0 25.907 0 18.39l.003-.312.002-.073C.002 17.941 0 17.877 0 17.812V3.522C0 1.576 1.552 0 3.466 0zm16.796 19.272c-.928-.395-1.998.043-2.39.978-.737 1.757-2.448 2.922-4.372 2.922s-3.635-1.165-4.372-2.922c-.392-.935-1.462-1.373-2.39-.978-.928.396-1.363 1.475-.97 2.41 1.302 3.107 4.328 5.169 7.732 5.169 3.403 0 6.43-2.062 7.732-5.169.393-.935-.042-2.014-.97-2.41z"/>
    </g>
</svg>
