<svg xmlns="http://www.w3.org/2000/svg" width="143" height="146" viewBox="0 0 143 146">
    <g fill="none" fill-rule="evenodd" stroke="#4285F4" stroke-linecap="round" stroke-linejoin="round" stroke-width="4">
        <path d="M53.875 15.395C19.731 16.71-5.468 55.273 1.023 89.913c4.72 25.19 25.727 44.816 49.918 49.534 29.48 5.75 62.052-3.976 77.291-29.816 23.032-39.053-1.569-74.683-26.24-93.946C76.315-4.36 26.989-6.242.68 16.16" transform="translate(3 2)"/>
        <path d="M111.114 10.412c-1.75-.566-13.828 14.877-15.275 16.629-17.704 21.438-35.972 43.47-51.526 66.515-6.637 9.832-13.142 19.738-19.16 29.966-.406.693-9.202 14.333-3.752 9.654" transform="translate(3 2)"/>
        <path d="M31.66 64.906c-.523 2.554-.612 29.22 9.556 33.576 7.553 3.235 40.755-2.422 43.532-10.794 2.352-7.093 2.334-23.892-6.823-27.313-4.76-1.778-10.72-1.074-15.703-1.074-3.78 0-13.286.59-21.8 5.489M89.315 65.642c2.698-4.42 10.408-12.106 11.005-10.426.812 2.282 3.371 25.754 3.049 26.328-1.011 1.802-8.846-1.95-9.344-2.204" transform="translate(3 2)"/>
    </g>
</svg>
