<svg xmlns="http://www.w3.org/2000/svg" width="160" height="48" viewBox="0 0 160 48"><g fill="none" fill-rule="evenodd"><rect width="160" height="48" fill="#000" rx="8"/><path fill="#FFF" fill-rule="nonzero" d="M18.172656 14.010816C18.1988844 11.9750509 19.2661475 10.0946233 21.000528 9.028344 19.9014151 7.45861532 18.1264705 6.49905402 16.211136 6.439128 14.196048 6.227616 12.242508 7.644924 11.215656 7.644924 10.168932 7.644924 8.587932 6.460128 6.885456 6.495156 4.64544151 6.5675261 2.60776461 7.81023058 1.517952 9.7686-.802848 13.786704.92826 19.691964 3.151392 22.939896 4.263672 24.530316 5.563608 26.306856 7.264548 26.243856 8.92902 26.17482 9.550668 25.18248 11.559828 25.18248 13.55034 25.18248 14.133576 26.243856 15.869028 26.2038 17.655084 26.174808 18.780384 24.606312 19.85364 23.000832 20.6528114 21.8675996 21.2677724 20.6151311 21.675744 19.28982 19.5544519 18.3926175 18.1751319 16.3140412 18.172656 14.010816L18.172656 14.010816zM14.8947 4.303068C15.8685319 3.13401829 16.3483019 1.63140294 16.232124.114324 14.7443254.270588585 13.3700162.98165961 12.383028 2.105856 11.4084225 3.21502683 10.9146896 4.66611921 11.010576 6.139524 12.5183242 6.15504812 13.9498993 5.47818386 14.8947 4.303068L14.8947 4.303068z" transform="translate(14.55 10.35)"/><path fill="#FFF" fill-rule="nonzero" d="M9.962724 11.41758L4.282644 11.41758 2.91858 15.44532.512724 15.44532 5.892804.54372 8.392404.54372 13.772484 15.44532 11.3256 15.44532 9.962724 11.41758zM4.87092 9.558984L9.37332 9.558984 7.153788 3.02226 7.091676 3.02226 4.87092 9.558984zM25.391628 10.013676C25.391628 13.389852 23.584596 15.558984 20.857644 15.558984 19.4481063 15.6327175 18.1203989 14.8944368 17.439288 13.658184L17.387688 13.658184 17.387688 19.03944 15.157608 19.03944 15.157608 4.580856 17.31624 4.580856 17.31624 6.387888 17.357256 6.387888C18.068626 5.1593855 19.3977651 4.4214226 20.816628 4.46718 23.574 4.467192 25.391628 6.646872 25.391628 10.013676zM23.099436 10.013676C23.099436 7.814076 21.962712 6.367968 20.22834 6.367968 18.524436 6.367968 17.37834 7.844532 17.37834 10.013676 17.37834 12.20274 18.524436 13.668756 20.22834 13.668756 21.962724 13.668756 23.099436 12.233208 23.099436 10.013676zM37.349436 10.013676C37.349436 13.389852 35.542404 15.558984 32.815452 15.558984 31.4059143 15.6327175 30.0782069 14.8944368 29.397096 13.658184L29.345496 13.658184 29.345496 19.03944 27.115416 19.03944 27.115416 4.580856 29.274 4.580856 29.274 6.387888 29.315016 6.387888C30.0263911 5.15938624 31.3555354 4.42142769 32.7744 4.467192 35.531856 4.467192 37.349436 6.646872 37.349436 10.013676zM35.057256 10.013676C35.057256 7.814076 33.92052 6.367968 32.186148 6.367968 30.482244 6.367968 29.336148 7.844532 29.336148 10.013676 29.336148 12.20274 30.482244 13.668756 32.186148 13.668756 33.920532 13.668756 35.057256 12.233208 35.057256 10.013676L35.057256 10.013676zM45.252564 11.293356C45.417804 12.771096 46.853364 13.741356 48.815064 13.741356 50.694756 13.741356 52.047096 12.771048 52.047096 11.438616 52.047096 10.281972 51.231468 9.589416 49.300224 9.114792L47.36898 8.649552C44.632656 7.988616 43.362336 6.708924 43.362336 4.63236 43.362336 2.061264 45.602964.295248 48.784596.295248 51.933396.295248 54.092016 2.061264 54.164676 4.63236L51.913476 4.63236C51.778716 3.145248 50.549412 2.2476 48.752928 2.2476 46.956444 2.2476 45.727152 3.155808 45.727152 4.47768 45.727152 5.531196 46.512312 6.151116 48.433008 6.62568L50.0748 7.028808C53.13222 7.751856 54.40254 8.980008 54.40254 11.159664 54.40254 13.947552 52.181832 15.693648 48.6498 15.693648 45.345108 15.693648 43.113864 13.988568 42.96972 11.293248L45.252564 11.293356zM59.215452 2.00976L59.215452 4.580856 61.281468 4.580856 61.281468 6.346872 59.215452 6.346872 59.215452 12.336324C59.215452 13.266792 59.629128 13.700388 60.537324 13.700388 60.7825937 13.6961111 61.0274666 13.6788872 61.27092 13.648788L61.27092 15.404256C60.862594 15.4805515 60.447565 15.5151054 60.032244 15.507384 57.832644 15.507384 56.974824 14.681208 56.974824 12.574176L56.974824 6.346872 55.395144 6.346872 55.395144 4.580856 56.9748 4.580856 56.9748 2.00976 59.215452 2.00976zM62.478 10.013676C62.478 6.59532 64.491276 4.447272 67.63074 4.447272 70.78074 4.447272 72.784644 6.595272 72.784644 10.013676 72.784644 13.441416 70.791288 15.58008 67.63074 15.58008 64.471308 15.58008 62.478 13.441404 62.478 10.013676zM70.512372 10.013676C70.512372 7.668756 69.43776 6.284772 67.630728 6.284772 65.823696 6.284772 64.75026 7.679304 64.75026 10.013676 64.75026 12.367968 65.823696 13.741416 67.630728 13.741416 69.43776 13.741416 70.512372 12.367968 70.512372 10.013676L70.512372 10.013676zM74.62326 4.580856L76.750224 4.580856 76.750224 6.430056 76.801824 6.430056C77.0984353 5.23964209 78.1891831 4.42035787 79.4151 4.467168 79.6720968 4.46627068 79.9283846 4.4941809 80.179164 4.550376L80.179164 6.636312C79.8547212 6.53717198 79.5162715 6.49165355 79.177164 6.501552 78.5215419 6.47495453 77.8870451 6.73624168 77.4402737 7.21680717 76.9935024 7.69737266 76.7790919 8.34920489 76.85334 9.001152L76.85334 15.445296 74.62326 15.445296 74.62326 4.580856zM90.46116 12.254292C90.16116 14.226552 88.240452 15.580068 85.783032 15.580068 82.622484 15.580068 80.660772 13.462488 80.660772 10.065228 80.660772 6.65742 82.633032 4.44726 85.689288 4.44726 88.695144 4.44726 90.585384 6.5121 90.585384 9.806244L90.585384 10.570308 82.911948 10.570308 82.911948 10.705068C82.8403049 11.5139059 83.1195979 12.3145433 83.6787839 12.9033239 84.2379699 13.4921045 85.023153 13.8122799 85.834608 13.782408 86.9168187 13.8838075 87.9371317 13.2623732 88.343592 12.25428L90.46116 12.254292zM82.9224749 9.011724L88.354128 9.011724C88.3945985 8.28491699 88.1300358 7.5741877 87.6241801 7.05075786 87.1183243 6.52732801 86.417041 6.23865649 85.689288 6.254292 84.9557781 6.24991467 84.2509089 6.53872155 83.7313506 7.05651989 83.2117924 7.57431823 82.9205955 8.2782035 82.9224749 9.011724L82.9224749 9.011724z" transform="translate(48.8 21.15)"/><path fill="#FFF" fill-rule="nonzero" d="M54.5292969,18.2050781 C56.4160156,18.2050781 57.8046875,17.1210938 58.0390625,15.4746094 L56.7324219,15.4746094 C56.4980469,16.4355469 55.6484375,17.0390625 54.5292969,17.0390625 C53.0058594,17.0390625 52.0566406,15.7851562 52.0566406,13.7753906 C52.0566406,11.765625 53.0058594,10.5058594 54.5234375,10.5058594 C55.6367188,10.5058594 56.4863281,11.1738281 56.7324219,12.2226562 L58.0390625,12.2226562 C57.828125,10.5292969 56.3867188,9.33984375 54.5234375,9.33984375 C52.1738281,9.33984375 50.7148438,11.0390625 50.7148438,13.7753906 C50.7148438,16.5058594 52.1796875,18.2050781 54.5292969,18.2050781 Z M62.3105469,18.1230469 C64.1738281,18.1230469 65.3164062,16.875 65.3164062,14.8183594 C65.3164062,12.7617188 64.1679688,11.5136719 62.3105469,11.5136719 C60.4472656,11.5136719 59.2988281,12.7675781 59.2988281,14.8183594 C59.2988281,16.875 60.4414062,18.1230469 62.3105469,18.1230469 Z M62.3105469,17.0507812 C61.2148438,17.0507812 60.5996094,16.2363281 60.5996094,14.8183594 C60.5996094,13.4003906 61.2148438,12.5800781 62.3105469,12.5800781 C63.4003906,12.5800781 64.0214844,13.4003906 64.0214844,14.8183594 C64.0214844,16.2304688 63.4003906,17.0507812 62.3105469,17.0507812 Z M68.0878906,18 L68.0878906,14.0917969 C68.0878906,13.2597656 68.6679688,12.609375 69.4355469,12.609375 C70.1855469,12.609375 70.6660156,13.0605469 70.6660156,13.7871094 L70.6660156,18 L71.9023438,18 L71.9023438,13.9746094 C71.9023438,13.2070312 72.4355469,12.609375 73.25,12.609375 C74.0761719,12.609375 74.4863281,13.0371094 74.4863281,13.9160156 L74.4863281,18 L75.7460938,18 L75.7460938,13.6113281 C75.7460938,12.2871094 74.9960938,11.5136719 73.7070312,11.5136719 C72.8222656,11.5136719 72.0898438,11.9648438 71.7675781,12.6503906 L71.6679688,12.6503906 C71.3867188,11.9648438 70.7832031,11.5136719 69.9101562,11.5136719 C69.0605469,11.5136719 68.4160156,11.9355469 68.1347656,12.6503906 L68.0410156,12.6503906 L68.0410156,11.6367188 L66.828125,11.6367188 L66.828125,18 L68.0878906,18 Z M78.1660156,10.5 C78.6054688,10.5 78.9628906,10.1425781 78.9628906,9.70898438 C78.9628906,9.26953125 78.6054688,8.91210938 78.1660156,8.91210938 C77.7265625,8.91210938 77.3691406,9.26953125 77.3691406,9.70898438 C77.3691406,10.1425781 77.7265625,10.5 78.1660156,10.5 Z M78.7929688,18 L78.7929688,11.6367188 L77.5390625,11.6367188 L77.5390625,18 L78.7929688,18 Z M81.9042969,18 L81.9042969,14.2675781 C81.9042969,13.2421875 82.4960938,12.609375 83.4277344,12.609375 C84.359375,12.609375 84.8046875,13.125 84.8046875,14.1796875 L84.8046875,18 L86.0644531,18 L86.0644531,13.8808594 C86.0644531,12.3632812 85.2792969,11.5136719 83.8554688,11.5136719 C82.8945312,11.5136719 82.2617188,11.9414062 81.9511719,12.6445312 L81.8574219,12.6445312 L81.8574219,11.6367188 L80.6445312,11.6367188 L80.6445312,18 L81.9042969,18 Z M90.5234375,20.4316406 C92.328125,20.4316406 93.4707031,19.5117188 93.4707031,18.0644531 L93.4707031,11.6367188 L92.2636719,11.6367188 L92.2636719,12.6503906 L92.1640625,12.6503906 C91.8066406,11.9589844 91.0390625,11.5253906 90.1601562,11.5253906 C88.53125,11.5253906 87.5117188,12.8085938 87.5117188,14.7363281 C87.5117188,16.6464844 88.5195312,17.90625 90.1484375,17.90625 C91.0273438,17.90625 91.7304688,17.5253906 92.1171875,16.8339844 L92.2109375,16.8339844 L92.2109375,18.0585938 C92.2109375,18.9199219 91.5898438,19.4355469 90.5410156,19.4355469 C89.6914062,19.4355469 89.1582031,19.1308594 89.0527344,18.6503906 L87.7636719,18.6503906 C87.8984375,19.7226562 88.9296875,20.4316406 90.5234375,20.4316406 Z M90.5058594,16.8632812 C89.421875,16.8632812 88.8125,16.0371094 88.8125,14.7363281 C88.8125,13.4355469 89.421875,12.6035156 90.5058594,12.6035156 C91.578125,12.6035156 92.234375,13.4355469 92.234375,14.7363281 C92.234375,16.0371094 91.5839844,16.8632812 90.5058594,16.8632812 Z M100.888672,18.1230469 C102.412109,18.1230469 103.53125,17.3203125 103.53125,16.1367188 C103.53125,15.2109375 102.962891,14.6894531 101.75,14.4082031 L100.689453,14.1621094 C99.9980469,13.9980469 99.6757812,13.7519531 99.6757812,13.359375 C99.6757812,12.84375 100.208984,12.4980469 100.912109,12.4980469 C101.626953,12.4980469 102.083984,12.8085938 102.201172,13.2832031 L103.408203,13.2832031 C103.285156,12.1816406 102.347656,11.5136719 100.912109,11.5136719 C99.4707031,11.5136719 98.4335938,12.3105469 98.4335938,13.4179688 C98.4335938,14.3613281 98.9960938,14.9003906 100.208984,15.1816406 L101.322266,15.4453125 C101.960938,15.5976562 102.259766,15.8554688 102.259766,16.2539062 C102.259766,16.7753906 101.703125,17.1386719 100.917969,17.1386719 C100.15625,17.1386719 99.6875,16.828125 99.5292969,16.3300781 L98.2695312,16.3300781 C98.3808594,17.4375 99.3710938,18.1230469 100.888672,18.1230469 Z M107.744141,18.1230469 C109.607422,18.1230469 110.75,16.875 110.75,14.8183594 C110.75,12.7617188 109.601562,11.5136719 107.744141,11.5136719 C105.880859,11.5136719 104.732422,12.7675781 104.732422,14.8183594 C104.732422,16.875 105.875,18.1230469 107.744141,18.1230469 Z M107.744141,17.0507812 C106.648438,17.0507812 106.033203,16.2363281 106.033203,14.8183594 C106.033203,13.4003906 106.648438,12.5800781 107.744141,12.5800781 C108.833984,12.5800781 109.455078,13.4003906 109.455078,14.8183594 C109.455078,16.2304688 108.833984,17.0507812 107.744141,17.0507812 Z M114.957031,18.1230469 C116.820312,18.1230469 117.962891,16.875 117.962891,14.8183594 C117.962891,12.7617188 116.814453,11.5136719 114.957031,11.5136719 C113.09375,11.5136719 111.945312,12.7675781 111.945312,14.8183594 C111.945312,16.875 113.087891,18.1230469 114.957031,18.1230469 Z M114.957031,17.0507812 C113.861328,17.0507812 113.246094,16.2363281 113.246094,14.8183594 C113.246094,13.4003906 113.861328,12.5800781 114.957031,12.5800781 C116.046875,12.5800781 116.667969,13.4003906 116.667969,14.8183594 C116.667969,16.2304688 116.046875,17.0507812 114.957031,17.0507812 Z M120.734375,18 L120.734375,14.2675781 C120.734375,13.2421875 121.326172,12.609375 122.257812,12.609375 C123.189453,12.609375 123.634766,13.125 123.634766,14.1796875 L123.634766,18 L124.894531,18 L124.894531,13.8808594 C124.894531,12.3632812 124.109375,11.5136719 122.685547,11.5136719 C121.724609,11.5136719 121.091797,11.9414062 120.78125,12.6445312 L120.6875,12.6445312 L120.6875,11.6367188 L119.474609,11.6367188 L119.474609,18 L120.734375,18 Z M132.640625,18.1230469 C134.503906,18.1230469 135.646484,16.875 135.646484,14.8183594 C135.646484,12.7617188 134.498047,11.5136719 132.640625,11.5136719 C130.777344,11.5136719 129.628906,12.7675781 129.628906,14.8183594 C129.628906,16.875 130.771484,18.1230469 132.640625,18.1230469 Z M132.640625,17.0507812 C131.544922,17.0507812 130.929688,16.2363281 130.929688,14.8183594 C130.929688,13.4003906 131.544922,12.5800781 132.640625,12.5800781 C133.730469,12.5800781 134.351562,13.4003906 134.351562,14.8183594 C134.351562,16.2304688 133.730469,17.0507812 132.640625,17.0507812 Z M138.417969,18 L138.417969,14.2675781 C138.417969,13.2421875 139.009766,12.609375 139.941406,12.609375 C140.873047,12.609375 141.318359,13.125 141.318359,14.1796875 L141.318359,18 L142.578125,18 L142.578125,13.8808594 C142.578125,12.3632812 141.792969,11.5136719 140.369141,11.5136719 C139.408203,11.5136719 138.775391,11.9414062 138.464844,12.6445312 L138.371094,12.6445312 L138.371094,11.6367188 L137.158203,11.6367188 L137.158203,18 L138.417969,18 Z"/></g></svg>