<svg height="24" viewBox="0 0 24 24" width="24" xmlns="http://www.w3.org/2000/svg"><path d="m11 5.9a2.1 2.1 0 1 0 0 4.2 2.1 2.1 0 0 0 0-4.2zm6.1 11.1c0-.64-3.13-2.1-6.1-2.1s-6.1 1.46-6.1 2.1v2.1h12.2zm-6.1-13c2.21 0 4 1.79 4 4s-1.79 4-4 4-4-1.79-4-4 1.79-4 4-4zm0 9c2.67 0 8 1.34 8 4v3c0 .55-.45 1-1 1h-14c-.55 0-1-.45-1-1v-3c0-2.66 5.33-4 8-4zm8.73-9.673a1 1 0 0 1 1.872-.706c.597 1.584.898 3.168.898 4.747s-.3 3.163-.898 4.748a1 1 0 1 1 -1.872-.706c.515-1.364.77-2.71.77-4.042 0-1.333-.255-2.678-.77-4.04zm-2.65 2.063a1 1 0 0 1 1.842-.778c.384.91.579 1.83.579 2.757 0 .926-.195 1.847-.579 2.757a1 1 0 0 1 -1.842-.779 5.047 5.047 0 0 0 .421-1.978c0-.653-.139-1.31-.421-1.979z"/></svg>