<svg xmlns="http://www.w3.org/2000/svg" width="204" height="148" viewBox="0 0 204 148">
  <g fill="none" fill-rule="evenodd">
    <path fill="#DC6FD1" fill-opacity=".12" fill-rule="nonzero" d="M16.8274664,101.77414 C10.9719633,48.642577 46.7068459,62.2743736 66.5646727,29.7452561 C86.4224994,-2.78386142 144.045404,-0.593612721 170.80833,23.7456833 C197.571256,48.0849792 193.231307,75.8163731 173.277033,83.869654 C153.322759,91.922935 189.25451,106.980552 176.96887,127.307715 C165.188834,146.798332 22.6829695,154.905703 16.8274664,101.77414 Z"/>
    <g transform="translate(4.625 57.042)">
      <path fill="#302554" d="M8.04788211,4.06273486 C8.04788211,1.81894836 9.85642644,0 12.11403,0 L94.5204079,0 C96.7660794,0 98.5865558,1.82578213 98.5865558,4.06273486 L98.5865558,56.8085796 L8.04788211,56.8085796 L8.04788211,4.06273486 Z"/>
      <g transform="translate(0 56.519)">
        <path fill="#392C62" d="M0,0 L106.634438,0 L106.634438,2.43069182 C106.634438,3.32929438 105.910997,4.05775568 105.023277,4.05775568 L1.61116113,4.05775568 C0.721341407,4.05775568 0,3.33231029 0,2.43069182 L0,0 Z"/>
        <path fill="#2A1E50" d="M46.4561356,0 L60.4869827,0 L60.4869827,0.815174133 C60.4869827,1.26538238 60.126051,1.63034827 59.6719786,1.63034827 L47.2711396,1.63034827 C46.8210253,1.63034827 46.4561356,1.26852114 46.4561356,0.815174133 L46.4561356,0 Z"/>
      </g>
      <g fill-rule="nonzero" transform="translate(10.724 3.804)">
        <rect width="84.503" height="49.708" x=".342" y=".254" fill="#121212"/>
        <path fill="#FFF" fill-opacity=".6" d="M16.322023,5.38418374 L16.6098217,5.4019236 C17.333845,5.42291893 19.3941885,5.68623537 20.7234708,7.61343176 C20.6161429,7.67729256 18.2690052,9.04898749 18.2945176,11.8684854 C18.3244286,15.2478588 21.2680279,16.3649854 21.3032173,16.3763579 C21.2856226,16.4550904 20.8422353,17.9903739 19.7381656,19.545778 C18.8162015,20.9174729 17.8502505,22.2585497 16.3159896,22.2812946 C14.8257155,22.3162868 14.3242655,21.4099884 12.614937,21.4099884 C10.8897732,21.4099884 10.355773,22.2585497 8.9262007,22.3162868 C7.46495792,22.3696499 6.34857196,20.8536121 5.39317782,19.4941645 C3.48326929,16.7201564 1.99651415,11.676903 3.98999767,8.24504129 C4.95594865,6.56191562 6.71718167,5.47803168 8.59981836,5.4491631 C10.0628206,5.41941971 11.4202544,6.43156961 12.3193454,6.43156961 C13.2008417,6.43156961 14.8793794,5.22083888 16.6098217,5.4019236 Z M16.6282961,-1.37667655e-14 C16.7743324,1.32008141 16.2482499,2.6209171 15.4793599,3.57707945 C14.67704,4.51837011 13.393504,5.23833498 12.1433981,5.14560561 C11.979767,3.87538811 12.6131775,2.5246885 13.3222453,1.70062178 C14.1236855,0.765454761 15.5154291,0.0489891047 16.6282961,-1.37667655e-14 Z" transform="translate(30.778 12.427)"/>
      </g>
      <polygon fill="#000" fill-opacity=".04" points="64.172 0 98.587 0 98.587 56.519 64.172 56.519"/>
    </g>
    <g transform="translate(74 37)">
      <path fill="#48377B" d="M88.4127354,79.4449851 C88.4127354,80.3787503 87.6542861,81.1357166 86.7184075,81.1357166 L36.4545158,81.1357166 C35.5187644,81.1357166 34.7601903,80.3732753 34.7601931,79.4535335 L34.760198,77.8483908 C34.760198,77.7970667 34.7803022,77.7542535 34.8049699,77.7542535 L88.4127354,77.7542535 L88.4127354,79.4449851 Z"/>
      <polygon fill="#392C62" points="54.88 67.61 68.293 67.61 68.293 77.754 54.88 77.754"/>
      <rect width="117.982" height="64.902" x="1.927" y="1.927" fill="#121212" stroke="#392C62" stroke-width="3.854" rx="4.509"/>
      <path fill="#00ADEF" fill-rule="nonzero" d="M0,3.32608678 L9.60046161,2.02263194 L9.60465829,11.2545208 L0.00877000164,11.3089981 L0,3.32608678 Z M9.59588829,12.3182141 L9.6033401,21.5581487 L0.00745181121,20.2429203 L0.0069137743,12.2562355 L9.59588829,12.3182141 Z M10.759689,1.85211702 L23.4891043,0 L23.4891043,11.1371074 L10.759689,11.2378528 L10.759689,1.85211702 Z M23.4920635,12.4051076 L23.4890774,23.4920635 L10.7596621,21.7009864 L10.7418262,12.3843497 L23.4920635,12.4051076 Z" transform="translate(49.15 22.941)"/>
    </g>
  </g>
</svg>
