<svg xmlns="http://www.w3.org/2000/svg" width="204" height="148" viewBox="0 0 204 148">
    <g fill="none" fill-rule="evenodd">
        <path fill="#FF4241" fill-opacity=".07" fill-rule="nonzero" d="M16.869 101.774c-5.87-53.131 29.953-39.5 49.86-72.029 19.906-32.529 77.67-30.339 104.499-6 26.829 24.34 22.478 52.071 2.475 60.125-20.004 8.053 16.017 23.11 3.7 43.438-11.808 19.49-154.664 27.598-160.534-25.534z"/>
        <g transform="translate(4.636 57.042)">
            <path fill="#392C62" d="M8.068 2.954C8.068 1.323 9.386 0 11.036 0H95.86c1.639 0 2.968 1.32 2.968 2.954V56.81H8.068V2.954z"/>
            <g>
                <path fill="#4F3798" d="M0 0h106.896v2.884c0 .648-.524 1.174-1.182 1.174H1.182C.53 4.058 0 3.528 0 2.884V0z" transform="translate(0 56.519)"/>
                <path fill="#8F6DF5" d="M46.57 0h14.066v.815c0 .45-.362.815-.817.815H47.387c-.45 0-.817-.361-.817-.815V0z" transform="translate(0 56.519)"/>
            </g>
            <g fill-rule="nonzero">
                <path fill="#FFF" d="M0.343 0.254H85.053V49.961999999999996H0.343z" transform="translate(10.75 3.804)"/>
                <path fill="#000" fill-opacity=".87" d="M46.04 19.65l.252.013c.528.015 2.03.207 3 1.612-.079.047-1.79 1.047-1.772 3.103.022 2.464 2.168 3.279 2.194 3.287-.013.057-.336 1.177-1.141 2.31-.672 1.001-1.377 1.979-2.495 1.996-1.087.025-1.453-.636-2.7-.636-1.257 0-1.646.619-2.689.661-1.065.039-1.88-1.066-2.576-2.058-1.393-2.022-2.477-5.7-1.023-8.202.704-1.227 1.988-2.018 3.361-2.039 1.067-.022 2.057.716 2.712.716.643 0 1.867-.882 3.129-.75zm.265-3.926c.107.962-.277 1.91-.837 2.608-.585.686-1.521 1.211-2.433 1.144-.12-.926.343-1.911.86-2.512.584-.682 1.599-1.204 2.41-1.24z" transform="translate(10.75 3.804)"/>
            </g>
            <circle cx="53.715" cy="1.902" r="1" fill="#5C5C5C"/>
            <path fill="#000" fill-opacity=".04" d="M64.329 0L98.829 0 98.829 56.519 64.329 56.519z"/>
        </g>
        <g transform="translate(74.182 37)">
            <path fill="#392C62" d="M88.63 79.485c0 .911-.74 1.65-1.64 1.65H36.486c-.906 0-1.64-.729-1.64-1.643v-1.644c0-.05.02-.094.045-.094h53.74v1.73zM55.015 67.61L68.461 67.61 68.461 77.754 55.015 77.754z"/>
            <rect width="119.325" height="65.946" x="1.405" y="1.405" fill="#FFF" stroke="#4F3798" stroke-width="2.81" rx="3.288"/>
            <path fill="#00ADEF" fill-rule="nonzero" d="M49.27 26.268l9.625-1.304.004 9.232-9.62.054-.008-7.982zm9.62 8.992l.007 9.24-9.619-1.316v-7.986l9.612.062zm1.167-10.466l12.76-1.853V34.08l-12.76.1v-9.385zM72.82 35.347l-.003 11.087-12.76-1.792-.018-9.316 12.781.02z"/>
        </g>
    </g>
</svg>
