<svg height="24" viewBox="0 0 24 24" width="24" xmlns="http://www.w3.org/2000/svg"><path d="m3 7c0-.55.45-1 1-1h16c.55 0 1-.45 1-1s-.45-1-1-1h-17c-1.1 0-2 .9-2 2v12c0 1.1.9 2 2 2h3c.55 0 1-.45 1-1s-.45-1-1-1h-2c-.55 0-1-.45-1-1zm9 5h-2c-.55 0-1 .45-1 1v.78c-.61.55-1 1.33-1 2.22s.39 1.67 1 2.22v.78c0 .55.45 1 1 1h2c.55 0 1-.45 1-1v-.78c.61-.55 1-1.34 1-2.22s-.39-1.67-1-2.22v-.78c0-.55-.45-1-1-1zm-1 5.5c-.83 0-1.5-.67-1.5-1.5s.67-1.5 1.5-1.5 1.5.67 1.5 1.5-.67 1.5-1.5 1.5zm11-9.5h-6c-.5 0-1 .5-1 1v10c0 .5.5 1 1 1h6c.5 0 1-.5 1-1v-10c0-.5-.5-1-1-1zm-1 10h-4v-8h4z"/></svg>