<svg width="487" height="140" fill="none" xmlns="http://www.w3.org/2000/svg">
  <g clip-path="url(#giftcard-banner-de__clip0)">
    <path fill="#FF416F" d="M0 0h487v140H0z"/>
    <path fill-rule="evenodd" clip-rule="evenodd" d="M473 34zm-.457.11a.993.993 0 00-.277.211l-.001.002a.982.982 0 00-.086.107l-9.993 13.989a1 1 0 001.549 1.26l.079-.098L472 38.121v8.559l-9.814 13.739a1 1 0 001.549 1.26l.079-.098L472 50.121V68l.007.116A1 1 0 00474 68V50.12l8.186 11.461.08.098a1 1 0 001.548-1.26L474 46.679V38.12l8.186 11.461.08.098a1 1 0 001.548-1.26l-9.987-13.981M495-9zm-.457.11a.993.993 0 00-.277.211l-.001.002a.981.981 0 00-.086.107l-9.993 13.989a1 1 0 001.549 1.26l.079-.098L494-4.879V3.68l-9.814 13.739a1 1 0 001.549 1.26l.079-.098L494 7.121V25l.007.116A1 1 0 00496 25V7.12l8.186 11.461.08.098a1 1 0 001.548-1.26L496 3.679v-8.558l8.186 11.46.08.098a1 1 0 001.548-1.26l-9.987-13.981M449-9zm-.457.11a.993.993 0 00-.277.211l-.001.002a.981.981 0 00-.086.107l-9.993 13.989a1 1 0 001.549 1.26l.079-.098L448-4.879V3.68l-9.814 13.739a1 1 0 001.549 1.26l.079-.098L448 7.121V25l.007.116A1 1 0 00450 25V7.12l8.186 11.461.08.098a1 1 0 001.548-1.26L450 3.679v-8.558l8.186 11.46.08.098a1 1 0 001.548-1.26l-9.987-13.981M403-9zm-.457.11a.993.993 0 00-.277.211l-.001.002a.981.981 0 00-.086.107l-9.993 13.989a1 1 0 001.549 1.26l.079-.098L402-4.879V3.68l-9.814 13.739a1 1 0 001.549 1.26l.079-.098L402 7.121V25l.007.116A1 1 0 00404 25V7.12l8.186 11.461.08.098a1 1 0 001.548-1.26L404 3.679v-8.558l8.186 11.46.08.098a1 1 0 001.548-1.26l-9.987-13.981M425 34zm-.457.11a.993.993 0 00-.277.211l-.001.002a.982.982 0 00-.086.107l-9.993 13.989a1 1 0 001.549 1.26l.079-.098L424 38.121v8.559l-9.814 13.739a1 1 0 001.549 1.26l.079-.098L424 50.121V68l.007.116A1 1 0 00426 68V50.12l8.186 11.461.08.098a1 1 0 001.548-1.26L426 46.679V38.12l8.186 11.461.08.098a1 1 0 001.548-1.26l-9.987-13.981M381 34zm-.457.11a.993.993 0 00-.277.211l-.001.002a.982.982 0 00-.086.107l-9.993 13.989a1 1 0 001.549 1.26l.079-.098L380 38.121v8.559l-9.814 13.739a1 1 0 001.549 1.26l.079-.098L380 50.121V68l.007.116A1 1 0 00382 68V50.12l8.186 11.461.08.098a1 1 0 001.548-1.26L382 46.679V38.12l8.186 11.461.08.098a1 1 0 001.548-1.26l-9.987-13.981M357-9zm-.457.11a.993.993 0 00-.277.211l-.001.002a.981.981 0 00-.086.107l-9.993 13.989a1 1 0 001.549 1.26l.079-.098L356-4.879V3.68l-9.814 13.739a1 1 0 001.549 1.26l.079-.098L356 7.121V25l.007.116A1 1 0 00358 25V7.12l8.186 11.461.08.098a1 1 0 001.548-1.26L358 3.679v-8.558l8.186 11.46.08.098a1 1 0 001.548-1.26l-9.987-13.981M473 119a.993.993 0 01.061.002L473 119zm-.457.111a.981.981 0 00-.277.21l-.001.002a.895.895 0 00-.086.107l-9.993 13.989a1 1 0 001.549 1.26l.079-.098 8.186-11.46v8.559l-9.814 13.739a1 1 0 001.549 1.26l.079-.098 8.186-11.46V153l.007.117A1 1 0 00474 153v-17.879l8.186 11.46.08.098a1 1 0 001.548-1.26L474 131.68v-8.559l8.186 11.46.08.098a1 1 0 001.548-1.26l-9.987-13.981M427 119a.993.993 0 01.061.002L427 119zm-.457.111a.981.981 0 00-.277.21l-.001.002a.895.895 0 00-.086.107l-9.993 13.989a1 1 0 001.549 1.26l.079-.098 8.186-11.46v8.559l-9.814 13.739a1 1 0 001.549 1.26l.079-.098 8.186-11.46V153l.007.117A1 1 0 00428 153v-17.879l8.186 11.46.08.098a1 1 0 001.548-1.26L428 131.68v-8.559l8.186 11.46.08.098a1 1 0 001.548-1.26l-9.987-13.981M381 119a.993.993 0 01.061.002L381 119zm-.457.111a.981.981 0 00-.277.21l-.001.002a.895.895 0 00-.086.107l-9.993 13.989a1 1 0 001.549 1.26l.079-.098 8.186-11.46v8.559l-9.814 13.739a1 1 0 001.549 1.26l.079-.098 8.186-11.46V153l.007.117A1 1 0 00382 153v-17.879l8.186 11.46.08.098a1 1 0 001.548-1.26L382 131.68v-8.559l8.186 11.46.08.098a1 1 0 001.548-1.26l-9.987-13.981M335 119a.993.993 0 01.061.002L335 119zm-.457.111a.981.981 0 00-.277.21l-.001.002a.895.895 0 00-.086.107l-9.993 13.989a1 1 0 001.549 1.26l.079-.098 8.186-11.46v8.559l-9.814 13.739a1 1 0 001.549 1.26l.079-.098 8.186-11.46V153l.007.117A1 1 0 00336 153v-17.879l8.186 11.46.08.098a1 1 0 001.548-1.26L336 131.68v-8.559l8.186 11.46.08.098a1 1 0 001.548-1.26l-9.987-13.981M495 76zm-.457.11a.993.993 0 00-.277.211l-.001.002a.982.982 0 00-.086.107l-9.993 13.989a1 1 0 001.549 1.26l.079-.098L494 80.121v8.559l-9.814 13.739a1 1 0 001.549 1.26l.079-.098L494 92.121V110l.007.117A1 1 0 00496 110V92.12l8.186 11.461.08.098a1 1 0 001.548-1.26L496 88.679v-8.558l8.186 11.46.08.098a1 1 0 001.548-1.26l-9.987-13.981M449 76zm-.457.11a.993.993 0 00-.277.211l-.001.002a.982.982 0 00-.086.107l-9.993 13.989a1 1 0 001.549 1.26l.079-.098L448 80.121v8.559l-9.814 13.739a1 1 0 001.549 1.26l.079-.098L448 92.121V110l.007.117A1 1 0 00450 110V92.12l8.186 11.461.08.098a1 1 0 001.548-1.26L450 88.679v-8.558l8.186 11.46.08.098a1 1 0 001.548-1.26l-9.987-13.981M403 76zm-.457.11a.993.993 0 00-.277.211l-.001.002a.982.982 0 00-.086.107l-9.993 13.989a1 1 0 001.549 1.26l.079-.098L402 80.121v8.559l-9.814 13.739a1 1 0 001.549 1.26l.079-.098L402 92.121V110l.007.117A1 1 0 00404 110V92.12l8.186 11.461.08.098a1 1 0 001.548-1.26L404 88.679v-8.558l8.186 11.46.08.098a1 1 0 001.548-1.26l-9.987-13.981M357 76zm-.457.11a.993.993 0 00-.277.211l-.001.002a.982.982 0 00-.086.107l-9.993 13.989a1 1 0 001.549 1.26l.079-.098L356 80.121v8.559l-9.814 13.739a1 1 0 001.549 1.26l.079-.098L356 92.121V110l.007.117A1 1 0 00358 110V92.12l8.186 11.461.08.098a1 1 0 001.548-1.26L358 88.679v-8.558l8.186 11.46.08.098a1 1 0 001.548-1.26l-9.987-13.981M317-9zm-.457.11a.993.993 0 00-.277.211l-.001.002a.981.981 0 00-.086.107l-9.993 13.989a1 1 0 001.549 1.26l.079-.098L316-4.879V3.68l-9.814 13.739a1 1 0 001.549 1.26l.079-.098L316 7.121V25l.007.116A1 1 0 00318 25V7.12l8.186 11.461.08.098a1 1 0 001.548-1.26L318 3.679v-8.558l8.186 11.46.08.098a1 1 0 001.548-1.26l-9.987-13.981M271-9zm-.457.11a.993.993 0 00-.277.211l-.001.002a.981.981 0 00-.086.107l-9.993 13.989a1 1 0 001.549 1.26l.079-.098L270-4.879V3.68l-9.814 13.739a1 1 0 001.549 1.26l.079-.098L270 7.121V25l.007.116A1 1 0 00272 25V7.12l8.186 11.461.08.098a1 1 0 001.548-1.26L272 3.679v-8.558l8.186 11.46.08.098a1 1 0 001.548-1.26l-9.987-13.981M225-9zm-.457.11a.993.993 0 00-.277.211l-.001.002a.981.981 0 00-.086.107l-9.993 13.989a1 1 0 001.549 1.26l.079-.098L224-4.879V3.68l-9.814 13.739a1 1 0 001.549 1.26l.079-.098L224 7.121V25l.007.116A1 1 0 00226 25V7.12l8.186 11.461.08.098a1 1 0 001.548-1.26L226 3.679v-8.558l8.186 11.46.08.098a1 1 0 001.548-1.26l-9.987-13.981M179-9zm-.457.11a.993.993 0 00-.277.211l-.001.002a.981.981 0 00-.086.107l-9.993 13.989a1 1 0 001.549 1.26l.079-.098L178-4.879V3.68l-9.814 13.739a1 1 0 001.549 1.26l.079-.098L178 7.121V25l.007.116A1 1 0 00180 25V7.12l8.186 11.461.08.098a1 1 0 001.548-1.26L180 3.679v-8.558l8.186 11.46.08.098a1 1 0 001.548-1.26l-9.987-13.981M295 119a.993.993 0 01.061.002L295 119zm-.457.111a.981.981 0 00-.277.21l-.001.002a.895.895 0 00-.086.107l-9.993 13.989a1 1 0 001.549 1.26l.079-.098 8.186-11.46v8.559l-9.814 13.739a1 1 0 001.549 1.26l.079-.098 8.186-11.46V153l.007.117A1 1 0 00296 153v-17.879l8.186 11.46.08.098a1 1 0 001.548-1.26L296 131.68v-8.559l8.186 11.46.08.098a1 1 0 001.548-1.26l-9.987-13.981M249 119a.993.993 0 01.061.002L249 119zm-.457.111a.981.981 0 00-.277.21l-.001.002a.895.895 0 00-.086.107l-9.993 13.989a1 1 0 001.549 1.26l.079-.098 8.186-11.46v8.559l-9.814 13.739a1 1 0 001.549 1.26l.079-.098 8.186-11.46V153l.007.117A1 1 0 00250 153v-17.879l8.186 11.46.08.098a1 1 0 001.548-1.26L250 131.68v-8.559l8.186 11.46.08.098a1 1 0 001.548-1.26l-9.987-13.981M203 119a.993.993 0 01.061.002L203 119zm-.457.111a.981.981 0 00-.277.21l-.001.002a.895.895 0 00-.086.107l-9.993 13.989a1 1 0 001.549 1.26l.079-.098 8.186-11.46v8.559l-9.814 13.739a1 1 0 001.549 1.26l.079-.098 8.186-11.46V153l.007.117A1 1 0 00204 153v-17.879l8.186 11.46.08.098a1 1 0 001.548-1.26L204 131.68v-8.559l8.186 11.46.08.098a1 1 0 001.548-1.26l-9.987-13.981M157 119a.993.993 0 01.061.002L157 119zm-.457.111a.981.981 0 00-.277.21l-.001.002a.895.895 0 00-.086.107l-9.993 13.989a1 1 0 001.549 1.26l.079-.098 8.186-11.46v8.559l-9.814 13.739a1 1 0 001.549 1.26l.079-.098 8.186-11.46V153l.007.117A1 1 0 00158 153v-17.879l8.186 11.46.08.098a1 1 0 001.548-1.26L158 131.68v-8.559l8.186 11.46.08.098a1 1 0 001.548-1.26l-9.987-13.981M16 34zm-.457.11a.993.993 0 00-.277.211l-.001.002a.895.895 0 00-.086.107L5.186 48.419a1 1 0 001.549 1.26l.079-.098L15 38.121v8.559L5.186 60.419a1 1 0 001.549 1.26l.079-.098L15 50.121V68l.007.116A1 1 0 0017 68V50.12l8.186 11.461.08.098a1 1 0 001.548-1.26L17 46.679V38.12l8.186 11.461.08.098a1 1 0 001.548-1.26l-9.987-13.981M130-9zm-.457.11a.993.993 0 00-.277.211l-.001.002a.981.981 0 00-.086.107l-9.993 13.989a1 1 0 001.549 1.26l.079-.098L129-4.879V3.68l-9.814 13.739a1 1 0 001.549 1.26l.079-.098L129 7.121V25l.007.116A1 1 0 00131 25V7.12l8.186 11.461.08.098a1 1 0 001.548-1.26L131 3.679v-8.558l8.186 11.46.08.098a1 1 0 001.548-1.26l-9.987-13.981M84-9zm-.457.11a.992.992 0 00-.277.211l-.001.002a.895.895 0 00-.086.107L73.186 5.419a1 1 0 001.549 1.26l.079-.098L83-4.879V3.68l-9.814 13.739a1 1 0 001.549 1.26l.079-.098L83 7.121V25l.007.116A1 1 0 0085 25V7.12l8.186 11.461.08.098a1 1 0 001.548-1.26L85 3.679v-8.558l8.186 11.46.08.098a1 1 0 001.548-1.26L84.827-8.562M38-9zm-.457.11a.992.992 0 00-.277.211l-.001.002a.895.895 0 00-.086.107L27.186 5.419a1 1 0 001.549 1.26l.079-.098L37-4.879V3.68l-9.814 13.739a1 1 0 001.549 1.26l.079-.098L37 7.121V25l.007.116A1 1 0 0039 25V7.12l8.186 11.461.08.098a1 1 0 001.548-1.26L39 3.679v-8.558l8.186 11.46.08.098a1 1 0 001.548-1.26L38.827-8.562M-8-9zm-.457.11a.993.993 0 00-.277.211l-.001.002a.895.895 0 00-.086.107l-9.993 13.989a1 1 0 001.549 1.26l.079-.098L-9-4.879V3.68l-9.814 13.739a1 1 0 001.549 1.26l.079-.098L-9 7.121V25l.007.116A1 1 0 00-7 25V7.12l8.186 11.461.08.098a1 1 0 001.548-1.26L-7 3.679v-8.558L1.186 6.58l.08.098a1 1 0 001.548-1.26l-9.987-13.98M108 119a.993.993 0 01.061.002L108 119zm-.457.111a.981.981 0 00-.277.21l-.001.002a.895.895 0 00-.086.107l-9.993 13.989a1 1 0 001.549 1.26l.079-.098 8.186-11.46v8.559l-9.814 13.739a1 1 0 001.549 1.26l.079-.098 8.186-11.46V153l.007.117A1 1 0 00109 153v-17.879l8.186 11.46.08.098a1 1 0 001.548-1.26L109 131.68v-8.559l8.186 11.46.08.098a1 1 0 001.548-1.26l-9.987-13.981M62 119a.996.996 0 01.061.002l-.06-.002zm-.457.111a.98.98 0 00-.277.21l-.001.002a.915.915 0 00-.086.107l-9.993 13.989a1 1 0 001.549 1.26l.079-.098L61 123.121v8.559l-9.814 13.739a1 1 0 001.549 1.26l.079-.098L61 135.121V153l.007.117A1 1 0 0063 153v-17.879l8.186 11.46.08.098a1 1 0 001.548-1.26L63 131.68v-8.559l8.186 11.46.08.098a1 1 0 001.548-1.26l-9.987-13.981M16 119a.996.996 0 01.061.002l-.06-.002zm-.457.111a.98.98 0 00-.277.21l-.001.002a.915.915 0 00-.086.107l-9.993 13.989a1 1 0 001.549 1.26l.079-.098L15 123.121v8.559l-9.814 13.739a1 1 0 001.549 1.26l.079-.098L15 135.121V153l.007.117A1 1 0 0017 153v-17.879l8.186 11.46.08.098a1 1 0 001.548-1.26L17 131.68v-8.559l8.186 11.46.08.098a1 1 0 001.548-1.26l-9.987-13.981M130 76zm-.457.11a.993.993 0 00-.277.211l-.001.002a.982.982 0 00-.086.107l-9.993 13.989a1 1 0 001.549 1.26l.079-.098L129 80.121v8.559l-9.814 13.739a1 1 0 001.549 1.26l.079-.098L129 92.121V110l.007.117A1 1 0 00131 110V92.12l8.186 11.461.08.098a1 1 0 001.548-1.26L131 88.679v-8.558l8.186 11.46.08.098a1 1 0 001.548-1.26l-9.987-13.981M84 76zm-.457.11a.993.993 0 00-.277.211l-.001.002a.895.895 0 00-.086.107l-9.993 13.989a1 1 0 001.549 1.26l.079-.098L83 80.121v8.559l-9.814 13.739a1 1 0 001.549 1.26l.079-.098L83 92.121V110l.007.117A1 1 0 0085 110V92.12l8.186 11.461.08.098a1 1 0 001.548-1.26L85 88.679v-8.558l8.186 11.46.08.098a1 1 0 001.548-1.26l-9.987-13.981M38 76zm-.457.11a.993.993 0 00-.277.211l-.001.002a.895.895 0 00-.086.107l-9.993 13.989a1 1 0 001.549 1.26l.079-.098L37 80.121v8.559l-9.814 13.739a1 1 0 001.549 1.26l.079-.098L37 92.121V110l.007.117A1 1 0 0039 110V92.12l8.186 11.461.08.098a1 1 0 001.548-1.26L39 88.679v-8.558l8.186 11.46.08.098a1 1 0 001.548-1.26l-9.987-13.981M-8 76zm-.457.11a.994.994 0 00-.277.211l-.001.002a.895.895 0 00-.086.107l-9.993 13.989a1 1 0 001.549 1.26l.079-.098L-9 80.121v8.559l-9.814 13.739a1 1 0 001.549 1.26l.079-.098L-9 92.121V110l.007.117A1 1 0 00-7 110V92.12l8.186 11.461.08.098a1.001 1.001 0 001.548-1.26L-7 88.679v-8.558l8.186 11.46.08.098a1 1 0 001.548-1.26l-9.987-13.981" fill="#000" fill-opacity=".12"/>
    <path clip-rule="evenodd" d="M65.02 55.572s19.495-4.061 22.744-12.455c3.249-8.393-3.016-17.344-10.83-13.808-7.815 3.536-11.914 26.263-11.914 26.263zm-.204 0S45.32 51.511 42.072 43.117c-3.249-8.393 3.015-17.344 10.83-13.808 7.815 3.536 11.913 26.263 11.913 26.263z" stroke="#FAB500" stroke-width="7.581"/>
    <circle cx="65.025" cy="52.864" r="5.415" fill="#FFD465"/>
    <path d="M30.416 58.403a2.166 2.166 0 012.158-2.294L93 56l-3 55-54.465-.187a2.166 2.166 0 01-2.155-2.039l-2.964-50.371z" fill="#2AA598"/>
    <path d="M105.442 58.362a2.166 2.166 0 00-2.146-2.267L91.996 56l-2 55 10.964-.164a2.165 2.165 0 002.131-2.065l2.351-50.41z" fill="#259287"/>
    <path fill="#FAB500" d="M58.609 56.114h10.289v54.692H58.609z"/>
    <path d="M30.941 70h74.057l-.283 4H31.239l-.298-4z" fill="#000" fill-opacity=".14"/>
  </g>
  <path d="M138.332 61c-.503 0-.832-.243-.988-.728L131.78 43.58l-.052-.234a.53.53 0 01.156-.39.53.53 0 01.39-.156h2.288c.225 0 .399.06.52.182a.791.791 0 01.286.39l4.394 13.39 4.394-13.39a.776.776 0 01.26-.39c.139-.121.321-.182.546-.182h2.288c.139 0 .26.052.364.156a.494.494 0 01.182.39l-.052.234-5.564 16.692c-.156.485-.485.728-.988.728h-2.86zm16.356.26c-1.924 0-3.458-.555-4.602-1.664-1.126-1.127-1.724-2.704-1.794-4.732l-.026-.65.026-.65c.087-1.976.694-3.527 1.82-4.654 1.144-1.127 2.67-1.69 4.576-1.69 2.046 0 3.623.624 4.732 1.872 1.127 1.248 1.69 2.912 1.69 4.992v.546a.6.6 0 01-.182.442.633.633 0 01-.468.182h-8.632v.208c.035.953.295 1.76.78 2.418.503.641 1.188.962 2.054.962 1.023 0 1.846-.399 2.47-1.196.156-.19.278-.312.364-.364.104-.052.252-.078.442-.078h2.236a.53.53 0 01.39.156c.122.087.182.2.182.338 0 .416-.251.91-.754 1.482-.485.555-1.187 1.04-2.106 1.456-.918.416-1.984.624-3.198.624zm2.886-8.19v-.078c0-1.023-.26-1.846-.78-2.47-.502-.624-1.204-.936-2.106-.936-.901 0-1.603.312-2.106.936-.502.624-.754 1.447-.754 2.47v.078h5.746zm6.92 7.93a.603.603 0 01-.442-.182.603.603 0 01-.182-.442V48.13c0-.173.061-.32.182-.442a.568.568 0 01.442-.208h2.106a.63.63 0 01.468.182.63.63 0 01.182.468v1.066c.416-.555.936-.98 1.56-1.274.642-.295 1.37-.442 2.184-.442h1.066c.191 0 .338.06.442.182.122.104.182.251.182.442v1.872a.6.6 0 01-.182.442c-.104.121-.251.182-.442.182h-2.028c-.814 0-1.456.234-1.924.702-.468.468-.702 1.11-.702 1.924v7.15a.6.6 0 01-.182.442.633.633 0 01-.468.182h-2.262zm15.34.26c-1.3 0-2.392-.19-3.276-.572-.884-.399-1.543-.858-1.976-1.378-.416-.537-.624-.997-.624-1.378 0-.173.061-.312.182-.416a.62.62 0 01.416-.156h2.054a.49.49 0 01.39.182c.069.052.251.208.546.468.295.277.641.494 1.04.65.399.156.841.234 1.326.234.693 0 1.265-.139 1.716-.416.451-.277.676-.659.676-1.144 0-.364-.104-.659-.312-.884-.191-.225-.546-.425-1.066-.598-.52-.19-1.291-.39-2.314-.598-1.473-.312-2.565-.789-3.276-1.43-.693-.641-1.04-1.49-1.04-2.548 0-.693.208-1.343.624-1.95.416-.624 1.031-1.127 1.846-1.508.832-.399 1.82-.598 2.964-.598 1.161 0 2.167.19 3.016.572.849.364 1.491.806 1.924 1.326.451.503.676.953.676 1.352a.574.574 0 01-.182.416.53.53 0 01-.39.156h-1.924c-.139 0-.286-.06-.442-.182a6.707 6.707 0 01-.572-.494 2.891 2.891 0 00-.91-.572c-.347-.139-.754-.208-1.222-.208-.641 0-1.144.139-1.508.416a1.33 1.33 0 00-.52 1.092c0 .33.087.598.26.806.173.208.511.407 1.014.598.503.19 1.257.381 2.262.572 1.664.33 2.851.84 3.562 1.534a3.383 3.383 0 011.092 2.548c0 1.213-.529 2.201-1.586 2.964-1.057.763-2.539 1.144-4.446 1.144zm14.566 0c-1.907 0-3.432-.529-4.576-1.586-1.127-1.057-1.725-2.522-1.794-4.394l-.026-1.04.026-1.04c.069-1.872.667-3.337 1.794-4.394 1.144-1.057 2.669-1.586 4.576-1.586 1.352 0 2.496.243 3.432.728.953.485 1.655 1.083 2.106 1.794.468.693.719 1.352.754 1.976a.495.495 0 01-.182.442.602.602 0 01-.442.182h-2.288a.74.74 0 01-.416-.104 1.44 1.44 0 01-.26-.416c-.26-.676-.607-1.161-1.04-1.456-.416-.295-.953-.442-1.612-.442-.884 0-1.577.286-2.08.858-.503.555-.771 1.404-.806 2.548l-.026.962.026.858c.069 2.27 1.031 3.406 2.886 3.406.676 0 1.222-.147 1.638-.442.416-.295.754-.78 1.014-1.456.087-.19.173-.32.26-.39a.63.63 0 01.416-.13h2.288a.6.6 0 01.442.182.495.495 0 01.182.442c-.035.607-.277 1.257-.728 1.95-.451.693-1.144 1.291-2.08 1.794-.936.503-2.097.754-3.484.754zm9.654-.26a.6.6 0 01-.442-.182.6.6 0 01-.182-.442V43.164c0-.19.06-.338.182-.442a.6.6 0 01.442-.182h2.314c.19 0 .338.06.442.182.121.104.182.251.182.442v5.928c1.04-1.248 2.444-1.872 4.212-1.872 1.594 0 2.868.529 3.822 1.586.953 1.04 1.43 2.461 1.43 4.264v7.306c0 .173-.061.32-.182.442-.104.121-.252.182-.442.182h-2.34a.6.6 0 01-.442-.182.6.6 0 01-.182-.442v-7.15c0-1.023-.252-1.811-.754-2.366-.486-.572-1.196-.858-2.132-.858-.919 0-1.647.286-2.184.858-.538.572-.806 1.36-.806 2.366v7.15c0 .173-.061.32-.182.442-.104.121-.252.182-.442.182h-2.314zm21.525.26c-1.924 0-3.458-.555-4.602-1.664-1.127-1.127-1.725-2.704-1.794-4.732l-.026-.65.026-.65c.087-1.976.693-3.527 1.82-4.654 1.144-1.127 2.669-1.69 4.576-1.69 2.045 0 3.623.624 4.732 1.872 1.127 1.248 1.69 2.912 1.69 4.992v.546c0 .173-.061.32-.182.442a.633.633 0 01-.468.182h-8.632v.208c.035.953.295 1.76.78 2.418.503.641 1.187.962 2.054.962 1.023 0 1.846-.399 2.47-1.196.156-.19.277-.312.364-.364.104-.052.251-.078.442-.078h2.236a.53.53 0 01.39.156.4.4 0 01.182.338c0 .416-.251.91-.754 1.482-.485.555-1.187 1.04-2.106 1.456-.919.416-1.985.624-3.198.624zm2.886-8.19v-.078c0-1.023-.26-1.846-.78-2.47-.503-.624-1.205-.936-2.106-.936-.901 0-1.603.312-2.106.936-.503.624-.754 1.447-.754 2.47v.078h5.746zm6.92 7.93a.602.602 0 01-.442-.182.603.603 0 01-.182-.442V48.104c0-.173.061-.32.182-.442a.602.602 0 01.442-.182h2.132a.6.6 0 01.442.182.603.603 0 01.182.442v1.066c1.023-1.3 2.47-1.95 4.342-1.95 1.595 0 2.86.529 3.796 1.586.936 1.04 1.404 2.461 1.404 4.264v7.306c0 .173-.061.32-.182.442-.104.121-.251.182-.442.182h-2.288a.602.602 0 01-.442-.182.603.603 0 01-.182-.442v-7.15c0-1.023-.251-1.811-.754-2.366-.485-.572-1.196-.858-2.132-.858-.919 0-1.647.286-2.184.858-.52.572-.78 1.36-.78 2.366v7.15c0 .173-.061.32-.182.442-.104.121-.251.182-.442.182h-2.288zm16.251 0a.6.6 0 01-.442-.182.6.6 0 01-.182-.442V43.164c0-.19.06-.338.182-.442a.6.6 0 01.442-.182h2.106c.19 0 .338.06.442.182.121.104.182.251.182.442v8.892l4.368-4.134c.052-.035.138-.104.26-.208a.974.974 0 01.312-.182 1.24 1.24 0 01.39-.052h2.418c.173 0 .312.052.416.156a.562.562 0 01.156.416c0 .156-.087.312-.26.468l-5.356 5.018 6.006 6.448c.173.173.26.32.26.442a.521.521 0 01-.182.416.53.53 0 01-.39.156h-2.47c-.243 0-.425-.026-.546-.078a3.026 3.026 0 01-.416-.364l-4.966-5.226v5.044c0 .173-.061.32-.182.442-.104.121-.252.182-.442.182h-2.106zm18.834.26c-1.924 0-3.458-.555-4.602-1.664-1.127-1.127-1.725-2.704-1.794-4.732l-.026-.65.026-.65c.086-1.976.693-3.527 1.82-4.654 1.144-1.127 2.669-1.69 4.576-1.69 2.045 0 3.622.624 4.732 1.872 1.126 1.248 1.69 2.912 1.69 4.992v.546c0 .173-.061.32-.182.442a.636.636 0 01-.468.182h-8.632v.208c.034.953.294 1.76.78 2.418.502.641 1.187.962 2.054.962 1.022 0 1.846-.399 2.47-1.196.156-.19.277-.312.364-.364.104-.052.251-.078.442-.078h2.236a.53.53 0 01.39.156.4.4 0 01.182.338c0 .416-.252.91-.754 1.482-.486.555-1.188 1.04-2.106 1.456-.919.416-1.985.624-3.198.624zm2.886-8.19v-.078c0-1.023-.26-1.846-.78-2.47-.503-.624-1.205-.936-2.106-.936-.902 0-1.604.312-2.106.936-.503.624-.754 1.447-.754 2.47v.078h5.746zM286.529 61a.602.602 0 01-.442-.182.603.603 0 01-.182-.442V43.45c0-.19.052-.347.156-.468a.633.633 0 01.468-.182h7.54c2.028 0 3.536.45 4.524 1.352 1.005.884 1.508 2.097 1.508 3.64 0 .901-.225 1.673-.676 2.314-.433.624-.945 1.075-1.534 1.352.728.33 1.335.867 1.82 1.612.503.745.754 1.595.754 2.548 0 1.612-.546 2.912-1.638 3.9-1.075.988-2.591 1.482-4.55 1.482h-7.748zm7.072-10.738c.901 0 1.586-.217 2.054-.65.468-.433.702-1.014.702-1.742 0-.745-.234-1.317-.702-1.716-.468-.416-1.153-.624-2.054-.624h-4.082v4.732h4.082zm.26 7.982c.901 0 1.603-.243 2.106-.728.503-.503.754-1.135.754-1.898 0-.78-.251-1.413-.754-1.898-.503-.503-1.205-.754-2.106-.754h-4.342v5.278h4.342zm10.076-13a.603.603 0 01-.442-.182.603.603 0 01-.182-.442v-1.872c0-.173.061-.32.182-.442a.603.603 0 01.442-.182h2.366a.6.6 0 01.442.182.565.565 0 01.208.442v1.872a.6.6 0 01-.182.442.633.633 0 01-.468.182h-2.366zM304.041 61a.603.603 0 01-.442-.182.603.603 0 01-.182-.442V48.104c0-.173.061-.32.182-.442a.603.603 0 01.442-.182h2.158c.191 0 .338.06.442.182.122.104.182.251.182.442v12.272a.6.6 0 01-.182.442c-.104.121-.251.182-.442.182h-2.158zm13.72.26c-1.786 0-3.172-.615-4.16-1.846v.962c0 .173-.061.32-.182.442-.104.121-.252.182-.442.182h-2.054a.6.6 0 01-.442-.182.6.6 0 01-.182-.442V43.164c0-.19.06-.338.182-.442a.6.6 0 01.442-.182h2.21c.19 0 .338.06.442.182.121.104.182.251.182.442v5.772c.988-1.144 2.322-1.716 4.004-1.716 1.75 0 3.094.572 4.03 1.716.936 1.144 1.438 2.626 1.508 4.446.017.208.026.485.026.832 0 .364-.009.65-.026.858-.07 1.872-.572 3.371-1.508 4.498-.936 1.127-2.28 1.69-4.03 1.69zm-.962-2.782c1.872 0 2.868-1.153 2.99-3.458.017-.173.026-.433.026-.78 0-.347-.009-.607-.026-.78-.122-2.305-1.118-3.458-2.99-3.458-.971 0-1.716.312-2.236.936-.503.607-.772 1.343-.806 2.21l-.026.988.026 1.014c.052.936.32 1.725.806 2.366.485.641 1.23.962 2.236.962zm9.939-13.234a.602.602 0 01-.442-.182.603.603 0 01-.182-.442v-1.872c0-.173.061-.32.182-.442a.602.602 0 01.442-.182h2.366a.6.6 0 01.442.182.565.565 0 01.208.442v1.872c0 .173-.061.32-.182.442a.633.633 0 01-.468.182h-2.366zM326.842 61a.602.602 0 01-.442-.182.603.603 0 01-.182-.442V48.104c0-.173.061-.32.182-.442a.602.602 0 01.442-.182H329c.191 0 .338.06.442.182.121.104.182.251.182.442v12.272c0 .173-.061.32-.182.442-.104.121-.251.182-.442.182h-2.158zm6.855 0a.603.603 0 01-.442-.182.603.603 0 01-.182-.442V48.104c0-.173.061-.32.182-.442a.603.603 0 01.442-.182h2.132a.6.6 0 01.442.182.6.6 0 01.182.442v1.066c1.023-1.3 2.47-1.95 4.342-1.95 1.595 0 2.86.529 3.796 1.586.936 1.04 1.404 2.461 1.404 4.264v7.306a.6.6 0 01-.182.442c-.104.121-.251.182-.442.182h-2.288a.603.603 0 01-.442-.182.603.603 0 01-.182-.442v-7.15c0-1.023-.251-1.811-.754-2.366-.485-.572-1.196-.858-2.132-.858-.918 0-1.646.286-2.184.858-.52.572-.78 1.36-.78 2.366v7.15a.6.6 0 01-.182.442c-.104.121-.251.182-.442.182h-2.288zm21.581.26c-2.028 0-3.597-.52-4.706-1.56-1.109-1.057-1.707-2.496-1.794-4.316l-.026-1.144.026-1.144c.087-1.803.693-3.233 1.82-4.29 1.127-1.057 2.687-1.586 4.68-1.586 1.993 0 3.553.529 4.68 1.586 1.127 1.057 1.733 2.487 1.82 4.29.017.208.026.59.026 1.144 0 .555-.009.936-.026 1.144-.087 1.82-.685 3.259-1.794 4.316-1.109 1.04-2.678 1.56-4.706 1.56zm0-2.574c.919 0 1.629-.286 2.132-.858.503-.59.78-1.447.832-2.574.017-.173.026-.511.026-1.014s-.009-.84-.026-1.014c-.052-1.127-.329-1.976-.832-2.548-.503-.59-1.213-.884-2.132-.884s-1.629.295-2.132.884c-.503.572-.78 1.421-.832 2.548l-.026 1.014.026 1.014c.052 1.127.329 1.985.832 2.574.503.572 1.213.858 2.132.858zM133.652 95a.602.602 0 01-.442-.182.603.603 0 01-.182-.442V77.45c0-.19.052-.347.156-.468a.633.633 0 01.468-.182h6.968c2.08 0 3.718.494 4.914 1.482 1.196.97 1.794 2.4 1.794 4.29 0 1.89-.598 3.32-1.794 4.29-1.179.953-2.817 1.43-4.914 1.43h-3.874v6.084c0 .173-.061.32-.182.442-.104.121-.251.182-.442.182h-2.47zm6.838-9.594c1.005 0 1.777-.234 2.314-.702.537-.485.806-1.196.806-2.132 0-.901-.26-1.603-.78-2.106-.52-.52-1.3-.78-2.34-.78h-3.796v5.72h3.796zM150.479 95a.6.6 0 01-.442-.182.6.6 0 01-.182-.442V82.13a.6.6 0 01.182-.442.565.565 0 01.442-.208h2.106c.19 0 .346.06.468.182a.635.635 0 01.182.468v1.066c.416-.555.936-.98 1.56-1.274.641-.295 1.369-.442 2.184-.442h1.066c.19 0 .338.06.442.182.121.104.182.251.182.442v1.872c0 .173-.061.32-.182.442-.104.121-.252.182-.442.182h-2.028c-.815 0-1.456.234-1.924.702-.468.468-.702 1.11-.702 1.924v7.15c0 .173-.061.32-.182.442a.636.636 0 01-.468.182h-2.262zm15.864.26c-1.924 0-3.458-.555-4.602-1.664-1.127-1.127-1.725-2.704-1.794-4.732l-.026-.65.026-.65c.086-1.976.693-3.527 1.82-4.654 1.144-1.127 2.669-1.69 4.576-1.69 2.045 0 3.622.624 4.732 1.872 1.126 1.248 1.69 2.912 1.69 4.992v.546c0 .173-.061.32-.182.442a.636.636 0 01-.468.182h-8.632v.208c.034.953.294 1.76.78 2.418.502.641 1.187.962 2.054.962 1.022 0 1.846-.399 2.47-1.196.156-.19.277-.312.364-.364.104-.052.251-.078.442-.078h2.236a.53.53 0 01.39.156.4.4 0 01.182.338c0 .416-.252.91-.754 1.482-.486.555-1.188 1.04-2.106 1.456-.919.416-1.985.624-3.198.624zm2.886-8.19v-.078c0-1.023-.26-1.846-.78-2.47-.503-.624-1.205-.936-2.106-.936-.902 0-1.604.312-2.106.936-.503.624-.754 1.447-.754 2.47v.078h5.746zm6.92 7.93a.6.6 0 01-.442-.182.6.6 0 01-.182-.442V82.104a.6.6 0 01.182-.442.6.6 0 01.442-.182h2.028a.6.6 0 01.442.182.603.603 0 01.182.442v.884c.901-1.179 2.158-1.768 3.77-1.768 1.924 0 3.267.771 4.03 2.314.416-.693 1.005-1.248 1.768-1.664a4.916 4.916 0 012.47-.65c1.421 0 2.582.485 3.484 1.456.901.97 1.352 2.383 1.352 4.238v7.462c0 .173-.061.32-.182.442-.104.121-.252.182-.442.182h-2.132a.6.6 0 01-.442-.182.6.6 0 01-.182-.442v-7.254c0-1.092-.234-1.88-.702-2.366-.451-.503-1.058-.754-1.82-.754-.676 0-1.257.251-1.742.754-.468.503-.702 1.291-.702 2.366v7.254c0 .173-.061.32-.182.442a.603.603 0 01-.442.182h-2.132a.6.6 0 01-.442-.182.6.6 0 01-.182-.442v-7.254c0-1.092-.243-1.88-.728-2.366-.468-.503-1.066-.754-1.794-.754-.694 0-1.283.251-1.768.754-.468.503-.702 1.291-.702 2.366v7.254c0 .173-.061.32-.182.442a.603.603 0 01-.442.182h-2.184zm23.357-15.756a.6.6 0 01-.442-.182.6.6 0 01-.182-.442v-1.872a.6.6 0 01.182-.442.6.6 0 01.442-.182h2.366a.6.6 0 01.442.182.568.568 0 01.208.442v1.872c0 .173-.061.32-.182.442a.636.636 0 01-.468.182h-2.366zM199.61 95a.6.6 0 01-.442-.182.6.6 0 01-.182-.442V82.104a.6.6 0 01.182-.442.6.6 0 01.442-.182h2.158c.19 0 .338.06.442.182.121.104.182.251.182.442v12.272c0 .173-.061.32-.182.442-.104.121-.252.182-.442.182h-2.158zm11.249.26c-1.595 0-2.851-.52-3.77-1.56-.919-1.057-1.378-2.487-1.378-4.29v-7.306c0-.173.061-.32.182-.442a.602.602 0 01.442-.182h2.288c.191 0 .338.06.442.182.121.104.182.251.182.442v7.15c0 2.15.945 3.224 2.834 3.224.901 0 1.612-.286 2.132-.858.537-.572.806-1.36.806-2.366v-7.15c0-.173.061-.32.182-.442a.602.602 0 01.442-.182h2.288c.191 0 .338.06.442.182.121.104.182.251.182.442v12.272c0 .173-.061.32-.182.442-.104.121-.251.182-.442.182h-2.106a.602.602 0 01-.442-.182.603.603 0 01-.182-.442V93.31c-.971 1.3-2.418 1.95-4.342 1.95zm11.754-.26a.603.603 0 01-.442-.182.603.603 0 01-.182-.442V82.104c0-.173.061-.32.182-.442a.603.603 0 01.442-.182h2.028a.6.6 0 01.442.182.6.6 0 01.182.442v.884c.902-1.179 2.158-1.768 3.77-1.768 1.924 0 3.268.771 4.03 2.314.416-.693 1.006-1.248 1.768-1.664a4.918 4.918 0 012.47-.65c1.422 0 2.583.485 3.484 1.456.902.97 1.352 2.383 1.352 4.238v7.462a.6.6 0 01-.182.442c-.104.121-.251.182-.442.182h-2.132a.603.603 0 01-.442-.182.603.603 0 01-.182-.442v-7.254c0-1.092-.234-1.88-.702-2.366-.45-.503-1.057-.754-1.82-.754-.676 0-1.256.251-1.742.754-.468.503-.702 1.291-.702 2.366v7.254a.6.6 0 01-.182.442.6.6 0 01-.442.182h-2.132a.603.603 0 01-.442-.182.603.603 0 01-.182-.442v-7.254c0-1.092-.242-1.88-.728-2.366-.468-.503-1.066-.754-1.794-.754-.693 0-1.282.251-1.768.754-.468.503-.702 1.291-.702 2.366v7.254a.6.6 0 01-.182.442.6.6 0 01-.442.182h-2.184zm29.403 0a.6.6 0 01-.442-.182.6.6 0 01-.182-.442V82.104a.6.6 0 01.182-.442.6.6 0 01.442-.182h2.028a.6.6 0 01.442.182.603.603 0 01.182.442v.884c.901-1.179 2.158-1.768 3.77-1.768 1.924 0 3.267.771 4.03 2.314.416-.693 1.005-1.248 1.768-1.664a4.916 4.916 0 012.47-.65c1.421 0 2.582.485 3.484 1.456.901.97 1.352 2.383 1.352 4.238v7.462c0 .173-.061.32-.182.442-.104.121-.252.182-.442.182h-2.132a.6.6 0 01-.442-.182.6.6 0 01-.182-.442v-7.254c0-1.092-.234-1.88-.702-2.366-.451-.503-1.058-.754-1.82-.754-.676 0-1.257.251-1.742.754-.468.503-.702 1.291-.702 2.366v7.254c0 .173-.061.32-.182.442a.603.603 0 01-.442.182h-2.132a.6.6 0 01-.442-.182.6.6 0 01-.182-.442v-7.254c0-1.092-.243-1.88-.728-2.366-.468-.503-1.066-.754-1.794-.754-.694 0-1.283.251-1.768.754-.468.503-.702 1.291-.702 2.366v7.254c0 .173-.061.32-.182.442a.603.603 0 01-.442.182h-2.184zm23.357-15.756a.6.6 0 01-.442-.182.6.6 0 01-.182-.442v-1.872a.6.6 0 01.182-.442.6.6 0 01.442-.182h2.366a.6.6 0 01.442.182.568.568 0 01.208.442v1.872c0 .173-.061.32-.182.442a.636.636 0 01-.468.182h-2.366zM275.477 95a.6.6 0 01-.442-.182.6.6 0 01-.182-.442V82.104a.6.6 0 01.182-.442.6.6 0 01.442-.182h2.158c.19 0 .338.06.442.182.121.104.182.251.182.442v12.272c0 .173-.061.32-.182.442-.104.121-.252.182-.442.182h-2.158zm12.341 0c-1.577 0-2.764-.407-3.562-1.222-.78-.832-1.17-2.045-1.17-3.64v-5.902h-2.054a.603.603 0 01-.442-.182.694.694 0 01-.182-.468v-1.482c0-.173.061-.32.182-.442a.603.603 0 01.442-.182h2.054v-4.316c0-.19.061-.338.182-.442a.603.603 0 01.442-.182h2.106c.191 0 .338.06.442.182.122.104.182.251.182.442v4.316h3.25c.191 0 .338.06.442.182.122.104.182.251.182.442v1.482a.63.63 0 01-.182.468.6.6 0 01-.442.182h-3.25v5.642c0 .745.13 1.309.39 1.69s.694.572 1.3.572h1.794a.6.6 0 01.442.182.6.6 0 01.182.442v1.612a.6.6 0 01-.182.442c-.104.121-.251.182-.442.182h-2.106zm11.056 0a.602.602 0 01-.442-.182.603.603 0 01-.182-.442V93.05c0-.468.217-.875.65-1.222l4.108-4.082c1.785-1.404 3.025-2.496 3.718-3.276.711-.797 1.066-1.577 1.066-2.34 0-.815-.225-1.456-.676-1.924-.433-.468-1.092-.702-1.976-.702-.867 0-1.551.26-2.054.78-.503.503-.815 1.161-.936 1.976a.802.802 0 01-.286.468.866.866 0 01-.468.13h-2.314a.53.53 0 01-.39-.156.499.499 0 01-.156-.364 5.957 5.957 0 01.832-2.86c.52-.901 1.274-1.62 2.262-2.158.988-.555 2.149-.832 3.484-.832 1.387 0 2.557.243 3.51.728.971.468 1.699 1.118 2.184 1.95.485.832.728 1.777.728 2.834 0 1.161-.329 2.21-.988 3.146-.641.936-1.629 1.941-2.964 3.016l-3.692 3.744h7.41c.191 0 .338.06.442.182.121.104.182.251.182.442v1.846c0 .173-.061.32-.182.442-.104.121-.251.182-.442.182h-12.428zm21.506 0a.6.6 0 01-.442-.182.6.6 0 01-.182-.442V80.908l-3.952 3.042a.552.552 0 01-.364.13c-.208 0-.382-.095-.52-.286l-1.092-1.404a.741.741 0 01-.13-.39c0-.208.095-.381.286-.52l5.824-4.498c.156-.121.372-.182.65-.182h2.288c.19 0 .338.06.442.182.121.104.182.251.182.442v16.952c0 .173-.061.32-.182.442-.104.121-.252.182-.442.182h-2.366zm15.766-9.048c-1.144 0-2.062-.303-2.756-.91-.676-.607-1.048-1.43-1.118-2.47a21.188 21.188 0 01-.026-1.17c0-.52.009-.936.026-1.248.07-1.075.434-1.924 1.092-2.548.659-.624 1.586-.936 2.782-.936s2.124.312 2.782.936c.676.624 1.04 1.473 1.092 2.548.035.693.052 1.144.052 1.352 0 .19-.017.546-.052 1.066-.052 1.04-.424 1.863-1.118 2.47-.676.607-1.594.91-2.756.91zM334.014 95a.588.588 0 01-.39-.13.53.53 0 01-.156-.39c0-.104.035-.2.104-.286l12.818-16.9a1.48 1.48 0 01.39-.364c.122-.087.286-.13.494-.13h1.378c.174 0 .304.052.39.156a.448.448 0 01.156.364c0 .104-.034.2-.104.286l-12.818 16.9a2.021 2.021 0 01-.39.39c-.121.07-.286.104-.494.104h-1.378zm2.132-10.972c.503 0 .876-.147 1.118-.442.243-.312.382-.693.416-1.144.035-.59.052-.953.052-1.092 0-.19-.017-.546-.052-1.066-.017-.45-.156-.823-.416-1.118-.242-.312-.615-.468-1.118-.468-.502 0-.875.156-1.118.468-.242.295-.372.667-.39 1.118-.017.26-.026.615-.026 1.066 0 .433.009.797.026 1.092.035.45.165.832.39 1.144.243.295.616.442 1.118.442zm10.374 11.128c-1.144 0-2.062-.312-2.756-.936-.676-.641-1.048-1.49-1.118-2.548a21.188 21.188 0 01-.026-1.17c0-.503.009-.91.026-1.222.07-1.075.434-1.924 1.092-2.548.659-.624 1.586-.936 2.782-.936s2.124.312 2.782.936c.676.624 1.04 1.473 1.092 2.548.035.693.052 1.135.052 1.326 0 .19-.017.546-.052 1.066-.069 1.057-.45 1.907-1.144 2.548-.676.624-1.586.936-2.73.936zm0-2.028c.52 0 .893-.147 1.118-.442.243-.312.382-.685.416-1.118.035-.59.052-.953.052-1.092 0-.19-.017-.546-.052-1.066-.017-.45-.156-.832-.416-1.144-.242-.312-.615-.468-1.118-.468-.502 0-.875.156-1.118.468-.242.295-.381.676-.416 1.144-.017.26-.026.615-.026 1.066 0 .433.009.797.026 1.092.052.45.191.823.416 1.118.243.295.616.442 1.118.442zM359.824 95a.603.603 0 01-.442-.182.603.603 0 01-.182-.442V82.13c0-.173.061-.32.182-.442a.568.568 0 01.442-.208h2.106a.63.63 0 01.468.182.63.63 0 01.182.468v1.066c.416-.555.936-.98 1.56-1.274.642-.295 1.37-.442 2.184-.442h1.066c.191 0 .338.06.442.182.122.104.182.251.182.442v1.872a.6.6 0 01-.182.442c-.104.121-.251.182-.442.182h-2.028c-.814 0-1.456.234-1.924.702-.468.468-.702 1.11-.702 1.924v7.15a.6.6 0 01-.182.442.633.633 0 01-.468.182h-2.262zm13.941.26a5.722 5.722 0 01-2.444-.52c-.728-.364-1.309-.85-1.742-1.456a3.464 3.464 0 01-.624-2.002c0-1.179.477-2.132 1.43-2.86.953-.728 2.262-1.222 3.926-1.482l3.562-.52v-.546c0-.763-.191-1.335-.572-1.716-.381-.381-.997-.572-1.846-.572-.572 0-1.04.113-1.404.338a4.311 4.311 0 00-.832.624c-.208.225-.347.373-.416.442-.069.208-.199.312-.39.312h-2.002a.62.62 0 01-.416-.156.562.562 0 01-.156-.416c.017-.433.225-.927.624-1.482.416-.555 1.049-1.031 1.898-1.43s1.889-.598 3.12-.598c2.045 0 3.536.46 4.472 1.378.936.919 1.404 2.123 1.404 3.614v8.164c0 .173-.061.32-.182.442-.104.121-.251.182-.442.182h-2.106a.602.602 0 01-.442-.182.603.603 0 01-.182-.442v-1.014c-.381.555-.927 1.014-1.638 1.378-.693.347-1.56.52-2.6.52zm.884-2.47c.953 0 1.733-.312 2.34-.936.607-.624.91-1.534.91-2.73v-.546l-2.6.416c-1.005.156-1.768.407-2.288.754-.503.347-.754.771-.754 1.274 0 .555.234.988.702 1.3.468.312 1.031.468 1.69.468zm17.532 2.47c-1.786 0-3.172-.615-4.16-1.846v.962c0 .173-.061.32-.182.442-.104.121-.252.182-.442.182h-2.054a.6.6 0 01-.442-.182.6.6 0 01-.182-.442V77.164c0-.19.06-.338.182-.442a.6.6 0 01.442-.182h2.21c.19 0 .338.06.442.182.121.104.182.251.182.442v5.772c.988-1.144 2.322-1.716 4.004-1.716 1.75 0 3.094.572 4.03 1.716.936 1.144 1.438 2.626 1.508 4.446.017.208.026.485.026.832 0 .364-.009.65-.026.858-.07 1.872-.572 3.371-1.508 4.498-.936 1.127-2.28 1.69-4.03 1.69zm-.962-2.782c1.872 0 2.868-1.153 2.99-3.458.017-.173.026-.433.026-.78 0-.347-.009-.607-.026-.78-.122-2.305-1.118-3.458-2.99-3.458-.971 0-1.716.312-2.236.936-.503.607-.772 1.343-.806 2.21l-.026.988.026 1.014c.052.936.32 1.725.806 2.366.485.641 1.23.962 2.236.962zm13.345 2.782a5.722 5.722 0 01-2.444-.52c-.728-.364-1.309-.85-1.742-1.456a3.464 3.464 0 01-.624-2.002c0-1.179.477-2.132 1.43-2.86.953-.728 2.262-1.222 3.926-1.482l3.562-.52v-.546c0-.763-.191-1.335-.572-1.716-.381-.381-.997-.572-1.846-.572-.572 0-1.04.113-1.404.338a4.311 4.311 0 00-.832.624c-.208.225-.347.373-.416.442-.069.208-.199.312-.39.312h-2.002a.62.62 0 01-.416-.156.562.562 0 01-.156-.416c.017-.433.225-.927.624-1.482.416-.555 1.049-1.031 1.898-1.43s1.889-.598 3.12-.598c2.045 0 3.536.46 4.472 1.378.936.919 1.404 2.123 1.404 3.614v8.164c0 .173-.061.32-.182.442-.104.121-.251.182-.442.182h-2.106a.602.602 0 01-.442-.182.603.603 0 01-.182-.442v-1.014c-.381.555-.927 1.014-1.638 1.378-.693.347-1.56.52-2.6.52zm.884-2.47c.953 0 1.733-.312 2.34-.936.607-.624.91-1.534.91-2.73v-.546l-2.6.416c-1.005.156-1.768.407-2.288.754-.503.347-.754.771-.754 1.274 0 .555.234.988.702 1.3.468.312 1.031.468 1.69.468zM421.474 95c-1.577 0-2.764-.407-3.562-1.222-.78-.832-1.17-2.045-1.17-3.64v-5.902h-2.054a.603.603 0 01-.442-.182.694.694 0 01-.182-.468v-1.482c0-.173.061-.32.182-.442a.603.603 0 01.442-.182h2.054v-4.316c0-.19.061-.338.182-.442a.603.603 0 01.442-.182h2.106c.191 0 .338.06.442.182.122.104.182.251.182.442v4.316h3.25c.191 0 .338.06.442.182.122.104.182.251.182.442v1.482a.63.63 0 01-.182.468.6.6 0 01-.442.182h-3.25v5.642c0 .745.13 1.309.39 1.69s.694.572 1.3.572h1.794a.6.6 0 01.442.182.6.6 0 01.182.442v1.612a.6.6 0 01-.182.442c-.104.121-.251.182-.442.182h-2.106zm11.147 0c-1.577 0-2.765-.407-3.562-1.222-.78-.832-1.17-2.045-1.17-3.64v-5.902h-2.054a.602.602 0 01-.442-.182.694.694 0 01-.182-.468v-1.482c0-.173.061-.32.182-.442a.602.602 0 01.442-.182h2.054v-4.316c0-.19.061-.338.182-.442a.602.602 0 01.442-.182h2.106c.191 0 .338.06.442.182.121.104.182.251.182.442v4.316h3.25c.191 0 .338.06.442.182.121.104.182.251.182.442v1.482c0 .19-.061.347-.182.468a.602.602 0 01-.442.182h-3.25v5.642c0 .745.13 1.309.39 1.69s.693.572 1.3.572h1.794a.6.6 0 01.442.182.603.603 0 01.182.442v1.612c0 .173-.061.32-.182.442-.104.121-.251.182-.442.182h-2.106z" fill="#fff"/>
  <path d="M455 63l7 7-7 7" stroke="#fff" stroke-width="3" stroke-linecap="round"/>
  <defs>
    <clipPath id="giftcard-banner-de__clip0">
      <path fill="#fff" d="M0 0h487v140H0z"/>
    </clipPath>
  </defs>
</svg>
