<svg width="487" height="140" fill="none" xmlns="http://www.w3.org/2000/svg">
  <g clip-path="url(#giftcard-banner-cs__clip0)">
    <path fill="#FF416F" d="M0 0h487v140H0z"/>
    <path fill-rule="evenodd" clip-rule="evenodd" d="M473 34zm-.457.11a.993.993 0 00-.277.211l-.001.002a.982.982 0 00-.086.107l-9.993 13.989a1 1 0 001.549 1.26l.079-.098L472 38.121v8.559l-9.814 13.739a1 1 0 001.549 1.26l.079-.098L472 50.121V68l.007.116A1 1 0 00474 68V50.12l8.186 11.461.08.098a1 1 0 001.548-1.26L474 46.679V38.12l8.186 11.461.08.098a1 1 0 001.548-1.26l-9.987-13.981M495-9zm-.457.11a.993.993 0 00-.277.211l-.001.002a.981.981 0 00-.086.107l-9.993 13.989a1 1 0 001.549 1.26l.079-.098L494-4.879V3.68l-9.814 13.739a1 1 0 001.549 1.26l.079-.098L494 7.121V25l.007.116A1 1 0 00496 25V7.12l8.186 11.461.08.098a1 1 0 001.548-1.26L496 3.679v-8.558l8.186 11.46.08.098a1 1 0 001.548-1.26l-9.987-13.981M449-9zm-.457.11a.993.993 0 00-.277.211l-.001.002a.981.981 0 00-.086.107l-9.993 13.989a1 1 0 001.549 1.26l.079-.098L448-4.879V3.68l-9.814 13.739a1 1 0 001.549 1.26l.079-.098L448 7.121V25l.007.116A1 1 0 00450 25V7.12l8.186 11.461.08.098a1 1 0 001.548-1.26L450 3.679v-8.558l8.186 11.46.08.098a1 1 0 001.548-1.26l-9.987-13.981M403-9zm-.457.11a.993.993 0 00-.277.211l-.001.002a.981.981 0 00-.086.107l-9.993 13.989a1 1 0 001.549 1.26l.079-.098L402-4.879V3.68l-9.814 13.739a1 1 0 001.549 1.26l.079-.098L402 7.121V25l.007.116A1 1 0 00404 25V7.12l8.186 11.461.08.098a1 1 0 001.548-1.26L404 3.679v-8.558l8.186 11.46.08.098a1 1 0 001.548-1.26l-9.987-13.981M381 34zm-.457.11a.993.993 0 00-.277.211l-.001.002a.982.982 0 00-.086.107l-9.993 13.989a1 1 0 001.549 1.26l.079-.098L380 38.121v8.559l-9.814 13.739a1 1 0 001.549 1.26l.079-.098L380 50.121V68l.007.116A1 1 0 00382 68V50.12l8.186 11.461.08.098a1 1 0 001.548-1.26L382 46.679V38.12l8.186 11.461.08.098a1 1 0 001.548-1.26l-9.987-13.981M339 33zm-.457.11a.993.993 0 00-.277.211l-.001.002a.982.982 0 00-.086.107l-9.993 13.989a1 1 0 001.549 1.26l.079-.098L338 37.121v8.559l-9.814 13.739a1 1 0 001.549 1.26l.079-.098L338 49.121V67l.007.116A1 1 0 00340 67V49.12l8.186 11.461.08.098a1 1 0 001.548-1.26L340 45.679V37.12l8.186 11.461.08.098a1 1 0 001.548-1.26l-9.987-13.981M425 34zm-.457.11a.993.993 0 00-.277.211l-.001.002a.982.982 0 00-.086.107l-9.993 13.989a1 1 0 001.549 1.26l.079-.098L424 38.121v8.559l-9.814 13.739a1 1 0 001.549 1.26l.079-.098L424 50.121V68l.007.116A1 1 0 00426 68V50.12l8.186 11.461.08.098a1 1 0 001.548-1.26L426 46.679V38.12l8.186 11.461.08.098a1 1 0 001.548-1.26l-9.987-13.981M357-9zm-.457.11a.993.993 0 00-.277.211l-.001.002a.981.981 0 00-.086.107l-9.993 13.989a1 1 0 001.549 1.26l.079-.098L356-4.879V3.68l-9.814 13.739a1 1 0 001.549 1.26l.079-.098L356 7.121V25l.007.116A1 1 0 00358 25V7.12l8.186 11.461.08.098a1 1 0 001.548-1.26L358 3.679v-8.558l8.186 11.46.08.098a1 1 0 001.548-1.26l-9.987-13.981M473 119a.993.993 0 01.061.002L473 119zm-.457.111a.981.981 0 00-.277.21l-.001.002a.895.895 0 00-.086.107l-9.993 13.989a1 1 0 001.549 1.26l.079-.098 8.186-11.46v8.559l-9.814 13.739a1 1 0 001.549 1.26l.079-.098 8.186-11.46V153l.007.117A1 1 0 00474 153v-17.879l8.186 11.46.08.098a1 1 0 001.548-1.26L474 131.68v-8.559l8.186 11.46.08.098a1 1 0 001.548-1.26l-9.987-13.981M427 119a.993.993 0 01.061.002L427 119zm-.457.111a.981.981 0 00-.277.21l-.001.002a.895.895 0 00-.086.107l-9.993 13.989a1 1 0 001.549 1.26l.079-.098 8.186-11.46v8.559l-9.814 13.739a1 1 0 001.549 1.26l.079-.098 8.186-11.46V153l.007.117A1 1 0 00428 153v-17.879l8.186 11.46.08.098a1 1 0 001.548-1.26L428 131.68v-8.559l8.186 11.46.08.098a1 1 0 001.548-1.26l-9.987-13.981M381 119a.993.993 0 01.061.002L381 119zm-.457.111a.981.981 0 00-.277.21l-.001.002a.895.895 0 00-.086.107l-9.993 13.989a1 1 0 001.549 1.26l.079-.098 8.186-11.46v8.559l-9.814 13.739a1 1 0 001.549 1.26l.079-.098 8.186-11.46V153l.007.117A1 1 0 00382 153v-17.879l8.186 11.46.08.098a1 1 0 001.548-1.26L382 131.68v-8.559l8.186 11.46.08.098a1 1 0 001.548-1.26l-9.987-13.981M335 119a.993.993 0 01.061.002L335 119zm-.457.111a.981.981 0 00-.277.21l-.001.002a.895.895 0 00-.086.107l-9.993 13.989a1 1 0 001.549 1.26l.079-.098 8.186-11.46v8.559l-9.814 13.739a1 1 0 001.549 1.26l.079-.098 8.186-11.46V153l.007.117A1 1 0 00336 153v-17.879l8.186 11.46.08.098a1 1 0 001.548-1.26L336 131.68v-8.559l8.186 11.46.08.098a1 1 0 001.548-1.26l-9.987-13.981M495 76zm-.457.11a.993.993 0 00-.277.211l-.001.002a.982.982 0 00-.086.107l-9.993 13.989a1 1 0 001.549 1.26l.079-.098L494 80.121v8.559l-9.814 13.739a1 1 0 001.549 1.26l.079-.098L494 92.121V110l.007.117A1 1 0 00496 110V92.12l8.186 11.461.08.098a1 1 0 001.548-1.26L496 88.679v-8.558l8.186 11.46.08.098a1 1 0 001.548-1.26l-9.987-13.981M449 76zm-.457.11a.993.993 0 00-.277.211l-.001.002a.982.982 0 00-.086.107l-9.993 13.989a1 1 0 001.549 1.26l.079-.098L448 80.121v8.559l-9.814 13.739a1 1 0 001.549 1.26l.079-.098L448 92.121V110l.007.117A1 1 0 00450 110V92.12l8.186 11.461.08.098a1 1 0 001.548-1.26L450 88.679v-8.558l8.186 11.46.08.098a1 1 0 001.548-1.26l-9.987-13.981M403 76zm-.457.11a.993.993 0 00-.277.211l-.001.002a.982.982 0 00-.086.107l-9.993 13.989a1 1 0 001.549 1.26l.079-.098L402 80.121v8.559l-9.814 13.739a1 1 0 001.549 1.26l.079-.098L402 92.121V110l.007.117A1 1 0 00404 110V92.12l8.186 11.461.08.098a1 1 0 001.548-1.26L404 88.679v-8.558l8.186 11.46.08.098a1 1 0 001.548-1.26l-9.987-13.981M357 76zm-.457.11a.993.993 0 00-.277.211l-.001.002a.982.982 0 00-.086.107l-9.993 13.989a1 1 0 001.549 1.26l.079-.098L356 80.121v8.559l-9.814 13.739a1 1 0 001.549 1.26l.079-.098L356 92.121V110l.007.117A1 1 0 00358 110V92.12l8.186 11.461.08.098a1 1 0 001.548-1.26L358 88.679v-8.558l8.186 11.46.08.098a1 1 0 001.548-1.26l-9.987-13.981M317-9zm-.457.11a.993.993 0 00-.277.211l-.001.002a.981.981 0 00-.086.107l-9.993 13.989a1 1 0 001.549 1.26l.079-.098L316-4.879V3.68l-9.814 13.739a1 1 0 001.549 1.26l.079-.098L316 7.121V25l.007.116A1 1 0 00318 25V7.12l8.186 11.461.08.098a1 1 0 001.548-1.26L318 3.679v-8.558l8.186 11.46.08.098a1 1 0 001.548-1.26l-9.987-13.981M271-9zm-.457.11a.993.993 0 00-.277.211l-.001.002a.981.981 0 00-.086.107l-9.993 13.989a1 1 0 001.549 1.26l.079-.098L270-4.879V3.68l-9.814 13.739a1 1 0 001.549 1.26l.079-.098L270 7.121V25l.007.116A1 1 0 00272 25V7.12l8.186 11.461.08.098a1 1 0 001.548-1.26L272 3.679v-8.558l8.186 11.46.08.098a1 1 0 001.548-1.26l-9.987-13.981M225-9zm-.457.11a.993.993 0 00-.277.211l-.001.002a.981.981 0 00-.086.107l-9.993 13.989a1 1 0 001.549 1.26l.079-.098L224-4.879V3.68l-9.814 13.739a1 1 0 001.549 1.26l.079-.098L224 7.121V25l.007.116A1 1 0 00226 25V7.12l8.186 11.461.08.098a1 1 0 001.548-1.26L226 3.679v-8.558l8.186 11.46.08.098a1 1 0 001.548-1.26l-9.987-13.981M179-9zm-.457.11a.993.993 0 00-.277.211l-.001.002a.981.981 0 00-.086.107l-9.993 13.989a1 1 0 001.549 1.26l.079-.098L178-4.879V3.68l-9.814 13.739a1 1 0 001.549 1.26l.079-.098L178 7.121V25l.007.116A1 1 0 00180 25V7.12l8.186 11.461.08.098a1 1 0 001.548-1.26L180 3.679v-8.558l8.186 11.46.08.098a1 1 0 001.548-1.26l-9.987-13.981M295 119a.993.993 0 01.061.002L295 119zm-.457.111a.981.981 0 00-.277.21l-.001.002a.895.895 0 00-.086.107l-9.993 13.989a1 1 0 001.549 1.26l.079-.098 8.186-11.46v8.559l-9.814 13.739a1 1 0 001.549 1.26l.079-.098 8.186-11.46V153l.007.117A1 1 0 00296 153v-17.879l8.186 11.46.08.098a1 1 0 001.548-1.26L296 131.68v-8.559l8.186 11.46.08.098a1 1 0 001.548-1.26l-9.987-13.981M249 119a.993.993 0 01.061.002L249 119zm-.457.111a.981.981 0 00-.277.21l-.001.002a.895.895 0 00-.086.107l-9.993 13.989a1 1 0 001.549 1.26l.079-.098 8.186-11.46v8.559l-9.814 13.739a1 1 0 001.549 1.26l.079-.098 8.186-11.46V153l.007.117A1 1 0 00250 153v-17.879l8.186 11.46.08.098a1 1 0 001.548-1.26L250 131.68v-8.559l8.186 11.46.08.098a1 1 0 001.548-1.26l-9.987-13.981M203 119a.993.993 0 01.061.002L203 119zm-.457.111a.981.981 0 00-.277.21l-.001.002a.895.895 0 00-.086.107l-9.993 13.989a1 1 0 001.549 1.26l.079-.098 8.186-11.46v8.559l-9.814 13.739a1 1 0 001.549 1.26l.079-.098 8.186-11.46V153l.007.117A1 1 0 00204 153v-17.879l8.186 11.46.08.098a1 1 0 001.548-1.26L204 131.68v-8.559l8.186 11.46.08.098a1 1 0 001.548-1.26l-9.987-13.981M157 119a.993.993 0 01.061.002L157 119zm-.457.111a.981.981 0 00-.277.21l-.001.002a.895.895 0 00-.086.107l-9.993 13.989a1 1 0 001.549 1.26l.079-.098 8.186-11.46v8.559l-9.814 13.739a1 1 0 001.549 1.26l.079-.098 8.186-11.46V153l.007.117A1 1 0 00158 153v-17.879l8.186 11.46.08.098a1 1 0 001.548-1.26L158 131.68v-8.559l8.186 11.46.08.098a1 1 0 001.548-1.26l-9.987-13.981M16 34zm-.457.11a.993.993 0 00-.277.211l-.001.002a.895.895 0 00-.086.107L5.186 48.419a1 1 0 001.549 1.26l.079-.098L15 38.121v8.559L5.186 60.419a1 1 0 001.549 1.26l.079-.098L15 50.121V68l.007.116A1 1 0 0017 68V50.12l8.186 11.461.08.098a1 1 0 001.548-1.26L17 46.679V38.12l8.186 11.461.08.098a1 1 0 001.548-1.26l-9.987-13.981M130-9zm-.457.11a.993.993 0 00-.277.211l-.001.002a.981.981 0 00-.086.107l-9.993 13.989a1 1 0 001.549 1.26l.079-.098L129-4.879V3.68l-9.814 13.739a1 1 0 001.549 1.26l.079-.098L129 7.121V25l.007.116A1 1 0 00131 25V7.12l8.186 11.461.08.098a1 1 0 001.548-1.26L131 3.679v-8.558l8.186 11.46.08.098a1 1 0 001.548-1.26l-9.987-13.981M84-9zm-.457.11a.992.992 0 00-.277.211l-.001.002a.895.895 0 00-.086.107L73.186 5.419a1 1 0 001.549 1.26l.079-.098L83-4.879V3.68l-9.814 13.739a1 1 0 001.549 1.26l.079-.098L83 7.121V25l.007.116A1 1 0 0085 25V7.12l8.186 11.461.08.098a1 1 0 001.548-1.26L85 3.679v-8.558l8.186 11.46.08.098a1 1 0 001.548-1.26L84.827-8.562M38-9zm-.457.11a.992.992 0 00-.277.211l-.001.002a.895.895 0 00-.086.107L27.186 5.419a1 1 0 001.549 1.26l.079-.098L37-4.879V3.68l-9.814 13.739a1 1 0 001.549 1.26l.079-.098L37 7.121V25l.007.116A1 1 0 0039 25V7.12l8.186 11.461.08.098a1 1 0 001.548-1.26L39 3.679v-8.558l8.186 11.46.08.098a1 1 0 001.548-1.26L38.827-8.562M-8-9zm-.457.11a.993.993 0 00-.277.211l-.001.002a.895.895 0 00-.086.107l-9.993 13.989a1 1 0 001.549 1.26l.079-.098L-9-4.879V3.68l-9.814 13.739a1 1 0 001.549 1.26l.079-.098L-9 7.121V25l.007.116A1 1 0 00-7 25V7.12l8.186 11.461.08.098a1 1 0 001.548-1.26L-7 3.679v-8.558L1.186 6.58l.08.098a1 1 0 001.548-1.26l-9.987-13.98M108 119a.993.993 0 01.061.002L108 119zm-.457.111a.981.981 0 00-.277.21l-.001.002a.895.895 0 00-.086.107l-9.993 13.989a1 1 0 001.549 1.26l.079-.098 8.186-11.46v8.559l-9.814 13.739a1 1 0 001.549 1.26l.079-.098 8.186-11.46V153l.007.117A1 1 0 00109 153v-17.879l8.186 11.46.08.098a1 1 0 001.548-1.26L109 131.68v-8.559l8.186 11.46.08.098a1 1 0 001.548-1.26l-9.987-13.981M62 119a.996.996 0 01.061.002l-.06-.002zm-.457.111a.98.98 0 00-.277.21l-.001.002a.915.915 0 00-.086.107l-9.993 13.989a1 1 0 001.549 1.26l.079-.098L61 123.121v8.559l-9.814 13.739a1 1 0 001.549 1.26l.079-.098L61 135.121V153l.007.117A1 1 0 0063 153v-17.879l8.186 11.46.08.098a1 1 0 001.548-1.26L63 131.68v-8.559l8.186 11.46.08.098a1 1 0 001.548-1.26l-9.987-13.981M16 119a.996.996 0 01.061.002l-.06-.002zm-.457.111a.98.98 0 00-.277.21l-.001.002a.915.915 0 00-.086.107l-9.993 13.989a1 1 0 001.549 1.26l.079-.098L15 123.121v8.559l-9.814 13.739a1 1 0 001.549 1.26l.079-.098L15 135.121V153l.007.117A1 1 0 0017 153v-17.879l8.186 11.46.08.098a1 1 0 001.548-1.26L17 131.68v-8.559l8.186 11.46.08.098a1 1 0 001.548-1.26l-9.987-13.981M130 76zm-.457.11a.993.993 0 00-.277.211l-.001.002a.982.982 0 00-.086.107l-9.993 13.989a1 1 0 001.549 1.26l.079-.098L129 80.121v8.559l-9.814 13.739a1 1 0 001.549 1.26l.079-.098L129 92.121V110l.007.117A1 1 0 00131 110V92.12l8.186 11.461.08.098a1 1 0 001.548-1.26L131 88.679v-8.558l8.186 11.46.08.098a1 1 0 001.548-1.26l-9.987-13.981M84 76zm-.457.11a.993.993 0 00-.277.211l-.001.002a.895.895 0 00-.086.107l-9.993 13.989a1 1 0 001.549 1.26l.079-.098L83 80.121v8.559l-9.814 13.739a1 1 0 001.549 1.26l.079-.098L83 92.121V110l.007.117A1 1 0 0085 110V92.12l8.186 11.461.08.098a1 1 0 001.548-1.26L85 88.679v-8.558l8.186 11.46.08.098a1 1 0 001.548-1.26l-9.987-13.981M38 76zm-.457.11a.993.993 0 00-.277.211l-.001.002a.895.895 0 00-.086.107l-9.993 13.989a1 1 0 001.549 1.26l.079-.098L37 80.121v8.559l-9.814 13.739a1 1 0 001.549 1.26l.079-.098L37 92.121V110l.007.117A1 1 0 0039 110V92.12l8.186 11.461.08.098a1 1 0 001.548-1.26L39 88.679v-8.558l8.186 11.46.08.098a1 1 0 001.548-1.26l-9.987-13.981M-8 76zm-.457.11a.994.994 0 00-.277.211l-.001.002a.895.895 0 00-.086.107l-9.993 13.989a1 1 0 001.549 1.26l.079-.098L-9 80.121v8.559l-9.814 13.739a1 1 0 001.549 1.26l.079-.098L-9 92.121V110l.007.117A1 1 0 00-7 110V92.12l8.186 11.461.08.098a1.001 1.001 0 001.548-1.26L-7 88.679v-8.558l8.186 11.46.08.098a1 1 0 001.548-1.26l-9.987-13.981" fill="#000" fill-opacity=".12"/>
    <path clip-rule="evenodd" d="M69.02 55.572s19.495-4.061 22.744-12.455c3.249-8.393-3.016-17.344-10.83-13.808-7.815 3.536-11.914 26.263-11.914 26.263zm-.204 0S49.32 51.511 46.072 43.117c-3.249-8.393 3.015-17.344 10.83-13.808 7.815 3.536 11.913 26.263 11.913 26.263z" stroke="#FAB500" stroke-width="7.581"/>
    <circle cx="69.025" cy="52.864" r="5.415" fill="#FFD465"/>
    <path d="M34.416 58.403a2.166 2.166 0 012.158-2.294L97 56l-3 55-54.465-.187a2.166 2.166 0 01-2.155-2.039l-2.964-50.371z" fill="#2AA598"/>
    <path d="M109.442 58.362a2.166 2.166 0 00-2.146-2.267L95.996 56l-2 55 10.964-.164a2.165 2.165 0 002.131-2.065l2.351-50.41z" fill="#259287"/>
    <path fill="#FAB500" d="M62.609 56.114h10.289v54.692H62.609z"/>
    <path d="M34.941 70h74.057l-.283 4H35.239l-.298-4z" fill="#000" fill-opacity=".14"/>
  </g>
  <path d="M136.856 63a.648.648 0 01-.476-.196.647.647 0 01-.196-.476V44.1c0-.205.056-.373.168-.504a.683.683 0 01.504-.196h6.832c5.488 0 8.288 2.539 8.4 7.616.037 1.083.056 1.81.056 2.184 0 .355-.019 1.073-.056 2.156-.075 2.613-.775 4.545-2.1 5.796-1.325 1.232-3.379 1.848-6.16 1.848h-6.972zm6.832-3.22c1.568 0 2.697-.345 3.388-1.036.691-.71 1.055-1.867 1.092-3.472.037-1.12.056-1.82.056-2.1 0-.299-.019-.99-.056-2.072-.037-1.53-.429-2.66-1.176-3.388-.728-.728-1.876-1.092-3.444-1.092h-3.472v13.16h3.612zm16.076 3.5c-.952 0-1.83-.187-2.632-.56-.784-.392-1.41-.915-1.876-1.568a3.73 3.73 0 01-.672-2.156c0-1.27.513-2.296 1.54-3.08 1.026-.784 2.436-1.316 4.228-1.596l3.836-.56v-.588c0-.821-.206-1.437-.616-1.848-.411-.41-1.074-.616-1.988-.616-.616 0-1.12.121-1.512.364a4.633 4.633 0 00-.896.672c-.224.243-.374.401-.448.476-.075.224-.215.336-.42.336h-2.156a.668.668 0 01-.448-.168.606.606 0 01-.169-.448c.019-.467.243-.999.673-1.596.448-.597 1.129-1.11 2.044-1.54.914-.43 2.034-.644 3.36-.644 2.202 0 3.808.495 4.816 1.484 1.008.99 1.512 2.287 1.512 3.892v8.792a.65.65 0 01-.196.476c-.112.13-.271.196-.476.196H165a.646.646 0 01-.476-.196.647.647 0 01-.196-.476v-1.092c-.411.597-.999 1.092-1.764 1.484-.747.373-1.68.56-2.8.56zm.952-2.66c1.026 0 1.866-.336 2.52-1.008.653-.672.98-1.652.98-2.94v-.588l-2.8.448c-1.083.168-1.904.439-2.464.812-.542.373-.812.83-.812 1.372 0 .597.252 1.064.756 1.4.504.336 1.11.504 1.82.504zM172.204 63a.646.646 0 01-.476-.196.647.647 0 01-.196-.476V49.14c0-.187.065-.345.196-.476a.609.609 0 01.476-.224h2.268c.205 0 .373.065.504.196.13.13.196.299.196.504v1.148a4.441 4.441 0 011.68-1.372c.69-.317 1.474-.476 2.352-.476h1.148c.205 0 .364.065.476.196.13.112.196.27.196.476v2.016a.65.65 0 01-.196.476c-.112.13-.271.196-.476.196h-2.184c-.878 0-1.568.252-2.072.756s-.756 1.195-.756 2.072v7.7a.65.65 0 01-.196.476.683.683 0 01-.504.196h-2.436zm16.407.28c-1.717 0-3.07-.56-4.06-1.68-.989-1.139-1.484-2.679-1.484-4.62v-7.868a.65.65 0 01.196-.476.65.65 0 01.476-.196h2.464c.206 0 .364.065.476.196.131.112.196.27.196.476v7.7c0 2.315 1.018 3.472 3.052 3.472.971 0 1.736-.308 2.296-.924.579-.616.868-1.465.868-2.548v-7.7a.65.65 0 01.196-.476.65.65 0 01.476-.196h2.464c.206 0 .364.065.476.196.131.112.196.27.196.476v13.216a.647.647 0 01-.196.476c-.112.13-.27.196-.476.196h-2.268a.65.65 0 01-.476-.196.65.65 0 01-.196-.476V61.18c-1.045 1.4-2.604 2.1-4.676 2.1zm12.855-17.248a.648.648 0 01-.476-.196.647.647 0 01-.196-.476v-2.016c0-.187.065-.345.196-.476a.648.648 0 01.476-.196h2.632c.187 0 .345.065.476.196.149.13.224.29.224.476v2.016a.647.647 0 01-.196.476.683.683 0 01-.504.196h-2.632zM198.19 68.32c-.205 0-.364-.065-.476-.196-.131-.112-.196-.27-.196-.476v-1.596c0-.205.065-.373.196-.504a.648.648 0 01.476-.196h.728c.784 0 1.307-.205 1.568-.616.28-.392.42-.98.42-1.764v-13.86c0-.205.065-.364.196-.476a.648.648 0 01.476-.196h2.436c.187 0 .345.065.476.196.131.13.196.29.196.476v13.916c0 1.68-.457 2.977-1.372 3.892-.896.933-2.249 1.4-4.06 1.4h-1.064zM214.998 63c-1.698 0-2.977-.439-3.836-1.316-.84-.896-1.26-2.203-1.26-3.92v-6.356h-2.212a.65.65 0 01-.476-.196.749.749 0 01-.196-.504v-1.596a.65.65 0 01.196-.476.65.65 0 01.476-.196h2.212v-4.648c0-.205.066-.364.196-.476a.65.65 0 01.476-.196h2.268c.206 0 .364.065.476.196.131.112.196.27.196.476v4.648h3.5c.206 0 .364.065.476.196.131.112.196.27.196.476v1.596a.681.681 0 01-.196.504.646.646 0 01-.476.196h-3.5v6.076c0 .803.14 1.41.42 1.82.28.41.747.616 1.4.616h1.932c.187 0 .346.065.476.196.131.13.196.29.196.476v1.736a.647.647 0 01-.196.476c-.112.13-.27.196-.476.196h-2.268zm11.696.28c-2.072 0-3.724-.597-4.956-1.792-1.213-1.213-1.857-2.912-1.932-5.096l-.028-.7.028-.7c.094-2.128.747-3.799 1.96-5.012 1.232-1.213 2.875-1.82 4.928-1.82 2.203 0 3.902.672 5.096 2.016 1.214 1.344 1.82 3.136 1.82 5.376v.588a.647.647 0 01-.196.476.68.68 0 01-.504.196h-9.296v.224c.038 1.027.318 1.895.84 2.604.542.69 1.279 1.036 2.212 1.036 1.102 0 1.988-.43 2.66-1.288.168-.205.299-.336.392-.392.112-.056.271-.084.476-.084h2.408a.57.57 0 01.42.168.428.428 0 01.196.364c0 .448-.27.98-.812 1.596-.522.597-1.278 1.12-2.268 1.568-.989.448-2.137.672-3.444.672zm3.108-8.82v-.084c0-1.101-.28-1.988-.84-2.66-.541-.672-1.297-1.008-2.268-1.008-.97 0-1.726.336-2.268 1.008-.541.672-.812 1.559-.812 2.66v.084h6.188zM243.989 63a.646.646 0 01-.476-.196.647.647 0 01-.196-.476V44.1c0-.205.056-.373.168-.504a.68.68 0 01.504-.196h8.12c2.184 0 3.808.485 4.872 1.456 1.082.952 1.624 2.259 1.624 3.92 0 .97-.243 1.801-.728 2.492-.467.672-1.018 1.157-1.652 1.456.784.355 1.437.933 1.96 1.736.541.803.812 1.717.812 2.744 0 1.736-.588 3.136-1.764 4.2-1.158 1.064-2.791 1.596-4.9 1.596h-8.344zm7.616-11.564c.97 0 1.708-.233 2.212-.7.504-.467.756-1.092.756-1.876 0-.803-.252-1.419-.756-1.848-.504-.448-1.242-.672-2.212-.672h-4.396v5.096h4.396zm.28 8.596c.97 0 1.726-.261 2.268-.784.541-.541.812-1.223.812-2.044 0-.84-.271-1.521-.812-2.044-.542-.541-1.298-.812-2.268-.812h-4.676v5.684h4.676zm10.851-14a.648.648 0 01-.476-.196.647.647 0 01-.196-.476v-2.016c0-.187.065-.345.196-.476a.648.648 0 01.476-.196h2.548c.187 0 .345.065.476.196.149.13.224.29.224.476v2.016a.647.647 0 01-.196.476.683.683 0 01-.504.196h-2.548zM262.848 63a.648.648 0 01-.476-.196.647.647 0 01-.196-.476V49.112c0-.187.065-.345.196-.476a.648.648 0 01.476-.196h2.324c.205 0 .364.065.476.196.131.112.196.27.196.476v13.216a.647.647 0 01-.196.476c-.112.13-.271.196-.476.196h-2.324zm14.775.28c-1.923 0-3.416-.663-4.48-1.988v1.036a.647.647 0 01-.196.476c-.112.13-.271.196-.476.196h-2.212a.648.648 0 01-.476-.196.647.647 0 01-.196-.476V43.792c0-.205.065-.364.196-.476a.648.648 0 01.476-.196h2.38c.205 0 .364.065.476.196.131.112.196.27.196.476v6.216c1.064-1.232 2.501-1.848 4.312-1.848 1.885 0 3.332.616 4.34 1.848 1.008 1.232 1.549 2.828 1.624 4.788.019.224.028.523.028.896 0 .392-.009.7-.028.924-.075 2.016-.616 3.63-1.624 4.844-1.008 1.213-2.455 1.82-4.34 1.82zm-1.036-2.996c2.016 0 3.089-1.241 3.22-3.724a9.09 9.09 0 00.028-.84 9.09 9.09 0 00-.028-.84c-.131-2.483-1.204-3.724-3.22-3.724-1.045 0-1.848.336-2.408 1.008-.541.653-.831 1.447-.868 2.38l-.028 1.064.028 1.092c.056 1.008.345 1.857.868 2.548.523.69 1.325 1.036 2.408 1.036zm10.704-14.252a.646.646 0 01-.476-.196.647.647 0 01-.196-.476v-2.016c0-.187.065-.345.196-.476a.646.646 0 01.476-.196h2.548a.65.65 0 01.476.196c.149.13.224.29.224.476v2.016a.65.65 0 01-.196.476.683.683 0 01-.504.196h-2.548zM287.403 63a.646.646 0 01-.476-.196.647.647 0 01-.196-.476V49.112c0-.187.065-.345.196-.476a.646.646 0 01.476-.196h2.324c.205 0 .364.065.476.196.13.112.196.27.196.476v13.216a.65.65 0 01-.196.476c-.112.13-.271.196-.476.196h-2.324zm7.383 0a.646.646 0 01-.476-.196.647.647 0 01-.196-.476V49.112c0-.187.065-.345.196-.476a.646.646 0 01.476-.196h2.296a.65.65 0 01.476.196c.13.13.196.29.196.476v1.148c1.101-1.4 2.66-2.1 4.676-2.1 1.717 0 3.08.57 4.088 1.708 1.008 1.12 1.512 2.65 1.512 4.592v7.868a.65.65 0 01-.196.476c-.112.13-.271.196-.476.196h-2.464a.646.646 0 01-.476-.196.647.647 0 01-.196-.476v-7.7c0-1.101-.271-1.95-.812-2.548-.523-.616-1.288-.924-2.296-.924-.99 0-1.774.308-2.352.924-.56.616-.84 1.465-.84 2.548v7.7a.65.65 0 01-.196.476c-.112.13-.271.196-.476.196h-2.464zm23.24.28c-2.184 0-3.873-.56-5.068-1.68-1.194-1.139-1.838-2.688-1.932-4.648l-.028-1.232.028-1.232c.094-1.941.747-3.481 1.96-4.62 1.214-1.139 2.894-1.708 5.04-1.708 2.147 0 3.827.57 5.04 1.708 1.214 1.139 1.867 2.679 1.96 4.62.019.224.028.635.028 1.232s-.009 1.008-.028 1.232c-.093 1.96-.737 3.51-1.932 4.648-1.194 1.12-2.884 1.68-5.068 1.68zm0-2.772c.99 0 1.755-.308 2.296-.924.542-.635.84-1.559.896-2.772.019-.187.028-.55.028-1.092 0-.541-.009-.905-.028-1.092-.056-1.213-.354-2.128-.896-2.744-.541-.635-1.306-.952-2.296-.952-.989 0-1.754.317-2.296.952-.541.616-.84 1.53-.896 2.744l-.028 1.092.028 1.092c.056 1.213.355 2.137.896 2.772.542.616 1.307.924 2.296.924zM136.856 99a.648.648 0 01-.476-.196.647.647 0 01-.196-.476V80.1c0-.205.056-.373.168-.504a.683.683 0 01.504-.196h7.504c2.24 0 4.004.532 5.292 1.596 1.288 1.045 1.932 2.585 1.932 4.62s-.644 3.575-1.932 4.62c-1.269 1.027-3.033 1.54-5.292 1.54h-4.172v6.552a.647.647 0 01-.196.476c-.112.13-.271.196-.476.196h-2.66zm7.364-10.332c1.083 0 1.913-.252 2.492-.756.579-.523.868-1.288.868-2.296 0-.97-.28-1.727-.84-2.268-.56-.56-1.4-.84-2.52-.84h-4.088v6.16h4.088zM154.977 99a.648.648 0 01-.476-.196.647.647 0 01-.196-.476V85.14c0-.187.065-.345.196-.476a.61.61 0 01.476-.224h2.268c.205 0 .373.065.504.196a.68.68 0 01.196.504v1.148a4.441 4.441 0 011.68-1.372c.691-.317 1.475-.476 2.352-.476h1.148c.205 0 .364.065.476.196.131.112.196.27.196.476v2.016a.647.647 0 01-.196.476c-.112.13-.271.196-.476.196h-2.184c-.877 0-1.568.252-2.072.756s-.756 1.195-.756 2.072v7.7a.647.647 0 01-.196.476.683.683 0 01-.504.196h-2.436zm17.084.28c-2.072 0-3.724-.597-4.956-1.792-1.213-1.213-1.857-2.912-1.932-5.096l-.028-.7.028-.7c.094-2.128.747-3.799 1.96-5.012 1.232-1.213 2.875-1.82 4.928-1.82 2.203 0 3.902.672 5.096 2.016 1.214 1.344 1.82 3.136 1.82 5.376v.588a.647.647 0 01-.196.476.68.68 0 01-.504.196h-9.296v.224c.038 1.027.318 1.895.84 2.604.542.69 1.279 1.036 2.212 1.036 1.102 0 1.988-.43 2.66-1.288.168-.205.299-.336.392-.392.112-.056.271-.084.476-.084h2.408a.57.57 0 01.42.168.428.428 0 01.196.364c0 .448-.27.98-.812 1.596-.522.597-1.278 1.12-2.268 1.568-.989.448-2.137.672-3.444.672zm3.108-8.82v-.084c0-1.101-.28-1.988-.84-2.66-.541-.672-1.297-1.008-2.268-1.008-.97 0-1.726.336-2.268 1.008-.541.672-.812 1.559-.812 2.66v.084h6.188zm7.453 8.54a.646.646 0 01-.476-.196.647.647 0 01-.196-.476V85.112c0-.187.065-.345.196-.476a.646.646 0 01.476-.196h2.184a.65.65 0 01.476.196c.13.13.196.29.196.476v.952c.97-1.27 2.324-1.904 4.06-1.904 2.072 0 3.518.83 4.34 2.492.448-.747 1.082-1.344 1.904-1.792a5.294 5.294 0 012.66-.7c1.53 0 2.781.523 3.752 1.568.97 1.045 1.456 2.567 1.456 4.564v8.036a.65.65 0 01-.196.476c-.112.13-.271.196-.476.196h-2.296a.646.646 0 01-.476-.196.647.647 0 01-.196-.476v-7.812c0-1.176-.252-2.025-.756-2.548-.486-.541-1.139-.812-1.96-.812-.728 0-1.354.27-1.876.812-.504.541-.756 1.39-.756 2.548v7.812a.65.65 0 01-.196.476.65.65 0 01-.476.196h-2.296a.646.646 0 01-.476-.196.647.647 0 01-.196-.476v-7.812c0-1.176-.262-2.025-.784-2.548-.504-.541-1.148-.812-1.932-.812-.747 0-1.382.27-1.904.812-.504.541-.756 1.39-.756 2.548v7.812a.65.65 0 01-.196.476.65.65 0 01-.476.196h-2.352zm25.153-16.968a.65.65 0 01-.476-.196.65.65 0 01-.196-.476v-2.016a.65.65 0 01.196-.476.65.65 0 01.476-.196h2.548c.187 0 .346.065.476.196.15.13.224.29.224.476v2.016a.647.647 0 01-.196.476.68.68 0 01-.504.196h-2.548zM207.887 99a.65.65 0 01-.476-.196.65.65 0 01-.196-.476V85.112a.65.65 0 01.196-.476.65.65 0 01.476-.196h2.324c.206 0 .364.065.476.196.131.112.196.27.196.476v13.216a.647.647 0 01-.196.476c-.112.13-.27.196-.476.196h-2.324zm12.115.28c-1.717 0-3.071-.56-4.06-1.68-.989-1.139-1.484-2.679-1.484-4.62v-7.868c0-.187.065-.345.196-.476a.648.648 0 01.476-.196h2.464c.205 0 .364.065.476.196.131.112.196.27.196.476v7.7c0 2.315 1.017 3.472 3.052 3.472.971 0 1.736-.308 2.296-.924.579-.616.868-1.465.868-2.548v-7.7c0-.187.065-.345.196-.476a.648.648 0 01.476-.196h2.464c.205 0 .364.065.476.196.131.112.196.27.196.476v13.216a.647.647 0 01-.196.476c-.112.13-.271.196-.476.196h-2.268a.648.648 0 01-.476-.196.647.647 0 01-.196-.476V97.18c-1.045 1.4-2.604 2.1-4.676 2.1zm12.659-.28a.646.646 0 01-.476-.196.647.647 0 01-.196-.476V85.112c0-.187.065-.345.196-.476a.646.646 0 01.476-.196h2.184a.65.65 0 01.476.196c.13.13.196.29.196.476v.952c.97-1.27 2.324-1.904 4.06-1.904 2.072 0 3.518.83 4.34 2.492.448-.747 1.082-1.344 1.904-1.792a5.294 5.294 0 012.66-.7c1.53 0 2.781.523 3.752 1.568.97 1.045 1.456 2.567 1.456 4.564v8.036a.65.65 0 01-.196.476c-.112.13-.271.196-.476.196h-2.296a.646.646 0 01-.476-.196.647.647 0 01-.196-.476v-7.812c0-1.176-.252-2.025-.756-2.548-.486-.541-1.139-.812-1.96-.812-.728 0-1.354.27-1.876.812-.504.541-.756 1.39-.756 2.548v7.812a.65.65 0 01-.196.476.65.65 0 01-.476.196h-2.296a.646.646 0 01-.476-.196.647.647 0 01-.196-.476v-7.812c0-1.176-.262-2.025-.784-2.548-.504-.541-1.148-.812-1.932-.812-.747 0-1.382.27-1.904.812-.504.541-.756 1.39-.756 2.548v7.812a.65.65 0 01-.196.476.65.65 0 01-.476.196h-2.352zm36.508.28c-1.4 0-2.576-.205-3.528-.616-.952-.43-1.662-.924-2.128-1.484-.448-.579-.672-1.073-.672-1.484a.56.56 0 01.196-.448.668.668 0 01.448-.168h2.212a.53.53 0 01.42.196c.074.056.27.224.588.504.317.299.69.532 1.12.7.429.168.905.252 1.428.252.746 0 1.362-.15 1.848-.448.485-.299.728-.71.728-1.232 0-.392-.112-.71-.336-.952-.206-.243-.588-.457-1.148-.644-.56-.205-1.391-.42-2.492-.644-1.587-.336-2.763-.85-3.528-1.54-.747-.69-1.12-1.605-1.12-2.744 0-.747.224-1.447.672-2.1.448-.672 1.11-1.213 1.988-1.624.896-.43 1.96-.644 3.192-.644 1.25 0 2.333.205 3.248.616.914.392 1.605.868 2.072 1.428.485.541.728 1.027.728 1.456a.62.62 0 01-.196.448.57.57 0 01-.42.168h-2.072c-.15 0-.308-.065-.476-.196a7.115 7.115 0 01-.616-.532 3.121 3.121 0 00-.98-.616c-.374-.15-.812-.224-1.316-.224-.691 0-1.232.15-1.624.448-.374.299-.56.69-.56 1.176 0 .355.093.644.28.868.186.224.55.439 1.092.644.541.205 1.353.41 2.436.616 1.792.355 3.07.905 3.836 1.652.784.747 1.176 1.661 1.176 2.744 0 1.307-.57 2.37-1.708 3.192-1.139.821-2.735 1.232-4.788 1.232zm15.868-.28a.65.65 0 01-.476-.196.65.65 0 01-.196-.476V96.9c0-.504.234-.943.7-1.316l4.424-4.396c1.923-1.512 3.258-2.688 4.004-3.528.766-.859 1.148-1.699 1.148-2.52 0-.877-.242-1.568-.728-2.072-.466-.504-1.176-.756-2.128-.756-.933 0-1.67.28-2.212.84-.541.541-.877 1.25-1.008 2.128-.056.224-.158.392-.308.504a.93.93 0 01-.504.14h-2.492a.57.57 0 01-.42-.168.537.537 0 01-.168-.392 6.419 6.419 0 01.896-3.08c.56-.97 1.372-1.745 2.436-2.324 1.064-.597 2.315-.896 3.752-.896 1.494 0 2.754.261 3.78.784 1.046.504 1.83 1.204 2.352 2.1.523.896.784 1.913.784 3.052 0 1.25-.354 2.38-1.064 3.388-.69 1.008-1.754 2.09-3.192 3.248l-3.976 4.032h7.98c.206 0 .364.065.476.196.131.112.196.27.196.476v1.988a.647.647 0 01-.196.476c-.112.13-.27.196-.476.196h-13.384zm23.16 0a.65.65 0 01-.476-.196.65.65 0 01-.196-.476V83.824l-4.256 3.276a.593.593 0 01-.392.14c-.224 0-.41-.103-.56-.308l-1.176-1.512a.804.804 0 01-.14-.42c0-.224.103-.41.308-.56l6.272-4.844c.168-.13.402-.196.7-.196h2.464c.206 0 .364.065.476.196.131.112.196.27.196.476v18.256a.647.647 0 01-.196.476c-.112.13-.27.196-.476.196h-2.548zm10.581-9.744c-1.232 0-2.221-.327-2.968-.98-.728-.653-1.129-1.54-1.204-2.66a23.125 23.125 0 01-.028-1.26c0-.56.01-1.008.028-1.344.075-1.157.467-2.072 1.176-2.744.71-.672 1.708-1.008 2.996-1.008s2.287.336 2.996 1.008c.728.672 1.12 1.587 1.176 2.744.038.747.056 1.232.056 1.456 0 .205-.018.588-.056 1.148-.056 1.12-.457 2.007-1.204 2.66-.728.653-1.717.98-2.968.98zM316.482 99a.634.634 0 01-.42-.14.57.57 0 01-.168-.42c0-.112.038-.215.112-.308l13.804-18.2c.15-.187.29-.317.42-.392.131-.093.308-.14.532-.14h1.484c.187 0 .327.056.42.168a.482.482 0 01.168.392.48.48 0 01-.112.308l-13.804 18.2a2.194 2.194 0 01-.42.42c-.13.075-.308.112-.532.112h-1.484zm2.296-11.816c.542 0 .943-.159 1.204-.476.262-.336.411-.747.448-1.232.038-.635.056-1.027.056-1.176 0-.205-.018-.588-.056-1.148-.018-.485-.168-.887-.448-1.204-.261-.336-.662-.504-1.204-.504-.541 0-.942.168-1.204.504-.261.317-.401.719-.42 1.204-.018.28-.028.663-.028 1.148 0 .467.01.859.028 1.176.038.485.178.896.42 1.232.262.317.663.476 1.204.476zm11.172 11.984c-1.232 0-2.221-.336-2.968-1.008-.728-.69-1.129-1.605-1.204-2.744a23.125 23.125 0 01-.028-1.26c0-.541.01-.98.028-1.316.075-1.157.467-2.072 1.176-2.744.71-.672 1.708-1.008 2.996-1.008s2.287.336 2.996 1.008c.728.672 1.12 1.587 1.176 2.744.038.747.056 1.223.056 1.428 0 .205-.018.588-.056 1.148-.074 1.139-.485 2.053-1.232 2.744-.728.672-1.708 1.008-2.94 1.008zm0-2.184c.56 0 .962-.159 1.204-.476a2.19 2.19 0 00.448-1.204c.038-.635.056-1.027.056-1.176 0-.205-.018-.588-.056-1.148-.018-.485-.168-.896-.448-1.232-.261-.336-.662-.504-1.204-.504-.541 0-.942.168-1.204.504-.261.317-.41.728-.448 1.232-.018.28-.028.663-.028 1.148 0 .467.01.859.028 1.176.056.485.206.887.448 1.204.262.317.663.476 1.204.476zm19.172 2.296c-1.4 0-2.576-.205-3.528-.616-.952-.43-1.662-.924-2.128-1.484-.448-.579-.672-1.073-.672-1.484a.56.56 0 01.196-.448.668.668 0 01.448-.168h2.212a.53.53 0 01.42.196c.074.056.27.224.588.504.317.299.69.532 1.12.7.429.168.905.252 1.428.252.746 0 1.362-.15 1.848-.448.485-.299.728-.71.728-1.232 0-.392-.112-.71-.336-.952-.206-.243-.588-.457-1.148-.644-.56-.205-1.391-.42-2.492-.644-1.587-.336-2.763-.85-3.528-1.54-.747-.69-1.12-1.605-1.12-2.744 0-.747.224-1.447.672-2.1.448-.672 1.11-1.213 1.988-1.624.896-.43 1.96-.644 3.192-.644 1.25 0 2.333.205 3.248.616.914.392 1.605.868 2.072 1.428.485.541.728 1.027.728 1.456a.62.62 0 01-.196.448.57.57 0 01-.42.168h-2.072c-.15 0-.308-.065-.476-.196a7.115 7.115 0 01-.616-.532 3.121 3.121 0 00-.98-.616c-.374-.15-.812-.224-1.316-.224-.691 0-1.232.15-1.624.448-.374.299-.56.69-.56 1.176 0 .355.093.644.28.868.186.224.55.439 1.092.644.541.205 1.353.41 2.436.616 1.792.355 3.07.905 3.836 1.652.784.747 1.176 1.661 1.176 2.744 0 1.307-.57 2.37-1.708 3.192-1.139.821-2.735 1.232-4.788 1.232zm10.086-.28a.648.648 0 01-.476-.196.647.647 0 01-.196-.476V79.792c0-.205.065-.364.196-.476a.648.648 0 01.476-.196h2.324c.205 0 .364.065.476.196.131.112.196.27.196.476v18.536a.647.647 0 01-.196.476c-.112.13-.271.196-.476.196h-2.324zm12.982.28c-2.072 0-3.724-.597-4.956-1.792-1.213-1.213-1.857-2.912-1.932-5.096l-.028-.7.028-.7c.094-2.128.747-3.799 1.96-5.012 1.232-1.213 2.875-1.82 4.928-1.82 2.203 0 3.902.672 5.096 2.016 1.214 1.344 1.82 3.136 1.82 5.376v.588a.647.647 0 01-.196.476.68.68 0 01-.504.196h-9.296v.224c.038 1.027.318 1.895.84 2.604.542.69 1.279 1.036 2.212 1.036 1.102 0 1.988-.43 2.66-1.288.168-.205.299-.336.392-.392.112-.056.271-.084.476-.084h2.408a.57.57 0 01.42.168.428.428 0 01.196.364c0 .448-.27.98-.812 1.596-.522.597-1.278 1.12-2.268 1.568-.989.448-2.137.672-3.444.672zm3.108-8.82v-.084c0-1.101-.28-1.988-.84-2.66-.541-.672-1.297-1.008-2.268-1.008-.97 0-1.726.336-2.268 1.008-.541.672-.812 1.559-.812 2.66v.084h6.188zM386.711 99c-.28 0-.495-.056-.644-.168a1.415 1.415 0 01-.364-.532l-5.236-12.992-.056-.252a.57.57 0 01.168-.42.617.617 0 01.448-.196h2.268c.355 0 .597.177.728.532l3.724 9.828 3.724-9.828c.056-.13.14-.252.252-.364a.707.707 0 01.476-.168h2.296c.149 0 .28.065.392.196a.53.53 0 01.196.42.838.838 0 01-.028.252L389.791 98.3a1.415 1.415 0 01-.364.532c-.149.112-.364.168-.644.168h-2.072zm16.847.28c-2.184 0-3.874-.56-5.068-1.68-1.195-1.139-1.839-2.688-1.932-4.648l-.028-1.232.028-1.232c.093-1.941.746-3.481 1.96-4.62 1.213-1.139 2.893-1.708 5.04-1.708 2.146 0 3.826.57 5.04 1.708 1.213 1.139 1.866 2.679 1.96 4.62.018.224.028.635.028 1.232s-.01 1.008-.028 1.232c-.094 1.96-.738 3.51-1.932 4.648-1.195 1.12-2.884 1.68-5.068 1.68zm0-2.772c.989 0 1.754-.308 2.296-.924.541-.635.84-1.559.896-2.772.018-.187.028-.55.028-1.092 0-.541-.01-.905-.028-1.092-.056-1.213-.355-2.128-.896-2.744-.542-.635-1.307-.952-2.296-.952-.99 0-1.755.317-2.296.952-.542.616-.84 1.53-.896 2.744l-.028 1.092.028 1.092c.056 1.213.354 2.137.896 2.772.541.616 1.306.924 2.296.924zm15.534 2.772c-1.717 0-3.071-.56-4.06-1.68-.989-1.139-1.484-2.679-1.484-4.62v-7.868c0-.187.065-.345.196-.476a.648.648 0 01.476-.196h2.464c.205 0 .364.065.476.196.131.112.196.27.196.476v7.7c0 2.315 1.017 3.472 3.052 3.472.971 0 1.736-.308 2.296-.924.579-.616.868-1.465.868-2.548v-7.7c0-.187.065-.345.196-.476a.648.648 0 01.476-.196h2.464c.205 0 .364.065.476.196.131.112.196.27.196.476v13.216a.647.647 0 01-.196.476c-.112.13-.271.196-.476.196h-2.268a.648.648 0 01-.476-.196.647.647 0 01-.196-.476V97.18c-1.045 1.4-2.604 2.1-4.676 2.1z" fill="#fff"/>
  <path d="M451 63l7 7-7 7" stroke="#fff" stroke-width="3" stroke-linecap="round"/>
  <defs>
    <clipPath id="giftcard-banner-cs__clip0">
      <path fill="#fff" d="M0 0h487v140H0z"/>
    </clipPath>
  </defs>
</svg>
