<svg width="487" height="140" fill="none" xmlns="http://www.w3.org/2000/svg">
  <g clip-path="url(#giftcard-banner-fr__clip0)">
    <path fill="#FF416F" d="M0 0h487v140H0z"/>
    <path fill-rule="evenodd" clip-rule="evenodd" d="M473 34zm-.457.11a.993.993 0 00-.277.211l-.001.002a.982.982 0 00-.086.107l-9.993 13.989a1 1 0 001.549 1.26l.079-.098L472 38.121v8.559l-9.814 13.739a1 1 0 001.549 1.26l.079-.098L472 50.121V68l.007.116A1 1 0 00474 68V50.12l8.186 11.461.08.098a1 1 0 001.548-1.26L474 46.679V38.12l8.186 11.461.08.098a1 1 0 001.548-1.26l-9.987-13.981M495-9zm-.457.11a.993.993 0 00-.277.211l-.001.002a.981.981 0 00-.086.107l-9.993 13.989a1 1 0 001.549 1.26l.079-.098L494-4.879V3.68l-9.814 13.739a1 1 0 001.549 1.26l.079-.098L494 7.121V25l.007.116A1 1 0 00496 25V7.12l8.186 11.461.08.098a1 1 0 001.548-1.26L496 3.679v-8.558l8.186 11.46.08.098a1 1 0 001.548-1.26l-9.987-13.981M449-9zm-.457.11a.993.993 0 00-.277.211l-.001.002a.981.981 0 00-.086.107l-9.993 13.989a1 1 0 001.549 1.26l.079-.098L448-4.879V3.68l-9.814 13.739a1 1 0 001.549 1.26l.079-.098L448 7.121V25l.007.116A1 1 0 00450 25V7.12l8.186 11.461.08.098a1 1 0 001.548-1.26L450 3.679v-8.558l8.186 11.46.08.098a1 1 0 001.548-1.26l-9.987-13.981M403-9zm-.457.11a.993.993 0 00-.277.211l-.001.002a.981.981 0 00-.086.107l-9.993 13.989a1 1 0 001.549 1.26l.079-.098L402-4.879V3.68l-9.814 13.739a1 1 0 001.549 1.26l.079-.098L402 7.121V25l.007.116A1 1 0 00404 25V7.12l8.186 11.461.08.098a1 1 0 001.548-1.26L404 3.679v-8.558l8.186 11.46.08.098a1 1 0 001.548-1.26l-9.987-13.981M425 34zm-.457.11a.993.993 0 00-.277.211l-.001.002a.982.982 0 00-.086.107l-9.993 13.989a1 1 0 001.549 1.26l.079-.098L424 38.121v8.559l-9.814 13.739a1 1 0 001.549 1.26l.079-.098L424 50.121V68l.007.116A1 1 0 00426 68V50.12l8.186 11.461.08.098a1 1 0 001.548-1.26L426 46.679V38.12l8.186 11.461.08.098a1 1 0 001.548-1.26l-9.987-13.981M357-9zm-.457.11a.993.993 0 00-.277.211l-.001.002a.981.981 0 00-.086.107l-9.993 13.989a1 1 0 001.549 1.26l.079-.098L356-4.879V3.68l-9.814 13.739a1 1 0 001.549 1.26l.079-.098L356 7.121V25l.007.116A1 1 0 00358 25V7.12l8.186 11.461.08.098a1 1 0 001.548-1.26L358 3.679v-8.558l8.186 11.46.08.098a1 1 0 001.548-1.26l-9.987-13.981M473 119a.993.993 0 01.061.002L473 119zm-.457.111a.981.981 0 00-.277.21l-.001.002a.895.895 0 00-.086.107l-9.993 13.989a1 1 0 001.549 1.26l.079-.098 8.186-11.46v8.559l-9.814 13.739a1 1 0 001.549 1.26l.079-.098 8.186-11.46V153l.007.117A1 1 0 00474 153v-17.879l8.186 11.46.08.098a1 1 0 001.548-1.26L474 131.68v-8.559l8.186 11.46.08.098a1 1 0 001.548-1.26l-9.987-13.981M427 119a.993.993 0 01.061.002L427 119zm-.457.111a.981.981 0 00-.277.21l-.001.002a.895.895 0 00-.086.107l-9.993 13.989a1 1 0 001.549 1.26l.079-.098 8.186-11.46v8.559l-9.814 13.739a1 1 0 001.549 1.26l.079-.098 8.186-11.46V153l.007.117A1 1 0 00428 153v-17.879l8.186 11.46.08.098a1 1 0 001.548-1.26L428 131.68v-8.559l8.186 11.46.08.098a1 1 0 001.548-1.26l-9.987-13.981M381 119a.993.993 0 01.061.002L381 119zm-.457.111a.981.981 0 00-.277.21l-.001.002a.895.895 0 00-.086.107l-9.993 13.989a1 1 0 001.549 1.26l.079-.098 8.186-11.46v8.559l-9.814 13.739a1 1 0 001.549 1.26l.079-.098 8.186-11.46V153l.007.117A1 1 0 00382 153v-17.879l8.186 11.46.08.098a1 1 0 001.548-1.26L382 131.68v-8.559l8.186 11.46.08.098a1 1 0 001.548-1.26l-9.987-13.981M335 119a.993.993 0 01.061.002L335 119zm-.457.111a.981.981 0 00-.277.21l-.001.002a.895.895 0 00-.086.107l-9.993 13.989a1 1 0 001.549 1.26l.079-.098 8.186-11.46v8.559l-9.814 13.739a1 1 0 001.549 1.26l.079-.098 8.186-11.46V153l.007.117A1 1 0 00336 153v-17.879l8.186 11.46.08.098a1 1 0 001.548-1.26L336 131.68v-8.559l8.186 11.46.08.098a1 1 0 001.548-1.26l-9.987-13.981M495 76zm-.457.11a.993.993 0 00-.277.211l-.001.002a.982.982 0 00-.086.107l-9.993 13.989a1 1 0 001.549 1.26l.079-.098L494 80.121v8.559l-9.814 13.739a1 1 0 001.549 1.26l.079-.098L494 92.121V110l.007.117A1 1 0 00496 110V92.12l8.186 11.461.08.098a1 1 0 001.548-1.26L496 88.679v-8.558l8.186 11.46.08.098a1 1 0 001.548-1.26l-9.987-13.981M449 76zm-.457.11a.993.993 0 00-.277.211l-.001.002a.982.982 0 00-.086.107l-9.993 13.989a1 1 0 001.549 1.26l.079-.098L448 80.121v8.559l-9.814 13.739a1 1 0 001.549 1.26l.079-.098L448 92.121V110l.007.117A1 1 0 00450 110V92.12l8.186 11.461.08.098a1 1 0 001.548-1.26L450 88.679v-8.558l8.186 11.46.08.098a1 1 0 001.548-1.26l-9.987-13.981M403 76zm-.457.11a.993.993 0 00-.277.211l-.001.002a.982.982 0 00-.086.107l-9.993 13.989a1 1 0 001.549 1.26l.079-.098L402 80.121v8.559l-9.814 13.739a1 1 0 001.549 1.26l.079-.098L402 92.121V110l.007.117A1 1 0 00404 110V92.12l8.186 11.461.08.098a1 1 0 001.548-1.26L404 88.679v-8.558l8.186 11.46.08.098a1 1 0 001.548-1.26l-9.987-13.981M357 76zm-.457.11a.993.993 0 00-.277.211l-.001.002a.982.982 0 00-.086.107l-9.993 13.989a1 1 0 001.549 1.26l.079-.098L356 80.121v8.559l-9.814 13.739a1 1 0 001.549 1.26l.079-.098L356 92.121V110l.007.117A1 1 0 00358 110V92.12l8.186 11.461.08.098a1 1 0 001.548-1.26L358 88.679v-8.558l8.186 11.46.08.098a1 1 0 001.548-1.26l-9.987-13.981M317-9zm-.457.11a.993.993 0 00-.277.211l-.001.002a.981.981 0 00-.086.107l-9.993 13.989a1 1 0 001.549 1.26l.079-.098L316-4.879V3.68l-9.814 13.739a1 1 0 001.549 1.26l.079-.098L316 7.121V25l.007.116A1 1 0 00318 25V7.12l8.186 11.461.08.098a1 1 0 001.548-1.26L318 3.679v-8.558l8.186 11.46.08.098a1 1 0 001.548-1.26l-9.987-13.981M271-9zm-.457.11a.993.993 0 00-.277.211l-.001.002a.981.981 0 00-.086.107l-9.993 13.989a1 1 0 001.549 1.26l.079-.098L270-4.879V3.68l-9.814 13.739a1 1 0 001.549 1.26l.079-.098L270 7.121V25l.007.116A1 1 0 00272 25V7.12l8.186 11.461.08.098a1 1 0 001.548-1.26L272 3.679v-8.558l8.186 11.46.08.098a1 1 0 001.548-1.26l-9.987-13.981M225-9zm-.457.11a.993.993 0 00-.277.211l-.001.002a.981.981 0 00-.086.107l-9.993 13.989a1 1 0 001.549 1.26l.079-.098L224-4.879V3.68l-9.814 13.739a1 1 0 001.549 1.26l.079-.098L224 7.121V25l.007.116A1 1 0 00226 25V7.12l8.186 11.461.08.098a1 1 0 001.548-1.26L226 3.679v-8.558l8.186 11.46.08.098a1 1 0 001.548-1.26l-9.987-13.981M179-9zm-.457.11a.993.993 0 00-.277.211l-.001.002a.981.981 0 00-.086.107l-9.993 13.989a1 1 0 001.549 1.26l.079-.098L178-4.879V3.68l-9.814 13.739a1 1 0 001.549 1.26l.079-.098L178 7.121V25l.007.116A1 1 0 00180 25V7.12l8.186 11.461.08.098a1 1 0 001.548-1.26L180 3.679v-8.558l8.186 11.46.08.098a1 1 0 001.548-1.26l-9.987-13.981M295 119a.993.993 0 01.061.002L295 119zm-.457.111a.981.981 0 00-.277.21l-.001.002a.895.895 0 00-.086.107l-9.993 13.989a1 1 0 001.549 1.26l.079-.098 8.186-11.46v8.559l-9.814 13.739a1 1 0 001.549 1.26l.079-.098 8.186-11.46V153l.007.117A1 1 0 00296 153v-17.879l8.186 11.46.08.098a1 1 0 001.548-1.26L296 131.68v-8.559l8.186 11.46.08.098a1 1 0 001.548-1.26l-9.987-13.981M249 119a.993.993 0 01.061.002L249 119zm-.457.111a.981.981 0 00-.277.21l-.001.002a.895.895 0 00-.086.107l-9.993 13.989a1 1 0 001.549 1.26l.079-.098 8.186-11.46v8.559l-9.814 13.739a1 1 0 001.549 1.26l.079-.098 8.186-11.46V153l.007.117A1 1 0 00250 153v-17.879l8.186 11.46.08.098a1 1 0 001.548-1.26L250 131.68v-8.559l8.186 11.46.08.098a1 1 0 001.548-1.26l-9.987-13.981M203 119a.993.993 0 01.061.002L203 119zm-.457.111a.981.981 0 00-.277.21l-.001.002a.895.895 0 00-.086.107l-9.993 13.989a1 1 0 001.549 1.26l.079-.098 8.186-11.46v8.559l-9.814 13.739a1 1 0 001.549 1.26l.079-.098 8.186-11.46V153l.007.117A1 1 0 00204 153v-17.879l8.186 11.46.08.098a1 1 0 001.548-1.26L204 131.68v-8.559l8.186 11.46.08.098a1 1 0 001.548-1.26l-9.987-13.981M157 119a.993.993 0 01.061.002L157 119zm-.457.111a.981.981 0 00-.277.21l-.001.002a.895.895 0 00-.086.107l-9.993 13.989a1 1 0 001.549 1.26l.079-.098 8.186-11.46v8.559l-9.814 13.739a1 1 0 001.549 1.26l.079-.098 8.186-11.46V153l.007.117A1 1 0 00158 153v-17.879l8.186 11.46.08.098a1 1 0 001.548-1.26L158 131.68v-8.559l8.186 11.46.08.098a1 1 0 001.548-1.26l-9.987-13.981M16 34zm-.457.11a.993.993 0 00-.277.211l-.001.002a.895.895 0 00-.086.107L5.186 48.419a1 1 0 001.549 1.26l.079-.098L15 38.121v8.559L5.186 60.419a1 1 0 001.549 1.26l.079-.098L15 50.121V68l.007.116A1 1 0 0017 68V50.12l8.186 11.461.08.098a1 1 0 001.548-1.26L17 46.679V38.12l8.186 11.461.08.098a1 1 0 001.548-1.26l-9.987-13.981M130-9zm-.457.11a.993.993 0 00-.277.211l-.001.002a.981.981 0 00-.086.107l-9.993 13.989a1 1 0 001.549 1.26l.079-.098L129-4.879V3.68l-9.814 13.739a1 1 0 001.549 1.26l.079-.098L129 7.121V25l.007.116A1 1 0 00131 25V7.12l8.186 11.461.08.098a1 1 0 001.548-1.26L131 3.679v-8.558l8.186 11.46.08.098a1 1 0 001.548-1.26l-9.987-13.981M84-9zm-.457.11a.992.992 0 00-.277.211l-.001.002a.895.895 0 00-.086.107L73.186 5.419a1 1 0 001.549 1.26l.079-.098L83-4.879V3.68l-9.814 13.739a1 1 0 001.549 1.26l.079-.098L83 7.121V25l.007.116A1 1 0 0085 25V7.12l8.186 11.461.08.098a1 1 0 001.548-1.26L85 3.679v-8.558l8.186 11.46.08.098a1 1 0 001.548-1.26L84.827-8.562M38-9zm-.457.11a.992.992 0 00-.277.211l-.001.002a.895.895 0 00-.086.107L27.186 5.419a1 1 0 001.549 1.26l.079-.098L37-4.879V3.68l-9.814 13.739a1 1 0 001.549 1.26l.079-.098L37 7.121V25l.007.116A1 1 0 0039 25V7.12l8.186 11.461.08.098a1 1 0 001.548-1.26L39 3.679v-8.558l8.186 11.46.08.098a1 1 0 001.548-1.26L38.827-8.562M-8-9zm-.457.11a.993.993 0 00-.277.211l-.001.002a.895.895 0 00-.086.107l-9.993 13.989a1 1 0 001.549 1.26l.079-.098L-9-4.879V3.68l-9.814 13.739a1 1 0 001.549 1.26l.079-.098L-9 7.121V25l.007.116A1 1 0 00-7 25V7.12l8.186 11.461.08.098a1 1 0 001.548-1.26L-7 3.679v-8.558L1.186 6.58l.08.098a1 1 0 001.548-1.26l-9.987-13.98M108 119a.993.993 0 01.061.002L108 119zm-.457.111a.981.981 0 00-.277.21l-.001.002a.895.895 0 00-.086.107l-9.993 13.989a1 1 0 001.549 1.26l.079-.098 8.186-11.46v8.559l-9.814 13.739a1 1 0 001.549 1.26l.079-.098 8.186-11.46V153l.007.117A1 1 0 00109 153v-17.879l8.186 11.46.08.098a1 1 0 001.548-1.26L109 131.68v-8.559l8.186 11.46.08.098a1 1 0 001.548-1.26l-9.987-13.981M62 119a.996.996 0 01.061.002l-.06-.002zm-.457.111a.98.98 0 00-.277.21l-.001.002a.915.915 0 00-.086.107l-9.993 13.989a1 1 0 001.549 1.26l.079-.098L61 123.121v8.559l-9.814 13.739a1 1 0 001.549 1.26l.079-.098L61 135.121V153l.007.117A1 1 0 0063 153v-17.879l8.186 11.46.08.098a1 1 0 001.548-1.26L63 131.68v-8.559l8.186 11.46.08.098a1 1 0 001.548-1.26l-9.987-13.981M16 119a.996.996 0 01.061.002l-.06-.002zm-.457.111a.98.98 0 00-.277.21l-.001.002a.915.915 0 00-.086.107l-9.993 13.989a1 1 0 001.549 1.26l.079-.098L15 123.121v8.559l-9.814 13.739a1 1 0 001.549 1.26l.079-.098L15 135.121V153l.007.117A1 1 0 0017 153v-17.879l8.186 11.46.08.098a1 1 0 001.548-1.26L17 131.68v-8.559l8.186 11.46.08.098a1 1 0 001.548-1.26l-9.987-13.981M130 76zm-.457.11a.993.993 0 00-.277.211l-.001.002a.982.982 0 00-.086.107l-9.993 13.989a1 1 0 001.549 1.26l.079-.098L129 80.121v8.559l-9.814 13.739a1 1 0 001.549 1.26l.079-.098L129 92.121V110l.007.117A1 1 0 00131 110V92.12l8.186 11.461.08.098a1 1 0 001.548-1.26L131 88.679v-8.558l8.186 11.46.08.098a1 1 0 001.548-1.26l-9.987-13.981M84 76zm-.457.11a.993.993 0 00-.277.211l-.001.002a.895.895 0 00-.086.107l-9.993 13.989a1 1 0 001.549 1.26l.079-.098L83 80.121v8.559l-9.814 13.739a1 1 0 001.549 1.26l.079-.098L83 92.121V110l.007.117A1 1 0 0085 110V92.12l8.186 11.461.08.098a1 1 0 001.548-1.26L85 88.679v-8.558l8.186 11.46.08.098a1 1 0 001.548-1.26l-9.987-13.981M38 76zm-.457.11a.993.993 0 00-.277.211l-.001.002a.895.895 0 00-.086.107l-9.993 13.989a1 1 0 001.549 1.26l.079-.098L37 80.121v8.559l-9.814 13.739a1 1 0 001.549 1.26l.079-.098L37 92.121V110l.007.117A1 1 0 0039 110V92.12l8.186 11.461.08.098a1 1 0 001.548-1.26L39 88.679v-8.558l8.186 11.46.08.098a1 1 0 001.548-1.26l-9.987-13.981M-8 76zm-.457.11a.994.994 0 00-.277.211l-.001.002a.895.895 0 00-.086.107l-9.993 13.989a1 1 0 001.549 1.26l.079-.098L-9 80.121v8.559l-9.814 13.739a1 1 0 001.549 1.26l.079-.098L-9 92.121V110l.007.117A1 1 0 00-7 110V92.12l8.186 11.461.08.098a1.001 1.001 0 001.548-1.26L-7 88.679v-8.558l8.186 11.46.08.098a1 1 0 001.548-1.26l-9.987-13.981" fill="#000" fill-opacity=".12"/>
    <path clip-rule="evenodd" d="M67.02 55.572s19.495-4.061 22.744-12.455c3.249-8.393-3.016-17.344-10.83-13.808-7.815 3.536-11.914 26.263-11.914 26.263zm-.204 0S47.32 51.511 44.072 43.117c-3.249-8.393 3.015-17.344 10.83-13.808 7.815 3.536 11.913 26.263 11.913 26.263z" stroke="#FAB500" stroke-width="7.581"/>
    <circle cx="67.025" cy="52.864" r="5.415" fill="#FFD465"/>
    <path d="M32.416 58.403a2.166 2.166 0 012.158-2.294L95 56l-3 55-54.465-.187a2.166 2.166 0 01-2.155-2.039l-2.964-50.371z" fill="#2AA598"/>
    <path d="M107.442 58.362a2.166 2.166 0 00-2.146-2.267L93.996 56l-2 55 10.964-.164a2.165 2.165 0 002.131-2.065l2.351-50.41z" fill="#259287"/>
    <path fill="#FAB500" d="M60.609 56.114h10.289v54.692H60.609z"/>
    <path d="M32.941 70h74.057l-.283 4H33.239l-.298-4z" fill="#000" fill-opacity=".14"/>
  </g>
  <path d="M144.022 61.26c-2.357 0-4.195-.598-5.512-1.794-1.317-1.196-2.011-2.973-2.08-5.33a70.535 70.535 0 01-.026-2.21c0-.988.009-1.733.026-2.236.069-2.305.78-4.073 2.132-5.304 1.352-1.23 3.172-1.846 5.46-1.846s4.108.615 5.46 1.846c1.369 1.23 2.089 2.999 2.158 5.304.035 1.005.052 1.75.052 2.236 0 .468-.017 1.205-.052 2.21-.087 2.357-.789 4.134-2.106 5.33-1.317 1.196-3.155 1.794-5.512 1.794zm0-2.99c1.161 0 2.089-.347 2.782-1.04.693-.71 1.066-1.785 1.118-3.224.035-1.04.052-1.742.052-2.106 0-.399-.017-1.1-.052-2.106-.052-1.439-.425-2.505-1.118-3.198-.693-.71-1.621-1.066-2.782-1.066-1.144 0-2.063.355-2.756 1.066-.693.693-1.066 1.76-1.118 3.198a66.105 66.105 0 00-.026 2.106c0 .884.009 1.586.026 2.106.052 1.439.416 2.513 1.092 3.224.693.693 1.621 1.04 2.782 1.04zM156.874 61a.602.602 0 01-.442-.182.603.603 0 01-.182-.442v-10.14h-2.106a.602.602 0 01-.442-.182.694.694 0 01-.182-.468v-1.482c0-.173.061-.32.182-.442a.602.602 0 01.442-.182h2.106v-1.066c0-3.103 1.699-4.654 5.096-4.654h1.768c.191 0 .338.06.442.182.121.104.182.251.182.442v1.482c0 .19-.061.347-.182.468a.602.602 0 01-.442.182h-1.664c-.676 0-1.153.165-1.43.494-.26.33-.39.84-.39 1.534v.936h5.33v-1.066c0-3.103 1.69-4.654 5.07-4.654h1.794c.191 0 .338.06.442.182.121.104.182.251.182.442v1.482c0 .19-.061.347-.182.468a.602.602 0 01-.442.182h-1.664c-.676 0-1.153.173-1.43.52-.277.33-.416.832-.416 1.508v.936h3.25c.191 0 .338.06.442.182.121.104.182.251.182.442v1.482c0 .19-.061.347-.182.468a.602.602 0 01-.442.182h-3.25v10.14c0 .173-.061.32-.182.442-.104.121-.251.182-.442.182h-2.106a.602.602 0 01-.442-.182.603.603 0 01-.182-.442v-10.14h-5.33v10.14c0 .173-.061.32-.182.442a.602.602 0 01-.442.182h-2.132zm17.993 0a.603.603 0 01-.442-.182.603.603 0 01-.182-.442V48.13c0-.173.061-.32.182-.442a.568.568 0 01.442-.208h2.106a.63.63 0 01.468.182.63.63 0 01.182.468v1.066c.416-.555.936-.98 1.56-1.274.642-.295 1.37-.442 2.184-.442h1.066c.191 0 .338.06.442.182.122.104.182.251.182.442v1.872a.6.6 0 01-.182.442c-.104.121-.251.182-.442.182h-2.028c-.814 0-1.456.234-1.924.702-.468.468-.702 1.11-.702 1.924v7.15a.6.6 0 01-.182.442.633.633 0 01-.468.182h-2.262zm15.864.26c-1.924 0-3.458-.555-4.602-1.664-1.126-1.127-1.724-2.704-1.794-4.732l-.026-.65.026-.65c.087-1.976.694-3.527 1.82-4.654 1.144-1.127 2.67-1.69 4.576-1.69 2.046 0 3.623.624 4.732 1.872 1.127 1.248 1.69 2.912 1.69 4.992v.546a.6.6 0 01-.182.442.633.633 0 01-.468.182h-8.632v.208c.035.953.295 1.76.78 2.418.503.641 1.188.962 2.054.962 1.023 0 1.846-.399 2.47-1.196.156-.19.278-.312.364-.364.104-.052.252-.078.442-.078h2.236a.53.53 0 01.39.156c.122.087.182.2.182.338 0 .416-.251.91-.754 1.482-.485.555-1.187 1.04-2.106 1.456-.918.416-1.984.624-3.198.624zm2.886-8.19v-.078c0-1.023-.26-1.846-.78-2.47-.502-.624-1.204-.936-2.106-.936-.901 0-1.603.312-2.106.936-.502.624-.754 1.447-.754 2.47v.078h5.746zM199.81 61a.603.603 0 01-.442-.182.603.603 0 01-.182-.442v-1.482c0-.243.122-.52.364-.832l6.656-7.878h-6.188a.603.603 0 01-.442-.182.603.603 0 01-.182-.442v-1.456c0-.173.061-.32.182-.442a.603.603 0 01.442-.182h9.854c.191 0 .338.06.442.182.122.104.182.251.182.442v1.586c0 .243-.121.503-.364.78l-6.5 7.826h6.786c.191 0 .338.06.442.182.122.104.182.251.182.442v1.456a.6.6 0 01-.182.442c-.104.121-.251.182-.442.182H199.81zm20.742 0a.603.603 0 01-.442-.182.603.603 0 01-.182-.442V43.45c0-.19.052-.347.156-.468a.636.636 0 01.468-.182h7.54c2.028 0 3.536.45 4.524 1.352 1.006.884 1.508 2.097 1.508 3.64 0 .901-.225 1.673-.676 2.314-.433.624-.944 1.075-1.534 1.352.728.33 1.335.867 1.82 1.612.503.745.754 1.595.754 2.548 0 1.612-.546 2.912-1.638 3.9-1.074.988-2.591 1.482-4.55 1.482h-7.748zm7.072-10.738c.902 0 1.586-.217 2.054-.65.468-.433.702-1.014.702-1.742 0-.745-.234-1.317-.702-1.716-.468-.416-1.152-.624-2.054-.624h-4.082v4.732h4.082zm.26 7.982c.902 0 1.604-.243 2.106-.728.503-.503.754-1.135.754-1.898 0-.78-.251-1.413-.754-1.898-.502-.503-1.204-.754-2.106-.754h-4.342v5.278h4.342zm10.077-13a.6.6 0 01-.442-.182.6.6 0 01-.182-.442v-1.872a.6.6 0 01.182-.442.6.6 0 01.442-.182h2.366a.6.6 0 01.442.182.568.568 0 01.208.442v1.872c0 .173-.061.32-.182.442a.636.636 0 01-.468.182h-2.366zM238.065 61a.6.6 0 01-.442-.182.6.6 0 01-.182-.442V48.104a.6.6 0 01.182-.442.6.6 0 01.442-.182h2.158c.19 0 .338.06.442.182.121.104.182.251.182.442v12.272c0 .173-.061.32-.182.442-.104.121-.252.182-.442.182h-2.158zm13.719.26c-1.785 0-3.172-.615-4.16-1.846v.962c0 .173-.061.32-.182.442-.104.121-.251.182-.442.182h-2.054a.602.602 0 01-.442-.182.603.603 0 01-.182-.442V43.164c0-.19.061-.338.182-.442a.602.602 0 01.442-.182h2.21c.191 0 .338.06.442.182.121.104.182.251.182.442v5.772c.988-1.144 2.323-1.716 4.004-1.716 1.751 0 3.094.572 4.03 1.716.936 1.144 1.439 2.626 1.508 4.446.017.208.026.485.026.832 0 .364-.009.65-.026.858-.069 1.872-.572 3.371-1.508 4.498-.936 1.127-2.279 1.69-4.03 1.69zm-.962-2.782c1.872 0 2.869-1.153 2.99-3.458.017-.173.026-.433.026-.78 0-.347-.009-.607-.026-.78-.121-2.305-1.118-3.458-2.99-3.458-.971 0-1.716.312-2.236.936-.503.607-.771 1.343-.806 2.21l-.026.988.026 1.014c.052.936.321 1.725.806 2.366.485.641 1.231.962 2.236.962zm9.939-13.234a.603.603 0 01-.442-.182.603.603 0 01-.182-.442v-1.872c0-.173.061-.32.182-.442a.603.603 0 01.442-.182h2.366a.6.6 0 01.442.182.565.565 0 01.208.442v1.872a.6.6 0 01-.182.442.633.633 0 01-.468.182h-2.366zM260.865 61a.603.603 0 01-.442-.182.603.603 0 01-.182-.442V48.104c0-.173.061-.32.182-.442a.603.603 0 01.442-.182h2.158c.191 0 .338.06.442.182.122.104.182.251.182.442v12.272a.6.6 0 01-.182.442c-.104.121-.251.182-.442.182h-2.158zm6.856 0a.602.602 0 01-.442-.182.603.603 0 01-.182-.442V48.104c0-.173.061-.32.182-.442a.602.602 0 01.442-.182h2.132a.6.6 0 01.442.182.603.603 0 01.182.442v1.066c1.023-1.3 2.47-1.95 4.342-1.95 1.595 0 2.86.529 3.796 1.586.936 1.04 1.404 2.461 1.404 4.264v7.306c0 .173-.061.32-.182.442-.104.121-.251.182-.442.182h-2.288a.602.602 0 01-.442-.182.603.603 0 01-.182-.442v-7.15c0-1.023-.251-1.811-.754-2.366-.485-.572-1.196-.858-2.132-.858-.919 0-1.647.286-2.184.858-.52.572-.78 1.36-.78 2.366v7.15c0 .173-.061.32-.182.442-.104.121-.251.182-.442.182h-2.288zm21.58.26c-2.028 0-3.596-.52-4.706-1.56-1.109-1.057-1.707-2.496-1.794-4.316l-.026-1.144.026-1.144c.087-1.803.694-3.233 1.82-4.29 1.127-1.057 2.687-1.586 4.68-1.586 1.994 0 3.554.529 4.68 1.586 1.127 1.057 1.734 2.487 1.82 4.29.018.208.026.59.026 1.144a16 16 0 01-.026 1.144c-.086 1.82-.684 3.259-1.794 4.316-1.109 1.04-2.678 1.56-4.706 1.56zm0-2.574c.919 0 1.63-.286 2.132-.858.503-.59.78-1.447.832-2.574.018-.173.026-.511.026-1.014s-.008-.84-.026-1.014c-.052-1.127-.329-1.976-.832-2.548-.502-.59-1.213-.884-2.132-.884-.918 0-1.629.295-2.132.884-.502.572-.78 1.421-.832 2.548l-.026 1.014.026 1.014c.052 1.127.33 1.985.832 2.574.503.572 1.214.858 2.132.858zM305.586 61a.6.6 0 01-.442-.182.6.6 0 01-.182-.442V43.45c0-.19.052-.347.156-.468a.633.633 0 01.468-.182h6.968c2.08 0 3.718.494 4.914 1.482 1.196.97 1.794 2.4 1.794 4.29 0 1.89-.598 3.32-1.794 4.29-1.179.953-2.817 1.43-4.914 1.43h-3.874v6.084c0 .173-.061.32-.182.442-.104.121-.252.182-.442.182h-2.47zm6.838-9.594c1.005 0 1.776-.234 2.314-.702.537-.485.806-1.196.806-2.132 0-.901-.26-1.603-.78-2.106-.52-.52-1.3-.78-2.34-.78h-3.796v5.72h3.796zM322.412 61a.603.603 0 01-.442-.182.603.603 0 01-.182-.442V48.13c0-.173.061-.32.182-.442a.568.568 0 01.442-.208h2.106a.63.63 0 01.468.182.63.63 0 01.182.468v1.066c.416-.555.936-.98 1.56-1.274.642-.295 1.37-.442 2.184-.442h1.066c.191 0 .338.06.442.182.122.104.182.251.182.442v1.872a.6.6 0 01-.182.442c-.104.121-.251.182-.442.182h-2.028c-.814 0-1.456.234-1.924.702-.468.468-.702 1.11-.702 1.924v7.15a.6.6 0 01-.182.442.633.633 0 01-.468.182h-2.262zm15.864.26c-1.924 0-3.458-.555-4.602-1.664-1.126-1.127-1.724-2.704-1.794-4.732l-.026-.65.026-.65c.087-1.976.694-3.527 1.82-4.654 1.144-1.127 2.67-1.69 4.576-1.69 2.046 0 3.623.624 4.732 1.872 1.127 1.248 1.69 2.912 1.69 4.992v.546a.6.6 0 01-.182.442.633.633 0 01-.468.182h-8.632v.208c.035.953.295 1.76.78 2.418.503.641 1.188.962 2.054.962 1.023 0 1.846-.399 2.47-1.196.156-.19.278-.312.364-.364.104-.052.252-.078.442-.078h2.236a.53.53 0 01.39.156c.122.087.182.2.182.338 0 .416-.251.91-.754 1.482-.485.555-1.187 1.04-2.106 1.456-.918.416-1.984.624-3.198.624zm2.886-8.19v-.078c0-1.023-.26-1.846-.78-2.47-.502-.624-1.204-.936-2.106-.936-.901 0-1.603.312-2.106.936-.502.624-.754 1.447-.754 2.47v.078h5.746zm6.92 7.93a.603.603 0 01-.442-.182.603.603 0 01-.182-.442V48.104c0-.173.061-.32.182-.442a.603.603 0 01.442-.182h2.028a.6.6 0 01.442.182.6.6 0 01.182.442v.884c.902-1.179 2.158-1.768 3.77-1.768 1.924 0 3.268.771 4.03 2.314.416-.693 1.006-1.248 1.768-1.664a4.918 4.918 0 012.47-.65c1.422 0 2.583.485 3.484 1.456.902.97 1.352 2.383 1.352 4.238v7.462a.6.6 0 01-.182.442c-.104.121-.251.182-.442.182h-2.132a.603.603 0 01-.442-.182.603.603 0 01-.182-.442v-7.254c0-1.092-.234-1.88-.702-2.366-.45-.503-1.057-.754-1.82-.754-.676 0-1.256.251-1.742.754-.468.503-.702 1.291-.702 2.366v7.254a.6.6 0 01-.182.442.6.6 0 01-.442.182h-2.132a.603.603 0 01-.442-.182.603.603 0 01-.182-.442v-7.254c0-1.092-.242-1.88-.728-2.366-.468-.503-1.066-.754-1.794-.754-.693 0-1.282.251-1.768.754-.468.503-.702 1.291-.702 2.366v7.254a.6.6 0 01-.182.442.6.6 0 01-.442.182h-2.184zm23.357-15.756a.602.602 0 01-.442-.182.603.603 0 01-.182-.442v-1.872c0-.173.061-.32.182-.442a.602.602 0 01.442-.182h2.366a.6.6 0 01.442.182.565.565 0 01.208.442v1.872c0 .173-.061.32-.182.442a.633.633 0 01-.468.182h-2.366zM371.543 61a.602.602 0 01-.442-.182.603.603 0 01-.182-.442V48.104c0-.173.061-.32.182-.442a.602.602 0 01.442-.182h2.158c.191 0 .338.06.442.182.121.104.182.251.182.442v12.272c0 .173-.061.32-.182.442-.104.121-.251.182-.442.182h-2.158zm11.25.26c-1.595 0-2.852-.52-3.77-1.56-.919-1.057-1.378-2.487-1.378-4.29v-7.306a.6.6 0 01.182-.442.6.6 0 01.442-.182h2.288c.19 0 .338.06.442.182.121.104.182.251.182.442v7.15c0 2.15.944 3.224 2.834 3.224.901 0 1.612-.286 2.132-.858.537-.572.806-1.36.806-2.366v-7.15a.6.6 0 01.182-.442.6.6 0 01.442-.182h2.288c.19 0 .338.06.442.182.121.104.182.251.182.442v12.272c0 .173-.061.32-.182.442-.104.121-.252.182-.442.182h-2.106a.6.6 0 01-.442-.182.6.6 0 01-.182-.442V59.31c-.971 1.3-2.418 1.95-4.342 1.95zm11.754-.26a.602.602 0 01-.442-.182.603.603 0 01-.182-.442V48.104c0-.173.061-.32.182-.442a.602.602 0 01.442-.182h2.028a.6.6 0 01.442.182.603.603 0 01.182.442v.884c.901-1.179 2.158-1.768 3.77-1.768 1.924 0 3.267.771 4.03 2.314.416-.693 1.005-1.248 1.768-1.664a4.918 4.918 0 012.47-.65c1.421 0 2.583.485 3.484 1.456.901.97 1.352 2.383 1.352 4.238v7.462c0 .173-.061.32-.182.442-.104.121-.251.182-.442.182h-2.132a.602.602 0 01-.442-.182.603.603 0 01-.182-.442v-7.254c0-1.092-.234-1.88-.702-2.366-.451-.503-1.057-.754-1.82-.754-.676 0-1.257.251-1.742.754-.468.503-.702 1.291-.702 2.366v7.254c0 .173-.061.32-.182.442a.602.602 0 01-.442.182h-2.132a.602.602 0 01-.442-.182.603.603 0 01-.182-.442v-7.254c0-1.092-.243-1.88-.728-2.366-.468-.503-1.066-.754-1.794-.754-.693 0-1.283.251-1.768.754-.468.503-.702 1.291-.702 2.366v7.254c0 .173-.061.32-.182.442a.602.602 0 01-.442.182h-2.184zM140.642 95.26a5.722 5.722 0 01-2.444-.52c-.728-.364-1.309-.85-1.742-1.456a3.464 3.464 0 01-.624-2.002c0-1.179.477-2.132 1.43-2.86.953-.728 2.262-1.222 3.926-1.482l3.562-.52v-.546c0-.763-.191-1.335-.572-1.716-.381-.381-.997-.572-1.846-.572-.572 0-1.04.113-1.404.338a4.311 4.311 0 00-.832.624c-.208.225-.347.373-.416.442-.069.208-.199.312-.39.312h-2.002a.62.62 0 01-.416-.156.562.562 0 01-.156-.416c.017-.433.225-.927.624-1.482.416-.555 1.049-1.031 1.898-1.43s1.889-.598 3.12-.598c2.045 0 3.536.46 4.472 1.378.936.919 1.404 2.123 1.404 3.614v8.164c0 .173-.061.32-.182.442-.104.121-.251.182-.442.182h-2.106a.602.602 0 01-.442-.182.603.603 0 01-.182-.442v-1.014c-.381.555-.927 1.014-1.638 1.378-.693.347-1.56.52-2.6.52zm.884-2.47c.953 0 1.733-.312 2.34-.936.607-.624.91-1.534.91-2.73v-.546l-2.6.416c-1.005.156-1.768.407-2.288.754-.503.347-.754.771-.754 1.274 0 .555.234.988.702 1.3.468.312 1.031.468 1.69.468zM156.049 95c-.26 0-.46-.052-.598-.156a1.302 1.302 0 01-.338-.494l-4.862-12.064-.052-.234a.53.53 0 01.156-.39.572.572 0 01.416-.182h2.106c.329 0 .554.165.676.494l3.458 9.126 3.458-9.126a1.08 1.08 0 01.234-.338.654.654 0 01.442-.156h2.132c.138 0 .26.06.364.182a.494.494 0 01.182.39.8.8 0 01-.026.234l-4.888 12.064c-.087.208-.2.373-.338.494-.139.104-.338.156-.598.156h-1.924zm15.487.26c-1.924 0-3.458-.555-4.602-1.664-1.127-1.127-1.725-2.704-1.794-4.732l-.026-.65.026-.65c.087-1.976.693-3.527 1.82-4.654 1.144-1.127 2.669-1.69 4.576-1.69 2.045 0 3.623.624 4.732 1.872 1.127 1.248 1.69 2.912 1.69 4.992v.546c0 .173-.061.32-.182.442a.633.633 0 01-.468.182h-8.632v.208c.035.953.295 1.76.78 2.418.503.641 1.187.962 2.054.962 1.023 0 1.846-.399 2.47-1.196.156-.19.277-.312.364-.364.104-.052.251-.078.442-.078h2.236a.53.53 0 01.39.156.4.4 0 01.182.338c0 .416-.251.91-.754 1.482-.485.555-1.187 1.04-2.106 1.456-.919.416-1.985.624-3.198.624zm2.886-8.19v-.078c0-1.023-.26-1.846-.78-2.47-.503-.624-1.205-.936-2.106-.936-.901 0-1.603.312-2.106.936-.503.624-.754 1.447-.754 2.47v.078h5.746zm12.146 8.19c-1.907 0-3.432-.529-4.576-1.586-1.127-1.057-1.725-2.522-1.794-4.394l-.026-1.04.026-1.04c.069-1.872.667-3.337 1.794-4.394 1.144-1.057 2.669-1.586 4.576-1.586 1.352 0 2.496.243 3.432.728.953.485 1.655 1.083 2.106 1.794.468.693.719 1.352.754 1.976a.495.495 0 01-.182.442.602.602 0 01-.442.182h-2.288a.74.74 0 01-.416-.104 1.44 1.44 0 01-.26-.416c-.26-.676-.607-1.161-1.04-1.456-.416-.295-.953-.442-1.612-.442-.884 0-1.577.286-2.08.858-.503.555-.771 1.404-.806 2.548l-.026.962.026.858c.069 2.27 1.031 3.406 2.886 3.406.676 0 1.222-.147 1.638-.442.416-.295.754-.78 1.014-1.456.087-.19.173-.32.26-.39a.63.63 0 01.416-.13h2.288a.6.6 0 01.442.182.495.495 0 01.182.442c-.035.607-.277 1.257-.728 1.95-.451.693-1.144 1.291-2.08 1.794-.936.503-2.097.754-3.484.754zm15.023-.26a.602.602 0 01-.442-.182.603.603 0 01-.182-.442V93.05c0-.468.217-.875.65-1.222l4.108-4.082c1.785-1.404 3.025-2.496 3.718-3.276.711-.797 1.066-1.577 1.066-2.34 0-.815-.225-1.456-.676-1.924-.433-.468-1.092-.702-1.976-.702-.867 0-1.551.26-2.054.78-.503.503-.815 1.161-.936 1.976a.802.802 0 01-.286.468.866.866 0 01-.468.13h-2.314a.53.53 0 01-.39-.156.499.499 0 01-.156-.364 5.957 5.957 0 01.832-2.86c.52-.901 1.274-1.62 2.262-2.158.988-.555 2.149-.832 3.484-.832 1.387 0 2.557.243 3.51.728.971.468 1.699 1.118 2.184 1.95.485.832.728 1.777.728 2.834 0 1.161-.329 2.21-.988 3.146-.641.936-1.629 1.941-2.964 3.016l-3.692 3.744h7.41c.191 0 .338.06.442.182.121.104.182.251.182.442v1.846c0 .173-.061.32-.182.442-.104.121-.251.182-.442.182h-12.428zm21.506 0a.6.6 0 01-.442-.182.6.6 0 01-.182-.442V80.908l-3.952 3.042a.552.552 0 01-.364.13c-.208 0-.382-.095-.52-.286l-1.092-1.404a.741.741 0 01-.13-.39c0-.208.095-.381.286-.52l5.824-4.498c.156-.121.372-.182.65-.182h2.288c.19 0 .338.06.442.182.121.104.182.251.182.442v16.952c0 .173-.061.32-.182.442-.104.121-.252.182-.442.182h-2.366zm15.766-9.048c-1.144 0-2.063-.303-2.756-.91-.676-.607-1.049-1.43-1.118-2.47a21.188 21.188 0 01-.026-1.17c0-.52.009-.936.026-1.248.069-1.075.433-1.924 1.092-2.548.659-.624 1.586-.936 2.782-.936s2.123.312 2.782.936c.676.624 1.04 1.473 1.092 2.548.035.693.052 1.144.052 1.352 0 .19-.017.546-.052 1.066-.052 1.04-.425 1.863-1.118 2.47-.676.607-1.595.91-2.756.91zM236.731 95a.588.588 0 01-.39-.13.53.53 0 01-.156-.39c0-.104.035-.2.104-.286l12.818-16.9a1.48 1.48 0 01.39-.364c.121-.087.286-.13.494-.13h1.378c.173 0 .303.052.39.156a.448.448 0 01.156.364.45.45 0 01-.104.286l-12.818 16.9a2.079 2.079 0 01-.39.39c-.121.07-.286.104-.494.104h-1.378zm2.132-10.972c.503 0 .875-.147 1.118-.442.243-.312.381-.693.416-1.144.035-.59.052-.953.052-1.092 0-.19-.017-.546-.052-1.066-.017-.45-.156-.823-.416-1.118-.243-.312-.615-.468-1.118-.468-.503 0-.875.156-1.118.468-.243.295-.373.667-.39 1.118-.017.26-.026.615-.026 1.066 0 .433.009.797.026 1.092.035.45.165.832.39 1.144.243.295.615.442 1.118.442zm10.374 11.128c-1.144 0-2.063-.312-2.756-.936-.676-.641-1.049-1.49-1.118-2.548a21.188 21.188 0 01-.026-1.17c0-.503.009-.91.026-1.222.069-1.075.433-1.924 1.092-2.548.659-.624 1.586-.936 2.782-.936s2.123.312 2.782.936c.676.624 1.04 1.473 1.092 2.548.035.693.052 1.135.052 1.326 0 .19-.017.546-.052 1.066-.069 1.057-.451 1.907-1.144 2.548-.676.624-1.586.936-2.73.936zm0-2.028c.52 0 .893-.147 1.118-.442.243-.312.381-.685.416-1.118.035-.59.052-.953.052-1.092 0-.19-.017-.546-.052-1.066-.017-.45-.156-.832-.416-1.144-.243-.312-.615-.468-1.118-.468-.503 0-.875.156-1.118.468-.243.295-.381.676-.416 1.144-.017.26-.026.615-.026 1.066 0 .433.009.797.026 1.092.052.45.191.823.416 1.118.243.295.615.442 1.118.442zm17.698 2.132c-1.75 0-3.094-.563-4.03-1.69-.936-1.127-1.438-2.626-1.508-4.498l-.026-.858.026-.832c.052-1.82.546-3.302 1.482-4.446.954-1.144 2.306-1.716 4.056-1.716 1.682 0 3.016.572 4.004 1.716v-5.772c0-.19.061-.338.182-.442a.603.603 0 01.442-.182h2.21c.191 0 .338.06.442.182.122.104.182.251.182.442v17.212a.6.6 0 01-.182.442c-.104.121-.251.182-.442.182h-2.054a.603.603 0 01-.442-.182.603.603 0 01-.182-.442v-.962c-.988 1.23-2.374 1.846-4.16 1.846zm.962-2.782c1.006 0 1.751-.32 2.236-.962.486-.641.754-1.43.806-2.366.018-.208.026-.546.026-1.014 0-.45-.008-.78-.026-.988-.034-.867-.312-1.603-.832-2.21-.502-.624-1.239-.936-2.21-.936-1.872 0-2.868 1.153-2.99 3.458l-.026.78.026.78c.122 2.305 1.118 3.458 2.99 3.458zm15.789 2.782c-1.924 0-3.458-.555-4.602-1.664-1.126-1.127-1.724-2.704-1.794-4.732l-.026-.65.026-.65c.087-1.976.694-3.527 1.82-4.654 1.144-1.127 2.67-1.69 4.576-1.69 2.046 0 3.623.624 4.732 1.872 1.127 1.248 1.69 2.912 1.69 4.992v.546a.6.6 0 01-.182.442.633.633 0 01-.468.182h-8.632v.208c.035.953.295 1.76.78 2.418.503.641 1.188.962 2.054.962 1.023 0 1.846-.399 2.47-1.196.156-.19.278-.312.364-.364.104-.052.252-.078.442-.078h2.236a.53.53 0 01.39.156c.122.087.182.2.182.338 0 .416-.251.91-.754 1.482-.485.555-1.187 1.04-2.106 1.456-.918.416-1.984.624-3.198.624zm2.886-8.19v-.078c0-1.023-.26-1.846-.78-2.47-.502-.624-1.204-.936-2.106-.936-.901 0-1.603.312-2.106.936-.502.624-.754 1.447-.754 2.47v.078h5.746zM299.434 95a.6.6 0 01-.442-.182.6.6 0 01-.182-.442V82.13a.6.6 0 01.182-.442.565.565 0 01.442-.208h2.106c.19 0 .346.06.468.182a.635.635 0 01.182.468v1.066c.416-.555.936-.98 1.56-1.274.641-.295 1.369-.442 2.184-.442H307c.19 0 .338.06.442.182.121.104.182.251.182.442v1.872c0 .173-.061.32-.182.442-.104.121-.252.182-.442.182h-2.028c-.815 0-1.456.234-1.924.702-.468.468-.702 1.11-.702 1.924v7.15c0 .173-.061.32-.182.442a.636.636 0 01-.468.182h-2.262zm15.864.26c-1.924 0-3.458-.555-4.602-1.664-1.127-1.127-1.725-2.704-1.794-4.732l-.026-.65.026-.65c.086-1.976.693-3.527 1.82-4.654 1.144-1.127 2.669-1.69 4.576-1.69 2.045 0 3.622.624 4.732 1.872 1.126 1.248 1.69 2.912 1.69 4.992v.546c0 .173-.061.32-.182.442a.636.636 0 01-.468.182h-8.632v.208c.034.953.294 1.76.78 2.418.502.641 1.187.962 2.054.962 1.022 0 1.846-.399 2.47-1.196.156-.19.277-.312.364-.364.104-.052.251-.078.442-.078h2.236a.53.53 0 01.39.156.4.4 0 01.182.338c0 .416-.252.91-.754 1.482-.486.555-1.188 1.04-2.106 1.456-.919.416-1.985.624-3.198.624zm2.886-8.19v-.078c0-1.023-.26-1.846-.78-2.47-.503-.624-1.205-.936-2.106-.936-.902 0-1.604.312-2.106.936-.503.624-.754 1.447-.754 2.47v.078h5.746zm-3.978-7.54c-.278 0-.416-.139-.416-.416 0-.139.043-.251.13-.338l2.106-2.574c.173-.19.32-.312.442-.364.138-.07.312-.104.52-.104h2.6c.329 0 .494.165.494.494a.428.428 0 01-.13.312l-3.224 2.652a1.732 1.732 0 01-.442.26 1.282 1.282 0 01-.494.078h-1.586zm15.292 15.73c-1.751 0-3.094-.563-4.03-1.69-.936-1.127-1.439-2.626-1.508-4.498l-.026-.858.026-.832c.052-1.82.546-3.302 1.482-4.446.953-1.144 2.305-1.716 4.056-1.716 1.681 0 3.016.572 4.004 1.716v-5.772c0-.19.06-.338.182-.442a.6.6 0 01.442-.182h2.21c.19 0 .338.06.442.182.121.104.182.251.182.442v17.212c0 .173-.061.32-.182.442-.104.121-.252.182-.442.182h-2.054a.6.6 0 01-.442-.182.6.6 0 01-.182-.442v-.962c-.988 1.23-2.375 1.846-4.16 1.846zm.962-2.782c1.005 0 1.75-.32 2.236-.962.485-.641.754-1.43.806-2.366.017-.208.026-.546.026-1.014 0-.45-.009-.78-.026-.988-.035-.867-.312-1.603-.832-2.21-.503-.624-1.24-.936-2.21-.936-1.872 0-2.869 1.153-2.99 3.458l-.026.78.026.78c.121 2.305 1.118 3.458 2.99 3.458zm14.983 2.782c-1.595 0-2.851-.52-3.77-1.56-.919-1.057-1.378-2.487-1.378-4.29v-7.306c0-.173.061-.32.182-.442a.602.602 0 01.442-.182h2.288c.191 0 .338.06.442.182.121.104.182.251.182.442v7.15c0 2.15.945 3.224 2.834 3.224.901 0 1.612-.286 2.132-.858.537-.572.806-1.36.806-2.366v-7.15c0-.173.061-.32.182-.442a.602.602 0 01.442-.182h2.288c.191 0 .338.06.442.182.121.104.182.251.182.442v12.272c0 .173-.061.32-.182.442-.104.121-.251.182-.442.182h-2.106a.602.602 0 01-.442-.182.603.603 0 01-.182-.442V93.31c-.971 1.3-2.418 1.95-4.342 1.95zm16.98 0c-1.906 0-3.432-.529-4.576-1.586-1.126-1.057-1.724-2.522-1.794-4.394l-.026-1.04.026-1.04c.07-1.872.668-3.337 1.794-4.394 1.144-1.057 2.67-1.586 4.576-1.586 1.352 0 2.496.243 3.432.728.954.485 1.656 1.083 2.106 1.794.468.693.72 1.352.754 1.976a.492.492 0 01-.182.442.6.6 0 01-.442.182h-2.288a.74.74 0 01-.416-.104 1.461 1.461 0 01-.26-.416c-.26-.676-.606-1.161-1.04-1.456-.416-.295-.953-.442-1.612-.442-.884 0-1.577.286-2.08.858-.502.555-.771 1.404-.806 2.548l-.026.962.026.858c.07 2.27 1.032 3.406 2.886 3.406.676 0 1.222-.147 1.638-.442.416-.295.754-.78 1.014-1.456.087-.19.174-.32.26-.39a.63.63 0 01.416-.13h2.288a.6.6 0 01.442.182c.139.121.2.269.182.442-.034.607-.277 1.257-.728 1.95-.45.693-1.144 1.291-2.08 1.794-.936.503-2.097.754-3.484.754zm15.114-.26c-1.577 0-2.765-.407-3.562-1.222-.78-.832-1.17-2.045-1.17-3.64v-5.902h-2.054a.602.602 0 01-.442-.182.694.694 0 01-.182-.468v-1.482c0-.173.061-.32.182-.442a.602.602 0 01.442-.182h2.054v-4.316c0-.19.061-.338.182-.442a.602.602 0 01.442-.182h2.106c.191 0 .338.06.442.182.121.104.182.251.182.442v4.316h3.25c.191 0 .338.06.442.182.121.104.182.251.182.442v1.482c0 .19-.061.347-.182.468a.602.602 0 01-.442.182h-3.25v5.642c0 .745.13 1.309.39 1.69s.693.572 1.3.572h1.794a.6.6 0 01.442.182.603.603 0 01.182.442v1.612c0 .173-.061.32-.182.442-.104.121-.251.182-.442.182h-2.106zm5.556-15.756a.603.603 0 01-.442-.182.603.603 0 01-.182-.442v-1.872c0-.173.061-.32.182-.442a.603.603 0 01.442-.182h2.366a.6.6 0 01.442.182.565.565 0 01.208.442v1.872a.6.6 0 01-.182.442.633.633 0 01-.468.182h-2.366zM383.197 95a.603.603 0 01-.442-.182.603.603 0 01-.182-.442V82.104c0-.173.061-.32.182-.442a.603.603 0 01.442-.182h2.158c.191 0 .338.06.442.182.122.104.182.251.182.442v12.272a.6.6 0 01-.182.442c-.104.121-.251.182-.442.182h-2.158zm12.212.26c-2.028 0-3.597-.52-4.706-1.56-1.109-1.057-1.707-2.496-1.794-4.316l-.026-1.144.026-1.144c.087-1.803.693-3.233 1.82-4.29 1.127-1.057 2.687-1.586 4.68-1.586 1.993 0 3.553.529 4.68 1.586 1.127 1.057 1.733 2.487 1.82 4.29.017.208.026.59.026 1.144 0 .555-.009.936-.026 1.144-.087 1.82-.685 3.259-1.794 4.316-1.109 1.04-2.678 1.56-4.706 1.56zm0-2.574c.919 0 1.629-.286 2.132-.858.503-.59.78-1.447.832-2.574.017-.173.026-.511.026-1.014s-.009-.84-.026-1.014c-.052-1.127-.329-1.976-.832-2.548-.503-.59-1.213-.884-2.132-.884s-1.629.295-2.132.884c-.503.572-.78 1.421-.832 2.548l-.026 1.014.026 1.014c.052 1.127.329 1.985.832 2.574.503.572 1.213.858 2.132.858zM405.44 95a.6.6 0 01-.442-.182.6.6 0 01-.182-.442V82.104a.6.6 0 01.182-.442.6.6 0 01.442-.182h2.132a.6.6 0 01.442.182.603.603 0 01.182.442v1.066c1.022-1.3 2.47-1.95 4.342-1.95 1.594 0 2.86.529 3.796 1.586.936 1.04 1.404 2.461 1.404 4.264v7.306c0 .173-.061.32-.182.442-.104.121-.252.182-.442.182h-2.288a.6.6 0 01-.442-.182.6.6 0 01-.182-.442v-7.15c0-1.023-.252-1.811-.754-2.366-.486-.572-1.196-.858-2.132-.858-.919 0-1.647.286-2.184.858-.52.572-.78 1.36-.78 2.366v7.15c0 .173-.061.32-.182.442-.104.121-.252.182-.442.182h-2.288z" fill="#fff"/>
  <path d="M448 63l7 7-7 7" stroke="#fff" stroke-width="3" stroke-linecap="round"/>
  <defs>
    <clipPath id="giftcard-banner-fr__clip0">
      <path fill="#fff" d="M0 0h487v140H0z"/>
    </clipPath>
  </defs>
</svg>
