<svg xmlns="http://www.w3.org/2000/svg" xmlns:xlink="http://www.w3.org/1999/xlink" width="160" height="48" viewBox="0 0 160 48"><defs><linearGradient id="prefix__c" x1="61.293%" x2="25.961%" y1="95.567%" y2="27.836%"><stop offset="0%" stop-color="#00A0FF"/><stop offset=".657%" stop-color="#00A1FF"/><stop offset="26.01%" stop-color="#00BEFF"/><stop offset="51.22%" stop-color="#00D2FF"/><stop offset="76.04%" stop-color="#00DFFF"/><stop offset="100%" stop-color="#00E3FF"/></linearGradient><linearGradient id="prefix__f" x1="107.59%" x2="-130.464%" y1="50.868%" y2="50.868%"><stop offset="0%" stop-color="#FFE000"/><stop offset="40.87%" stop-color="#FFBD00"/><stop offset="77.54%" stop-color="orange"/><stop offset="100%" stop-color="#FF9C00"/></linearGradient><linearGradient id="prefix__i" x1="86.725%" x2="-50.48%" y1="69.328%" y2="-37.051%"><stop offset="0%" stop-color="#FF3A44"/><stop offset="100%" stop-color="#C31162"/></linearGradient><linearGradient id="prefix__l" x1="-19.33%" x2="41.841%" y1="112.411%" y2="65.059%"><stop offset="0%" stop-color="#32A071"/><stop offset="6.85%" stop-color="#2DA771"/><stop offset="47.62%" stop-color="#15CF74"/><stop offset="80.09%" stop-color="#06E775"/><stop offset="100%" stop-color="#00F076"/></linearGradient><linearGradient id="prefix__o" x1="6809.6%" x2="-17387.4%" y1="4300.35%" y2="4300.35%"><stop offset="0%" stop-color="#CCB300"/><stop offset="40.87%" stop-color="#CC9700"/><stop offset="77.54%" stop-color="#CC8400"/><stop offset="100%" stop-color="#CC7D00"/></linearGradient><linearGradient id="prefix__r" x1="86.247%" x2="-50.141%" y1="69.439%" y2="-1.911%"><stop offset="0%" stop-color="#CC2E36"/><stop offset="100%" stop-color="#9C0E4E"/></linearGradient><linearGradient id="prefix__u" x1="308.135%" x2="-66.666%" y1="1531.751%" y2="449.568%"><stop offset="0%" stop-color="#008DE0"/><stop offset=".657%" stop-color="#008DE0"/><stop offset="26.01%" stop-color="#00A7E0"/><stop offset="51.22%" stop-color="#00B8E0"/><stop offset="76.04%" stop-color="#00C4E0"/><stop offset="100%" stop-color="#00C7E0"/></linearGradient><linearGradient id="prefix__x" x1="14404.35%" x2="-8353.95%" y1="10180.7%" y2="-12577.6%"><stop offset="0%" stop-color="#E0333C"/><stop offset="100%" stop-color="#AB0F56"/></linearGradient><linearGradient id="prefix__A" x1="112.786%" x2="-288.225%" y1="100.021%" y2="100.021%"><stop offset="0%" stop-color="#E0C500"/><stop offset="40.87%" stop-color="#E0A600"/><stop offset="77.54%" stop-color="#E09100"/><stop offset="100%" stop-color="#E08900"/></linearGradient><linearGradient id="prefix__D" x1="112.785%" x2="-288.199%" y1="-.024%" y2="-.024%"><stop offset="0%" stop-color="#FFE840"/><stop offset="40.87%" stop-color="#FFCE40"/><stop offset="77.54%" stop-color="#FFBC40"/><stop offset="100%" stop-color="#FFB540"/></linearGradient><linearGradient id="prefix__G" x1="686.865%" x2="-237.819%" y1="23.382%" y2="-1009.832%"><stop offset="0%" stop-color="#40B8FF"/><stop offset=".657%" stop-color="#40B9FF"/><stop offset="26.01%" stop-color="#40CEFF"/><stop offset="51.22%" stop-color="#40DDFF"/><stop offset="76.04%" stop-color="#40E7FF"/><stop offset="100%" stop-color="#40EAFF"/></linearGradient><linearGradient id="prefix__J" x1="-18.807%" x2="42.096%" y1="85.52%" y2="53.658%"><stop offset="0%" stop-color="#65B895"/><stop offset="6.85%" stop-color="#62BD95"/><stop offset="47.62%" stop-color="#50DB97"/><stop offset="80.09%" stop-color="#44ED98"/><stop offset="100%" stop-color="#40F498"/></linearGradient><path id="prefix__a" d="M.723.012L.635.097C.29.462.086 1.028.086 1.762v-.173V27.8v-.173c0 .795.238 1.393.635 1.752l14.685-14.684L.723.012M.086 27.808c0 .066.002.13.005.192-.003-.062-.005-.126-.005-.192"/><path id="prefix__d" d="M5.01.025l.112.064 5.8 3.295c.552.314.92.695 1.104 1.098-.183-.403-.552-.784-1.105-1.099L5.122.088 5.011.025M5.012.2L.117 5.095l4.895 4.896 5.91-3.358c.75-.426 1.171-.976 1.241-1.537v-.002c-.07-.56-.491-1.11-1.242-1.537L5.012.199"/><path id="prefix__g" d="M1.177.046C.767.046.409.179.13.43.41.18.768.047 1.178.047c.035 0 .072 0 .108.003l-.11-.003m.001.173C.767.22.41.353.13.605l14.683 14.683 4.895-4.896L2.505.617C2.03.347 1.578.22 1.177.22M.126.434C.1.458.075.483.05.51L.126.434"/><path id="prefix__j" d="M14.694.118L.01 14.8c.28.252.637.385 1.046.385.402 0 .854-.128 1.33-.398L19.59 5.013 14.694.118M19.7 5.124L2.387 14.96c-.477.27-.929.398-1.33.398H1.05h.007c.401 0 .852-.127 1.329-.398L19.7 5.124"/><path id="prefix__m" d="M0.033 0.144L0.033 0.144 0.144 0.207 0.033 0.144"/><path id="prefix__p" d="M1.178.046C.768.046.409.18.13.432L.126.433.05.51.042.517.13.605C.41.353.767.219 1.177.219c.401 0 .852.128 1.328.398l17.203 9.775.11-.11-.111-.064L2.505.444C2.071.198 1.66.07 1.286.049L1.178.046"/><path id="prefix__s" d="M.635.043C.29.407.086.973.086 1.708v.173c0-.734.204-1.3.549-1.666L.723.131.635.043"/><path id="prefix__v" d="M0.042 0.043L0.042 0.043 0.042 0.043 0.13 0.131 0.13 0.131 0.042 0.043"/><path id="prefix__y" d="M.144.089l-.11.11 5.91 3.358c.75.426 1.171.976 1.242 1.537 0-.206-.046-.412-.137-.612-.184-.403-.553-.784-1.106-1.098L.144.089"/><path id="prefix__B" d="M7.186 0c-.07.561-.492 1.11-1.243 1.537L.033 4.894l.111.11 5.8-3.294C6.77 1.24 7.184.62 7.185 0"/><path id="prefix__E" d="M.086.012v.182c0 .065.002.129.005.19V.398c.036.632.233 1.125.544 1.454l.086-.087C.324 1.406.086.807.086.012"/><path id="prefix__H" d="M19.708.035L2.505 9.81c-.477.27-.928.398-1.33.398-.41 0-.767-.133-1.046-.384l-.087.087c.027.028.055.056.084.082l.004.003c.277.25.63.383 1.036.386H1.175c.402 0 .853-.129 1.33-.4L19.82.147l-.111-.11"/></defs><g fill="none" fill-rule="evenodd"><g transform="matrix(1 0 0 -1 0 48)"><rect width="160" height="48" fill="#000" rx="8"/><path fill="#FFF" fill-rule="nonzero" d="M127.035 12.148h2.212v14.816h-2.212V12.148zm19.92 9.48l-2.535-6.424h-.076l-2.631 6.423h-2.383l3.946-8.978-2.25-4.994h2.308l6.08 13.972h-2.46zm-12.542-7.797c-.725 0-1.735.362-1.735 1.258 0 1.144 1.259 1.582 2.344 1.582.973 0 1.43-.21 2.021-.496-.172-1.372-1.354-2.344-2.63-2.344zm.267 8.12c-1.601 0-3.26-.705-3.946-2.268l1.963-.82c.42.82 1.2 1.087 2.02 1.087 1.144 0 2.307-.687 2.326-1.907v-.152c-.4.229-1.258.572-2.306.572-2.116 0-4.27-1.162-4.27-3.336 0-1.982 1.734-3.26 3.678-3.26 1.488 0 2.307.668 2.822 1.45h.076v-1.144h2.134v5.68c0 2.63-1.962 4.098-4.497 4.098zm-13.668-2.127h-3.145v5.078h3.145c1.653 0 2.592-1.369 2.592-2.539 0-1.148-.939-2.54-2.592-2.54zm-.057 7.14h-5.299V12.148h2.21v5.614h3.09c2.45 0 4.86 1.774 4.86 4.601s-2.41 4.601-4.86 4.601zM92.06 13.828c-1.528 0-2.807 1.28-2.807 3.036 0 1.776 1.28 3.074 2.807 3.074 1.509 0 2.692-1.298 2.692-3.074 0-1.757-1.183-3.036-2.692-3.036zm2.54 6.97h-.077c-.496.591-1.451 1.126-2.654 1.126-2.52 0-4.83-2.215-4.83-5.06 0-2.826 2.31-5.021 4.83-5.021 1.203 0 2.158.534 2.654 1.145h.077v-.725c0-1.93-1.031-2.96-2.693-2.96-1.355 0-2.195.974-2.54 1.795l-1.928-.802c.554-1.337 2.025-2.979 4.468-2.979 2.597 0 4.793 1.528 4.793 5.251v9.05h-2.1v-.82zm3.627-8.65h2.215v14.817h-2.215V12.148zm5.48 4.888c-.057 1.948 1.509 2.94 2.635 2.94.88 0 1.623-.438 1.871-1.07l-4.506-1.87zm6.874 1.68c-.42 1.127-1.7 3.208-4.315 3.208-2.597 0-4.754-2.043-4.754-5.04 0-2.827 2.138-5.041 5.002-5.041 2.31 0 3.648 1.413 4.201 2.233l-1.718 1.146c-.573-.84-1.356-1.394-2.483-1.394-1.126 0-1.928.516-2.444 1.528l6.74 2.788-.229.572zm-53.698 1.661V18.24h5.117c-.153-1.203-.554-2.081-1.165-2.692-.745-.745-1.91-1.566-3.952-1.566-3.151 0-5.614 2.54-5.614 5.69 0 3.15 2.463 5.69 5.614 5.69 1.699 0 2.94-.668 3.856-1.528l1.509 1.509c-1.28 1.222-2.979 2.157-5.365 2.157-4.316 0-7.944-3.513-7.944-7.828s3.628-7.828 7.944-7.828c2.33 0 4.086.763 5.46 2.195 1.413 1.413 1.852 3.399 1.852 5.003 0 .497-.038.954-.114 1.336h-7.198zm13.13-6.549c-1.528 0-2.845 1.26-2.845 3.055 0 1.814 1.317 3.055 2.845 3.055 1.527 0 2.845-1.24 2.845-3.055 0-1.795-1.318-3.055-2.845-3.055zm0 8.096c-2.788 0-5.06-2.12-5.06-5.04 0-2.903 2.272-5.041 5.06-5.041s5.06 2.138 5.06 5.04c0 2.922-2.272 5.041-5.06 5.041zm11.038-8.096c-1.527 0-2.845 1.26-2.845 3.055 0 1.814 1.318 3.055 2.845 3.055 1.527 0 2.845-1.24 2.845-3.055 0-1.795-1.318-3.055-2.845-3.055zm0 8.096c-2.788 0-5.06-2.12-5.06-5.04 0-2.903 2.272-5.041 5.06-5.041s5.06 2.138 5.06 5.04c0 2.922-2.272 5.041-5.06 5.041"/><g transform="translate(12.03 9.304)"><mask id="prefix__b" fill="#fff"><use xlink:href="#prefix__a"/></mask><g fill="url(#prefix__c)" fill-rule="nonzero" mask="url(#prefix__b)"><path d="M.723.012L.635.097C.29.462.086 1.028.086 1.762v-.173V27.8v-.173c0 .795.238 1.393.635 1.752l14.685-14.684L.723.012M.086 27.808c0 .066.002.13.005.192-.003-.062-.005-.126-.005-.192"/></g></g><g transform="translate(27.319 18.904)"><mask id="prefix__e" fill="#fff"><use xlink:href="#prefix__d"/></mask><g fill="url(#prefix__f)" fill-rule="nonzero" mask="url(#prefix__e)"><path d="M5.01.025l.112.064 5.8 3.295c.552.314.92.695 1.104 1.098-.183-.403-.552-.784-1.105-1.099L5.122.088 5.011.025M5.012.2L.117 5.095l4.895 4.896 5.91-3.358c.75-.426 1.171-.976 1.241-1.537v-.002c-.07-.56-.491-1.11-1.242-1.537L5.012.199"/></g></g><g transform="translate(12.622 8.711)"><mask id="prefix__h" fill="#fff"><use xlink:href="#prefix__g"/></mask><g fill="url(#prefix__i)" fill-rule="nonzero" mask="url(#prefix__h)"><path d="M1.177.046C.767.046.409.179.13.43.41.18.768.047 1.178.047c.035 0 .072 0 .108.003l-.11-.003m.001.173C.767.22.41.353.13.605l14.683 14.683 4.895-4.896L2.505.617C2.03.347 1.578.22 1.177.22M.126.434C.1.458.075.483.05.51L.126.434"/></g></g><g transform="translate(12.74 23.881)"><mask id="prefix__k" fill="#fff"><use xlink:href="#prefix__j"/></mask><g fill="url(#prefix__l)" fill-rule="nonzero" mask="url(#prefix__k)"><path d="M14.694.118L.01 14.8c.28.252.637.385 1.046.385.402 0 .854-.128 1.33-.398L19.59 5.013 14.694.118M19.7 5.124L2.387 14.96c-.477.27-.929.398-1.33.398H1.05h.007c.401 0 .852-.127 1.329-.398L19.7 5.124"/></g></g><path fill="#000" fill-rule="nonzero" d="M13.908 8.76c.373.021.786.15 1.22.395l17.201 9.774-17.202-9.774c-.433-.246-.846-.374-1.219-.395"/><g transform="translate(32.296 18.785)"><mask id="prefix__n" fill="#fff"><use xlink:href="#prefix__m"/></mask><g fill="url(#prefix__o)" fill-rule="nonzero" mask="url(#prefix__n)"><path d="M0.033 0.144L0.033 0.144 0.144 0.207 0.033 0.144"/></g></g><g transform="translate(12.622 8.711)"><mask id="prefix__q" fill="#fff"><use xlink:href="#prefix__p"/></mask><g fill="url(#prefix__r)" fill-rule="nonzero" mask="url(#prefix__q)"><path d="M1.178.046C.768.046.409.18.13.432L.126.433.05.51.042.517.13.605C.41.353.767.219 1.177.219c.401 0 .852.128 1.328.398l17.203 9.775.11-.11-.111-.064L2.505.444C2.071.198 1.66.07 1.286.049L1.178.046"/></g></g><path fill="#000" fill-rule="nonzero" d="M12.664 9.227c-.345.365-.548.932-.548 1.666 0-.734.203-1.3.548-1.665"/><g transform="translate(12.03 9.185)"><mask id="prefix__t" fill="#fff"><use xlink:href="#prefix__s"/></mask><g fill="url(#prefix__u)" fill-rule="nonzero" mask="url(#prefix__t)"><path d="M.635.043C.29.407.086.973.086 1.708v.173c0-.734.204-1.3.549-1.666L.723.131.635.043"/></g></g><g transform="translate(12.622 9.185)"><mask id="prefix__w" fill="#fff"><use xlink:href="#prefix__v"/></mask><g fill="url(#prefix__x)" fill-rule="nonzero" mask="url(#prefix__w)"><path d="M0.042 0.043L0.042 0.043 0.042 0.043 0.13 0.131 0.13 0.131 0.042 0.043"/></g></g><path fill="#000" fill-rule="nonzero" d="M39.345 23.386c.091.2.137.406.137.611v.001c0-.206-.046-.411-.137-.612"/><g transform="translate(32.296 18.904)"><mask id="prefix__z" fill="#fff"><use xlink:href="#prefix__y"/></mask><g fill="url(#prefix__A)" fill-rule="nonzero" mask="url(#prefix__z)"><path d="M.144.089l-.11.11 5.91 3.358c.75.426 1.171.976 1.242 1.537 0-.206-.046-.412-.137-.612-.184-.403-.553-.784-1.106-1.098L.144.089"/></g></g><path fill="#404040" fill-rule="nonzero" d="M39.482 24c0 .62-.415 1.24-1.242 1.71l-5.8 3.295 5.8-3.295c.828-.47 1.243-1.091 1.242-1.71"/><g transform="translate(32.296 24)"><mask id="prefix__C" fill="#fff"><use xlink:href="#prefix__B"/></mask><g fill="url(#prefix__D)" fill-rule="nonzero" mask="url(#prefix__C)"><path d="M7.186 0c-.07.561-.492 1.11-1.243 1.537L.033 4.894l.111.11 5.8-3.294C6.77 1.24 7.184.62 7.185 0"/></g></g><path fill="#404040" fill-rule="nonzero" d="M12.121 37.316c.069 1.217.73 1.92 1.667 1.925-.406-.003-.76-.136-1.036-.385l-.003-.003c-.03-.027-.057-.054-.085-.083-.31-.33-.507-.822-.543-1.454"/><g transform="translate(12.03 36.919)"><mask id="prefix__F" fill="#fff"><use xlink:href="#prefix__E"/></mask><g fill="url(#prefix__G)" fill-rule="nonzero" mask="url(#prefix__F)"><path d="M.086.012v.182c0 .065.002.129.005.19V.398c.036.632.233 1.125.544 1.454l.086-.087C.324 1.406.086.807.086.012"/></g></g><path fill="#404040" fill-rule="nonzero" d="M13.788 39.24h.004-.004"/><g transform="translate(12.622 28.86)"><mask id="prefix__I" fill="#fff"><use xlink:href="#prefix__H"/></mask><g fill="url(#prefix__J)" fill-rule="nonzero" mask="url(#prefix__I)"><path d="M19.708.035L2.505 9.81c-.477.27-.928.398-1.33.398-.41 0-.767-.133-1.046-.384l-.087.087c.027.028.055.056.084.082l.004.003c.277.25.63.383 1.036.386H1.175c.402 0 .853-.129 1.33-.4L19.82.147l-.111-.11"/></g></g></g><path fill="#FFF" fill-rule="nonzero" d="M50.804 16v-3.19h1.672c.69 0 1.269-.224 1.738-.671.484-.447.726-1.005.726-1.672 0-.653-.242-1.206-.726-1.661-.477-.455-1.056-.682-1.738-.682h-2.684V16h1.012zm1.694-4.158h-1.694v-2.75h1.694c.403 0 .737.14 1.001.418.271.271.407.59.407.957 0 .374-.136.697-.407.968-.264.271-.598.407-1.001.407zM56.608 16v-3.19h1.122L59.853 16h1.199v-.044l-2.211-3.201.022-.033c.543-.117.992-.387 1.348-.808.355-.422.533-.904.533-1.447 0-.66-.24-1.216-.72-1.667-.48-.45-1.062-.676-1.744-.676h-2.684V16h1.012zm1.628-4.136h-1.628V9.092h1.694c.403 0 .739.137 1.007.412.267.276.401.596.401.963 0 .396-.143.728-.429.995-.286.268-.634.402-1.045.402zM66.152 16v-.968h-3.586v-2.497H65.8v-.946h-3.234V9.092h3.586v-.968h-4.598V16h4.598zm4.308-2.992v-.836h-3.52v.836h3.52zM72.48 16v-3.19h1.122L75.725 16h1.199v-.044l-2.211-3.201.022-.033c.543-.117.992-.387 1.347-.808.356-.422.534-.904.534-1.447 0-.66-.24-1.216-.72-1.667-.48-.45-1.062-.676-1.744-.676h-2.684V16h1.012zm1.628-4.136H72.48V9.092h1.694c.403 0 .739.137 1.006.412.268.276.402.596.402.963 0 .396-.143.728-.429.995-.286.268-.634.402-1.045.402zM82.024 16v-.968h-3.586v-2.497h3.234v-.946h-3.234V9.092h3.586v-.968h-4.598V16h4.598zm4.451.176c1.195 0 2.16-.389 2.893-1.166.653-.653.979-1.529.979-2.629 0-.19-.018-.389-.055-.594h-3.817v.946h2.86c-.08.77-.381 1.375-.902 1.815-.52.44-1.173.66-1.958.66-.858 0-1.584-.297-2.178-.891-.587-.601-.88-1.353-.88-2.255 0-.902.293-1.654.88-2.255.594-.594 1.32-.891 2.178-.891.44 0 .853.082 1.238.248.385.165.698.394.94.687l.726-.726c-.33-.374-.752-.664-1.265-.869-.513-.205-1.06-.308-1.639-.308-1.144 0-2.112.396-2.904 1.188-.792.792-1.188 1.767-1.188 2.926 0 1.159.396 2.134 1.188 2.926.792.792 1.76 1.188 2.904 1.188zM92.191 16V8.124h-1.012V16h1.012zm3.417.176c.733 0 1.357-.205 1.87-.616.506-.418.759-.972.759-1.661 0-.572-.17-1.054-.511-1.446-.341-.393-.912-.725-1.711-.996-.785-.271-1.294-.506-1.529-.704-.213-.198-.319-.433-.319-.704 0-.33.136-.598.407-.803.271-.22.605-.33 1.001-.33.374 0 .691.097.951.291.26.195.435.439.523.732l.946-.396c-.147-.455-.44-.832-.88-1.133-.44-.308-.96-.462-1.562-.462-.682 0-1.258.205-1.727.616-.462.41-.693.906-.693 1.485 0 .829.418 1.456 1.254 1.881.154.08.546.235 1.177.462.623.213 1.049.433 1.276.66.242.235.363.517.363.847 0 .396-.147.713-.44.952-.293.238-.671.357-1.133.357-.213 0-.414-.039-.605-.116-.19-.077-.365-.183-.523-.319-.157-.135-.295-.298-.412-.489-.117-.19-.209-.403-.275-.638l-.968.396c.19.66.535 1.18 1.034 1.562.499.381 1.074.572 1.727.572zm6.024-.176V9.092h2.2v-.968H98.42v.968h2.2V16h1.012zm7.454 0v-.968H105.5v-2.497h3.234v-.946H105.5V9.092h3.586v-.968h-4.598V16h4.598zm1.976 0v-3.19h1.122l2.123 3.19h1.199v-.044l-2.211-3.201.022-.033c.543-.117.992-.387 1.348-.808.355-.422.533-.904.533-1.447 0-.66-.24-1.216-.72-1.667-.48-.45-1.062-.676-1.744-.676h-2.684V16h1.012zm1.628-4.136h-1.628V9.092h1.694c.403 0 .739.137 1.007.412.267.276.401.596.401.963 0 .396-.143.728-.429.995-.286.268-.634.402-1.045.402zm8.781 4.312c1.137 0 2.097-.396 2.882-1.188.777-.785 1.166-1.76 1.166-2.926 0-1.159-.389-2.13-1.166-2.915-.777-.8-1.738-1.199-2.882-1.199-1.144 0-2.105.396-2.882 1.188-.777.785-1.166 1.76-1.166 2.926 0 1.166.389 2.141 1.166 2.926.777.792 1.738 1.188 2.882 1.188zm0-.968c-.858 0-1.577-.297-2.156-.891-.572-.594-.858-1.346-.858-2.255 0-.91.286-1.661.858-2.255.58-.594 1.298-.891 2.156-.891.858 0 1.573.297 2.145.891.58.587.869 1.338.869 2.255 0 .917-.29 1.668-.869 2.255-.572.594-1.287.891-2.145.891zm5.859.792v-4.906l-.044-1.518h.044L131.334 16h1.056V8.124h-1.012v4.609l.044 1.518h-.044l-3.828-6.127h-1.232V16h1.012z"/></g></svg>