<svg height="48" viewBox="0 0 160 48" width="160" xmlns="http://www.w3.org/2000/svg" xmlns:xlink="http://www.w3.org/1999/xlink"><linearGradient id="a" x1="61.293%" x2="25.961%" y1="95.567%" y2="27.836%"><stop offset="0" stop-color="#00a0ff"/><stop offset=".007" stop-color="#00a1ff"/><stop offset=".26" stop-color="#00beff"/><stop offset=".512" stop-color="#00d2ff"/><stop offset=".76" stop-color="#00dfff"/><stop offset="1" stop-color="#00e3ff"/></linearGradient><linearGradient id="b" x1="107.59%" x2="-130.464%" y1="50.868%" y2="50.868%"><stop offset="0" stop-color="#ffe000"/><stop offset=".409" stop-color="#ffbd00"/><stop offset=".775" stop-color="orange"/><stop offset="1" stop-color="#ff9c00"/></linearGradient><linearGradient id="c" x1="86.725%" x2="-50.48%" y1="69.328%" y2="-37.051%"><stop offset="0" stop-color="#ff3a44"/><stop offset="1" stop-color="#c31162"/></linearGradient><linearGradient id="d" x1="-19.33%" x2="41.841%" y1="112.411%" y2="65.059%"><stop offset="0" stop-color="#32a071"/><stop offset=".069" stop-color="#2da771"/><stop offset=".476" stop-color="#15cf74"/><stop offset=".801" stop-color="#06e775"/><stop offset="1" stop-color="#00f076"/></linearGradient><linearGradient id="e" x1="6809.6%" x2="-17387.4%" y1="4300.35%" y2="4300.35%"><stop offset="0" stop-color="#ccb300"/><stop offset=".409" stop-color="#cc9700"/><stop offset=".775" stop-color="#cc8400"/><stop offset="1" stop-color="#cc7d00"/></linearGradient><linearGradient id="f" x1="86.247%" x2="-50.141%" y1="69.439%" y2="-1.911%"><stop offset="0" stop-color="#cc2e36"/><stop offset="1" stop-color="#9c0e4e"/></linearGradient><linearGradient id="g" x1="308.135%" x2="-66.666%" y1="1531.751%" y2="449.568%"><stop offset="0" stop-color="#008de0"/><stop offset=".007" stop-color="#008de0"/><stop offset=".26" stop-color="#00a7e0"/><stop offset=".512" stop-color="#00b8e0"/><stop offset=".76" stop-color="#00c4e0"/><stop offset="1" stop-color="#00c7e0"/></linearGradient><linearGradient id="h" x1="14404.35%" x2="-8353.95%" y1="10180.7%" y2="-12577.6%"><stop offset="0" stop-color="#e0333c"/><stop offset="1" stop-color="#ab0f56"/></linearGradient><linearGradient id="i" x1="112.786%" x2="-288.225%" y1="100.021%" y2="100.021%"><stop offset="0" stop-color="#e0c500"/><stop offset=".409" stop-color="#e0a600"/><stop offset=".775" stop-color="#e09100"/><stop offset="1" stop-color="#e08900"/></linearGradient><linearGradient id="j" x1="112.785%" x2="-288.199%" y1="-.024%" y2="-.024%"><stop offset="0" stop-color="#ffe840"/><stop offset=".409" stop-color="#ffce40"/><stop offset=".775" stop-color="#ffbc40"/><stop offset="1" stop-color="#ffb540"/></linearGradient><linearGradient id="k" x1="686.865%" x2="-237.819%" y1="23.382%" y2="-1009.832%"><stop offset="0" stop-color="#40b8ff"/><stop offset=".007" stop-color="#40b9ff"/><stop offset=".26" stop-color="#40ceff"/><stop offset=".512" stop-color="#40ddff"/><stop offset=".76" stop-color="#40e7ff"/><stop offset="1" stop-color="#40eaff"/></linearGradient><linearGradient id="l" x1="-18.807%" x2="42.096%" y1="85.52%" y2="53.658%"><stop offset="0" stop-color="#65b895"/><stop offset=".069" stop-color="#62bd95"/><stop offset=".476" stop-color="#50db97"/><stop offset=".801" stop-color="#44ed98"/><stop offset="1" stop-color="#40f498"/></linearGradient><mask id="m" fill="#fff"><path d="m.723.012-.088.085c-.345.365-.549.931-.549 1.665v-.173 26.211-.173c0 .795.238 1.393.635 1.752l14.685-14.684-14.683-14.683m-.637 27.796" fill="#fff" fill-rule="evenodd"/></mask><mask id="n" fill="#fff"><path d="m5.01.025.112.064 5.8 3.295c.552.314.92.695 1.104 1.098-.183-.403-.552-.784-1.105-1.099l-5.799-3.295-.111-.063m.001.175-4.895 4.895 4.895 4.896 5.91-3.358c.75-.426 1.171-.976 1.241-1.537v-.002c-.07-.56-.491-1.11-1.242-1.537l-5.909-3.358" fill="#fff" fill-rule="evenodd"/></mask><mask id="o" fill="#fff"><path d="m1.177.046a1.527 1.527 0 0 1 0 0m0 .173c-.41.001-.767.134-1.047.386l14.683 14.683 4.895-4.896-17.203-9.775c-.475-.27-.927-.397-1.328-.397m-1.051.214a1.611 1.611 0 0 0 -.076.076z" fill="#fff" fill-rule="evenodd"/></mask><mask id="p" fill="#fff"><path d="m14.694.118-14.684 14.682c.28.252.637.385 1.046.385.402 0 .854-.128 1.33-.398l17.204-9.774zm5.006 5.006-17.313 9.836c-.477.27-.929.398-1.33.398h-.007.007c.401 0 .852-.127 1.329-.398z" fill="#fff" fill-rule="evenodd"/></mask><mask id="q" fill="#fff"><path d="m.033.144.111.063z" fill="#fff" fill-rule="evenodd"/></mask><mask id="r" fill="#fff"><path d="m1.178.046c-.41 0-.769.134-1.048.386l-.004.001-.076.077-.008.007.088.088c.28-.252.637-.386 1.047-.386.401 0 .852.128 1.328.398l17.203 9.775.11-.11-.111-.064-17.202-9.774c-.434-.246-.845-.374-1.219-.395a2.236 2.236 0 0 0 -.108-.003" fill="#fff" fill-rule="evenodd"/></mask><mask id="s" fill="#fff"><path d="m.635.043c-.345.364-.549.93-.549 1.665v.173c0-.734.204-1.3.549-1.666l.088-.084z" fill="#fff" fill-rule="evenodd"/></mask><mask id="t" fill="#fff"><path d="m.042.043.088.087z" fill="#fff" fill-rule="evenodd"/></mask><mask id="u" fill="#fff"><path d="m.144.089-.11.11 5.91 3.358c.75.426 1.171.976 1.242 1.537 0-.206-.046-.412-.137-.612-.184-.403-.553-.784-1.106-1.098z" fill="#fff" fill-rule="evenodd"/></mask><mask id="v" fill="#fff"><path d="m7.186 0c-.07.561-.492 1.11-1.243 1.537l-5.91 3.357.111.11 5.8-3.294c.826-.47 1.24-1.09 1.241-1.71" fill="#fff" fill-rule="evenodd"/></mask><mask id="w" fill="#fff"><path d="m.086.012v.182c0 .065.002.129.005.19v.014c.036.632.233 1.125.544 1.454l.086-.087c-.397-.359-.635-.958-.635-1.753" fill="#fff" fill-rule="evenodd"/></mask><mask id="x" fill="#fff"><path d="m19.708.035-17.203 9.775c-.477.27-.928.398-1.33.398-.41 0-.767-.133-1.046-.384l-.087.087c.027.028.055.056.084.082l.004.003c.277.25.63.383 1.036.386h.009c.402 0 .853-.129 1.33-.4l17.315-9.835-.111-.11" fill="#fff" fill-rule="evenodd"/></mask><g fill="none" fill-rule="evenodd" transform="matrix(1 0 0 -1 0 48)"><rect fill="#000" height="48" rx="8" width="160"/><g fill-rule="nonzero"><path d="m56.563 36.121-.018.098h-3.663v-1.092l2.583.13c-.052-.597-.242-1.046-.562-1.368-.51-.507-1.134-.758-1.903-.759-.72.001-1.332.25-1.86.756-.521.505-.781 1.15-.783 1.966.002.816.262 1.46.784 1.966a2.582 2.582 0 0 0 1.86.756c.8-.002 1.406-.267 1.856-.802l.083-.099.716.717.077.077-.07.083c-.291.347-.68.623-1.156.827a3.786 3.786 0 0 1 -1.507.308c-1.053.001-1.962-.37-2.7-1.102-.74-.732-1.113-1.651-1.113-2.731s.373-2 1.113-2.732c.738-.732 1.647-1.102 2.7-1.101 1.098-.001 2.008.363 2.699 1.089.612.611.916 1.44.915 2.455 0 .18-.016.366-.051.558zm5.514 3.286v.119h-4.387v-7.348h4.388v1.11h-3.238v2.018h2.92v1.092h-2.92v2.017h3.238zm3.853-.992h1.987v1.111h-5.124v-1.111h1.986v-6.237h1.152zm6.436-6.237v7.348h-1.15v-7.348m5.203 6.237h1.986v1.11h-5.123v-1.11h1.986v-6.237h1.151zm5.908-2.563c0 .803.252 1.446.755 1.958.507.511 1.113.762 1.848.764.733-.002 1.34-.253 1.847-.764.504-.512.755-1.155.756-1.958-.001-.803-.252-1.446-.756-1.958-.506-.512-1.114-.763-1.847-.764-.735.001-1.34.252-1.848.764-.503.512-.754 1.155-.755 1.958zm6.376 0c.001 1.06-.364 1.973-1.085 2.714-.723.744-1.627 1.12-2.688 1.12-1.067 0-1.974-.374-2.692-1.115-.72-.738-1.082-1.653-1.081-2.72-.001-1.065.361-1.98 1.081-2.719.718-.74 1.625-1.114 2.692-1.113 1.066-.001 1.973.373 2.692 1.114.719.738 1.082 1.653 1.081 2.719zm2.196-3.674-.029 5.539 3.46-5.54h1.138v7.349h-1.151l.039-5.654-3.311 5.654h-1.296v-7.348zm36.136-20.03h2.212v14.816h-2.212zm19.92 9.48-2.535-6.424h-.076l-2.631 6.423h-2.383l3.946-8.978-2.25-4.994h2.308l6.08 13.972h-2.46zm-12.542-7.797c-.725 0-1.735.362-1.735 1.258 0 1.144 1.259 1.582 2.344 1.582.973 0 1.43-.21 2.021-.496a2.681 2.681 0 0 0 -2.63-2.344zm.267 8.12c-1.601 0-3.26-.705-3.946-2.268l1.963-.82c.42.82 1.2 1.087 2.02 1.087 1.144 0 2.307-.687 2.326-1.907v-.152c-.4.229-1.258.572-2.306.572-2.116 0-4.27-1.162-4.27-3.336 0-1.982 1.734-3.26 3.678-3.26 1.488 0 2.307.668 2.822 1.45h.076v-1.144h2.134v5.68c0 2.63-1.962 4.098-4.497 4.098zm-13.668-2.127h-3.145v5.078h3.145c1.653 0 2.592-1.369 2.592-2.539 0-1.148-.939-2.54-2.592-2.54zm-.057 7.14h-5.299v-14.816h2.21v5.614h3.09c2.45 0 4.86 1.774 4.86 4.601s-2.41 4.601-4.86 4.601zm-28.895-13.136c-1.528 0-2.807 1.28-2.807 3.036 0 1.776 1.28 3.074 2.807 3.074 1.509 0 2.692-1.298 2.692-3.074 0-1.757-1.183-3.036-2.692-3.036zm2.54 6.97h-.077c-.496.591-1.451 1.126-2.654 1.126-2.52 0-4.83-2.215-4.83-5.06 0-2.826 2.31-5.021 4.83-5.021 1.203 0 2.158.534 2.654 1.145h.077v-.725c0-1.93-1.031-2.96-2.693-2.96-1.355 0-2.195.974-2.54 1.795l-1.928-.802c.554-1.337 2.025-2.979 4.468-2.979 2.597 0 4.793 1.528 4.793 5.251v9.05h-2.1zm3.627-8.65h2.215v14.817h-2.215zm5.48 4.888c-.057 1.948 1.509 2.94 2.635 2.94.88 0 1.623-.438 1.871-1.07zm6.874 1.68c-.42 1.127-1.7 3.208-4.315 3.208-2.597 0-4.754-2.043-4.754-5.04 0-2.827 2.138-5.041 5.002-5.041 2.31 0 3.648 1.413 4.201 2.233l-1.718 1.146c-.573-.84-1.356-1.394-2.483-1.394-1.126 0-1.928.516-2.444 1.528l6.74 2.788zm-53.698 1.661v-2.137h5.117c-.153-1.203-.554-2.081-1.165-2.692-.745-.745-1.91-1.566-3.952-1.566-3.151 0-5.614 2.54-5.614 5.69s2.463 5.69 5.614 5.69c1.699 0 2.94-.668 3.856-1.528l1.509 1.509c-1.28 1.222-2.979 2.157-5.365 2.157-4.316 0-7.944-3.513-7.944-7.828s3.628-7.828 7.944-7.828c2.33 0 4.086.763 5.46 2.195 1.413 1.413 1.852 3.399 1.852 5.003 0 .497-.038.954-.114 1.336h-7.198zm13.13-6.549c-1.528 0-2.845 1.26-2.845 3.055 0 1.814 1.317 3.055 2.845 3.055 1.527 0 2.845-1.24 2.845-3.055 0-1.795-1.318-3.055-2.845-3.055zm0 8.096c-2.788 0-5.06-2.12-5.06-5.04 0-2.903 2.272-5.041 5.06-5.041s5.06 2.138 5.06 5.04c0 2.922-2.272 5.041-5.06 5.041zm11.038-8.096c-1.527 0-2.845 1.26-2.845 3.055 0 1.814 1.318 3.055 2.845 3.055s2.845-1.24 2.845-3.055c0-1.795-1.318-3.055-2.845-3.055zm0 8.096c-2.788 0-5.06-2.12-5.06-5.04 0-2.903 2.272-5.041 5.06-5.041s5.06 2.138 5.06 5.04c0 2.922-2.272 5.041-5.06 5.041" fill="#fff"/><g fill="url(#a)" mask="url(#m)" transform="translate(12.03 9.304)"><path d="m.723.012-.088.085c-.345.365-.549.931-.549 1.665v-.173 26.211-.173c0 .795.238 1.393.635 1.752l14.685-14.684-14.683-14.683m-.637 27.796"/></g><g fill="url(#b)" mask="url(#n)" transform="translate(27.319 18.904)"><path d="m5.01.025.112.064 5.8 3.295c.552.314.92.695 1.104 1.098-.183-.403-.552-.784-1.105-1.099l-5.799-3.295-.111-.063m.001.175-4.895 4.895 4.895 4.896 5.91-3.358c.75-.426 1.171-.976 1.241-1.537v-.002c-.07-.56-.491-1.11-1.242-1.537l-5.909-3.358"/></g><g fill="url(#c)" mask="url(#o)" transform="translate(12.622 8.711)"><path d="m1.177.046a1.527 1.527 0 0 1 0 0m0 .173c-.41.001-.767.134-1.047.386l14.683 14.683 4.895-4.896-17.203-9.775c-.475-.27-.927-.397-1.328-.397m-1.051.214a1.611 1.611 0 0 0 -.076.076z"/></g><g fill="url(#d)" mask="url(#p)" transform="translate(12.74 23.881)"><path d="m14.694.118-14.684 14.682c.28.252.637.385 1.046.385.402 0 .854-.128 1.33-.398l17.204-9.774zm5.006 5.006-17.313 9.836c-.477.27-.929.398-1.33.398h-.007.007c.401 0 .852-.127 1.329-.398z"/></g><path d="m13.908 8.76c.373.021.786.15 1.22.395l17.201 9.774-17.202-9.774c-.433-.246-.846-.374-1.219-.395" fill="#000"/><g fill="url(#e)" mask="url(#q)" transform="translate(32.296 18.785)"><path d="m.033.144.111.063z"/></g><g fill="url(#f)" mask="url(#r)" transform="translate(12.622 8.711)"><path d="m1.178.046c-.41 0-.769.134-1.048.386l-.004.001-.076.077-.008.007.088.088c.28-.252.637-.386 1.047-.386.401 0 .852.128 1.328.398l17.203 9.775.11-.11-.111-.064-17.202-9.774c-.434-.246-.845-.374-1.219-.395a2.236 2.236 0 0 0 -.108-.003"/></g><path d="m12.664 9.227c-.345.365-.548.932-.548 1.666 0-.734.203-1.3.548-1.665" fill="#000"/><g fill="url(#g)" mask="url(#s)" transform="translate(12.03 9.185)"><path d="m.635.043c-.345.364-.549.93-.549 1.665v.173c0-.734.204-1.3.549-1.666l.088-.084z"/></g><g fill="url(#h)" mask="url(#t)" transform="translate(12.622 9.185)"><path d="m.042.043.088.087z"/></g><path d="m39.345 23.386c.091.2.137.406.137.611v.001c0-.206-.046-.411-.137-.612" fill="#000"/><g fill="url(#i)" mask="url(#u)" transform="translate(32.296 18.904)"><path d="m.144.089-.11.11 5.91 3.358c.75.426 1.171.976 1.242 1.537 0-.206-.046-.412-.137-.612-.184-.403-.553-.784-1.106-1.098z"/></g><path d="m39.482 24c0 .62-.415 1.24-1.242 1.71l-5.8 3.295 5.8-3.295c.828-.47 1.243-1.091 1.242-1.71" fill="#404040"/><g fill="url(#j)" mask="url(#v)" transform="translate(32.296 24)"><path d="m7.186 0c-.07.561-.492 1.11-1.243 1.537l-5.91 3.357.111.11 5.8-3.294c.826-.47 1.24-1.09 1.241-1.71"/></g><path d="m12.121 37.316c.069 1.217.73 1.92 1.667 1.925a1.525 1.525 0 0 1 -1.036-.385l-.003-.003a1.586 1.586 0 0 1 -.085-.083c-.31-.33-.507-.822-.543-1.454" fill="#404040"/><g fill="url(#k)" mask="url(#w)" transform="translate(12.03 36.919)"><path d="m.086.012v.182c0 .065.002.129.005.19v.014c.036.632.233 1.125.544 1.454l.086-.087c-.397-.359-.635-.958-.635-1.753"/></g><path d="m13.788 39.24h.004z" fill="#404040"/><g fill="url(#l)" mask="url(#x)" transform="translate(12.622 28.86)"><path d="m19.708.035-17.203 9.775c-.477.27-.928.398-1.33.398-.41 0-.767-.133-1.046-.384l-.087.087c.027.028.055.056.084.082l.004.003c.277.25.63.383 1.036.386h.009c.402 0 .853-.129 1.33-.4l17.315-9.835-.111-.11"/></g></g></g></svg>