<svg xmlns="http://www.w3.org/2000/svg" width="254" height="133" viewBox="0 0 254 133">
    <g fill="none" fill-rule="evenodd">
        <text fill="#FF416F" stroke="#FF416F" font-family="Noteworthy-Bold, Noteworthy" font-size="24" font-weight="bold" transform="translate(0 1) rotate(-33 77.835 62.742)">
            <tspan x="2.335" y="68.742">Hear &amp; soothe</tspan> <tspan x="24.595" y="93.742"> your baby</tspan>
        </text>
        <path fill="#FF416F" d="M251.391 69.04L251.482 69.045 251.578 69.054 251.679 69.069 251.786 69.09 251.899 69.12 252.012 69.157 252.128 69.202 252.233 69.251 252.308 69.291 252.385 69.335 252.493 69.406 252.602 69.488 252.706 69.578 252.798 69.668 252.879 69.758 252.954 69.851 253.021 69.943 253.081 70.035 253.132 70.123 253.178 70.207 253.219 70.292 253.255 70.374 253.287 70.455 253.315 70.533 253.339 70.609 253.362 70.683 253.381 70.755 253.398 70.827 253.412 70.893 253.427 70.963 253.438 71.029 253.448 71.093 253.458 71.161 253.466 71.226 253.472 71.286 253.478 71.349 253.483 71.413 253.488 71.475 253.491 71.535 253.494 71.595 253.495 71.657 253.497 71.717 253.498 71.777 253.498 71.838 253.498 71.9 253.495 72.016 253.491 72.135 253.486 72.254 253.478 72.373 253.47 72.493 253.459 72.612 253.448 72.731 253.436 72.85 253.423 72.969 253.409 73.088 253.393 73.207 253.377 73.325 253.361 73.444 253.343 73.562 253.326 73.678 253.307 73.795 253.288 73.911 253.268 74.026 253.249 74.14 253.229 74.254 253.189 74.472 253.149 74.687 253.108 74.893 253.07 75.09 253.031 75.278 252.963 75.612 252.934 75.758 252.907 75.885 252.887 75.99 252.871 76.075 252.867 76.101 252.864 76.116 252.863 76.118 252.822 76.482 252.78 76.858 252.74 77.233 252.701 77.608 252.663 77.982 252.644 78.168 252.626 78.355 252.609 78.54 252.592 78.727 252.576 78.913 252.56 79.098 252.552 79.191 252.544 79.283 252.53 79.473 252.518 79.664 252.506 79.857 252.496 80.052 252.486 80.25 252.477 80.449 252.469 80.651 252.461 80.853 252.453 81.056 252.44 81.469 252.427 81.885 252.414 82.302 252.407 82.513 252.4 82.723 252.392 82.934 252.383 83.144 252.375 83.356 252.364 83.566 252.353 83.777 252.34 83.988 252.327 84.198 252.312 84.406 252.304 84.512 252.296 84.616 252.286 84.721 252.277 84.825 252.268 84.928 252.257 85.033 252.246 85.137 252.235 85.24 252.223 85.344 252.21 85.446 252.197 85.55 252.185 85.647 252.168 85.746 252.147 85.844 252.119 85.94 252.087 86.034 252.049 86.127 252.006 86.217 251.958 86.304 251.905 86.389 251.846 86.47 251.784 86.548 251.718 86.623 251.647 86.693 251.571 86.759 251.493 86.821 251.411 86.878 251.326 86.931 251.238 86.978 251.148 87.021 251.055 87.058 250.96 87.09 250.863 87.116 250.766 87.137 250.667 87.153 250.567 87.162 250.468 87.166 250.368 87.164 250.268 87.157 250.169 87.143 250.071 87.125 249.974 87.1 249.879 87.07 249.786 87.035 249.694 86.994 249.605 86.949 249.519 86.898 249.436 86.842 249.356 86.782 249.28 86.718 249.208 86.649 249.139 86.576 249.075 86.499 249.016 86.419 248.96 86.335 248.911 86.249 248.865 86.159 248.826 86.068 248.791 85.974 248.762 85.878 248.738 85.781 248.72 85.683 248.708 85.584 248.701 85.484 248.7 85.384 248.705 85.284 248.715 85.185 248.726 85.099 248.737 85.017 248.747 84.934 248.756 84.85 248.766 84.764 248.775 84.678 248.784 84.592 248.792 84.504 248.8 84.415 248.808 84.326 248.815 84.236 248.822 84.146 248.835 83.96 248.847 83.772 248.858 83.582 248.869 83.389 248.878 83.195 248.887 82.998 248.894 82.798 248.902 82.597 248.91 82.394 248.916 82.19 248.929 81.775 248.942 81.357 248.956 80.937 248.964 80.724 248.971 80.511 248.981 80.298 248.99 80.085 249 79.871 249.012 79.657 249.025 79.443 249.039 79.229 249.054 79.018 249.063 78.909 249.072 78.803 249.089 78.607 249.107 78.412 249.124 78.218 249.143 78.023 249.161 77.829 249.18 77.635 249.22 77.248 249.26 76.862 249.302 76.477 249.344 76.093 249.389 75.698 249.397 75.638 249.406 75.572 249.417 75.509 249.428 75.447 249.45 75.329 249.476 75.199 249.504 75.059 249.535 74.91 249.602 74.58 249.637 74.404 249.674 74.22 249.711 74.03 249.748 73.835 249.751 73.815 249.708 73.849 249.631 73.908 249.555 73.965 249.484 74.017 249.436 74.051 249.394 74.079 249.126 74.254 248.868 74.425 248.609 74.598 248.348 74.772 247.823 75.122 247.559 75.299 247.292 75.475 247.025 75.651 246.889 75.74 246.754 75.828 246.619 75.916 246.482 76.004 246.345 76.091 246.207 76.178 246.069 76.266 245.929 76.352 245.79 76.438 245.65 76.524 245.509 76.609 245.367 76.694 245.225 76.779 245.081 76.862 244.938 76.945 244.792 77.028 244.647 77.109 244.5 77.19 244.353 77.27 244.205 77.35 244.055 77.428 243.905 77.505 243.755 77.582 243.602 77.658 243.45 77.732 243.296 77.805 243.141 77.877 242.984 77.948 242.827 78.018 242.671 78.085 242.589 78.12 242.51 78.153 242.429 78.186 242.349 78.219 242.268 78.251 242.187 78.283 242.106 78.315 242.025 78.346 241.943 78.376 241.861 78.407 241.778 78.437 241.696 78.466 241.613 78.495 241.529 78.524 241.446 78.553 241.362 78.58 241.278 78.608 241.193 78.635 241.108 78.661 241.023 78.687 240.938 78.713 240.852 78.738 240.766 78.763 240.679 78.787 240.594 78.81 240.506 78.834 240.418 78.856 240.331 78.879 240.244 78.9 240.155 78.921 240.066 78.942 239.982 78.961 239.885 78.98 239.786 78.993 239.686 79.001 239.586 79.004 239.486 79 239.387 78.991 239.287 78.976 239.19 78.955 239.094 78.929 238.999 78.898 238.905 78.861 238.815 78.819 238.727 78.771 238.642 78.719 238.56 78.662 238.481 78.601 238.406 78.535 238.334 78.465 238.268 78.39 238.205 78.313 238.147 78.231 238.093 78.147 238.044 78.06 238.001 77.97 237.963 77.877 237.93 77.783 237.903 77.687 237.881 77.589 237.864 77.491 237.853 77.391 237.849 77.291 237.849 77.192 237.856 77.092 237.868 76.993 237.886 76.894 237.909 76.797 237.938 76.701 237.971 76.607 238.011 76.516 238.056 76.426 238.106 76.34 238.16 76.256 238.22 76.175 238.284 76.099 238.351 76.025 238.423 75.956 238.5 75.891 238.579 75.831 238.662 75.775 238.748 75.724 238.837 75.678 238.928 75.637 239.021 75.601 239.117 75.571 239.214 75.546 239.285 75.53 239.351 75.515 239.417 75.499 239.483 75.483 239.55 75.466 239.615 75.449 239.681 75.431 239.747 75.413 239.813 75.395 239.878 75.376 239.944 75.357 240.008 75.338 240.074 75.318 240.139 75.297 240.203 75.277 240.268 75.255 240.333 75.234 240.399 75.212 240.463 75.19 240.527 75.167 240.592 75.144 240.656 75.121 240.72 75.097 240.785 75.073 240.849 75.048 240.913 75.023 240.977 74.998 241.041 74.973 241.105 74.947 241.168 74.92 241.233 74.894 241.294 74.868 241.424 74.811 241.551 74.755 241.679 74.697 241.805 74.638 241.932 74.578 242.059 74.516 242.185 74.453 242.312 74.389 242.439 74.324 242.565 74.257 242.691 74.19 242.818 74.121 242.945 74.051 243.071 73.98 243.197 73.908 243.324 73.835 243.451 73.761 243.577 73.686 243.703 73.611 243.831 73.534 243.958 73.456 244.084 73.378 244.212 73.299 244.339 73.219 244.466 73.138 244.594 73.056 244.721 72.975 244.849 72.892 244.977 72.808 245.105 72.725 245.363 72.555 245.621 72.384 245.881 72.211 246.405 71.861 246.668 71.685 246.934 71.508 247.202 71.331 247.452 71.167 247.47 71.153 247.51 71.124 247.565 71.082 247.713 70.966 247.894 70.824 247.998 70.744 248.106 70.66 248.22 70.572 248.34 70.481 248.464 70.388 248.591 70.293 248.722 70.198 248.855 70.103 248.925 70.053 248.993 70.006 249.063 69.958 249.133 69.91 249.202 69.864 249.274 69.817 249.346 69.77 249.418 69.725 249.491 69.679 249.565 69.634 249.639 69.59 249.714 69.546 249.79 69.504 249.868 69.462 249.947 69.42 250.028 69.38 250.11 69.34 250.195 69.301 250.284 69.263 250.37 69.229 250.422 69.209 250.47 69.192 250.519 69.175 250.572 69.158 250.626 69.142 250.681 69.127 250.739 69.112 250.797 69.098 250.86 69.085 250.927 69.072 250.993 69.062 251.064 69.053 251.14 69.046 251.219 69.041 251.303 69.039z" transform="translate(0 1)"/>
        <path stroke="#FF416F" stroke-linecap="round" stroke-width="4" d="M106.153 95.254c10.253 10.905 32.37 14.307 54.366 4.01 34.246-16.687 42.407-36.458 30.29-45.577-14.606-10.994-47.023 15.652-29.33 38.901 17.694 23.25 65.168 14.092 82.259-11.065" transform="translate(0 1)"/>
    </g>
</svg>
