<svg height="104" viewBox="0 0 120 104" width="120" xmlns="http://www.w3.org/2000/svg"><g fill="none" fill-rule="evenodd"><path d="m116.497 81.74c5.3-23.698-33.176-26.218-25.604-49.597 7.572-23.38-44.074-47.948-75.558-18.996-10.385 9.553-19.372 32.948-4.432 44.456s-12.574 46.38 27.506 46.38c40.081 0 72.787 1.454 78.088-22.243z" fill="#000" fill-opacity=".04" fill-rule="nonzero"/><path d="m47.66 78.113c0 1.318-1.129 2.387-2.52 2.387h-18.621c-1.391 0-2.519-1.069-2.519-2.387v-41.965c0-1.318 1.128-2.387 2.519-2.387h18.621c1.391 0 2.52 1.069 2.52 2.387z" stroke="#fff" stroke-width="1.5"/><path d="m24 37.76h23.659v38h-23.659z" stroke="#fff" stroke-width="1.5"/><g transform="translate(22 29.76)"><rect fill="#5f5f5f" height="52" rx="3" width="27" y=".239"/><rect fill="#fff" fill-rule="nonzero" height="48" rx="1" width="23" x="2" y="2.239"/><path d="m6 2.24h15v1a1 1 0 0 1 -1 1h-13a1 1 0 0 1 -1-1z" fill="#5f5f5f"/></g><path d="m40 28h5v52h-5z" fill="#000" fill-opacity=".08"/><g transform="translate(44 14)"><rect fill="#5f5f5f" height="73" rx="3" width="54"/><g fill-rule="nonzero"><rect fill="#fff" height="69" rx="1" width="50" x="2" y="2"/><path d="m31.09 29.308.283.017c.714.02 2.745.28 4.056 2.18-.106.063-2.42 1.415-2.395 4.195.03 3.33 2.931 4.432 2.966 4.443-.017.078-.454 1.591-1.543 3.125-.909 1.352-1.86 2.674-3.373 2.696-1.47.035-1.964-.859-3.649-.859-1.7 0-2.227.837-3.636.894-1.44.052-2.54-1.442-3.483-2.782-1.882-2.735-3.348-7.706-1.383-11.09.952-1.658 2.689-2.727 4.544-2.755 1.443-.03 2.78.968 3.667.968.869 0 2.524-1.193 4.23-1.015zm.302-5.308c.144 1.301-.375 2.584-1.133 3.526-.79.928-2.056 1.638-3.288 1.546-.162-1.252.463-2.583 1.162-3.396.79-.921 2.162-1.628 3.259-1.676z" fill="#4285f4"/></g></g></g></svg>