<svg height="40" viewBox="0 0 40 40" width="40" xmlns="http://www.w3.org/2000/svg"><g fill="#ff4f41"><circle cx="20" cy="20" fill-opacity=".12" r="20"/><path d="m18.3 5.7099928c-.1868315-.18725267-.4404824-.2924856-.705-.2924856s-.5181685.10523293-.705.2924856l-4.89 4.88-4.89-4.89c-.18683153-.18725267-.44048236-.2924856-.705-.2924856s-.51816847.10523293-.705.2924856c-.39.39-.39 1.02 0 1.41l4.89 4.89-4.89 4.89c-.39.39-.39 1.02 0 1.41s1.02.39 1.41 0l4.89-4.89 4.89 4.89c.39.39 1.02.39 1.41 0s.39-1.02 0-1.41l-4.89-4.89 4.89-4.89c.38-.38.38-1.02 0-1.4z" transform="translate(8 8)"/></g></svg>