<svg xmlns="http://www.w3.org/2000/svg" width="24" height="24" viewBox="0 0 24 24">
    <path fill="#2AA598" fill-rule="evenodd" d="M12.137 2.998l.267.004c4.69.13 8.61 4.05 8.74 8.74.14 5.09-3.95 9.26-9 9.26-2.09 0-4-.71-5.52-1.91-.47-.36-.5-1.07-.08-1.49.36-.36.92-.39 1.32-.08 1.18.93 2.67 1.48 4.28 1.48 3.9 0 7.05-3.19 7-7.1-.05-3.72-3.18-6.85-6.9-6.9-3.92-.05-7.1 3.1-7.1 7h1.79c.45 0 .67.54.36.85l-2.79 2.8c-.2.2-.51.2-.71 0l-2.79-2.8c-.32-.31-.1-.85.35-.85h1.79c0-5.05 4.17-9.14 9.26-9zM12 7.704c.552 0 1 .448 1 1v3.242l2.46 1.536c.468.292.61.91.318 1.378-.293.468-.91.61-1.378.318l-2.93-1.83c-.293-.183-.47-.503-.47-.848V8.704c0-.553.448-1 1-1z"/>
</svg>
