<svg xmlns="http://www.w3.org/2000/svg" width="24" height="24" viewBox="0 0 24 24">
    <path fill="#8F6DF5" fill-rule="evenodd" d="M20 16c0 2.21-1.79 4-4 4s-4-1.79-4-4 1.79-4 4-4c.729 0 1.413.195 2.001.536L18 4.197 9 5.834V18c0 2.21-1.79 4-4 4s-4-1.79-4-4 1.79-4 4-4c.729 0 1.413.195 2.001.536L7 5c0-.443.29-.828.705-.956l.116-.028 11-2c.576-.105 1.108.303 1.173.869L20 3zM5 16c-1.105 0-2 .895-2 2s.895 2 2 2 2-.895 2-2-.895-2-2-2zm11-2c-1.105 0-2 .895-2 2s.895 2 2 2 2-.895 2-2-.895-2-2-2z"/>
</svg>
