<svg xmlns="http://www.w3.org/2000/svg" xmlns:xlink="http://www.w3.org/1999/xlink" width="88" height="88" viewBox="0 0 88 88">
    <defs>
        <circle id="prefix__a" cx="44" cy="44" r="44"/>
    </defs>
    <g fill="none" fill-rule="evenodd">
        <mask id="prefix__b" fill="#fff">
            <use xlink:href="#prefix__a"/>
        </mask>
        <use fill="#4285F4" fill-rule="nonzero" xlink:href="#prefix__a"/>
        <path fill="#000" fill-opacity=".08" fill-rule="nonzero" d="M70.856 9.144C81.283 17.19 88 29.811 88 44c0 24.3-19.7 44-44 44-14.19 0-26.81-6.717-34.856-17.144C16.574 76.59 25.889 80 36 80c24.3 0 44-19.7 44-44 0-9.963-3.311-19.153-8.894-26.529z" mask="url(#prefix__b)"/>
        <g fill="#FFF" fill-rule="nonzero" mask="url(#prefix__b)">
            <path d="M37.5 53.818c0 .904-.733 1.637-1.636 1.637h-2.53c-1.842 0-3.334-1.466-3.334-3.273v-22.91C30 27.466 31.492 26 33.333 26H45.03c.904 0 1.637.733 1.637 1.636 0 .904-.733 1.637-1.637 1.637H33.333v22.909h2.53c.904 0 1.637.732 1.637 1.636zm5.833-21.273h13.334c1.84 0 3.333 1.466 3.333 3.273v22.91C60 60.534 58.508 62 56.667 62H43.333C41.493 62 40 60.535 40 58.727V35.818c0-1.807 1.492-3.273 3.333-3.273zM50 59.382c1.657 0 3-1.319 3-2.946 0-1.626-1.343-2.945-3-2.945s-3 1.319-3 2.945c0 1.627 1.343 2.946 3 2.946z"/>
        </g>
    </g>
</svg>
