<svg height="24" viewBox="0 0 24 24" width="24" 
    xmlns="http://www.w3.org/2000/svg">
    <path d="m9.005 11a2.998 2.998 0 0 1 -3.005-3c0-1.66 1.342-3 3.005-3a2.99 2.99 0 0 1 2.995 3c0 1.66-1.332 3-2.995 3zm0-2a1 1 0 1 0 .002-2.002 1 1 0 0 0 -.002 2.002zm7.5 2a2.998 2.998 0 0 1 -3.005-3c0-1.66 1.342-3 3.005-3a2.99 2.99 0 0 1 2.995 3c0 1.66-1.332 3-2.995 3zm0-2a1 1 0 1 0 .002-2.002 1 1 0 0 0 -.002 2.002zm-7.505 4c.562 0 1.12.044 1.832.173a.052.052 0 0 1 .012.099 1.328 1.328 0 0 0 -.011.005c-1.828.846-1.833 2.647-1.833 3.473v2.25h-6c-.55 0-1-.45-1-1v-1.5c0-2.33 4.67-3.5 7-3.5zm-4.998 4.005h3.003c0-.712.076-1.315.228-1.81-1.586.334-2.663.793-3.231 1.377zm8.998-.005h7v-1.018c-.162-.134-.441-.29-.807-.436-.83-.333-1.946-.546-2.693-.546s-1.862.213-2.693.546c-.366.146-.645.302-.807.436zm3.5-4c1.83 0 5.5.92 5.5 2.75v2.25c0 .55-.45 1-1 1h-9c-.55 0-1-.45-1-1v-2.25c0-1.83 3.67-2.75 5.5-2.75z" fill="#4285f4"/>
</svg>