<svg xmlns="http://www.w3.org/2000/svg" xmlns:xlink="http://www.w3.org/1999/xlink" width="88" height="88" viewBox="0 0 88 88">
    <defs>
        <circle id="prefix__a" cx="44" cy="44" r="44"/>
    </defs>
    <g fill="none" fill-rule="evenodd">
        <mask id="prefix__b" fill="#fff">
            <use xlink:href="#prefix__a"/>
        </mask>
        <use fill="#FF416F" xlink:href="#prefix__a"/>
        <path fill="#E63B64" d="M70.856 9.144C81.283 17.19 88 29.811 88 44c0 24.3-19.7 44-44 44-14.19 0-26.81-6.717-34.856-17.144C16.574 76.59 25.889 80 36 80c24.3 0 44-19.7 44-44 0-9.963-3.311-19.153-8.894-26.529z" mask="url(#prefix__b)"/>
        <g fill="#FFF" fill-rule="nonzero" mask="url(#prefix__b)">
            <path d="M44 63.5c2.2 0 4-1.8 4-4h-8c0 2.2 1.8 4 4 4zm12-12v-10c0-6.14-3.26-11.28-9-12.64V27.5c0-1.66-1.34-3-3-3s-3 1.34-3 3v1.36c-5.72 1.36-9 6.48-9 12.64v10l-3.06 1.912c-.585.366-.94 1.007-.94 1.696v.642c0 .966.784 1.75 1.75 1.75h28.5c.966 0 1.75-.784 1.75-1.75v-.642c0-.69-.355-1.33-.94-1.696L56 51.5z"/>
        </g>
    </g>
</svg>
