<svg xmlns="http://www.w3.org/2000/svg" width="24" height="25" viewBox="0 0 24 25">
    <path fill="#FF416F" fill-rule="evenodd" d="M10 20.7h4c0 1.1-.9 2-2 2-1.05 0-1.918-.82-1.994-1.851L10 20.7zm2-19c.828 0 1.5.672 1.5 1.5v.661c3.07.67 5.386 3.355 5.496 6.598L19 10.7v5.5l1.6 1.2c.22.165.361.413.393.683L21 18.2v.5c0 .513-.386.936-.883.993L20 19.7H4c-.513 0-.936-.386-.993-.883L3 18.7v-.5c0-.275.113-.537.31-.724l.09-.076L5 16.2v-5.5c0-3.351 2.355-6.152 5.5-6.839V3.2c0-.828.672-1.5 1.5-1.5zm0 3.993c-2.689 0-4.882 2.122-4.995 4.783L7 10.693V17.7h10v-7.007c0-2.761-2.239-5-5-5z"/>
</svg>
