<svg xmlns="http://www.w3.org/2000/svg" xmlns:xlink="http://www.w3.org/1999/xlink" width="88" height="88" viewBox="0 0 88 88">
    <defs>
        <circle id="prefix__a" cx="44" cy="44" r="44"/>
    </defs>
    <g fill="none" fill-rule="evenodd">
        <mask id="prefix__b" fill="#fff">
            <use xlink:href="#prefix__a"/>
        </mask>
        <use fill="#8F6DF5" xlink:href="#prefix__a"/>
        <path fill="#8162DD" d="M70.856 9.144C81.283 17.19 88 29.811 88 44c0 24.3-19.7 44-44 44-14.19 0-26.81-6.717-34.856-17.144C16.574 76.59 25.889 80 36 80c24.3 0 44-19.7 44-44 0-9.963-3.311-19.153-8.894-26.529z" mask="url(#prefix__b)"/>
        <g fill="#FFF" fill-rule="nonzero" mask="url(#prefix__b)">
            <path d="M59.987 25.77L60 26v26c0 4.418-3.582 8-8 8s-8-3.582-8-8 3.582-8 8-8c1.458 0 2.824.39 4.001 1.07L56 28.395l-18 3.274V56c0 4.418-3.582 8-8 8s-8-3.582-8-8 3.582-8 8-8c1.458 0 2.824.39 4.001 1.07L34 30c0-.886.58-1.656 1.41-1.911l.232-.057 22-4c1.151-.209 2.216.607 2.345 1.738z"/>
        </g>
    </g>
</svg>
