<svg xmlns="http://www.w3.org/2000/svg" xmlns:xlink="http://www.w3.org/1999/xlink" width="72" height="72" viewBox="0 0 72 72">
    <defs>
        <circle id="pdf4c5vhoa" cx="36" cy="36" r="36"/>
    </defs>
    <g fill="none" fill-rule="evenodd">
        <mask id="hmfj0nej4b" fill="#fff">
            <use xlink:href="#pdf4c5vhoa"/>
        </mask>
        <use fill="#2AA598" xlink:href="#pdf4c5vhoa"/>
        <path fill="#269589" d="M57.973 7.481C66.504 14.064 72 24.391 72 36c0 19.882-16.118 36-36 36-11.61 0-21.936-5.496-28.519-14.027 6.08 4.691 13.7 7.482 21.974 7.482 19.882 0 36-16.118 36-36 0-8.152-2.71-15.671-7.277-21.706z" mask="url(#hmfj0nej4b)"/>
        <g fill="#FFF" fill-rule="nonzero" mask="url(#hmfj0nej4b)">
            <path d="M42.847 43.619c1.78 0 3.285-.419 4.516-1.257 1.23-.838 2.147-1.918 2.749-3.24.602-1.322.903-2.73.903-4.222 0-1.492-.3-2.9-.903-4.221-.602-1.323-1.519-2.403-2.75-3.24-1.23-.838-2.748-1.257-4.555-1.257-1.544 0-2.886.419-4.025 1.257-1.14.837-2.285 2.002-3.437 3.495-1.178-1.519-2.336-2.69-3.475-3.515-1.14-.825-2.494-1.237-4.065-1.237-1.78 0-3.286.419-4.516 1.257-1.23.837-2.147 1.917-2.75 3.24-.602 1.322-.903 2.729-.903 4.221 0 1.493.301 2.9.904 4.222.602 1.322 1.518 2.402 2.749 3.24 1.23.838 2.736 1.257 4.516 1.257 1.571 0 2.932-.406 4.084-1.218 1.152-.811 2.291-1.95 3.417-3.416 1.152 1.466 2.304 2.605 3.456 3.416 1.152.812 2.514 1.218 4.085 1.218zm-14.924-4.87c-.89 0-1.656-.347-2.298-1.04-.641-.694-.962-1.63-.962-2.809 0-1.178.321-2.114.962-2.808.642-.693 1.408-1.04 2.298-1.04.89 0 1.734.432 2.533 1.296.799.864 1.433 1.74 1.905 2.63-.42.839-1.034 1.677-1.846 2.514-.812.838-1.676 1.257-2.592 1.257zm14.806 0c-.917 0-1.78-.419-2.592-1.257-.812-.837-1.44-1.675-1.885-2.513.419-.864 1.04-1.735 1.865-2.612s1.695-1.315 2.612-1.315c.864 0 1.616.347 2.258 1.04.641.694.962 1.63.962 2.808 0 1.179-.32 2.115-.962 2.808-.642.694-1.394 1.041-2.258 1.041z"/>
        </g>
    </g>
</svg>
