<svg xmlns="http://www.w3.org/2000/svg" xmlns:xlink="http://www.w3.org/1999/xlink" width="88" height="88" viewBox="0 0 88 88">
    <defs>
        <circle id="prefix__a" cx="44" cy="44" r="44"/>
    </defs>
    <g fill="none" fill-rule="evenodd">
        <mask id="prefix__b" fill="#fff">
            <use xlink:href="#prefix__a"/>
        </mask>
        <use fill="#FAB500" fill-rule="nonzero" xlink:href="#prefix__a"/>
        <path fill="#FF9500" d="M70.856 9.144C81.283 17.19 88 29.811 88 44c0 24.3-19.7 44-44 44-14.19 0-26.81-6.717-34.856-17.144C16.574 76.59 25.889 80 36 80c24.3 0 44-19.7 44-44 0-9.963-3.311-19.153-8.894-26.529z" mask="url(#prefix__b)"/>
        <g fill="#FFF" fill-rule="nonzero" mask="url(#prefix__b)">
            <path d="M26 34c0-1.1.9-2 2-2h32c1.1 0 2-.9 2-2s-.9-2-2-2H26c-2.2 0-4 1.8-4 4v24c0 2.2 1.8 4 4 4h6c1.1 0 2-.9 2-2s-.9-2-2-2h-4c-1.1 0-2-.9-2-2V34zm18 10h-4c-1.1 0-2 .9-2 2v1.56c-1.22 1.1-2 2.66-2 4.44 0 1.78.78 3.34 2 4.44V58c0 1.1.9 2 2 2h4c1.1 0 2-.9 2-2v-1.56c1.22-1.1 2-2.68 2-4.44 0-1.76-.78-3.34-2-4.44V46c0-1.1-.9-2-2-2zm20-8c1 0 2 1 2 2v20c0 1-1 2-2 2H52c-1 0-2-1-2-2V38c0-1 1-2 2-2zm-6 18c-1.105 0-2 .895-2 2s.895 2 2 2 2-.895 2-2-.895-2-2-2zm-16-5c1.66 0 3 1.34 3 3s-1.34 3-3 3-3-1.34-3-3 1.34-3 3-3z"/>
        </g>
    </g>
</svg>
