<svg xmlns="http://www.w3.org/2000/svg" xmlns:xlink="http://www.w3.org/1999/xlink" width="88" height="88" viewBox="0 0 88 88">
    <defs>
        <circle id="prefix__a" cx="44" cy="44" r="44"/>
    </defs>
    <g fill="none" fill-rule="evenodd">
        <mask id="prefix__b" fill="#fff">
            <use xlink:href="#prefix__a"/>
        </mask>
        <use fill="#2AA598" xlink:href="#prefix__a"/>
        <path fill="#269589" d="M70.856 9.144C81.283 17.19 88 29.811 88 44c0 24.3-19.7 44-44 44-14.19 0-26.81-6.717-34.856-17.144C16.574 76.59 25.889 80 36 80c24.3 0 44-19.7 44-44 0-9.963-3.311-19.153-8.894-26.529z" mask="url(#prefix__b)"/>
        <g fill="#FFF" fill-rule="nonzero" mask="url(#prefix__b)">
            <path d="M44.477 25.997l.331.006c9.38.26 17.22 8.1 17.48 17.48.28 10.18-7.9 18.52-18 18.52-4.18 0-8-1.42-11.04-3.82-.94-.72-1-2.14-.16-2.98.72-.72 1.84-.78 2.64-.16 2.36 1.86 5.34 2.96 8.56 2.96 7.8 0 14.1-6.38 14-14.2-.1-7.44-6.36-13.7-13.8-13.8-7.84-.1-14.2 6.2-14.2 14h3.58c.9 0 1.34 1.08.72 1.7l-5.58 5.6c-.4.4-1.02.4-1.42 0l-5.58-5.6c-.64-.62-.2-1.7.7-1.7h3.58c0-10.1 8.34-18.28 18.52-18zM44 35.407c1.105 0 2 .896 2 2.001v6.483l4.918 3.073c.937.585 1.222 1.818.637 2.755-.585.937-1.819 1.222-2.756.637l-5.86-3.66C42.354 46.331 42 45.69 42 45L42 37.407c0-1.104.896-2 2-2z"/>
        </g>
    </g>
</svg>
