<?xml version="1.0" encoding="UTF-8"?>
<svg width="62px" height="62px" viewBox="0 0 62 62" version="1.1" xmlns="http://www.w3.org/2000/svg" xmlns:xlink="http://www.w3.org/1999/xlink">
    <title>Group</title>
    <g id="Page-1" stroke="none" stroke-width="1" fill="none" fill-rule="evenodd">
        <g id="Group">
            <circle id="Oval-2" fill="#8F6DF5" cx="31" cy="31" r="31"></circle>
            <g id="messenger" transform="translate(14.000000, 14.000000)" fill-rule="nonzero">
                <path d="M17,0 C7.60455335,0 0,7.60325637 0,17 C0,19.9817966 0.77767949,22.8940738 2.25444036,25.4626469 L0.0640716729,32.2646185 C-0.0887146343,32.7388006 0.0368347506,33.2586371 0.389099128,33.6109014 C0.737991329,33.9597936 1.25653078,34.0900122 1.73538208,33.9359289 L8.53735366,31.7455602 C11.1059267,33.2223211 14.018204,34 17,34 C26.3954472,34 34,26.3967442 34,17 C34,7.60455335 26.3967442,0 17,0 Z" id="Shape" fill="#FFF5F5"></path>
                <path d="M10.1320184,20.1507533 C11.0745847,19.741222 12.1616176,20.1947665 12.5599743,21.1637731 C13.3079368,22.9831991 15.0455447,24.1903955 17.0000433,24.1903955 C18.9544842,24.1903955 20.6920503,22.983271 21.4400499,21.163925 C21.8384383,20.1949321 22.9254861,19.7414252 23.868039,20.150989 C24.8105919,20.5605528 25.2517244,21.6780938 24.853336,22.6470867 C23.5305438,25.8644901 20.4566358,28 17.0000433,28 C13.5433482,28 10.4693669,25.8643634 9.14663983,22.646817 C8.74828306,21.6778104 9.18945205,20.5602846 10.1320184,20.1507533 Z" id="Smile" fill="#8F6DF5"></path>
            </g>
        </g>
    </g>
</svg>