<svg xmlns="http://www.w3.org/2000/svg" xmlns:xlink="http://www.w3.org/1999/xlink" width="264" height="192" viewBox="0 0 264 192">
    <defs>
        <path id="7fxz7uy6ga" d="M38 .835c4.97 0 9 4.03 9 9v64c0 4.97-4.03 9-9 9H9c-3.33 0-6.239-1.81-7.795-4.499H35.5c2.761 0 5-2.24 5-5V11.03c0-3.796-2.15-7.264-5.549-8.954L32.453.835H38z"/>
    </defs>
    <g fill="none" fill-rule="evenodd">
        <path fill="#FF4241" fill-opacity=".07" fill-rule="nonzero" d="M75.048 188.185C56.68 186.387 29 172.513 29 125.363c0-19.376 17.652-69.284 42.66-88.588C107.507 9.104 136.973-3.396 202 40c48.643 32.462 45.448 124.108 30 134-32.318 20.694-138.584 15.984-156.952 14.185z" transform="translate(0 -1)"/>
        <g transform="translate(0 -1) translate(69 60)">
            <rect width="29" height="10" x="8" y="25" fill="#8F6DF5" rx="3"/>
            <g transform="translate(0 34.165)">
                <rect width="47" height="82" y=".835" fill="#FFF" rx="9"/>
                <use fill="#DED3FC" xlink:href="#7fxz7uy6ga"/>
            </g>
            <path fill="#F6F2FE" d="M4 48H9V110H4z"/>
            <rect width="20" height="7" x="26" y="62" fill="#DED3FC" rx="3.5"/>
            <rect width="20" height="7" x="26" y="74" fill="#DED3FC" rx="3.5"/>
            <rect width="20" height="7" x="26" y="86" fill="#DED3FC" rx="3.5"/>
            <rect width="4" height="7" x="10" y="26" fill="#A88EF6" rx="2"/>
            <path fill="#FDCC3E" d="M23 0c3.314 0 6 2.686 6 6 0 1.475-.532 2.826-1.415 3.87-.168.708-.251 1.58-.251 2.618C27.334 16.096 31 16.464 31 25H15c0-9.5 3.896-8.398 3.896-12.512 0-.886-.055-1.645-.166-2.276-.63-.635-1.117-1.413-1.412-2.279l-.014-.004h.013C17.11 7.322 17 6.673 17 6c0-3.314 2.686-6 6-6z"/>
        </g>
        <g>
            <g>
                <path fill="#8F6DF5" d="M4.195 146.095L56.681 0l63.873 142.985c2.252 5.043-.01 10.957-5.052 13.21-.419.186-.85.344-1.29.472-12.277 3.566-28.217 5.348-47.818 5.348-20.262 0-38.224-.866-53.887-2.6-5.49-.607-9.447-5.55-8.84-11.038.086-.779.263-1.545.528-2.282z" transform="translate(0 -1) translate(106.606) translate(0 15.985)"/>
                <path fill="#2AA598" d="M113.942 128.187l6.612 14.798c2.252 5.043-.01 10.957-5.052 13.21-.419.186-.85.344-1.29.472-2.23.648-4.58 1.237-7.053 1.767-37.84-8.45-68.71-22.286-92.43-41.657l11.295-31.44c20.388 19.943 49.603 34.302 87.918 42.85zM80.973 54.38L97.77 91.984c-24.755-6.316-46.326-15.093-64.658-26.376l10.76-29.955C54.6 42.938 66.959 49.186 80.974 54.381z" transform="translate(0 -1) translate(106.606) translate(0 15.985)"/>
                <path fill="#000" fill-opacity=".1" d="M58.747 4.626l61.807 138.36c2.252 5.042-.01 10.956-5.052 13.208-.419.187-.85.345-1.29.473-7.841 2.277-17.177 3.827-28.006 4.65L55.894 4.907l2.853-.281z" transform="translate(0 -1) translate(106.606) translate(0 15.985)"/>
            </g>
            <g fill="#FD4270" transform="translate(0 -1) translate(106.606) translate(36.394)">
                <circle cx="19.5" cy="20.892" r="9.5"/>
                <path d="M29.75 3.005c1.435.828 1.927 2.663 1.098 4.098l-6 10.392-5.196-3 6-10.392c.828-1.435 2.663-1.927 4.098-1.098z"/>
                <path d="M36.887 10.142c.829 1.435.337 3.27-1.098 4.098l-10.392 6-3-5.196 10.392-6c1.435-.828 3.27-.337 4.098 1.098z"/>
                <path d="M39.5 19.892c0 1.657-1.343 3-3 3h-12v-6h12c1.657 0 3 1.343 3 3z"/>
                <path d="M36.887 29.642c-.828 1.435-2.663 1.927-4.098 1.098l-10.392-6 3-5.196 10.392 6c1.435.829 1.927 2.663 1.098 4.098z"/>
                <path d="M29.75 36.78c-1.435.828-3.27.337-4.098-1.098l-6-10.393 5.196-3 6 10.393c.829 1.435.337 3.27-1.098 4.098z"/>
                <path d="M20 39.392c-1.657 0-3-1.343-3-3v-12h6v12c0 1.657-1.343 3-3 3z"/>
                <path d="M10.25 36.78c-1.435-.829-1.927-2.663-1.098-4.098l6-10.393 5.196 3-6 10.393c-.828 1.435-2.663 1.926-4.098 1.098z"/>
                <path d="M3.113 29.642c-.829-1.435-.337-3.27 1.098-4.098l10.392-6 3 5.196-10.392 6c-1.435.829-3.27.337-4.098-1.098z"/>
                <path d="M.5 19.892c0-1.657 1.343-3 3-3h12v6h-12c-1.657 0-3-1.343-3-3z"/>
                <path d="M3.113 10.142C3.94 8.707 5.776 8.216 7.21 9.044l10.392 6-3 5.196-10.392-6c-1.435-.828-1.927-2.663-1.098-4.098z"/>
                <path d="M10.25 3.005c1.435-.829 3.27-.337 4.098 1.098l6 10.392-5.196 3-6-10.392c-.829-1.435-.337-3.27 1.098-4.098z"/>
                <path d="M20 .392c1.657 0 3 1.343 3 3v12h-6v-12c0-1.657 1.343-3 3-3z"/>
            </g>
        </g>
        <g transform="translate(0 -1) translate(21.17 22.29)">
            <path stroke="#8F6DF5" stroke-linecap="round" stroke-width="6" d="M200.763 78.769c2.66 4.841 6.836 6.455 12.528 4.841 8.539-2.42 8.116-7.682 4.058-8.29-4.058-.61-9.93 9.019 0 14.405 2.699 1.463 5.553 1.31 8.563-.462"/>
            <rect width="21" height="9" x="183.83" y="31.711" fill="#FDCC3E" rx="4.5" transform="rotate(-45 194.33 36.21)"/>
            <circle cx="22.33" cy="151.211" r="7.5" fill="#FDCC3E"/>
            <path stroke="#FD4270" stroke-linecap="round" stroke-linejoin="round" stroke-width="6" d="M3.329 79.505c-4.439 4.947-4.439 10.77 0 17.467 6.657 10.046 26.442-4.993 16.795-7.897-9.647-2.903-18.322 11.614-5.294 19.672"/>
            <path stroke="#2AA598" stroke-linecap="round" stroke-width="7" d="M46.32 0c-2.685 4.178-2.947 7.379-.787 9.603 3.24 3.336 7.844-3.34 12.179 1.094 2.89 2.957 2.602 6.284-.864 9.984"/>
            <path stroke="#FFF" stroke-linecap="round" stroke-opacity=".145" stroke-width="6" d="M135.83 32.366L121.83 74.711"/>
            <circle cx="7.33" cy="51.211" r="6.5" fill="#8F6DF5"/>
        </g>
    </g>
</svg>
