<svg height="192" viewBox="0 0 264 192" width="264" xmlns="http://www.w3.org/2000/svg"><g fill="none" fill-rule="evenodd"><path d="m18 145.735c-11.813-45.667 65.985-42.525 52.286-84.849-13.698-42.325 85.966-90.21 142.924-37.795 18.79 17.292 28.82 63.054 1.79 83.887s75.17 35.842-1.79 68.432-183.397 15.992-195.21-29.675z" fill="#000" fill-opacity=".04" fill-rule="nonzero"/><g transform="translate(39 87.155)"><ellipse cx="42.662" cy="48.716" fill="#f2c2a7" rx="33.643" ry="33.648"/><path d="m35.226 27.276 9.823 38.71c1.417 5.586-1.962 11.262-7.547 12.68a10.433 10.433 0 0 1 -3.88.237 59.696 59.696 0 0 1 -8.36-1.684c1.626 1.579 5.135 2.873 5.802 3.153 5.755 2.42 22.588 4.613 30.773-5.968 4.201-5.43-.217-29.91-13.253-73.44l-13.358 26.313z" fill="#bf8458" fill-opacity=".2"/></g><g transform="translate(55 4)"><path d="m1.317 31.746c-1.802-6.727 2.186-13.644 8.91-15.452l58.459-15.717c6.724-1.807 13.636 2.185 15.437 8.907l34.733 129.626c1.802 6.727-2.186 13.645-8.91 15.452l-58.458 15.718c-6.724 1.807-13.636-2.185-15.437-8.907z" fill="#5f5f5f"/><path d="m6.092 33.888a4.512 4.512 0 0 1 3.192-5.508l66.328-17.772a4.488 4.488 0 0 1 5.495 3.18l32.928 124.136a4.512 4.512 0 0 1 -3.191 5.508l-66.328 17.772a4.488 4.488 0 0 1 -5.496-3.18z" fill="#fff"/><g fill-rule="nonzero"><circle cx="60" cy="82" fill="#66ac16" r="28"/><path d="m49.708 85.244a2 2 0 0 0 -1.943 3.497l9 5a2 2 0 0 0 2.708-.756l12-21a2 2 0 0 0 -3.473-1.985l-11.02 19.284z" fill="#fff"/></g></g><path d="m169.406 157.011c4.79-1.34 6.91-6.046 4.726-10.526l-12.578-25.808a11.543 11.543 0 0 0 -.957-1.563l-20.22-26.897c-7.033-9.681-19.94-.304-12.906 9.378 21.102 29.045 17.64 23.124 38.548 51.9l-19.572 3.486c-6.238-.93-9.745 4.752-10.104 9.285z" fill="#000" fill-opacity=".1"/><path d="m189.29 98.407 5.053 6.007c-6.538-7.772 1.5-16.319 8.697-12.74 1.147.571 2.272 1.45 3.314 2.687l18.573 22.077c8.453 10.049 8.676 26.509.5 36.768 0 0-.695 2.156-7.53 7.877-6.836 5.72-11.514 6.84-11.514 6.84-6.74 3.058-18.258 4.79-25.626 4.139l-30.924-2.735c-10.348-.92-9.692-18.74.653-17.823l23.233 1.383-45.726-54.354c-7.58-9.01 4.431-19.062 12.01-10.053l20.213 24.026c-7.58-9.01 4.431-19.062 12.01-10.053l5.053 6.007c-7.58-9.01 4.432-19.062 12.011-10.053z" fill="#f2c2a7"/><path d="m173.734 152.861c3.57-1.793-9.403-16.685-20.364-30.057-10.96-13.371-30.558-29.514-24.762-36.286-1.751 1.022-2.883 3.212-3.002 5.721-.085 1.785.6 4.103 1.795 5.535 17.639 21.124 43.791 52.094 46.333 55.087zm-31.166 6.281c-.371 3.433.864 6.334 2.438 7.858 1.281 1.24 3.155 2.226 4.927 2.38 13.856 1.21 19.54 1.632 32.278 2.759 6.135.542 15.301-1.445 17.49-1.94.422-.096-15.145-.1-30.817-1.687-14.99-1.517-22.966.565-26.316-9.37z" fill="#bf8458" fill-opacity=".2"/><path d="m54.917 115.783 14.12-24.195c2.266-3.925 7.297-5.261 11.221-2.996 3.932 2.27 5.283 7.29 3.017 11.216l-13.927 24.122" fill="#f2c2a7"/></g></svg>