<svg height="192" viewBox="0 0 264 192" width="264" xmlns="http://www.w3.org/2000/svg"><g fill="none" fill-rule="evenodd" transform="translate(15)"><path d="m45.4227565 188.45602c-30.2245086-9.441434-45.33676293-26.959368-45.33676293-52.553802 0-38.3916522 24.36033373-57.5030976 49.82341443-57.5030976 25.4630806 0 63.471086 6.0368001 63.471086-28.1848768s46.894569-58.99864966 80.006085-46.79336774c33.111517 12.20528194 44.643091 68.92870054 15.799417 80.50062014s20.167412 56.356398-15.799417 86.719338c-23.977886 20.24196-73.29916 26.180355-147.9638225 17.815186z" fill="#000" fill-opacity=".04" fill-rule="nonzero"/><g transform="translate(36.235 .514)"><g transform="matrix(-1 0 0 1 69.414 13.585)"><g transform="translate(0 42.47)"><path d="m16.3118716.05587643h24.9553386c-3.7879394 12.59909307-3.0028408 19.67189217 2.3552958 21.21839747 5.3581365 1.5465054 4.5730379 15.859046-2.3552958 42.9376219h-40.98044007l6.62588484-41.8395716c1.77686909-.5947715-.00204515 1.5038715 6.65756883-1.7806224 4.4397427-2.1896626 5.3536252-9.0349377 2.7416478-20.53582537z" fill="#bb7750"/><path d="m34.5536809.05587643h1.4457774c-1.5769268 7.57537018-4.6562707 12.48738487-9.2380318 14.73604417-2.6110022 1.2814405-5.8789731 1.8581836-9.8039126 1.7302293.7026792-1.9795553.9456687-4.5660937.7289684-7.75961519z" fill="#784931"/></g><path d="m1.36220769.26331803h45.41600931c2.8135021 1.03040247 4.8891002 5.43032784 6.2267944 13.19977607 1.3314615 7.7332488-1.0576452 14.2781446-7.1673203 19.6346875l.0000019.0000022c-1.7085499 1.497939-2.8553591 3.533609-3.2511807 5.7710828-1.1261315 6.3657219-2.8486296 10.5171019-5.1674942 12.45414-4.1039511 3.4281905-17.1946699 6.2742418-23.7842541 3.1371209-6.58958425-3.1371209-12.27255631-9.0242393-12.27255631-15.0953109 0-6.0710717-1.13148802-30.03478808 0-39.10149857z" fill="#bb7750"/><path d="m16.6480866 25.6961337c-1.4179819 2.9032915-3.4996307 5.9767663-2.781281 7.919226.4788998 1.2949731 1.8392541 1.7757139 4.0810629 1.4422224" stroke="#784931" stroke-linecap="round" stroke-width="1.316"/><path d="m26.5364611 28.2579768c1.023793 0 1.8537412-.9536327 1.8537412-2.1299984 0-1.1763656-.8299482-2.1299984-1.8537412-2.1299984s-1.8537411.9536328-1.8537411 2.1299984c0 1.1763657.8299481 2.1299984 1.8537411 2.1299984z" fill="#000"/><path d="m23.5530852 20.5671884c1.0060777-.6363292 2.1877877-.9544938 3.5451301-.9544938s2.5390525.3181646 3.5451301.9544938" stroke="#000" stroke-linecap="round" stroke-width="1.316"/><path d="m11.8171594 41.1721863c1.1965274 2.4397652 3.0410137 3.6596478 5.5334588 3.6596478 2.4924452 0 4.592352-1.0447147 6.2997203-3.1341441" stroke="#784931" stroke-linecap="round" stroke-width="1.316"/><path d="m7.32845761 28.2579768c1.02379297 0 1.85374115-.9536327 1.85374115-2.1299984 0-1.1763656-.82994818-2.1299984-1.85374115-2.1299984s-1.85374115.9536328-1.85374115 2.1299984c0 1.1763657.82994818 2.1299984 1.85374115 2.1299984z" fill="#000"/><path d="m4.05789105 20.5671884c.65481291-.6363292 1.66089057-.9544938 3.01823299-.9544938s2.36342008.3181646 3.01823296.9544938" stroke="#000" stroke-linecap="round" stroke-width="1.316"/></g><path d="m18.5471976.1553401c6.5428903-.15647367 15.1211076 1.14048341 17.7528215 4.08390922 5.8220132 6.51113318 6.4377512 8.96846898 3.2512261 13.08087688-1.8207944 2.0260921-3.9925919 4.1280014-6.507844 6.5606025-4.4180011 4.2753341-9.9138133 9.5922129-15.4382019 16.5464193-5.1097628 5.4744279-8.99991149 9.1158016-17.52858392 10.7482899.62382564-.6936462 2.702885-1.9432848 3.03933029-2.7380205 1.62345636-3.8360248 12.16492883-48.20410931 15.43125193-48.2820773z" fill="#27a9f6" transform="matrix(1 0 0 -1 58.544 128.598)"/><path d="m19.0210839 34.2942302c.0099858 5.0128524-.1055933 18.0649468-1.4627375 18.5213827-4.8051056 1.6160571-16.22923347-29.9728891-13.42201425-29.5043961 1.62892602.2718493 14.83940995-11.7783477 14.88475175 10.9830134z" fill="#2e82dc" opacity=".3" transform="matrix(.99026807 -.1391731 .1391731 .99026807 53.558036 79.21739)"/><path d="m70.8517687 25.3028461c0 7.4637988-.890704 11.1956982-2.672112 11.1956982.0686693-6.6115782.0167535-9.8976681-.1557473-9.8582699-12.1785683 2.7815167-21.6902373 1.7269324-28.5350072-3.1637529-1.5992507-.0557508-3.8602273 1.8795133-6.7829296 5.8057925-3.6089449 4.848159-4.0151109 7.7341971-4.35123 10.2454267-.0721897.5393475-2.0717835 5.3441239-2.0717835 7.1296128 0 6.0878344 3.7368567 15.1486873 3.3172016 15.2798118-6.9514446 0-24.19707425-40.0949758-6.113341-49.7914425 4.8679229-12.73583148 26.412421-15.5088994 35.2574396-7.50840387 8.8450186 8.00049557 20.5910384 7.50840387 12.1075094 20.66552717z" fill="#2d1707" fill-rule="nonzero"/><path d="m31.8332667 39.0853926-2.3918913-1.9317928c-1.9225496-1.5527326-4.7398225-1.2529366-6.2925551.6696131-1.5527326 1.9225496-1.2529366 4.7398225.669613 6.2925551l2.3918913 1.9317927c1.9225496 1.5527326 4.7398225 1.2529366 6.2925551-.669613 1.5527326-1.9225497 1.2529366-4.7398226-.669613-6.2925551z" fill="#bb7750"/><path d="m4.75866646 98.5691898c2.42160666-12.568564 9.68919904-19.8103148 21.80277704-21.7252525l-.0000059-.000037c.273534-.0432408.5338047.1328223.5954563.4028032 2.6445123 11.5806843 10.3461171 16.7184378 23.1048145 15.4132605 12.9325399-1.3229609 14.8969258-6.6197021 5.8931578-15.8902236 10.0116712.8948972 16.1682003 10.8496527 18.469587 29.8642666 3.4520802 28.521921.7876592 24.505451 0 43.223789-.4701275 11.172353-7.1665066 25.047735-20.0891371 41.626146-6.6125343 0-16.6583666-.312586-30.137497-.937759l-9.4011282-76.970751c-9.27944491 2.733024-12.69211972-2.269057-10.23802444-15.0062422z" fill="#27a9f6"/><path d="m31.3253502 103.837023c4.1545974 6.667366 3.0504605 17.096437 3.0504605 28.837641-4.1094384 5.056919-12.2034151 6.31514-24.2819301 3.774664l.000001-.000006c-.89003248-.1872-1.60791676-.843474-1.87401566-1.713183-3.67488168-12.010861-2.90406181-20.292664 2.31245956-24.845408 8.1249226-7.091066 16.6384273-12.7210741 20.7930247-6.053708z" fill="#2e82dc" opacity=".3"/><path d="m26.0172277 104.546189c-2.6876659 30.304562-4.9534855 20.216765-2.6876659 31.268899s5.5449806 41.711691 2.6876659 54.825771c0 0-27.38609628-9.87185-23.55601483-9.87185-1.3340484-10.836217 0-39.891133 0-46.258876 0-6.533647 3.49712079-18.762147 6.11982255-27.158166 0 0 7.73835738-2.805778 17.43619228-2.805778z" fill="#bb7750" transform="matrix(1 0 0 -1 0 295.187)"/><path d="m9.40703048 88.1334593 22.28018302 7.8224739v35.9748238c-5.0013542 3.646685-21.1396569 5.565373-30.98758618-1.661204-1.25806277-4.602648.50505989-16.610834 2.73130351-28.021431 1.48416242-7.6070646 3.47619563-12.3119522 5.97609965-14.1146627z" fill="#27a9f6"/></g><g transform="translate(60.633 24.986)"><path d="m99.5607427 5.13220016c29.3803023-1.5957743 25.8773093 35.29235394 25.8773093 103.24535284 0 44.568839-62.716631 44.568839-62.716631 0 0-44.56884-1.3261186-63.4037656-1.3261186-78.5566964 16.764261-15.9876895 29.4860744-24.21724165 38.1654403-24.68865644z" fill="#000"/><g transform="translate(41.95 51.887)"><path d="m37.1684414 25.2888059c.7363148-.5340483 1.9546223-6.7569708 3.6549227-18.66876743 15.5461564-6.28705197 22.4398826-8.06708164 20.6811786-5.34008902-2.6380559 4.09048894-3.4192131 18.01662215-1.7096065 19.97324935 1.7096065 1.9566272 6.3168506 4.0356071 13.0832647 4.8275997l-16.7274241 39.8475819h-25.3390865c-2.4091455-4.6951017-4.4444563-8.967965-6.1059325-12.8185899l-7.0439411 14.9013631-17.44796932-2.4456669c7.14704413-18.8489142 14.59703712-35.8775946 26.12937092-37.7016078 5.5346486-.8753886 9.720751-1.7740005 10.8252231-2.575073z" fill="#eeaf8b"/><path d="m39.2379333 16.9041211c.2999786-1.7523446.6231251-3.7781345.9694393-6.0773696h11.6739732c-2.2473282 3.1328681-5.614777 5.1053592-10.1023464 5.9174736-.8611865.1558487-1.7082085.2091473-2.5410661.159896z" fill="#cc8961"/></g><path d="m76.4325362 11.1620341c.8793784-.4288407 1.7786153-.8111989 2.6977107-1.1470745l.0000008.0000022c10.9229857-3.99171202 23.0137373 1.6271955 27.0054493 12.5501812.654961 1.7922471 1.063271 3.665204 1.213717 5.567437.468674 5.9259227.703012 10.0515687.703012 12.3769382 0 6.1844774-5.673711 21.1783216-16.7337494 24.4647488s-26.0598515-1.0946147-26.0598515-19.5093501-.9957929-28.3682601 11.1737111-34.3028828z" fill="#eeaf8b"/><g transform="translate(72.974 51.65)"><path d="m6.81619415 6.05829669c5.05394435 0 6.55913555-4.59649789 6.55913555-5.73782355 0-.56470768-3.1691087.85637176-6.55913555.8770103-3.39002681.02063855-6.69100923-1.44171798-6.69100923-.8770103 0 1.14132566 1.63706489 5.73782355 6.69100923 5.73782355z" fill="#8a1123"/><path d="m3.71617214 5.36185916c.89694956-.6963073 2.23844725-1.35232618 4.13436285-1.72295831 1.55041991-.30309125 2.79459531-.0543045 3.72545821.46152242-1.023701 1.08200273-2.55363949 1.95787342-4.75979905 1.95787342-1.22591737 0-2.25079072-.27045097-3.10002201-.69643753z" fill="#fa4863"/><path d="m1.1621647.31352463c1.23976047.27145692 3.42769272.89751279 5.65402945.88395881 2.40076906-.01461592 4.69074175-.73159107 5.82279585-.94822365-.4247813 1.11983946-3.77523873 1.85114854-6.38711717 1.85114854-2.117408 0-4.20377452-.83615747-5.08970813-1.7868837z" fill="#fff"/></g><path d="m70.773587 6.96978001c7.4206506-6.23578952 22.5057585-10.41154453 32.935106-1.88720591 9.354153 1.2623268 15.347726 7.0157096 17.980719 17.2601485 5.983696 23.2813416-22.0798857 42.5687729-18.459229 33.4423097 3.620656-9.1264632 1.075214-7.7646678-.959351-19.6506424-1.356376-7.923983-1.036593-14.0103603.959351-18.2591319-14.0956478 9.2881392-28.0399853 13.331311-41.8330129 12.1295154 0-7.4129671 1.9557662-16.7992039 9.3764169-23.03499339z" fill="#000"/><g transform="translate(50.294 76.682)"><path d="m6.14289979 90.3298701c-15.41732861-4.0120352 4.87416241-40.3370518 4.87416241-47.8499447-22.1731006-9.7642139 8.416744-36.26172721 11.0640989-40.02388003l2.0755121-.45166824c-6.0259323 8.10225817-19.92377174 23.10764537-2.0755121 23.10764537 19.4289511 0 23.4420075-35.2983722 46.9957311-21.8437247 10.8037848 6.17147077-6.1484593 44.5976334-7.2516381 64.8742372-.1490679 2.7398923.7097904 6.7038659 1.5575161 11.4305559.4076706 2.2730614-26.0947929 8.7216459-46.9311247 10.4373637z" fill="#fa4863"/><path d="m12.2316071 43.2163117c2.5061002 5.2764125 3.7879966 8.2695273 3.8456892 8.9793445.7153206 8.8008983.1783152 12.9220081 1.1631574 15.2532792 1.1039876 2.6133064 7.7095357 9.2123211 19.8166441 19.7970439l-6.2935037 1.2124395-20.1569884-16.0641129.4948666-24.0488451z" fill="#8a1123" fill-opacity=".283"/></g><path d="m97.2543011 101.987929c8.2077549-12.2529387 17.8828359-24.6988188 31.1950709-14.5445257 5.935392 4.5273922 2.744067 14.9394367-.087403 19.8834937-5.348565 9.339179-22.413551 25.7493-32.2544125 33.011982-1.8944566 1.397588-16.7092078 13.629685-17.4139486 13.973275-1.3523263.659009-10.3268767 4.352141-19.3912845 5.884347-.8238117.094263-1.661258.027372-2.5123388-.200675-4.619714-1.553065-7.7606257-2.552278-9.4227352-2.997639-7.9947465-2.142186 22.1497413-18.051228 25.3384976-19.387385 3.1887563-1.336156 16.4444725-23.524703 24.5485541-35.622873z" fill="#eeaf8b" transform="matrix(.96592583 -.25881905 .25881905 .96592583 -28.539074 27.168214)"/><g transform="translate(0 97)"><path d="m23.5858304 13.959104s-3.3241054-8.09396198-6.1016083-8.77015353c-4.7414581-1.15283033-15.50062732 5.32055983-13.98285227 14.87112993 1.2063388 7.5893605 7.02956117 8.0532889 8.75453667 6.7364948 2.9529242-2.2548192 4.8329822-11.3147691 5.9910166-11.1851234 1.1580344.1296458 2.41522 2.0336588 2.41522 2.0336588z" fill="#3c1a00" transform="matrix(.9998477 -.01745241 .01745241 .9998477 -.280904 .237553)"/><path d="m36.9442697 9.56369216c23.4441586-.57196654 25.3725211 19.72776144 25.6776015 26.31046074.2402508 5.1998113-.8338865 9.9242549 1.1504074 14.4186409 1.3487096 3.0555723-5.8410188 8.7612563-14.7709767 13.3433438-8.8536878 4.5439564-19.4565033 4.9290805-20.2865763 2.4162408-.6088897-1.8391901-1.4834535-3.8575965-2.9567377-6.2827346-3.0304654-4.9875482-17.14551919-3.0047309-21.60986258-11.4393308-3.84909788-7.2716012-3.78426829-10.4059778-1.6525189-12.4561601s14.10996908-.6355184 14.10996908-.6355184-3.6851171-25.0889944 20.3386942-25.67494234z" fill="#fcc840" transform="matrix(.9998477 -.01745241 .01745241 .9998477 -.668261 .572851)"/><path d="m4.27759403 48.5740553c-3.84909788-7.2716013-3.78426829-10.4059779-1.6525189-12.4561602 2.13174939-2.0501822 14.10996907-.6355183 14.10996907-.6355183s12.3647077-.0356658 15.6353712 3.4317992c4.1541783 4.4041423 5.2206886 10.3030239.6915156 14.1085079-3.0810948 2.5887855-8.0252352 3.7858724-11.4524527 4.1978795-5.4720096-1.8699052-14.0344442-2.416569-17.33188427-8.6465081z" fill="#ffe398" transform="matrix(.9998477 -.01745241 .01745241 .9998477 -.801969 .331411)"/><g fill="#3c1a00"><path d="m3.59652911 47.6199193c-3.23852331-6.4539636-3.07028181-9.3606391-1.05523753-11.2985818 1.27959545-1.2306343 6.10694623-1.2128592 9.76188152-1.0019987.2538819.8614886.3901193 1.7733848.3901193 2.7170976 0 5.1320243-4.02896903 9.32313-9.09676329 9.5834829z" transform="matrix(.9998477 -.01745241 .01745241 .9998477 -.721742 .126537)"/><g fill-rule="nonzero"><path d="m15.9653308 55.5784542c5.6222077-.2682785 10.5014807-3.0937041 12.2366724-7.502649l1.1827054.4654675c-1.5866871 4.03161-5.451468 6.8349796-10.138914 7.8783025-1.0517363-.2786114-2.1589753-.5474541-3.2804638-.841121z" transform="matrix(.9998477 -.01745241 .01745241 .9998477 -.9084 .403691)"/><path d="m26.9379885 48.3340847c-.3291388.1218742-.6947571-.046147-.8166313-.3752858-.1218741-.3291388.046147-.6947571.3752859-.8166313 2.0060063-.742788 3.5631394-.1063025 4.4148328 1.8152643.1422199.3208725-.0026067.6962831-.3234792.838503s-.6962831-.0026067-.838503-.3234792c-.5771444-1.3021372-1.4289366-1.6503113-2.8115052-1.138371z" transform="matrix(.9998477 -.01745241 .01745241 .9998477 -.839392 .505176)"/></g></g><ellipse cx="19.255" cy="31.878" fill="#000" rx="1.975" ry="2.256" transform="matrix(.9998477 -.01745241 .01745241 .9998477 -.553415 .340901)"/><ellipse cx="34.786" cy="31.607" fill="#000" rx="1.975" ry="2.256" transform="matrix(.9998477 -.01745241 .01745241 .9998477 -.54632 .611913)"/><path d="m43.962868 15.0626227c.0627957-.0927857 5.9331785-7.78764218 9.5837199-10.77712061 1.4726485-1.20621388 3.2493606-2.91957142 6.4809249-3.16742358 4.2338805-.3250041 16.6332383 9.04596859 15.5765161 20.13322209-.3597407 3.7737081-4.8728969 11.6655753-12.4945684 9.4882894-5.8612303-1.6739554-6.1098708-15.2410017-9.0960996-16.5946558-2.4892019-1.1274096-5.3270854 2.7530656-6.9105798 3.2055546-.3335546.0953278-1.4013361.3838531-2.3566191-.4346945-.7052442-.6037425-.8771062-1.3854301-.7835482-1.8519006l.0001271-.001271z" fill="#3c1a00" transform="matrix(.9998477 -.01745241 .01745241 .9998477 -.272067 1.04616)"/><path d="m28.9472674 65.1415102c-1.6042145-6.6996347 33.2423246-20.1827925 34.906284-15.9133801.5529582 1.417206 1.4008275 2.8039071 2.6910635 4.1664585 2.1791984 2.3017576 3.3707357 6.1287817 15.8708204 15.1655527-9.4315457 1.094222-19.4614303 1.5593428-30.089654 1.3953621-6.4836606-.1000351-13.9324697-.1518489-22.3734649-.506467-.0673719-.4041897-.4787853-2.1086326-1.005049-4.3075262z" fill="#f9c93b" transform="matrix(.9998477 -.01745241 .01745241 .9998477 -1.024671 .980312)"/><path d="m68.3612818 55.2816322c-2.9759383 4.2522417-9.7050766 12.5032803-20.4951804 14.8575861l-17.7286044-.1251782c-.079704-.3472915-.499775-1.9208344-1.2602129-4.7206289 6.5767854.378569 12.1068584-.2447219 16.5902188-1.8698727 10.8513849-3.933464 15.5902625-8.3549069 18.9697885-12.8457842.0001892.0004259 2.3277078 2.8729654 3.9239904 4.7038779z" fill="#ff4f41" fill-rule="nonzero"/></g><path d="m68.089722 150.818064-15.6055547 14.345917 14.3620071 1.763433c3.8215405.025116 9.411179-2.233986 16.7689156-6.777306z" fill="#f2c2a7" transform="matrix(.99254615 -.12186934 .12186934 .99254615 -18.854514 9.477424)"/><path d="m.41377928.91046641c.75542069-.36032222 1.68647377-.54048334 2.79315922-.54048334s2.03773852.18016112 2.79315921.54048334m13.48735849 0c.7554207-.36032222 1.6864738-.54048334 2.7931593-.54048334 1.1066854 0 2.0377385.18016112 2.7931592.54048334" stroke="#000" stroke-linecap="round" stroke-width="1.053" transform="translate(67.53 32.014)"/><g transform="translate(65.71 35.635)"><path d="m11.8087197 4.14113113c-.6943307 3.22192907-.7668907 5.48148146-.21768 6.77865717.8238161 1.9457636 2.8293244.6351254 4.1141755.088355" stroke="#cc8961" stroke-linecap="round" stroke-width="1.316" transform="matrix(.92050485 .39073113 -.39073113 .92050485 4.213914 -4.622047)"/><ellipse cx="4.916" cy="2.055" fill="#000" rx="2.002" ry="1.997"/><ellipse cx="24.016" cy="2.055" fill="#000" rx="2.002" ry="1.997"/><path d="m26.5805858 5.83870285h2.1159495c.870683 0 1.5765109.70582799 1.5765109 1.57651093 0 .87068295-.7058279 1.57651094-1.5765109 1.57651094h-2.1159495c-.870683 0-1.5765109-.70582799-1.5765109-1.57651094 0-.87068294.7058279-1.57651093 1.5765109-1.57651093zm-24.76416554 0h2.11594952c.87068295 0 1.57651093.70582799 1.57651093 1.57651093 0 .87068295-.70582798 1.57651094-1.57651093 1.57651094h-2.11594952c-.87068295 0-1.57651094-.70582799-1.57651094-1.57651094 0-.87068294.70582799-1.57651093 1.57651094-1.57651093z" fill="#ef9d84"/></g></g></g></svg>