<svg height="192" viewBox="0 0 264 192" width="264" xmlns="http://www.w3.org/2000/svg"><g fill="none" fill-rule="evenodd"><path d="m42.452 175.178c-44.648-2.355-40.308-53.811-23.097-71.123 18.512-18.62 25.349-9.918 27.66-35.35 2.2-24.205 44.329-51.912 83.405-53.27 51.325-1.782 66.917 49.58 76.165 63 12.406 18 58.242 12.619 50.358 65.46-4.875 32.67-50.048 32.853-50.048 32.853s-123.982.563-164.443-1.57z" fill="#000" fill-opacity=".04" fill-rule="nonzero"/><path d="m78.334 164.563a2.945 2.945 0 0 1 -2.156-1.2 2.943 2.943 0 0 1 -.472-2.421c.268-1.087.567-2.333.866-3.57.944-3.858 4.406-6.579 8.387-6.6l1.26-.007 16.602-17.687-1.747-28.35 28.908 11.074s-6.672 17.466-8.498 22.22a4.805 4.805 0 0 1 -1.416 1.995c-4.485 3.742-23.196 19.353-28.814 24.042a5.137 5.137 0 0 1 -3.682 1.184z" fill="#e6b200"/><path d="m105.842 171.988a2.518 2.518 0 0 1 -1.967-1.088 2.493 2.493 0 0 1 -.33-2.226c.346-1.09.755-2.34 1.148-3.55a7.744 7.744 0 0 1 7.192-5.333l1.747-.038 15.075-18.628a3.902 3.902 0 0 0 .016-4.892c-2.675-3.384-7.066-10.283-7.38-19.491-.457-13.328 7.286-33.04 22.031-20.407 12.086 10.355 11.016 36.861 10.245 46.075a7.65 7.65 0 0 1 -2.786 5.215c-6.436 5.267-23.7 19.374-29.018 23.713a5.312 5.312 0 0 1 -3.604 1.198c-3.021-.135-8.734-.386-12.369-.548z" fill="#f9c93b"/><path d="m196.186 64.211a16.436 16.436 0 0 0 -13.958-.782 16.383 16.383 0 0 0 -9.505 10.243c-4.107 12.971-8.215 29.003-5.76 35.14 3.022 7.584 6.28 11.86 9.033 14.267a8.636 8.636 0 0 1 1.684 11.123 6049.072 6049.072 0 0 1 -9.883 15.883 5.178 5.178 0 0 1 -2.281 2.01c-.929.422-2.172.984-3.258 1.478a5.442 5.442 0 0 0 -3.084 3.87 435.87 435.87 0 0 0 -1.055 5.215c-.157.7.032 1.426.504 1.973a2.32 2.32 0 0 0 1.873.818l11.236-.43a4.865 4.865 0 0 0 3.54-1.745c4.407-5.3 18.223-21.937 25.132-30.247a9.07 9.07 0 0 0 .928-10.28 766.34 766.34 0 0 1 -2.817-4.986 4.072 4.072 0 0 1 -.173-3.69c1.999-4.456 7.145-15.956 11.362-25.357 3.494-7.813.378-16.998-7.176-21.075-2.061-1.114-4.217-2.277-6.342-3.428z" fill="#e6b200"/><path d="m207.964 158.884a2.522 2.522 0 0 1 -1.386 1.916c-.736.36-1.712.84-2.627 1.292a5.469 5.469 0 0 0 -3.067 4.6c-.064 1.135-.13 2.4-.198 3.49a2.536 2.536 0 0 0 .7 1.882 2.522 2.522 0 0 0 1.86.769c3.681-.067 10.144-.184 12.878-.235a2.529 2.529 0 0 0 2.004-1.057c1.245-1.755 3.723-5.246 4.587-6.443a2.31 2.31 0 0 0 .39-.906c.84-3.697 6.085-27.151 8.21-36.656a8.293 8.293 0 0 0 -1.743-7.131c-.95-1.14-2.082-2.49-3.233-3.872a17.051 17.051 0 0 1 -2.76-17.261c4.76-11.88 9.437-33.171-9.598-47.29-26.043-19.33-41.11 9.206-41.576 22.231-.682 18.782 3.432 28.868 14.305 42.489 9.604 12.04 21.248 15.225 21.248 15.225 2.368 6.912.601 22.347.006 26.957z" fill="#f9c93b"/><path d="m202.5 46.5c9.667-9 14.667-18.333 15-28a2.49 2.49 0 0 1 4.964.144l.036.856c.333 11.667-3.167 22.167-10.5 31.5z" fill="#381400"/><path d="m104.205 123.189c-6.53-9.91-12.494-29.9 10.26-44.591 12.464-8.047 21.23-4.839 41.483-16.953 11.204-6.705 22.645-21.423 46.486-15.698 24.502 5.885 25.415 35.286.944 45.052-17.578 7.014-17.672 8.386-26.91 14.795-9.457 6.563-15.186 16.393-34.148 24.773-13.99 6.18-31.6 2.532-38.115-7.378z" fill="#f9c93b"/><g transform="matrix(.9947957 .10188973 -.10188973 .9947957 32.553345 81.36707)"><path d="m27.504 26.497s.685-9.238-5.958-10.309c-5.963-.96-17.903 7.272-16.23 19.097 1.33 9.4 5.724 8.409 7.887 6.82 3.704-2.72 6.226-13.868 7.657-13.683 1.43.185 2.946 2.564 2.946 2.564z" fill="#381400"/><path d="m4.794 74.03a6.777 6.777 0 0 1 -3.412-5.636 6.798 6.798 0 0 1 2.952-5.884c5.719-3.937 12.33-8.475 12.33-8.475s-7.68-21.685 10.246-37.03c9.731-8.335 22.713-9.955 30.302-9.225 4.918.475 5.932-.796 9.379-3.489 1.628-1.279 30.576 39.937 18.926 43.735-11.017 3.589-16.613 15.81-36.61 19.87-10.093 2.05-12.87 11.508-26.396 11.831-6.015.143-12.622-2.76-17.717-5.697z" fill="#f9c93b"/><path d="m16.251 54.317c10.488-3.104 20.84.322 23.45 7.935 1.31 3.823.43 8.004-2.062 11.721-3.82 2.842-7.97 5.583-15.14 5.756-6.018.145-12.622-2.757-17.719-5.693a6.81 6.81 0 0 1 -.452-11.521c4.872-3.357 10.398-7.15 11.923-8.198z" fill="#fde399"/><path d="m22.546 76.796s4.573.381 6.65-2.264" stroke="#381400" stroke-linecap="round" stroke-linejoin="round" stroke-width="2.305"/><path d="m2.302 70.765a5.595 5.595 0 0 1 -.278-5.827c.981-1.844 2.947-2.979 5.035-2.942l5.266.092c2.088.036 4.012 1.274 4.88 3.187a5.47 5.47 0 0 1 -.741 5.783c-.46.563-.945 1.128-1.406 1.684a7.36 7.36 0 0 1 -6.027 2.67 7.447 7.447 0 0 1 -5.781-3.23c-.3-.468-.624-.943-.948-1.417z" fill="#381400"/><ellipse cx="32.68" cy="45.935" fill="#381400" rx="2.445" ry="2.786" transform="matrix(.94637331 -.32307516 .32307516 .94637331 -13.087937 13.021438)"/><path d="m62.879 8.791a1.705 1.705 0 0 1 -.023-2.888c1.477-.96 3.298-2.146 4.432-2.882a2.075 2.075 0 0 1 2.21-.025c2.533 1.629 8.96 6.318 14.97 15.328 5.57 8.311 7.056 22.34 7.386 26.352a1.737 1.737 0 0 1 -.896 1.633c-1.325.726-3.719 2.04-5.36 2.937-.377.203-.82.2-1.201-.003a1.222 1.222 0 0 1 -.612-1.009c-.26-4.462-1.343-15.594-5.877-23.287-5.408-9.17-11.678-14.034-15.028-16.156z" fill="#ff4f41" fill-rule="nonzero"/><path d="m39.639 28.556v-.002c.064-.194 1.757-7.977 5.295-12.587 1.433-1.867 3.089-4.431 6.913-5.646 5.01-1.592 22.604 6.155 24.469 19.783.635 4.639-2.57 15.406-12.37 14.952-7.537-.35-11.677-16.589-15.659-17.369-3.318-.649-2.436 1.735-4.216 2.729-.376.209-1.58.859-2.963.146-1.02-.526-1.45-1.417-1.469-2.006z" fill="#381400"/></g></g></svg>