<svg height="192" viewBox="0 0 264 192" width="264" xmlns="http://www.w3.org/2000/svg" xmlns:xlink="http://www.w3.org/1999/xlink"><defs><path id="a" d="m135.28 13.989c31.101 0 36.851 25.023 36.851 25.023 2.05 4.992 7.71 10.794 12.544 13.223 0 0 26.037 9.416 26.037 30.203 0 20.788 14.83 29.063 14.83 60.589s-87.178 36.316-119.037 36.316-86.538-3.198-99.789-32.627c-13.25-29.43-3.375-53.818 13.25-62.267 16.627-8.45 16.395-14.033 16.395-26.808 0-12.776-2.732-8.252-4.63-20.559-1.897-12.307 14.396-36.304 45.584-36.304 31.19 0 37.368 13.21 57.964 13.21z"/><rect id="b" height="34.23" rx=".573" width="7.498" x="4.614" y="44.365"/><filter id="c" height="105.8%" width="126.7%" x="-6.7%" y="-1.5%"><feOffset dx="1" dy="1" in="SourceAlpha" result="shadowOffsetOuter1"/><feColorMatrix in="shadowOffsetOuter1" values="0 0 0 0 0 0 0 0 0 0 0 0 0 0 0 0 0 0 0.105751812 0"/></filter><path id="d" d="m5.788 59.498h17.81v4.441h-17.81z"/><filter id="e" height="145%" width="111.2%" x="-2.8%" y="-11.3%"><feOffset dx="1" dy="1" in="SourceAlpha" result="shadowOffsetOuter1"/><feColorMatrix in="shadowOffsetOuter1" values="0 0 0 0 0 0 0 0 0 0 0 0 0 0 0 0 0 0 0.11 0"/></filter><path id="f" d="m15.397.245-15.02 28.764h131.99l-11.115-28.764z"/><path id="g" d="m.058.17h25.26l-3.114 26.636h-19.032z"/><mask id="h" fill="#fff"><use fill="#fff" fill-rule="evenodd" xlink:href="#a"/></mask><mask id="i" fill="#fff"><use fill="#fff" fill-rule="evenodd" xlink:href="#f"/></mask><mask id="j" fill="#fff"><use fill="#fff" fill-rule="evenodd" xlink:href="#g"/></mask></defs><g fill="none" fill-rule="evenodd" transform="translate(19 6)"><use fill="#000" fill-opacity=".04" fill-rule="nonzero" xlink:href="#a"/><g mask="url(#h)"><path d="m-8.775 150.33h247.114v44.85h-247.114z" fill="#000" fill-opacity=".08" fill-rule="nonzero"/><path d="m48.123-28.657h110.734v174.647h-110.734z" fill="#27a9f6" fill-rule="nonzero"/><path d="m66.29 62.284h73.823v71.336h-73.823zm5.768 8.054v54.078h61.422v-54.078z" fill="#000" opacity=".105"/><path d="m72.923 71.489h1.153v51.2h-1.153zm59.12-.001v1.15h-57.935v-1.15z" fill="#fff" fill-opacity=".165"/><path d="m65.9 9.451h75.553v43.723h-75.553v-43.724zm6.222 6.204v31.355h64.018v-31.355z" fill="#000" opacity=".105"/><path d="m72.923 17.146h1.153v28.19h-1.153z" fill="#fff" fill-opacity=".165"/><g transform="translate(48.123 -28.657)"><use fill="#000" filter="url(#c)" xlink:href="#b"/><use fill="#d8d8d8" xlink:href="#b"/></g><g transform="translate(48.123 -28.657)"><use fill="#000" filter="url(#e)" xlink:href="#d"/><use fill="#ededed" xlink:href="#d"/></g><path d="m57.147 42.657.204 3.036h-1.73l.203-3.036a1.438 1.438 0 0 1 .662-2.717 1.438 1.438 0 1 1 .661 2.717z" fill="#000" fill-opacity=".159"/><path d="m159.975 161.88h5.325m-4.88 1.332h5.325m-4.88 1.332h5.325m-4.88 1.332h5.326m-4.435 1.332h5.325m-4.88 1.332h5.325m-4.879 1.333h5.325m-4.88 1.332h5.325m-4.435 1.332h5.325m-4.879 1.333h5.325m-5.342 1.366h4.596m-13.329-24.109h5.325m-4.88 1.333h5.325m-4.88 1.332h5.325m-4.879 1.332h5.325m-4.59 1.361h5.325m-4.879 1.332h5.324m-4.88 1.333h5.325m-4.879 1.332h5.325" fill="#e8f0fe" fill-rule="nonzero"/><g fill-rule="nonzero" transform="translate(34.86 150.334)"><use fill="#ff4f41" xlink:href="#f"/><path d="m3.117-2.22h132.685v3.997h-132.685zm-2.226 7.549h132.685v3.997h-132.685zm0 7.993h132.685v3.997h-132.685zm0 7.993h132.685v3.997h-132.685z" fill="#000" fill-opacity=".08" mask="url(#i)"/></g><path d="m197.007 151.833h5.08l.917-4.314-1.31-.261 2.49-20.2 1.114-.262.196-2.81-2.49-.458s-5.109.735-5.109 1.192c0 .458-.888 27.113-.888 27.113z" fill="#000" fill-opacity=".043"/><path d="m191.983 104.097v12.127c.43-2.25 1.978-5.066 4.377-7.631 4.018-4.298 10.914-4.399 10.914-4.399s.38 6.868-3.638 11.166c-4.019 4.297-8.905 6.267-10.914 4.398-.362-.336-.605-.774-.739-1.29v5.807h-1.658v-5.107a2.413 2.413 0 0 1 -.462.59c-2.009 1.869-6.895-.1-10.914-4.398-4.018-4.298-3.638-11.166-3.638-11.166s6.896.1 10.914 4.399c2.03 2.171 3.451 4.522 4.1 6.557v-11.053c-.133.516-.377.954-.738 1.29-2.01 1.868-6.896-.1-10.914-4.399-4.019-4.297-3.638-11.165-3.638-11.165s6.896.1 10.914 4.398c2.399 2.566 3.946 5.382 4.376 7.632v-11.564c-.17.51-.447.932-.835 1.244-2.135 1.725-6.832-.532-10.492-5.04-3.66-4.507-2.761-11.283-2.761-11.283s6.833.532 10.492 5.04c1.884 2.32 3.126 4.784 3.596 6.864v-.979s.142-9.325.83-9.325c.687 0 .828 9.325.828 9.325v1.514c.438-2.181 1.79-4.842 3.882-7.328 3.787-4.502 10.668-4.962 10.668-4.962s.74 6.838-3.047 11.34c-3.787 4.501-8.564 6.723-10.668 4.962-.403-.337-.679-.796-.835-1.348v11.54c.43-2.25 1.978-5.066 4.377-7.632 4.018-4.298 10.914-4.398 10.914-4.398s.38 6.868-3.638 11.165c-4.019 4.298-8.905 6.267-10.914 4.399-.362-.336-.605-.774-.739-1.29z" fill="#000" fill-opacity=".08" fill-rule="nonzero"/><g transform="translate(175.582 124.105)"><use fill="#825f5f" fill-rule="nonzero" xlink:href="#g"/><path d="m16.343-.637-2.51 26.192h12.043l1.84-33.532z" fill="#000" fill-opacity=".046" mask="url(#j)"/></g><path d="m176.332 148.49h23.185l-.346 3.804h-22.493z" fill="#6e5050"/><g fill-rule="nonzero"><path d="m187.441 86.135s.142-9.325.83-9.325c.687 0 .829 9.325.829 9.325v38.14h-1.659z" fill="#825f5f"/><path d="m189.838 119.758c2.01 1.869 6.896-.1 10.914-4.398s3.638-11.166 3.638-11.166-6.896.1-10.914 4.399c-4.019 4.297-5.647 9.296-3.638 11.165zm-2.858 0c-2.01 1.869-6.896-.1-10.914-4.398-4.019-4.298-3.638-11.166-3.638-11.166s6.895.1 10.914 4.399c4.018 4.297 5.647 9.296 3.638 11.165zm2.954-28.098c2.105 1.762 6.88-.46 10.668-4.961 3.788-4.502 3.047-11.34 3.047-11.34s-6.88.46-10.668 4.962c-3.787 4.502-5.152 9.579-3.047 11.34zm-3.231 13.727c-2.01 1.868-6.895-.1-10.914-4.399-4.018-4.297-3.638-11.165-3.638-11.165s6.896.1 10.914 4.398c4.019 4.298 5.647 9.297 3.638 11.166zm-.096-13.854c-2.135 1.725-6.833-.532-10.493-5.04-3.66-4.507-2.76-11.283-2.76-11.283s6.832.532 10.492 5.04c3.66 4.507 4.896 9.559 2.76 11.283zm3.231 13.854c2.01 1.868 6.896-.1 10.914-4.399 4.018-4.297 3.638-11.165 3.638-11.165s-6.896.1-10.914 4.398c-4.019 4.298-5.647 9.297-3.638 11.166z" fill="#66ac16"/></g><path d="m174.602 123.583h27.337v3.113h-27.337z" fill="#6e5050"/><path d="m42.346 145.99h122.662v4.431h-122.662z" fill="#000" fill-opacity=".2" fill-rule="nonzero"/><path d="m94.661 171.942c-5.853-.93-9.657-2.435-9.657-4.133 0-2.823 10.502-5.11 23.456-5.11 12.955 0 23.456 2.287 23.456 5.11 0 .87-.998 1.69-2.759 2.407 4.29.568 7.155 1.596 7.155 2.77 0 1.79-6.66 3.241-14.875 3.241-6.356 0-20.637-2.38-26.776-4.285z" fill="#000" fill-opacity=".08"/><path d="m112.933 117.842c-.298 1.52-.63 2.903-.972 3.731-.343.83.748 9.662 6.254 22.501a17.874 17.874 0 0 1 3.593 10.774c0 9.933-8.074 17.985-18.033 17.985-9.96 0-18.033-8.052-18.033-17.985 0-3.927 1.262-7.56 3.404-10.518 3.138-9.727 4.89-21.996 4.575-22.757-.359-.87-.728-2.34-1.065-3.934-3.005-3.348-5.026-7.829-5.026-12.423 0-9.254 6.425-16.756 14.352-16.756 7.926 0 14.352 7.502 14.352 16.756 0 4.688-1.193 9.258-3.401 12.626z" fill="#f9c93b"/><path d="m91.355 119.804c0-1.107.892-1.858 1.97-1.696 0 0 4.618.842 9.84.842 5.223 0 9.332-.82 9.332-.82 1.09-.183 1.975.572 1.975 1.674v1.457c0 1.107-.885 2.164-1.98 2.343 0 0-3.88.812-9.327.812s-9.85-.837-9.85-.837c-1.083-.173-1.96-1.216-1.96-2.318z" fill="#ff4f41" fill-rule="nonzero"/><path d="m104.305 169.741s7.393 3.423 11.686 3.423 7.447-.606 7.447-2.668-3.851-1.779-7.447-2.062-8.606-3.558-10.551-2.466c-1.946 1.091-1.135 3.773-1.135 3.773zm5.523-78.198s2.126-5.182 4.102-5.167 12.524 5.935 12.205 9.577c-.32 3.641-2.878 12.305-6.87 12.736-2.71.293-5.103-8.301-6.256-11.814-.546-1.664-2.247-1.35-2.72-2.01-1.476-2.055-.461-3.322-.461-3.322zm-16.058-.393s-2.396-5.064-4.368-4.946c-1.973.118-12.195 6.58-11.685 10.2s3.519 12.139 7.529 12.361c2.72.151 4.66-8.556 5.627-12.124.458-1.69 2.172-1.465 2.611-2.15 1.365-2.129.286-3.341.286-3.341z" fill="#381400"/></g></g></svg>