<svg height="24" viewBox="0 0 117 24" width="117" xmlns="http://www.w3.org/2000/svg"><path d="m85.992 8.384v11.746h-2.492v-11.746h-4.467v-2.19h11.623v2.19zm9.313 8.142v-.914c-.422-.086-.738-.128-.949-.128-1.95 0-2.926.593-2.926 1.777 0 .88.55 1.32 1.65 1.32 1.483 0 2.225-.685 2.225-2.055zm3.099 2.883c-.226.558-1.491 1.089-2.41.36a1.667 1.667 0 0 1 -.553-.782c-.216.336-.591.61-1.127.822a4.514 4.514 0 0 1 -1.679.32c-1.097 0-1.96-.261-2.587-.784-.628-.522-.942-1.263-.942-2.223 0-1.123.442-2.002 1.325-2.636s2.793-1.188 4.754-.811c0-1.146-.756-1.719-2.268-1.719-.891 0-1.638.144-2.239.43l-.512-1.764c.818-.372 1.791-.557 2.92-.557 1.554 0 2.692.336 3.415 1.01.723.672 1.084 1.948 1.084 3.825v2.073c0 1.292.273 2.104.819 2.436zm7.748-4.293c0-1.226-.263-2.069-.722-2.59-1.378-1.563-3.927-.951-3.927.566v4.092c0 1.734 2.817 1.816 3.923.454.453-.56.726-1.373.726-2.522zm1.024 3.847c-.867.87-2.05 1.305-3.552 1.305a4.47 4.47 0 0 1 -1.976-.432v1.279c0 .409.015 1.042-.258 1.696-.115.278-.395.677-.684.889-.932.681-2.12.068-2.302-.51.492-.272.795-.948.911-2.028.014-.124.038-.778.038-.778v-10.144h2.296v.662c.576-.56 1.283-.838 2.122-.838 3.137 0 4.706 1.726 4.706 5.18 0 1.61-.434 2.85-1.301 3.718zm8.587-6.46c-.506-.426-1.21-.64-2.112-.64-.809 0-1.214.314-1.214.943 0 .248.133.472.4.672.265.199.834.466 1.706.802.871.335 1.499.742 1.882 1.22.383.476.575 1.053.575 1.73 0 .9-.342 1.608-1.025 2.124s-1.612.775-2.787.775c-.662 0-1.192-.054-1.59-.16-.4-.105-.911-.32-1.536-.647l.825-1.806a3.71 3.71 0 0 0 2.347.814c.903 0 1.354-.315 1.354-.944 0-.368-.136-.67-.408-.907-.272-.235-.8-.513-1.586-.834-1.712-.694-2.568-1.667-2.568-2.917 0-.84.328-1.493.982-1.962.655-.468 1.493-.701 2.512-.701a6.43 6.43 0 0 1 2.91.679zm-97.942.648v-2.063h-2.887v-2.572h-2.81v2.572h-4.174v-2.572h-2.81v2.572h-1.266v2.064h1.266v3.84c0 1.142.234 1.95.694 2.43.519.479 1.362.707 2.356.707 1.125 0 1.983-.223 2.34-.66.594-.726.193-1.756-.246-1.948-.134.489-1.48.847-2.094.328-.162-.151-.24-.438-.24-.858v-3.84h4.176v3.84c0 1.142.234 1.95.693 2.43.52.48 1.363.708 2.357.708 1.199 0 1.994-.239 2.34-.66.593-.727.193-1.757-.247-1.949-.133.49-1.48.848-2.093.328-.162-.15-.241-.437-.241-.857v-3.84h2.887zm3.874 7.75c0 3.099-3.102 3.099-3.102 3.099h-15.49c-3.103 0-3.103-3.1-3.103-3.1v-15.478c0-3.1 3.102-3.1 3.102-3.1h3.613l-.001.005a4.135 4.135 0 0 0 4.136 4.133 4.135 4.135 0 0 0 4.137-4.133l-.001-.004h3.607c3.102 0 3.102 3.1 3.102 3.1v15.477zm11.608-12.517v11.744h-2.491v-11.743h-4.468v-2.191h11.623v2.19zm9.313 8.141v-.914c-.422-.086-.738-.128-.949-.128-1.95 0-2.925.593-2.925 1.777 0 .88.55 1.32 1.65 1.32 1.483 0 2.224-.685 2.224-2.055zm3.1 2.883c-.226.558-1.492 1.089-2.411.36a1.662 1.662 0 0 1 -.553-.782c-.215.336-.591.61-1.127.822a4.515 4.515 0 0 1 -1.679.32c-1.097 0-1.96-.261-2.587-.784-.628-.522-.942-1.263-.942-2.223 0-1.123.442-2.002 1.325-2.636s2.794-1.188 4.754-.811c0-1.146-.756-1.719-2.267-1.719-.892 0-1.639.144-2.24.43l-.512-1.764c.818-.372 1.792-.557 2.92-.557 1.554 0 2.692.336 3.415 1.01.723.672 1.085 1.948 1.085 3.825v2.073c0 1.292.272 2.104.818 2.436zm8.522-4.293c0-1.226-.262-2.069-.721-2.59-1.378-1.563-3.928-.951-3.928.566v4.092c0 1.734 2.818 1.816 3.923.454.453-.56.726-1.373.726-2.522zm1.024 3.847c-.867.87-2.05 1.305-3.552 1.305a4.472 4.472 0 0 1 -1.976-.433v1.28c0 .409.015 1.042-.257 1.696-.116.278-.395.677-.685.889-.933.681-2.12.068-2.302-.51.491-.272.795-.948.912-2.028.013-.124.037-.778.037-.778v-10.143h2.295v.662c.576-.56 1.284-.838 2.124-.838 3.136 0 4.705 1.726 4.705 5.18 0 1.61-.434 2.85-1.3 3.718zm9.824-3.847c0-1.226-.263-2.069-.722-2.59-1.378-1.563-3.927-.951-3.927.566v4.092c0 1.734 2.817 1.816 3.922.454.454-.56.727-1.373.727-2.522zm1.023 3.847c-.866.87-2.05 1.305-3.551 1.305a4.471 4.471 0 0 1 -1.976-.433v1.28c0 .409.015 1.042-.258 1.696-.115.278-.395.677-.685.889-.932.681-2.119.068-2.301-.51.491-.272.795-.948.911-2.028.014-.124.037-.778.037-.778v-10.143h2.296v.662c.576-.56 1.283-.838 2.123-.838 3.137 0 4.706 1.726 4.706 5.18 0 1.61-.434 2.85-1.302 3.718zm12.15-8.898-4.427 11.617c-.033.09-.072.176-.115.26-.247.568-.564 1.058-.849 1.32-.285.26-.855.738-1.73.738a1.95 1.95 0 0 1 -1.437-.646c-.6-.711-.326-1.719.117-1.907.087.309.303.722.876.722.824 0 1.368-.736 1.368-1.593 0-.599-.25-1.514-.748-2.747l-3.129-7.764h2.417l2.745 6.913 2.495-6.913h2.416zm-67.799-10.064a2.71 2.71 0 0 1 0 5.42 2.71 2.71 0 1 1 0-5.42z" fill-opacity=".38" fill-rule="evenodd"/></svg>