<svg height="24" viewBox="0 0 24 24" width="24" xmlns="http://www.w3.org/2000/svg"><path d="m16.09 5.308.283.017c.714.02 2.745.28 4.056 2.18-.106.063-2.42 1.415-2.395 4.195.03 3.33 2.931 4.432 2.966 4.443-.017.078-.454 1.591-1.543 3.125-.909 1.352-1.86 2.674-3.373 2.696-1.47.035-1.964-.859-3.649-.859-1.7 0-2.227.837-3.636.894-1.44.052-2.54-1.442-3.483-2.782-1.882-2.735-3.348-7.706-1.383-11.09.952-1.657 2.689-2.727 4.544-2.754 1.443-.03 2.78.968 3.667.968.869 0 2.524-1.193 4.23-1.015zm.302-5.308c.144 1.301-.375 2.584-1.133 3.526-.79.928-2.056 1.638-3.288 1.546-.162-1.252.463-2.583 1.162-3.396.79-.921 2.162-1.628 3.259-1.676z"/></svg>