<svg height="24" viewBox="0 0 24 24" width="24" xmlns="http://www.w3.org/2000/svg"><path d="m18.034 11.7c.03 3.33 2.931 4.432 2.966 4.443-.017.078-.454 1.591-1.543 3.125-.909 1.352-1.86 2.674-3.373 2.696-1.47.035-1.964-.859-3.649-.859-1.7 0-2.227.837-3.636.894-1.44.052-2.54-1.442-3.483-2.782-1.882-2.735-3.348-7.706-1.383-11.09.952-1.657 2.689-2.727 4.544-2.754 1.443-.03 2.78.968 3.667.968.869 0 2.524-1.193 4.23-1.015.713.02 2.744.28 4.055 2.18-.106.063-2.42 1.415-2.395 4.195zm-2.774-8.174c-.79.928-2.056 1.638-3.288 1.546-.162-1.252.463-2.583 1.162-3.396.789-.921 2.161-1.628 3.258-1.676.144 1.301-.375 2.584-1.133 3.526z" fill="#4285f4"/></svg>