<svg height="104" viewBox="0 0 120 104" width="120" xmlns="http://www.w3.org/2000/svg"><g fill="none" fill-rule="evenodd"><path d="m3.503 81.74c-5.3-23.698 33.176-26.218 25.604-49.597-7.572-23.38 44.074-47.948 75.558-18.996 10.386 9.552 19.372 32.948 4.432 44.456s12.574 46.38-27.506 46.38c-40.081 0-72.787 1.454-78.088-22.243z" fill="#000" fill-opacity=".04" fill-rule="nonzero"/><g transform="translate(11 26)"><path d="m8 4.005a4.006 4.006 0 0 1 3.998-4.005h82.004c2.208 0 3.998 1.8 3.998 4.005v51.995h-90z" fill="#5f5f5f"/><path d="m0 55.714h106v2.396c0 .886-.705 1.604-1.602 1.604h-102.796a1.6 1.6 0 0 1 -1.602-1.604z" fill="#c2c2c2"/><path d="m46.18 55.714h13.947v.804a.804.804 0 0 1 -.81.803h-12.327a.805.805 0 0 1 -.81-.803z" fill="#a6a6a6"/><g fill-rule="nonzero"><path d="m11 4h84v49h-84z" fill="#fff"/><path d="m57.09 21.308.283.017c.714.02 2.745.28 4.056 2.18-.106.063-2.42 1.415-2.395 4.195.03 3.33 2.931 4.432 2.966 4.443-.017.078-.454 1.591-1.543 3.125-.909 1.352-1.86 2.674-3.373 2.696-1.47.035-1.964-.859-3.649-.859-1.7 0-2.227.837-3.636.894-1.44.052-2.54-1.442-3.483-2.782-1.882-2.735-3.348-7.706-1.383-11.09.952-1.658 2.689-2.727 4.544-2.755 1.443-.03 2.78.968 3.667.968.869 0 2.524-1.193 4.23-1.015zm.302-5.308c.144 1.301-.375 2.584-1.133 3.526-.79.928-2.056 1.638-3.288 1.546-.162-1.252.463-2.583 1.162-3.396.79-.921 2.162-1.628 3.259-1.676z" fill="#4285f4"/></g><ellipse cx="53.265" cy="1.875" fill="#5c5c5c" rx="1" ry="1"/></g></g></svg>