<svg xmlns="http://www.w3.org/2000/svg" xmlns:xlink="http://www.w3.org/1999/xlink" width="264" height="192" viewBox="0 0 264 192"><defs><rect id="prefix__a" width="51" height="38" x="5" y="6" rx="2"/></defs><g fill="none" fill-rule="evenodd"><path fill="#000" fill-opacity=".04" fill-rule="nonzero" d="M83 184.5c-41.206-4.96-42.866-40.116-28-60.5s-1.812-30.067.5-55.5c2.2-24.205 39.688-45.195 78.764-46.553 51.325-1.782 57.917 49.58 67.166 63 12.405 18 58.241 12.619 50.357 65.459-4.875 32.671-50.047 32.853-50.047 32.853S123.09 189.326 83 184.5z"/><g transform="translate(14.759 5)"><path fill="#381400" d="M189.153 157.469c13.207.01 23.23-3.406 30.066-10.248 1.033-.908 2.606-.806 3.513.227.818.932.826 2.323.02 3.264l-.558.65c-7.713 8.76-17.434 14.052-29.163 15.877l-3.878-9.77z"/><path fill="#E6B200" d="M145.741 174.205c12.427 0 26.5-27.767 26.5-40.193 0-12.427-10.043-22.151-25.47-22.151-15.425 0-25.391 15.72-23.985 28.038.9 7.891 7.112 17.42 13.53 20.874-6.924.492-11.22.825-12.889 1-1.854.241-3.021 1.918-3.61 3.202-.588 1.284-1.883 5.338-1.414 6.731.334.994.947 2.905 1.929 2.905.981 0 14.257-.22 20.885-.331l4.524-.075zM55.633 82.486l3.27 3.486s2.255 2.921 11.416 8.793c.568.364 4.21 2.28 10.922 5.747 2.94 1.402 4.545 2.484 4.812 3.246 3.916 11.144-.377 16.709-5.961 15.96-9.235-1.238-22.225-16.29-27.095-22.993-1.04-1.43-7.99-10.54-7.97-13.478.005-.772.328-1.507.894-2.032.565-.525 1.322-.794 2.092-.742 1.278.085 2.745.183 3.922.263 1.41.093 2.732.719 3.698 1.75z"/><path fill="#E6B200" d="M99.67 90.512c14.261-8.486 29.096-4.18 31.302 11.474 1.13 8.025-12.36 31.214-25.95 23.103-13.588-8.11-21.143-3.168-28.077-6.3-6.934-3.133-4.065-17.37 1.975-18.019 6.04-.648 18.069-8.663 20.75-10.258z"/><path fill="#F9C93B" d="M90.417 75.824c-1.819-7.596 35.996-21.346 37.882-16.506.627 1.607-.069-1.22 1.45 2.434 2.638 6.352 21.452 26.748 36.924 36.76 22.915 14.827 32.759 47.244 28.225 65.19-1.701 6.733-5.765 13.867-12.547 13.832-21.718.023-38.387.023-50.007 0-1.037.035-1.522-1.122-2.059-2.022-.537-.9-.07-3.656.827-6.43.897-2.775 4.01-4.856 5.652-5.38 1.094-.35 7.4-.414 18.921-.19-4.158-3.315-7.003-5.998-8.534-8.05-2.583-3.463-10.287-8.54-12.403-9.639-14.232-7.39-37.368-33.717-41.645-43.277-5.277-11.795-2.758-18.114-3.686-23.656-.077-.459 1.596-.573 1-3.066z"/><path fill="#E6B200" d="M137.72 147.567l22.675-25.9c1.286.243 2.21-2.05.332-2.403-1.206-.227-1.92-.311-3.804-.25-12.59.404-22.025 10.264-22.025 22.926v3.989c.778.484 1.718 1.03 2.822 1.638z"/><circle cx="158.741" cy="143.012" r="21.5" fill="#F9C93B"/><g stroke="#FFF" stroke-linecap="round" stroke-linejoin="round"><path stroke-width="2.75" d="M8.515 0.075L12.915 3.375" transform="rotate(50 -25.73 53.587)"/><path stroke-width="3.3" d="M0.815 2.275L12.915 11.075" transform="rotate(50 -25.73 53.587)"/></g><g transform="translate(.241 40)"><mask id="prefix__b" fill="#fff"><use xlink:href="#prefix__a"/></mask><use fill="#D5E4FD" transform="rotate(15 30.5 25)" xlink:href="#prefix__a"/><path stroke="#68A0B9" stroke-linecap="round" stroke-width="3" d="M11 0l18.03 26.57c.557.822 1.632 1.11 2.525.678L60 13.5h0" mask="url(#prefix__b)"/></g><path fill="#E6B200" d="M44.11 82.409c3.665.686 12.842 8.479 12.024 13.366-.656 3.928-5.428 3.595-9.166 1.45-4.302-2.467-5.724-6.004-6.2-8.473-.476-2.47-.324-7.03 3.342-6.343zM122.313 112.613c.64 0 1.166.486 1.229 1.108l.006.153-.071 2.58c-.129 4.042-.398 10.93-.809 20.667l-2.145-1.902.51-21.357c.017-.695.585-1.25 1.28-1.25z"/><g><path fill="#3C1A00" d="M33.247 11.833s-2.19-9.304-7.394-10.059C20.16.95 7.638 8.266 9.629 19.324c1.583 8.787 8.476 9.208 10.489 7.644 3.444-2.678 9.749-10.796 9.749-10.796l3.38-4.339z" transform="translate(55.898)"/><path fill="#FCC840" d="M42.275 8.27c24.32 0 28.162 15.446 28.659 23.082.391 6.033-4.164 22.332 1.573 27.442 2.694 2.4-4.877 6.513-15.34 12.015-10.372 5.455-24.651 8.78-24.651 5.632 0-6.834-3.799-11.667-8.912-13.073-6.517-1.793-5.32-24.874-5.32-24.874S14.588 8.27 42.275 8.27z" transform="translate(55.898)"/><g><path fill="#FFE398" d="M4.92 17.271C-.184 9.672-.35 5.496 2.664 2.548 4.62.636 9.024 1.13 14.577 1.209c9.097.129 20.566 1.484 24.029 4.036 6.254 4.61 6.515 12.1 1.131 16.701-3.662 3.131-8.825 5.21-13.727 5.21-6.64-2.102-16.29-2.74-21.09-9.885z" transform="translate(55.898) translate(.343 37.37)"/><path fill="#3C1A00" d="M15.13 4.04c1.418 3.526-2.19 10.784-8.36 10.784-2.777 0-5.911-3.205-6.202-6.865-.144-1.814.077-3.638 2.048-5.442.704-.644 1.94-1.213 4.155-1.376 3.002-.226 7.095-.245 8.36 2.9zM31.15 14.493c2.582-.99 4.634-.183 5.789 2.436.208.473.04.98-.32 1.144-.36.164-.79.005-1.02-.463-.2-.41-.442-.752-.72-1.029-2.027 4.987-6.488 8.722-11.908 9.733-1.002-.252-2.04-.498-3.091-.758 5.902-.667 10.833-4.536 13.017-9.828-.425-.022-.882.03-1.368.157-.431.111-.799-.122-.88-.479-.08-.356.078-.751.5-.913z" transform="translate(55.898) translate(.343 37.37)"/></g><path fill="#000" d="M22.073 36.903c1.273-.022 2.282-1.282 2.255-2.815-.027-1.532-1.08-2.757-2.353-2.735-1.273.022-2.283 1.282-2.255 2.814.027 1.533 1.08 2.757 2.353 2.736zM40.853 36.903c1.414-.025 2.538-1.287 2.511-2.82-.027-1.532-1.195-2.754-2.61-2.73-1.414.024-2.538 1.286-2.51 2.819.027 1.532 1.195 2.755 2.61 2.73z" transform="translate(55.898)"/><path fill="#3C1A00" d="M50.014 16.251c4.609-5.742 8.095-9.707 10.458-11.895 1.633-1.512 3.773-3.547 7.596-3.81 5.53-.379 19.85 10.167 18.83 23.061-.347 4.389-5.52 13.643-14.575 11.27-6.964-1.825-7.537-17.572-11.096-19.083-2.966-1.259-6.24 3.304-8.103 3.862-.393.117-1.649.474-2.795-.457-.898-.729-1.039-2.046-.315-2.948z" transform="translate(55.898)"/></g><path fill="#FCC840" d="M102.081 166.753c.85-.275 1.486-.483 1.486-.483s-.992-18.472-5.323-32.615c-4.33-14.143-4.88-19.47-8.362-26.387-3.483-6.918-7.824-32.79 8.031-34.563 15.856-1.773 15.76 8.353 20.548 24.242 5.29 17.552.176 69.806-.916 72.35-.728 1.695-1.798 3.804-3.21 6.327-.594 1.172-1.797 1.91-3.11 1.91H99.059c-.76 0-1.481-.34-1.965-.927-.483-.588-.679-1.36-.533-2.107l.379-1.94c.533-2.726 2.5-4.948 5.141-5.807z"/><path fill="#FF4F41" fill-rule="nonzero" d="M127.858 57.82c.659 1.633 2.523 3.684 3.124 4.693.67 1.125.64 1.88-.432 2.711l-1.035.786c-3.11 2.325-8.513 6.03-16.11 9.238-6.73 2.843-15.046 4.28-24.95 4.314-.862.003-1.58-.659-1.648-1.518l-.47-5.954c-.07-.908.607-1.701 1.514-1.772l.112-.005c6.943-.077 14.117-1.624 21.523-4.639 8.479-3.452 13.297-7.294 16.131-9.025.491-.31 1.721-.373 2.241 1.17z"/></g></g></svg>