<svg xmlns="http://www.w3.org/2000/svg" width="204" height="148" viewBox="0 0 204 148">
  <g fill="none" fill-rule="evenodd">
    <path fill="#DC6FD1" fill-opacity=".12" fill-rule="nonzero" d="M34.6660306,132.74048 C20.8379904,131.385232 0,120.932857 0,85.4093224 C0,70.8112286 13.2891916,33.2097526 32.1156341,18.6658213 C59.1021436,-2.1819806 83.0922419,-11.081045 132.046143,21.6142805 C168.665642,46.0717072 164.483761,111.523412 152.854148,118.975843 C128.524425,134.566697 48.4940707,134.095727 34.6660306,132.74048 Z" transform="translate(17.73 10.02)"/>
    <g transform="translate(37 67.182)">
      <ellipse cx="25.947" cy="37.552" fill="#E69F73" rx="25.933" ry="25.937"/>
      <path fill="#CE895F" d="M30.5124025,0.743489238 L22.7839868,28.2275405 L22.5828494,29.0787971 C21.4139934,34.1044115 20.9285697,37.6553687 21.1265782,39.7316685 C21.2793105,41.3332059 21.9717932,43.4533538 23.2040262,46.0921121 L23.3678122,46.4392396 C24.3509123,48.5019073 24.4102035,50.8853847 23.5308774,52.994382 C21.1472386,58.7113594 17.4822135,60.8876324 12.5358021,59.5232011 C13.4865268,60.4463803 15.272306,61.243103 16.3036783,61.6683979 L17.0078416,61.9536604 C21.4441708,63.8188728 34.419615,65.5089706 40.7286794,57.3533955 C43.9668572,53.1674812 40.5614316,34.2975124 30.5124025,0.743489238 Z"/>
    </g>
    <g transform="translate(43.938 2.313)">
      <rect width="64.75" height="121.792" x="12.77" y="6.729" fill="#121212" stroke="#392C62" stroke-width="3.083" rx="7.708" transform="rotate(-15 45.145 67.624)"/>
      <g transform="translate(22.354 43.167)">
        <circle cx="21.583" cy="21.583" r="21.583" fill="#7C55F1"/>
        <path fill="#FFF" fill-rule="nonzero" d="M13.649741,24.0838884 C12.9054494,23.6703931 11.9668777,23.9385564 11.5533824,24.682848 C11.1398871,25.4271396 11.4080504,26.3657113 12.152342,26.7792067 L19.089842,30.6333733 C19.8278009,31.0433505 20.7582452,30.7835613 21.177083,30.0505951 L30.427083,13.8630951 C30.8495151,13.123839 30.5926784,12.1821047 29.8534224,11.7596727 C29.1141663,11.3372406 28.172432,11.5940773 27.75,12.3333333 L19.2557209,27.1983217 L13.649741,24.0838884 Z"/>
      </g>
    </g>
    <g transform="translate(97.896 63.98)">
      <path fill="#E69F73" d="M47.8014891,13.3770827 L51.0419394,16.5064064 C46.0024416,10.5160548 51.4084494,5.32142128 56.956156,8.08057038 C57.8400764,8.52018775 60.3881725,10.6023629 61.1911196,11.5568103 L75.8705352,36.1000089 C80.4711394,46.3510718 75.335032,55.7790738 70.0659895,60.1889237 C64.7969469,64.5987736 61.1911196,65.4615019 61.1911196,65.4615019 C55.9960398,67.8185859 42.6794607,68.8568659 37,68.3545391 C26.6009897,67.2461593 18.3787675,66.6919694 12.3333333,66.6919694 C3.26518207,66.6919694 3.72157083,55.7140626 16.3826616,52.804894 C20.9073996,51.7652343 25.603615,52.804894 29.516509,52.804894 C33.5549089,52.804894 29.3224841,45.9184546 28.9259934,45.4471539 C24.5970116,40.3013787 15.8637842,29.0045976 2.72631128,11.5568103 C-1.36358959,6.69522594 0.414870809,0.0302753534 4.42263909,0.329143557 C6.13998892,0.457210158 9.04036375,3.87459518 10.7929078,5.95780971 L25.603615,22.7440005 C19.7611701,15.7992016 29.1451954,9.56160747 34.9876403,16.5064064 L38.7569511,19.6252034 C32.9145062,12.6804045 41.9590441,6.43228376 47.8014891,13.3770827 Z"/>
      <path fill="#F4B38B" d="M0.684607472,3.40607746 L0.726235623,3.26595298 L0.859344553,3.56356747 C2.94405088,8.05421491 11.6986902,20.0935149 19.7716234,30.0026309 L20.837336,31.3085564 C28.2487796,40.4581415 32.5415539,48.159605 31.1884799,50.4670229 C30.855676,48.4843328 29.2688485,45.8976137 28.951909,45.4798776 L27.9416676,44.2633701 C23.3399908,38.6731022 14.934872,27.7709156 2.72631128,11.5568103 C1.09441092,9.61700258 0.39679379,7.39008663 0.402257942,5.43299517 L0.587811397,4.18280869 C0.631112173,3.87763602 0.665275107,3.6136448 0.684607472,3.40607746 Z"/>
      <path fill="#CE895F" d="M61.1911196,11.5568103 L75.8705352,36.1000089 C80.4711394,46.3510718 75.335032,55.7790738 70.0659895,60.1889237 C69.5503746,60.6204602 69.0506869,61.0180292 68.5687466,61.3841462 C74.9299107,51.1062709 71.5671143,33.6874983 58.4811939,9.1283873 L58.8728343,9.43791378 C59.7954335,10.1796022 60.7530281,11.0360596 61.1911196,11.5568103 Z"/>
    </g>
    <g transform="translate(38.54 60.402)">
      <path fill="#E69F73" d="M10.2691362,34.8809704 C10.0890272,21.6414918 9.21709218,12.7151563 7.65333107,8.10196376 C5.3076894,1.18217499 16.4320252,1.13900836 20.9048534,12.070626 C21.1549943,12.6819718 21.7229334,14.903583 22.6086707,18.7354598 C26.8866465,26.8110231 29.0987303,32.2896647 29.2449221,35.1713846 C29.3235775,36.7218347 27.2562336,36.5838607 23.0428905,34.7574625" transform="rotate(30 18.29 19.775)"/>
      <path fill="#F4B38B" d="M16.1524954,1.85615894 L16.2287781,1.7901414 L15.9834153,3.29104524 C14.5413701,11.9627933 13.1500199,17.6858358 11.8093647,20.4601728 C10.4118315,23.3522123 7.96570211,26.2757528 4.47097654,29.2307943 L3.79059417,28.8468729 L4.37061725,27.8056847 C10.4765543,16.7992726 13.9912631,8.97993452 14.9147438,4.34767031 C15.1433052,3.20118492 15.5824787,2.37957167 16.1524954,1.85615894 Z"/>
    </g>
  </g>
</svg>
