<svg xmlns="http://www.w3.org/2000/svg" width="204" height="148" viewBox="0 0 204 148">
    <g fill="none" fill-rule="evenodd">
        <path fill="#FF4241" fill-opacity=".07" fill-rule="nonzero" d="M52.524 142.761c-13.862-1.355-34.751-11.807-34.751-47.33 0-14.599 13.322-52.2 32.194-66.744C77.02 7.839 101.07-1.06 150.143 31.635c36.71 24.458 32.518 89.91 20.86 97.362-24.39 15.59-104.617 15.12-118.48 13.764z"/>
        <g transform="translate(37.09 67.182)">
            <ellipse cx="26.011" cy="37.552" fill="#F6BD9D" rx="25.997" ry="25.937"/>
            <path fill="#E7A580" d="M30.587.743L22.84 28.228l-.202.85c-1.171 5.026-1.658 8.577-1.46 10.654.154 1.601.848 3.721 2.083 6.36l.164.347c.986 2.063 1.045 4.446.164 6.555-2.39 5.717-6.064 7.894-11.022 6.53.953.922 2.743 1.72 3.777 2.144l.706.286c4.447 1.865 17.454 3.555 23.779-4.6 3.246-4.187-.168-23.056-10.242-56.61z"/>
        </g>
        <g>
            <path fill="#FFF" stroke="#392C62" stroke-width="2.917" d="M6.668 12.981c-2.335.628-4.194 2.14-5.312 4.08-1.119 1.94-1.497 4.307-.87 6.641l27.016 100.58c.626 2.33 2.137 4.188 4.075 5.307 1.938 1.119 4.303 1.5 6.635.876l45.631-12.197c2.336-.628 4.194-2.14 5.313-4.08 1.118-1.94 1.497-4.308.87-6.641L63.009 6.967c-.626-2.33-2.137-4.188-4.075-5.307C56.996.54 54.632.16 52.299.784L6.668 12.981z" transform="translate(44.045 4.313)"/>
            <g transform="translate(44.045 4.313) translate(22.41 41.167)">
                <ellipse cx="21.636" cy="21.583" fill="#8F6DF5" rx="21.636" ry="21.583"/>
                <path fill="#FFF" fill-rule="nonzero" d="M13.683 24.084c-.746-.414-1.687-.145-2.101.599-.415.744-.146 1.683.6 2.096l6.955 3.854c.74.41 1.672.15 2.092-.582l9.273-16.188c.423-.74.166-1.68-.575-2.103-.741-.423-1.685-.166-2.109.573l-8.515 14.865-5.62-3.114z"/>
            </g>
        </g>
        <g>
            <path fill="#F6BD9D" d="M47.919 13.377l3.248 3.13c-5.052-5.99.368-11.186 5.93-8.426.885.44 3.44 2.521 4.244 3.476L76.057 36.1c4.612 10.251-.537 19.68-5.819 24.089-5.282 4.41-8.897 5.273-8.897 5.273-5.207 2.357-18.557 3.395-24.25 2.893-10.425-1.109-18.667-1.663-24.727-1.663-9.09 0-8.633-10.978 4.059-13.887 4.536-1.04 9.244 0 13.166 0 4.048 0-.194-6.887-.592-7.358-4.34-5.146-13.094-16.442-26.264-33.89C-1.367 6.695.416.03 4.433.329c1.722.128 4.63 3.546 6.386 5.629l14.848 16.786c-5.857-6.945 3.55-13.182 9.407-6.238l3.778 3.12c-5.857-6.946 3.21-13.194 9.067-6.249z" transform="translate(98.136 63.98)"/>
            <path fill="#F6CFB9" d="M.686 3.406l.042-.14.133.298c2.09 4.49 10.866 16.53 18.96 26.439l1.068 1.306c7.43 9.15 11.733 16.85 10.376 19.158-.334-1.983-1.924-4.57-2.242-4.987l-1.013-1.217c-4.613-5.59-13.038-16.492-25.277-32.706C1.097 9.617.398 7.39.403 5.433l.186-1.25c.044-.305.078-.57.097-.777z" transform="translate(98.136 63.98)"/>
            <path fill="#E7A580" d="M61.341 11.557L76.057 36.1c4.612 10.251-.537 19.68-5.819 24.089-.517.431-1.018.829-1.5 1.195 6.376-10.278 3.005-27.697-10.113-52.256l.392.31c.925.742 1.885 1.598 2.324 2.119z" transform="translate(98.136 63.98)"/>
        </g>
        <g>
            <path fill="#F6BD9D" d="M5.345 28.847c6.48-11.556 10.197-19.722 11.152-24.5 1.432-7.165 11.111-1.64 9.515 10.063-.09.655-.71 2.863-1.861 6.624-.334 9.133-1.16 14.984-2.477 17.552-1.064 2.073-9.713 5.21-16.329-9.74z" transform="translate(37.09 60.402)"/>
            <path fill="#F6CFB9" d="M17.738 1.856l.076-.066-.246 1.501c-1.445 8.672-2.84 14.395-4.184 17.17-1.401 2.891-3.853 5.815-7.357 8.77l-.682-.384.582-1.041c6.12-11.007 9.644-18.826 10.57-23.458.229-1.147.67-1.968 1.24-2.492z" transform="translate(37.09 60.402)"/>
        </g>
    </g>
</svg>
