<svg fill="none" height="140" viewBox="0 0 487 140" width="487" xmlns="http://www.w3.org/2000/svg" xmlns:xlink="http://www.w3.org/1999/xlink"><clipPath id="a"><path d="m0 0h487v140h-487z"/></clipPath><g clip-path="url(#a)"><path d="m0 0h487v140h-487z" fill="#8f6df5"/><path d="m32.252 122.281c-9.4846-.929-23.21562-8.842-24.18979-30.7514-.97417-21.9096 9.62619-40.0819 22.44049-50.1346 16.6395-13.0535 30.6587-18.1049 62.6455 2.4634 25.5068 16.4016 30.8558 58.2886 14.1678 68.9816-16.6875 10.694-65.5795 10.371-75.064 9.441z" fill="#fff" fill-opacity=".12"/><ellipse cx="65.4409" cy="113.159" fill="#000" fill-opacity=".1" rx="35.4409" ry="5.97798"/><rect fill="#2aa598" height="6.90714" rx="2.07214" width="20.0307" x="43.5273" y="52.2678"/><path d="m39 65.3915c0-3.4333 2.7832-6.2165 6.2164-6.2165h18.0307c3.4333 0 6.2165 2.7832 6.2165 6.2165v44.2055c0 3.433-2.7832 6.217-6.2165 6.217h-18.0307c-3.4332 0-6.2164-2.784-6.2164-6.217z" fill="#fff"/><path clip-rule="evenodd" d="m64.2472 59.175c3.4332 0 5.2164 2.7832 5.2164 6.2165v44.2055c0 3.433-1.7832 6.217-5.2164 6.217h-19.0307c-2.3007 0-4.3095-1.25-5.3845-3.108l22.6884-.001c1.864 0 3.3831-1.476 3.4512-3.324l.0024-.129v-43.0342c0-2.561-1.4164-4.9063-3.6701-6.1016l-.1624-.0835-1.7254-.8577z" fill="#ded3fc" fill-rule="evenodd"/><path d="m40.7617 68.1543h3.45357v42.8243h-3.45357z" fill="#f6f2fe"/><g fill="#ded3fc"><rect height="4.835" rx="2.4175" width="13.8143" x="54.957" y="77.8242"/><rect height="4.835" rx="2.4175" width="13.8143" x="54.957" y="86.1128"/><rect height="4.835" rx="2.4175" width="13.8143" x="54.957" y="94.4014"/></g><rect fill="#3cbbae" height="4.835" rx="1.38143" width="2.76286" x="44.9062" y="52.9585"/><path clip-rule="evenodd" d="m53.8851 35c2.2888 0 4.1443 1.8555 4.1443 4.1443 0 1.0187-.3676 1.9515-.9773 2.6731-.116.4883-.1738 1.0913-.1738 1.8083 0 2.4921 2.5325 2.7464 2.5325 8.6422h-11.0514c0-6.5618 2.6911-5.8005 2.6911-8.6422 0-.612-.0383-1.1359-.1148-1.5716-.435-.4392-.7714-.976-.9749-1.5741l-.0101-.0036.0089.0001c-.1419-.4181-.2188-.8662-.2188-1.3322 0-2.2888 1.8555-4.1443 4.1443-4.1443z" fill="#fdcc3e" fill-rule="evenodd"/><path clip-rule="evenodd" d="m75.1783 67.8913c.029-.4496.4023-.8044.8528-.8044h13.8316c.4482 0 .8202.3466.8518.7938l1.2976 18.3553c.3164 4.4759-2.8655 8.3442-7.1492 9.0333v15.1957h2.7813c1.9592 0 3.5474 1.589 3.5474 3.548h-16.4959c0-1.959 1.5882-3.548 3.5473-3.548h2.7769v-15.187c-4.2914-.6614-7.4956-4.5124-7.1688-8.9843.1301-1.7818.2545-3.4215.3789-5.0611.2911-3.8389.5823-7.6777.9483-13.3413z" fill="#ded3fc" fill-rule="evenodd"/><path d="m76.2146 77.2631c.0265-.4515.4003-.8041.8526-.8041h11.761c.4523 0 .8261.3526.8526.8041l.5036 8.603c.2438 4.163-3.0665 7.6728-7.2367 7.6728s-7.4805-3.5098-7.2368-7.6728z" fill="#fff"/><path d="m94.7052 59.4349c-.9417-.9418-.9417-2.4687 0-3.4104l4.5473-4.5473c.9415-.9418 2.4685-.9418 3.4105 0s.942 2.4687 0 3.4104l-4.5473 4.5473c-.9418.9418-2.4687.9418-3.4105 0z" fill="#639dff"/><circle cx="105.209" cy="100.297" fill="#2aa598" r="3.15782"/><path clip-rule="evenodd" d="m87.7564 27.0463c.6732-.5909 1.7085-.5359 2.3124.1227 2.9564 3.2241 2.9564 7.1335.146 11.2823l-.1053.1509c-.7125.9899-1.6221 1.6554-2.6472 2.032l-.0299.0106-.0542.1483c-.6377 1.6729-1.9606 3.2227-3.9446 4.4233-.7691.4654-1.7783.2327-2.254-.5197-.4758-.7525-.2379-1.7398.5312-2.2052l.1687-.1045c.7194-.4558 1.2871-.9527 1.7105-1.4735l.05-.0634-.0487-.009c-1.183-.2411-2.3877-.7305-3.5324-1.4327-1.5488-.9501-2.7485-2.1837-3.2161-3.4455-.686-1.8514.2583-3.5263 2.3677-4.1474 3.3561-.9883 6.7596.838 8.0739 3.9852l.0686.1703c.0663.1706.1255.3421.1776.5142l.0261.0887.1672-.2569c1.7927-2.8278 1.7188-5.0327-.093-7.0085-.6039-.6586-.5477-1.6714.1255-2.2622zm-3.5235 9.8103c-.7332-1.7754-2.5405-2.7561-4.2673-2.2419l-.097.031c-.03.0104-.0579.0207-.0837.031l-.0251.0105.0463.0943c.2734.5025.96 1.1741 1.8715 1.7395l.163.0989c.8689.5159 1.7314.8447 2.5267.9803l.0973.0147-.0213-.0986c-.0502-.2219-.1205-.4421-.2104-.6597z" fill="#ff416f" fill-rule="evenodd"/><path clip-rule="evenodd" d="m119.124 72.6207c.786.3943 1.097 1.3515.693 2.138-.403.7865-1.368 1.1045-2.154.7103-2.36-1.1827-4.508-.6746-6.795 1.7485l-.207.2241.093.0013c.179.0038.359.0145.541.032l.181.0198c3.368.4091 5.978 3.1246 5.857 6.5331-.076 2.1422-1.459 3.4671-3.418 3.3082-1.336-.1082-2.826-.9109-4.129-2.1155-.963-.8904-1.735-1.8928-2.262-2.9398l-.021-.0433-.048.0635c-.398.5337-.737 1.1967-.999 1.9912l-.059.1857c-.259.8437-1.153 1.3255-1.999 1.0761-.845-.2493-1.32-1.1355-1.062-1.9792.667-2.1763 1.835-3.8238 3.293-4.8603l.13-.0898.003-.0308c.109-1.0607.526-2.0886 1.305-3.0165l.12-.1384c3.31-3.7241 7.087-4.7481 10.937-2.8182zm-4.887 11.3799c.057-1.7503-1.215-3.1895-2.939-3.4172-.212-.0279-.421-.0368-.627-.0265l-.091.0055.035.0874c.3.7098.785 1.4326 1.436 2.113l.124.1271c.704.7075 1.449 1.177 1.952 1.3031l.094.0191.003-.0263c.003-.0268.006-.0556.008-.0864z" fill="#fdcc3e" fill-rule="evenodd"/><path d="m11.965 102.426c1.0035.903 2.5268.903 3.5303 0l5.2591-4.7332c1.1646-1.0481 1.1646-2.8744 0-3.9225-1.0035-.9032-2.5268-.9032-3.5303 0l-5.2591 4.7332c-1.1647 1.0482-1.1647 2.8745 0 3.9225z" fill="#fdcc3e"/><circle cx="35.0537" cy="26.1194" fill="#639dff" r="3.94434"/><path clip-rule="evenodd" d="m30.6064 70.991c.8417-.3474 1.2262-1.3093.8587-2.1486-1.7989-4.1086-5.4912-5.8442-10.594-5.1409l-.187.0284c-1.2351.2058-2.2471.734-3.0349 1.4952l-.0225.0223-.163-.0167c-1.8487-.1652-3.87.3448-5.8401 1.6085-.7638.4899-.9693 1.5071-.4592 2.272s1.5428.9878 2.3066.4979l.1697-.1065c.7338-.449 1.4424-.7426 2.1127-.8948l.0809-.0171-.012.0481c-.2709 1.1783-.3164 2.4865-.1357 3.835.2444 1.8243.9039 3.4584 1.8986 4.442 1.4594 1.4431 3.4392 1.3315 4.9149-.303 2.348-2.6005 2.0576-6.4934-.3608-9.0809l-.1319-.1377c-.1332-.1358-.2702-.2655-.4108-.3891l-.0728-.063.3131-.0373c3.4263-.3682 5.4776.6776 6.58 3.1955.3675.8392 1.3477 1.238 2.1895.8907zm-11.171-1.14c1.2252 1.3142 1.3807 3.182.305 4.3804l-.0622.0664c-.0199.0203-.039.0389-.0572.0557l-.0183.0162-.0623-.0758c-.3223-.4256-.6336-1.256-.7717-2.2267l-.0229-.1726c-.1123-.916-.0689-1.7511.1122-2.4535l.0239-.0851.0752.0571c.1685.1306.3282.2768.4783.4379z" fill="#ff416f" fill-rule="evenodd"/><path d="m27.2283 40.2947c.5468-.9268 1.6798-1.1952 2.5306-.5995s1.0972 1.8299.5503 2.7567c-.9322 1.5799-1.0479 2.4203-.7143 2.9087l.0284.0386.0793-.0142c.0144-.0031.0294-.0066.0453-.0105l.1054-.0288.1302-.0407.2543-.0875.3326-.1209c1.5142-.5581 2.3842-.7161 3.5659-.321.6995.2339 1.3361.6698 1.9019 1.3004 2.2574 2.5157 2.0111 5.6155-.4251 8.4485-.6914.804-1.8503.8452-2.5884.092s-.7759-2.0157-.0844-2.8197c1.1902-1.3841 1.2453-2.0777.4788-2.9319-.1493-.1664-.261-.2429-.3575-.2752-.1234-.0412-.2862-.0364-.5786.0416l-.1728.0499c-.0311.0096-.0635.0198-.0971.0307l-.3387.1166-.5995.2175-.2621.0899c-.0409.0135-.0805.0263-.1191.0385l-.2195.0656c-.3139.0874-.5686.1278-.8958.1487-1.0297.066-1.9765-.301-2.7354-1.1521-1.8395-2.0631-1.6283-4.8683.1853-7.9419z" fill="#2aa598"/></g><path d="m146.856 63c-.187 0-.345-.0653-.476-.196s-.196-.2893-.196-.476v-18.228c0-.2053.056-.3733.168-.504.131-.1307.299-.196.504-.196h2.184c.355 0 .625.1587.812.476l8.008 12.432v-12.208c0-.2053.056-.3733.168-.504.131-.1307.299-.196.504-.196h2.408c.205 0 .373.0653.504.196s.196.2987.196.504v18.2c0 .2053-.065.3733-.196.504s-.289.196-.476.196h-2.212c-.373 0-.653-.1587-.84-.476l-7.98-12.152v11.956c0 .1867-.065.3453-.196.476-.112.1307-.271.196-.476.196zm25.089.28c-2.091 0-3.752-.5973-4.984-1.792-1.213-1.1947-1.857-2.8933-1.932-5.096l-.028-.7c0-2.3333.607-4.172 1.82-5.516 1.232-1.344 2.931-2.016 5.096-2.016 2.221 0 3.929.672 5.124 2.016 1.213 1.344 1.82 3.136 1.82 5.376v.588c0 .1867-.065.3453-.196.476s-.299.196-.504.196h-9.296v.224c.037 1.0453.317 1.9133.84 2.604.541.672 1.279 1.008 2.212 1.008 1.064 0 1.932-.4293 2.604-1.288.168-.2053.299-.3267.392-.364.093-.056.252-.084.476-.084h2.464c.168 0 .308.0467.42.14.131.0933.196.224.196.392 0 .448-.271.98-.812 1.596-.523.5973-1.279 1.12-2.268 1.568s-2.137.672-3.444.672zm3.052-8.848v-.056c0-1.1013-.28-1.9787-.84-2.632-.541-.672-1.288-1.008-2.24-1.008s-1.699.336-2.24 1.008c-.541.6533-.812 1.5307-.812 2.632v.056zm10.401 8.568c-.466 0-.774-.2333-.924-.7l-4.004-12.992c-.018-.056-.028-.14-.028-.252 0-.168.056-.308.168-.42.112-.1307.252-.196.42-.196h2.128c.187 0 .346.056.476.168.15.112.243.2333.28.364l2.716 9.212 2.884-9.128c.056-.168.15-.308.28-.42.15-.1307.336-.196.56-.196h1.428c.224 0 .402.0653.532.196.15.112.243.252.28.42l2.912 9.128 2.716-9.212c.038-.1307.122-.252.252-.364.131-.112.299-.168.504-.168h2.1c.168 0 .308.0653.42.196.131.112.196.252.196.42l-.056.252-4.004 12.992c-.074.224-.186.4013-.336.532-.13.112-.317.168-.56.168h-1.848c-.485 0-.793-.2333-.924-.7l-2.884-8.792-2.912 8.792c-.149.4667-.466.7-.952.7zm30.102 0c-.186 0-.345-.0653-.476-.196-.13-.1307-.196-.2893-.196-.476v-6.3l-6.636-11.732c-.056-.168-.084-.2707-.084-.308 0-.168.056-.308.168-.42.131-.112.271-.168.42-.168h2.52c.355 0 .644.1773.868.532l4.704 8.12 4.732-8.12c.075-.1307.178-.252.308-.364.15-.112.327-.168.532-.168h2.52c.168 0 .308.056.42.168s.168.252.168.42c0 .112-.028.2147-.084.308l-6.608 11.732v6.3c0 .2053-.065.3733-.196.504-.13.112-.298.168-.504.168zm16.355.28c-2.091 0-3.752-.5973-4.984-1.792-1.213-1.1947-1.857-2.8933-1.932-5.096l-.028-.7c0-2.3333.607-4.172 1.82-5.516 1.232-1.344 2.931-2.016 5.096-2.016 2.221 0 3.929.672 5.124 2.016 1.213 1.344 1.82 3.136 1.82 5.376v.588c0 .1867-.065.3453-.196.476s-.299.196-.504.196h-9.296v.224c.037 1.0453.317 1.9133.84 2.604.541.672 1.279 1.008 2.212 1.008 1.064 0 1.932-.4293 2.604-1.288.168-.2053.299-.3267.392-.364.093-.056.252-.084.476-.084h2.464c.168 0 .308.0467.42.14.131.0933.196.224.196.392 0 .448-.271.98-.812 1.596-.523.5973-1.279 1.12-2.268 1.568s-2.137.672-3.444.672zm3.052-8.848v-.056c0-1.1013-.28-1.9787-.84-2.632-.541-.672-1.288-1.008-2.24-1.008s-1.699.336-2.24 1.008c-.541.6533-.812 1.5307-.812 2.632v.056zm11.064 8.848c-.952 0-1.83-.1867-2.632-.56-.784-.392-1.41-.9147-1.876-1.568-.448-.6533-.672-1.372-.672-2.156 0-1.2693.513-2.296 1.54-3.08 1.026-.784 2.436-1.316 4.228-1.596l3.836-.56v-.588c0-.8027-.206-1.4093-.616-1.82-.411-.4107-1.064-.616-1.96-.616-.616 0-1.111.112-1.484.336-.374.224-.682.4573-.924.7-.224.224-.374.3733-.448.448-.075.224-.215.336-.42.336h-2.184c-.168 0-.318-.056-.448-.168-.112-.112-.168-.2613-.168-.448.018-.4667.242-.9893.672-1.568.448-.5973 1.129-1.1107 2.044-1.54.914-.448 2.044-.672 3.388-.672 2.202 0 3.808.4947 4.816 1.484s1.512 2.2867 1.512 3.892v8.792c0 .1867-.066.3453-.196.476-.112.1307-.271.196-.476.196h-2.324c-.187 0-.346-.0653-.476-.196-.131-.1307-.196-.2893-.196-.476v-1.092c-.411.5973-.99 1.092-1.736 1.484-.747.3733-1.68.56-2.8.56zm.952-2.688c1.026 0 1.866-.336 2.52-1.008.653-.672.98-1.6427.98-2.912v-.56l-2.8.448c-2.147.336-3.22 1.0547-3.22 2.156 0 .5973.242 1.064.728 1.4.504.3173 1.101.476 1.792.476zm11.515 2.408c-.187 0-.345-.0653-.476-.196s-.196-.2893-.196-.476v-13.188c0-.2053.065-.3733.196-.504s.289-.196.476-.196h2.296c.205 0 .373.0653.504.196s.196.2987.196.504v1.148c.933-1.232 2.277-1.848 4.032-1.848h1.176c.205 0 .364.0653.476.196.131.112.196.2707.196.476v2.044c0 .1867-.065.3453-.196.476-.112.1307-.271.196-.476.196h-2.212c-.877 0-1.568.252-2.072.756s-.756 1.1947-.756 2.072v7.672c0 .1867-.065.3453-.196.476s-.289.196-.476.196zm17.836 0c-.187 0-.345-.0653-.476-.196s-.196-.2893-.196-.476v-18.228c0-.2053.056-.3733.168-.504.131-.1307.299-.196.504-.196h6.832c5.507 0 8.316 2.5387 8.428 7.616.037 1.0827.056 1.8107.056 2.184 0 .3547-.019 1.0733-.056 2.156-.075 2.6133-.784 4.5453-2.128 5.796-1.325 1.232-3.379 1.848-6.16 1.848zm6.832-3.248c1.549 0 2.669-.3453 3.36-1.036s1.055-1.8387 1.092-3.444c.037-1.12.056-1.82.056-2.1 0-.2987-.019-.9893-.056-2.072-.037-1.5307-.42-2.6507-1.148-3.36-.728-.728-1.876-1.092-3.444-1.092h-3.416v13.104zm18.147 3.528c-2.09 0-3.752-.5973-4.984-1.792-1.213-1.1947-1.857-2.8933-1.932-5.096l-.028-.7c0-2.3333.607-4.172 1.82-5.516 1.232-1.344 2.931-2.016 5.096-2.016 2.222 0 3.93.672 5.124 2.016 1.214 1.344 1.82 3.136 1.82 5.376v.588c0 .1867-.065.3453-.196.476-.13.1307-.298.196-.504.196h-9.296v.224c.038 1.0453.318 1.9133.84 2.604.542.672 1.279 1.008 2.212 1.008 1.064 0 1.932-.4293 2.604-1.288.168-.2053.299-.3267.392-.364.094-.056.252-.084.476-.084h2.464c.168 0 .308.0467.42.14.131.0933.196.224.196.392 0 .448-.27.98-.812 1.596-.522.5973-1.278 1.12-2.268 1.568-.989.448-2.137.672-3.444.672zm3.052-8.848v-.056c0-1.1013-.28-1.9787-.84-2.632-.541-.672-1.288-1.008-2.24-1.008s-1.698.336-2.24 1.008c-.541.6533-.812 1.5307-.812 2.632v.056zm11.064 8.848c-.952 0-1.829-.1867-2.632-.56-.784-.392-1.409-.9147-1.876-1.568-.448-.6533-.672-1.372-.672-2.156 0-1.2693.513-2.296 1.54-3.08s2.436-1.316 4.228-1.596l3.836-.56v-.588c0-.8027-.205-1.4093-.616-1.82s-1.064-.616-1.96-.616c-.616 0-1.111.112-1.484.336s-.681.4573-.924.7c-.224.224-.373.3733-.448.448-.075.224-.215.336-.42.336h-2.184c-.168 0-.317-.056-.448-.168-.112-.112-.168-.2613-.168-.448.019-.4667.243-.9893.672-1.568.448-.5973 1.129-1.1107 2.044-1.54.915-.448 2.044-.672 3.388-.672 2.203 0 3.808.4947 4.816 1.484s1.512 2.2867 1.512 3.892v8.792c0 .1867-.065.3453-.196.476-.112.1307-.271.196-.476.196h-2.324c-.187 0-.345-.0653-.476-.196s-.196-.2893-.196-.476v-1.092c-.411.5973-.989 1.092-1.736 1.484-.747.3733-1.68.56-2.8.56zm.952-2.688c1.027 0 1.867-.336 2.52-1.008s.98-1.6427.98-2.912v-.56l-2.8.448c-2.147.336-3.22 1.0547-3.22 2.156 0 .5973.243 1.064.728 1.4.504.3173 1.101.476 1.792.476zm11.543 2.408c-.186 0-.345-.0653-.476-.196-.13-.1307-.196-.2893-.196-.476v-18.536c0-.2053.066-.364.196-.476.131-.1307.29-.196.476-.196h2.352c.206 0 .364.0653.476.196.131.112.196.2707.196.476v18.536c0 .1867-.065.3453-.196.476-.112.1307-.27.196-.476.196zm7.326-9.8c-.187 0-.345-.0653-.476-.196s-.196-.2893-.196-.476v-2.688c0-.2053.065-.3733.196-.504s.289-.196.476-.196h2.8c.205 0 .373.0653.504.196s.196.2987.196.504v2.688c0 .1867-.065.3453-.196.476s-.299.196-.504.196zm0 9.8c-.187 0-.345-.0653-.476-.196s-.196-.2893-.196-.476v-2.688c0-.2053.065-.3733.196-.504s.289-.196.476-.196h2.8c.205 0 .373.0653.504.196s.196.2987.196.504v2.688c0 .1867-.065.3453-.196.476s-.299.196-.504.196zm13.578 0c-.187 0-.345-.0653-.476-.196s-.196-.2893-.196-.476v-1.456c0-.5227.233-.9613.7-1.316l4.368-4.34c1.325-1.0453 2.343-1.8947 3.052-2.548.728-.672 1.269-1.288 1.624-1.848s.532-1.1107.532-1.652c0-.8773-.233-1.568-.7-2.072s-1.176-.756-2.128-.756c-.933 0-1.671.28-2.212.84-.523.5413-.849 1.2507-.98 2.128-.056.224-.168.392-.336.504-.149.0933-.317.14-.504.14h-2.52c-.168 0-.308-.056-.42-.168s-.168-.252-.168-.42c.037-1.1013.336-2.128.896-3.08.579-.9707 1.4-1.7453 2.464-2.324 1.064-.5973 2.315-.896 3.752-.896 1.493 0 2.763.2613 3.808.784 1.045.504 1.829 1.204 2.352 2.1s.784 1.9133.784 3.052c0 1.2507-.355 2.3893-1.064 3.416-.691 1.008-1.773 2.0907-3.248 3.248l-3.892 3.948h7.924c.205 0 .373.0653.504.196s.196.2987.196.504v2.016c0 .2053-.065.3733-.196.504-.131.112-.299.168-.504.168zm23.187 0c-.186 0-.345-.0653-.476-.196-.13-.1307-.196-.2893-.196-.476v-14.448l-4.228 3.248c-.112.0933-.252.14-.42.14-.224 0-.401-.0933-.532-.28l-1.204-1.568c-.093-.1307-.14-.2613-.14-.392 0-.224.103-.4107.308-.56l6.272-4.872c.206-.1307.439-.196.7-.196h2.52c.187 0 .346.0653.476.196.131.1307.196.2893.196.476v18.256c0 .1867-.065.3453-.196.476-.13.1307-.289.196-.476.196zm10.609-9.744c-1.232 0-2.222-.3267-2.968-.98-.728-.6533-1.13-1.54-1.204-2.66-.019-.3173-.028-.7373-.028-1.26 0-.56.009-1.008.028-1.344.074-1.1573.466-2.072 1.176-2.744.709-.672 1.708-1.008 2.996-1.008s2.286.336 2.996 1.008c.728.672 1.129 1.5867 1.204 2.744.037.672.056 1.12.056 1.344 0 .2053-.019.6253-.056 1.26-.075 1.12-.486 2.0067-1.232 2.66-.728.6533-1.718.98-2.968.98zm-2.268 9.744c-.187 0-.336-.0467-.448-.14-.112-.112-.168-.252-.168-.42 0-.112.037-.2147.112-.308l13.804-18.2c.149-.1867.289-.3173.42-.392.13-.0933.317-.14.56-.14h1.484c.186 0 .326.056.42.168.112.0933.168.224.168.392 0 .112-.038.2147-.112.308l-13.804 18.2c-.15.1867-.29.3267-.42.42-.131.0747-.308.112-.532.112zm2.268-11.844c.541 0 .933-.1587 1.176-.476.261-.3173.42-.7187.476-1.204.037-.6347.056-1.0267.056-1.176 0-.2053-.019-.588-.056-1.148-.038-.4853-.187-.8867-.448-1.204-.262-.336-.663-.504-1.204-.504-.523 0-.915.168-1.176.504-.262.3173-.411.7187-.448 1.204-.019.28-.028.6627-.028 1.148 0 .4667.009.8587.028 1.176.037.4667.177.868.42 1.204.261.3173.662.476 1.204.476zm11.2 12.012c-1.232 0-2.222-.336-2.968-1.008-.728-.6907-1.13-1.6053-1.204-2.744-.019-.3173-.028-.7373-.028-1.26 0-.5413.009-.98.028-1.316.074-1.1573.466-2.072 1.176-2.744.709-.672 1.708-1.008 2.996-1.008 1.306 0 2.314.336 3.024 1.008.709.672 1.101 1.5867 1.176 2.744.037.672.056 1.1107.056 1.316s-.019.6253-.056 1.26c-.075 1.1387-.486 2.0533-1.232 2.744-.728.672-1.718 1.008-2.968 1.008zm0-2.184c.56 0 .961-.1587 1.204-.476.261-.336.41-.7373.448-1.204.037-.6347.056-1.036.056-1.204 0-.1867-.019-.56-.056-1.12-.038-.4853-.187-.8867-.448-1.204-.262-.336-.663-.504-1.204-.504-.523 0-.915.168-1.176.504-.262.3173-.411.7187-.448 1.204-.019.28-.028.6533-.028 1.12 0 .4853.009.8867.028 1.204.037.4667.177.868.42 1.204.261.3173.662.476 1.204.476zm-240.02 38.296c-2.557 0-4.545-.644-5.964-1.932s-2.165-3.2013-2.24-5.74c-.019-.5413-.028-1.3347-.028-2.38 0-1.064.009-1.8667.028-2.408.075-2.4827.84-4.3867 2.296-5.712s3.425-1.988 5.908-1.988c2.464 0 4.424.6627 5.88 1.988 1.475 1.3253 2.249 3.2293 2.324 5.712.037 1.0827.056 1.8853.056 2.408 0 .504-.019 1.2973-.056 2.38-.075 2.5387-.831 4.452-2.268 5.74-1.419 1.288-3.397 1.932-5.936 1.932zm0-3.248c1.251 0 2.24-.3733 2.968-1.12s1.12-1.8947 1.176-3.444c.037-1.12.056-1.876.056-2.268 0-.4293-.019-1.1853-.056-2.268-.056-1.5307-.457-2.6693-1.204-3.416-.747-.7653-1.727-1.148-2.94-1.148-1.232 0-2.221.3827-2.968 1.148-.747.7467-1.139 1.8853-1.176 3.416-.019.5413-.028 1.2973-.028 2.268 0 .952.009 1.708.028 2.268.037 1.5307.42 2.6787 1.148 3.444.747.7467 1.745 1.12 2.996 1.12zm12.581 2.968c-.187 0-.346-.0653-.476-.196-.131-.1307-.196-.2893-.196-.476v-18.228c0-.2053.056-.3733.168-.504.13-.1307.298-.196.504-.196h12.18c.205 0 .373.0653.504.196.13.1307.196.2987.196.504v2.016c0 .1867-.066.3453-.196.476-.131.1307-.299.196-.504.196h-8.96v5.264h8.4c.205 0 .373.0653.504.196.13.1307.196.2893.196.476v2.016c0 .1867-.066.3453-.196.476-.131.1307-.299.196-.504.196h-8.4v6.916c0 .1867-.066.3453-.196.476-.131.1307-.299.196-.504.196zm16.844 0c-.187 0-.346-.0653-.476-.196-.131-.1307-.196-.2893-.196-.476v-18.228c0-.2053.056-.3733.168-.504.13-.1307.298-.196.504-.196h12.18c.205 0 .373.0653.504.196.13.1307.196.2987.196.504v2.016c0 .1867-.066.3453-.196.476-.131.1307-.299.196-.504.196h-8.96v5.264h8.4c.205 0 .373.0653.504.196.13.1307.196.2893.196.476v2.016c0 .1867-.066.3453-.196.476-.131.1307-.299.196-.504.196h-8.4v6.916c0 .1867-.066.3453-.196.476-.131.1307-.299.196-.504.196zm22.804 0c-.186 0-.345-.0653-.476-.196-.13-.1307-.196-.2893-.196-.476v-18.228c0-.2053.056-.3733.168-.504.131-.1307.299-.196.504-.196h8.12c2.184 0 3.818.4853 4.9 1.456 1.083.952 1.624 2.2587 1.624 3.92 0 .9707-.242 1.8013-.728 2.492-.466.672-1.017 1.1573-1.652 1.456.784.3547 1.447.9333 1.988 1.736.542.8027.812 1.7173.812 2.744 0 1.736-.588 3.136-1.764 4.2s-2.818 1.596-4.928 1.596zm7.616-11.564c.952 0 1.68-.2333 2.184-.7.523-.4667.784-1.092.784-1.876s-.252-1.3907-.756-1.82-1.241-.644-2.212-.644h-4.34v5.04zm.28 8.568c.971 0 1.727-.2613 2.268-.784.542-.5413.812-1.2227.812-2.044s-.28-1.4933-.84-2.016c-.541-.5413-1.288-.812-2.24-.812h-4.62v5.656zm10.879-13.944c-.187 0-.345-.0653-.476-.196s-.196-.2893-.196-.476v-2.044c0-.2053.065-.3733.196-.504s.289-.196.476-.196h2.576c.205 0 .373.0653.504.196s.196.2987.196.504v2.044c0 .1867-.075.3453-.224.476-.131.1307-.289.196-.476.196zm.112 16.94c-.187 0-.345-.0653-.476-.196s-.196-.2893-.196-.476v-13.216c0-.2053.065-.364.196-.476.131-.1307.289-.196.476-.196h2.38c.187 0 .345.0653.476.196s.196.2893.196.476v13.216c0 .1867-.065.3453-.196.476s-.289.196-.476.196zm14.83.28c-1.941 0-3.425-.6627-4.452-1.988v1.036c0 .1867-.065.3453-.196.476s-.299.196-.504.196h-2.24c-.187 0-.345-.0653-.476-.196s-.196-.2893-.196-.476v-18.536c0-.2053.065-.364.196-.476.131-.1307.289-.196.476-.196h2.436c.205 0 .364.0653.476.196.131.112.196.2707.196.476v6.216c1.045-1.232 2.473-1.848 4.284-1.848 1.885 0 3.332.616 4.34 1.848 1.027 1.2133 1.568 2.8093 1.624 4.788.019.224.028.532.028.924 0 .3733-.009.6813-.028.924-.075 2.016-.616 3.6307-1.624 4.844-1.008 1.1947-2.455 1.792-4.34 1.792zm-1.064-3.024c1.997 0 3.061-1.232 3.192-3.696.019-.1867.028-.4667.028-.84s-.009-.6533-.028-.84c-.131-2.464-1.195-3.696-3.192-3.696-1.027 0-1.811.3267-2.352.98s-.831 1.4467-.868 2.38c-.019.224-.028.588-.028 1.092 0 .4853.009.84.028 1.064.037.9893.317 1.8293.84 2.52s1.316 1.036 2.38 1.036zm10.731-14.196c-.186 0-.345-.0653-.476-.196-.13-.1307-.196-.2893-.196-.476v-2.044c0-.2053.066-.3733.196-.504.131-.1307.29-.196.476-.196h2.576c.206 0 .374.0653.504.196.131.1307.196.2987.196.504v2.044c0 .1867-.074.3453-.224.476-.13.1307-.289.196-.476.196zm.112 16.94c-.186 0-.345-.0653-.476-.196-.13-.1307-.196-.2893-.196-.476v-13.216c0-.2053.066-.364.196-.476.131-.1307.29-.196.476-.196h2.38c.187 0 .346.0653.476.196.131.1307.196.2893.196.476v13.216c0 .1867-.065.3453-.196.476-.13.1307-.289.196-.476.196zm7.41 0c-.186 0-.345-.0653-.476-.196-.13-.1307-.196-.2893-.196-.476v-13.216c0-.2053.066-.364.196-.476.131-.1307.29-.196.476-.196h2.324c.206 0 .364.0653.476.196.131.112.196.2707.196.476v1.148c1.139-1.4 2.698-2.1 4.676-2.1 1.718 0 3.08.56 4.088 1.68s1.512 2.66 1.512 4.62v7.868c0 .1867-.065.3453-.196.476-.112.1307-.27.196-.476.196h-2.52c-.186 0-.345-.0653-.476-.196-.13-.1307-.196-.2893-.196-.476v-7.7c0-1.0827-.27-1.9227-.812-2.52-.522-.616-1.278-.924-2.268-.924-.952 0-1.717.308-2.296.924-.578.616-.868 1.456-.868 2.52v7.7c0 .1867-.065.3453-.196.476-.112.1307-.27.196-.476.196zm23.296.28c-2.202 0-3.901-.56-5.096-1.68-1.194-1.12-1.838-2.6693-1.932-4.648l-.028-1.232.028-1.232c.094-1.96.747-3.5 1.96-4.62 1.214-1.1387 2.903-1.708 5.068-1.708 2.147 0 3.827.5693 5.04 1.708 1.214 1.12 1.867 2.66 1.96 4.62.019.224.028.6347.028 1.232s-.009 1.008-.028 1.232c-.093 1.9787-.737 3.528-1.932 4.648-1.194 1.12-2.884 1.68-5.068 1.68zm0-2.828c.99 0 1.746-.308 2.268-.924.542-.616.831-1.5213.868-2.716.019-.1867.028-.5507.028-1.092s-.009-.9053-.028-1.092c-.037-1.1947-.326-2.1-.868-2.716-.541-.6347-1.297-.952-2.268-.952-.989 0-1.754.3173-2.296.952-.541.616-.83 1.5213-.868 2.716l-.028 1.092.028 1.092c.038 1.1947.327 2.1.868 2.716.542.616 1.307.924 2.296.924zm17.509 2.548c-.187 0-.345-.0653-.476-.196s-.196-.2893-.196-.476v-18.228c0-.2053.056-.3733.168-.504.131-.1307.299-.196.504-.196h7.504c2.259 0 4.032.532 5.32 1.596s1.932 2.6133 1.932 4.648c0 2.016-.644 3.5467-1.932 4.592-1.288 1.0267-3.061 1.54-5.32 1.54h-4.116v6.552c0 .2053-.065.3733-.196.504-.131.112-.299.168-.504.168zm7.364-10.36c1.083 0 1.904-.252 2.464-.756.579-.5227.868-1.2787.868-2.268 0-.9707-.28-1.7267-.84-2.268-.541-.5413-1.372-.812-2.492-.812h-4.032v6.104zm10.785 10.36c-.187 0-.346-.0653-.476-.196-.131-.1307-.197-.2893-.197-.476v-13.188c0-.2053.066-.3733.197-.504.13-.1307.289-.196.476-.196h2.296c.205 0 .373.0653.504.196.13.1307.196.2987.196.504v1.148c.933-1.232 2.277-1.848 4.032-1.848h1.176c.205 0 .364.0653.476.196.13.112.196.2707.196.476v2.044c0 .1867-.066.3453-.196.476-.112.1307-.271.196-.476.196h-2.212c-.878 0-1.568.252-2.072.756s-.756 1.1947-.756 2.072v7.672c0 .1867-.066.3453-.196.476-.131.1307-.29.196-.476.196zm17.167.28c-2.091 0-3.752-.5973-4.984-1.792-1.214-1.1947-1.858-2.8933-1.932-5.096l-.028-.7c0-2.3333.606-4.172 1.82-5.516 1.232-1.344 2.93-2.016 5.096-2.016 2.221 0 3.929.672 5.124 2.016 1.213 1.344 1.82 3.136 1.82 5.376v.588c0 .1867-.066.3453-.196.476-.131.1307-.299.196-.504.196h-9.296v.224c.037 1.0453.317 1.9133.84 2.604.541.672 1.278 1.008 2.212 1.008 1.064 0 1.932-.4293 2.604-1.288.168-.2053.298-.3267.392-.364.093-.056.252-.084.476-.084h2.464c.168 0 .308.0467.42.14.13.0933.196.224.196.392 0 .448-.271.98-.812 1.596-.523.5973-1.279 1.12-2.268 1.568-.99.448-2.138.672-3.444.672zm3.052-8.848v-.056c0-1.1013-.28-1.9787-.84-2.632-.542-.672-1.288-1.008-2.24-1.008s-1.699.336-2.24 1.008c-.542.6533-.812 1.5307-.812 2.632v.056zm7.507 8.568c-.187 0-.345-.0653-.476-.196s-.196-.2893-.196-.476v-13.216c0-.2053.065-.364.196-.476.131-.1307.289-.196.476-.196h2.212c.205 0 .364.0653.476.196.131.112.196.2707.196.476v.952c1.008-1.2693 2.361-1.904 4.06-1.904 2.072 0 3.519.8307 4.34 2.492.448-.7467 1.083-1.344 1.904-1.792.821-.4667 1.708-.7 2.66-.7 1.531 0 2.781.5227 3.752 1.568s1.456 2.5667 1.456 4.564v8.036c0 .1867-.065.3453-.196.476-.112.1307-.271.196-.476.196h-2.324c-.187 0-.345-.0653-.476-.196s-.196-.2893-.196-.476v-7.812c0-1.176-.252-2.0253-.756-2.548-.485-.5227-1.129-.784-1.932-.784-.728 0-1.353.2707-1.876.812-.504.5227-.756 1.3627-.756 2.52v7.812c0 .1867-.065.3453-.196.476-.112.1307-.271.196-.476.196h-2.352c-.187 0-.345-.0653-.476-.196s-.196-.2893-.196-.476v-7.812c0-1.1573-.252-1.9973-.756-2.52-.504-.5413-1.148-.812-1.932-.812-.728 0-1.353.2707-1.876.812-.504.5227-.756 1.3627-.756 2.52v7.812c0 .1867-.065.3453-.196.476-.112.1307-.271.196-.476.196zm25.181-16.94c-.187 0-.345-.0653-.476-.196s-.196-.2893-.196-.476v-2.044c0-.2053.065-.3733.196-.504s.289-.196.476-.196h2.576c.205 0 .373.0653.504.196s.196.2987.196.504v2.044c0 .1867-.075.3453-.224.476-.131.1307-.289.196-.476.196zm.112 16.94c-.187 0-.345-.0653-.476-.196s-.196-.2893-.196-.476v-13.216c0-.2053.065-.364.196-.476.131-.1307.289-.196.476-.196h2.38c.187 0 .345.0653.476.196s.196.2893.196.476v13.216c0 .1867-.065.3453-.196.476s-.289.196-.476.196zm12.142.28c-1.717 0-3.07-.56-4.06-1.68-.989-1.12-1.484-2.66-1.484-4.62v-7.868c0-.2053.066-.364.196-.476.131-.1307.29-.196.476-.196h2.52c.187 0 .346.0653.476.196.131.1307.196.2893.196.476v7.7c0 2.296.999 3.444 2.996 3.444.971 0 1.736-.308 2.296-.924.579-.616.868-1.456.868-2.52v-7.7c0-.2053.066-.364.196-.476.131-.1307.29-.196.476-.196h2.492c.206 0 .364.0653.476.196.131.112.196.2707.196.476v13.216c0 .1867-.065.3453-.196.476-.112.1307-.27.196-.476.196h-2.324c-.186 0-.345-.0653-.476-.196-.13-.1307-.196-.2893-.196-.476v-1.148c-1.026 1.4-2.576 2.1-4.648 2.1zm12.686-.28c-.187 0-.345-.0653-.476-.196s-.196-.2893-.196-.476v-13.216c0-.2053.065-.364.196-.476.131-.1307.289-.196.476-.196h2.212c.205 0 .364.0653.476.196.131.112.196.2707.196.476v.952c1.008-1.2693 2.361-1.904 4.06-1.904 2.072 0 3.519.8307 4.34 2.492.448-.7467 1.083-1.344 1.904-1.792.821-.4667 1.708-.7 2.66-.7 1.531 0 2.781.5227 3.752 1.568s1.456 2.5667 1.456 4.564v8.036c0 .1867-.065.3453-.196.476-.112.1307-.271.196-.476.196h-2.324c-.187 0-.345-.0653-.476-.196s-.196-.2893-.196-.476v-7.812c0-1.176-.252-2.0253-.756-2.548-.485-.5227-1.129-.784-1.932-.784-.728 0-1.353.2707-1.876.812-.504.5227-.756 1.3627-.756 2.52v7.812c0 .1867-.065.3453-.196.476-.112.1307-.271.196-.476.196h-2.352c-.187 0-.345-.0653-.476-.196s-.196-.2893-.196-.476v-7.812c0-1.1573-.252-1.9973-.756-2.52-.504-.5413-1.148-.812-1.932-.812-.728 0-1.353.2707-1.876.812-.504.5227-.756 1.3627-.756 2.52v7.812c0 .1867-.065.3453-.196.476-.112.1307-.271.196-.476.196z" fill="#fff"/><path d="m448 63 7 7-7 7" stroke="#fff" stroke-linecap="round" stroke-width="3"/></svg>