<svg height="24" viewBox="0 0 24 24" width="24" xmlns="http://www.w3.org/2000/svg"><path d="m3 16.196v-7.632c0-.152.064-.284.192-.396a.738.738 0 0 1 .504-.168h2.484c.856 0 1.542.222 2.058.666s.774 1.142.774 2.094v.06c0 .952-.27 1.654-.81 2.106s-1.254.678-2.142.678h-1.188v2.592c0 .184-.092.326-.276.426s-.404.15-.66.15-.476-.05-.66-.15-.276-.242-.276-.426zm1.872-4.032h1.188c.72 0 1.08-.4 1.08-1.2v-.132c0-.8-.36-1.2-1.08-1.2h-1.188zm4.956 4.044v-7.644c0-.152.076-.284.228-.396s.348-.168.588-.168h2.124c.896 0 1.612.228 2.148.684s.804 1.172.804 2.148v3.108c0 .976-.268 1.692-.804 2.148s-1.252.684-2.148.684h-2.124c-.24 0-.436-.056-.588-.168s-.228-.244-.228-.396zm1.872-1.068h1.068c.72 0 1.08-.4 1.08-1.2v-3.108c0-.8-.36-1.2-1.08-1.2h-1.068zm5.208 1.056v-7.62c0-.184.08-.326.24-.426s.352-.15.576-.15h4.164c.184 0 .324.08.42.24s.144.348.144.564c0 .232-.05.428-.15.588s-.238.24-.414.24h-3.108v2.028h1.812c.176 0 .314.072.414.216s.15.316.15.516a.867.867 0 0 1 -.144.492.473.473 0 0 1 -.42.216h-1.812v3.096c0 .184-.092.326-.276.426s-.404.15-.66.15-.476-.05-.66-.15-.276-.242-.276-.426z" fill="#ff4f41"/></svg>