<svg xmlns="http://www.w3.org/2000/svg" width="308" height="167" viewBox="0 0 308 167">
    <g fill="none" fill-rule="evenodd" stroke="#8F6DF5" stroke-linecap="round" stroke-linejoin="round" stroke-width="4">
        <path d="M0 161.313c40.025 5.743 103.6-25.739 135.724-48.346 14.004-9.855 37.237-26.017 39.082-45.173 4.265-44.28-57.898-48.488-82.41-23.583-19.17 19.476-11.568 52.503 13.124 62.986 25.862 10.98 57.687 4.825 82.304-6.233 5.523-2.481 28.829-16.719 35.176-24.556M269.585 18.192c-.102-.088 5.87-6.512 6.546-7.076 2.003-1.67 3.835-3.548 5.746-5.27 1.144-1.03 4.958-4.208 9.457-5.352 2.447-.621 6.902-1.08 9.447 1.36 2.957 2.835 2.44 8.38 1.408 10.47-2.364 4.788-6.194 8.039-9.848 11.828-1.667 1.73-4.944 3.876-4.944 5.056 0 2.324 6.367 16.8 6.77 27.765.169 4.58.232 9.644-3.673 12.439-2.109 1.509-5.859 2.535-7.165.26-.75-1.308-11.46-19.508-12.543-21.52-.43-.797-1.074-1.627-2.077-1.665-1.632-.062-2.814.756-4.112 1.536-1.947 1.17-5.104 2.997-5.54 5.472-.262 1.49.132 2.822.185 4.289.071 1.975-.135 4.29-.967 6.116-1.502 3.298-4.652 5.858-8.573 5.662-3.08-.155-4.421-1.718-4.923-2.119-1.885-1.504-2.308-8.75-3.937-10.076-1.35-1.098-3.31-1.701-4.75-2.377-1.416-.666-3.344-1.613-4.358-2.813-1.523-1.8-1.95-4.276-1.639-6.452.185-1.297 1.353-3.24 2.06-4.345 1.16-1.811 3.058-1.962 5.017-1.962 3.287 0 6.294 1.526 9.56-.13 2.139-1.084 3.597-3.182 5.335-4.783.459-.422 4.127-3.562 2.729-3.562" transform="translate(2 3)"/>
        <path d="M255.225 30c-1.479-1.084-5.172-3.992-6.598-5.142-1.024-.825-15.513-11.996-15.626-16.286-.06-2.297 2.513-4.27 4.417-5.231 4.643-2.347 9.057-1.224 13.797.409 1.299.447 8.222 4.227 13.785 6.151M102 52c-5.649 5.241-10.744 16.178-6.323 26M150 19c11.17.791 19.586 7.227 24 12" transform="translate(2 3)"/>
    </g>
</svg>
