<svg xmlns="http://www.w3.org/2000/svg" width="104" height="104" viewBox="0 0 104 104">
  <g fill="none">
    <rect width="104" height="104" fill="#FFF"/>
    <rect width="3.586" height="3.586" fill="#000"/>
    <rect width="3.586" height="3.586" x="3.586" fill="#000"/>
    <rect width="3.586" height="3.586" x="7.172" fill="#000"/>
    <rect width="3.586" height="3.586" x="10.759" fill="#000"/>
    <rect width="3.586" height="3.586" x="14.345" fill="#000"/>
    <rect width="3.586" height="3.586" x="17.931" fill="#000"/>
    <rect width="3.586" height="3.586" x="21.517" fill="#000"/>
    <rect width="3.586" height="3.586" x="39.448" fill="#000"/>
    <rect width="3.586" height="3.586" x="43.034" fill="#000"/>
    <rect width="3.586" height="3.586" x="50.207" fill="#000"/>
    <rect width="3.586" height="3.586" x="64.552" fill="#000"/>
    <rect width="3.586" height="3.586" x="78.897" fill="#000"/>
    <rect width="3.586" height="3.586" x="82.483" fill="#000"/>
    <rect width="3.586" height="3.586" x="86.069" fill="#000"/>
    <rect width="3.586" height="3.586" x="89.655" fill="#000"/>
    <rect width="3.586" height="3.586" x="93.241" fill="#000"/>
    <rect width="3.586" height="3.586" x="96.828" fill="#000"/>
    <rect width="3.586" height="3.586" x="100.414" fill="#000"/>
    <rect width="3.586" height="3.586" y="3.586" fill="#000"/>
    <rect width="3.586" height="3.586" x="21.517" y="3.586" fill="#000"/>
    <rect width="3.586" height="3.586" x="32.276" y="3.586" fill="#000"/>
    <rect width="3.586" height="3.586" x="35.862" y="3.586" fill="#000"/>
    <rect width="3.586" height="3.586" x="50.207" y="3.586" fill="#000"/>
    <rect width="3.586" height="3.586" x="71.724" y="3.586" fill="#000"/>
    <rect width="3.586" height="3.586" x="78.897" y="3.586" fill="#000"/>
    <rect width="3.586" height="3.586" x="100.414" y="3.586" fill="#000"/>
    <rect width="3.586" height="3.586" y="7.172" fill="#000"/>
    <rect width="3.586" height="3.586" x="7.172" y="7.172" fill="#000"/>
    <rect width="3.586" height="3.586" x="10.759" y="7.172" fill="#000"/>
    <rect width="3.586" height="3.586" x="14.345" y="7.172" fill="#000"/>
    <rect width="3.586" height="3.586" x="21.517" y="7.172" fill="#000"/>
    <rect width="3.586" height="3.586" x="43.034" y="7.172" fill="#000"/>
    <rect width="3.586" height="3.586" x="57.379" y="7.172" fill="#000"/>
    <rect width="3.586" height="3.586" x="68.138" y="7.172" fill="#000"/>
    <rect width="3.586" height="3.586" x="71.724" y="7.172" fill="#000"/>
    <rect width="3.586" height="3.586" x="78.897" y="7.172" fill="#000"/>
    <rect width="3.586" height="3.586" x="86.069" y="7.172" fill="#000"/>
    <rect width="3.586" height="3.586" x="89.655" y="7.172" fill="#000"/>
    <rect width="3.586" height="3.586" x="93.241" y="7.172" fill="#000"/>
    <rect width="3.586" height="3.586" x="100.414" y="7.172" fill="#000"/>
    <rect width="3.586" height="3.586" y="10.759" fill="#000"/>
    <rect width="3.586" height="3.586" x="7.172" y="10.759" fill="#000"/>
    <rect width="3.586" height="3.586" x="10.759" y="10.759" fill="#000"/>
    <rect width="3.586" height="3.586" x="14.345" y="10.759" fill="#000"/>
    <rect width="3.586" height="3.586" x="21.517" y="10.759" fill="#000"/>
    <rect width="3.586" height="3.586" x="28.69" y="10.759" fill="#000"/>
    <rect width="3.586" height="3.586" x="43.034" y="10.759" fill="#000"/>
    <rect width="3.586" height="3.586" x="46.621" y="10.759" fill="#000"/>
    <rect width="3.586" height="3.586" x="53.793" y="10.759" fill="#000"/>
    <rect width="3.586" height="3.586" x="57.379" y="10.759" fill="#000"/>
    <rect width="3.586" height="3.586" x="60.966" y="10.759" fill="#000"/>
    <rect width="3.586" height="3.586" x="68.138" y="10.759" fill="#000"/>
    <rect width="3.586" height="3.586" x="71.724" y="10.759" fill="#000"/>
    <rect width="3.586" height="3.586" x="78.897" y="10.759" fill="#000"/>
    <rect width="3.586" height="3.586" x="86.069" y="10.759" fill="#000"/>
    <rect width="3.586" height="3.586" x="89.655" y="10.759" fill="#000"/>
    <rect width="3.586" height="3.586" x="93.241" y="10.759" fill="#000"/>
    <rect width="3.586" height="3.586" x="100.414" y="10.759" fill="#000"/>
    <rect width="3.586" height="3.586" y="14.345" fill="#000"/>
    <rect width="3.586" height="3.586" x="7.172" y="14.345" fill="#000"/>
    <rect width="3.586" height="3.586" x="10.759" y="14.345" fill="#000"/>
    <rect width="3.586" height="3.586" x="14.345" y="14.345" fill="#000"/>
    <rect width="3.586" height="3.586" x="21.517" y="14.345" fill="#000"/>
    <rect width="3.586" height="3.586" x="28.69" y="14.345" fill="#000"/>
    <rect width="3.586" height="3.586" x="32.276" y="14.345" fill="#000"/>
    <rect width="3.586" height="3.586" x="46.621" y="14.345" fill="#000"/>
    <rect width="3.586" height="3.586" x="57.379" y="14.345" fill="#000"/>
    <rect width="3.586" height="3.586" x="60.966" y="14.345" fill="#000"/>
    <rect width="3.586" height="3.586" x="64.552" y="14.345" fill="#000"/>
    <rect width="3.586" height="3.586" x="68.138" y="14.345" fill="#000"/>
    <rect width="3.586" height="3.586" x="78.897" y="14.345" fill="#000"/>
    <rect width="3.586" height="3.586" x="86.069" y="14.345" fill="#000"/>
    <rect width="3.586" height="3.586" x="89.655" y="14.345" fill="#000"/>
    <rect width="3.586" height="3.586" x="93.241" y="14.345" fill="#000"/>
    <rect width="3.586" height="3.586" x="100.414" y="14.345" fill="#000"/>
    <rect width="3.586" height="3.586" y="17.931" fill="#000"/>
    <rect width="3.586" height="3.586" x="21.517" y="17.931" fill="#000"/>
    <rect width="3.586" height="3.586" x="39.448" y="17.931" fill="#000"/>
    <rect width="3.586" height="3.586" x="43.034" y="17.931" fill="#000"/>
    <rect width="3.586" height="3.586" x="46.621" y="17.931" fill="#000"/>
    <rect width="3.586" height="3.586" x="50.207" y="17.931" fill="#000"/>
    <rect width="3.586" height="3.586" x="57.379" y="17.931" fill="#000"/>
    <rect width="3.586" height="3.586" x="60.966" y="17.931" fill="#000"/>
    <rect width="3.586" height="3.586" x="71.724" y="17.931" fill="#000"/>
    <rect width="3.586" height="3.586" x="78.897" y="17.931" fill="#000"/>
    <rect width="3.586" height="3.586" x="100.414" y="17.931" fill="#000"/>
    <rect width="3.586" height="3.586" y="21.517" fill="#000"/>
    <rect width="3.586" height="3.586" x="3.586" y="21.517" fill="#000"/>
    <rect width="3.586" height="3.586" x="7.172" y="21.517" fill="#000"/>
    <rect width="3.586" height="3.586" x="10.759" y="21.517" fill="#000"/>
    <rect width="3.586" height="3.586" x="14.345" y="21.517" fill="#000"/>
    <rect width="3.586" height="3.586" x="17.931" y="21.517" fill="#000"/>
    <rect width="3.586" height="3.586" x="21.517" y="21.517" fill="#000"/>
    <rect width="3.586" height="3.586" x="28.69" y="21.517" fill="#000"/>
    <rect width="3.586" height="3.586" x="35.862" y="21.517" fill="#000"/>
    <rect width="3.586" height="3.586" x="43.034" y="21.517" fill="#000"/>
    <rect width="3.586" height="3.586" x="50.207" y="21.517" fill="#000"/>
    <rect width="3.586" height="3.586" x="57.379" y="21.517" fill="#000"/>
    <rect width="3.586" height="3.586" x="64.552" y="21.517" fill="#000"/>
    <rect width="3.586" height="3.586" x="71.724" y="21.517" fill="#000"/>
    <rect width="3.586" height="3.586" x="78.897" y="21.517" fill="#000"/>
    <rect width="3.586" height="3.586" x="82.483" y="21.517" fill="#000"/>
    <rect width="3.586" height="3.586" x="86.069" y="21.517" fill="#000"/>
    <rect width="3.586" height="3.586" x="89.655" y="21.517" fill="#000"/>
    <rect width="3.586" height="3.586" x="93.241" y="21.517" fill="#000"/>
    <rect width="3.586" height="3.586" x="96.828" y="21.517" fill="#000"/>
    <rect width="3.586" height="3.586" x="100.414" y="21.517" fill="#000"/>
    <rect width="3.586" height="3.586" x="35.862" y="25.103" fill="#000"/>
    <rect width="3.586" height="3.586" x="39.448" y="25.103" fill="#000"/>
    <rect width="3.586" height="3.586" x="50.207" y="25.103" fill="#000"/>
    <rect width="3.586" height="3.586" x="53.793" y="25.103" fill="#000"/>
    <rect width="3.586" height="3.586" x="57.379" y="25.103" fill="#000"/>
    <rect width="3.586" height="3.586" x="71.724" y="25.103" fill="#000"/>
    <rect width="3.586" height="3.586" y="28.69" fill="#000"/>
    <rect width="3.586" height="3.586" x="3.586" y="28.69" fill="#000"/>
    <rect width="3.586" height="3.586" x="17.931" y="28.69" fill="#000"/>
    <rect width="3.586" height="3.586" x="21.517" y="28.69" fill="#000"/>
    <rect width="3.586" height="3.586" x="25.103" y="28.69" fill="#000"/>
    <rect width="3.586" height="3.586" x="32.276" y="28.69" fill="#000"/>
    <rect width="3.586" height="3.586" x="39.448" y="28.69" fill="#000"/>
    <rect width="3.586" height="3.586" x="46.621" y="28.69" fill="#000"/>
    <rect width="3.586" height="3.586" x="50.207" y="28.69" fill="#000"/>
    <rect width="3.586" height="3.586" x="53.793" y="28.69" fill="#000"/>
    <rect width="3.586" height="3.586" x="57.379" y="28.69" fill="#000"/>
    <rect width="3.586" height="3.586" x="60.966" y="28.69" fill="#000"/>
    <rect width="3.586" height="3.586" x="68.138" y="28.69" fill="#000"/>
    <rect width="3.586" height="3.586" x="86.069" y="28.69" fill="#000"/>
    <rect width="3.586" height="3.586" x="89.655" y="28.69" fill="#000"/>
    <rect width="3.586" height="3.586" x="3.586" y="32.276" fill="#000"/>
    <rect width="3.586" height="3.586" x="10.759" y="32.276" fill="#000"/>
    <rect width="3.586" height="3.586" x="14.345" y="32.276" fill="#000"/>
    <rect width="3.586" height="3.586" x="25.103" y="32.276" fill="#000"/>
    <rect width="3.586" height="3.586" x="28.69" y="32.276" fill="#000"/>
    <rect width="3.586" height="3.586" x="32.276" y="32.276" fill="#000"/>
    <rect width="3.586" height="3.586" x="43.034" y="32.276" fill="#000"/>
    <rect width="3.586" height="3.586" x="50.207" y="32.276" fill="#000"/>
    <rect width="3.586" height="3.586" x="53.793" y="32.276" fill="#000"/>
    <rect width="3.586" height="3.586" x="64.552" y="32.276" fill="#000"/>
    <rect width="3.586" height="3.586" x="68.138" y="32.276" fill="#000"/>
    <rect width="3.586" height="3.586" x="82.483" y="32.276" fill="#000"/>
    <rect width="3.586" height="3.586" x="86.069" y="32.276" fill="#000"/>
    <rect width="3.586" height="3.586" x="93.241" y="32.276" fill="#000"/>
    <rect width="3.586" height="3.586" x="96.828" y="32.276" fill="#000"/>
    <rect width="3.586" height="3.586" y="35.862" fill="#000"/>
    <rect width="3.586" height="3.586" x="3.586" y="35.862" fill="#000"/>
    <rect width="3.586" height="3.586" x="7.172" y="35.862" fill="#000"/>
    <rect width="3.586" height="3.586" x="10.759" y="35.862" fill="#000"/>
    <rect width="3.586" height="3.586" x="21.517" y="35.862" fill="#000"/>
    <rect width="3.586" height="3.586" x="25.103" y="35.862" fill="#000"/>
    <rect width="3.586" height="3.586" x="28.69" y="35.862" fill="#000"/>
    <rect width="3.586" height="3.586" x="35.862" y="35.862" fill="#000"/>
    <rect width="3.586" height="3.586" x="53.793" y="35.862" fill="#000"/>
    <rect width="3.586" height="3.586" x="57.379" y="35.862" fill="#000"/>
    <rect width="3.586" height="3.586" x="60.966" y="35.862" fill="#000"/>
    <rect width="3.586" height="3.586" x="64.552" y="35.862" fill="#000"/>
    <rect width="3.586" height="3.586" x="71.724" y="35.862" fill="#000"/>
    <rect width="3.586" height="3.586" x="78.897" y="35.862" fill="#000"/>
    <rect width="3.586" height="3.586" x="82.483" y="35.862" fill="#000"/>
    <rect width="3.586" height="3.586" x="86.069" y="35.862" fill="#000"/>
    <rect width="3.586" height="3.586" y="39.448" fill="#000"/>
    <rect width="3.586" height="3.586" x="3.586" y="39.448" fill="#000"/>
    <rect width="3.586" height="3.586" x="10.759" y="39.448" fill="#000"/>
    <rect width="3.586" height="3.586" x="17.931" y="39.448" fill="#000"/>
    <rect width="3.586" height="3.586" x="32.276" y="39.448" fill="#000"/>
    <rect width="3.586" height="3.586" x="43.034" y="39.448" fill="#000"/>
    <rect width="3.586" height="3.586" x="50.207" y="39.448" fill="#000"/>
    <rect width="3.586" height="3.586" x="53.793" y="39.448" fill="#000"/>
    <rect width="3.586" height="3.586" x="57.379" y="39.448" fill="#000"/>
    <rect width="3.586" height="3.586" x="64.552" y="39.448" fill="#000"/>
    <rect width="3.586" height="3.586" x="68.138" y="39.448" fill="#000"/>
    <rect width="3.586" height="3.586" x="71.724" y="39.448" fill="#000"/>
    <rect width="3.586" height="3.586" x="78.897" y="39.448" fill="#000"/>
    <rect width="3.586" height="3.586" x="89.655" y="39.448" fill="#000"/>
    <rect width="3.586" height="3.586" x="17.931" y="43.034" fill="#000"/>
    <rect width="3.586" height="3.586" x="21.517" y="43.034" fill="#000"/>
    <rect width="3.586" height="3.586" x="32.276" y="43.034" fill="#000"/>
    <rect width="3.586" height="3.586" x="39.448" y="43.034" fill="#000"/>
    <rect width="3.586" height="3.586" x="43.034" y="43.034" fill="#000"/>
    <rect width="3.586" height="3.586" x="57.379" y="43.034" fill="#000"/>
    <rect width="3.586" height="3.586" x="71.724" y="43.034" fill="#000"/>
    <rect width="3.586" height="3.586" x="78.897" y="43.034" fill="#000"/>
    <rect width="3.586" height="3.586" x="82.483" y="43.034" fill="#000"/>
    <rect width="3.586" height="3.586" x="100.414" y="43.034" fill="#000"/>
    <rect width="3.586" height="3.586" x="3.586" y="46.621" fill="#000"/>
    <rect width="3.586" height="3.586" x="14.345" y="46.621" fill="#000"/>
    <rect width="3.586" height="3.586" x="17.931" y="46.621" fill="#000"/>
    <rect width="3.586" height="3.586" x="25.103" y="46.621" fill="#000"/>
    <rect width="3.586" height="3.586" x="28.69" y="46.621" fill="#000"/>
    <rect width="3.586" height="3.586" x="53.793" y="46.621" fill="#000"/>
    <rect width="3.586" height="3.586" x="57.379" y="46.621" fill="#000"/>
    <rect width="3.586" height="3.586" x="60.966" y="46.621" fill="#000"/>
    <rect width="3.586" height="3.586" x="64.552" y="46.621" fill="#000"/>
    <rect width="3.586" height="3.586" x="68.138" y="46.621" fill="#000"/>
    <rect width="3.586" height="3.586" x="71.724" y="46.621" fill="#000"/>
    <rect width="3.586" height="3.586" x="78.897" y="46.621" fill="#000"/>
    <rect width="3.586" height="3.586" x="82.483" y="46.621" fill="#000"/>
    <rect width="3.586" height="3.586" x="86.069" y="46.621" fill="#000"/>
    <rect width="3.586" height="3.586" x="96.828" y="46.621" fill="#000"/>
    <rect width="3.586" height="3.586" x="100.414" y="46.621" fill="#000"/>
    <rect width="3.586" height="3.586" x="3.586" y="50.207" fill="#000"/>
    <rect width="3.586" height="3.586" x="7.172" y="50.207" fill="#000"/>
    <rect width="3.586" height="3.586" x="10.759" y="50.207" fill="#000"/>
    <rect width="3.586" height="3.586" x="17.931" y="50.207" fill="#000"/>
    <rect width="3.586" height="3.586" x="21.517" y="50.207" fill="#000"/>
    <rect width="3.586" height="3.586" x="35.862" y="50.207" fill="#000"/>
    <rect width="3.586" height="3.586" x="39.448" y="50.207" fill="#000"/>
    <rect width="3.586" height="3.586" x="43.034" y="50.207" fill="#000"/>
    <rect width="3.586" height="3.586" x="50.207" y="50.207" fill="#000"/>
    <rect width="3.586" height="3.586" x="53.793" y="50.207" fill="#000"/>
    <rect width="3.586" height="3.586" x="64.552" y="50.207" fill="#000"/>
    <rect width="3.586" height="3.586" x="71.724" y="50.207" fill="#000"/>
    <rect width="3.586" height="3.586" x="78.897" y="50.207" fill="#000"/>
    <rect width="3.586" height="3.586" x="89.655" y="50.207" fill="#000"/>
    <rect width="3.586" height="3.586" x="93.241" y="50.207" fill="#000"/>
    <rect width="3.586" height="3.586" y="53.793" fill="#000"/>
    <rect width="3.586" height="3.586" x="14.345" y="53.793" fill="#000"/>
    <rect width="3.586" height="3.586" x="25.103" y="53.793" fill="#000"/>
    <rect width="3.586" height="3.586" x="32.276" y="53.793" fill="#000"/>
    <rect width="3.586" height="3.586" x="35.862" y="53.793" fill="#000"/>
    <rect width="3.586" height="3.586" x="39.448" y="53.793" fill="#000"/>
    <rect width="3.586" height="3.586" x="50.207" y="53.793" fill="#000"/>
    <rect width="3.586" height="3.586" x="68.138" y="53.793" fill="#000"/>
    <rect width="3.586" height="3.586" x="71.724" y="53.793" fill="#000"/>
    <rect width="3.586" height="3.586" x="75.31" y="53.793" fill="#000"/>
    <rect width="3.586" height="3.586" x="86.069" y="53.793" fill="#000"/>
    <rect width="3.586" height="3.586" x="93.241" y="53.793" fill="#000"/>
    <rect width="3.586" height="3.586" x="100.414" y="53.793" fill="#000"/>
    <rect width="3.586" height="3.586" y="57.379" fill="#000"/>
    <rect width="3.586" height="3.586" x="10.759" y="57.379" fill="#000"/>
    <rect width="3.586" height="3.586" x="21.517" y="57.379" fill="#000"/>
    <rect width="3.586" height="3.586" x="32.276" y="57.379" fill="#000"/>
    <rect width="3.586" height="3.586" x="39.448" y="57.379" fill="#000"/>
    <rect width="3.586" height="3.586" x="53.793" y="57.379" fill="#000"/>
    <rect width="3.586" height="3.586" x="60.966" y="57.379" fill="#000"/>
    <rect width="3.586" height="3.586" x="89.655" y="57.379" fill="#000"/>
    <rect width="3.586" height="3.586" x="93.241" y="57.379" fill="#000"/>
    <rect width="3.586" height="3.586" y="60.966" fill="#000"/>
    <rect width="3.586" height="3.586" x="3.586" y="60.966" fill="#000"/>
    <rect width="3.586" height="3.586" x="7.172" y="60.966" fill="#000"/>
    <rect width="3.586" height="3.586" x="14.345" y="60.966" fill="#000"/>
    <rect width="3.586" height="3.586" x="17.931" y="60.966" fill="#000"/>
    <rect width="3.586" height="3.586" x="25.103" y="60.966" fill="#000"/>
    <rect width="3.586" height="3.586" x="28.69" y="60.966" fill="#000"/>
    <rect width="3.586" height="3.586" x="32.276" y="60.966" fill="#000"/>
    <rect width="3.586" height="3.586" x="35.862" y="60.966" fill="#000"/>
    <rect width="3.586" height="3.586" x="43.034" y="60.966" fill="#000"/>
    <rect width="3.586" height="3.586" x="46.621" y="60.966" fill="#000"/>
    <rect width="3.586" height="3.586" x="53.793" y="60.966" fill="#000"/>
    <rect width="3.586" height="3.586" x="57.379" y="60.966" fill="#000"/>
    <rect width="3.586" height="3.586" x="60.966" y="60.966" fill="#000"/>
    <rect width="3.586" height="3.586" x="64.552" y="60.966" fill="#000"/>
    <rect width="3.586" height="3.586" x="68.138" y="60.966" fill="#000"/>
    <rect width="3.586" height="3.586" x="71.724" y="60.966" fill="#000"/>
    <rect width="3.586" height="3.586" x="78.897" y="60.966" fill="#000"/>
    <rect width="3.586" height="3.586" x="82.483" y="60.966" fill="#000"/>
    <rect width="3.586" height="3.586" x="86.069" y="60.966" fill="#000"/>
    <rect width="3.586" height="3.586" x="93.241" y="60.966" fill="#000"/>
    <rect width="3.586" height="3.586" x="96.828" y="60.966" fill="#000"/>
    <rect width="3.586" height="3.586" x="100.414" y="60.966" fill="#000"/>
    <rect width="3.586" height="3.586" y="64.552" fill="#000"/>
    <rect width="3.586" height="3.586" x="3.586" y="64.552" fill="#000"/>
    <rect width="3.586" height="3.586" x="17.931" y="64.552" fill="#000"/>
    <rect width="3.586" height="3.586" x="21.517" y="64.552" fill="#000"/>
    <rect width="3.586" height="3.586" x="32.276" y="64.552" fill="#000"/>
    <rect width="3.586" height="3.586" x="35.862" y="64.552" fill="#000"/>
    <rect width="3.586" height="3.586" x="39.448" y="64.552" fill="#000"/>
    <rect width="3.586" height="3.586" x="53.793" y="64.552" fill="#000"/>
    <rect width="3.586" height="3.586" x="60.966" y="64.552" fill="#000"/>
    <rect width="3.586" height="3.586" x="68.138" y="64.552" fill="#000"/>
    <rect width="3.586" height="3.586" x="71.724" y="64.552" fill="#000"/>
    <rect width="3.586" height="3.586" x="75.31" y="64.552" fill="#000"/>
    <rect width="3.586" height="3.586" x="78.897" y="64.552" fill="#000"/>
    <rect width="3.586" height="3.586" x="86.069" y="64.552" fill="#000"/>
    <rect width="3.586" height="3.586" x="89.655" y="64.552" fill="#000"/>
    <rect width="3.586" height="3.586" x="100.414" y="64.552" fill="#000"/>
    <rect width="3.586" height="3.586" y="68.138" fill="#000"/>
    <rect width="3.586" height="3.586" x="7.172" y="68.138" fill="#000"/>
    <rect width="3.586" height="3.586" x="14.345" y="68.138" fill="#000"/>
    <rect width="3.586" height="3.586" x="17.931" y="68.138" fill="#000"/>
    <rect width="3.586" height="3.586" x="32.276" y="68.138" fill="#000"/>
    <rect width="3.586" height="3.586" x="43.034" y="68.138" fill="#000"/>
    <rect width="3.586" height="3.586" x="46.621" y="68.138" fill="#000"/>
    <rect width="3.586" height="3.586" x="57.379" y="68.138" fill="#000"/>
    <rect width="3.586" height="3.586" x="64.552" y="68.138" fill="#000"/>
    <rect width="3.586" height="3.586" x="68.138" y="68.138" fill="#000"/>
    <rect width="3.586" height="3.586" x="71.724" y="68.138" fill="#000"/>
    <rect width="3.586" height="3.586" x="75.31" y="68.138" fill="#000"/>
    <rect width="3.586" height="3.586" y="71.724" fill="#000"/>
    <rect width="3.586" height="3.586" x="7.172" y="71.724" fill="#000"/>
    <rect width="3.586" height="3.586" x="10.759" y="71.724" fill="#000"/>
    <rect width="3.586" height="3.586" x="21.517" y="71.724" fill="#000"/>
    <rect width="3.586" height="3.586" x="28.69" y="71.724" fill="#000"/>
    <rect width="3.586" height="3.586" x="43.034" y="71.724" fill="#000"/>
    <rect width="3.586" height="3.586" x="50.207" y="71.724" fill="#000"/>
    <rect width="3.586" height="3.586" x="60.966" y="71.724" fill="#000"/>
    <rect width="3.586" height="3.586" x="68.138" y="71.724" fill="#000"/>
    <rect width="3.586" height="3.586" x="71.724" y="71.724" fill="#000"/>
    <rect width="3.586" height="3.586" x="75.31" y="71.724" fill="#000"/>
    <rect width="3.586" height="3.586" x="78.897" y="71.724" fill="#000"/>
    <rect width="3.586" height="3.586" x="82.483" y="71.724" fill="#000"/>
    <rect width="3.586" height="3.586" x="86.069" y="71.724" fill="#000"/>
    <rect width="3.586" height="3.586" x="93.241" y="71.724" fill="#000"/>
    <rect width="3.586" height="3.586" x="96.828" y="71.724" fill="#000"/>
    <rect width="3.586" height="3.586" x="100.414" y="71.724" fill="#000"/>
    <rect width="3.586" height="3.586" x="28.69" y="75.31" fill="#000"/>
    <rect width="3.586" height="3.586" x="32.276" y="75.31" fill="#000"/>
    <rect width="3.586" height="3.586" x="35.862" y="75.31" fill="#000"/>
    <rect width="3.586" height="3.586" x="50.207" y="75.31" fill="#000"/>
    <rect width="3.586" height="3.586" x="53.793" y="75.31" fill="#000"/>
    <rect width="3.586" height="3.586" x="57.379" y="75.31" fill="#000"/>
    <rect width="3.586" height="3.586" x="64.552" y="75.31" fill="#000"/>
    <rect width="3.586" height="3.586" x="71.724" y="75.31" fill="#000"/>
    <rect width="3.586" height="3.586" x="86.069" y="75.31" fill="#000"/>
    <rect width="3.586" height="3.586" x="89.655" y="75.31" fill="#000"/>
    <rect width="3.586" height="3.586" y="78.897" fill="#000"/>
    <rect width="3.586" height="3.586" x="3.586" y="78.897" fill="#000"/>
    <rect width="3.586" height="3.586" x="7.172" y="78.897" fill="#000"/>
    <rect width="3.586" height="3.586" x="10.759" y="78.897" fill="#000"/>
    <rect width="3.586" height="3.586" x="14.345" y="78.897" fill="#000"/>
    <rect width="3.586" height="3.586" x="17.931" y="78.897" fill="#000"/>
    <rect width="3.586" height="3.586" x="21.517" y="78.897" fill="#000"/>
    <rect width="3.586" height="3.586" x="28.69" y="78.897" fill="#000"/>
    <rect width="3.586" height="3.586" x="32.276" y="78.897" fill="#000"/>
    <rect width="3.586" height="3.586" x="39.448" y="78.897" fill="#000"/>
    <rect width="3.586" height="3.586" x="43.034" y="78.897" fill="#000"/>
    <rect width="3.586" height="3.586" x="53.793" y="78.897" fill="#000"/>
    <rect width="3.586" height="3.586" x="68.138" y="78.897" fill="#000"/>
    <rect width="3.586" height="3.586" x="71.724" y="78.897" fill="#000"/>
    <rect width="3.586" height="3.586" x="78.897" y="78.897" fill="#000"/>
    <rect width="3.586" height="3.586" x="86.069" y="78.897" fill="#000"/>
    <rect width="3.586" height="3.586" x="89.655" y="78.897" fill="#000"/>
    <rect width="3.586" height="3.586" x="93.241" y="78.897" fill="#000"/>
    <rect width="3.586" height="3.586" y="82.483" fill="#000"/>
    <rect width="3.586" height="3.586" x="21.517" y="82.483" fill="#000"/>
    <rect width="3.586" height="3.586" x="28.69" y="82.483" fill="#000"/>
    <rect width="3.586" height="3.586" x="32.276" y="82.483" fill="#000"/>
    <rect width="3.586" height="3.586" x="35.862" y="82.483" fill="#000"/>
    <rect width="3.586" height="3.586" x="39.448" y="82.483" fill="#000"/>
    <rect width="3.586" height="3.586" x="50.207" y="82.483" fill="#000"/>
    <rect width="3.586" height="3.586" x="53.793" y="82.483" fill="#000"/>
    <rect width="3.586" height="3.586" x="71.724" y="82.483" fill="#000"/>
    <rect width="3.586" height="3.586" x="86.069" y="82.483" fill="#000"/>
    <rect width="3.586" height="3.586" y="86.069" fill="#000"/>
    <rect width="3.586" height="3.586" x="7.172" y="86.069" fill="#000"/>
    <rect width="3.586" height="3.586" x="10.759" y="86.069" fill="#000"/>
    <rect width="3.586" height="3.586" x="14.345" y="86.069" fill="#000"/>
    <rect width="3.586" height="3.586" x="21.517" y="86.069" fill="#000"/>
    <rect width="3.586" height="3.586" x="46.621" y="86.069" fill="#000"/>
    <rect width="3.586" height="3.586" x="50.207" y="86.069" fill="#000"/>
    <rect width="3.586" height="3.586" x="53.793" y="86.069" fill="#000"/>
    <rect width="3.586" height="3.586" x="64.552" y="86.069" fill="#000"/>
    <rect width="3.586" height="3.586" x="68.138" y="86.069" fill="#000"/>
    <rect width="3.586" height="3.586" x="71.724" y="86.069" fill="#000"/>
    <rect width="3.586" height="3.586" x="75.31" y="86.069" fill="#000"/>
    <rect width="3.586" height="3.586" x="78.897" y="86.069" fill="#000"/>
    <rect width="3.586" height="3.586" x="82.483" y="86.069" fill="#000"/>
    <rect width="3.586" height="3.586" x="86.069" y="86.069" fill="#000"/>
    <rect width="3.586" height="3.586" x="89.655" y="86.069" fill="#000"/>
    <rect width="3.586" height="3.586" x="96.828" y="86.069" fill="#000"/>
    <rect width="3.586" height="3.586" y="89.655" fill="#000"/>
    <rect width="3.586" height="3.586" x="7.172" y="89.655" fill="#000"/>
    <rect width="3.586" height="3.586" x="10.759" y="89.655" fill="#000"/>
    <rect width="3.586" height="3.586" x="14.345" y="89.655" fill="#000"/>
    <rect width="3.586" height="3.586" x="21.517" y="89.655" fill="#000"/>
    <rect width="3.586" height="3.586" x="32.276" y="89.655" fill="#000"/>
    <rect width="3.586" height="3.586" x="35.862" y="89.655" fill="#000"/>
    <rect width="3.586" height="3.586" x="43.034" y="89.655" fill="#000"/>
    <rect width="3.586" height="3.586" x="46.621" y="89.655" fill="#000"/>
    <rect width="3.586" height="3.586" x="50.207" y="89.655" fill="#000"/>
    <rect width="3.586" height="3.586" x="53.793" y="89.655" fill="#000"/>
    <rect width="3.586" height="3.586" x="57.379" y="89.655" fill="#000"/>
    <rect width="3.586" height="3.586" x="60.966" y="89.655" fill="#000"/>
    <rect width="3.586" height="3.586" x="64.552" y="89.655" fill="#000"/>
    <rect width="3.586" height="3.586" x="75.31" y="89.655" fill="#000"/>
    <rect width="3.586" height="3.586" x="89.655" y="89.655" fill="#000"/>
    <rect width="3.586" height="3.586" x="93.241" y="89.655" fill="#000"/>
    <rect width="3.586" height="3.586" x="100.414" y="89.655" fill="#000"/>
    <rect width="3.586" height="3.586" y="93.241" fill="#000"/>
    <rect width="3.586" height="3.586" x="7.172" y="93.241" fill="#000"/>
    <rect width="3.586" height="3.586" x="10.759" y="93.241" fill="#000"/>
    <rect width="3.586" height="3.586" x="14.345" y="93.241" fill="#000"/>
    <rect width="3.586" height="3.586" x="21.517" y="93.241" fill="#000"/>
    <rect width="3.586" height="3.586" x="32.276" y="93.241" fill="#000"/>
    <rect width="3.586" height="3.586" x="35.862" y="93.241" fill="#000"/>
    <rect width="3.586" height="3.586" x="46.621" y="93.241" fill="#000"/>
    <rect width="3.586" height="3.586" x="50.207" y="93.241" fill="#000"/>
    <rect width="3.586" height="3.586" x="53.793" y="93.241" fill="#000"/>
    <rect width="3.586" height="3.586" x="57.379" y="93.241" fill="#000"/>
    <rect width="3.586" height="3.586" x="78.897" y="93.241" fill="#000"/>
    <rect width="3.586" height="3.586" x="82.483" y="93.241" fill="#000"/>
    <rect width="3.586" height="3.586" x="86.069" y="93.241" fill="#000"/>
    <rect width="3.586" height="3.586" x="89.655" y="93.241" fill="#000"/>
    <rect width="3.586" height="3.586" x="93.241" y="93.241" fill="#000"/>
    <rect width="3.586" height="3.586" x="96.828" y="93.241" fill="#000"/>
    <rect width="3.586" height="3.586" y="96.828" fill="#000"/>
    <rect width="3.586" height="3.586" x="21.517" y="96.828" fill="#000"/>
    <rect width="3.586" height="3.586" x="28.69" y="96.828" fill="#000"/>
    <rect width="3.586" height="3.586" x="43.034" y="96.828" fill="#000"/>
    <rect width="3.586" height="3.586" x="46.621" y="96.828" fill="#000"/>
    <rect width="3.586" height="3.586" x="50.207" y="96.828" fill="#000"/>
    <rect width="3.586" height="3.586" x="57.379" y="96.828" fill="#000"/>
    <rect width="3.586" height="3.586" x="68.138" y="96.828" fill="#000"/>
    <rect width="3.586" height="3.586" x="78.897" y="96.828" fill="#000"/>
    <rect width="3.586" height="3.586" x="89.655" y="96.828" fill="#000"/>
    <rect width="3.586" height="3.586" x="93.241" y="96.828" fill="#000"/>
    <rect width="3.586" height="3.586" x="100.414" y="96.828" fill="#000"/>
    <rect width="3.586" height="3.586" y="100.414" fill="#000"/>
    <rect width="3.586" height="3.586" x="3.586" y="100.414" fill="#000"/>
    <rect width="3.586" height="3.586" x="7.172" y="100.414" fill="#000"/>
    <rect width="3.586" height="3.586" x="10.759" y="100.414" fill="#000"/>
    <rect width="3.586" height="3.586" x="14.345" y="100.414" fill="#000"/>
    <rect width="3.586" height="3.586" x="17.931" y="100.414" fill="#000"/>
    <rect width="3.586" height="3.586" x="21.517" y="100.414" fill="#000"/>
    <rect width="3.586" height="3.586" x="28.69" y="100.414" fill="#000"/>
    <rect width="3.586" height="3.586" x="32.276" y="100.414" fill="#000"/>
    <rect width="3.586" height="3.586" x="35.862" y="100.414" fill="#000"/>
    <rect width="3.586" height="3.586" x="43.034" y="100.414" fill="#000"/>
    <rect width="3.586" height="3.586" x="50.207" y="100.414" fill="#000"/>
    <rect width="3.586" height="3.586" x="53.793" y="100.414" fill="#000"/>
    <rect width="3.586" height="3.586" x="57.379" y="100.414" fill="#000"/>
    <rect width="3.586" height="3.586" x="60.966" y="100.414" fill="#000"/>
    <rect width="3.586" height="3.586" x="68.138" y="100.414" fill="#000"/>
    <rect width="3.586" height="3.586" x="75.31" y="100.414" fill="#000"/>
    <rect width="3.586" height="3.586" x="86.069" y="100.414" fill="#000"/>
    <rect width="3.586" height="3.586" x="93.241" y="100.414" fill="#000"/>
  </g>
</svg>
