<svg xmlns="http://www.w3.org/2000/svg" xmlns:xlink="http://www.w3.org/1999/xlink" width="317" height="230" viewBox="0 0 317 230"><defs><path id="prefix__a" d="M30.373 3.194c6.43-1.719 12.917 2.272 14.742 9.07C47.356 20.605 42.084 29.3 34.1 42.481l-.005.009c-.923 1.53-2.615 2.323-4.292 2.168 6.827-14.735 10.24-24.68 10.24-29.839 0-5.582-3.469-9.383-10.406-11.402.242-.083.487-.157.736-.224z"/></defs><g fill="none" fill-rule="evenodd"><path fill="#FF4241" fill-rule="nonzero" d="M88.823 221.859c-21.54-2.106-52.726-20.034-54.938-69.676-2.213-49.641 21.862-90.815 50.965-113.592 37.79-29.576 83.256-41.021 155.902 5.582 57.93 37.161 70.076 132.066 32.177 156.295-37.9 24.229-162.566 23.497-184.106 21.39z" opacity=".07"/><path stroke="#7950F2" stroke-linecap="round" stroke-linejoin="round" stroke-width="4.8" d="M160.301 45.521L160.301 159.484M162.102 48.123l39.925 25.648c.687.442 1.103 1.203 1.103 2.02v92.224h0M158.5 48.123l-42.077 25.655c-.714.436-1.15 1.212-1.15 2.05v92.187h0" opacity=".287"/><g transform="translate(133.284 120.79)"><path fill="#FF416F" d="M34.095 42.49l.005-.008C42.084 29.3 47.356 20.606 45.115 12.263 43.29 5.466 36.803 1.475 30.373 3.194c-3.633.971-6.64 3.691-8.156 7.124-3.034-2.216-7.001-3.072-10.634-2.101-6.43 1.719-10.048 8.41-8.222 15.208 2.24 8.342 11.165 13.242 24.69 20.697 2.127 1.164 4.792.444 6.044-1.631z"/><path stroke="#FFF" stroke-linecap="round" stroke-linejoin="round" stroke-opacity=".4" stroke-width="2.4" d="M8.41 22.573c-.442-3.189.148-5.62 1.77-7.294"/><mask id="prefix__b" fill="#fff"><use xlink:href="#prefix__a"/></mask><use fill="#E63B64" xlink:href="#prefix__a"/><path stroke="#FFF" stroke-linecap="round" stroke-linejoin="round" stroke-opacity=".4" stroke-width="2.4" d="M10.807 12.964c-3.202 3.328-4.27 6.922-3.202 10.782" mask="url(#prefix__b)"/></g><g><path fill="#2AA598" d="M30.685 38.142l.005-.008c7.185-11.863 11.93-19.689 9.914-27.197-1.643-6.118-7.481-9.709-13.269-8.162-3.269.874-5.975 3.322-7.34 6.412-2.73-1.995-6.3-2.765-9.57-1.892-5.787 1.547-9.043 7.57-7.4 13.688C5.042 28.49 13.073 32.9 25.246 39.61c1.914 1.047 4.313.4 5.44-1.468z" transform="rotate(36 -127.899 369.113)"/><path fill="#269589" d="M27.335 2.775c5.788-1.547 11.626 2.044 13.269 8.162 2.016 7.508-2.729 15.334-9.914 27.197-.836 1.385-2.358 2.1-3.867 1.96 6.143-13.262 9.215-22.213 9.215-26.856 0-5.024-3.122-8.445-9.365-10.262.217-.074.439-.141.662-.201z" transform="rotate(36 -127.899 369.113)"/><path stroke="#FFF" stroke-linecap="round" stroke-linejoin="round" stroke-opacity=".4" stroke-width="2.4" d="M7.486 15.109c-1.002 2.7-.724 5.46.834 8.28" transform="rotate(36 -127.899 369.113)"/></g><g><path fill="#FDCC3E" fill-rule="nonzero" d="M30.685 38.142l.005-.008c7.185-11.863 11.93-19.689 9.914-27.197-1.643-6.118-7.481-9.709-13.269-8.162-3.269.874-5.975 3.322-7.34 6.412-2.73-1.995-6.3-2.765-9.57-1.892-5.787 1.547-9.043 7.57-7.4 13.688C5.042 28.49 13.073 32.9 25.246 39.61c1.914 1.047 4.313.4 5.44-1.468z" transform="rotate(15 -523.413 449.704)"/><path fill="#D59302" d="M27.335 2.775c5.788-1.547 11.626 2.044 13.269 8.162 2.016 7.508-2.729 15.334-9.914 27.197-.836 1.385-2.358 2.1-3.867 1.96 6.143-13.262 9.215-22.213 9.215-26.856 0-5.024-3.122-8.445-9.365-10.262.217-.074.439-.141.662-.201z" opacity=".475" transform="rotate(15 -523.413 449.704)"/><path stroke="#FFF" stroke-linecap="round" stroke-linejoin="round" stroke-opacity=".4" stroke-width="2.4" d="M6.527 20.093c-.442-3.189.148-5.62 1.77-7.294" transform="rotate(15 -523.413 449.704)"/></g><path fill="#8F6DF5" d="M159.7 23.36c-7.626 0-13.808 6.167-13.808 13.775 0 7.609 6.182 13.776 13.809 13.776 7.626 0 13.808-6.167 13.808-13.776 0-7.608-6.182-13.776-13.808-13.776zm0 8.385c2.985 0 5.404 2.413 5.404 5.39 0 2.978-2.419 5.391-5.403 5.391-2.984 0-5.404-2.413-5.404-5.39 0-2.978 2.42-5.391 5.404-5.391zM203.13 67.682c6.631 0 12.007 5.364 12.007 11.98 0 6.503-5.195 11.796-11.671 11.974l-.336.005h-87.857c-6.632 0-12.008-5.364-12.008-11.98 0-6.503 5.195-11.797 11.672-11.974l.336-.005h87.857z"/><path fill="#8162DD" d="M189.656 67.628c5.646 3.626 8.469 7.438 8.469 11.434 0 3.997-2.823 8.167-8.469 12.511h13.695c6.473 0 11.72-5.247 11.72-11.72 0-6.51-5.209-11.824-11.718-11.953l-13.697-.272z"/><path fill="#7950F2" fill-rule="nonzero" d="M157.903 13.044l4.796.266-.59 10.284c-1.07-.127-1.874-.205-2.408-.235-.535-.03-1.32.049-2.355.235l.557-10.55z" opacity=".29"/></g></svg>