<svg height="104" viewBox="0 0 120 104" width="120" xmlns="http://www.w3.org/2000/svg"><g fill="none" fill-rule="evenodd"><path d="m1.503 81.74c-5.3-23.698 33.176-26.218 25.604-49.597-7.572-23.38 44.074-47.948 75.558-18.996 10.386 9.552 19.372 32.948 4.432 44.456s12.574 46.38-27.506 46.38c-40.081 0-72.787 1.454-78.088-22.243z" fill="#000" fill-opacity=".04" fill-rule="nonzero"/><path d="m84 84.5c0 .828-.679 1.5-1.502 1.5h-44.996c-.83 0-1.502-.676-1.502-1.492v-1.424c0-.046.018-.084.04-.084h47.96z" fill="#5f5f5f"/><path d="m54 74h12v9h-12z" fill="#575757"/><rect fill="#fff" height="58" rx="4" stroke="#5f5f5f" stroke-width="3" width="106" x="6.5" y="15.5"/><g fill-rule="nonzero"><path d="m50 35h9v9h-9z" fill="#f25022"/><path d="m50 46h9v9h-9z" fill="#00a4ef"/><path d="m61 35h9v9h-9z" fill="#7fba02"/><path d="m61 46h9v9h-9z" fill="#ffb900"/></g></g></svg>