<svg xmlns="http://www.w3.org/2000/svg" width="141" height="169" viewBox="0 0 141 169">
    <g fill="none" fill-rule="evenodd" stroke="#FAB500" stroke-linecap="round" stroke-linejoin="round" stroke-width="4">
        <path d="M2.832 101.987c-3.167-23.397 26.844-16.956 36.67-16.1 6.476.564 15.277-1.323 17.768 4.321 5.338 12.102-9.867 23.564-16.67 33.778-1.292 1.94-9.198 8.946-9.479 16.354-.194 5.125 21.499 1.842 26.73 2.62 1.999.298 6.729 11.068 2.288 15.793-6.402 6.811-34.972 6.538-43.897 5.525-4.01-.456-12.716-2.223-14.153-5.257-6.36-13.42 2.962-27.437 12.426-35.959 4.021-3.62 16.048-17.385 11.129-21.335-2.698-2.166-15.997 1.541-18.091 1.541M49.64 18.846C47.187 7.3 52.287.99 57.509.157c8.456-1.348 60.062 6.226 67.844 13.211 7.21 6.473-18.844 40.644-23.14 44.648-2.895 2.697 28.481 2.388 32.32 4.117 3.181 1.433.32 15.32-1.402 16.024-3.625 1.484-19.126 4.154-37.206 3.654-8.35-.232-17.085-2.157-24.479-4.206" transform="translate(3 2)"/>
        <path d="M63.698 73.921c-.172-1.657-.584-4.472-.318-5.429 1.153-4.144 6.738-6.415 9.791-9.16 5.046-4.54 26.316-21.884 21.533-29.951-2.18-3.678-38.6-6.806-45.063-4.46M74.44 62.32c3.081 5.64 7.745 11.077 12.519 15.373M86.312 50.11c7.177 7.876 14.079 21.435 23.743 26.01M115.517 60.178c1.592 3.166 6.564 17.562 10.023 19.112M95.862 33.023c1.694 2.28 9.833 14.775 12.924 15.471M95.13 7.37c6.903 7.543 12.073 22.356 21.197 27.34M65.278 3.298c2.177 8.001 7.012 15.013 12.851 21.806M15.255 85.081c1.078 3.748 4.867 11.474 9.33 15.601M34.072 87.76c1.327 5.014 10.33 21.306 13.057 23.393M27.627 107.647c1.97 3.683 6.584 17.506 10.091 19.874M16.094 124.054c2.204 9.482 10.486 21.397 16.562 28.753 1.727 2.092 4.821 7.664 7.176 8.739M42.945 142.96c.787 2.67 10.501 16.621 13.123 17.799M5.242 143.051c3.817 5.395 7.678 11.34 12.278 16.106" transform="translate(3 2)"/>
    </g>
</svg>
