<?xml version="1.0" standalone="no"?>
<!DOCTYPE svg PUBLIC "-//W3C//DTD SVG 20010904//EN"
 "http://www.w3.org/TR/2001/REC-SVG-20010904/DTD/svg10.dtd">
<svg version="1.0" xmlns="http://www.w3.org/2000/svg"
 width="260.000000pt" height="260.000000pt" viewBox="0 0 260.000000 260.000000"
 preserveAspectRatio="xMidYMid meet">
<metadata>
Created by potrace 1.11, written by Peter Selinger 2001-2013
</metadata>
<g transform="translate(0.000000,260.000000) scale(0.100000,-0.100000)"
fill="#000000" stroke="none">
<path d="M424 2576 c-65 -30 -112 -78 -141 -144 l-24 -54 4 -686 c4 -737 2
-701 57 -867 79 -238 272 -463 500 -583 169 -89 315 -122 521 -118 69 2 130 5
135 8 5 3 26 9 47 12 116 18 321 114 426 199 70 58 173 172 225 251 64 95 128
247 153 360 18 77 24 305 10 391 -20 136 -98 322 -184 443 -74 104 -231 254
-297 283 -11 5 -37 19 -56 30 -48 29 -185 83 -245 97 -94 22 -130 26 -240 27
-184 0 -290 -22 -452 -96 -35 -15 -63 -27 -64 -26 0 1 -2 67 -3 147 -3 134 -5
149 -29 196 -48 94 -125 145 -227 150 -52 3 -76 -2 -116 -20z m477 -1476 c34
-19 44 -30 76 -90 148 -276 512 -271 662 10 28 51 41 66 77 82 56 24 105 16
152 -26 65 -61 57 -148 -28 -271 -84 -122 -190 -202 -340 -256 -56 -20 -84
-23 -195 -23 -115 0 -139 3 -203 26 -127 46 -237 126 -320 233 -40 53 -84 152
-85 193 -2 99 116 169 204 122z"/>
</g>
</svg>
